<?xml version="1.0" encoding="UTF-8"?>
<svg width="1200pt" height="1200pt" version="1.1" viewBox="0 0 1200 1200" xmlns="http://www.w3.org/2000/svg">
 <path d="m305.21 384c-7.9219 0-14.391-6.4219-14.391-14.391 0-7.9219 6.4219-14.391 14.391-14.391h350.26c7.9219 0 14.391 6.4219 14.391 14.391 0 7.9219-6.4219 14.391-14.391 14.391zm-57.094-28.734c7.9219 0 14.391 6.4219 14.391 14.391 0 7.9219-6.4219 14.391-14.391 14.391h-0.046875c-7.9219 0-14.391-6.4219-14.391-14.391 0-7.9219 6.4219-14.391 14.391-14.391zm-49.125 0c7.9219 0 14.391 6.4219 14.391 14.391 0 7.9219-6.4219 14.391-14.391 14.391h-0.046875c-7.9219 0-14.391-6.4219-14.391-14.391 0-7.9219 6.4219-14.391 14.391-14.391zm-49.125 0c7.9219 0 14.391 6.4219 14.391 14.391 0 7.9219-6.4219 14.391-14.391 14.391h-0.046875c-7.9219 0-14.391-6.4219-14.391-14.391 0-7.9219 6.4219-14.391 14.391-14.391zm960.37 201.84h-35.344c-8.3906 0-16.031-3.4219-21.562-8.9531s-8.9531-13.125-8.9531-21.562v-46.922h-118.36v240.61h184.18v-163.22zm-37.078-52.734 20.391 23.953h-18.656c-0.46875 0-0.89062-0.1875-1.2188-0.51562s-0.51562-0.75-0.51562-1.2188zm-14.391-53.391c4.7344 0 8.9062 2.2969 11.531 5.8125l64.594 75.938 0.23438 0.23438 0.1875 0.28125 0.1875 0.23438c0.28125 0.32812 0.5625 0.70312 0.79688 1.0312l0.09375 0.09375 0.14062 0.1875 0.046875 0.09375 0.14062 0.23438 0.1875 0.28125v0.046875l0.09375 0.14062 0.046875 0.09375 0.046875 0.046875 0.09375 0.14062 0.046875 0.09375 0.046875 0.046875 0.09375 0.14062 0.046875 0.09375 0.046875 0.046875 0.09375 0.14062 0.046875 0.09375 0.046875 0.046875 0.09375 0.14062 0.046875 0.046875 0.046875 0.09375 0.09375 0.14062 0.046875 0.046875 0.046875 0.09375 0.09375 0.28125 0.14062 0.28125v0.046875l0.09375 0.23438 0.046875 0.09375v0.046875l0.09375 0.23438 0.046875 0.09375 0.09375 0.28125v0.046875l0.09375 0.32812v0.046875l0.09375 0.28125v0.046875l0.046875 0.046875 0.046875 0.23438v0.046875l0.046875 0.046875 0.046875 0.28125v0.046875l0.046875 0.32812v0.09375l0.046875 0.28125v0.09375l0.046875 0.32812v0.09375l0.046875 0.32812v0.046875l0.046875 0.32812v184.73c0 5.4844-2.0156 10.547-5.3438 14.438-0.375 0.46875-0.79688 0.9375-1.2188 1.3594-4.0781 4.0781-9.6562 6.5625-15.844 6.5625h-196.82c-6.1875 0-11.766-2.5312-15.844-6.5625-4.0781-4.0781-6.5625-9.6562-6.5625-15.844v-253.26c0-5.5312 2.0625-10.641 5.4375-14.578 0.32812-0.42188 0.75-0.89062 1.125-1.2656 4.0781-4.0781 9.6562-6.5625 15.844-6.5625h139.08zm51.422 497.11h-35.344c-8.3906 0-16.031-3.4219-21.562-8.9531s-8.9531-13.125-8.9531-21.562v-46.922h-118.36v240.61h184.18v-163.22zm-37.078-52.734 20.391 23.953h-18.656c-0.46875 0-0.89062-0.1875-1.2188-0.51562s-0.51562-0.75-0.51562-1.2188zm-14.391-53.391c4.7344 0 8.9062 2.2969 11.531 5.8125l64.594 75.938 0.23438 0.23438 0.1875 0.28125 0.1875 0.23438c0.28125 0.32812 0.5625 0.70312 0.79688 1.0312l0.09375 0.09375 0.14062 0.1875 0.046875 0.09375 0.14062 0.23438 0.1875 0.28125v0.046875l0.09375 0.14062 0.046875 0.09375 0.046875 0.046875 0.09375 0.14062 0.046875 0.09375 0.046875 0.046875 0.09375 0.14062 0.046875 0.09375 0.046875 0.046875 0.09375 0.14062 0.046875 0.09375 0.046875 0.046875 0.09375 0.14062 0.046875 0.046875 0.046875 0.09375 0.09375 0.14062 0.046875 0.046875 0.046875 0.09375 0.09375 0.28125 0.14062 0.28125v0.046875l0.09375 0.23438 0.046875 0.09375v0.046875l0.09375 0.23438 0.046875 0.09375 0.09375 0.28125v0.046875l0.09375 0.32812v0.046875l0.09375 0.28125v0.046875l0.046875 0.046875 0.046875 0.23438v0.046875l0.046875 0.046875 0.046875 0.28125v0.046875l0.046875 0.32812v0.09375l0.046875 0.28125v0.09375l0.046875 0.32812v0.09375l0.046875 0.32812v0.046875l0.046875 0.32812v184.73c0 5.4844-2.0156 10.547-5.3438 14.438-0.375 0.46875-0.79688 0.9375-1.2188 1.3594-4.0781 4.0781-9.6562 6.5625-15.844 6.5625h-196.82c-6.1875 0-11.766-2.5312-15.844-6.5625-4.0781-4.0781-6.5625-9.6562-6.5625-15.844v-253.26c0-5.5312 2.0625-10.641 5.4375-14.578 0.32812-0.42188 0.75-0.89062 1.125-1.2656 4.0781-4.0781 9.6562-6.5625 15.844-6.5625h139.08zm51.422-675.79h-35.344c-8.3906 0-16.031-3.4219-21.562-8.9531s-8.9531-13.125-8.9531-21.562v-46.922h-118.36v240.61h184.18v-163.22zm-37.078-52.734 20.391 23.953h-18.656c-0.46875 0-0.89062-0.1875-1.2188-0.51562s-0.51562-0.75-0.51562-1.2188zm-14.391-53.391c4.7344 0 8.9062 2.2969 11.531 5.8125l64.594 75.938 0.23438 0.23438 0.1875 0.28125 0.1875 0.23438c0.28125 0.32812 0.5625 0.70312 0.79688 1.0312l0.09375 0.09375 0.14062 0.1875 0.046875 0.09375 0.14062 0.23438 0.1875 0.28125v0.046875l0.09375 0.14062 0.046875 0.09375 0.046875 0.046875 0.09375 0.14062 0.046875 0.09375 0.046875 0.046875 0.09375 0.14062 0.046875 0.09375 0.046875 0.046875 0.09375 0.14062 0.046875 0.09375 0.046875 0.046875 0.09375 0.14062 0.046875 0.046875 0.046875 0.09375 0.09375 0.14062 0.046875 0.046875 0.046875 0.09375 0.09375 0.28125 0.14062 0.28125v0.046875l0.09375 0.23438 0.046875 0.09375v0.046875l0.09375 0.23438 0.046875 0.09375 0.09375 0.28125v0.046875l0.09375 0.32812v0.046875l0.09375 0.28125v0.046875l0.046875 0.046875 0.046875 0.23438v0.046875l0.046875 0.046875 0.046875 0.28125v0.046875l0.046875 0.32812v0.09375l0.046875 0.28125v0.09375l0.046875 0.32812v0.09375l0.046875 0.32812v0.046875l0.046875 0.32812v184.68c0 5.4844-2.0156 10.547-5.3438 14.438-0.375 0.46875-0.79688 0.9375-1.2188 1.3594-4.0781 4.0781-9.6562 6.5625-15.844 6.5625h-196.82c-6.1875 0-11.766-2.5312-15.844-6.5625-4.0781-4.0781-6.5625-9.6562-6.5625-15.844l-0.1875-253.4c0-5.4844 2.0156-10.547 5.3438-14.438 0.375-0.46875 0.79688-0.9375 1.2188-1.3594 4.0781-4.0781 9.6562-6.5625 15.844-6.5625h139.08zm-530.86 731.72h51.281v-187.6h-51.281zm-150.94 0h51.281v-233.44h-51.281zm-150.94 0h51.281v-141.05h-51.281zm420.19 0c7.9219 0 14.391 6.4219 14.391 14.391 0 7.9219-6.4219 14.391-14.391 14.391l-487.03-0.046876c-7.9219 0-14.391-6.4219-14.391-14.391 0-7.9219 6.4219-14.391 14.391-14.391h38.25v-155.39c0-7.9219 6.4219-14.391 14.391-14.391h80.016c7.9219 0 14.391 6.4219 14.391 14.391v155.39h42.188v-247.82c0-7.9219 6.4219-14.391 14.391-14.391h80.016c7.9219 0 14.391 6.4219 14.391 14.391v247.82h42.188v-201.98c0-7.9219 6.4219-14.391 14.391-14.391h80.016c7.9219 0 14.391 6.4219 14.391 14.391v201.98h38.25zm-555.84-499.74c-8.0625 0-15.375 3.2812-20.672 8.625l-0.046875 0.046875c-5.2969 5.2969-8.625 12.609-8.625 20.672v557.29c0 8.0625 3.2812 15.375 8.625 20.672l0.046875 0.046875c5.2969 5.2969 12.609 8.625 20.672 8.625h624.79c8.0625 0 15.375-3.2812 20.672-8.625l0.046876-0.046875c5.2969-5.2969 8.625-12.609 8.625-20.672v-557.29c0-8.0625-3.2812-15.375-8.625-20.672l-0.046876-0.046875c-5.2969-5.2969-12.609-8.625-20.672-8.625zm625.4 149.72v436.92c0 0.1875-0.046874 0.32812-0.14062 0.42187s-0.28125 0.14063-0.42188 0.14063h-624.84c-0.1875 0-0.32812-0.046876-0.42188-0.14063s-0.14062-0.28125-0.14062-0.42187v-436.92zm-625.97-28.734h625.97v-91.641c0-0.1875-0.046874-0.32812-0.14062-0.42187s-0.28125-0.14063-0.42188-0.14063l-624.84-0.046874c-0.1875 0-0.32812 0.046874-0.42188 0.14062s-0.14062 0.28125-0.14062 0.42188zm740.26 627.47c7.9219 0 14.391 6.4219 14.391 14.391 0 7.9219-6.4219 14.391-14.391 14.391h-427.26c-7.9219 0-14.391-6.4219-14.391-14.391v-84.75c0-7.9219 6.4219-14.391 14.391-14.391 7.9219 0 14.391 6.4219 14.391 14.391v70.359zm-412.92-810.61c0 7.9219-6.4219 14.391-14.391 14.391-7.9219 0-14.391-6.4219-14.391-14.391v-84.75c0-7.9219 6.4219-14.391 14.391-14.391h427.26c7.9219 0 14.391 6.4219 14.391 14.391 0 7.9219-6.4219 14.391-14.391 14.391h-412.87zm387.84 384.47c-7.9219 0-14.391-6.4219-14.391-14.391 0-7.9219 6.4219-14.391 14.391-14.391h50.062c7.9219 0 14.391 6.4219 14.391 14.391 0 7.9219-6.4219 14.391-14.391 14.391z" fill-rule="evenodd"/>
</svg>
