<?xml version="1.0" encoding="UTF-8"?>
<svg id="Layer_1" data-name="Layer 1" xmlns="http://www.w3.org/2000/svg" viewBox="0 0 841.88983154296875 595.27557373046875">
  <defs>
    <style>
      .cls-1, .cls-2, .cls-3, .cls-4, .cls-5, .cls-6, .cls-7, .cls-8, .cls-9, .cls-10, .cls-11, .cls-12, .cls-13, .cls-14, .cls-15 {
        stroke-miterlimit: 10;
      }

      .cls-1, .cls-2, .cls-3, .cls-4, .cls-5, .cls-7, .cls-8, .cls-11, .cls-13, .cls-15 {
        stroke: #1d1c1a;
      }

      .cls-1, .cls-8, .cls-16, .cls-12, .cls-13 {
        fill: #1d1c1a;
      }

      .cls-2, .cls-3, .cls-5, .cls-7, .cls-8, .cls-11, .cls-12 {
        stroke-width: .25px;
      }

      .cls-2, .cls-4, .cls-17, .cls-9, .cls-14 {
        fill: #fff;
      }

      .cls-3 {
        fill: #006635;
      }

      .cls-4, .cls-13 {
        stroke-width: 4px;
      }

      .cls-5, .cls-6, .cls-10 {
        fill: none;
      }

      .cls-6 {
        stroke: #9a9a9a;
        stroke-width: .5px;
      }

      .cls-7 {
        fill: #009448;
      }

      .cls-18 {
        fill: #575756;
      }

      .cls-9 {
        stroke: #d8d8d7;
      }

      .cls-10 {
        stroke: #000;
      }

      .cls-10, .cls-14, .cls-15 {
        stroke-width: 2px;
      }

      .cls-11 {
        fill: #39a849;
      }

      .cls-12, .cls-14 {
        stroke: #fff;
      }

      .cls-15 {
        fill: #eb2027;
      }

      .cls-19 {
        fill: #676767;
      }
    </style>
  </defs>
  <g>
    <rect class="cls-1" x="40.547761830996933" y="306.642748279025909" width="131.577257358713723" height="35.817569589686173"/>
    <path class="cls-2" d="M109.714138384590115,329.769377149950742h12.552836900486c.245043393664673,0,.445051037376288.225681674268344.44995092537556.50770898697192l.020619630219699,1.186822823421608c.005834350349687.335813013098232-.090789712863625.663352897356162-.273060644635734.925631245019758l-.617846915872178.889049431163585c-.015109890739041.021742343345977-.023341826678006.048757087453851-.023341826678006.076600872575v1.794814377188231c0,.476929658800145-.335859900374999.863557537933957-.750164083663549.863557537933957h-10.194537547236905c-.414304183275817,0-.750164083677191-.386627879133812-.750164083677191-.863557537933957v-1.666054109628021c0-.025323209692942-.006810667225182-.050025352140437-.019496560011248-.070713600660383l-.659240543881424-1.075094392386745c-.158570738028175-.258598341433753-.23846199635318-.570270632128086-.227248056949975-.886541581041456l.04202631010503-1.185283823753707c.009845315646999-.277671138710502.208255421767717-.496940228869789.449666496419923-.496940228869789Z"/>
    <path class="cls-2" d="M110.827376046750942,330.836833034314623h10.322468494330678c.201504467156155,0,.365975065897146.155977856382378.370004349460942.350898493259592l.01695596661466.820261904382278c.004797712123946.232094139251785-.074658338839072.458470380010112-.224543656834612.639741697597856l-.508068843244473.614458506446681c-.012425189024725.015027024750452-.019194487449568.033698021810778-.019194487449568.052942003105272v1.240469790427596c0,.32962563784713-.276184839155576.596840014050031-.616876103843424.596840014050031h-8.383188077716113c-.340691264695124,0-.616876103829782-.267214376202901-.616876103829782-.596840014050031v-1.151478291274543c0-.017501908298073-.005600558552942-.034574571538542-.016032441775678-.048873068159082l-.542107716224564-.743041805646499c-.130396137590651-.178727914417323-.196092442225563-.394137410805342-.186870978011029-.612725228422278l.034559141138743-.819198238612444c.008096015374576-.191909906465298.171252924490545-.34345576310443.36977045738422-.34345576310443Z"/>
    <circle class="cls-2" cx="115.97960142021725" cy="317.648865553314863" r="3.279016625035978"/>
    <circle class="cls-2" cx="115.979601420217023" cy="317.648865553315318" r="2.488163129329223"/>
    <circle class="cls-8" cx="115.979601420216568" cy="317.648865553314408" r=".809988157359612"/>
    <g>
      <rect class="cls-2" x="60.249896203225944" y="313.69870595609973" width="19.394766978820371" height="16.020392886572154" transform="translate(139.894559385272316 643.417804798771613) rotate(180)"/>
      <path class="cls-8" d="M78.20096545605702,315.04893161320615h-16.63467773398952v9.092279595231958h3.31153306741453v2.419719569708832h2.541409098247641v1.807942407411247h5.005805799579321v-1.881267242859394h2.387384304414809v-2.419719569707013h3.46555786125009s.154024793833742-9.018954759785629-.077012396916871-9.018954759785629Z"/>
    </g>
  </g>
  <g>
    <rect class="cls-12" x="460.755515702559933" y="112.368903940669043" width="88.800181332213469" height="59.954262555504101" rx="4.12738853502924" ry="4.12738853502924"/>
    <g>
      <rect class="cls-11" x="461.415397309734544" y="77.627805439511576" width="87.480418117860609" height="23.71652716468634"/>
      <line class="cls-5" x1="462.514163997442665" y1="81.636232565948376" x2="547.427464813637926" y2="81.636232565948376"/>
      <rect class="cls-7" x="474.363716221960203" y="85.278053124249709" width="9.16755794281562" height="12.786330814983558"/>
      <rect class="cls-3" x="476.354041301641701" y="88.054032840665968" width="5.186907783439892" height="7.234371382161044"/>
      <line class="cls-2" x1="474.363716221960203" y1="85.278053124249709" x2="476.354041301641701" y2="88.054032840665968"/>
      <line class="cls-2" x1="483.531274164775823" y1="85.278053124249709" x2="481.540949085081593" y2="88.054032840665968"/>
      <line class="cls-2" x1="481.540949085081593" y1="95.288404222827012" x2="483.531274164775823" y2="98.064383939233267"/>
      <line class="cls-2" x1="476.354041301641701" y1="95.288404222827012" x2="474.363716221960203" y2="98.064383939233267"/>
      <rect class="cls-7" x="484.83175509467037" y="85.278053124249709" width="9.167557942819258" height="12.786330814983558"/>
      <rect class="cls-3" x="486.822080174355506" y="88.054032840665968" width="5.186907783439892" height="7.234371382161044"/>
      <line class="cls-2" x1="484.83175509467037" y1="85.278053124249709" x2="486.822080174355506" y2="88.054032840665968"/>
      <line class="cls-2" x1="493.999313037489628" y1="85.278053124249709" x2="492.008987957795398" y2="88.054032840665968"/>
      <line class="cls-2" x1="492.008987957795398" y1="95.288404222827012" x2="493.999313037489628" y2="98.064383939233267"/>
      <line class="cls-2" x1="486.822080174355506" y1="95.288404222827012" x2="484.83175509467037" y2="98.064383939233267"/>
      <rect class="cls-7" x="463.895677349233665" y="85.278053124249709" width="9.167557942828353" height="12.786330814983558"/>
      <rect class="cls-3" x="465.886002428927895" y="88.054032840665968" width="5.186907783439892" height="7.234371382161044"/>
      <line class="cls-2" x1="463.895677349233665" y1="85.278053124249709" x2="465.886002428927895" y2="88.054032840665968"/>
      <line class="cls-2" x1="473.063235292062018" y1="85.278053124249709" x2="471.072910212367788" y2="88.054032840665968"/>
      <line class="cls-2" x1="471.072910212367788" y1="95.288404222827012" x2="473.063235292062018" y2="98.064383939233267"/>
      <line class="cls-2" x1="465.886002428927895" y1="95.288404222827012" x2="463.895677349233665" y2="98.064383939233267"/>
      <rect class="cls-7" x="537.171949458224844" y="85.278053124249709" width="9.167557942808344" height="12.786330814983558"/>
      <rect class="cls-3" x="539.162274537908161" y="88.054032840665968" width="5.186907783439892" height="7.234371382161044"/>
      <line class="cls-2" x1="537.171949458224844" y1="85.278053124249709" x2="539.162274537908161" y2="88.054032840665968"/>
      <line class="cls-2" x1="546.339507401033188" y1="85.278053124249709" x2="544.349182321348053" y2="88.054032840665968"/>
      <line class="cls-2" x1="544.349182321348053" y1="95.288404222827012" x2="546.339507401033188" y2="98.064383939233267"/>
      <line class="cls-2" x1="539.162274537908161" y1="95.288404222827012" x2="537.171949458224844" y2="98.064383939233267"/>
      <rect class="cls-7" x="526.703910585512858" y="85.278053124249709" width="9.167557942817439" height="12.786330814983558"/>
      <rect class="cls-3" x="528.694235665194356" y="88.054032840665968" width="5.186907783439892" height="7.234371382161044"/>
      <line class="cls-2" x1="526.703910585512858" y1="85.278053124249709" x2="528.694235665194356" y2="88.054032840665968"/>
      <line class="cls-2" x1="535.871468528330297" y1="85.278053124249709" x2="533.881143448634248" y2="88.054032840665968"/>
      <line class="cls-2" x1="533.881143448634248" y1="95.288404222827012" x2="535.871468528330297" y2="98.064383939233267"/>
      <line class="cls-2" x1="528.694235665194356" y1="95.288404222827012" x2="526.703910585512858" y2="98.064383939233267"/>
      <rect class="cls-7" x="516.235871712800872" y="85.278053124249709" width="9.167557942813801" height="12.786330814983558"/>
      <rect class="cls-3" x="518.226196792495102" y="88.054032840665968" width="5.186907783427159" height="7.234371382161044"/>
      <line class="cls-2" x1="516.235871712800872" y1="85.278053124249709" x2="518.226196792495102" y2="88.054032840665968"/>
      <line class="cls-2" x1="525.403429655614673" y1="85.278053124249709" x2="523.413104575922262" y2="88.054032840665968"/>
      <line class="cls-2" x1="523.413104575922262" y1="95.288404222827012" x2="525.403429655614673" y2="98.064383939233267"/>
      <line class="cls-2" x1="518.226196792495102" y1="95.288404222827012" x2="516.235871712800872" y2="98.064383939233267"/>
      <rect class="cls-7" x="505.767832840085248" y="85.278053124249709" width="9.167557942819258" height="12.786330814983558"/>
      <rect class="cls-3" x="507.758157919779478" y="88.054032840665968" width="5.186907783441711" height="7.234371382161044"/>
      <line class="cls-2" x1="505.767832840085248" y1="85.278053124249709" x2="507.758157919779478" y2="88.054032840665968"/>
      <line class="cls-2" x1="514.935390782904506" y1="85.278053124249709" x2="512.945065703221189" y2="88.054032840665968"/>
      <line class="cls-2" x1="512.945065703221189" y1="95.288404222827012" x2="514.935390782904506" y2="98.064383939233267"/>
      <line class="cls-2" x1="507.758157919779478" y1="95.288404222827012" x2="505.767832840085248" y2="98.064383939233267"/>
      <rect class="cls-7" x="495.299793967373262" y="85.278053124249709" width="9.167557942817439" height="12.786330814983558"/>
      <rect class="cls-3" x="497.290119047069311" y="88.054032840665968" width="5.186907783427159" height="7.234371382161044"/>
      <line class="cls-2" x1="495.299793967373262" y1="85.278053124249709" x2="497.290119047069311" y2="88.054032840665968"/>
      <line class="cls-2" x1="504.4673519101907" y1="85.278053124249709" x2="502.47702683049647" y2="88.054032840665968"/>
      <line class="cls-2" x1="502.47702683049647" y1="95.288404222827012" x2="504.4673519101907" y2="98.064383939233267"/>
      <line class="cls-2" x1="497.290119047069311" y1="95.288404222827012" x2="495.299793967373262" y2="98.064383939233267"/>
    </g>
    <g>
      <rect class="cls-11" x="461.415397309734544" y="47.159530200126937" width="87.480418117860609" height="23.716527164685431"/>
      <line class="cls-5" x1="462.514163997442665" y1="51.167957326561918" x2="547.427464813637926" y2="51.167957326561918"/>
      <rect class="cls-7" x="474.363716221960203" y="54.809777884875075" width="9.16755794281562" height="12.786330814982648"/>
      <rect class="cls-3" x="476.354041301641701" y="57.58575760128042" width="5.186907783439892" height="7.234371382161953"/>
      <line class="cls-2" x1="474.363716221960203" y1="54.809777884875075" x2="476.354041301641701" y2="57.58575760128042"/>
      <line class="cls-2" x1="483.531274164775823" y1="54.809777884875075" x2="481.540949085081593" y2="57.58575760128042"/>
      <line class="cls-2" x1="481.540949085081593" y1="64.820128983442373" x2="483.531274164775823" y2="67.596108699857723"/>
      <line class="cls-2" x1="476.354041301641701" y1="64.820128983442373" x2="474.363716221960203" y2="67.596108699857723"/>
      <rect class="cls-7" x="484.83175509467037" y="54.809777884875075" width="9.167557942819258" height="12.786330814982648"/>
      <rect class="cls-3" x="486.822080174355506" y="57.58575760128042" width="5.186907783439892" height="7.234371382161953"/>
      <line class="cls-2" x1="484.83175509467037" y1="54.809777884875075" x2="486.822080174355506" y2="57.58575760128042"/>
      <line class="cls-2" x1="493.999313037489628" y1="54.809777884875075" x2="492.008987957795398" y2="57.58575760128042"/>
      <line class="cls-2" x1="492.008987957795398" y1="64.820128983442373" x2="493.999313037489628" y2="67.596108699857723"/>
      <line class="cls-2" x1="486.822080174355506" y1="64.820128983442373" x2="484.83175509467037" y2="67.596108699857723"/>
      <rect class="cls-7" x="463.895677349233665" y="54.809777884875075" width="9.167557942828353" height="12.786330814982648"/>
      <rect class="cls-3" x="465.886002428927895" y="57.58575760128042" width="5.186907783439892" height="7.234371382161953"/>
      <line class="cls-2" x1="463.895677349233665" y1="54.809777884875075" x2="465.886002428927895" y2="57.58575760128042"/>
      <line class="cls-2" x1="473.063235292062018" y1="54.809777884875075" x2="471.072910212367788" y2="57.58575760128042"/>
      <line class="cls-2" x1="471.072910212367788" y1="64.820128983442373" x2="473.063235292062018" y2="67.596108699857723"/>
      <line class="cls-2" x1="465.886002428927895" y1="64.820128983442373" x2="463.895677349233665" y2="67.596108699857723"/>
      <rect class="cls-7" x="537.171949458224844" y="54.809777884875075" width="9.167557942808344" height="12.786330814982648"/>
      <rect class="cls-3" x="539.162274537908161" y="57.58575760128042" width="5.186907783439892" height="7.234371382161953"/>
      <line class="cls-2" x1="537.171949458224844" y1="54.809777884875075" x2="539.162274537908161" y2="57.58575760128042"/>
      <line class="cls-2" x1="546.339507401033188" y1="54.809777884875075" x2="544.349182321348053" y2="57.58575760128042"/>
      <line class="cls-2" x1="544.349182321348053" y1="64.820128983442373" x2="546.339507401033188" y2="67.596108699857723"/>
      <line class="cls-2" x1="539.162274537908161" y1="64.820128983442373" x2="537.171949458224844" y2="67.596108699857723"/>
      <rect class="cls-7" x="526.703910585512858" y="54.809777884875075" width="9.167557942817439" height="12.786330814982648"/>
      <rect class="cls-3" x="528.694235665194356" y="57.58575760128042" width="5.186907783439892" height="7.234371382161953"/>
      <line class="cls-2" x1="526.703910585512858" y1="54.809777884875075" x2="528.694235665194356" y2="57.58575760128042"/>
      <line class="cls-2" x1="535.871468528330297" y1="54.809777884875075" x2="533.881143448634248" y2="57.58575760128042"/>
      <line class="cls-2" x1="533.881143448634248" y1="64.820128983442373" x2="535.871468528330297" y2="67.596108699857723"/>
      <line class="cls-2" x1="528.694235665194356" y1="64.820128983442373" x2="526.703910585512858" y2="67.596108699857723"/>
      <rect class="cls-7" x="516.235871712800872" y="54.809777884875075" width="9.167557942813801" height="12.786330814982648"/>
      <rect class="cls-3" x="518.226196792495102" y="57.58575760128042" width="5.186907783427159" height="7.234371382161953"/>
      <line class="cls-2" x1="516.235871712800872" y1="54.809777884875075" x2="518.226196792495102" y2="57.58575760128042"/>
      <line class="cls-2" x1="525.403429655614673" y1="54.809777884875075" x2="523.413104575922262" y2="57.58575760128042"/>
      <line class="cls-2" x1="523.413104575922262" y1="64.820128983442373" x2="525.403429655614673" y2="67.596108699857723"/>
      <line class="cls-2" x1="518.226196792495102" y1="64.820128983442373" x2="516.235871712800872" y2="67.596108699857723"/>
      <rect class="cls-7" x="505.767832840085248" y="54.809777884875075" width="9.167557942819258" height="12.786330814982648"/>
      <rect class="cls-3" x="507.758157919779478" y="57.58575760128042" width="5.186907783441711" height="7.234371382161953"/>
      <line class="cls-2" x1="505.767832840085248" y1="54.809777884875075" x2="507.758157919779478" y2="57.58575760128042"/>
      <line class="cls-2" x1="514.935390782904506" y1="54.809777884875075" x2="512.945065703221189" y2="57.58575760128042"/>
      <line class="cls-2" x1="512.945065703221189" y1="64.820128983442373" x2="514.935390782904506" y2="67.596108699857723"/>
      <line class="cls-2" x1="507.758157919779478" y1="64.820128983442373" x2="505.767832840085248" y2="67.596108699857723"/>
      <rect class="cls-7" x="495.299793967373262" y="54.809777884875075" width="9.167557942817439" height="12.786330814982648"/>
      <rect class="cls-3" x="497.290119047069311" y="57.58575760128042" width="5.186907783427159" height="7.234371382161953"/>
      <line class="cls-2" x1="495.299793967373262" y1="54.809777884875075" x2="497.290119047069311" y2="57.58575760128042"/>
      <line class="cls-2" x1="504.4673519101907" y1="54.809777884875075" x2="502.47702683049647" y2="57.58575760128042"/>
      <line class="cls-2" x1="502.47702683049647" y1="64.820128983442373" x2="504.4673519101907" y2="67.596108699857723"/>
      <line class="cls-2" x1="497.290119047069311" y1="64.820128983442373" x2="495.299793967373262" y2="67.596108699857723"/>
    </g>
    <g>
      <g>
        <polyline class="cls-2" points="498.575469801164218 135.131244503866583 482.366477695353751 135.163498692891153 482.366477695353751 151.161576449598215 527.977827574493858 151.161576449598215 527.977827574493858 134.90546518069641 511.297643837686337 135.034481936793782"/>
        <g>
          <path class="cls-16" d="M492.015625,140.20947265625c0-.5478515625.3701171875-.9326171875.888671875-.9326171875.517578125,0,.873046875.384765625.873046875.9326171875,0,.53271484375-.3408203125.93212890625-.888671875.93212890625-.517578125,0-.873046875-.3994140625-.873046875-.93212890625Z"/>
          <path class="cls-16" d="M498.21484375,140.20947265625c0-.5478515625.3701171875-.9326171875.888671875-.9326171875.517578125,0,.873046875.384765625.873046875.9326171875,0,.53271484375-.3408203125.93212890625-.888671875.93212890625-.517578125,0-.873046875-.3994140625-.873046875-.93212890625Z"/>
          <path class="cls-16" d="M504.4130859375,140.20947265625c0-.5478515625.3701171875-.9326171875.8876953125-.9326171875.5185546875,0,.8740234375.384765625.8740234375.9326171875,0,.53271484375-.3408203125.93212890625-.888671875.93212890625-.517578125,0-.873046875-.3994140625-.873046875-.93212890625Z"/>
          <path class="cls-16" d="M510.6123046875,140.20947265625c0-.5478515625.3701171875-.9326171875.8876953125-.9326171875.5185546875,0,.8740234375.384765625.8740234375.9326171875,0,.53271484375-.3408203125.93212890625-.888671875.93212890625-.517578125,0-.873046875-.3994140625-.873046875-.93212890625Z"/>
          <path class="cls-16" d="M516.8115234375,140.20947265625c0-.5478515625.3701171875-.9326171875.8876953125-.9326171875.5185546875,0,.8740234375.384765625.8740234375.9326171875,0,.53271484375-.3408203125.93212890625-.888671875.93212890625-.517578125,0-.873046875-.3994140625-.873046875-.93212890625Z"/>
        </g>
        <g>
          <path class="cls-16" d="M492.015625,146.21044921875c0-.5478515625.3701171875-.9326171875.888671875-.9326171875.517578125,0,.873046875.384765625.873046875.9326171875,0,.53271484375-.3408203125.93212890625-.888671875.93212890625-.517578125,0-.873046875-.3994140625-.873046875-.93212890625Z"/>
          <path class="cls-16" d="M498.21484375,146.21044921875c0-.5478515625.3701171875-.9326171875.888671875-.9326171875.517578125,0,.873046875.384765625.873046875.9326171875,0,.53271484375-.3408203125.93212890625-.888671875.93212890625-.517578125,0-.873046875-.3994140625-.873046875-.93212890625Z"/>
          <path class="cls-16" d="M504.4130859375,146.21044921875c0-.5478515625.3701171875-.9326171875.8876953125-.9326171875.5185546875,0,.8740234375.384765625.8740234375.9326171875,0,.53271484375-.3408203125.93212890625-.888671875.93212890625-.517578125,0-.873046875-.3994140625-.873046875-.93212890625Z"/>
          <path class="cls-16" d="M510.6123046875,146.21044921875c0-.5478515625.3701171875-.9326171875.8876953125-.9326171875.5185546875,0,.8740234375.384765625.8740234375.9326171875,0,.53271484375-.3408203125.93212890625-.888671875.93212890625-.517578125,0-.873046875-.3994140625-.873046875-.93212890625Z"/>
          <path class="cls-16" d="M516.8115234375,146.21044921875c0-.5478515625.3701171875-.9326171875.8876953125-.9326171875.5185546875,0,.8740234375.384765625.8740234375.9326171875,0,.53271484375-.3408203125.93212890625-.888671875.93212890625-.517578125,0-.873046875-.3994140625-.873046875-.93212890625Z"/>
        </g>
      </g>
      <circle class="cls-2" cx="535.208757612217596" cy="142.276007910954604" r="2.282701248254441"/>
      <circle class="cls-2" cx="475.101947170771382" cy="142.276007910953467" r="2.282701248247804"/>
    </g>
  </g>
  <g>
    <path class="cls-16" d="M716.281310862725149,77.546917618524276h120.824472262698691c1.649219564759505,0,2.98817660612076,1.338957041361226,2.98817660612076,2.98817660612076v60.877264379960252c0,2.324172970512421-1.886933571918121,4.211106542430571-4.211106542430571,4.211106542430571h-119.601542326388881c-2.32417297051245,0-4.211106542430571-1.886933571918149-4.211106542430571-4.211106542430571v-59.654334443650441c0-2.324172970512407,1.886933571918121-4.211106542430571,4.211106542430571-4.211106542430571Z"/>
    <g>
      <polygon class="cls-17" points="786.502388782937487 97.98934413009647 786.502388782937487 96.226115807970018 783.643069785242915 96.226115807970018 783.643069785242915 97.98934413009647 777.209630581486635 97.98934413009647 777.209630581486635 106.948533508270884 792.935847014059618 106.948533508270884 792.935847014059618 97.98934413009647 786.502388782937487 97.98934413009647"/>
      <g>
        <rect class="cls-16" x="778.448047957725066" y="99.01139931749276" width="13.249381680094302" height="7.092291841502629"/>
        <g>
          <rect class="cls-17" x="779.597481256461833" y="100.109334708580718" width="2.175271619114937" height="2.175271619125851"/>
          <rect class="cls-17" x="782.522562410964383" y="100.109334708580718" width="2.175271619114937" height="2.175271619125851"/>
          <rect class="cls-17" x="785.447643565466933" y="100.109334708580718" width="2.175271619114937" height="2.175271619125851"/>
          <rect class="cls-17" x="788.372724719969483" y="100.109334708580718" width="2.175271619113119" height="2.175271619125851"/>
        </g>
        <g>
          <rect class="cls-17" x="779.597481256461833" y="102.840783730319345" width="2.175271619114937" height="2.175271619125851"/>
          <rect class="cls-17" x="782.522562410964383" y="102.840783730319345" width="2.175271619114937" height="2.175271619125851"/>
          <rect class="cls-17" x="785.447643565466933" y="102.840783730319345" width="2.175271619114937" height="2.175271619125851"/>
          <rect class="cls-17" x="788.372724719969483" y="102.840783730319345" width="2.175271619102205" height="2.175271619125851"/>
        </g>
      </g>
    </g>
    <g>
      <polygon class="cls-17" points="770.544693344752886 97.98934413009647 770.544693344752886 96.226115807970018 767.685374347058314 96.226115807970018 767.685374347058314 97.98934413009647 761.251935143303854 97.98934413009647 761.251935143303854 106.948533508270884 776.978151575876836 106.948533508270884 776.978151575876836 97.98934413009647 770.544693344752886 97.98934413009647"/>
      <g>
        <rect class="cls-16" x="762.490352519540465" y="99.01139931749276" width="13.249381680096121" height="7.092291841502629"/>
        <g>
          <rect class="cls-17" x="763.639785818279051" y="100.109334708580718" width="2.175271619114937" height="2.175271619125851"/>
          <rect class="cls-17" x="766.564866972779782" y="100.109334708580718" width="2.17527161912767" height="2.175271619125851"/>
          <rect class="cls-17" x="769.489948127271418" y="100.109334708580718" width="2.17527161912767" height="2.175271619125851"/>
          <rect class="cls-17" x="772.415029281786701" y="100.109334708580718" width="2.175271619113119" height="2.175271619125851"/>
        </g>
        <g>
          <rect class="cls-17" x="763.639785818289965" y="102.840783730319345" width="2.175271619104024" height="2.175271619125851"/>
          <rect class="cls-17" x="766.564866972779782" y="102.840783730319345" width="2.17527161912767" height="2.175271619125851"/>
          <rect class="cls-17" x="769.489948127271418" y="102.840783730319345" width="2.17527161912767" height="2.175271619125851"/>
          <rect class="cls-17" x="772.415029281786701" y="102.840783730319345" width="2.175271619113119" height="2.175271619125851"/>
        </g>
      </g>
    </g>
    <g>
      <polygon class="cls-17" points="745.55824728089101 97.98934413009647 745.55824728089101 96.226115807970018 742.698928283194618 96.226115807970018 742.698928283194618 97.98934413009647 736.265489079427425 97.98934413009647 736.265489079427425 106.948533508270884 751.991705512013141 106.948533508270884 751.991705512013141 97.98934413009647 745.55824728089101 97.98934413009647"/>
      <g>
        <rect class="cls-16" x="737.503906455665856" y="99.01139931749276" width="13.249381680107035" height="7.092291841502629"/>
        <g>
          <rect class="cls-17" x="738.653339754415356" y="100.109334708580718" width="2.17527161912767" height="2.175271619125851"/>
          <rect class="cls-17" x="741.578420908905173" y="100.109334708580718" width="2.17527161912767" height="2.175271619125851"/>
          <rect class="cls-17" x="744.503502063409542" y="100.109334708580718" width="2.175271619124032" height="2.175271619125851"/>
          <rect class="cls-17" x="747.428583217908454" y="100.109334708580718" width="2.17527161912767" height="2.175271619125851"/>
        </g>
        <g>
          <rect class="cls-17" x="738.653339754415356" y="102.840783730319345" width="2.17527161912767" height="2.175271619125851"/>
          <rect class="cls-17" x="741.578420908917906" y="102.840783730319345" width="2.175271619114937" height="2.175271619125851"/>
          <rect class="cls-17" x="744.503502063409542" y="102.840783730319345" width="2.175271619124032" height="2.175271619125851"/>
          <rect class="cls-17" x="747.428583217908454" y="102.840783730319345" width="2.17527161912767" height="2.175271619125851"/>
        </g>
      </g>
    </g>
    <g>
      <polygon class="cls-17" points="730.111223988295023 97.98934413009647 730.111223988295023 96.226115807970018 727.251904990600451 96.226115807970018 727.251904990600451 97.98934413009647 720.81846578682962 97.98934413009647 720.81846578682962 106.948533508270884 736.544682219431706 106.948533508270884 736.544682219431706 97.98934413009647 730.111223988295023 97.98934413009647"/>
      <g>
        <rect class="cls-16" x="722.056883163082603" y="99.01139931749276" width="13.249381680108854" height="7.092291841502629"/>
        <g>
          <rect class="cls-17" x="723.20631646181937" y="100.109334708580718" width="2.175271619129489" height="2.175271619125851"/>
          <rect class="cls-17" x="726.131397616321919" y="100.109334708580718" width="2.175271619125851" height="2.175271619125851"/>
          <rect class="cls-17" x="729.056478770824469" y="100.109334708580718" width="2.175271619114937" height="2.175271619125851"/>
          <rect class="cls-17" x="731.981559925327019" y="100.109334708580718" width="2.175271619113119" height="2.175271619125851"/>
        </g>
        <g>
          <rect class="cls-17" x="723.20631646181937" y="102.840783730319345" width="2.175271619129489" height="2.175271619125851"/>
          <rect class="cls-17" x="726.131397616321919" y="102.840783730319345" width="2.175271619125851" height="2.175271619125851"/>
          <rect class="cls-17" x="729.056478770824469" y="102.840783730319345" width="2.175271619114937" height="2.175271619125851"/>
          <rect class="cls-17" x="731.981559925327019" y="102.840783730319345" width="2.175271619113119" height="2.175271619125851"/>
        </g>
      </g>
    </g>
    <g>
      <polygon class="cls-17" points="826.423328769089494 97.982322212639701 826.423328769089494 96.215652725791188 824.109602966487728 96.215652725791188 824.109602966487728 97.982322212639701 818.903743005710567 97.982322212639701 818.903743005710567 106.958996590460629 831.629204126591503 106.958996590460629 831.629204126591503 97.982322212639701 826.423328769089494 97.982322212639701"/>
      <g>
        <rect class="cls-16" x="820.154627513324158" y="99.021884539516577" width="10.236194248462198" height="7.092291841501719"/>
        <g>
          <rect class="cls-17" x="821.215954534929551" y="100.119819930605445" width="2.175271619113119" height="2.175271619114937"/>
          <rect class="cls-17" x="824.14103568943392" y="100.119819930605445" width="2.1752716191113" height="2.175271619114937"/>
          <rect class="cls-17" x="827.06611684393647" y="100.119819930605445" width="2.1752716191113" height="2.175271619114937"/>
        </g>
        <g>
          <rect class="cls-17" x="821.215954534929551" y="102.851268952343162" width="2.175271619113119" height="2.175271619113119"/>
          <rect class="cls-17" x="824.14103568943392" y="102.851268952343162" width="2.175271619124032" height="2.175271619113119"/>
          <rect class="cls-17" x="827.06611684393647" y="102.851268952343162" width="2.1752716191113" height="2.175271619113119"/>
        </g>
      </g>
    </g>
    <g>
      <polygon class="cls-17" points="800.604844204801338 97.982322212639701 800.604844204801338 96.215652725791188 798.291118402201391 96.215652725791188 798.291118402201391 97.982322212639701 793.085258441415135 97.982322212639701 793.085258441415135 106.958996590460629 805.810719562306986 106.958996590460629 805.810719562306986 97.982322212639701 800.604844204801338 97.982322212639701"/>
      <g>
        <rect class="cls-16" x="794.33614294903964" y="99.021884539516577" width="10.23619424845856" height="7.092291841501719"/>
        <g>
          <rect class="cls-17" x="795.397469970632301" y="100.119819930605445" width="2.175271619125851" height="2.175271619114937"/>
          <rect class="cls-17" x="798.322551125145765" y="100.119819930605445" width="2.175271619114937" height="2.175271619114937"/>
          <rect class="cls-17" x="801.247632279635582" y="100.119819930605445" width="2.175271619125851" height="2.175271619114937"/>
        </g>
        <g>
          <rect class="cls-17" x="795.397469970632301" y="102.851268952343162" width="2.175271619125851" height="2.175271619113119"/>
          <rect class="cls-17" x="798.322551125145765" y="102.851268952343162" width="2.175271619114937" height="2.175271619113119"/>
          <rect class="cls-17" x="801.247632279635582" y="102.851268952343162" width="2.175271619125851" height="2.175271619113119"/>
        </g>
      </g>
    </g>
    <g>
      <polygon class="cls-17" points="813.617912859643184 97.982322212639701 813.617912859643184 96.215652725791188 811.304187057034142 96.215652725791188 811.304187057034142 97.982322212639701 806.098327096246067 97.982322212639701 806.098327096246067 106.958996590460629 818.823788217148831 106.958996590460629 818.823788217148831 97.982322212639701 813.617912859643184 97.982322212639701"/>
      <g>
        <rect class="cls-16" x="807.349211603872391" y="99.021884539516577" width="10.236194248469474" height="7.092291841501719"/>
        <g>
          <rect class="cls-17" x="808.410538625474146" y="100.119819930605445" width="2.175271619125851" height="2.175271619114937"/>
          <rect class="cls-17" x="811.335619779976696" y="100.119819930605445" width="2.175271619125851" height="2.175271619114937"/>
          <rect class="cls-17" x="814.260700934468332" y="100.119819930605445" width="2.175271619124032" height="2.175271619114937"/>
        </g>
        <g>
          <rect class="cls-17" x="808.410538625474146" y="102.851268952343162" width="2.175271619125851" height="2.175271619113119"/>
          <rect class="cls-17" x="811.335619779976696" y="102.851268952343162" width="2.175271619125851" height="2.175271619113119"/>
          <rect class="cls-17" x="814.260700934468332" y="102.851268952343162" width="2.175271619124032" height="2.175271619113119"/>
        </g>
      </g>
    </g>
    <g>
      <polygon class="cls-17" points="796.971115883214225 125.505746170171733 796.971115883214225 127.268974492310008 799.830434880906978 127.268974492310008 799.830434880906978 125.505746170171733 806.263874084677809 125.505746170171733 806.263874084677809 116.546556791996409 790.537657652079361 116.546556791996409 790.537657652079361 125.505746170171733 796.971115883214225 125.505746170171733"/>
      <g>
        <rect class="cls-16" x="791.776075028345076" y="117.391399141270995" width="13.249381680092483" height="7.092291841514452" transform="translate(1596.801531736782636 241.875090124056328) rotate(180)"/>
        <g>
          <rect class="cls-17" x="801.700751790564027" y="121.210483972571637" width="2.175271619124032" height="2.175271619113119" transform="translate(1605.576775200252087 244.59623956425628) rotate(180)"/>
          <rect class="cls-17" x="798.77567063607421" y="121.210483972571637" width="2.175271619113119" height="2.175271619113119" transform="translate(1599.726612891261539 244.59623956425628) rotate(180)"/>
          <rect class="cls-17" x="795.850589481580755" y="121.210483972571637" width="2.175271619104024" height="2.175271619113119" transform="translate(1593.876450582265534 244.59623956425628) rotate(180)"/>
          <rect class="cls-17" x="792.925508327067291" y="121.210483972571637" width="2.175271619125851" height="2.175271619113119" transform="translate(1588.026288273260434 244.59623956425628) rotate(180)"/>
        </g>
        <g>
          <rect class="cls-17" x="801.700751790564027" y="118.47903495083392" width="2.175271619124032" height="2.175271619114937" transform="translate(1605.576775200252087 239.133341520782665) rotate(180)"/>
          <rect class="cls-17" x="798.77567063607421" y="118.47903495083392" width="2.175271619113119" height="2.175271619114937" transform="translate(1599.726612891261539 239.133341520782665) rotate(180)"/>
          <rect class="cls-17" x="795.850589481560746" y="118.47903495083392" width="2.175271619124032" height="2.175271619114937" transform="translate(1593.876450582245525 239.133341520782665) rotate(180)"/>
          <rect class="cls-17" x="792.925508327067291" y="118.47903495083392" width="2.175271619125851" height="2.175271619114937" transform="translate(1588.026288273260434 239.133341520782665) rotate(180)"/>
        </g>
      </g>
    </g>
    <g>
      <polygon class="cls-17" points="811.759058115560038 125.512768087616678 811.759058115560038 127.279437574487929 814.072783918170899 127.279437574487929 814.072783918170899 125.512768087616678 819.278643878960793 125.512768087616678 819.278643878960793 116.536093709805755 806.553182758065304 116.536093709805755 806.553182758065304 125.512768087616678 811.759058115560038 125.512768087616678"/>
      <g>
        <rect class="cls-16" x="807.791565122861357" y="117.380913919248087" width="10.236194248471293" height="7.092291841513543" transform="translate(1625.819324494194007 241.854119680009603) rotate(180)"/>
        <g>
          <rect class="cls-17" x="814.791160730614138" y="121.19999875054873" width="2.175271619114937" height="2.175271619112209" transform="translate(1631.757593080343213 244.575269120209555) rotate(180)"/>
          <rect class="cls-17" x="811.866079576111588" y="121.19999875054873" width="2.175271619114937" height="2.175271619112209" transform="translate(1625.907430771338113 244.575269120209555) rotate(180)"/>
          <rect class="cls-17" x="808.940998421609038" y="121.19999875054873" width="2.17527161912767" height="2.175271619112209" transform="translate(1620.057268462345746 244.575269120209555) rotate(180)"/>
        </g>
        <g>
          <rect class="cls-17" x="814.791160730614138" y="118.468549728810103" width="2.175271619114937" height="2.175271619114937" transform="translate(1631.757593080343213 239.11237107673503) rotate(180)"/>
          <rect class="cls-17" x="811.866079576111588" y="118.468549728810103" width="2.175271619114937" height="2.175271619114937" transform="translate(1625.907430771338113 239.11237107673503) rotate(180)"/>
          <rect class="cls-17" x="808.940998421609038" y="118.468549728810103" width="2.17527161912767" height="2.175271619114937" transform="translate(1620.057268462345746 239.11237107673503) rotate(180)"/>
        </g>
      </g>
    </g>
    <g>
      <polygon class="cls-17" points="824.109618363203481 125.512768087616678 824.109618363203481 127.279437574487929 826.423344165805247 127.279437574487929 826.423344165805247 125.512768087616678 831.629204126591503 125.512768087616678 831.629204126591503 116.536093709805755 818.903743005710567 116.536093709805755 818.903743005710567 125.512768087616678 824.109618363203481 125.512768087616678"/>
      <g>
        <rect class="cls-16" x="820.142125370506619" y="117.380913919248087" width="10.236194248471293" height="7.092291841513543" transform="translate(1650.520444989484531 241.854119680009603) rotate(180)"/>
        <g>
          <rect class="cls-17" x="827.141720978248486" y="121.19999875054873" width="2.175271619124032" height="2.175271619112209" transform="translate(1656.458713575621005 244.575269120209555) rotate(180)"/>
          <rect class="cls-17" x="824.216639823744117" y="121.19999875054873" width="2.175271619129489" height="2.175271619112209" transform="translate(1650.608551266617724 244.575269120209555) rotate(180)"/>
          <rect class="cls-17" x="821.2915586692543" y="121.19999875054873" width="2.175271619114937" height="2.175271619112209" transform="translate(1644.758388957623538 244.575269120209555) rotate(180)"/>
        </g>
        <g>
          <rect class="cls-17" x="827.141720978248486" y="118.468549728810103" width="2.175271619124032" height="2.175271619114937" transform="translate(1656.458713575621005 239.11237107673503) rotate(180)"/>
          <rect class="cls-17" x="824.216639823744117" y="118.468549728810103" width="2.175271619129489" height="2.175271619114937" transform="translate(1650.608551266617724 239.11237107673503) rotate(180)"/>
          <rect class="cls-17" x="821.2915586692543" y="118.468549728810103" width="2.175271619114937" height="2.175271619114937" transform="translate(1644.758388957623538 239.11237107673503) rotate(180)"/>
        </g>
      </g>
    </g>
    <g>
      <polygon class="cls-17" points="733.315851771605594 125.505746170171733 733.315851771605594 127.268974492310008 738.870253756353122 127.268974492310008 738.870253756353122 125.505746170171733 751.367602779295339 125.505746170171733 751.367602779295339 116.546556791996409 720.81846578682962 116.546556791996409 720.81846578682962 125.505746170171733 733.315851771605594 125.505746170171733"/>
      <rect class="cls-16" x="722.05704947614322" y="117.39334326718199" width="27.832279003861913" height="7.092291841512633" transform="translate(1471.946377956148353 241.878978375876528) rotate(180)"/>
      <g>
        <rect class="cls-17" x="731.981726238385818" y="121.212428098480814" width="2.175271619125851" height="2.175271619125851" transform="translate(1466.138724095897487 244.600127816087394) rotate(180)"/>
        <rect class="cls-17" x="729.056645083885087" y="121.212428098480814" width="2.175271619125851" height="2.175271619125851" transform="translate(1460.288561786896025 244.600127816087394) rotate(180)"/>
        <rect class="cls-17" x="726.131563929382537" y="121.212428098480814" width="2.175271619125851" height="2.175271619125851" transform="translate(1454.438399477890925 244.600127816087394) rotate(180)"/>
        <rect class="cls-17" x="723.206482774889082" y="121.212428098480814" width="2.175271619129489" height="2.175271619125851" transform="translate(1448.588237168907654 244.600127816087394) rotate(180)"/>
      </g>
      <g>
        <rect class="cls-17" x="731.981726238385818" y="118.480979076744916" width="2.175271619125851" height="2.175271619113119" transform="translate(1466.138724095897487 239.137229772602865) rotate(180)"/>
        <rect class="cls-17" x="729.056645083885087" y="118.480979076744916" width="2.175271619125851" height="2.175271619113119" transform="translate(1460.288561786896025 239.137229772602865) rotate(180)"/>
        <rect class="cls-17" x="726.131563929382537" y="118.480979076744916" width="2.175271619125851" height="2.175271619113119" transform="translate(1454.438399477890925 239.137229772602865) rotate(180)"/>
        <rect class="cls-17" x="723.206482774889082" y="118.480979076744916" width="2.175271619129489" height="2.175271619113119" transform="translate(1448.588237168907654 239.137229772602865) rotate(180)"/>
      </g>
      <g>
        <rect class="cls-17" x="743.782671930972356" y="121.212428098480814" width="2.175271619113119" height="2.175271619125851" transform="translate(1489.74061548105783 244.600127816087394) rotate(180)"/>
        <rect class="cls-17" x="740.857590776469806" y="121.212428098480814" width="2.175271619125851" height="2.175271619125851" transform="translate(1483.890453172065463 244.600127816087394) rotate(180)"/>
        <rect class="cls-17" x="737.932509621967256" y="121.212428098480814" width="2.175271619125851" height="2.175271619125851" transform="translate(1478.040290863060363 244.600127816087394) rotate(180)"/>
        <rect class="cls-17" x="735.007428467464706" y="121.212428098480814" width="2.17527161912767" height="2.175271619125851" transform="translate(1472.190128554057083 244.600127816087394) rotate(180)"/>
      </g>
      <g>
        <rect class="cls-17" x="743.782671930972356" y="118.480979076744916" width="2.175271619113119" height="2.175271619113119" transform="translate(1489.74061548105783 239.137229772602865) rotate(180)"/>
        <rect class="cls-17" x="740.857590776469806" y="118.480979076744916" width="2.175271619114937" height="2.175271619113119" transform="translate(1483.890453172054549 239.137229772602865) rotate(180)"/>
        <rect class="cls-17" x="737.932509621967256" y="118.480979076744916" width="2.175271619125851" height="2.175271619113119" transform="translate(1478.040290863060363 239.137229772602865) rotate(180)"/>
        <rect class="cls-17" x="735.007428467464706" y="118.480979076744916" width="2.17527161912767" height="2.175271619113119" transform="translate(1472.190128554057083 239.137229772602865) rotate(180)"/>
      </g>
      <rect class="cls-17" x="746.584277286034194" y="121.276262143842359" width="2.1752716191113" height="2.175271619125851" transform="translate(1495.343826191179687 244.727795906810485) rotate(180)"/>
      <rect class="cls-17" x="746.584277286034194" y="118.544813122105552" width="2.1752716191113" height="2.175271619125851" transform="translate(1495.343826191179687 239.26489786333687) rotate(180)"/>
    </g>
    <g>
      <polygon class="cls-17" points="769.192855936451451 125.505746170171733 769.192855936451451 127.268974492310008 772.579976816783528 127.268974492310008 772.579976816783528 125.505746170171733 780.200964988083797 125.505746170171733 780.200964988083797 116.546556791996409 761.571845225520519 116.546556791996409 761.571845225520519 125.505746170171733 769.192855936451451 125.505746170171733"/>
      <rect class="cls-16" x="762.810359200209859" y="117.393294963452718" width="16.367113800795778" height="7.092291841502629" transform="translate(1541.987832201215497 241.87888176840795) rotate(180)"/>
      <g>
        <rect class="cls-17" x="772.735035962454276" y="121.212379794740627" width="2.17527161912767" height="2.175271619124942" transform="translate(1547.645343544036223 244.600031208606083) rotate(180)"/>
        <rect class="cls-17" x="769.809954807953545" y="121.212379794740627" width="2.175271619114937" height="2.175271619124942" transform="translate(1541.795181235022028 244.600031208606083) rotate(180)"/>
        <rect class="cls-17" x="766.884873653449176" y="121.212379794740627" width="2.175271619125851" height="2.175271619124942" transform="translate(1535.945018926024204 244.600031208606083) rotate(180)"/>
        <rect class="cls-17" x="763.959792498946626" y="121.212379794740627" width="2.175271619125851" height="2.175271619124942" transform="translate(1530.094856617019104 244.600031208606083) rotate(180)"/>
      </g>
      <g>
        <rect class="cls-17" x="772.735035962454276" y="118.480930773015643" width="2.175271619113119" height="2.175271619102205" transform="translate(1547.645343544021671 239.137133165133378) rotate(180)"/>
        <rect class="cls-17" x="769.809954807953545" y="118.480930773015643" width="2.175271619114937" height="2.175271619102205" transform="translate(1541.795181235022028 239.137133165133378) rotate(180)"/>
        <rect class="cls-17" x="766.884873653449176" y="118.480930773015643" width="2.175271619125851" height="2.175271619102205" transform="translate(1535.945018926024204 239.137133165133378) rotate(180)"/>
        <rect class="cls-17" x="763.959792498946626" y="118.480930773015643" width="2.175271619125851" height="2.175271619102205" transform="translate(1530.094856617019104 239.137133165133378) rotate(180)"/>
      </g>
      <rect class="cls-17" x="775.760738191534983" y="121.212379794740627" width="2.175271619124032" height="2.175271619124942" transform="translate(1553.696748002193999 244.600031208606083) rotate(180)"/>
      <rect class="cls-17" x="775.760738191534983" y="118.480930773015643" width="2.175271619124032" height="2.175271619102205" transform="translate(1553.696748002193999 239.137133165133378) rotate(180)"/>
    </g>
  </g>
  <g>
    <g>
      <rect class="cls-13" x="420.893609165692396" y="264.110133282893912" width="63.970885971295502" height="139.762479132926273" rx="5.044585987259788" ry="5.044585987259788"/>
      <rect class="cls-12" x="430.280641346260381" y="275.235504756156843" width="45.196821610157713" height="13.906714341579573"/>
      <rect class="cls-12" x="430.280641346260381" y="292.27122982459241" width="45.196821610157713" height="18.426396502601165"/>
      <g>
        <circle class="cls-12" cx="452.879052151339693" cy="364.933812259378101" r="9.734700039109839"/>
        <circle class="cls-14" cx="452.879052151339693" cy="364.933812259372189" r="5.12352633636965"/>
      </g>
    </g>
    <g>
      <rect class="cls-4" x="503.598766981434892" y="261.328790414567266" width="175.919936421065358" height="109.167707581438663"/>
      <rect class="cls-16" x="575.913681557689415" y="371.191833713102824" width="31.290107268565407" height="36.852793005184139"/>
      <polygon class="cls-1" points="591.558735191973028 388.735464933108233 564.495098605104431 408.044626718286963 618.622371778843444 408.044626718286963 591.558735191973028 388.735464933108233"/>
    </g>
  </g>
  <g>
    <g>
      <rect class="cls-9" x="154.580252707894033" y="522.043680674951247" width="132.968248640277125" height="26.860773441849233"/>
      <g>
        <path class="cls-2" d="M215.982490162133217,532.941753107750628h10.18154549978135c.198753515378485,0,.360978751072253.183049318104167.364953026606599.411800311934712l.016724482676182.962626271088084c.004732213452371.272376316150257-.073639098454805.538042337391744-.221478172599745.750775040885856l-.501132655164838.721103708005103c-.01225555954079.017635109870753-.018932443083031.039546638587126-.018932443083031.06213059849506v1.455765289534611c0,.386835347249871-.272414346214646.700427356294313-.608454472142512.700427356294313h-8.268740262404208c-.336040125940599,0-.608454472151607-.313592009044442-.608454472151607-.700427356294313v-1.351328457199998c0-.020539533326883-.005524099348804-.040575321972938-.015813565850294-.057355460636245l-.534706827307673-.872003879219847c-.128615961243668-.209747868193517-.193415375752011-.462543760757399-.184319803563994-.719069602866512l.034087337547135-.961377995861767c.007985488061422-.225217722112575.168914968708123-.403065824159057.364722327656636-.403065824159057Z"/>
        <path class="cls-2" d="M216.908700383616633,533.807561429943235h8.372504436920281c.163439301967628,0,.296840611778862.126512887434728.300108744256249.284612076404301l.013752902786109.665310476626473c.003891401171131.188250437544411-.060555018747436.371863115196902-.182126277665702.518891407069532l-.412092189637406.498384332615387c-.010078010916914.012188347349365-.015568556244943.027332303054209-.015568556244943.042941003517626v1.006139067405456c0,.26735776591886-.224012191703878.484094058370829-.500345234218912.484094058370829h-6.799563439170015c-.27633304250412,0-.500345234196175-.216736292451969-.500345234196175-.484094058370829v-.933958491425074c0-.014195713434674-.004542586044408-.028043268299371-.013003836247663-.039640709997911l-.439700955439548-.602677626742661c-.105763678609947-.144965349847553-.159049634616167-.319682954006566-.151570149457257-.496978479179234l.028030752779159-.664447742450648c.006566639054654-.155657200028145.138902421549574-.278575313843248.299919035535822-.278575313843248Z"/>
      </g>
    </g>
    <g>
      <rect class="cls-9" x="4.52348993288615" y="522.043680674951247" width="132.968248640274396" height="26.860773441849233"/>
      <g>
        <circle class="cls-2" cx="27.846147346767566" cy="538.062858943064839" r="3.816298524770104"/>
        <circle class="cls-2" cx="27.846147346767566" cy="538.062858943063475" r="2.271252774188155"/>
      </g>
      <g>
        <path class="cls-18" d="M64.212890625,529.560546875c-.1376953125.0693359375-.4130859375.1376953125-.765625.1376953125-.81787109375,0-1.43310546875-.5166015625-1.43310546875-1.466796875,0-.908203125.615234375-1.5234375,1.5146484375-1.5234375.36181640625,0,.58984375.0771484375.6884765625.12890625l-.09033203125.3056640625c-.14208984375-.0693359375-.34423828125-.12109375-.5849609375-.12109375-.68017578125,0-1.1318359375.4345703125-1.1318359375,1.1962890625,0,.7099609375.40869140625,1.166015625,1.1142578125,1.166015625.228515625,0,.46044921875-.046875.611328125-.1201171875l.0771484375.296875Z"/>
        <path class="cls-18" d="M64.666015625,526.6005859375h.37890625v3.0546875h-.37890625v-3.0546875Z"/>
        <path class="cls-18" d="M67.56494140625,528.5966796875c0,.7705078125-.53369140625,1.10546875-1.037109375,1.10546875-.5634765625,0-.998046875-.4130859375-.998046875-1.0712890625,0-.697265625.4560546875-1.10546875,1.03271484375-1.10546875.59814453125,0,1.00244140625.4345703125,1.00244140625,1.0712890625ZM65.91259765625,528.6181640625c0,.4560546875.2626953125.80078125.6328125.80078125.361328125,0,.63232421875-.33984375.63232421875-.8095703125,0-.3525390625-.17626953125-.7998046875-.6240234375-.7998046875-.447265625,0-.64111328125.4130859375-.64111328125.80859375Z"/>
        <path class="cls-18" d="M69.5244140625,529.578125c-.09912109375.0517578125-.318359375.1201171875-.59814453125.1201171875-.62841796875,0-1.037109375-.42578125-1.037109375-1.0625,0-.6416015625.43896484375-1.1064453125,1.11865234375-1.1064453125.2236328125,0,.421875.056640625.52490234375.107421875l-.0859375.29296875c-.09033203125-.0517578125-.232421875-.0986328125-.43896484375-.0986328125-.4775390625,0-.73583984375.3525390625-.73583984375.787109375,0,.482421875.31005859375.779296875.72314453125.779296875.21484375,0,.35693359375-.056640625.46435546875-.103515625l.06494140625.2841796875Z"/>
        <path class="cls-18" d="M70.33935546875,528.5283203125h.0087890625c.05126953125-.0732421875.12451171875-.1640625.18505859375-.2373046875l.61083984375-.71875h.4560546875l-.8046875.8564453125.91650390625,1.2265625h-.46044921875l-.71826171875-.998046875-.19384765625.21484375v.783203125h-.37451171875v-3.0546875h.37451171875v1.927734375Z"/>
        <path class="cls-18" d="M75.38330078125,528.1748046875c0,.9990234375-.60693359375,1.52734375-1.34716796875,1.52734375-.765625,0-1.3037109375-.59375-1.3037109375-1.470703125,0-.9208984375.572265625-1.5234375,1.34716796875-1.5234375.79150390625,0,1.3037109375.6064453125,1.3037109375,1.466796875ZM73.1328125,528.22265625c0,.619140625.33544921875,1.1748046875.9248046875,1.1748046875.59423828125,0,.9296875-.546875.9296875-1.205078125,0-.5771484375-.30126953125-1.1787109375-.92529296875-1.1787109375-.61962890625,0-.92919921875.572265625-.92919921875,1.208984375Z"/>
        <path class="cls-18" d="M77.6083984375,529.0869140625c0,.2158203125.00439453125.4052734375.017578125.568359375h-.3359375l-.021484375-.33984375h-.00830078125c-.09912109375.16796875-.31884765625.38671875-.6884765625.38671875-.3271484375,0-.71875-.1806640625-.71875-.912109375v-1.2177734375h.37841796875v1.1533203125c0,.396484375.12060546875.6630859375.46484375.6630859375.25390625,0,.43017578125-.1767578125.4990234375-.3447265625.021484375-.0556640625.03466796875-.1240234375.03466796875-.193359375v-1.2783203125h.37841796875v1.5146484375Z"/>
        <path class="cls-18" d="M78.68994140625,526.974609375v.59765625h.54248046875v.2890625h-.54248046875v1.123046875c0,.2578125.0732421875.404296875.2841796875.404296875.09912109375,0,.17236328125-.0126953125.21923828125-.0263671875l.017578125.2841796875c-.0732421875.0302734375-.189453125.0517578125-.3359375.0517578125-.17626953125,0-.318359375-.0556640625-.40869140625-.1591796875-.107421875-.1123046875-.14599609375-.296875-.14599609375-.5419921875v-1.1357421875h-.32275390625v-.2890625h.32275390625v-.4990234375l.36962890625-.0986328125Z"/>
      </g>
      <g>
        <circle class="cls-2" cx="113.89036480560344" cy="538.062858943064839" r="3.816298524770446"/>
        <circle class="cls-2" cx="113.89036480560344" cy="538.062858943063475" r="2.271252774188042"/>
      </g>
      <g>
        <circle class="cls-2" cx="96.681521313831581" cy="538.062858943064839" r="3.816298524767035"/>
        <circle class="cls-2" cx="96.681521313831809" cy="538.062858943063475" r="2.2712527741852"/>
      </g>
      <g>
        <circle class="cls-2" cx="79.472677822067908" cy="538.062858943064839" r="3.816298524767717"/>
        <circle class="cls-2" cx="79.472677822064952" cy="538.062858943063475" r="2.271252774189747"/>
      </g>
      <g>
        <circle class="cls-2" cx="62.263834330301279" cy="538.062858943064839" r="3.816298524765557"/>
        <circle class="cls-2" cx="62.263834330300824" cy="538.062858943063475" r="2.271252774189747"/>
      </g>
      <g>
        <circle class="cls-2" cx="45.054990838533058" cy="538.062858943064839" r="3.816298524770331"/>
        <circle class="cls-2" cx="45.054990838536241" cy="538.062858943063475" r="2.271252774189975"/>
      </g>
      <line class="cls-6" x1="7.560286512341918" y1="528.543067027547295" x2="58.313792131736591" y2="528.543067027547295"/>
      <line class="cls-6" x1="82.874333593759729" y1="528.543067027547295" x2="133.62783921314076" y2="528.543067027547295"/>
    </g>
    <g>
      <path class="cls-16" d="M6.4990234375,507.65625h4.259765625v.857421875h-3.23876953125v2.6279296875h2.9921875v.8447265625h-2.9921875v3.5791015625h-1.02099609375v-7.9091796875Z"/>
      <path class="cls-16" d="M11.8701171875,511.658203125c0-.6689453125-.01171875-1.244140625-.046875-1.7724609375h.90380859375l.03515625,1.115234375h.046875c.2578125-.7626953125.8798828125-1.244140625,1.572265625-1.244140625.1171875,0,.19970703125.01171875.29345703125.03515625v.974609375c-.10595703125-.0234375-.21142578125-.03515625-.35205078125-.03515625-.7275390625,0-1.24365234375.55078125-1.384765625,1.3251953125-.0234375.1416015625-.046875.3056640625-.046875.4814453125v3.02734375h-1.02099609375v-3.9072265625Z"/>
      <path class="cls-16" d="M20.7275390625,512.6787109375c0,2.1005859375-1.455078125,3.015625-2.828125,3.015625-1.537109375,0-2.72216796875-1.1259765625-2.72216796875-2.921875,0-1.900390625,1.24365234375-3.015625,2.81640625-3.015625,1.630859375,0,2.73388671875,1.185546875,2.73388671875,2.921875ZM16.2216796875,512.7373046875c0,1.244140625.7158203125,2.1826171875,1.72509765625,2.1826171875.9853515625,0,1.724609375-.9267578125,1.724609375-2.2060546875,0-.9619140625-.48095703125-2.1826171875-1.701171875-2.1826171875-1.220703125,0-1.74853515625,1.126953125-1.74853515625,2.2060546875Z"/>
      <path class="cls-16" d="M22.02587890625,511.4228515625c0-.5859375-.01171875-1.0673828125-.046875-1.537109375h.91552734375l.05859375.939453125h.0234375c.28173828125-.5400390625.9384765625-1.068359375,1.87744140625-1.068359375.7861328125,0,2.00634765625.4697265625,2.00634765625,2.4169921875v3.3916015625h-1.03271484375v-3.2734375c0-.916015625-.34033203125-1.6787109375-1.31396484375-1.6787109375-.6806640625,0-1.20849609375.4814453125-1.384765625,1.056640625-.046875.12890625-.0703125.3046875-.0703125.48046875v3.4150390625h-1.03271484375v-4.142578125Z"/>
      <path class="cls-16" d="M29.7314453125,508.2548828125v1.630859375h1.478515625v.7861328125h-1.478515625v3.0634765625c0,.7041015625.19921875,1.1025390625.7744140625,1.1025390625.26953125,0,.46923828125-.03515625.59814453125-.0703125l.046875.7744140625c-.19921875.08203125-.51611328125.140625-.9150390625.140625-.48095703125,0-.8681640625-.15234375-1.11474609375-.43359375-.29345703125-.3056640625-.39892578125-.8095703125-.39892578125-1.478515625v-3.0986328125h-.8798828125v-.7861328125h.8798828125v-1.3603515625l1.00927734375-.2705078125Z"/>
    </g>
    <g>
      <path class="cls-16" d="M156.8349609375,508.361328125c.4462890625-.0947265625,1.14990234375-.1650390625,1.86572265625-.1650390625,1.02099609375,0,1.67822265625.1767578125,2.1708984375.5751953125.41064453125.3056640625.6572265625.7744140625.6572265625,1.396484375,0,.7626953125-.50439453125,1.431640625-1.337890625,1.736328125v.0234375c.7509765625.1884765625,1.63134765625.8095703125,1.63134765625,1.9833984375,0,.6806640625-.27001953125,1.197265625-.6689453125,1.583984375-.5517578125.5048828125-1.443359375.7392578125-2.73388671875.7392578125-.7041015625,0-1.244140625-.046875-1.58447265625-.09375v-7.779296875ZM157.85595703125,511.599609375h.92724609375c1.0791015625,0,1.712890625-.5634765625,1.712890625-1.326171875,0-.9267578125-.7041015625-1.291015625-1.736328125-1.291015625-.4697265625,0-.7392578125.03515625-.90380859375.0712890625v2.5458984375ZM157.85595703125,515.3896484375c.19970703125.03515625.49267578125.046875.8564453125.046875,1.05615234375,0,2.0302734375-.38671875,2.0302734375-1.537109375,0-1.0791015625-.92724609375-1.525390625-2.0419921875-1.525390625h-.8447265625v3.015625Z"/>
      <path class="cls-16" d="M166.30078125,516.1640625l-.08251953125-.7158203125h-.03515625c-.31689453125.4462890625-.9267578125.8447265625-1.736328125.8447265625-1.14990234375,0-1.73681640625-.8095703125-1.73681640625-1.630859375,0-1.373046875,1.22021484375-2.1240234375,3.41455078125-2.1123046875v-.1171875c0-.4697265625-.12890625-1.314453125-1.29052734375-1.314453125-.5283203125,0-1.07958984375.1650390625-1.478515625.4228515625l-.23486328125-.6806640625c.46923828125-.3046875,1.14990234375-.5048828125,1.86572265625-.5048828125,1.73681640625,0,2.1591796875,1.185546875,2.1591796875,2.3232421875v2.1240234375c0,.4931640625.0234375.9736328125.09375,1.361328125h-.9384765625ZM166.14794921875,513.265625c-1.12646484375-.0234375-2.4052734375.17578125-2.4052734375,1.279296875,0,.6689453125.44580078125.9853515625.9736328125.9853515625.7392578125,0,1.208984375-.46875,1.373046875-.9501953125.03515625-.10546875.05859375-.22265625.05859375-.3291015625v-.9853515625Z"/>
      <path class="cls-16" d="M172.8564453125,515.953125c-.27001953125.140625-.8681640625.328125-1.630859375.328125-1.71337890625,0-2.828125-1.1611328125-2.828125-2.8984375,0-1.748046875,1.19677734375-3.015625,3.05078125-3.015625.6103515625,0,1.14990234375.15234375,1.431640625.2939453125l-.234375.7978515625c-.24658203125-.140625-.6337890625-.2705078125-1.197265625-.2705078125-1.30224609375,0-2.00634765625.962890625-2.00634765625,2.1474609375,0,1.314453125.8447265625,2.1240234375,1.97119140625,2.1240234375.5869140625,0,.97412109375-.15234375,1.267578125-.28125l.17578125.7744140625Z"/>
      <path class="cls-16" d="M175.0830078125,513.08984375h.0234375c.140625-.19921875.34033203125-.4462890625.50439453125-.6455078125l1.66650390625-1.9599609375h1.24365234375l-2.1943359375,2.3359375,2.49951171875,3.34375h-1.25537109375l-1.9599609375-2.72265625-.52783203125.5869140625v2.1357421875h-1.02099609375v-8.3310546875h1.02099609375v5.2568359375Z"/>
    </g>
  </g>
  <line class="cls-15" x1="114.065065241739831" y1="370.215269446724051" x2="114.065065241739831" y2="482.341279065669369"/>
  <g>
    <path class="cls-19" d="M143.6513671875,457.87109375c-.08203125-1.5439453125-.18017578125-3.3994140625-.1640625-4.7783203125h-.04931640625c-.37744140625,1.296875-.83740234375,2.6767578125-1.3955078125,4.203125l-1.95361328125,5.369140625h-1.08349609375l-1.78955078125-5.2705078125c-.525390625-1.5595703125-.96875-2.98828125-1.28076171875-4.3017578125h-.03271484375c-.033203125,1.37890625-.115234375,3.234375-.2138671875,4.892578125l-.29541015625,4.7451171875h-1.36279296875l.77197265625-11.06640625h1.822265625l1.88818359375,5.3525390625c.45947265625,1.36328125.83740234375,2.578125,1.1162109375,3.7275390625h.04931640625c.279296875-1.1171875.67333984375-2.33203125,1.166015625-3.7275390625l1.97021484375-5.3525390625h1.822265625l.689453125,11.06640625h-1.3955078125l-.279296875-4.859375Z"/>
    <path class="cls-19" d="M149.2822265625,452.55078125c.0166015625.4931640625-.3447265625.88671875-.91943359375.88671875-.50927734375,0-.8701171875-.3935546875-.8701171875-.88671875,0-.5087890625.37744140625-.90234375.90283203125-.90234375.5419921875,0,.88671875.3935546875.88671875.90234375ZM147.67333984375,462.73046875v-7.9462890625h1.44482421875v7.9462890625h-1.44482421875Z"/>
    <path class="cls-19" d="M151.51513671875,456.9345703125c0-.8203125-.0166015625-1.494140625-.06591796875-2.150390625h1.28076171875l.08203125,1.3134765625h.03271484375c.39404296875-.755859375,1.3134765625-1.494140625,2.626953125-1.494140625,1.10009765625,0,2.8076171875.65625,2.8076171875,3.3818359375v4.7451171875h-1.44482421875v-4.5810546875c0-1.2802734375-.47607421875-2.34765625-1.8388671875-2.34765625-.9521484375,0-1.69091796875.6728515625-1.9375,1.4775390625-.0654296875.1806640625-.09814453125.4267578125-.09814453125.673828125v4.77734375h-1.44482421875v-5.7958984375Z"/>
    <path class="cls-19" d="M162.23583984375,452.55078125c.01611328125.4931640625-.3447265625.88671875-.91943359375.88671875-.5087890625,0-.8701171875-.3935546875-.8701171875-.88671875,0-.5087890625.37744140625-.90234375.90283203125-.90234375.5419921875,0,.88671875.3935546875.88671875.90234375ZM160.626953125,462.73046875v-7.9462890625h1.44482421875v7.9462890625h-1.44482421875Z"/>
    <path class="cls-19" d="M170.26416015625,451.6640625h1.42822265625v7.4052734375c0,2.9384765625-1.44482421875,3.841796875-3.34912109375,3.841796875-.525390625,0-1.166015625-.115234375-1.52685546875-.2626953125l.21337890625-1.166015625c.29541015625.115234375.72216796875.2138671875,1.1982421875.2138671875,1.28076171875,0,2.0361328125-.5751953125,2.0361328125-2.7421875v-7.2900390625Z"/>
    <path class="cls-19" d="M175.8623046875,459.25l-1.1494140625,3.48046875h-1.4775390625l3.759765625-11.06640625h1.7236328125l3.7763671875,11.06640625h-1.52685546875l-1.18212890625-3.48046875h-3.923828125ZM179.49072265625,458.1328125l-1.08349609375-3.1845703125c-.24658203125-.72265625-.41064453125-1.37890625-.57470703125-2.01953125h-.033203125c-.1640625.65625-.3447265625,1.330078125-.55810546875,2.0029296875l-1.08349609375,3.201171875h3.3330078125Z"/>
    <path class="cls-19" d="M191.607421875,462.369140625c-.525390625.2626953125-1.576171875.525390625-2.92236328125.525390625-3.11962890625,0-5.46728515625-1.9697265625-5.46728515625-5.5986328125,0-3.4638671875,2.34765625-5.8125,5.779296875-5.8125,1.37890625,0,2.2490234375.2958984375,2.626953125.4931640625l-.34521484375,1.166015625c-.54150390625-.263671875-1.3134765625-.4599609375-2.23291015625-.4599609375-2.59375,0-4.31787109375,1.658203125-4.31787109375,4.564453125,0,2.708984375,1.5595703125,4.44921875,4.25244140625,4.44921875.8701171875,0,1.7568359375-.1806640625,2.33154296875-.4599609375l.29541015625,1.1328125Z"/>
    <path class="cls-19" d="M193.396484375,451.6640625h1.42822265625v5.3359375h.04931640625c.29541015625-.4267578125.5908203125-.8203125.8701171875-1.181640625l3.38232421875-4.154296875h1.77294921875l-4.005859375,4.6962890625,4.31787109375,6.3701171875h-1.69091796875l-3.64501953125-5.4345703125-1.05078125,1.21484375v4.2197265625h-1.42822265625v-11.06640625Z"/>
    <path class="cls-19" d="M134.12890625,480.69140625c.64013671875.3935546875,1.576171875.72265625,2.5615234375.72265625,1.4609375,0,2.31494140625-.7724609375,2.31494140625-1.888671875,0-1.0341796875-.59130859375-1.625-2.08544921875-2.2001953125-1.8056640625-.6396484375-2.92236328125-1.576171875-2.92236328125-3.1357421875,0-1.7236328125,1.42822265625-3.0048828125,3.5791015625-3.0048828125,1.1328125,0,1.9541015625.2626953125,2.4462890625.5419921875l-.39404296875,1.166015625c-.36083984375-.197265625-1.099609375-.525390625-2.1015625-.525390625-1.51025390625,0-2.0849609375.9033203125-2.0849609375,1.658203125,0,1.0341796875.67333984375,1.54296875,2.2001953125,2.134765625,1.87158203125.7216796875,2.82373046875,1.625,2.82373046875,3.25,0,1.7080078125-1.26416015625,3.185546875-3.87451171875,3.185546875-1.0673828125,0-2.23291015625-.3115234375-2.82421875-.7060546875l.361328125-1.1982421875Z"/>
    <path class="cls-19" d="M144.521484375,472.580078125h-3.3662109375v-1.21484375h8.19287109375v1.21484375h-3.38232421875v9.8515625h-1.4443359375v-9.8515625Z"/>
    <path class="cls-19" d="M156.3095703125,477.2431640625h-4.3017578125v3.990234375h4.7939453125v1.1982421875h-6.22265625v-11.06640625h5.9765625v1.19921875h-4.5478515625v3.4970703125h4.3017578125v1.181640625Z"/>
    <path class="cls-19" d="M158.6572265625,471.513671875c.72216796875-.1484375,1.75634765625-.23046875,2.74169921875-.23046875,1.52685546875,0,2.51220703125.279296875,3.20166015625.9033203125.55810546875.4921875.8701171875,1.248046875.8701171875,2.1015625,0,1.4609375-.91943359375,2.4296875-2.0849609375,2.82421875v.048828125c.853515625.2958984375,1.3623046875,1.083984375,1.625,2.2333984375.361328125,1.54296875.6240234375,2.6103515625.85400390625,3.037109375h-1.4775390625c-.1806640625-.3115234375-.42724609375-1.2646484375-.73876953125-2.6435546875-.32861328125-1.5263671875-.919921875-2.1015625-2.216796875-2.150390625h-1.34619140625v4.7939453125h-1.42822265625v-10.91796875ZM160.08544921875,476.5537109375h1.46142578125c1.52685546875,0,2.4951171875-.8369140625,2.4951171875-2.1015625,0-1.4287109375-1.0341796875-2.0517578125-2.54443359375-2.068359375-.68994140625,0-1.18212890625.0654296875-1.412109375.130859375v4.0390625Z"/>
    <path class="cls-19" d="M173.2197265625,477.2431640625h-4.3017578125v3.990234375h4.7939453125v1.1982421875h-6.22265625v-11.06640625h5.9765625v1.19921875h-4.5478515625v3.4970703125h4.3017578125v1.181640625Z"/>
    <path class="cls-19" d="M185.0244140625,476.783203125c0,3.8095703125-2.3154296875,5.8291015625-5.13916015625,5.8291015625-2.92236328125,0-4.97509765625-2.265625-4.97509765625-5.615234375,0-3.513671875,2.18408203125-5.8125,5.13916015625-5.8125,3.02099609375,0,4.97509765625,2.3154296875,4.97509765625,5.5986328125ZM176.4375,476.9638671875c0,2.3642578125,1.2802734375,4.482421875,3.52978515625,4.482421875,2.265625,0,3.54638671875-2.0849609375,3.54638671875-4.5966796875,0-2.2001953125-1.1494140625-4.4990234375-3.52978515625-4.4990234375-2.3642578125,0-3.54638671875,2.18359375-3.54638671875,4.61328125Z"/>
    <path class="cls-19" d="M190.19482421875,480.7734375c.41064453125.2626953125,1.36279296875.6728515625,2.3642578125.6728515625,1.85546875,0,2.43017578125-1.181640625,2.41357421875-2.068359375-.0166015625-1.494140625-1.36279296875-2.134765625-2.75830078125-2.134765625h-.80419921875v-1.0830078125h.80419921875c1.05078125,0,2.380859375-.5419921875,2.380859375-1.806640625,0-.853515625-.5419921875-1.6083984375-1.87158203125-1.6083984375-.85400390625,0-1.6748046875.376953125-2.134765625.7060546875l-.37744140625-1.05078125c.55810546875-.4111328125,1.6416015625-.8212890625,2.791015625-.8212890625,2.1015625,0,3.0537109375,1.248046875,3.0537109375,2.544921875,0,1.099609375-.65673828125,2.0361328125-1.97021484375,2.51171875v.033203125c1.3134765625.2626953125,2.380859375,1.248046875,2.380859375,2.7412109375,0,1.7080078125-1.330078125,3.2021484375-3.89111328125,3.2021484375-1.19873046875,0-2.24951171875-.3779296875-2.77490234375-.72265625l.39404296875-1.1162109375Z"/>
    <path class="cls-19" d="M198.3876953125,481.578125c0-.607421875.41015625-1.0341796875.98486328125-1.0341796875s.96875.4267578125.96875,1.0341796875c0,.5908203125-.37744140625,1.0341796875-.9853515625,1.0341796875-.57470703125,0-.96826171875-.443359375-.96826171875-1.0341796875Z"/>
    <path class="cls-19" d="M208.04150390625,472.974609375h-4.07177734375l-.41064453125,2.7421875c.24609375-.033203125.47607421875-.06640625.8701171875-.06640625.82080078125,0,1.64208984375.1806640625,2.298828125.5751953125.83740234375.4755859375,1.52685546875,1.3955078125,1.52685546875,2.7421875,0,2.0849609375-1.658203125,3.64453125-3.9736328125,3.64453125-1.16552734375,0-2.150390625-.328125-2.65966796875-.6572265625l.361328125-1.099609375c.443359375.2626953125,1.3134765625.5908203125,2.2822265625.5908203125,1.36279296875,0,2.5283203125-.88671875,2.5283203125-2.314453125-.01611328125-1.3798828125-.93603515625-2.3642578125-3.0703125-2.3642578125-.607421875,0-1.08349609375.0654296875-1.4775390625.1142578125l.689453125-5.1220703125h5.1064453125v1.21484375Z"/>
    <path class="cls-19" d="M210.552734375,476.6357421875c0-.8203125-.0166015625-1.494140625-.06591796875-2.150390625h1.26416015625l.06591796875,1.2802734375h.04931640625c.443359375-.7548828125,1.18212890625-1.4609375,2.49560546875-1.4609375,1.08349609375,0,1.904296875.65625,2.2490234375,1.5927734375h.03271484375c.24658203125-.443359375.55859375-.7880859375.88671875-1.03515625.47607421875-.3603515625,1.00146484375-.5576171875,1.7568359375-.5576171875,1.05078125,0,2.6103515625.689453125,2.6103515625,3.447265625v4.6796875h-1.41162109375v-4.4990234375c0-1.5263671875-.55810546875-2.4462890625-1.72412109375-2.4462890625-.82080078125,0-1.4609375.607421875-1.70751953125,1.3134765625-.0654296875.197265625-.11474609375.4599609375-.11474609375.72265625v4.9091796875h-1.412109375v-4.76171875c0-1.263671875-.55810546875-2.18359375-1.658203125-2.18359375-.9033203125,0-1.5595703125.72265625-1.78955078125,1.4453125-.08203125.212890625-.115234375.4599609375-.115234375.7060546875v4.7939453125h-1.41162109375v-5.7958984375Z"/>
    <path class="cls-19" d="M224.2451171875,476.6357421875c0-.8203125-.0166015625-1.494140625-.06591796875-2.150390625h1.26416015625l.06591796875,1.2802734375h.04931640625c.443359375-.7548828125,1.18212890625-1.4609375,2.49560546875-1.4609375,1.08349609375,0,1.904296875.65625,2.2490234375,1.5927734375h.03271484375c.24658203125-.443359375.55859375-.7880859375.88671875-1.03515625.47607421875-.3603515625,1.00146484375-.5576171875,1.7568359375-.5576171875,1.05078125,0,2.6103515625.689453125,2.6103515625,3.447265625v4.6796875h-1.41162109375v-4.4990234375c0-1.5263671875-.55810546875-2.4462890625-1.72412109375-2.4462890625-.82080078125,0-1.4609375.607421875-1.70751953125,1.3134765625-.0654296875.197265625-.11474609375.4599609375-.11474609375.72265625v4.9091796875h-1.412109375v-4.76171875c0-1.263671875-.55810546875-2.18359375-1.658203125-2.18359375-.9033203125,0-1.5595703125.72265625-1.78955078125,1.4453125-.08203125.212890625-.115234375.4599609375-.115234375.7060546875v4.7939453125h-1.41162109375v-5.7958984375Z"/>
  </g>
  <g>
    <path class="cls-19" d="M275.16162109375,291.92333984375v6.55078125c0,2.47900390625,1.10009765625,3.52978515625,2.57763671875,3.52978515625,1.6416015625,0,2.6923828125-1.0830078125,2.6923828125-3.52978515625v-6.55078125h1.4453125v6.4521484375c0,3.39892578125-1.7900390625,4.79443359375-4.18701171875,4.79443359375-2.265625,0-3.97314453125-1.296875-3.97314453125-4.728515625v-6.51806640625h1.44482421875Z"/>
    <path class="cls-19" d="M284.158203125,301.2490234375c.64013671875.3935546875,1.576171875.72265625,2.5615234375.72265625,1.4609375,0,2.31494140625-.7724609375,2.31494140625-1.888671875,0-1.0341796875-.59130859375-1.625-2.08544921875-2.19970703125-1.8056640625-.640625-2.92236328125-1.576171875-2.92236328125-3.13623046875,0-1.7236328125,1.42822265625-3.00439453125,3.5791015625-3.00439453125,1.1328125,0,1.9541015625.2626953125,2.4462890625.54150390625l-.39404296875,1.166015625c-.36083984375-.197265625-1.099609375-.525390625-2.1015625-.525390625-1.51025390625,0-2.0849609375.90283203125-2.0849609375,1.658203125,0,1.0341796875.67333984375,1.54345703125,2.2001953125,2.13427734375,1.87158203125.72265625,2.82373046875,1.62548828125,2.82373046875,3.25146484375,0,1.70703125-1.26416015625,3.1845703125-3.87451171875,3.1845703125-1.0673828125,0-2.23291015625-.3115234375-2.82421875-.7060546875l.361328125-1.1982421875Z"/>
    <path class="cls-19" d="M292.44921875,292.07080078125c.6240234375-.13134765625,1.609375-.2294921875,2.61083984375-.2294921875,1.42822265625,0,2.34765625.24609375,3.03759765625.80419921875.57421875.4267578125.9189453125,1.083984375.9189453125,1.9541015625,0,1.06689453125-.70556640625,2.0029296875-1.87158203125,2.4296875v.03271484375c1.05078125.2626953125,2.2822265625,1.13330078125,2.2822265625,2.77490234375,0,.9521484375-.37744140625,1.6748046875-.93603515625,2.216796875-.771484375.7060546875-2.01904296875,1.0341796875-3.8251953125,1.0341796875-.9853515625,0-1.740234375-.0654296875-2.216796875-.1318359375v-10.88525390625ZM293.8779296875,296.6025390625h1.296875c1.5107421875,0,2.3974609375-.7880859375,2.3974609375-1.85546875,0-1.296875-.9853515625-1.8056640625-2.43017578125-1.8056640625-.65673828125,0-1.0341796875.048828125-1.26416015625.09814453125v3.56298828125ZM293.8779296875,301.9052734375c.279296875.0498046875.689453125.06640625,1.1982421875.06640625,1.47802734375,0,2.8408203125-.5419921875,2.8408203125-2.1513671875,0-1.51025390625-1.29736328125-2.13427734375-2.85693359375-2.13427734375h-1.18212890625v4.21923828125Z"/>
  </g>
  <line class="cls-15" x1="202.316776896085685" y1="325.577176148519357" x2="373.749743712408417" y2="325.577176148519357"/>
  <polyline class="cls-10" points="429.486706253601369 111.990157650518995 112.749592532905808 113.221645159354921 113.688467094641965 267.447419875974447"/>
  <g>
    <path class="cls-19" d="M133.86328125,256.20703125c.72216796875-.1474609375,1.75634765625-.2294921875,2.74169921875-.2294921875,1.52685546875,0,2.51220703125.27880859375,3.20166015625.90283203125.55810546875.49267578125.8701171875,1.24755859375.8701171875,2.1015625,0,1.46142578125-.91943359375,2.43017578125-2.0849609375,2.82373046875v.04931640625c.853515625.2958984375,1.3623046875,1.083984375,1.625,2.23291015625.361328125,1.54345703125.6240234375,2.61083984375.85400390625,3.03759765625h-1.4775390625c-.1806640625-.31201171875-.42724609375-1.26416015625-.73876953125-2.6435546875-.32861328125-1.52685546875-.919921875-2.1015625-2.216796875-2.15087890625h-1.34619140625v4.79443359375h-1.42822265625v-10.91845703125ZM135.29150390625,261.24755859375h1.46142578125c1.52685546875,0,2.4951171875-.83740234375,2.4951171875-2.1015625,0-1.42822265625-1.0341796875-2.05224609375-2.54443359375-2.06884765625-.68994140625,0-1.18212890625.06591796875-1.412109375.1318359375v4.03857421875Z"/>
    <path class="cls-19" d="M144.96142578125,256.0595703125h1.42822265625v7.40478515625c0,2.93896484375-1.44482421875,3.841796875-3.34912109375,3.841796875-.525390625,0-1.166015625-.11474609375-1.52685546875-.2626953125l.21337890625-1.16552734375c.29541015625.11474609375.72216796875.21337890625,1.1982421875.21337890625,1.28076171875,0,2.0361328125-.57470703125,2.0361328125-2.7421875v-7.28955078125Z"/>
    <path class="cls-19" d="M152.72705078125,267.12548828125v-2.90625h-4.95849609375v-.9521484375l4.76171875-6.8134765625h1.5595703125v6.6328125h1.494140625v1.1328125h-1.494140625v2.90625h-1.36279296875ZM152.72705078125,263.08642578125v-3.5625c0-.55859375.0166015625-1.11669921875.04931640625-1.6748046875h-.04931640625c-.328125.6240234375-.5908203125,1.08349609375-.88671875,1.576171875l-2.6103515625,3.62841796875v.03271484375h3.4970703125Z"/>
    <path class="cls-19" d="M163.05419921875,257.66845703125h-4.07177734375l-.41064453125,2.74169921875c.24609375-.03271484375.47607421875-.0654296875.8701171875-.0654296875.82080078125,0,1.64208984375.1806640625,2.298828125.57470703125.83740234375.47607421875,1.52685546875,1.3955078125,1.52685546875,2.74169921875,0,2.0849609375-1.658203125,3.64501953125-3.9736328125,3.64501953125-1.16552734375,0-2.150390625-.32861328125-2.65966796875-.65673828125l.361328125-1.10009765625c.443359375.2626953125,1.3134765625.59130859375,2.2822265625.59130859375,1.36279296875,0,2.5283203125-.88671875,2.5283203125-2.3154296875-.01611328125-1.37890625-.93603515625-2.3642578125-3.0703125-2.3642578125-.607421875,0-1.08349609375.06591796875-1.4775390625.115234375l.689453125-5.12255859375h5.1064453125v1.21484375Z"/>
  </g>
  <g>
    <path class="cls-19" d="M350.927734375,142.99951171875c.64013671875.39404296875,1.576171875.72216796875,2.5615234375.72216796875,1.4609375,0,2.31494140625-.771484375,2.31494140625-1.88818359375,0-1.0341796875-.59130859375-1.62548828125-2.08544921875-2.19970703125-1.8056640625-.640625-2.92236328125-1.576171875-2.92236328125-3.13623046875,0-1.7236328125,1.42822265625-3.00439453125,3.5791015625-3.00439453125,1.1328125,0,1.9541015625.2626953125,2.4462890625.5419921875l-.39404296875,1.16552734375c-.36083984375-.197265625-1.099609375-.525390625-2.1015625-.525390625-1.51025390625,0-2.0849609375.90283203125-2.0849609375,1.658203125,0,1.0341796875.67333984375,1.54345703125,2.2001953125,2.13427734375,1.87158203125.72265625,2.82373046875,1.62548828125,2.82373046875,3.2509765625,0,1.70751953125-1.26416015625,3.18505859375-3.87451171875,3.18505859375-1.0673828125,0-2.23291015625-.31201171875-2.82421875-.7060546875l.361328125-1.1982421875Z"/>
    <path class="cls-19" d="M360.072265625,141.029296875c.033203125,1.95361328125,1.28076171875,2.75830078125,2.7255859375,2.75830078125,1.0341796875,0,1.658203125-.1806640625,2.2001953125-.41064453125l.24609375,1.0341796875c-.5087890625.22998046875-1.37890625.49267578125-2.6435546875.49267578125-2.4462890625,0-3.9072265625-1.60888671875-3.9072265625-4.005859375s1.412109375-4.28515625,3.72705078125-4.28515625c2.59375,0,3.28369140625,2.28173828125,3.28369140625,3.7431640625,0,.29541015625-.033203125.525390625-.04931640625.67333984375h-5.58251953125ZM364.30859375,139.99462890625c.01611328125-.91943359375-.3779296875-2.34765625-2.00341796875-2.34765625-1.4609375,0-2.1015625,1.34619140625-2.21630859375,2.34765625h4.2197265625Z"/>
    <path class="cls-19" d="M367.4931640625,139.2724609375c0-.93603515625-.0166015625-1.740234375-.06591796875-2.4794921875h1.26416015625l.04931640625,1.56005859375h.06591796875c.36083984375-1.0673828125,1.2314453125-1.740234375,2.19970703125-1.740234375.16455078125,0,.279296875.01611328125.41064453125.04931640625v1.3623046875c-.14794921875-.03271484375-.29541015625-.048828125-.49267578125-.048828125-1.01806640625,0-1.740234375.771484375-1.93701171875,1.85498046875-.033203125.197265625-.06591796875.4267578125-.06591796875.67333984375v4.23583984375h-1.42822265625v-5.46728515625Z"/>
    <path class="cls-19" d="M374.53662109375,134.560546875c.01611328125.4921875-.3447265625.88623046875-.91943359375.88623046875-.5087890625,0-.8701171875-.39404296875-.8701171875-.88623046875,0-.50927734375.37744140625-.9033203125.90283203125-.9033203125.5419921875,0,.88671875.39404296875.88671875.9033203125ZM372.927734375,144.73974609375v-7.94677734375h1.44482421875v7.94677734375h-1.44482421875Z"/>
    <path class="cls-19" d="M381.1689453125,144.73974609375l-.11474609375-1.00146484375h-.04931640625c-.443359375.6240234375-1.296875,1.18212890625-2.43017578125,1.18212890625-1.60888671875,0-2.4296875-1.1328125-2.4296875-2.2822265625,0-1.9208984375,1.70751953125-2.9716796875,4.77783203125-2.95556640625v-.1640625c0-.65673828125-.1806640625-1.8388671875-1.80615234375-1.8388671875-.73876953125,0-1.51025390625.22998046875-2.06884765625.59130859375l-.328125-.95263671875c.65673828125-.4267578125,1.60888671875-.70556640625,2.6103515625-.70556640625,2.43017578125,0,3.02099609375,1.658203125,3.02099609375,3.25048828125v2.9716796875c0,.68994140625.03271484375,1.36279296875.13134765625,1.90478515625h-1.3134765625ZM380.95556640625,140.6845703125c-1.576171875-.033203125-3.36572265625.24609375-3.36572265625,1.78955078125,0,.935546875.6240234375,1.37890625,1.36279296875,1.37890625,1.0341796875,0,1.69091796875-.65673828125,1.9208984375-1.32958984375.04931640625-.14794921875.08203125-.31201171875.08203125-.4599609375v-1.37890625Z"/>
    <path class="cls-19" d="M384.6826171875,133.08251953125h1.44482421875v11.6572265625h-1.44482421875v-11.6572265625Z"/>
    <path class="cls-19" d="M392.4150390625,143.7216796875c.31201171875.033203125.67333984375,0,1.16552734375-.04931640625.83740234375-.11474609375,1.62548828125-.45947265625,2.23291015625-1.0341796875.7060546875-.64013671875,1.21533203125-1.576171875,1.412109375-2.84033203125h-.04931640625c-.5908203125.72216796875-1.44482421875,1.1494140625-2.51171875,1.1494140625-1.92138671875,0-3.15234375-1.44482421875-3.15234375-3.267578125,0-2.01953125,1.4609375-3.79248046875,3.64453125-3.79248046875,2.18408203125,0,3.5302734375,1.77294921875,3.5302734375,4.49853515625,0,2.34765625-.7880859375,3.98974609375-1.8388671875,5.0078125-.82080078125.80419921875-1.9541015625,1.296875-3.10302734375,1.42822265625-.525390625.08203125-.9853515625.0986328125-1.330078125.08203125v-1.18212890625ZM392.9404296875,137.5810546875c0,1.330078125.8046875,2.26611328125,2.05224609375,2.26611328125.96875,0,1.72412109375-.47607421875,2.1015625-1.11669921875.08203125-.13134765625.13134765625-.29541015625.13134765625-.525390625,0-1.822265625-.6728515625-3.2177734375-2.18359375-3.2177734375-1.2314453125,0-2.1015625,1.08349609375-2.1015625,2.59375Z"/>
    <path class="cls-19" d="M403.93994140625,139.38720703125c0-1.01806640625-.033203125-1.8388671875-.06591796875-2.59423828125h1.296875l.06591796875,1.36279296875h.03271484375c.59130859375-.96826171875,1.52685546875-1.54296875,2.82421875-1.54296875,1.9208984375,0,3.36572265625,1.62548828125,3.36572265625,4.03857421875,0,2.85693359375-1.740234375,4.26904296875-3.6123046875,4.26904296875-1.05078125,0-1.97021484375-.4599609375-2.4462890625-1.248046875h-.03271484375v4.318359375h-1.42822265625v-8.603515625ZM405.3681640625,141.50537109375c0,.21337890625.03271484375.41064453125.0654296875.5908203125.2626953125,1.00146484375,1.13330078125,1.69140625,2.16748046875,1.69140625,1.52685546875,0,2.41357421875-1.248046875,2.41357421875-3.0703125,0-1.5927734375-.83740234375-2.95556640625-2.3642578125-2.95556640625-.9853515625,0-1.90478515625.7060546875-2.18359375,1.7900390625-.04931640625.18017578125-.0986328125.3935546875-.0986328125.5908203125v1.36279296875Z"/>
    <path class="cls-19" d="M414.890625,134.560546875c.0166015625.4921875-.3447265625.88623046875-.91943359375.88623046875-.50927734375,0-.8701171875-.39404296875-.8701171875-.88623046875,0-.50927734375.37744140625-.9033203125.90283203125-.9033203125.5419921875,0,.88671875.39404296875.88671875.9033203125ZM413.28173828125,144.73974609375v-7.94677734375h1.44482421875v7.94677734375h-1.44482421875Z"/>
    <path class="cls-19" d="M417.123046875,138.94384765625c0-.82080078125-.0166015625-1.49365234375-.06591796875-2.15087890625h1.28076171875l.08203125,1.3134765625h.03271484375c.39404296875-.7548828125,1.3134765625-1.49365234375,2.626953125-1.49365234375,1.10009765625,0,2.80810546875.65673828125,2.80810546875,3.3818359375v4.7451171875h-1.4453125v-4.58056640625c0-1.28076171875-.47607421875-2.34814453125-1.8388671875-2.34814453125-.9521484375,0-1.69091796875.67333984375-1.9375,1.47802734375-.0654296875.18017578125-.09814453125.4267578125-.09814453125.6728515625v4.77783203125h-1.44482421875v-5.7958984375Z"/>
    <path class="cls-19" d="M426.0380859375,143.26220703125c.4267578125.27880859375,1.181640625.57470703125,1.904296875.57470703125,1.05078125,0,1.54296875-.525390625,1.54296875-1.18212890625,0-.68994140625-.41015625-1.0673828125-1.4775390625-1.46142578125-1.4287109375-.5087890625-2.1015625-1.296875-2.1015625-2.24951171875,0-1.2802734375,1.0341796875-2.3310546875,2.7421875-2.3310546875.8046875,0,1.509765625.2294921875,1.953125.4921875l-.3603515625,1.05078125c-.3125-.19677734375-.88671875-.45947265625-1.6259765625-.45947265625-.853515625,0-1.330078125.49267578125-1.330078125,1.08349609375,0,.65673828125.4765625.9521484375,1.5107421875,1.34619140625,1.37890625.525390625,2.0849609375,1.21533203125,2.0849609375,2.3974609375,0,1.3955078125-1.0830078125,2.38037109375-2.9716796875,2.38037109375-.8701171875,0-1.6748046875-.21337890625-2.232421875-.54150390625l.361328125-1.10009765625Z"/>
  </g>
  <line class="cls-15" x1="572.823793059313175" y1="110.28746092869369" x2="684.949802678258493" y2="110.28746092869369"/>
  <g>
    <path class="cls-19" d="M602.9150390625,140.92626953125v-.88671875l1.1328125-1.10009765625c2.7255859375-2.59375,3.9560546875-3.97314453125,3.97265625-5.58203125,0-1.08349609375-.525390625-2.0849609375-2.1181640625-2.0849609375-.96875,0-1.7724609375.4921875-2.265625.90283203125l-.458984375-1.01806640625c.73828125-.6240234375,1.7890625-1.08349609375,3.0205078125-1.08349609375,2.298828125,0,3.267578125,1.576171875,3.267578125,3.10302734375,0,1.97021484375-1.4287109375,3.56298828125-3.677734375,5.72998046875l-.8544921875.7880859375v.03271484375h4.794921875v1.19873046875h-6.8134765625Z"/>
    <path class="cls-19" d="M615.802734375,140.92626953125v-2.90625h-4.958984375v-.9521484375l4.76171875-6.8134765625h1.5595703125v6.6328125h1.494140625v1.1328125h-1.494140625v2.90625h-1.3623046875ZM615.802734375,136.88720703125v-3.5625c0-.55859375.015625-1.11669921875.048828125-1.6748046875h-.048828125c-.3291015625.6240234375-.591796875,1.08349609375-.88671875,1.576171875l-2.611328125,3.62841796875v.03271484375h3.498046875Z"/>
    <path class="cls-19" d="M622.6982421875,140.92626953125l-3.6123046875-11.06591796875h1.5439453125l1.7236328125,5.45068359375c.4765625,1.494140625.88671875,2.84033203125,1.181640625,4.1376953125h.033203125c.3125-1.28076171875.771484375-2.67626953125,1.2646484375-4.12109375l1.87109375-5.46728515625h1.52734375l-3.95703125,11.06591796875h-1.576171875Z"/>
    <path class="cls-19" d="M636.3896484375,130.0078125c.8701171875-.13134765625,1.904296875-.2294921875,3.037109375-.2294921875,2.052734375,0,3.513671875.47607421875,4.482421875,1.37890625.9853515625.9033203125,1.5595703125,2.18359375,1.5595703125,3.97314453125,0,1.80615234375-.55859375,3.28369140625-1.5927734375,4.3017578125-1.0341796875,1.03466796875-2.7412109375,1.5927734375-4.892578125,1.5927734375-1.017578125,0-1.8720703125-.04931640625-2.59375-.13134765625v-10.8857421875ZM637.8173828125,139.79345703125c.361328125.0654296875.88671875.08203125,1.4453125.08203125,3.0537109375,0,4.7119140625-1.70751953125,4.7119140625-4.69580078125.0166015625-2.6103515625-1.4609375-4.2685546875-4.482421875-4.2685546875-.73828125,0-1.296875.0654296875-1.6748046875.1474609375v8.73486328125Z"/>
    <path class="cls-19" d="M655.056640625,140.56494140625c-.525390625.2626953125-1.576171875.525390625-2.921875.525390625-3.1201171875,0-5.4677734375-1.97021484375-5.4677734375-5.5986328125,0-3.46435546875,2.34765625-5.81201171875,5.779296875-5.81201171875,1.3798828125,0,2.25.29541015625,2.626953125.49267578125l-.3447265625,1.16552734375c-.5419921875-.2626953125-1.3134765625-.4599609375-2.232421875-.4599609375-2.5947265625,0-4.318359375,1.65869140625-4.318359375,4.564453125,0,2.708984375,1.5595703125,4.44970703125,4.251953125,4.44970703125.87109375,0,1.7568359375-.1806640625,2.33203125-.4599609375l.294921875,1.1328125Z"/>
  </g>
</svg>