<?xml version="1.0" encoding="UTF-8"?>
<svg id="Layer_1" data-name="Layer 1" xmlns="http://www.w3.org/2000/svg" viewBox="0 0 765.467391304348894 187.356763993586355">
  <defs>
    <style>
      .cls-1 {
        stroke: #e10b17;
        stroke-dasharray: 3 3;
        stroke-width: .75px;
      }

      .cls-1, .cls-2 {
        fill: none;
        stroke-linecap: round;
        stroke-linejoin: round;
      }

      .cls-3 {
        fill: #e10b17;
      }

      .cls-2 {
        stroke: #000;
        stroke-width: .25px;
      }
    </style>
  </defs>
  <g>
    <line class="cls-2" x1="283.622421657162704" y1="31.219087533240781" x2="283.622421657162704" y2="43.826561734817915"/>
    <polyline class="cls-2" points="283.622421657162704 43.826561734817915 283.491757385203528 44.610436615381332 283.099831020039346 45.133027252504689 282.511919322055292 45.328990435088599 281.79334335211297 45.263669374226993 281.074789532406612 44.806421948206662 280.356235712704802 44.087845978259793 279.768324014720747 43.173328975977711 279.376375499316964 42.193468762590783 279.245733377592842 41.278929610062733"/>
    <polyline class="cls-2" points="282.903845687219473 39.188567061568392 282.969166748076532 39.907143031515261 283.230473141761649 40.691017912079587 283.622421657162704 41.474892792643004"/>
    <line class="cls-2" x1="279.245733377592842" y1="41.278929610062733" x2="279.245733377592842" y2="28.671455408480142"/>
    <line class="cls-2" x1="282.903845687219473" y1="28.932739651925658" x2="282.903845687219473" y2="39.188567061568392"/>
    <polyline class="cls-2" points="279.245733377592842 28.671455408480142 279.376375499316964 27.887558377676214 279.768324014720747 27.364967740554675 280.356235712704802 27.103683497112797 281.074789532406612 27.234325618830553 281.79334335211297 27.691595195097761 282.511919322055292 28.410149014798662 283.099831020039346 29.324688167325803 283.491757385203528 30.239227319852034 283.622421657162704 31.219087533240781"/>
    <polyline class="cls-2" points="277.808603587944162 17.370446724587964 292.310477155437184 25.731874768320267 292.310477155437184 50.946845321727778 288.717663756432557 53.037207870223028 274.15046912807702 44.675757676242938"/>
    <polyline class="cls-2" points="292.310477155437184 25.731874768320267 288.717663756432557 27.822237316815517 288.717663756432557 53.037207870223028"/>
    <polyline class="cls-2" points="278.396515285928217 72.764965658702749 277.220691889960108 72.69964459784569 276.175510615716121 72.242375021580301 275.326292524050587 71.458477990776373 274.673059765204925 70.413318866771078 274.281133400042563 69.106831198840155 274.15046912807702 67.604380348328959"/>
    <polyline class="cls-2" points="269.773780848515344 65.122091434675895 269.90442297023219 66.62454228518709 270.361692546497579 67.996328863734561 271.014947455578294 69.041510137979458 271.929464457864924 69.825385018542875"/>
    <line class="cls-2" x1="271.929464457864924" y1="69.825385018542875" x2="276.306152737433877" y2="72.307696082440998"/>
    <line class="cls-2" x1="274.15046912807702" y1="44.675757676242938" x2="274.15046912807702" y2="67.604380348328959"/>
    <polyline class="cls-2" points="269.773780848515344 65.122091434675895 269.773780848515344 16.913177148327122 288.717663756432557 27.822237316815517"/>
    <line class="cls-2" x1="278.396515285928217" y1="72.764965658702749" x2="292.049170761755704" y2="72.111732899861636"/>
    <polyline class="cls-2" points="292.049170761755704 72.111732899861636 294.204854371111651 71.850426506180156 296.425859041323747 71.197193747335405 298.712184772398359 70.152012473085961 300.998532653712573 68.845546955400096 303.284858384786276 67.147132922309538 305.505863055002919 65.187412495532953 307.596225603498169 62.901086764459251 309.621244940891302 60.484096761427281 311.450323245939217 57.805822514948886 313.083416218172715 54.996906146750916 314.520523857582702 52.122668717689521 315.696369403789504 49.183110227775614 316.610886406077043 46.178208526754133 317.329462376018455 43.303971097695467 317.721388741182636 40.429711518398108 317.786709802037876 37.751459422160224 317.590746619459424 35.203827297405041 317.133477043198582 32.852180505467913 316.349602162630617 30.827139017836089"/>
    <polyline class="cls-2" points="316.349602162630617 30.827139017836089 303.219537323930126 2.672632124755182 298.90817010522278 .125"/>
    <line class="cls-2" x1="303.219537323930126" y1="2.672632124755182" x2="277.808603587944162" y2="17.370446724587964"/>
    <line class="cls-2" x1="269.773780848515344" y1="16.913177148327122" x2="298.90817010522278" y2=".125"/>
    <polyline class="cls-2" points="285.451477811974655 56.891305512662257 285.516798872836262 56.107408481858329 285.908747388237316 55.323533601296731 286.431338025357945 54.67030084245016 287.019249723342 54.278352327045468 287.607161421326055 54.147710205326803 288.064430997592353 54.343673387907074 288.325715241032412 54.866264025029523 288.325715241032412 55.58481784473588 288.064430997592353 56.303393814678202 287.607161421326055 57.087268695241619 287.019249723342 57.609859332370434 286.431338025357945 57.871165726051004 285.908747388237316 57.805822514948886 285.516798872836262 57.479217210646311 285.451477811974655 56.891305512662257"/>
    <polyline class="cls-2" points="292.310477155437184 44.675757676242938 293.616942673127596 42.650738338850715 295.054072462777185 40.821660033797343 296.621844374149077 39.188567061568392 298.254937346377119 37.816780483020921 299.953351379467676 36.771599208776024 301.651765412557324 35.987702177967549 303.284858384786276 35.595775812807915 304.787309235297471 35.595775812807915 306.159095813844033 35.922381117105942 307.400240270673748 36.640957087053721 308.380100484057039 37.686116211058106 309.098654303763396 38.99260387898903 309.555923880029695 40.625696851217072 309.751909212849569 42.454753006031751 309.686588151987962 44.479794493663576 309.294639636586908 46.570157042157916 308.641406877743066 48.725840651509316 307.792188786077531 50.946845321727778 306.681686450966481 53.037207870223028 305.375220933280616 55.062227207608885 303.87277008277033 56.82598445180065 302.304998171403895 58.459077424033239 300.606584138312428 59.765542941720014 298.90817010522278 60.745403155106942 297.275077132989281 61.463956974810571 295.64198416076124 61.790584429352748 294.139533310250044 61.725263368496599 292.767724581462062 61.333314853092816 291.657222246355559 60.549417822283431 290.677384183209142 59.438915487176928 290.02412927412297 58.067128908630366 289.56688184810173 56.434035936401415 289.436217576138915 54.539636570486437 289.56688184810173 52.514617233093304"/>
    <polyline class="cls-2" points="298.124273074414305 34.811878782000349 298.254937346377119 34.093324962298539 298.646863711543119 33.309427931490063 299.169454348659201 32.65619517264895 299.757366046646894 32.19892559638356 300.345277744630948 32.133604535521954 300.8025473208927 32.329589868346375 300.998532653712573 32.786837294366705 300.998532653712573 33.505413264314484 300.8025473208927 34.28928814487881 300.345277744630948 35.00786411482477 299.757366046646894 35.530432601706707 299.169454348659201 35.857060056245246 298.646863711543119 35.791738995388187 298.254937346377119 35.399790479984404 298.124273074414305 34.811878782000349"/>
    <polyline class="cls-2" points="310.862411547956071 42.193468762590783 310.993053669678375 41.409571731780488 311.385002185079429 40.625696851217072 311.907592822205515 39.97246409237232 312.49550452019048 39.580515576973085 313.083416218172715 39.449873455250781 313.540685794433557 39.645836637833781 313.736648977012919 40.168427274957139 313.736648977012919 40.88698109465895 313.540685794433557 41.605557064604909 313.083416218172715 42.389431945169235 312.49550452019048 42.912022582291684 311.907592822205515 43.173328975977711 311.385002185079429 43.107985764875593 310.993053669678375 42.781380460573928 310.862411547956071 42.193468762590783"/>
    <polyline class="cls-2" points="298.124273074414305 64.207552282150573 298.254937346377119 63.488998462443305 298.646863711543119 62.705101431641197 299.169454348659201 62.051868672793717 299.757366046646894 61.594599096533784 300.345277744630948 61.529278035671268 300.8025473208927 61.725263368496599 300.998532653712573 62.18251079451602 300.998532653712573 62.901086764459251 300.8025473208927 63.684961645027215 300.345277744630948 64.403537614968627 299.757366046646894 64.991449312953591 299.169454348659201 65.25273355639456 298.646863711543119 65.187412495532953 298.254937346377119 64.795463980133718 298.124273074414305 64.207552282150573"/>
    <polyline class="cls-2" points="290.612063122347536 59.242952304597566 292.179812883478917 59.112310182874353 293.812905855706958 58.589719545752814 295.511342039038027 57.74050145408728 297.209756072134041 56.499356997258474 298.842849044362083 54.996906146750916 300.410620955728518 53.298492113656721 301.782407534282356 51.338793837126104 303.023551991103886 49.248431288636311 304.003412204492633 47.092747679281274 304.721966024195353 44.871743009068268 305.179235600461652 42.716059399712321 305.375220933280616 40.625696851217072 305.309899872424467 38.73129748530755 304.917951357019774 37.032883452212445 304.264718598175023 35.595775812807915"/>
  </g>
  <g>
    <polyline class="cls-2" points="430.476220642275621 172.717576822962656 429.956259928440886 172.569011221796245 429.659103539085663 172.866129830625141 429.659103539085663 173.460367048293847 429.956259928440886 174.128880769789248 430.476220642275621 174.574564979799106 430.921879665266715 174.723117987456135 431.218985680593505 174.425999378623601 431.218985680593505 173.831762160960352 430.921879665266715 173.163248439459494 430.476220642275621 172.717576822962656"/>
    <polyline class="cls-2" points="450.97734168423176 160.46144995047689 451.423000707222855 160.46144995047689 451.942961421053951 160.832845063145214 452.240117810409174 161.427082280806644 452.388670818077117 162.095608595813246 452.091514428720075 162.46700370848157"/>
    <polyline class="cls-2" points="430.476220642275621 168.260797690467371 429.956259928440886 168.186521186635218 429.659103539085663 168.483639795465933 429.659103539085663 169.077877013134639 429.956259928440886 169.74639073463004 430.476220642275621 170.192074944634442 430.921879665266715 170.266351448468413 431.218985680593505 169.969232839635879 431.218985680593505 169.374995621967173 430.921879665266715 168.780758404300286 430.476220642275621 168.260797690467371"/>
    <polyline class="cls-2" points="450.97734168423176 156.078959915319501 451.423000707222855 156.078959915319501 451.942961421053951 156.450355027980549 452.240117810409174 157.044592245649255 452.388670818077117 157.713105967150113 452.091514428720075 158.084513673318725"/>
    <polyline class="cls-2" points="430.476220642275621 176.728671745457177 429.956259928440886 176.580106144287129 429.659103539085663 176.877224753121482 429.659103539085663 177.471461970788368 429.956259928440886 178.139975692285589 430.476220642275621 178.585659902288171 430.921879665266715 178.734212909952475 431.218985680593505 178.437094301123579 431.218985680593505 177.842857083451236 430.921879665266715 177.174343361954016 430.476220642275621 176.728671745457177"/>
    <polyline class="cls-2" points="450.97734168423176 164.472544872971412 451.423000707222855 164.472544872971412 451.942961421053951 164.843939985639736 452.240117810409174 165.438177203308442 452.388670818077117 166.106690924803843 452.091514428720075 166.478098630972454"/>
    <polyline class="cls-2" points="430.476220642275621 164.62111047414146 429.956259928440886 164.546821376801745 429.659103539085663 164.843939985639736 429.659103539085663 165.438177203308442 429.956259928440886 166.032414420969872 430.476220642275621 166.552375134806425 430.921879665266715 166.626651638636758 431.218985680593505 166.329533029802406 431.218985680593505 165.735295812135519 430.921879665266715 165.066782090638299 430.476220642275621 164.62111047414146"/>
    <polyline class="cls-2" points="450.97734168423176 152.364983601655695 451.423000707222855 152.364983601655695 451.942961421053951 152.736378714324019 452.240117810409174 153.404892435821239 452.388670818077117 153.999129653482669 452.091514428720075 154.444813863492527"/>
    <line class="cls-2" x1="452.091514428720075" y1="162.46700370848157" x2="430.996130982083741" y2="174.648841483627621"/>
    <line class="cls-2" x1="450.97734168423176" y1="160.46144995047689" x2="429.881958237595427" y2="172.643300319132322"/>
    <line class="cls-2" x1="452.091514428720075" y1="158.084513673318725" x2="430.996130982083741" y2="170.266351448468413"/>
    <line class="cls-2" x1="450.97734168423176" y1="156.078959915319501" x2="429.881958237595427" y2="168.260797690467371"/>
    <line class="cls-2" x1="452.091514428720075" y1="166.478098630972454" x2="430.996130982083741" y2="178.659936406122142"/>
    <line class="cls-2" x1="450.97734168423176" y1="164.472544872971412" x2="429.881958237595427" y2="176.654395241628663"/>
    <line class="cls-2" x1="452.091514428720075" y1="154.444813863492527" x2="430.996130982083741" y2="166.552375134806425"/>
    <line class="cls-2" x1="450.97734168423176" y1="152.364983601655695" x2="429.881958237595427" y2="164.546821376801745"/>
    <polyline class="cls-2" points="458.553847319218221 149.022402400662031 457.662478899213056 151.845022887822779 457.068266868557657 154.66765596849109 456.771160853234505 157.415987358315761 456.696859162389046 160.01577833398369 456.919713860895172 162.46700370848157 457.439674574731725 164.69538697797725 458.18243961304961 166.700928142468911"/>
    <polyline class="cls-2" points="453.799949577886764 151.696469880158475 449.268906535065071 149.096691497998108 454.022804276396528 146.348347514671332 458.553847319218221 149.022402400662031 453.799949577886764 151.696469880158475 453.799949577886764 169.226442614304688 458.18243961304961 166.700928142468911"/>
    <line class="cls-2" x1="450.605933978057692" y1="167.369454457471875" x2="453.799949577886764" y2="169.226442614304688"/>
    <line class="cls-2" x1="449.268906535065071" y1="149.096691497998108" x2="449.268906535065071" y2="153.404892435821239"/>
    <line class="cls-2" x1="449.268906535065071" y1="156.078959915319501" x2="449.268906535065071" y2="157.044592245649255"/>
    <line class="cls-2" x1="449.268906535065071" y1="159.718659725151156" x2="449.268906535065071" y2="161.427082280806644"/>
    <line class="cls-2" x1="449.268906535065071" y1="164.175426264137059" x2="449.268906535065071" y2="165.438177203308442"/>
    <polyline class="cls-2" points="346.763150203201803 82.839355069757403 346.020385164886648 82.170841348261092 345.574675767871668 81.205196424424685 345.351871443391246 80.016721989090001 345.426122760208273 78.531141538433076 345.797530466377793 77.045535900759205 346.391792871056168 75.485678946268308 347.208859600215874 74.000073308594438 348.248781027887162 72.737322369430331 349.362953772380024 71.623149624942016 350.625729898551072 70.880334212599337 351.739902643043024 70.434675189608242 352.854075387525882 70.360398685777909 353.819745498380144 70.731781204937761"/>
    <line class="cls-2" x1="359.687815984201734" y1="90.341584200910802" x2="346.763150203201803" y2="82.839355069757403"/>
    <line class="cls-2" x1="366.670059214508001" y1="78.159733832260827" x2="353.819745498380144" y2="70.731781204937761"/>
    <polyline class="cls-2" points="362.658976885518314 112.254034376710479 361.099094744015019 111.065559941376705 359.836368991864219 109.579979490719779 358.79644756419475 107.648714830054814 358.12793384269753 105.494595470883723 357.682274819705526 103.043370096385843 357.607973128859157 100.29503870656481 357.830827827368921 97.47240562589468 358.425039858019773 94.501244724576281 359.316408278026756 91.455782132415152 360.430581022513252 88.410319540250384 361.841910156353151 85.364856948084707 363.550345305525298 82.467947363587882 365.407333462357201 79.793892477597183 367.487176317693411 77.194114095434998 369.715521806668221 74.965718232435393 372.018219360515104 72.960177067941004 374.320866540337192 71.326018422601919 376.697815411001102 70.063267483438722 379.074764281669559 69.171924250445045 381.303160144669164 68.726240040440643 383.457254316828767 68.65196353661122 385.388544164499763 69.023346055768343 387.171230630488026 69.766161468110113"/>
    <line class="cls-2" x1="386.948375931979172" y1="126.292872902193267" x2="362.658976885518314" y2="112.254034376710479"/>
    <line class="cls-2" x1="411.460629676953431" y1="83.804974806581413" x2="387.171230630488026" y2="69.766161468110113"/>
    <polyline class="cls-2" points="477.495136593698589 171.231983778799986 479.946336781183163 169.597837726965736 482.323285651848892 167.666573066306228 484.625983205693956 165.438177203308442 486.78007737785174 162.912675324972952 488.785618542347038 160.164331341647994 490.568355382361005 157.267434350651456 492.128187149834957 154.221971758486688 493.465214592831217 151.102232662491588 494.430884703681841 147.982493566498306 495.173649741999725 144.862754470501386 495.619359139015614 141.891568382172409 495.69361045583446 139.068960488517405 495.396504440505851 136.394880415507942 494.876543726672935 134.017931544844032 493.985175306665951 131.863837372686248 492.796700871332177 130.081125719689226 491.38542211152253 128.669821772862633 489.676986962354022 127.629900345191345 487.819998805523028 126.961386623694125 485.665904633365244 126.738557112197668 483.437508770360182 126.961386623694125 481.13481121651148 127.555623841357374 478.683611029032363 128.595545269026843 476.306662158364816 130.006849215855254 473.855461970882061 131.789560868855915 471.552764417036997 133.869378537179728 469.324368554030116 136.246327407850913 467.24457607271961 138.846105790007641 465.313286225043157 141.668738870674133 463.604851075874649 144.714188869331338 462.193572316059544 147.759651461492467 461.005097880731228 150.879390557487568 460.188031151569703 153.999129653482669 459.593768746889509 157.044592245649255 459.370914048379746 160.01577833398369 459.445215739227024 162.764122317310466 459.816623445401092 165.28962419563868 460.559388483708062 167.518007465136179 461.599309911384807 169.523561223137222 462.862086037560402 171.083430771135681 464.421917805034354 172.346181710299788 466.278905961870805 173.163248439459494 468.284497500390898 173.608932649462076 470.438591672548682 173.608932649462076 472.741238852365314 173.237537536799209 475.11818772303468 172.420458214128303 477.495136593698589 171.231983778799986"/>
    <polyline class="cls-2" points="415.91742140295446 84.993449241915187 414.134684562945949 84.250659016584905 412.12914339845247 83.804974806581413 410.049350917140146 83.879251310416294 407.746653363287805 84.250659016584905 405.444006183469355 85.067725745750067 403.067057312801808 86.256200181079294 400.690108442137898 87.816082322582588 398.38746126231581 89.673070479414491 396.084763708468927 91.901441155401699 394.004971227158421 94.352666529900489 391.999379688638328 96.952470099074162 390.216693222654612 99.849354496562228 388.65681108114677 102.820540584893024 387.31978363815233 105.866003177052335 386.279862210481042 108.911465769218921 385.537097172168615 111.956928361383689 385.017136458330242 114.928114449716304 384.868583450672304 117.750722343369489 385.017136458330242 120.350500725531674 385.537097172168615 122.801726100029555 386.279862210481042 124.955845459200646 387.31978363815233 126.812833616031639 388.65681108114677 128.372690570517079 390.216693222654612 129.486888502022339"/>
    <line class="cls-2" x1="415.91742140295446" y1="84.993449241915187" x2="490.345500683851242" y2="128.001308051359956"/>
    <line class="cls-2" x1="390.216693222654612" y1="129.486888502022339" x2="440.429675147925991" y2="158.455908785981592"/>
    <line class="cls-2" x1="442.732322327748079" y1="159.79293622897967" x2="443.549389056909604" y2="160.312896942812586"/>
    <line class="cls-2" x1="445.926337927571694" y1="161.649924385810664" x2="447.411918378234077" y2="162.541280212306447"/>
    <line class="cls-2" x1="456.399753147060437" y1="167.740849570136561" x2="464.644772503545937" y2="172.494734717964093"/>
  </g>
  <g>
    <line class="cls-1" x1="294.932803831238743" y1="44.504568586669848" x2="338.280551633973118" y2="69.158285627685473"/>
    <polygon class="cls-3" points="335.076450071473118 70.531118879638598 337.475162229676243 68.700247297607348 337.822574339051243 65.702688703857348 342.172427854676243 71.371756086669848 335.076450071473118 70.531118879638598"/>
  </g>
</svg>