<?xml version="1.0" encoding="UTF-8"?>
<svg id="Layer_1" data-name="Layer 1" xmlns="http://www.w3.org/2000/svg" viewBox="0 0 837.206521739130949 297.112999655424574">
  <defs>
    <style>
      .cls-1 {
        fill: #d2155b;
      }

      .cls-2 {
        stroke: #1d1e1c;
      }

      .cls-2, .cls-3, .cls-4 {
        fill: none;
        stroke-linecap: round;
        stroke-linejoin: round;
      }

      .cls-2, .cls-4 {
        stroke-width: .75px;
      }

      .cls-3 {
        stroke: #000;
        stroke-width: .25px;
      }

      .cls-4 {
        stroke: #d2155b;
      }

      .cls-5 {
        fill: #1d1e1c;
      }
    </style>
  </defs>
  <g>
    <line class="cls-2" x1="352.391383516615861" y1="186.756941438132344" x2="384.117884981459611" y2="186.756941438132344"/>
    <polygon class="cls-5" points="382.011439668959611 189.534285188132344 383.191371309584611 186.756941438132344 382.011439668959611 183.979597688132344 388.595179903334611 186.756941438132344 382.011439668959611 189.534285188132344"/>
  </g>
  <g>
    <polyline class="cls-3" points="446.525012493063514 12.065919946692702 449.172581633704795 13.578807437853357 449.172581633704795 25.776426765405631"/>
    <line class="cls-3" x1="106.976931368511941" y1="211.199375271668032" x2="449.172581633704795" y2="13.578807437853357"/>
    <polyline class="cls-3" points="106.976931368511941 292.989723006256099 106.976931368511941 211.199375271668032 104.329394290074561 209.686487780496464 446.525012493063514 12.065919946692702"/>
    <polyline class="cls-3" points="449.172581633704795 25.776426765405631 106.976931368511941 292.989723006256099 104.329394290074561 291.476835515084531 104.329394290074561 209.686487780496464"/>
    <polyline class="cls-3" points="432.814505674346037 4.123276649168474 435.462074814992775 5.730683538540688 435.462074814992775 15.375317248081046"/>
    <line class="cls-3" x1="93.266424549804469" y1="203.256731974142895" x2="435.462074814992775" y2="5.730683538540688"/>
    <polyline class="cls-3" points="93.266424549804469 203.256731974142895 90.618855409153184 201.743844482974964 432.814505674346037 4.123276649168474"/>
    <line class="cls-3" x1="93.266424549804469" y1="285.047079708736419" x2="93.266424549804469" y2="284.952528248313683"/>
    <line class="cls-3" x1="93.266424549804469" y1="282.021304726402377" x2="93.266424549804469" y2="203.256731974142895"/>
    <polyline class="cls-3" points="104.329394290074561 291.476835515084531 93.266424549804469 285.047079708736419 90.618855409153184 283.534192217573946 90.618855409153184 201.743844482974964"/>
    <polyline class="cls-3" points="104.329394290074561 291.382284054663614 103.856604925756983 288.73474697623169 92.793635185476887 282.304959107661489 93.266424549804469 285.047079708736419"/>
    <line class="cls-3" x1="434.989285450673378" y1="15.091694929021287" x2="417.307424920992162" y2="28.896721145949414"/>
    <line class="cls-3" x1="104.329394290074561" y1="273.322217683291456" x2="92.793635185476887" y2="282.304959107661489"/>
    <line class="cls-3" x1="438.109643955637694" y1="16.888204739238063" x2="434.989285450673378" y2="15.091694929021287"/>
    <line class="cls-3" x1="103.856604925756983" y1="288.73474697623169" x2="104.329394290074561" y2="288.356509072335029"/>
  </g>
  <g>
    <line class="cls-4" x1="52.149810182875626" y1="248.822462678366719" x2="69.131846773451798" y2="238.195112824851094"/>
    <polygon class="cls-1" points="68.819575655287736 241.666884065085469 68.346446382826798 238.686598420554219 65.872882234877579 236.958204865866719 72.927218782729142 235.819960236960469 68.819575655287736 241.666884065085469"/>
  </g>
  <g>
    <polyline class="cls-3" points=".125 65.831359453137338 .222352472059356 65.295927046297038 .417053289852447 64.906533663363916 .806463178089871 64.71180396127329 1.244551365523876 64.71180396127329 1.731309599493216 64.906533663363916"/>
    <polyline class="cls-3" points="59.753283915277279 97.130123514934894 59.704609742413595 96.594691108100051 59.509904798293064 96.059258701266117 59.26652568130794 95.523826294428545"/>
    <polyline class="cls-3" points="39.211949447607367 267.496677281984375 39.455328564590673 267.253298164998341 39.650033508711203 266.863888276759099 39.698707681576707 266.425795962997654"/>
    <polyline class="cls-3" points="10.88242546780657 149.60302755495195 10.639046350823264 149.067595148114378 10.493015579566418 148.483472063096997 10.395667233834502 147.996713829130385"/>
    <polyline class="cls-3" points="25.58262811719942 175.839479574960933 25.533953944333916 175.304047168123361 25.387923173078889 174.768598255972393 25.095861630572472 174.233165849134821"/>
    <polyline class="cls-3" points="55.421109224435895 95.864562009803194 55.907867458405235 96.25395539272813 56.345951519510891 96.789420810190677 56.735361407751043 97.422201562758346 56.930066351871574 98.054982315328743 57.027422950260188 98.687763067897322"/>
    <line class="cls-3" x1="57.027422950260188" y1="98.687763067897322" x2="59.753283915277279" y2="97.130123514934894"/>
    <polyline class="cls-3" points="49.433938382248925 161.285307696818563 49.385264209382512 160.652510438938407 49.141885092397388 160.019729686369828 48.752475204158145 159.386932428489672 48.314391143053399 158.8515000216521 47.827624656426451 158.462090133411039"/>
    <polyline class="cls-3" points="9.324794167505388 136.26575951439554 8.838027680876621 136.022388650068933 8.399943619770056 136.071062822934437 8.010533731535361 136.26575951439554 7.767154614548417 136.655169402635693 7.718476315352746 137.190618314783933"/>
    <line class="cls-3" x1="7.718476315352746" y1="137.190618314783933" x2="9.324794167505388" y2="136.26575951439554"/>
    <polyline class="cls-3" points="7.718476315352746 149.554353382086447 7.767154614548417 150.089785788923109 7.913181259472367 150.625234701074078 8.205238675655892 151.160667107909831"/>
    <line class="cls-3" x1="8.205238675655892" y1="151.160667107909831" x2="10.88242546780657" y2="149.60302755495195"/>
    <line class="cls-3" x1="10.395667233834502" y1="147.996713829130385" x2="7.718476315352746" y2="149.554353382086447"/>
    <line class="cls-3" x1="25.095861630572472" y1="174.233165849134821" x2="22.418674838419065" y2="175.79080540209543"/>
    <polyline class="cls-3" points="48.947180148278676 174.71992408310507 49.239233438127485 174.476553218781191 49.385264209382512 174.087143330541949 49.433938382248925 173.649059269435384"/>
    <polyline class="cls-3" points="34.246985751542525 183.968396549804311 34.344334097269893 183.530312488701384 34.490364868527649 183.14090260046396 34.733743985511865 182.897515230821227"/>
    <polyline class="cls-3" points="22.418674838419065 175.79080540209543 22.662053955405099 176.326237808931182 22.808084726657398 176.861670215765116 22.905441325045103 177.397119127916085"/>
    <line class="cls-3" x1="22.905441325045103" y1="177.397119127916085" x2="25.58262811719942" y2="175.839479574960933"/>
    <polyline class="cls-3" points="36.972846716556887 267.983435515952806 36.875490118169182 268.518876175447076 36.680793426708078 268.908286063688138 36.291383538467926 269.10299100780685 35.853291224707391 269.151665180674172 35.366532990735323 268.908286063688138"/>
    <line class="cls-3" x1="39.698707681576707" y1="266.425795962997654" x2="36.972846716556887" y2="267.983435515952806"/>
    <polyline class="cls-3" points="21.785885833194698 261.120096551556344 21.299127599223539 260.73068666331892 20.861043538117883 260.195254256483167 20.471633649877731 259.56246525125789 20.276928705759929 258.929676246030795 20.179572107371314 258.296878988150638"/>
    <line class="cls-3" x1="1.049846421403345" y1="64.517107269820372" x2=".611758233971159" y2="64.760494639459466"/>
    <line class="cls-3" x1="39.211949447607367" y1="267.496677281984375" x2="36.486088482591185" y2="269.054308582282829"/>
    <line class="cls-3" x1="59.753283915277279" y1="97.130123514934894" x2="59.753283915277279" y2="192.438049240028704"/>
    <line class="cls-3" x1="39.698707681576707" y1="209.182641423692985" x2="39.698707681576707" y2="266.425795962997654"/>
    <line class="cls-3" x1="10.395667233834502" y1="136.849882599412922" x2="10.395667233834502" y2="147.996713829130385"/>
    <line class="cls-3" x1="10.88242546780657" y1="149.60302755495195" x2="25.095861630572472" y2="174.233165849134821"/>
    <polyline class="cls-3" points="25.58262811719942 175.839479574960933 25.58262811719942 257.031300977700084 34.246985751542525 262.044947099286219"/>
    <line class="cls-3" x1="55.421109224435895" y1="95.864562009803194" x2="1.731309599493216" y2="64.906533663363916"/>
    <line class="cls-3" x1="49.433938382248925" y1="161.285307696818563" x2="49.433938382248925" y2="173.649059269435384"/>
    <line class="cls-3" x1="9.324794167505388" y1="136.26575951439554" x2="47.827624656426451" y2="158.462090133411039"/>
    <line class="cls-3" x1="22.418674838419065" y1="175.79080540209543" x2="8.205238675655892" y2="151.160667107909831"/>
    <line class="cls-3" x1="48.947180148278676" y1="174.71992408310507" x2="34.733743985511865" y2="182.897515230821227"/>
    <line class="cls-3" x1="34.246985751542525" y1="183.968396549804311" x2="34.246985751542525" y2="265.160217952545281"/>
    <line class="cls-3" x1="36.972846716556887" y1="267.983435515952806" x2="36.972846716556887" y2="210.788955149519097"/>
    <line class="cls-3" x1="20.179572107371314" y1="201.053724448845969" x2="20.179572107371314" y2="258.296878988150638"/>
    <line class="cls-3" x1="38.57916044238209" y1="207.235591982496771" x2="55.469783397301399" y2="197.500361281825462"/>
    <line class="cls-3" x1="57.027422950260188" y1="193.995688792985675" x2="57.027422950260188" y2="98.687763067897322"/>
    <line class="cls-3" x1="1.731309599493216" y1="166.493658762528867" x2="18.573258381547021" y2="195.699350864540975"/>
    <polyline class="cls-3" points="25.58262811719942 257.031300977700084 22.905441325045103 258.588940530657055 22.905441325045103 177.397119127916085"/>
    <line class="cls-3" x1="34.246985751542525" y1="265.160217952545281" x2="22.905441325045103" y2="258.588940530657055"/>
    <line class="cls-3" x1="7.718476315352746" y1="149.554353382086447" x2="7.718476315352746" y2="137.190618314783933"/>
    <line class="cls-3" x1=".125" y1="65.831359453137338" x2=".125" y2="161.139285178220234"/>
    <line class="cls-3" x1="21.785885833194698" y1="261.120096551556344" x2="35.366532990735323" y2="268.908286063688138"/>
    <polyline class="cls-3" points="58.146970189452077 195.942721728866672 58.828441620202284 195.407289322032739 59.315199854173443 194.579795372686931 59.655935569548092 193.606278904748251 59.753283915277279 192.438049240028704"/>
    <polyline class="cls-3" points="39.698707681576707 209.182641423692985 39.796064279966231 208.063085931838941 40.088117569816859 207.040895291032939 40.623558229312039 206.262075514554454 41.256347234534587 205.677952429539801"/>
    <line class="cls-3" x1="36.972846716556887" y1="210.788955149519097" x2="39.698707681576707" y2="209.182641423692985"/>
    <polyline class="cls-3" points="20.179572107371314 201.053724448845969 20.082223761639398 199.788146438397234 19.741488046265658 198.425220082215674 19.254729812296318 197.062277220720716 18.573258381547021 195.699350864540975"/>
    <polyline class="cls-3" points="38.57916044238209 207.235591982496771 37.89769726429131 207.819715067513243 37.410930777664362 208.598534843991729 37.070195062289713 209.620725484795912 36.972846716556887 210.788955149519097"/>
    <line class="cls-3" x1="55.469783397301399" y1="197.500361281825462" x2="58.146970189452077" y2="195.942721728866672"/>
    <polyline class="cls-3" points="57.027422950260188 193.995688792985675 56.930066351871574 195.163918457705222 56.638013062020036 196.137434925643902 56.102572402524856 196.96492887498971 55.469783397301399 197.500361281825462"/>
    <line class="cls-3" x1="59.753283915277279" y1="192.438049240028704" x2="57.027422950260188" y2="193.995688792985675"/>
    <polyline class="cls-3" points="1.731309599493216 166.493658762528867 1.049846421403345 165.130732406345487 .514405761911803 163.767789544852349 .222352472059356 162.404863188670788 .125 161.139285178220234"/>
    <polyline class="cls-3" points="89.153680961408099 59.016711166909772 89.835152392157397 58.724666129722209 90.71132051436598 58.627284773362589 91.538814463709969 58.675975451535123 92.317634240190273 58.870672143002594 92.950414992758851 59.211407858376333 93.339824880994456 59.649491919481989 93.388515559176994 60.18492432632047 93.145128189534262 60.671699065600478 92.658369955564922 61.06109244853269 91.976898524815624 61.353170496343409 91.149404575468907 61.450518842078964 90.273236453263053 61.450518842078964 89.494416676782748 61.207131472438959 88.861619418898954 60.866395757064311 88.520900208844068 60.428311695958655 88.423535357796027 59.892879289121993 88.666922727438759 59.454795228016337 89.153680961408099 59.016711166909772"/>
    <polyline class="cls-3" points="56.638013062020036 40.227721196316452 57.319476240109907 39.984333826677357 58.195652614976098 39.838294802769269 59.023146564321905 39.886985480941803 59.801966340799481 40.081682172409273 60.434755346022939 40.422417887783013 60.77548280874089 40.909192627062112 60.872839407129504 41.395934355728059 60.629460290145289 41.882709095005339 60.142693803517432 42.27210247793937 59.461230625427561 42.564180525750999 58.58506250321625 42.710186539031383 57.757560301215563 42.661528871485643 56.978748777395595 42.466832180030906 56.345951519510891 42.077405786472809 56.00522405679385 41.639321725366244 55.907867458405235 41.152546986086236 56.151254828047968 40.665805257422107 56.638013062020036 40.227721196316452"/>
    <polyline class="cls-3" points=".125 63.933017195433422 .125 60.81773808951948 57.027422950260188 27.961334474750402 113.929841774192028 60.81773808951948 113.929841774192028 63.933017195433422 57.027422950260188 96.789420810190677"/>
    <polyline class="cls-3" points=".125 63.933017195433422 57.027422950260188 96.789420810190677 57.027422950260188 93.674141704277645 113.929841774192028 60.81773808951948"/>
    <line class="cls-3" x1=".125" y1="60.81773808951948" x2="57.027422950260188" y2="93.674141704277645"/>
    <polyline class="cls-3" points="59.753283915277279 95.231781257232797 59.753283915277279 119.618515676462266 89.299703480005519 78.195127531062099 59.753283915277279 95.231781257232797"/>
  </g>
  <g>
    <polyline class="cls-3" points="834.371307200165575 8.255577975194683 837.081521739130949 9.804262620078589 837.081521739130949 22.290528466831347"/>
    <line class="cls-3" x1="506.7282740746532" y1="200.582544615852385" x2="837.081521739130949" y2="9.804262620078589"/>
    <line class="cls-3" x1="506.7282740746532" y1="197.388386638391239" x2="834.371307200165575" y2="8.255577975194683"/>
    <polyline class="cls-3" points="486.111446663136121 295.439315010542487 486.789000297877465 295.826486171763463 486.789000297877465 237.363739290067315"/>
    <line class="cls-3" x1="837.081521739130949" y1="22.290528466831347" x2="486.789000297877465" y2="295.826486171763463"/>
    <polyline class="cls-3" points="820.336389529390544 .125 823.046571247506108 1.770473332580877 823.046571247506108 11.643346148911405"/>
    <line class="cls-3" x1="472.75406621667662" y1="203.970279968711111" x2="496.468262917957873" y2="190.322517048731243"/>
    <line class="cls-3" x1="506.7282740746532" y1="184.321372255029928" x2="823.046571247506108" y2="1.770473332580877"/>
    <line class="cls-3" x1="471.592552733015509" y1="201.5504643136901" x2="495.597115497391314" y2="187.61233533061386"/>
    <line class="cls-3" x1="506.7282740746532" y1="181.224019375695207" x2="820.336389529390544" y2=".125"/>
    <polyline class="cls-3" points="472.75406621667662 203.970279968711111 472.75406621667662 203.970279968711111 472.75406621667662 284.598538906804606"/>
    <polyline class="cls-3" points="472.366895055457462 285.179295648633342 472.270106367760491 284.888921380324973 481.368604040792889 290.212512539283125"/>
    <line class="cls-3" x1="822.562627809012156" y1="11.352947264962495" x2="804.462388329789064" y2="25.484686444283398"/>
    <line class="cls-3" x1="481.368604040792889" y1="277.823059995873336" x2="472.270106367760491" y2="284.888921380324973"/>
    <line class="cls-3" x1="825.756785786473301" y1="13.192030793794402" x2="822.562627809012156" y2="11.352947264962495"/>
    <polyline class="cls-3" points="447.394396182818127 94.884998117420764 447.491184870516918 94.304233170377302 447.684770451128315 93.917062009158144 448.071941612349292 93.723484633760563 448.555909666479238 93.723484633760563 449.039869515400824 93.917062009158144"/>
    <polyline class="cls-3" points="506.7282740746532 125.955430471459294 506.631485386954409 125.471470622539528 506.437891601132833 124.890705675494246 506.244314225737071 124.406745826577207"/>
    <polyline class="cls-3" points="486.305024038533702 295.34251811762806 486.498617824357098 295.148932537020301 486.692195199752859 294.76176958101496 486.789000297877465 294.277801526881376"/>
    <polyline class="cls-3" points="458.138383598860855 178.126650085931033 457.848001125338669 177.642690237013085 457.751212437639879 177.061925289970532 457.654407339517093 176.577965441052584"/>
    <polyline class="cls-3" points="472.75406621667662 204.260662442233297 472.657277528977829 203.679897495188925 472.560472430853224 203.195937646267339 472.270106367760491 202.61518910965242"/>
    <polyline class="cls-3" points="502.372602613532763 124.697128300098484 502.85656246245253 125.084299461317642 503.340538721794474 125.665047997937108 503.72770988301545 126.245796534554756 503.92128725841485 126.9233501692961 504.01807594611364 127.504115116337744"/>
    <line class="cls-3" x1="504.01807594611364" y1="127.504115116337744" x2="506.7282740746532" y2="125.955430471459294"/>
    <polyline class="cls-3" points="496.468262917957873 189.741768512112685 496.371457819833267 189.161003565070132 496.177880444433868 188.483466340754603 495.79070928321471 187.902701393710231 495.306749434296762 187.321952857093493 494.82277317495118 186.934781695870697"/>
    <polyline class="cls-3" points="456.589698953978768 164.866058327172141 456.105722694633187 164.67248095177456 455.621762845717058 164.67248095177456 455.234591684496081 164.866058327172141 455.0410143090985 165.253229488393117 454.944225621401529 165.833994435433851"/>
    <line class="cls-3" x1="454.944225621401529" y1="165.833994435433851" x2="456.589698953978768" y2="164.866058327172141"/>
    <polyline class="cls-3" points="454.944225621401529 178.126650085931033 455.0410143090985 178.610609934848981 455.137802996795472 179.191374881891534 455.428185470319477 179.675334730811301"/>
    <line class="cls-3" x1="455.428185470319477" y1="179.675334730811301" x2="458.138383598860855" y2="178.126650085931033"/>
    <line class="cls-3" x1="457.654407339517093" y1="176.577965441052584" x2="454.944225621401529" y2="178.126650085931033"/>
    <line class="cls-3" x1="472.270106367760491" y1="202.61518910965242" x2="469.559908239217293" y2="204.163873754530869"/>
    <polyline class="cls-3" points="495.98428665861411 203.099148958572187 496.274669132136296 202.905571583174606 496.371457819833267 202.51840042195181 496.468262917957873 202.034424162609866"/>
    <polyline class="cls-3" points="481.368604040792889 212.294451729727371 481.465392728491679 211.907280568511851 481.562197826618103 211.520109407289056 481.852563889716293 211.229726933770507"/>
    <polyline class="cls-3" points="469.559908239217293 204.163873754530869 469.850290712739479 204.744622291151245 470.04386808813706 205.228582140069193 470.04386808813706 205.809347087113565"/>
    <line class="cls-3" x1="470.04386808813706" y1="205.809347087113565" x2="472.75406621667662" y2="204.260662442233297"/>
    <polyline class="cls-3" points="484.078802169336086 295.826486171763463 483.982013481637296 296.407242913592199 483.7884196958139 296.794414074814995 483.401248534594743 296.987999655424574 482.917288685676795 296.987999655424574 482.433328836755209 296.794414074814995"/>
    <line class="cls-3" x1="486.789000297877465" y1="294.277801526881376" x2="484.078802169336086" y2="295.826486171763463"/>
    <polyline class="cls-3" points="468.97914329217474 289.050999055625653 468.495183443254973 288.663827894401038 468.011223594335206 288.083071152574121 467.624052433116049 287.502322615953744 467.430475057718468 286.82476898121422 467.333669959595682 286.244012239381846"/>
    <line class="cls-3" x1="448.362324085869659" y1="93.529890847938077" x2="447.878356031737894" y2="93.820273321458444"/>
    <line class="cls-3" x1="486.305024038533702" y1="295.34251811762806" x2="483.594842320416319" y2="296.891202762513785"/>
    <line class="cls-3" x1="506.7282740746532" y1="125.955430471459294" x2="506.7282740746532" y2="220.715412178451516"/>
    <line class="cls-3" x1="486.789000297877465" y1="237.363739290067315" x2="486.789000297877465" y2="294.277801526881376"/>
    <line class="cls-3" x1="457.654407339517093" y1="165.446823274216513" x2="457.654407339517093" y2="176.577965441052584"/>
    <line class="cls-3" x1="458.138383598860855" y1="178.126650085931033" x2="472.270106367760491" y2="202.61518910965242"/>
    <line class="cls-3" x1="472.75406621667662" y1="204.260662442233297" x2="472.75406621667662" y2="284.598538906804606"/>
    <line class="cls-3" x1="502.372602613532763" y1="124.697128300098484" x2="449.039869515400824" y2="93.917062009158144"/>
    <line class="cls-3" x1="496.468262917957873" y1="189.741768512112685" x2="496.468262917957873" y2="202.034424162609866"/>
    <line class="cls-3" x1="456.589698953978768" y1="164.866058327172141" x2="494.82277317495118" y2="186.934781695870697"/>
    <line class="cls-3" x1="469.559908239217293" y1="204.163873754530869" x2="455.428185470319477" y2="179.675334730811301"/>
    <line class="cls-3" x1="495.98428665861411" y1="203.099148958572187" x2="481.852563889716293" y2="211.229726933770507"/>
    <line class="cls-3" x1="481.368604040792889" y1="212.294451729727371" x2="481.368604040792889" y2="293.019499355523294"/>
    <line class="cls-3" x1="484.078802169336086" y1="295.826486171763463" x2="484.078802169336086" y2="239.009212622648192"/>
    <line class="cls-3" x1="467.333669959595682" y1="229.329950002569603" x2="467.333669959595682" y2="286.244012239381846"/>
    <line class="cls-3" x1="485.627486814218173" y1="235.427883483967889" x2="502.469391301229734" y2="225.748620863887481"/>
    <line class="cls-3" x1="504.01807594611364" y1="222.264096823329965" x2="504.01807594611364" y2="127.504115116337744"/>
    <line class="cls-3" x1="449.039869515400824" y1="194.968570983372047" x2="465.784985314713595" y2="224.006358843611451"/>
    <polyline class="cls-3" points="472.366895055457462 285.179295648633342 470.04386808813706 286.534394712902213 470.04386808813706 205.809347087113565"/>
    <line class="cls-3" x1="481.368604040792889" y1="293.019499355523294" x2="470.04386808813706" y2="286.534394712902213"/>
    <line class="cls-3" x1="454.944225621401529" y1="178.126650085931033" x2="454.944225621401529" y2="165.833994435433851"/>
    <line class="cls-3" x1="447.394396182818127" y1="94.884998117420764" x2="447.394396182818127" y2="189.644979824413895"/>
    <line class="cls-3" x1="468.97914329217474" y1="289.050999055625653" x2="482.433328836755209" y2="296.794414074814995"/>
    <polyline class="cls-3" points="505.08280074207596 224.199936219009032 505.760354376813666 223.715976370089265 506.244314225737071 222.844845359948522 506.631485386954409 221.876925662112626 506.7282740746532 220.715412178451516"/>
    <polyline class="cls-3" points="486.789000297877465 237.363739290067315 486.885788985576255 236.299022699318812 487.176171459096622 235.234297903358311 487.660131308018208 234.459963786130174 488.337668532333737 233.879207044299619"/>
    <line class="cls-3" x1="484.078802169336086" y1="239.009212622648192" x2="486.789000297877465" y2="237.363739290067315"/>
    <polyline class="cls-3" points="467.333669959595682 229.329950002569603 467.236881271895072 228.071647831209702 466.946498798372886 226.71655697215283 466.462538949454938 225.361449702670143 465.784985314713595 224.006358843611451"/>
    <polyline class="cls-3" points="485.627486814218173 235.427883483967889 484.949933179475011 236.008640225796626 484.465973330557063 236.78298254823676 484.175590857036696 237.847699138987082 484.078802169336086 239.009212622648192"/>
    <line class="cls-3" x1="502.469391301229734" y1="225.748620863887481" x2="505.08280074207596" y2="224.199936219009032"/>
    <polyline class="cls-3" points="504.01807594611364 222.264096823329965 503.92128725841485 223.425593896567079 503.630904784890845 224.393530004830609 503.050156248274106 225.264661014969533 502.469391301229734 225.748620863887481"/>
    <line class="cls-3" x1="506.7282740746532" y1="220.715412178451516" x2="504.01807594611364" y2="222.264096823329965"/>
    <polyline class="cls-3" points="449.039869515400824 194.968570983372047 448.362324085869659 193.613463713889359 447.781567344039104 192.258372854830668 447.491184870516918 190.903281995773796 447.394396182818127 189.644979824413895"/>
    <polyline class="cls-3" points="535.959639310288367 88.109494590856229 536.637192945031529 87.819128527760768 537.508323955170454 87.722339840059249 538.282666277610588 87.722339840059249 539.153797287747693 87.915917215457739 539.734562234790246 88.303104787102711 540.121733396013042 88.690259537898783 540.121733396013042 89.271024484941336 539.928139610191465 89.754967923435288 539.444179761269879 90.14215549508026 538.766626126530355 90.432521558176632 537.895495116389611 90.529310245874512 537.024364106250687 90.529310245874512 536.250021783808734 90.238944182778141 535.669273247191995 89.948578119682679 535.282102085971019 89.464601860338917 535.185313398272228 88.980658421844964 535.475679461370419 88.496682162502111 535.959639310288367 88.109494590856229"/>
    <polyline class="cls-3" points="503.630904784890845 69.428522985443124 504.308458419634007 69.138156922339476 505.179589429772932 69.041368234641595 505.953931752213066 69.041368234641595 506.7282740746532 69.234945610034629 507.405827709396362 69.622133181683239 507.79299887061552 70.106076620181739 507.79299887061552 70.590052879524592 507.599405084792124 71.073996318012178 507.115445235872357 71.46118388965715 506.437891601132833 71.751549952763526 505.566760590992089 71.848338640459588 504.695629580853165 71.848338640459588 503.92128725841485 71.654761265065645 503.340538721794474 71.267606514261388 502.953367560577135 70.783630254921263 502.85656246245253 70.299653995575682 503.146944935972897 69.815710557078091 503.630904784890845 69.428522985443124"/>
    <polyline class="cls-3" points="447.394396182818127 92.949142311320429 447.394396182818127 89.851789431984798 504.01807594611364 57.232656022638366 560.544967021706725 89.851789431984798 560.544967021706725 92.949142311320429 504.01807594611364 125.665047997937108"/>
    <polyline class="cls-3" points="447.394396182818127 92.949142311320429 504.01807594611364 125.665047997937108 504.01807594611364 122.567678708175663 560.544967021706725 89.851789431984798"/>
    <line class="cls-3" x1="447.394396182818127" y1="89.851789431984798" x2="504.01807594611364" y2="122.567678708175663"/>
    <polyline class="cls-3" points="506.7282740746532 124.116363353055931 506.7282740746532 148.314519903254222 536.056444408412972 107.177653767917946 506.7282740746532 124.116363353055931"/>
  </g>
</svg>