<?xml version="1.0" encoding="UTF-8"?>
<svg id="Layer_1" data-name="Layer 1" xmlns="http://www.w3.org/2000/svg" viewBox="0 0 765.467391304348894 187.356763993586355">
  <defs>
    <style>
      .cls-1 {
        stroke: #1d1d1b;
        stroke-miterlimit: 10;
      }

      .cls-1, .cls-2, .cls-3 {
        fill: none;
      }

      .cls-1, .cls-3 {
        stroke-width: .75px;
      }

      .cls-2, .cls-3, .cls-4 {
        stroke-linecap: round;
        stroke-linejoin: round;
      }

      .cls-2, .cls-4 {
        stroke: #000;
        stroke-width: .25px;
      }

      .cls-5 {
        fill: #1d1d1b;
      }

      .cls-6, .cls-4 {
        fill: #e20613;
      }

      .cls-3 {
        stroke: #e20613;
        stroke-dasharray: 3 3;
      }
    </style>
  </defs>
  <g>
    <polyline class="cls-2" points="176.353529478555174 105.736423136286248 175.455858403560342 105.137984858516575 174.650256256839384 104.424441884100816 173.913706781907422 103.595825432099446 173.269224284051234 102.652119892971314 172.716812665647922 101.61634932796369 172.233451767854604 100.465489675845674 171.865176054793665 99.222564997840891 171.588969269998415 97.910583745655458 171.427849621128189 96.506537467588714 171.33578069286159 95.056443067040163 171.38181515699489 93.537307701861209 171.496902292923551 91.949131372039119 171.727072662393766 90.337915371437703 172.049313911322315 88.680682467420411 172.463624088516553 87.023449563414033 172.970001242785656 85.320168536933124 173.568449276508545 83.639927181226085 174.258964287306299 81.959670215981532 175.04154822637156 80.30242170243946 175.893184837226727 78.668212859660343 176.813872168690978 77.056996859060746 177.803612171946043 75.491828980937498 178.862402895804735 73.995717676987624 179.967228083792179 72.568647337679067 181.141103992389617 71.187625120850498 182.338000059839032 69.898652320380279 183.580928640226375 68.701760155305237 184.846873477085865 67.596933016126059 186.135834570420229 66.607194964060909 187.424799566131696 65.709521937875252 188.73678081831531 64.926937998816356 190.048758168116365 64.259443146864214 191.337723163832379 63.707037382037015 192.626684257162196 63.29271354651064 193.869612837549539 62.993494407635808 195.089525161470192 62.832372807570209 196.28641732653432 62.786340294627735 197.414260722189283 62.878405320510865 198.496067702518303 63.085559433520757 199.531842169907577 63.430826694862844 200.475547709028433 63.914191495045088"/>
    <polyline class="cls-2" points="186.366008842273004 66.284951763940626 185.192132933675566 67.021503190062504 184.018253122701935 67.873143703300229 182.867393470577554 68.793825181186548 181.716533818450444 69.829611355735324 180.611710581655643 70.934422885376989 179.552919857795132 72.131330659973173 178.517145390405858 73.374255337979776 177.527405387146246 74.70924504186587 176.606718055686542 76.090282868231952 175.732065188361048 77.494329146302334 174.949481249295786 78.967431998536995 174.212929823172999 80.463543302490507 173.568449276508545 81.959670215981532 172.970001242785656 83.478805581160486 172.486640344986881 85.020949398040102 172.072332118983468 86.517076311529308 171.750090870055828 88.01318761548464 171.519918549393878 89.486290467721119 171.38181515699489 90.913345197490344 171.33578069286159 92.31740708509642"/>
    <polyline class="cls-2" points="245.336057885405353 97.979624710302232 245.290025372464697 96.48351340634872 245.151920028873064 95.056443067040163 244.898733402930702 93.721453363166802 244.530457689870673 92.455504623911111 244.093125402632722 91.281620910551283 243.540711833042224 90.199817832613917 242.919249494034375 89.233103841785123 242.182698067916135 88.381463328543759 241.377097872381455 87.64491190242552 240.502448907437611 87.023449563414033 239.53572711184006 86.517076311529308 238.522964998540374 86.148800598470189 237.441161920591185 85.918622424238492 236.290302268471351 85.803533337113549 235.116426359874822 85.826557398338991 233.87349387710492 85.987678998406409 232.63056919909468 86.263874076057618 231.341604203382303 86.678182302057394 230.029622951199599 87.207579615183931 228.717641699015985 87.875090076657216 227.405660446828733 88.65767401571793 226.093686999411148 89.555331432366074 224.781705747228443 90.545085093970556 223.515757007987304 91.672920684846758 222.249808268741617 92.869812849923619 221.029899847207162 94.158770040869058 219.856023938610633 95.539807867220588 218.751196799425998 96.989886658231626 217.692409977956231 98.486013571708099 216.679647864650178 100.074189901546561 215.758966386763859 101.685405902146158 214.884309617055806 103.319614744910723 214.101725677990544 104.999871710169828 213.411206764811141 106.703152736639822 212.812760682274529 108.406418153601408 212.306387430391624 110.109699180069583 211.892075302005651 111.789940535791175 211.569836004268836 113.447181244562671 211.339661732416971 115.081405696864749 211.224576547678225 116.669589831471967 211.201560291207898 118.188725196650921 211.293629219474496 119.661828048887401 211.477767076002237 121.065874326954145 211.776990117273272 122.377855579154129 212.14526583033421 123.620780257157094 212.628622825745879 124.748623652803872 213.204052651807615 125.807418279056947 213.871555308521238 126.728107561695651 214.631122991108896 127.556724013713392 215.459739443115723 128.247242926887338 216.357412469295014 128.822672752941799 217.347150521360163 129.2830134918986 218.382921086365059 129.605256692015246 219.487748225549694 129.812410805008767 220.638607877674986 129.881459574422479 221.835500042737294 129.812410805008767 223.078432525512653 129.605256692015246 224.344373459988674 129.2830134918986 225.656354712171378 128.822672752941799 226.96833596435954 128.247242926887338 228.280317216542244 127.533707757242155"/>
    <polyline class="cls-2" points="245.336057885405353 100.350400588720731 245.290025372464697 101.777470928029288 245.151920028873064 103.2735822319828 244.898733402930702 104.815741658399929 244.55347394634191 106.357885475297735 244.116141659102141 107.946077414657339 243.586752150747998 109.511245292775129 242.96528200697685 111.099437232136552 242.251754642094966 112.664605110272532 241.469170703029704 114.206748927152148 240.617530189787431 115.702868035876236 239.696840907136902 117.175970888109077 238.707102855073572 118.580017166179459 237.648316033596529 119.91501467483431 236.566505150884041 121.180963414080907 235.438661755229077 122.377855579154129 234.264785846638006 123.482682718331489 233.067893681568421 124.495437026856962 231.847985260034875 125.393110053038981 230.628069033730753 126.175693992116067 229.408160612197207 126.866205100523075 228.188244385893995 127.418618670119031 226.99135222082532 127.8559509573588 225.794460055762102 128.17818635270487 224.64360040363772 128.362324209245344 223.538773264452175 128.408356722185999 222.456970186509352 128.339307952757736 221.444208073205118 128.132153839764214 220.500502534084262 127.809910639647569 219.60283731266918 127.3495699007035 218.774213055898144 126.774140074638126 218.037669434545023 126.083621161460542 217.370166777830491 125.278020965930409 216.794736951769664 124.357331683273514 216.311379956357996 123.344577374737128 215.920080182057063 122.216733979088531 215.620861043173136 121.019841814026222 215.413706930174158 119.730876818297475 215.321634099524999 118.395879309655356 215.321634099524999 116.968816775117375 215.413706930174158 115.495713922866344 215.620861043173136 113.999594814160446 215.920080182057063 112.45745099726264 216.311379956357996 110.892283119144849 216.794736951769664 109.304091179768875 217.370166777830491 107.715899240409271 218.037669434545023 106.150731362289662 218.774213055898144 104.608587545393675 219.60283731266918 103.066428118976546 220.500502534084262 101.593325266721877 221.444208073205118 100.14324647572721 222.456970186509352 98.785232710602941 223.538773264452175 97.473251458417508 224.64360040363772 96.230326780412724 225.794460055762102 95.102475579982638 226.99135222082532 94.043696563283447 228.188244385893995 93.07696696291714 229.408160612197207 92.24835051091577 230.628069033730753 91.511799084795712 231.847985260034875 90.890336745787863 233.067893681568421 90.383963493903138 234.264785846638006 90.015687780844019 235.438661755229077 89.762485545372328 236.566505150884041 89.647412067786718 237.648316033596529 89.647412067786718 238.707102855073572 89.785509606614141 239.696840907136902 90.061720293788312 240.617530189787431 90.453004458546275 241.469170703029704 90.95939331997215 242.251754642094966 91.603864110667928 242.96528200697685 92.34041553680072 243.586752150747998 93.215064501744564 244.116141659102141 94.181794102096319 244.55347394634191 95.240588728345756 244.898733402930702 96.391448380463771 245.151920028873064 97.634373058466736 245.290025372464697 98.969362762369201 245.336057885405353 100.350400588720731"/>
    <line class="cls-2" x1="186.366008842273004" y1="66.284951763940626" x2="188.414537618195027" y2="65.111083660107397"/>
    <line class="cls-2" x1="171.33578069286159" y1="92.31740708509642" x2="171.33578069286159" y2="94.665158902276744"/>
    <line class="cls-2" x1="230.328849894847735" y1="126.359831848636532" x2="228.280317216542244" y2="127.533707757242155"/>
    <line class="cls-2" x1="245.336057885405353" y1="100.350400588720731" x2="245.336057885405353" y2="97.979624710302232"/>
    <polyline class="cls-2" points="236.474440124999091 105.460212449112078 236.428399807293317 106.40391798822202 236.267286012000113 107.393656040292626 236.037107837760232 108.383409701884375 235.691856185939287 109.419180266891999 235.254523898701336 110.408918318960787 234.748150646812974 111.398656371031393 234.172720820753057 112.365370361856549 233.505218164043072 113.240034936325173 232.814707055627878 114.068651388341095 232.07815562950509 114.805202814461154 231.318587946911975 115.472697666393287 230.512987751380933 116.002094979521644 229.730396007546915 116.439419461992657 228.94781206848711 116.738646405639884 228.211268447129441 116.899760200936726 227.474717021006654 116.968816775117375 226.807214364297579 116.876743944463669 226.185752025296097 116.669589831471967 225.63333845570105 116.324330374869533 225.17299771675971 115.863989635927283 224.781705747228443 115.288559809872822 224.482478803580307 114.621064957922499 224.29834094704529 113.861497275333022 224.183259664696379 113.009856762091658 224.183259664696379 112.112183735906001 224.29834094704529 111.145469745079026 224.482478803580307 110.155731693010239 224.781705747228443 109.142969579717828 225.17299771675971 108.130207466410866 225.63333845570105 107.117460962655969 226.185752025296097 106.150731362289662 226.807214364297579 105.230049884401524 227.474717021006654 104.355400919457679 228.211268447129441 103.572801370859452 228.94781206848711 102.882298067208467 229.730396007546915 102.283844179912194 230.512987751380933 101.800479379731769 231.318587946911975 101.43220366667083 232.07815562950509 101.202041101963914 232.814707055627878 101.086952014838971 233.505218164043072 101.109976076078965 234.172720820753057 101.24807361490457 234.748150646812974 101.524284302080559 235.254523898701336 101.915568466854893 235.691856185939287 102.444965779966878 236.037107837760232 103.066428118976546 236.267286012000113 103.779971093394124 236.428399807293317 104.585563484168233 236.474440124999091 105.460212449112078"/>
    <line class="cls-2" x1="216.196290869239419" y1="128.730599922304464" x2="176.353529478555174" y2="105.736423136286248"/>
    <line class="cls-2" x1="240.34132730737474" y1="86.931384537530903" x2="200.475547709028433" y2="63.914191495045088"/>
  </g>
  <polyline class="cls-2" points="210.686346778401457 91.686434767771061 210.662819858948751 92.168674798089341 210.580489599873545 92.674437759575085 210.462866967473019 93.180208697642229 210.286440995449993 93.70949459028634 210.062961184522464 94.21525755175935 209.804200965131713 94.721020513246913 209.510152360709071 95.215018020855496 209.169053905668079 95.661977642708734 208.816197973335875 96.085406356827662 208.439815121547326 96.461789208618939 208.051670804177775 96.80288367536923 207.640003555643489 97.073409348631685 207.240093784400415 97.296885171272152 206.84018800144986 97.449792200422962 206.463809137950193 97.53212245949544 206.087426286161644 97.567410844532787 205.746327831121562 97.52036099390898 205.428756295532366 97.414503815383796 205.146469156694366 97.238073855074617 204.911231868467439 97.002836566851329 204.711278976994436 96.708787962426868 204.558371947848173 96.367693495665662 204.464276234897625 95.979549178304296 204.405468906989881 95.544355010313666 204.405468906989881 95.085637911155573 204.464276234897625 94.591640403550628 204.558371947848173 94.085877442061246 204.711278976994436 93.568349026720171 204.911231868467439 93.050820611366362 205.146469156694366 92.533300172586678 205.428756295532366 92.039294688402151 205.746327831121562 91.568820111953755 206.087426286161644 91.121868466678279 206.463809137950193 90.721954707139957 206.84018800144986 90.369102763097544 207.240093784400415 90.063288704808656 207.640003555643489 89.816285962719121 208.051670804177775 89.628094536821663 208.439815121547326 89.510479880991625 208.816197973335875 89.45166856479409 209.169053905668079 89.463434018663975 209.510152360709071 89.534002812164545 209.804200965131713 89.675148375730714 210.062961184522464 89.875097278913017 210.286440995449993 90.145622952162739 210.462866967473019 90.463194487758301 210.580489599873545 90.827819862255637 210.662819858948751 91.239483122493766 210.686346778401457 91.686434767771061"/>
  <polyline class="cls-2" points="191.066604331555027 79.986878708714357 191.043077412101411 80.469118739030819 190.960747153028024 80.974881700518381 190.843124520626588 81.480652638570973 190.666698548604472 82.009938531213265 190.443218737673305 82.515701492704466 190.184458518284373 83.021464454192028 189.890409913859912 83.515461961798792 189.549311458822558 83.962421583652031 189.196455526485806 84.385850297770958 188.820072674699077 84.762233149560416 188.431928357328616 85.103327616312527 188.020261108795239 85.3738532895768 187.620351337552165 85.597329112213629 187.22044555460343 85.750236141351706 186.844066691102853 85.832566400440555 186.467683839315214 85.86785478546517 186.126585384271493 85.820804934854095 185.809013848687755 85.714947756327092 185.526726709845207 85.538517796017913 185.291489421621009 85.303280507792806 185.091536530146186 85.00923190335925 184.938629500999923 84.668137436605321 184.844533788052104 84.279993119245773 184.785726460141632 83.844798951258781 184.785726460141632 83.386081852100688 184.844533788052104 82.892084344492105 184.938629500999923 82.386321383004542 185.091536530146186 81.868792967665286 185.291489421621009 81.351264552307839 185.526726709845207 80.833744113529974 185.809013848687755 80.339738629347266 186.126585384271493 79.86926405289887 186.467683839315214 79.422312407621575 186.844066691102853 79.022398648081435 187.22044555460343 78.669546704042659 187.620351337552165 78.363732645751952 188.020261108795239 78.116729903647865 188.431928357328616 77.928538477754046 188.820072674699077 77.810923821933102 189.196455526485806 77.752112505737387 189.549311458822558 77.763877959605452 189.890409913859912 77.834446753106022 190.184458518284373 77.975592316670372 190.443218737673305 78.175541219858133 190.666698548604472 78.446066893106035 190.843124520626588 78.763638428699778 190.960747153028024 79.128263803200753 191.043077412101411 79.539927063438881 191.066604331555027 79.986878708714357"/>
  <g>
    <polyline class="cls-2" points="595.239382174005186 83.570282699982272 595.012723550161354 83.726299264552836 594.559458821650878 84.038383370414522 593.877260384674628 84.353827584058308 593.347666656539332 84.666997484283456 593.119870875997549 84.746711694430815"/>
    <polyline class="cls-2" points="598.119643088443809 82.229903303621541 597.968175150687784 82.308454097467802 597.438582193774891 82.621675745659559 596.757520527898123 83.013396439747339 596.22679002867244 83.250289859527584 596.075322862138819 83.328892401339544"/>
    <polyline class="cls-2" points="592.585728521057717 84.754672176973145 592.435398511222047 84.909577073205583 591.905804783095846 85.222746973429821 591.224743888430567 85.614519415468749 590.694013003600958 85.85138696127251 590.466268971003046 85.931100400201103"/>
    <polyline class="cls-2" points="600.544363418531248 81.048899808385613 600.394033794306779 81.203830578589077 599.86444006617694 81.517000478817863 599.18337917151166 81.908772920854062 598.652647901072669 82.145614592685888 598.424904254085959 82.225353905584598"/>
    <line class="cls-2" x1="580.572225753386192" y1="57.07602911720187" x2="595.239382174005186" y2="83.570282699982272"/>
    <line class="cls-2" x1="578.450492275537727" y1="58.099878505573542" x2="593.119870875997549" y2="84.746711694430815"/>
    <line class="cls-2" x1="583.528814896221775" y1="55.734512178528348" x2="598.119643088443809" y2="82.229903303621541"/>
    <line class="cls-2" x1="581.33075241876486" y1="56.759447361248931" x2="596.075322862138819" y2="83.328892401339544"/>
    <line class="cls-2" x1="577.996037485546367" y1="58.335583406301339" x2="592.585728521057717" y2="84.754672176973145"/>
    <line class="cls-2" x1="575.797975779293665" y1="59.360570336983074" x2="590.466268971003046" y2="85.931100400201103"/>
    <line class="cls-2" x1="585.874984432456586" y1="54.402040745533668" x2="600.544363418531248" y2="81.048899808385613"/>
    <line class="cls-2" x1="583.755473520065607" y1="55.578495613957784" x2="598.424904254085959" y2="82.225353905584598"/>
    <polyline class="cls-2" points="584.362480499737103 55.340465423077148 580.990373497238579 49.284917995708383 585.60519659347392 46.544888710759551 588.976166053663292 52.524107909732265 584.362480499737103 55.340465423077148"/>
    <line class="cls-2" x1="571.039729509874633" y1="57.599717135400169" x2="572.765110156001356" y2="60.703224046746072"/>
    <polyline class="cls-2" points="577.015588601080708 53.999813966756847 578.600906181792197 52.831372100028602 579.950518861774071 51.208475443312636 580.990373497238579 49.284917995708383"/>
    <line class="cls-2" x1="584.362480499737103" y1="55.340465423077148" x2="572.765110156001356" y2="60.703224046746072"/>
    <polyline class="cls-2" points="445.015192003883385 102.600063679714367 444.000491617104672 101.088748266045513 442.912874472033764 99.807477457950881 441.599761733804371 98.758525183240636 440.292335164697761 98.091110554629267 439.068033890248444 97.880372895854634 438.000912596648959 97.972621703726873 437.093192692535922 98.520384836358062 436.496394634827993 99.445162476631594 436.13307814118798 100.671737678892896 436.154684889778764 102.121534160894953 436.407473400652634 103.720549755611501 437.042936328723044 105.390155661647441 437.90503239226291 106.903771262708688 438.994923850740633 108.337646779649731 440.234008547960002 109.540340919904338 441.467407076038398 110.361497414065525 442.772559331734556 110.876307333821387 443.918283552750836 110.935551566484719 444.980856605142435 110.53811921489978 445.733670841806997 109.839974324479044 446.175590262867445 108.764892162738761 446.384027734252413 107.387986565052415 446.208678734504247 105.864136168049299 445.803285900384253 104.267420760706955 445.015192003883385 102.600063679714367"/>
    <polyline class="cls-2" points="460.316550846750943 84.588901019801597 461.227656346999538 84.270045336056683 462.373380182410074 84.329263694728979 463.601093312577177 84.768934290755169 464.833354298357335 85.513762556506663 465.994999484441905 86.641291499052386 467.082590755538149 87.922562692752763 467.944712693049041 89.436177908196441 468.655340818841978 91.028344303101221 469.059596881858852 92.548783229995934 469.081203630447817 93.99857971199981 468.947931356785375 95.298045798576823 468.42857281020315 96.29798863657561 467.675758187932843 96.996107653008949"/>
    <line class="cls-2" x1="467.675758187932843" y1="96.996107653008949" x2="444.905691407423546" y2="110.61555872603094"/>
    <line class="cls-2" x1="460.316550846750943" y1="84.588901019801597" x2="437.546484066239827" y2="98.208352092825407"/>
    <polyline class="cls-2" points="460.186335243629401 101.458106113985195 462.042687590424066 103.109516741553307 463.969656508136723 104.378278440281065 465.892076799032111 105.34183072133419 467.7313714096681 105.848680158564093 469.489814653460598 106.05143146082446 471.088804374200663 105.798643335538145"/>
    <polyline class="cls-2" points="454.102932082208099 77.354540899782478 453.207747547027793 78.741681293427973 452.468579576417142 80.355480310895473 452.115472004747971 82.268802962560585 451.994709226036321 84.40764669573764 452.257732532857517 86.693409354253163 452.751962704719517 89.128338991924466"/>
    <polyline class="cls-2" points="485.971891738495287 49.479846128880126 487.726923512173926 49.453690367861782 489.562806267092128 49.73160686783558 491.479540774465022 50.313647376764493 493.475988720771966 51.123431918282222"/>
    <line class="cls-2" x1="502.432047113666158" y1="58.01164343684195" x2="501.735065253928951" y2="57.335131168982116"/>
    <polyline class="cls-2" points="511.76484833984523 74.816111796058067 512.417369775291263 77.630330640387911 512.839846605159437 80.371632726428288 512.954813829947852 82.964879116046177 512.762271449658328 85.410069809232482 512.337436024349699 87.62973864968717 511.60392796328324 89.625049824884627 510.561824888384763 91.39600217802581 509.361405061531514 92.78769158409068 507.927529544595927 93.87758304257386"/>
    <line class="cls-2" x1="507.927529544595927" y1="93.87758304257386" x2="496.277686160486155" y2="100.843880785003421"/>
    <polyline class="cls-2" points="557.270632923414269 4.302943496008993 559.166897067684658 3.511438129396993 561.221452089933337 3.099196095470688 563.510626218557263 3.065079851925475 565.884037310162057 3.56396919222334 568.415791027692649 4.44212109399723 570.876901914739392 5.702896436223455 573.419976222573496 7.344124401402951 575.892459447878537 9.367975035823292 578.294352361849633 11.774500087436536 580.5458631324409 14.335904932518133 582.649317820993929 17.204793508707553 584.526113885710402 20.22969864946117 586.100027365301685 23.411808102616305 587.444955388477865 26.597278434748659 588.485812307489141 29.863677370054575 589.219183952963249 32.981916727426324 589.571070471510211 36.105893230655965 589.614284739899631 39.005537942617593 589.272548735266355 41.681884138513851 588.621055457334478 44.057621291482974 587.660940134771408 46.208922386063932 586.388741477549956 47.907010500076467"/>
    <polyline class="cls-2" points="512.44590923450869 74.424339354021868 513.255584005623859 77.541493302640447 513.682610233517153 80.588056554330251 513.802126085124655 83.486512361630957 513.613021048918199 86.160609732494777 513.115269250928577 88.610349052500169 512.231430794422522 90.760539249954491 511.114162521803337 92.608931114225015 509.68708407111717 94.156637084856811 508.024301490903781 95.249940013447485 506.050597449892848 95.966254308359566 503.993741854656946 96.225866145078726"/>
    <polyline class="cls-2" points="484.278378896481627 48.51290825169508 486.107438711173927 48.33301062513965 488.093651861537182 48.456048102852947 490.159605096015184 48.806880975511376 492.231217854431634 49.539200131925099 494.383682365295499 50.575643297278475"/>
    <line class="cls-2" x1="502.41612614859423" y1="56.943358726945917" x2="502.028902333370752" y2="56.56750724997255"/>
    <line class="cls-2" x1="483.739713788695553" y1="48.215658930928839" x2="557.270632923414269" y2="4.302943496008993"/>
    <line class="cls-2" x1="508.553894833427876" y1="94.936744239231302" x2="577.015588601080708" y2="53.999813966756847"/>
    <line class="cls-2" x1="506.594715607293438" y1="55.659923375859762" x2="506.81305817781049" y2="70.310544652724275"/>
    <line class="cls-2" x1="504.053890510102974" y1="54.171352253084478" x2="506.594715607293438" y2="55.659923375859762"/>
    <line class="cls-2" x1="502.579882883675054" y1="67.931311747605832" x2="502.401342725835093" y2="55.951402245459576"/>
    <line class="cls-2" x1="502.579882883675054" y1="67.931311747605832" x2="506.81305817781049" y2="70.310544652724275"/>
    <polyline class="cls-2" points="506.81305817781049 70.310544652724275 506.67751197634152 71.457431904416808 506.313057940386898 72.60767887828024 505.641068425374215 73.609870541309647 504.814226533303554 74.461783171255775 503.906532888774564 75.009571792257702 503.069429555570423 75.174685996060362 502.378133093744509 74.879659626363718 501.987524067991217 74.274926574483288 501.821246833508667 73.361521272465325"/>
    <polyline class="cls-2" points="501.780307649735732 70.614533017297617 502.225638540906402 69.768357918823313 502.440924826493756 68.849266062060451 502.579882883675054 67.931311747605832"/>
    <line class="cls-2" x1="501.821246833508667" y1="73.361521272465325" x2="501.601766720678825" y2="58.63457176718839"/>
    <polyline class="cls-2" points="501.601766720678825 58.63457176718839 501.738476338433429 57.564012358288892 502.102930374386233 56.413765384422732 502.773756473109643 55.335245878601199 503.600625010371914 54.483384611000474 504.508318654902723 53.935595989998546 505.346532885229863 53.846758652244716 506.03671767871765 54.065456407943202 506.427327475684251 54.67024120777296 506.594715607293438 55.659923375859762"/>
    <line class="cls-2" x1="491.282449767361868" y1="52.453628652254338" x2="508.151873631121816" y2="42.356588717597333"/>
    <line class="cls-2" x1="496.029775973239339" y1="84.209294797204166" x2="512.824035024886143" y2="74.189720247642072"/>
    <polyline class="cls-2" points="508.151873631121816 42.356588717597333 512.385074799230097 44.735821237097298 512.824035024886143 74.189720247642072"/>
    <polyline class="cls-2" points="493.993868889784608 116.60034035940771 495.049644490317405 115.745067621686758 495.793361473354707 114.436503895893111 496.304759537396421 112.902418702937211 496.430071714135011 111.068836135409583"/>
    <line class="cls-2" x1="496.430071714135011" y1="111.068836135409583" x2="491.361957629805147" y2="114.120924037868463"/>
    <polyline class="cls-2" points="491.361957629805147 114.120924037868463 491.235508681970714 115.87823012496483 490.800412586745551 117.41115228722083 490.055558447004842 118.643413658608551 489.076085586498266 119.497575113584389 487.86315626468695 120.049886873030118 486.491936836123386 120.222987047742208"/>
    <line class="cls-2" x1="488.925755191062308" y1="119.652454135841253" x2="493.993868889784608" y2="116.60034035940771"/>
    <line class="cls-2" x1="496.029775973239339" y1="84.209294797204166" x2="496.430071714135011" y2="111.068836135409583"/>
    <polyline class="cls-2" points="491.361957629805147 114.120924037868463 490.522702048853716 57.807509563096573 512.385074799230097 44.735821237097298"/>
    <line class="cls-2" x1="461.267470669327849" y1="35.728409161984018" x2="491.282449767361868" y2="52.453628652254338"/>
    <line class="cls-2" x1="490.522702048853716" y1="57.807509563096573" x2="456.198219428294578" y2="38.704194710018783"/>
    <line class="cls-2" x1="470.532725959466006" y1="119.697613020836798" x2="486.491936836123386" y2="120.222987047742208"/>
    <polyline class="cls-2" points="461.267470669327849 35.728409161984018 456.198219428294578 38.704194710018783 441.427261773446844 71.819269634888769"/>
    <polyline class="cls-2" points="441.427261773446844 71.819269634888769 440.622000370381102 74.120953258480768 440.124248572389661 76.570692578484341 439.859978338462497 79.322229460464769 439.903191835644066 82.22182242447343 440.330192189564514 85.268386061768069 440.98839940853486 88.464116678222126 441.951841919174512 91.655298282255899 443.144191493093786 94.843068416150345"/>
    <polyline class="cls-2" points="450.503398448666303 107.250249175380304 452.832374989963682 109.886844706552438 455.310518510415022 112.292233372676492 457.861578403545536 114.467551559246203 460.406952513153556 116.261357973682607 463.022942808066546 117.672489585324001 465.633247319451584 118.702109424848459 468.162700463996771 119.427631129412475 470.532725959466006 119.697613020836798"/>
    <polyline class="cls-2" points="477.973468392664472 101.727254285935487 477.831098865363856 102.416301537106847 477.456384159498157 102.879801832779776 476.847076606832161 102.965201826449629 476.154643759521605 102.593924850265466 475.458799056491443 101.993714936843389 474.912147206586269 101.162297772751117 474.593291522834079 100.251192272504341 474.580782413487213 99.411840499873506 474.878031348648619 98.873149518105492 475.408762233480047 98.636281972298093 476.096646453973335 98.702349530782158 476.791353614696163 99.226231215807275 477.413170662316588 99.980208868770205 477.80835457446392 100.890176826695097 477.973468392664472 101.727254285935487"/>
    <polyline class="cls-2" points="450.104020709272845 90.694239855401065 449.532350640670302 88.184119146057128 449.344492917181014 85.820942850389656 449.464118924789545 83.60582263676406 449.892391308577317 81.615034599994942 450.707861633615721 80.000098425819488 451.756814293922616 78.687011561566578 453.116661769848179 77.750861968633217 454.712240020478021 77.269166780101841 456.466134251843869 77.166682790684717 458.380594445813585 77.596118590759943 460.375904849804101 78.329574903878893 462.378038965230189 79.520897091488223 464.385859249786336 81.093756925199159 466.321925806735635 82.972963333302687 468.032497156134013 85.084514148769813 469.593849007204881 87.427220852541723 470.928568494026877 89.925969609254025 471.959215719852182 92.505569347218625 472.759792851728889 95.012278586455068 473.178858211481383 97.524673609231286 473.214111226126079 99.890124218300116 473.01588306231406 101.953803139367665 472.433894301341752 103.870536875532707 471.540958205595416 105.410282363625811 470.337126908633763 106.573064706408331 468.897565222569938 107.281418518794453 467.223384430134502 107.611646540795846 465.390913145321065 107.562637104087116 463.475316180264599 107.056924823566078 461.47659392055084 106.094535573205576 459.395883137288365 104.751745833444147 457.463228050452926 103.101446488604779"/>
    <polyline class="cls-2" points="462.710676945021078 76.23408031224335 462.568307032114717 76.923101689458235 462.192455555147717 77.310325504681714 461.583147616881433 77.395699624360532 460.891851926270647 77.100725002614126 460.19600760884623 76.500540963150343 459.648218602241286 75.592821444653055 459.329362532883351 74.681690070427976 459.317990965840181 73.918666526181369 459.614102358694254 73.303647316030947 460.144832857916299 73.066753896252521 460.83385500633176 73.209175557101844 461.527425010345723 73.656754887706484 462.149242057969786 74.410732540655772 462.544425584513192 75.320674624617823 462.710676945021078 76.23408031224335"/>
    <polyline class="cls-2" points="448.034792034663951 85.000923512933696 447.892396247784745 85.689945275737045 447.441405061464138 86.154582342507638 446.832097894409344 86.240008210138512 446.139664661493043 85.868705359995147 445.44381957285168 85.268469572582035 444.897168108557707 84.437078282480797 444.578286936440236 83.525999041810792 444.565777055874605 82.686595521233357 444.863051865008856 82.147904153860509 445.392645593140514 81.834734253633542 446.081666970340848 81.977104166538993 446.776374516663964 82.501011725538774 447.398191564284389 83.254989378485334 447.868514800181401 84.087518210899361 448.034792034663951 85.000923512933696"/>
    <polyline class="cls-2" points="463.222418284586638 110.571536997738804 463.080048371683915 111.260558374939137 462.704196894716915 111.647782190162616 462.094889342054557 111.733182183828831 461.403593265836207 111.438181688094119 460.707748562807865 110.83797177467568 460.159959941810484 109.930278130148508 459.841103872448912 109.019146755921611 459.829731919805454 108.256097337703977 460.125843698261633 107.641104001511849 460.65657458309488 107.404236455708087 461.345595960291575 107.546606368623543 462.039166349914922 107.994211573190114 462.66098301193324 108.748163352176562 463.056167309684497 109.658157184090669 463.222418284586638 110.571536997738804"/>
  </g>
  <g>
    <polyline class="cls-2" points="366.422914607782332 121.269063242087213 367.706276235939185 120.649508317748769 369.166629976395598 120.295479076092306 370.715517287221701 120.162708731908424 372.352893151352873 120.295479076092306 374.034535800669801 120.69376009725238 375.804667003291797 121.313315021574454 377.574813211601395 122.154128843398212 379.344959419910992 123.26046834787121 381.11510562822059 124.543829976033521 382.841000057033852 126.048450501681145 384.478375921163206 127.685826365810499 386.071500005799862 129.544476133116405 387.576120531436572 131.491629459413161 388.947985718591553 133.571553129879248 390.231347346750226 135.784232138843436 391.33768685123232 137.996911147820356 392.311256011535988 140.298093715771756 393.063566274356162 142.599291289418034 393.683121198683693 144.856222077882194 394.125653999341921 147.113152866333621 394.346927902514835 149.281580095805111 394.391179682012989 151.361488760598149 394.258424343520346 153.308657092586145 393.948646881356581 155.123055080386621 393.417595516016263 156.804682724019585 392.709537032692424 158.265051470163598 391.824471431385064 159.548413098311357 390.80663548589564 160.610485817605877 389.611792422417238 161.451314645119055"/>
    <polyline class="cls-2" points="394.435431461509324 148.573521612479453 394.346927902514835 146.62635328050419 394.037150440347432 144.634948174703823 393.594617639692842 142.599291289418034 392.975062715363492 140.519367618950128 392.222752452541499 138.439443948469489 391.249168286546592 136.359535283674632 390.187080561560833 134.323863392697604 388.992237498087889 132.376710066400847 387.664639096122301 130.562312078596733 386.248522129474622 128.836417649787109 384.743901603832455 127.243293565148633 383.195029298693953 125.827176598504593 381.601890208375153 124.588081755537132 379.964514344242161 123.570245810038614"/>
    <polyline class="cls-2" points="339.69375187937203 182.427513450778861 341.463898087683447 183.35683083159347 343.278296075490289 184.064889314919128 345.004183001457022 184.507422115568261 346.641566368431995 184.68444423924484 348.234690453068652 184.595925674560931 349.739318481554619 184.286163218084766 351.066916883518388 183.710860073249933 352.306026732182545 182.914298030946156 353.368114457166484 181.852210305958579 354.297431837971999 180.568863683485688 355.005490321295838 179.108494937341675 355.580793466132491 177.471104067522901 355.934822707792591 175.612454300218815 356.067578046283415 173.665300973920239 356.067578046283415 171.541125523950541 355.846304143110501 169.372698294477232 355.403771342454093 167.115767506013071 354.784216418126562 164.814584938058033 353.987654375804595 162.469135584911783 353.014085215506384 160.167953016958563 351.907745711022471 157.911022228492584 350.624384082863799 155.698343219530216 349.252526398558075 153.574167769558699 347.703654093419573 151.627014443263761 346.110522505939116 149.768364675957855 344.428887359468717 148.086722026635471 342.65874115115821 146.582101501002398 340.888602445691504 145.298754878529508 339.074204457889209 144.19241537405469 337.304058249576883 143.351601552232751 335.533919544112905 142.776298407399736 333.808025115299642 142.422269165743273 332.170641748322851 142.28951382725063 330.621769443184348 142.466520945232332 329.20565247653758 142.864801966392406 327.878046571729101 143.528608670218091 326.683203508251609 144.413674271529089 325.665367562763095 145.52001377601664 324.82454623810554 146.891878963169802 324.160747037120927 148.396499488802874 323.673954954126202 150.122393917630689 323.364184994805328 152.025295464423834 323.275673932967948 154.01671557589907"/>
    <polyline class="cls-2" points="323.275673932967948 157.070208406683378 323.319925712464283 155.167306859890232 323.541199615638106 153.352908872073385 323.939480636794542 151.715518002252793 324.514776278784666 150.210897476619721 325.311338321101175 148.971802633637708 326.240663204755037 147.909714908653768 327.347002709236222 147.068901086844562 328.586105055053849 146.449346162506117 329.913710959863238 146.095316920849655 331.37407970600907 146.006813361860623 332.922952011143934 146.139568700353266 334.560335378117998 146.537849721515158 336.197718745095699 147.157404645835413 337.879353891568826 148.042470247146412 339.560989038040134 149.148809751633962 341.198372405013288 150.476423159285332 342.83575577199008 151.981043684918404 344.340376297632247 153.662686334240789 345.80074504377535 155.477069316351844 347.128350948587467 157.42423764833984 348.323201514906032 159.459894533627448 349.3852892398927 161.584069983598965 350.314606620698214 163.752497213074093 351.022665104022053 165.920924442545584 351.597968248856887 168.045099892515282 351.951997490518806 170.169260336799198 352.129004608505966 172.204932227776226 352.129004608505966 174.107833774569372 351.907745711022471 175.922231762386218 351.509464689864217 177.559607626513753 350.889909765531229 179.019976372661404 350.137599502711055 180.303338000809163 349.20827461906083 181.365425725793102 348.101935114576918 182.206239547615041 346.862832768762019 182.825794471938934 345.490975084457205 183.179823713611768 344.030606338312282 183.2683272726008 342.481726530327251 183.135556928415099 340.888602445691504 182.737275907256844 339.206959796378214 182.073484209120579 337.569583932247951 181.188403602118342 335.887941282927386 180.082064097643524 334.206306136456988 178.798717475174271 332.613182051824879 177.29409694953938 331.064302243841666 175.612454300218815 329.648192780038698 173.798056312401968 328.320579372386419 171.850902986119763 327.081484529411682 169.815231095139097 326.019396804425014 167.691070650844267 325.134323700269306 165.52264342138551 324.382013437450951 163.35421619191402 323.850969574956252 161.230040741944322 323.452688553798907 159.105865291972805 323.275673932967948 157.070208406683378"/>
    <line class="cls-2" x1="394.435431461509324" y1="148.573521612479453" x2="394.435431461509324" y2="150.830452400943614"/>
    <line class="cls-2" x1="379.964514344242161" y1="123.570245810038614" x2="378.017346012257804" y2="122.419654526063823"/>
    <line class="cls-2" x1="323.275673932967948" y1="156.27364636436505" x2="323.275673932967948" y2="154.01671557589907"/>
    <line class="cls-2" x1="337.702339270736047" y1="181.321173946304043" x2="339.69375187937203" y2="182.427513450778861"/>
    <polyline class="cls-2" points="331.816612506661841 161.539818204111725 331.860871789001067 160.344975140629685 332.08213818933018 159.282887415645746 332.524670989986589 158.39780680864169 333.099966631974894 157.689748325330584 333.808025115299642 157.247215524666899 334.693098219453532 157.025956627179767 335.622423103105575 157.025956627179767 336.640259048594999 157.291467304168691 337.702339270736047 157.778266890010855 338.764426995721806 158.53057715282921 339.78226294121032 159.415642754140208 340.755839604358698 160.521982258613207 341.596653426173361 161.716825322093428 342.348971191837336 163.044438729742978 342.924266833829279 164.372052137410719 343.322547854986624 165.743902318874461 343.588066034811163 167.071515726525831 343.632317814305679 168.354862348995084 343.499562475819403 169.461201853468083 343.145533234155664 170.434786019464809 342.65874115115821 171.231348061783137 341.994941950176326 171.806651206616152 341.198372405013288 172.160680448274434 340.313299300859398 172.249184007279837 339.295470858214685 172.116428668785375 338.277634912726171 171.76239942711436 337.215554690584213 171.142844502788648 336.153466965598454 170.302030680966709 335.179890302450985 169.328446514989992 334.250565418799852 168.17785523099883 333.453995873635904 166.894493602849252 332.790196672654019 165.566895200874569 332.303404589658385 164.195030013721407 331.949375347994646 162.823164826582797 331.816612506661841 161.539818204111725"/>
    <line class="cls-2" x1="328.099312972053667" y1="143.395853331736362" x2="366.422914607782332" y2="121.269063242087213"/>
    <line class="cls-2" x1="351.288190786691302" y1="183.578104734770022" x2="389.611792422417238" y2="161.451314645119055"/>
  </g>
  <g>
    <line class="cls-3" x1="307.179538450379368" y1="183.566610822997973" x2="423.074283323426243" y2="115.610464582763598"/>
    <polygon class="cls-6" points="422.662021360535618 119.071798811279223 422.275058469910618 116.079123030029223 419.852359495301243 114.280111799560473 426.936588010926243 113.345785627685473 422.662021360535618 119.071798811279223"/>
  </g>
  <polyline class="cls-2" points="349.974131992946241 139.884017729988045 349.912634537537997 139.307664693045808 349.945257730286357 138.782751669192294 350.096301352040427 138.327446168497772 350.323302231271555 137.947883542114141 350.632388519342385 137.686528000582257 351.041728245846571 137.519083362931269 351.48762045606145 137.454735175984752 351.994364930814299 137.511650949822069 352.537660367433091 137.67167809338207 353.099343858047177 137.959097349097647 353.64898747044117 138.313276996321292 354.192716795128035 138.776688964888308 354.678874355467087 139.291757890574445 355.131764571221538 139.876657963701291 355.499719166103205 140.473815378616564 355.78580477666128 141.104454521277148 356.005127434848873 141.723061504997531 356.115220852058883 142.335750081616425 356.128129545429147 142.875766539858887 356.025678285598588 143.367408099738896 355.847269768290971 143.783306785306195 355.56861245145501 144.105301247229363 355.210930201576957 144.330321249095505 354.792398248014251 144.434069570901556 354.294849600198177 144.440849593393068 353.781975935050468 144.341462409242013 353.229488271373157 144.117738949851628 352.66167662938733 143.787855483587919 352.127139531758985 143.388139830860382 351.601578236667592 142.900431681322516 351.130519991326764 142.339827789150149 350.720102224914626 141.748805725390412 350.391547764899769 141.124288053830242 350.126693220595371 140.490577635720911 349.974131992946241 139.884017729988045"/>
  <polyline class="cls-4" points="366.258185018598851 130.537791940276293 366.196687563192427 129.961438903335875 366.229310755938968 129.436525879469627 366.380354377693038 128.981220378784201 366.607355256922347 128.601657752402389 366.916441544993177 128.340302210857772 367.325781271501 128.172857573223155 367.771673481712241 128.108509386276637 368.278417956468729 128.165425160112136 368.821713393087521 128.325452303672137 369.383396883703426 128.612871559373161 369.933040496093781 128.96705120660954 370.476769820778827 129.430463175178375 370.962927381121517 129.945532100864511 371.41581759687233 130.530432173993177 371.783772191755816 131.12758958889026 372.069857802312072 131.758228731565396 372.289180460497846 132.376835715273046 372.399273877711494 132.989524291893758 372.41218257107812 133.529540750148954 372.309731311249379 134.02118231001441 372.131322793941763 134.437080995592623 371.852665477107621 134.75907545751943 371.494983227229568 134.984095459385571 371.076451273668681 135.087843781191623 370.578902625850787 135.094623803681316 370.06602896070126 134.995236619532079 369.513541297023949 134.771513160145332 368.94572965504176 134.441629693876166 368.411192557411596 134.041914041135897 367.885631262322022 133.554205891612582 367.414573016977556 132.993601999438397 367.004155250565418 132.402579935667745 366.675600790550561 131.778062264122127 366.410746246247982 131.144351846009158 366.258185018598851 130.537791940276293"/>
  <g>
    <path class="cls-1" d="M349.553134641785618,70.604788313232348c-1.905792236328125-7.649383544921875-8.720245361328125-13.32940673828125-16.8662109375-13.37445068359375-9.662322998046875-.053436279296875-17.5390625,7.841522216796875-17.59320068359375,17.633819580078125"/>
    <polygon class="cls-5" points="351.920383176941868 68.152029524169848 349.333774290223118 69.706137190185473 346.419498167176243 68.923239240966723 350.084048948426243 75.057608137451098 351.920383176941868 68.152029524169848"/>
  </g>
</svg>