<?xml version="1.0" encoding="UTF-8"?>
<svg id="Layer_1" data-name="Layer 1" xmlns="http://www.w3.org/2000/svg" viewBox="0 0 837.206521739130949 293.189768616294714">
  <defs>
    <style>
      .cls-1 {
        fill: #d2155b;
      }

      .cls-2 {
        stroke: #1d1e1c;
      }

      .cls-2, .cls-3, .cls-4 {
        fill: none;
        stroke-linecap: round;
        stroke-linejoin: round;
      }

      .cls-2, .cls-4 {
        stroke-width: .75px;
      }

      .cls-3 {
        stroke: #000;
        stroke-width: .25px;
      }

      .cls-4 {
        stroke: #d2155b;
      }

      .cls-5 {
        fill: #1d1e1c;
      }
    </style>
  </defs>
  <g>
    <line class="cls-2" x1="432.529538804205913" y1="176.763876997981242" x2="463.611875229987163" y2="176.763876997981242"/>
    <polygon class="cls-5" points="461.505460435065288 179.541220747981242 462.685361558112163 176.763876997981242 461.505460435065288 173.986533247981242 468.089200669440288 176.763876997981242 461.505460435065288 179.541220747981242"/>
  </g>
  <g>
    <line class="cls-4" x1="35.388387375983257" y1="224.572226607356242" x2="19.677205735358257" y2="212.858725630793742"/>
    <polygon class="cls-1" points="23.026021653327007 211.891165816340617 20.419997864874858 213.412528121028117 19.705892258795757 216.344412886653117 16.087718659552593 210.182578169856242 23.026021653327007 211.891165816340617"/>
  </g>
  <g>
    <polyline class="cls-3" points="329.693977099665972 .125 332.244558365066951 1.582404408380171 332.244558365066951 13.242133878356071 2.493374826668514 203.623306643931755 .125 202.165902235553403 .125 123.28061453751161"/>
    <polyline class="cls-3" points="329.693977099665972 .125 .125 123.28061453751161 2.493374826668514 124.738142496627006 2.493374826668514 203.623306643931755"/>
    <line class="cls-3" x1="332.244558365066951" y1="1.582404408380171" x2="2.493374826668514" y2="124.738142496627006"/>
  </g>
  <g>
    <polyline class="cls-3" points="45.969768582518554 234.507172265960435 45.969768582518554 237.357508504191173 56.302222344526854 243.236259038362732 56.302222344526854 240.385983206519995 45.969768582518554 234.507172265960435 373.223461828340078 45.494529847441299 383.555915590352015 51.551479252099853 383.555915590352015 54.401815490331501 56.302222344526854 243.236259038362732"/>
    <line class="cls-3" x1="56.302222344526854" y1="240.385983206519995" x2="383.555915590352015" y2="51.551479252099853"/>
  </g>
  <g>
    <line class="cls-4" x1="359.539914780768413" y1="36.41077336028593" x2="343.828733140143413" y2="24.697241866145305"/>
    <polygon class="cls-1" points="347.177549058112163 23.72968205169218 344.571530991705913 25.25104435637968 343.857419663580913 28.18292912200468 340.239225083502788 22.021094405207805 347.177549058112163 23.72968205169218"/>
  </g>
  <g>
    <polyline class="cls-3" points="455.761599041869886 89.566461972363868 458.312180307272683 91.023866380744039 458.312180307272683 102.683595850719939 128.560996768873338 293.064768616294714 126.192621942205733 291.607364207914543 126.192621942205733 212.722076509876388"/>
    <polyline class="cls-3" points="455.761599041869886 89.566461972363868 126.192621942205733 212.722076509876388 128.560996768873338 214.179604468991784 128.560996768873338 293.064768616294714"/>
    <line class="cls-3" x1="458.312180307272683" y1="91.023866380744039" x2="128.560996768873338" y2="214.179604468991784"/>
  </g>
  <g>
    <line class="cls-4" x1="97.243955308112163" y1="270.709525191340617" x2="81.532773667487163" y2="258.995993697199992"/>
    <polygon class="cls-1" points="84.881589585455913 258.028433882746867 82.275563889655132 259.549796187434367 81.561460190924663 262.481680953059367 77.943288499030132 256.319846236262492 84.881589585455913 258.028433882746867"/>
  </g>
  <g>
    <line class="cls-4" x1="420.718534165534038" y1="84.811133467707805" x2="405.007352524909038" y2="73.097617232356242"/>
    <polygon class="cls-1" points="408.356168442877788 72.130042159114055 405.750119858893413 73.651404463801555 405.036039048346538 76.583289229426555 401.417844468268413 70.42145451262968 408.356168442877788 72.130042159114055"/>
  </g>
  <g>
    <polyline class="cls-3" points="834.79583650441873 50.539132977965892 837.081521739130949 51.845230917865592 837.081521739130949 62.375614418558143"/>
    <line class="cls-3" x1="541.659002574245278" y1="222.45396291961606" x2="837.081521739130949" y2="51.845230917865592"/>
    <polyline class="cls-3" points="541.659002574245278 293.064768616294714 541.659002574245278 222.45396291961606 539.373345019313092 221.147864979718179 834.79583650441873 50.539132977965892"/>
    <polyline class="cls-3" points="837.081521739130949 62.375614418558143 541.659002574245278 293.064768616294714 539.373345019313092 291.758670676395013 539.373345019313092 221.147864979718179"/>
    <polyline class="cls-3" points="822.959355063841031 43.682132633398396 825.245040298547792 45.069830554787586 825.245040298547792 53.396184161811107"/>
    <line class="cls-3" x1="529.822521133671216" y1="215.596962575035832" x2="825.245040298547792" y2="45.069830554787586"/>
    <polyline class="cls-3" points="529.822521133671216 215.596962575035832 527.53683589895536 214.29086463513795 822.959355063841031 43.682132633398396"/>
    <line class="cls-3" x1="529.822521133671216" y1="286.207768271712666" x2="529.822521133671216" y2="286.126140610434049"/>
    <line class="cls-3" x1="529.822521133671216" y1="283.595572391916903" x2="529.822521133671216" y2="215.596962575035832"/>
    <polyline class="cls-3" points="539.373345019313092 291.758670676395013 529.822521133671216 286.207768271712666 527.53683589895536 284.901670331816604 527.53683589895536 214.29086463513795"/>
    <polyline class="cls-3" points="539.373345019313092 291.677043015118215 538.965179033179993 289.391385460195124 529.414355147529022 283.84045537574184 529.822521133671216 286.207768271712666"/>
    <line class="cls-3" x1="824.836874312414693" y1="53.151328857763474" x2="809.571865019765937" y2="65.069410279844305"/>
    <line class="cls-3" x1="539.373345019313092" y1="276.085523077387734" x2="529.414355147529022" y2="283.84045537574184"/>
    <line class="cls-3" x1="827.530725533260011" y1="54.702282101708079" x2="824.836874312414693" y2="53.151328857763474"/>
    <line class="cls-3" x1="538.965179033179993" y1="289.391385460195124" x2="539.373345019313092" y2="289.064847135318814"/>
  </g>
</svg>