<?xml version="1.0" encoding="UTF-8"?>
<svg id="Layer_1" data-name="Layer 1" xmlns="http://www.w3.org/2000/svg" viewBox="0 0 845.738853503183236 337.611464968152177">
  <defs>
    <style>
      .cls-1 {
        fill: #d2155b;
      }

      .cls-2 {
        stroke: #000;
        stroke-width: .25px;
      }

      .cls-2, .cls-3, .cls-4 {
        fill: none;
        stroke-linecap: round;
        stroke-linejoin: round;
      }

      .cls-3 {
        stroke: #1d1e1c;
      }

      .cls-4 {
        stroke: #d2155b;
      }

      .cls-5 {
        fill: #1d1e1c;
      }
    </style>
  </defs>
  <g>
    <polyline class="cls-2" points="267.056106400980752 298.237619367117986 265.736538201438634 297.247831351723107 263.757074036390804 296.917939301848492 262.107501921226685 297.907727317239733 262.107501921226685 299.557187566656467 263.757074036390804 300.546975582047708 265.736538201438634 300.216971666442078 267.056106400980752 298.897403466903597"/>
    <line class="cls-2" x1="267.056106400980752" y1="286.690950158211308" x2="267.056106400980752" y2="298.237619367117986"/>
    <polyline class="cls-2" points="268.705678516139415 298.897403466903597 269.365462615912293 300.216971666442078 271.015034731070955 300.546975582047708 272.664494980496784 300.216971666442078 273.654282995889844 298.897403466903597"/>
    <line class="cls-2" x1="268.705678516139415" y1="298.237619367117986" x2="268.705678516139415" y2="287.020842208089562"/>
    <polyline class="cls-2" points="273.654282995889844 298.237619367117986 272.664494980496784 297.247831351723107 271.015034731070955 296.917939301848492 269.365462615912293 297.247831351723107 268.705678516139415 298.237619367117986"/>
    <line class="cls-2" x1="273.654282995889844" y1="287.680626307871535" x2="273.654282995889844" y2="298.237619367117986"/>
    <polyline class="cls-2" points="275.303743245317492 298.897403466903597 275.963527345088551 300.216971666442078 277.613099460245394 300.546975582047708 279.262671575411332 300.216971666442078 280.252347725067921 298.897403466903597"/>
    <line class="cls-2" x1="275.303743245317492" y1="298.237619367117986" x2="275.303743245317492" y2="287.680626307871535"/>
    <polyline class="cls-2" points="280.252347725067921 298.237619367117986 279.262671575411332 297.247831351723107 277.613099460245394 296.917939301848492 275.963527345088551 297.247831351723107 275.303743245317492 298.237619367117986"/>
    <line class="cls-2" x1="280.252347725067921" y1="288.010518357742512" x2="280.252347725067921" y2="298.237619367117986"/>
    <polyline class="cls-2" points="281.901919840224764 298.897403466903597 282.561703939995823 300.216971666442078 284.211164189423471 300.546975582047708 285.860736304589409 300.216971666442078 286.850412454244179 298.897403466903597"/>
    <line class="cls-2" x1="281.901919840224764" y1="298.237619367117986" x2="281.901919840224764" y2="288.010518357742512"/>
    <polyline class="cls-2" points="286.850412454244179 298.237619367117986 285.860736304589409 297.247831351723107 284.211164189423471 296.917939301848492 282.561703939995823 297.247831351723107 281.901919840224764 298.237619367117986"/>
    <line class="cls-2" x1="286.850412454244179" y1="287.680626307871535" x2="286.850412454244179" y2="298.237619367117986"/>
    <polyline class="cls-2" points="288.499984569397384 298.897403466903597 289.159768669170262 300.216971666442078 290.809340784338019 300.546975582047708 292.458801033765667 300.216971666442078 293.448589049158727 298.897403466903597"/>
    <line class="cls-2" x1="288.499984569397384" y1="298.237619367117986" x2="288.499984569397384" y2="287.680626307871535"/>
    <polyline class="cls-2" points="293.448589049158727 298.237619367117986 292.458801033765667 297.247831351723107 290.809340784338019 296.917939301848492 289.159768669170262 297.247831351723107 288.499984569397384 298.237619367117986"/>
    <line class="cls-2" x1="293.448589049158727" y1="287.020842208089562" x2="293.448589049158727" y2="298.237619367117986"/>
    <line class="cls-2" x1="295.098049298586375" y1="298.237619367117986" x2="295.098049298586375" y2="286.690950158211308"/>
    <polyline class="cls-2" points="295.098049298586375 298.897403466903597 296.08783731397034 300.216971666442078 298.397193528907337 300.546975582047708 299.716761728445817 299.557187566656467 299.716761728445817 297.907727317239733 298.397193528907337 296.917939301848492 296.08783731397034 297.247831351723107 295.098049298586375 298.237619367117986"/>
    <polyline class="cls-2" points="316.871819516893993 289.000194507413653 325.11945636123437 284.711485993156202 332.37741705591452 279.432989463518425 338.645589735205249 273.494708834127778 343.264302165073786 267.226424289091483 346.563334529660096 260.298467510000592 348.212906644824216 253.040506815344088"/>
    <line class="cls-2" x1="244.952444132782148" y1="289.000194507413653" x2="261.777609871342975" y2="289.000194507413653"/>
    <line class="cls-2" x1="300.046653778334985" y1="289.000194507413653" x2="316.871819516893993" y2="289.000194507413653"/>
    <polyline class="cls-2" points="213.611468870584758 253.040506815344088 215.590821169899755 260.298467510000592 218.889965400222536 267.226424289091483 223.508565964352783 273.494708834127778 229.446846593756163 279.432989463518425 236.70480728844359 284.711485993156202 244.952444132782148 289.000194507413653"/>
    <polyline class="cls-2" points="348.212906644824216 253.040506815344088 348.212906644824216 245.452765936500327 348.542798694707926 241.163945556526414"/>
    <polyline class="cls-2" points="213.611468870584758 253.040506815344088 213.611468870584758 245.452765936500327 213.611468870584758 241.163945556526414"/>
    <line class="cls-2" x1="244.952444132782148" y1="280.422665613171375" x2="244.952444132782148" y2="289.000194507413653"/>
    <polyline class="cls-2" points="316.871819516893993 280.422665613171375 326.10924437662743 275.804065049050223 333.696985255458458 269.865672553892182 339.965269800480201 263.267607824715924 344.583870364612267 256.009647130026678 347.553010679314866 248.091902335580926 348.542798694707926 240.174269406866188"/>
    <polyline class="cls-2" points="213.611468870584758 240.174269406866188 214.271252970355818 248.091902335580926 217.240393285058417 256.009647130026678 221.859105714930593 263.267607824715924 228.127278394221321 269.865672553892182 236.045023188670712 275.804065049050223 244.952444132782148 280.422665613171375"/>
    <line class="cls-2" x1="316.871819516893993" y1="289.000194507413653" x2="316.871819516893993" y2="280.422665613171375"/>
    <polyline class="cls-2" points="213.611468870584758 237.535021142061851 214.601145020246804 245.782657986378581 217.570285334947584 253.700402780824334 222.518889814694376 261.288143659664456 229.116954543874272 268.216212304482724 237.694483438098359 274.154492933873371 247.261800347715507 278.773205363725538 257.818793406980149 282.402129778226481 269.365462615912293 284.711485993156202 280.912131824840799 285.37127009291271 292.78880494938403 284.711485993156202 304.005582108423368 282.402129778226481 314.892467217582634 278.773205363725538 324.459672261461492 274.154492933873371 332.707309105803688 268.216212304482724 339.635377750600128 261.288143659664456 344.583870364612267 253.700402780824334 347.553010679314866 245.782657986378581 348.542798694707926 237.535021142061851"/>
    <polyline class="cls-2" points="213.611468870584758 240.174269406866188 214.601145020246804 248.421906251222936 217.570285334947584 256.339539179934036 222.518889814694376 263.927391924505173 229.116954543874272 270.855460569279785 237.694483438098359 276.79374119871045 247.261800347715507 281.412453628566254 257.818793406980149 285.041378043030818 269.365462615912293 287.020842208089562 280.912131824840799 288.010518357742512 292.78880494938403 287.020842208089562 304.005582108423368 285.041378043030818 314.892467217582634 281.412453628566254 324.459672261461492 276.79374119871045 332.707309105803688 270.855460569279785 339.635377750600128 263.927391924505173 344.583870364612267 256.339539179934036 347.553010679314866 248.421906251222936 348.542798694707926 240.174269406866188"/>
    <polyline class="cls-2" points="213.941360920473926 213.451894708820873 213.611468870584758 221.699531553137604 214.931037070128696 229.617276347583356 218.230069434720463 237.535021142061851 223.508565964352783 244.79286997098734 230.436634609151042 251.061154516019997 238.684271453491419 256.669543095539666 248.251476497368458 261.288143659664456 258.478577506751208 264.587176024258042 269.695354665796003 266.566640189302234 280.912131824840799 267.226424289091483 292.458801033765667 266.566640189302234 303.345686142919476 264.587176024258042 313.902679202191393 261.288143659664456 323.469996111806722 256.669543095539666 331.717632956141642 251.061154516019997 338.3156976853179 244.79286997098734 343.594194214957497 237.535021142061851 346.893226579541988 229.617276347583356 348.542798694707926 221.699531553137604 347.883014594935048 213.451894708820873"/>
    <polyline class="cls-2" points="213.611468870584758 237.535021142061851 214.601145020246804 245.782657986378581 217.570285334947584 253.700402780824334 222.518889814694376 261.288143659664456 229.116954543874272 268.216212304482724 237.694483438098359 274.154492933873371 247.261800347715507 278.773205363725538 257.818793406980149 282.402129778226481 269.365462615912293 284.381593943241569 280.912131824840799 285.37127009291271 292.78880494938403 284.381593943241569 304.005582108423368 282.402129778226481 314.892467217582634 278.773205363725538 324.459672261461492 274.154492933873371 332.707309105803688 268.216212304482724 339.635377750600128 261.288143659664456 344.583870364612267 253.700402780824334 347.553010679314866 245.782657986378581 348.542798694707926 237.535021142061851"/>
    <polyline class="cls-2" points="213.941360920473926 212.132214643518637 214.931037070128696 220.379851487871747 217.900177384831295 228.2975962823175 222.848781864579905 235.555556977014021 229.776850509376345 242.483513756064895 238.024487353718541 248.421906251222936 247.591692397597399 253.040506815344088 258.148685456869316 256.669543095539666 269.365462615912293 258.648895394863757 280.912131824840799 259.308791360376745 292.78880494938403 258.648895394863757 304.005582108423368 256.669543095539666 314.562463301962453 253.040506815344088 324.1297802115796 248.421906251222936 332.37741705591452 242.483513756064895 338.975481785090778 235.555556977014021 343.924086264841208 228.2975962823175 346.893226579541988 220.379851487871747 347.883014594935048 212.132214643518637"/>
    <polyline class="cls-2" points="213.611468870584758 170.564138371936679 214.601145020246804 162.316501527614491 217.570285334947584 154.398756733135997 222.518889814694376 146.811015854333164 229.116954543874272 139.882947209514896 237.694483438098359 133.944666580123339 247.261800347715507 129.325954150270263 257.818793406980149 125.69702973576932 269.365462615912293 123.717565570718762 280.912131824840799 123.057781470968621 292.78880494938403 123.717565570718762 304.005582108423368 125.69702973576932 314.892467217582634 129.325954150270263 324.459672261461492 133.944666580123339 332.707309105803688 139.882947209514896 339.635377750600128 146.811015854333164 344.583870364612267 154.398756733135997 347.553010679314866 162.316501527614491 348.542798694707926 170.564138371936679 347.553010679314866 178.811775216291608 344.583870364612267 187.059412060611976 339.635377750600128 194.647264805181294 332.707309105803688 201.245329534357552 324.459672261461492 207.183722029511955 314.892467217582634 212.132214643518637 304.005582108423368 215.431358873835961 292.78880494938403 217.740603223034668 280.912131824840799 218.400499188551294 269.365462615912293 217.740603223034668 257.818793406980149 215.431358873835961 247.261800347715507 212.132214643518637 237.694483438098359 207.183722029511955 229.116954543874272 201.245329534357552 222.518889814694376 194.647264805181294 217.570285334947584 187.059412060611976 214.601145020246804 178.811775216291608 213.611468870584758 170.564138371936679"/>
    <polyline class="cls-2" points="213.611468870584758 204.544473764673057 214.601145020246804 212.792110609035262 217.570285334947584 220.709855403473739 222.518889814694376 228.2975962823175 229.116954543874272 235.225664927092112 237.694483438098359 241.163945556526414 247.261800347715507 245.782657986378581 257.818793406980149 249.411582400846783 269.365462615912293 251.391046565894612 280.912131824840799 252.380722715558477 292.78880494938403 251.391046565894612 304.005582108423368 249.411582400846783 314.892467217582634 245.782657986378581 324.459672261461492 241.163945556526414 332.707309105803688 235.225664927092112 339.635377750600128 228.2975962823175 344.583870364612267 220.709855403473739 347.553010679314866 212.792110609035262 348.542798694707926 204.544473764673057"/>
    <polyline class="cls-2" points="214.931037070128696 169.57446222231647 215.920825085519937 177.822099066629562 218.889965400222536 185.409951811197061 223.838458014234675 192.997692690037184 230.436634609151042 199.595869284944456 238.684271453491419 205.204257864465944 247.921584447481109 209.822970294318111 258.478577506751208 213.451894708820873 269.695354665796003 215.431358873835961 280.912131824840799 216.091142973621572 292.458801033765667 215.431358873835961 303.675578192808644 213.451894708820873 313.902679202191393 209.822970294318111 323.469996111806722 205.204257864465944 331.387740906259751 199.595869284944456 337.985805635436009 192.997692690037184 342.934410115184619 185.409951811197061 345.903550429889037 177.822099066629562 346.893226579541988 169.57446222231647 345.903550429889037 161.32682537796245 342.934410115184619 153.738972633390404 337.985805635436009 146.151119888822905 331.387740906259751 139.553055159639371 323.469996111806722 133.944666580123339 313.902679202191393 128.996062100360177 303.675578192808644 125.69702973576932 292.458801033765667 123.717565570718762 280.912131824840799 123.057781470968621 269.695354665796003 123.717565570718762 258.478577506751208 125.69702973576932 247.921584447481109 128.996062100360177 238.684271453491419 133.944666580123339 230.436634609151042 139.553055159639371 223.838458014234675 146.151119888822905 218.889965400222536 153.738972633390404 215.920825085519937 161.32682537796245 214.931037070128696 169.57446222231647"/>
    <polyline class="cls-2" points="326.769028476391213 159.01746916303091 325.779352326738262 160.667041278167744 323.140104061919374 161.656717427836156 320.500855797105942 161.32682537796245 318.52139163206175 160.007145312691136 318.52139163206175 158.027793013367955 320.500855797105942 156.378220898189284 323.140104061919374 156.048328848315577 325.779352326738262 157.038004997976714 326.769028476391213 159.01746916303091"/>
    <polyline class="cls-2" points="277.613099460245394 200.255653384730067 276.623423310592443 202.235117549748793 273.984175045773554 203.224793699410839 271.344926780952846 202.894901649534404 269.365462615912293 201.245329534357552 269.365462615912293 199.265977235077116 271.344926780952846 197.616405119896626 273.984175045773554 197.286513070022011 276.623423310592443 198.276189219685875 277.613099460245394 200.255653384730067"/>
    <polyline class="cls-2" points="251.220616812071057 149.450264119137501 250.230940662418107 151.429616418462501 247.921584447481109 152.419404433852833 244.952444132782148 152.089512383977308 243.302983883347224 150.439940268799546 243.302983883347224 148.460476103747169 244.952444132782148 146.811015854333164 247.921584447481109 146.481123804420349 250.230940662418107 147.470799954085123 251.220616812071057 149.450264119137501"/>
    <polyline class="cls-2" points="288.829876619290189 136.25402279505397 291.139232834219911 136.583914844930405 292.458801033765667 137.9034830444607 292.458801033765667 139.553055159639371 291.139232834219911 140.872623359183308 288.829876619290189 141.532519324691748"/>
    <polyline class="cls-2" points="318.52139163206175 189.698660325454512 317.861607532288872 191.348232440589527 315.552251317355513 192.337908590251573 312.913003052536624 192.008016540380595 311.263430937370686 190.688448340836658 311.263430937370686 188.708984175792466 312.913003052536624 187.389304110521152 315.552251317355513 187.059412060611976 317.861607532288872 188.049200076005036 318.52139163206175 189.698660325454512"/>
    <polyline class="cls-2" points="243.302983883347224 180.131455281561102 242.313195867966897 182.110807580881556 240.003839653028081 182.7707035464 237.694483438098359 182.440811496489005 235.715131138781544 181.12113143121951 235.715131138781544 179.471671181808233 237.694483438098359 177.822099066629562 240.003839653028081 177.492207016754946 242.313195867966897 178.481883166422449 243.302983883347224 180.131455281561102"/>
    <polyline class="cls-2" points="249.901048612528939 169.57446222231647 250.560832712299998 174.852958751921506 253.529973027002598 179.801563231682849 257.818793406980149 184.09027174593848 263.427181986501637 187.71930802613042 270.025246715677895 190.028552375327308 277.283207410365321 191.348232440589527 284.871060154936458 191.348232440589527 292.12890898387468 190.028552375327308 298.727085578789229 187.71930802613042 304.335474158312536 184.09027174593848 308.624182672562711 179.801563231682849 311.263430937370686 174.852958751921506 312.253218952763746 169.57446222231647"/>
    <polyline class="cls-2" points="273.324279080269662 144.501659639408899 266.066430251320526 146.481123804420349 259.468253656415072 149.780156169013935 254.519761042395658 154.068864683267748 251.220616812071057 159.01746916303091 249.901048612528939 164.625857742544213 250.230940662418107 169.904354272183809 252.870188927229719 175.182850801828863 256.829005391590727 179.801563231682849 262.767397886737854 183.76037969601839 269.365462615912293 186.399627960860926 276.953315360470697 187.71930802613042 284.871060154936458 187.71930802613042 292.458801033765667 186.399627960860926 299.386869678563926 183.76037969601839 304.995258258085414 179.801563231682849 309.284078638061146 175.182850801828863 311.593322987261672 169.904354272183809 312.253218952763746 164.625857742544213 310.603646837605083 159.01746916303091 307.304614473015135 154.068864683267748 302.356009993264706 149.780156169013935 296.08783731397034 146.481123804420349 288.829876619290189 144.501659639408899"/>
    <polyline class="cls-2" points="288.829876619290189 159.01746916303091 291.799016933992789 161.656717427836156 293.448589049158727 164.625857742544213 293.11869699926774 167.92489010713598 291.139232834219911 170.894030421851312 287.84020046963542 173.203386636777395 283.22148803977052 174.523066702043252 278.602775609905621 174.523066702043252 274.314067095660903 173.203386636777395 271.015034731070955 170.894030421851312 269.035570566023125 167.92489010713598 268.705678516139415 164.625857742544213 270.025246715677895 161.656717427836156 273.324279080269662 159.01746916303091"/>
    <polyline class="cls-2" points="293.448589049158727 166.605321907599318 292.12890898387468 163.306289543007551 288.829876619290189 160.33714922829131"/>
    <polyline class="cls-2" points="273.324279080269662 160.33714922829131 270.025246715677895 163.306289543007551 268.705678516139415 166.605321907599318"/>
    <polyline class="cls-2" points="273.324279080269662 167.265106007352188 273.984175045773554 169.904354272183809 276.293531260710552 171.55392638732792 279.262671575411332 172.873494586899142 282.561703939995823 172.873494586899142 285.860736304589409 171.55392638732792 288.17009251951913 169.904354272183809 288.829876619290189 167.265106007352188"/>
    <polyline class="cls-2" points="287.84020046963542 127.676493900821697 288.829876619290189 130.315742165663323 287.510308419746252 132.954990430462203 284.871060154936458 134.934342729784476 280.912131824840799 135.924130745176626 277.283207410365321 134.934342729784476 274.314067095660903 132.954990430462203 273.324279080269662 130.315742165663323 273.984175045773554 127.676493900821697"/>
    <polyline class="cls-2" points="273.654282995889844 129.655846200147607 274.643959145544613 131.965202415072781 277.283207410365321 133.944666580123339 280.912131824840799 134.60445067987439 284.541168105045472 133.944666580123339 287.18030450412607 131.965202415072781 288.17009251951913 129.655846200147607 287.18030450412607 127.01659793534418 284.541168105045472 125.037245636019179 280.912131824840799 124.377349670506192 277.283207410365321 125.037245636019179 274.643959145544613 127.01659793534418 273.654282995889844 129.655846200147607"/>
    <polyline class="cls-2" points="222.848781864579905 235.555556977014021 229.776850509376345 242.483513756064895 238.024487353718541 248.421906251222936 247.591692397597399 253.040506815344088 258.148685456869316 256.669543095539666 269.365462615912293 258.648895394863757 280.912131824840799 259.308791360376745 292.78880494938403 258.648895394863757 304.005582108423368 256.669543095539666 314.562463301962453 253.040506815344088 324.1297802115796 248.421906251222936 332.37741705591452 242.483513756064895 338.975481785090778 235.555556977014021"/>
    <polyline class="cls-2" points="213.941360920473926 212.132214643518637 214.931037070128696 220.379851487871747 217.900177384831295 228.2975962823175 222.848781864579905 235.555556977014021 229.776850509376345 242.483513756064895 238.024487353718541 248.421906251222936 247.591692397597399 253.040506815344088 258.148685456869316 256.669543095539666 269.365462615912293 258.648895394863757 280.912131824840799 259.308791360376745 292.78880494938403 258.648895394863757 304.005582108423368 256.669543095539666 314.562463301962453 253.040506815344088 324.1297802115796 248.421906251222936 332.37741705591452 242.483513756064895 338.975481785090778 235.555556977014021 343.924086264841208 228.2975962823175 346.893226579541988 220.379851487871747 347.883014594935048 212.132214643518637"/>
    <polyline class="cls-2" points="213.941360920473926 219.39017533821152 214.931037070128696 227.637812182568268 217.900177384831295 235.885449026888637 222.848781864579905 243.14340972158152 229.776850509376345 250.071366500628756 238.024487353718541 255.679755080144787 247.591692397597399 260.628359559911587 258.148685456869316 263.927391924505173 269.365462615912293 266.236748139434894 280.912131824840799 266.89653223917685 292.78880494938403 266.236748139434894 304.005582108423368 263.927391924505173 314.562463301962453 260.628359559911587 324.1297802115796 255.679755080144787 332.37741705591452 250.071366500628756 338.975481785090778 243.14340972158152 343.924086264841208 235.885449026888637 346.893226579541988 227.637812182568268 347.883014594935048 219.39017533821152"/>
    <polyline class="cls-2" points="224.828246029627735 263.927391924505173 231.75620280869316 270.195676469534192 240.003839653028081 275.474061133411851 249.241264512756061 279.76288151339304 259.138361606524086 282.732021828104735 270.025246715677895 284.711485993156202 280.912131824840799 285.37127009291271 292.12890898387468 284.711485993156202 302.685902043148417 282.732021828104735 312.913003052536624 279.76288151339304 322.150316046531771 275.474061133411851 330.397952890866691 270.195676469534192 336.996129485781239 263.927391924505173"/>
    <line class="cls-2" x1="316.871819516893993" y1="280.422665613171375" x2="316.871819516893993" y2="280.422665613171375"/>
    <polyline class="cls-2" points="316.871819516893993 280.422665613171375 324.459672261461492 276.463849148799454 331.387740906259751 271.845136718947288 336.996129485781239 266.566640189302234"/>
    <polyline class="cls-2" points="224.828246029627735 266.566640189302234 230.766526659031115 271.845136718947288 237.364591388209192 276.463849148799454 244.952444132782148 280.422665613171375"/>
    <line class="cls-2" x1="244.952444132782148" y1="280.422665613171375" x2="244.952444132782148" y2="280.422665613171375"/>
    <line class="cls-2" x1="316.871819516893993" y1="280.422665613171375" x2="316.871819516893993" y2="280.422665613171375"/>
    <line class="cls-2" x1="267.056106400980752" y1="298.897403466903597" x2="268.705678516139415" y2="298.897403466903597"/>
    <line class="cls-2" x1="273.654282995889844" y1="298.897403466903597" x2="275.303743245317492" y2="298.897403466903597"/>
    <line class="cls-2" x1="280.252347725067921" y1="298.897403466903597" x2="281.901919840224764" y2="298.897403466903597"/>
    <line class="cls-2" x1="286.850412454244179" y1="298.897403466903597" x2="288.499984569397384" y2="298.897403466903597"/>
    <line class="cls-2" x1="293.448589049158727" y1="298.897403466903597" x2="295.098049298586375" y2="298.897403466903597"/>
    <line class="cls-2" x1="295.098049298586375" y1="298.237619367117986" x2="293.448589049158727" y2="298.237619367117986"/>
    <line class="cls-2" x1="288.499984569397384" y1="298.237619367117986" x2="286.850412454244179" y2="298.237619367117986"/>
    <line class="cls-2" x1="281.901919840224764" y1="298.237619367117986" x2="280.252347725067921" y2="298.237619367117986"/>
    <line class="cls-2" x1="275.303743245317492" y1="298.237619367117986" x2="273.654282995889844" y2="298.237619367117986"/>
    <line class="cls-2" x1="268.705678516139415" y1="298.237619367117986" x2="267.056106400980752" y2="298.237619367117986"/>
    <line class="cls-2" x1="261.777609871342975" y1="298.56751141699624" x2="261.777609871342975" y2="286.031054192691045"/>
    <line class="cls-2" x1="300.046653778334985" y1="298.56751141699624" x2="300.046653778334985" y2="286.031054192691045"/>
    <line class="cls-2" x1="348.542798694707926" y1="240.174269406866188" x2="348.542798694707926" y2="241.163945556526414"/>
    <line class="cls-2" x1="213.611468870584758" y1="240.174269406866188" x2="213.611468870584758" y2="241.163945556526414"/>
    <line class="cls-2" x1="348.542798694707926" y1="237.535021142061851" x2="348.542798694707926" y2="240.174269406866188"/>
    <line class="cls-2" x1="213.611468870584758" y1="237.535021142061851" x2="213.611468870584758" y2="240.174269406866188"/>
    <line class="cls-2" x1="348.542798694707926" y1="219.39017533821152" x2="348.542798694707926" y2="237.535021142061851"/>
    <line class="cls-2" x1="213.611468870584758" y1="219.39017533821152" x2="213.611468870584758" y2="237.535021142061851"/>
    <line class="cls-2" x1="347.883014594935048" y1="210.482754394105541" x2="347.883014594935048" y2="212.132214643518637"/>
    <line class="cls-2" x1="213.941360920473926" y1="210.482754394105541" x2="213.941360920473926" y2="212.132214643518637"/>
    <line class="cls-2" x1="348.542798694707926" y1="170.564138371936679" x2="348.542798694707926" y2="204.544473764673057"/>
    <line class="cls-2" x1="213.611468870584758" y1="170.564138371936679" x2="213.611468870584758" y2="204.544473764673057"/>
    <line class="cls-2" x1="249.901048612528939" y1="169.57446222231647" x2="249.901048612528939" y2="165.945537807815526"/>
    <line class="cls-2" x1="312.253218952763746" y1="169.57446222231647" x2="312.253218952763746" y2="165.945537807815526"/>
    <line class="cls-2" x1="288.829876619290189" y1="130.315742165663323" x2="288.829876619290189" y2="167.265106007352188"/>
    <line class="cls-2" x1="273.324279080269662" y1="130.315742165663323" x2="273.324279080269662" y2="167.265106007352188"/>
    <line class="cls-2" x1="287.510308419746252" y1="127.01659793534418" x2="287.84020046963542" y2="127.676493900821697"/>
    <line class="cls-2" x1="274.643959145544613" y1="127.01659793534418" x2="273.984175045773554" y2="127.676493900821697"/>
    <line class="cls-2" x1="347.883014594935048" y1="212.132214643518637" x2="347.883014594935048" y2="219.39017533821152"/>
    <line class="cls-2" x1="213.941360920473926" y1="212.132214643518637" x2="213.941360920473926" y2="219.39017533821152"/>
  </g>
  <g>
    <g>
      <polyline class="cls-2" points="549.282116238528943 298.608472559727488 547.962548038992281 297.618684544336247 545.983083873940814 297.288792494425252 544.333511758776694 298.278580509809217 544.333511758776694 299.928040759258693 545.983083873940814 300.917828774649934 547.962548038992281 300.587824859011562 549.282116238528943 299.268256659473082"/>
      <line class="cls-2" x1="549.282116238528943" y1="287.061803350780792" x2="549.282116238528943" y2="298.608472559727488"/>
      <polyline class="cls-2" points="550.931688353693062 299.268256659473082 551.59147245346594 300.587824859011562 553.241044568619145 300.917828774649934 554.890504818050431 300.587824859011562 555.880292833439853 299.268256659473082"/>
      <line class="cls-2" x1="550.931688353693062" y1="298.608472559727488" x2="550.931688353693062" y2="287.391695400655408"/>
      <polyline class="cls-2" points="555.880292833439853 298.608472559727488 554.890504818050431 297.618684544336247 553.241044568619145 297.288792494425252 551.59147245346594 297.618684544336247 550.931688353693062 298.608472559727488"/>
      <line class="cls-2" x1="555.880292833439853" y1="288.051479500444657" x2="555.880292833439853" y2="298.608472559727488"/>
      <polyline class="cls-2" points="557.529753082863863 299.268256659473082 558.189537182642198 300.587824859011562 559.839109297797222 300.917828774649934 561.488681412964979 300.587824859011562 562.47835756261793 299.268256659473082"/>
      <line class="cls-2" x1="557.529753082863863" y1="298.608472559727488" x2="557.529753082863863" y2="288.051479500444657"/>
      <polyline class="cls-2" points="562.47835756261793 298.608472559727488 561.488681412964979 297.618684544336247 559.839109297797222 297.288792494425252 558.189537182642198 297.618684544336247 557.529753082863863 298.608472559727488"/>
      <line class="cls-2" x1="562.47835756261793" y1="288.381371550319273" x2="562.47835756261793" y2="298.608472559727488"/>
      <polyline class="cls-2" points="564.127929677774773 299.268256659473082 564.787713777547651 300.587824859011562 566.437174026975299 300.917828774649934 568.086746142139418 300.587824859011562 569.076422291797826 299.268256659473082"/>
      <line class="cls-2" x1="564.127929677774773" y1="298.608472559727488" x2="564.127929677774773" y2="288.381371550319273"/>
      <polyline class="cls-2" points="569.076422291797826 298.608472559727488 568.086746142139418 297.618684544336247 566.437174026975299 297.288792494425252 564.787713777547651 297.618684544336247 564.127929677774773 298.608472559727488"/>
      <line class="cls-2" x1="569.076422291797826" y1="288.051479500444657" x2="569.076422291797826" y2="298.608472559727488"/>
      <polyline class="cls-2" points="570.72599440695285 299.268256659473082 571.385778506731185 300.587824859011562 573.035350621888028 300.917828774649934 574.684810871313857 300.587824859011562 575.674598886705098 299.268256659473082"/>
      <line class="cls-2" x1="570.72599440695285" y1="298.608472559727488" x2="570.72599440695285" y2="288.051479500444657"/>
      <polyline class="cls-2" points="575.674598886705098 298.608472559727488 574.684810871313857 297.618684544336247 573.035350621888028 297.288792494425252 571.385778506731185 297.618684544336247 570.72599440695285 298.608472559727488"/>
      <line class="cls-2" x1="575.674598886705098" y1="287.391695400655408" x2="575.674598886705098" y2="298.608472559727488"/>
      <line class="cls-2" x1="577.324059136136384" y1="298.608472559727488" x2="577.324059136136384" y2="287.061803350780792"/>
      <polyline class="cls-2" points="577.324059136136384 299.268256659473082 578.313847151522168 300.587824859011562 580.623203366459165 300.917828774649934 581.942771565995827 299.928040759258693 581.942771565995827 298.278580509809217 580.623203366459165 297.288792494425252 578.313847151522168 297.618684544336247 577.324059136136384 298.608472559727488"/>
      <polyline class="cls-2" points="599.097829354444002 289.371047699979499 607.34546619878256 285.082339185725687 614.60342689346453 279.803842656087909 620.871599572760715 273.865562026697262 625.490312002627434 267.597277481664605 628.789344367211925 260.669320702610094 630.438916482376044 253.411360007920848"/>
      <line class="cls-2" x1="527.178453970328519" y1="289.371047699979499" x2="544.003619708892984" y2="289.371047699979499"/>
      <line class="cls-2" x1="582.272663615886813" y1="289.371047699979499" x2="599.097829354444002" y2="289.371047699979499"/>
      <polyline class="cls-2" points="495.837478708134768 253.411360007920848 497.816831007451583 260.669320702610094 501.115975237776183 267.597277481664605 505.734575801904612 273.865562026697262 511.672856431307991 279.803842656087909 518.930817125993599 285.082339185725687 527.178453970328519 289.371047699979499"/>
      <polyline class="cls-2" points="630.438916482376044 253.411360007920848 630.438916482376044 245.82361912907345 630.768808532257935 241.534798749095899"/>
      <polyline class="cls-2" points="495.837478708134768 253.411360007920848 495.837478708134768 245.82361912907345 495.837478708134768 241.534798749095899"/>
      <line class="cls-2" x1="527.178453970328519" y1="280.793518805748135" x2="527.178453970328519" y2="289.371047699979499"/>
      <polyline class="cls-2" points="599.097829354444002 280.793518805748135 608.335254214177439 276.174918241630621 615.922995093008467 270.236525746505322 622.191279638041124 263.638461017321788 626.809880202167733 256.380500322632543 629.779020516864875 248.462755528190428 630.768808532257935 240.545122599468414"/>
      <polyline class="cls-2" points="495.837478708134768 240.545122599468414 496.497262807907646 248.462755528190428 499.466403122608426 256.380500322632543 504.085115552473326 263.638461017321788 510.353288231773149 270.236525746505322 518.271033026220721 276.174918241630621 527.178453970328519 280.793518805748135"/>
      <line class="cls-2" x1="599.097829354444002" y1="289.371047699979499" x2="599.097829354444002" y2="280.793518805748135"/>
      <polyline class="cls-2" points="495.837478708134768 237.905874334634973 496.827154857794994 246.153511178991721 499.796295172495775 254.071255973430198 504.744899652246204 261.658996852273958 511.342964381422462 268.587065497055846 519.920493275648369 274.525346126482873 529.487810185263697 279.14405855633504 540.044803244528339 282.772982970803241 551.59147245346594 285.082339185725687 563.138141662392627 285.742123285518574 575.014814786937677 285.082339185725687 586.231591945973378 282.772982970803241 597.118477055134463 279.14405855633504 606.685682099011501 274.525346126482873 614.933318943355516 268.587065497055846 621.861387588153775 261.658996852273958 626.809880202167733 254.071255973430198 629.779020516864875 246.153511178991721 630.768808532257935 237.905874334634973"/>
      <polyline class="cls-2" points="495.837478708134768 240.545122599468414 496.827154857794994 248.792759443788782 499.796295172495775 256.71039237250352 504.744899652246204 264.298245117074657 511.342964381422462 271.226313761889287 519.920493275648369 277.164594391283572 529.487810185263697 281.783306821139377 540.044803244528339 285.412231235643958 551.59147245346594 287.391695400655408 563.138141662392627 288.381371550319273 575.014814786937677 287.391695400655408 586.231591945973378 285.412231235643958 597.118477055134463 281.783306821139377 606.685682099011501 277.164594391283572 614.933318943355516 271.226313761889287 621.861387588153775 264.298245117074657 626.809880202167733 256.71039237250352 629.779020516864875 248.792759443788782 630.768808532257935 240.545122599468414"/>
      <polyline class="cls-2" points="496.167370758022116 213.822747901390358 495.837478708134768 222.070384745743468 497.157046907675067 229.98812954018922 500.456079272270472 237.905874334634973 505.734575801904612 245.16372316360048 512.662644446699233 251.432007708629499 520.910281291041429 257.040396288141892 530.477486334920286 261.658996852273958 540.704587344303036 264.958029216867544 551.921364503346012 266.937493381915374 563.138141662392627 267.597277481664605 574.684810871313857 266.937493381915374 585.571695980471304 264.958029216867544 596.128689039743222 261.658996852273958 605.69600594935855 257.040396288141892 613.943642793693471 251.432007708629499 620.541707522869729 245.16372316360048 625.820204052507506 237.905874334634973 629.119236417090178 229.98812954018922 630.768808532257935 222.070384745743468 630.109024432485057 213.822747901390358"/>
      <polyline class="cls-2" points="495.837478708134768 237.905874334634973 496.827154857794994 246.153511178991721 499.796295172495775 254.071255973430198 504.744899652246204 261.658996852273958 511.342964381422462 268.587065497055846 519.920493275648369 274.525346126482873 529.487810185263697 279.14405855633504 540.044803244528339 282.772982970803241 551.59147245346594 284.752447135851071 563.138141662392627 285.742123285518574 575.014814786937677 284.752447135851071 586.231591945973378 282.772982970803241 597.118477055134463 279.14405855633504 606.685682099011501 274.525346126482873 614.933318943355516 268.587065497055846 621.861387588153775 261.658996852273958 626.809880202167733 254.071255973430198 629.779020516864875 246.153511178991721 630.768808532257935 237.905874334634973"/>
      <polyline class="cls-2" points="496.167370758022116 212.503067836120863 497.157046907675067 220.750704680444869 500.126187222383123 228.668449474923364 505.074791702133552 235.926410169579867 512.002860346928173 242.854366948670759 520.25049719127037 248.792759443788782 529.817702235147408 253.411360007920848 540.374695294419325 257.040396288141892 551.59147245346594 259.019748587433241 563.138141662392627 259.679644552953505 575.014814786937677 259.019748587433241 586.231591945973378 257.040396288141892 596.788473139512462 253.411360007920848 606.35579004912961 248.792759443788782 614.60342689346453 242.854366948670759 621.201491622642607 235.926410169579867 626.150096102391217 228.668449474923364 629.119236417090178 220.750704680444869 630.109024432485057 212.503067836120863"/>
      <polyline class="cls-2" points="495.837478708134768 170.934991564546181 496.827154857794994 162.687354720193071 499.796295172495775 154.769609925747318 504.744899652246204 147.181869046908105 511.342964381422462 140.253800402125307 519.920493275648369 134.315519772697371 529.487810185263697 129.696807342841566 540.044803244528339 126.067882928377912 551.59147245346594 124.088418763323716 563.138141662392627 123.428634663539924 575.014814786937677 124.088418763323716 586.231591945973378 126.067882928377912 597.118477055134463 129.696807342841566 606.685682099011501 134.315519772697371 614.933318943355516 140.253800402125307 621.861387588153775 147.181869046908105 626.809880202167733 154.769609925747318 629.779020516864875 162.687354720193071 630.768808532257935 170.934991564546181 629.779020516864875 179.182628408866549 626.809880202167733 187.430265253223297 621.861387588153775 195.018117997790796 614.933318943355516 201.616182726967054 606.685682099011501 207.554575222088715 597.118477055134463 212.503067836120863 586.231591945973378 215.802212066445463 575.014814786937677 218.11145641564417 563.138141662392627 218.771352381160796 551.59147245346594 218.11145641564417 540.044803244528339 215.802212066445463 529.487810185263697 212.503067836120863 519.920493275648369 207.554575222088715 511.342964381422462 201.616182726967054 504.744899652246204 195.018117997790796 499.796295172495775 187.430265253223297 496.827154857794994 179.182628408866549 495.837478708134768 170.934991564546181"/>
      <polyline class="cls-2" points="495.837478708134768 204.915326957284378 496.827154857794994 213.162963801604747 499.796295172495775 221.080708596086879 504.744899652246204 228.668449474923364 511.342964381422462 235.59651811970889 519.920493275648369 241.534798749095899 529.487810185263697 246.153511178991721 540.044803244528339 249.782435593449009 551.59147245346594 251.761899758507752 563.138141662392627 252.751575908167979 575.014814786937677 251.761899758507752 586.231591945973378 249.782435593449009 597.118477055134463 246.153511178991721 606.685682099011501 241.534798749095899 614.933318943355516 235.59651811970889 621.861387588153775 228.668449474923364 626.809880202167733 221.080708596086879 629.779020516864875 213.162963801604747 630.768808532257935 204.915326957284378"/>
      <polyline class="cls-2" points="497.157046907675067 169.945315414884135 498.146834923073584 178.192952259239064 501.115975237776183 185.780805003770183 506.064467851786503 193.368545882613944 512.662644446699233 199.966722477521216 520.910281291041429 205.575111057069989 530.147594285032937 210.193823486922156 540.704587344303036 213.822747901390358 551.921364503346012 215.802212066445463 563.138141662392627 216.461996166191057 574.684810871313857 215.802212066445463 585.901588030358653 213.822747901390358 596.128689039743222 210.193823486922156 605.69600594935855 205.575111057069989 613.613750743811579 199.966722477521216 620.211815472986018 193.368545882613944 625.160419952738266 185.780805003770183 628.129560267440866 178.192952259239064 629.119236417090178 169.945315414884135 628.129560267440866 161.697678570529206 625.160419952738266 154.109825825962616 620.211815472986018 146.521973081392389 613.613750743811579 139.923908352249782 605.69600594935855 134.315519772697371 596.128689039743222 129.36691529296786 585.901588030358653 126.067882928377912 574.684810871313857 124.088418763323716 563.138141662392627 123.428634663539924 551.921364503346012 124.088418763323716 540.704587344303036 126.067882928377912 530.147594285032937 129.36691529296786 520.910281291041429 134.315519772697371 512.662644446699233 139.923908352249782 506.064467851786503 146.521973081392389 501.115975237776183 154.109825825962616 498.146834923073584 161.697678570529206 497.157046907675067 169.945315414884135"/>
      <polyline class="cls-2" points="608.995038313943041 159.388322355601304 608.005362164286453 161.037894470779065 605.366113899467564 162.02757062044202 602.726865634655951 161.697678570529206 600.747401469608121 160.37799850526244 600.747401469608121 158.398646205939258 602.726865634655951 156.749074090799695 605.366113899467564 156.41918204092417 608.005362164286453 157.408858190547107 608.995038313943041 159.388322355601304"/>
      <polyline class="cls-2" points="559.839109297797222 200.626506577308646 558.849433148140633 202.605970742354657 556.210184883323564 203.595646892018522 553.570936618504675 203.265754842105707 551.59147245346594 201.616182726967054 551.59147245346594 199.636830427646601 553.570936618504675 197.987258312509766 556.210184883323564 197.657366262591495 558.849433148140633 198.647042412251722 559.839109297797222 200.626506577308646"/>
      <polyline class="cls-2" points="533.446626649624704 149.821117311747912 532.456950499968116 151.800469611031076 530.147594285032937 152.790257626420498 527.178453970328519 152.460365576548611 525.52899372090269 150.810793461368121 525.52899372090269 148.831329296356671 527.178453970328519 147.181869046908105 530.147594285032937 146.85197699703167 532.456950499968116 147.841653146694625 533.446626649624704 149.821117311747912"/>
      <polyline class="cls-2" points="571.055886456843837 136.624875987666201 573.365242671773558 136.954768037538997 574.684810871313857 138.274336237071111 574.684810871313857 139.923908352249782 573.365242671773558 141.243476551787353 571.055886456843837 141.903372517260323"/>
      <polyline class="cls-2" points="600.747401469608121 190.069513518020358 600.087617369838881 191.719085633200848 597.778261154907341 192.708761782859256 595.139012890086633 192.378869732953717 593.489440774922514 191.059301533415237 593.489440774922514 189.079837368358312 595.139012890086633 187.760157303090637 597.778261154907341 187.430265253223297 600.087617369838881 188.420053268616357 600.747401469608121 190.069513518020358"/>
      <polyline class="cls-2" points="525.52899372090269 180.502308474168785 524.539205705516906 182.481660773452859 522.229849490581728 183.141556738969484 519.920493275648369 182.811664689094869 517.941140976333372 181.491984623834469 517.941140976333372 179.842524374379536 519.920493275648369 178.192952259239064 522.229849490581728 177.863060209329888 524.539205705516906 178.852736358991933 525.52899372090269 180.502308474168785"/>
      <polyline class="cls-2" points="532.127058450077129 169.945315414884135 532.786842549850007 175.22381194452737 535.755982864554426 180.172416424254152 540.044803244528339 184.461124938504327 545.653191824053465 188.090161218738103 552.251256553227904 190.399405567938629 559.509217247918968 191.719085633200848 567.09706999248283 191.719085633200848 574.354918821428328 190.399405567938629 580.953095416342876 188.090161218738103 586.561483995860726 184.461124938504327 590.850192510109082 180.172416424254152 593.489440774922514 175.22381194452737 594.479228790311936 169.945315414884135"/>
      <polyline class="cls-2" points="555.550288917819671 144.872512831981112 548.292440088870535 146.85197699703167 541.694263493963263 150.151009361626166 536.745770879945667 154.439717875869064 533.446626649624704 159.388322355601304 532.127058450077129 164.996710935115516 532.456950499968116 170.27520746476057 535.09619876477791 175.553703994400166 539.055015229146193 180.172416424254152 544.993407724287863 184.131232888633349 551.59147245346594 186.770481153437686 559.17932519803162 188.090161218738103 567.09706999248283 188.090161218738103 574.684810871313857 186.770481153437686 581.612879516112116 184.131232888633349 587.221268095635423 180.172416424254152 591.510088475612974 175.553703994400166 593.819332824809862 170.27520746476057 594.479228790311936 164.996710935115516 592.829656675156912 159.388322355601304 589.530624310565145 154.439717875869064 584.582019830816535 150.151009361626166 578.313847151522168 146.85197699703167 571.055886456843837 144.872512831981112"/>
      <polyline class="cls-2" points="571.055886456843837 159.388322355601304 574.025026771540979 162.02757062044202 575.674598886705098 164.996710935115516 575.344706836821388 168.295743299705464 573.365242671773558 171.264883614420796 570.066210307187248 173.574239829350518 565.44749787731871 174.893919894656392 560.828785447453811 174.893919894656392 556.54007693321455 173.574239829350518 553.241044568619145 171.264883614420796 551.261580403574953 168.295743299705464 550.931688353693062 164.996710935115516 552.251256553227904 162.02757062044202 555.550288917819671 159.388322355601304"/>
      <polyline class="cls-2" points="575.674598886705098 166.976175100170622 574.354918821428328 163.677142735584312 571.055886456843837 160.708002420901721"/>
      <polyline class="cls-2" points="555.550288917819671 160.708002420901721 552.251256553227904 163.677142735584312 550.931688353693062 166.976175100170622"/>
      <polyline class="cls-2" points="558.519541098260561 171.924779579937422 561.488681412964979 173.24434777947954 564.787713777547651 173.24434777947954 568.086746142139418 171.924779579937422 570.39610235706914 170.27520746476057 571.055886456843837 167.635959199963509"/>
      <polyline class="cls-2" points="570.066210307187248 128.047347093433928 571.055886456843837 130.686595358232807 569.736318257299899 133.325843623071705 567.09706999248283 135.305195922361236 563.138141662392627 136.29498393774611 559.509217247918968 135.305195922361236"/>
      <polyline class="cls-2" points="559.509217247918968 134.315519772697371 563.138141662392627 134.97530387248662 566.767177942595481 134.315519772697371 569.406314341679717 132.336055607683193 570.39610235706914 130.026699392714363 569.852844799000195 127.306232441340399 567.213708399919597 125.32688014201176 563.138141662392627 124.748202863114784 559.02276699111917 125.32688014201176 556.3835187263021 127.306232441340399"/>
      <polyline class="cls-2" points="505.074791702133552 235.926410169579867 512.002860346928173 242.854366948670759 520.25049719127037 248.792759443788782 529.817702235147408 253.411360007920848 540.374695294419325 257.040396288141892 551.59147245346594 259.019748587433241 563.138141662392627 259.679644552953505 575.014814786937677 259.019748587433241 586.231591945973378 257.040396288141892 596.788473139512462 253.411360007920848 606.35579004912961 248.792759443788782 614.60342689346453 242.854366948670759 621.201491622642607 235.926410169579867"/>
      <polyline class="cls-2" points="496.167370758022116 212.503067836120863 497.157046907675067 220.750704680444869 500.126187222383123 228.668449474923364 505.074791702133552 235.926410169579867 512.002860346928173 242.854366948670759 520.25049719127037 248.792759443788782 529.817702235147408 253.411360007920848 540.374695294419325 257.040396288141892 551.59147245346594 259.019748587433241 563.138141662392627 259.679644552953505 575.014814786937677 259.019748587433241 586.231591945973378 257.040396288141892 596.788473139512462 253.411360007920848 606.35579004912961 248.792759443788782 614.60342689346453 242.854366948670759 621.201491622642607 235.926410169579867 626.150096102391217 228.668449474923364 629.119236417090178 220.750704680444869 630.109024432485057 212.503067836120863"/>
      <polyline class="cls-2" points="496.167370758022116 219.761028530813746 497.157046907675067 228.008665375137753 500.126187222383123 236.256302219490863 505.074791702133552 243.514262914151004 512.002860346928173 250.442219693238258 520.25049719127037 256.050608272750651 529.817702235147408 260.999212752488347 540.374695294419325 264.298245117074657 551.59147245346594 266.607601332004378 563.138141662392627 267.26738543178999 575.014814786937677 266.607601332004378 586.231591945973378 264.298245117074657 596.788473139512462 260.999212752488347 606.35579004912961 256.050608272750651 614.60342689346453 250.442219693238258 621.201491622642607 243.514262914151004 626.150096102391217 236.256302219490863 629.119236417090178 228.008665375137753 630.109024432485057 219.761028530813746"/>
      <polyline class="cls-2" points="507.054255867177744 264.298245117074657 513.982212646246808 270.566529662103676 522.229849490581728 275.844914326021353 531.46727435030607 280.133734705995266 541.364371444075914 283.102875020670581 552.251256553227904 285.082339185725687 563.138141662392627 285.742123285518574 574.354918821428328 285.082339185725687 584.911911880696607 283.102875020670581 595.139012890086633 280.133734705995266 604.37632588408178 275.844914326021353 612.6239627284167 270.566529662103676 619.222139323329429 264.298245117074657"/>
      <line class="cls-2" x1="599.097829354444002" y1="280.793518805748135" x2="599.097829354444002" y2="280.793518805748135"/>
      <polyline class="cls-2" points="599.097829354444002 280.793518805748135 606.685682099011501 276.834702341405318 613.613750743811579 272.215989911516772 619.222139323329429 266.937493381915374"/>
      <polyline class="cls-2" points="507.054255867177744 266.937493381915374 512.992536496584762 272.215989911516772 519.590601225757382 276.834702341405318 527.178453970328519 280.793518805748135"/>
      <line class="cls-2" x1="527.178453970328519" y1="280.793518805748135" x2="527.178453970328519" y2="280.793518805748135"/>
      <line class="cls-2" x1="599.097829354444002" y1="280.793518805748135" x2="599.097829354444002" y2="280.793518805748135"/>
      <line class="cls-2" x1="549.282116238528943" y1="299.268256659473082" x2="550.931688353693062" y2="299.268256659473082"/>
      <line class="cls-2" x1="555.880292833439853" y1="299.268256659473082" x2="557.529753082863863" y2="299.268256659473082"/>
      <line class="cls-2" x1="562.47835756261793" y1="299.268256659473082" x2="564.127929677774773" y2="299.268256659473082"/>
      <line class="cls-2" x1="569.076422291797826" y1="299.268256659473082" x2="570.72599440695285" y2="299.268256659473082"/>
      <line class="cls-2" x1="575.674598886705098" y1="299.268256659473082" x2="577.324059136136384" y2="299.268256659473082"/>
      <line class="cls-2" x1="577.324059136136384" y1="298.608472559727488" x2="575.674598886705098" y2="298.608472559727488"/>
      <line class="cls-2" x1="570.72599440695285" y1="298.608472559727488" x2="569.076422291797826" y2="298.608472559727488"/>
      <line class="cls-2" x1="564.127929677774773" y1="298.608472559727488" x2="562.47835756261793" y2="298.608472559727488"/>
      <line class="cls-2" x1="557.529753082863863" y1="298.608472559727488" x2="555.880292833439853" y2="298.608472559727488"/>
      <line class="cls-2" x1="550.931688353693062" y1="298.608472559727488" x2="549.282116238528943" y2="298.608472559727488"/>
      <line class="cls-2" x1="544.003619708892984" y1="298.938364609602104" x2="544.003619708892984" y2="286.401907385264167"/>
      <line class="cls-2" x1="582.272663615886813" y1="298.938364609602104" x2="582.272663615886813" y2="286.401907385264167"/>
      <line class="cls-2" x1="630.768808532257935" y1="240.545122599468414" x2="630.768808532257935" y2="241.534798749095899"/>
      <line class="cls-2" x1="495.837478708134768" y1="240.545122599468414" x2="495.837478708134768" y2="241.534798749095899"/>
      <line class="cls-2" x1="630.768808532257935" y1="237.905874334634973" x2="630.768808532257935" y2="240.545122599468414"/>
      <line class="cls-2" x1="495.837478708134768" y1="237.905874334634973" x2="495.837478708134768" y2="240.545122599468414"/>
      <line class="cls-2" x1="630.768808532257935" y1="219.761028530813746" x2="630.768808532257935" y2="237.905874334634973"/>
      <line class="cls-2" x1="495.837478708134768" y1="219.761028530813746" x2="495.837478708134768" y2="237.905874334634973"/>
      <line class="cls-2" x1="630.109024432485057" y1="210.853607586675025" x2="630.109024432485057" y2="212.503067836120863"/>
      <line class="cls-2" x1="496.167370758022116" y1="210.853607586675025" x2="496.167370758022116" y2="212.503067836120863"/>
      <line class="cls-2" x1="630.768808532257935" y1="170.934991564546181" x2="630.768808532257935" y2="204.915326957284378"/>
      <line class="cls-2" x1="495.837478708134768" y1="170.934991564546181" x2="495.837478708134768" y2="204.915326957284378"/>
      <line class="cls-2" x1="532.127058450077129" y1="169.945315414884135" x2="532.127058450077129" y2="166.316391000417752"/>
      <line class="cls-2" x1="594.479228790311936" y1="169.945315414884135" x2="594.479228790311936" y2="166.316391000417752"/>
      <line class="cls-2" x1="571.055886456843837" y1="130.686595358232807" x2="571.055886456843837" y2="167.635959199963509"/>
      <line class="cls-2" x1="569.736318257299899" y1="127.387451127918212" x2="570.066210307187248" y2="128.047347093433928"/>
      <line class="cls-2" x1="630.109024432485057" y1="212.503067836120863" x2="630.109024432485057" y2="219.761028530813746"/>
      <line class="cls-2" x1="496.167370758022116" y1="212.503067836120863" x2="496.167370758022116" y2="219.761028530813746"/>
    </g>
    <line class="cls-2" x1="559.169444965592447" y1="135.174079372733104" x2="559.169444965592447" y2="172.123443214421968"/>
    <line class="cls-2" x1="556.869968983092804" y1="127.387451127918212" x2="559.169444965592447" y2="135.174079372733104"/>
    <line class="cls-2" x1="555.615914543222061" y1="162.133721689830054" x2="558.229456982148804" y2="171.779737521884272"/>
    <line class="cls-2" x1="556.316951157151379" y1="127.323627756438327" x2="555.489854726968588" y2="161.799596346787439"/>
  </g>
  <g>
    <line class="cls-3" x1="387.353194121343222" y1="206.294195867648341" x2="456.691115263921347" y2="206.294195867648341"/>
    <polygon class="cls-5" points="453.882521513921347 209.997320867648341 455.455763701421347 206.294195867648341 453.882521513921347 202.591070867648341 462.660841826421347 206.294195867648341 453.882521513921347 209.997320867648341"/>
  </g>
  <g>
    <line class="cls-4" x1="283.128340605718222" y1="42.321936346163966" x2="283.128340605718222" y2="99.287680364718653"/>
    <polygon class="cls-1" points="279.425215605718222 96.479086614718653 283.128340605718222 98.052328802218653 286.831465605718222 96.479086614718653 283.128340605718222 105.257406927218653 279.425215605718222 96.479086614718653"/>
  </g>
  <g>
    <path class="cls-5" d="M274.257918242436972,24.808447576632716h-2.07421875v-.74853515625h5.04833984375v.74853515625h-2.083984375v6.06982421875h-.89013671875v-6.06982421875Z"/>
    <path class="cls-5" d="M277.988386992436972,24.150732732882716c.44482421875-.0908203125,1.08251953125-.1416015625,1.689453125-.1416015625.94091796875,0,1.5478515625.171875,1.97265625.55615234375.34375.3037109375.5361328125.76904296875.5361328125,1.294921875,0,.900390625-.56640625,1.49755859375-1.28466796875,1.740234375v.0302734375c.52587890625.18212890625.83935546875.66796875,1.00146484375,1.3759765625.22265625.951171875.38427734375,1.6083984375.52587890625,1.87158203125h-.91064453125c-.11083984375-.1923828125-.2626953125-.77880859375-.455078125-1.62890625-.2021484375-.94091796875-.56640625-1.294921875-1.36572265625-1.3251953125h-.82958984375v2.9541015625h-.8798828125v-6.7275390625ZM278.868269804936972,27.256689764132716h.900390625c.94091796875,0,1.53759765625-.51611328125,1.53759765625-1.294921875,0-.88037109375-.63720703125-1.2646484375-1.56787109375-1.27490234375-.4248046875,0-.728515625.04052734375-.8701171875.0810546875v2.48876953125Z"/>
    <path class="cls-5" d="M284.308211211186972,24.059912420382716v6.818359375h-.8798828125v-6.818359375h.8798828125Z"/>
    <path class="cls-5" d="M291.590926054936972,27.883642889132716c-.05078125-.95068359375-.111328125-2.09423828125-.10107421875-2.94384765625h-.0302734375c-.23291015625.79931640625-.51611328125,1.64892578125-.8603515625,2.58984375l-1.20361328125,3.30810546875h-.66796875l-1.1025390625-3.24755859375c-.32373046875-.9609375-.5966796875-1.8408203125-.7890625-2.650390625h-.02001953125c-.0205078125.849609375-.07080078125,1.9931640625-.1318359375,3.0146484375l-.18212890625,2.923828125h-.83935546875l.47509765625-6.818359375h1.123046875l1.16357421875,3.2978515625c.283203125.83984375.51611328125,1.58837890625.68798828125,2.29638671875h.0302734375c.171875-.68798828125.41455078125-1.4365234375.71826171875-2.29638671875l1.2138671875-3.2978515625h1.123046875l.4248046875,6.818359375h-.85986328125l-.171875-2.99462890625Z"/>
  </g>
</svg>