<?xml version="1.0" encoding="UTF-8"?>
<svg id="Layer_1" data-name="Layer 1" xmlns="http://www.w3.org/2000/svg" viewBox="0 0 861.144927536232899 310.420289855072951">
  <defs>
    <style>
      .cls-1 {
        stroke-dasharray: 3;
      }

      .cls-1, .cls-2, .cls-3, .cls-4, .cls-5 {
        fill: none;
      }

      .cls-1, .cls-2, .cls-3, .cls-5 {
        stroke-width: .75px;
      }

      .cls-1, .cls-2, .cls-5 {
        stroke-miterlimit: 10;
      }

      .cls-1, .cls-5 {
        stroke: #d2155b;
      }

      .cls-2, .cls-3 {
        stroke: #1d1e1c;
      }

      .cls-6 {
        fill: #d2155b;
      }

      .cls-3, .cls-4 {
        stroke-linecap: round;
        stroke-linejoin: round;
      }

      .cls-4 {
        stroke: #000;
        stroke-width: .25px;
      }

      .cls-5 {
        stroke-dasharray: 3 3;
      }

      .cls-7 {
        fill: #1d1e1c;
      }
    </style>
  </defs>
  <g>
    <g>
      <polyline class="cls-4" points="292.062912626999605 160.435973260934588 293.293170355327675 160.437344328697691 294.704356849051692 160.902831968797727 296.064531839499978 161.922854538171123 297.262713817039185 163.487195290291311"/>
      <polyline class="cls-4" points="268.192884599324316 170.653964079269826 269.18086902601317 170.856762235308452 270.249130279303245 171.402489093908116 271.307178248186574 172.059159854045902 272.344844180618566 172.937646663162923 273.251146566976786 174.027732774736251 274.147239131053539 175.22872517973974 274.932425401697401 176.4195077624654 275.475338370706595 177.811717433470221 276.028502232218671 179.09298666507766 276.349640222471862 180.464780153660286 276.570047595598226 181.715416456308049 276.568642381866084 182.945633114407428 276.355634403550539 184.044523834524625 276.052139776359581 184.911392145503669 275.637701247637779 185.768047172082333 275.032117206981638 186.271567135951955"/>
      <polyline class="cls-4" points="267.77985474646357 170.28036483964479 268.849517751355961 169.595912648256672 270.089985301960951 169.486377422585974 271.420898431209025 169.60889875202065 272.922609181911866 170.306412263385027 274.292956386532751 171.215525077205712 275.622501910151186 172.568266526869593 276.820680425561477 174.132644887090464 277.776664317662835 175.898419651742188 278.500591654655182 177.754639995045181 279.002665334561243 179.590474839763374 279.071361271126989 181.274567564084464 278.938626657282839 182.716424594863383 278.483348839456994 184.016704795162696 277.847135331975551 184.852943639319165 276.908794802936427 185.32583067422911 275.779237007889606 185.445538114069677"/>
      <polyline class="cls-4" points="269.979079008530789 169.476167600308145 271.058955297828106 168.680771507385543 272.319801422753699 168.349457840829018 273.660924374277783 168.36107287683717 275.061942115955389 168.937432664396511 276.543233222108938 169.856758762621212 277.882950959905429 171.098590456725105 279.19207337683838 172.673182101349994 280.148019660837235 174.43895340387553 280.993059651406838 176.194514884123237 281.484961117139392 178.141259484405055 281.664529201164441 179.835520960769827 281.52158476504701 181.388284284978909 281.066344555321848 182.68856794740077 280.419880155332976 183.635747230958259 279.481543088420949 184.108596657771159 278.35202290147663 184.228307559741552"/>
      <polyline class="cls-4" points="272.662730125312919 168.269181014225069 273.621490298907702 167.5744813924548 274.892587316337995 167.132227286500893 276.223500445588797 167.254748615939207 277.745630840841841 167.730449540446898 279.115978045461816 168.639562354263944 280.556429862512232 170.002513626202017 281.76482166232563 171.455948084892043 282.720805554425169 173.221722849547405 283.555635722720581 175.088190623225273 284.057709402623914 176.924025467943466 284.237311632619821 178.618328014542385 284.094370658632215 180.171053730654421 283.639089378674726 181.471371539047141 283.00287587119783 182.30761038320361 282.054325519879058 182.891403711543717 280.93501515520984 182.900208320087586"/>
      <polyline class="cls-4" points="275.225306196625752 167.162856753330743 276.305182485923069 166.367460660404504 277.566028610847752 166.036146993847979 278.896979348199238 166.158671785419756 280.308169304053081 166.624121817415471 281.789460410203901 167.543447915640172 283.129215756099256 168.785283071873891 284.327394271505909 170.349661432094763 285.293550377779866 172.004526441190137 286.128380546075277 173.870994214871644 286.630495296210938 175.70679491361534 286.810059918104344 177.401093998084434 286.667115481985093 178.953857322293516 286.222085094537761 180.143234691285215 285.575661764783035 181.090379828875484 284.637321235742093 181.563266863789067 283.507763440698909 181.682974303629635"/>
      <polyline class="cls-4" points="277.898785099236193 166.066779922807655 278.867755095103348 165.261174007607224 280.128601220028941 164.929860341050698 281.469765241787172 164.94144123109163 282.87074191323336 165.517835164618191 284.36224284166201 166.32625496941273 285.701960579451224 167.568086663520262 286.900180165095662 169.132430877766637 287.856126449095427 170.898202180288536 288.701166439661392 172.65376366053988 289.203277727669047 174.489601967395174 289.382842349559724 176.183901051856992 289.239901375572117 177.73662676796539 288.794867525995869 178.926041745057773 288.148406588137732 179.873183420518217 287.210069521222977 180.346032847327479 286.08054587215247 180.465781357402193"/>
      <polyline class="cls-4" points="280.582477286250651 164.859759190753721 281.551447282120535 164.05415327555329 282.701387113616875 163.712629786726211 284.032300242866768 163.835151116160887 285.554434100250546 164.310814432564257 286.924781304871431 165.219927246384941 288.264536650768605 166.46176240261866 289.47292498844854 167.915234469405732 290.428908880550807 169.681009234061094 291.273952333251145 171.436533106211755 291.776026013155388 173.272367950933585 291.955628243148567 174.966670497528867 291.812683807029316 176.519433821741586 291.367615811480391 177.70880772860346 290.721192481725666 178.655952866190091 289.782851952681995 179.128839901103674 288.663541588016415 179.137644509647544"/>
      <polyline class="cls-4" points="283.145012287332975 163.753469075830253 284.113982283202859 162.947863160626184 285.374828408122994 162.616549494073297 286.705779145477209 162.739074285637798 288.116969101328323 163.204524317637151 289.48735391405171 164.113640593587661 290.837319082226713 165.244569456391218 292.035501059761373 166.808910208511406 293.00165716603442 168.463775217606781 293.836487334328922 170.330242991281011 294.348808444612587 172.055175004706143 294.528373066505083 173.749474089175237 294.385432092517476 175.302199805283635 293.94039824293759 176.491614782376018 293.304147127354554 177.327850164402662 292.355600238168336 177.911605884645724 291.236289873499118 177.920410493185955"/>
      <polyline class="cls-4" points="285.828704474347433 162.546448343772681 286.78746118581239 161.851786330106734 287.937404479435827 161.510225233171695 289.278565039064233 161.521843731309673 290.689754994916257 161.987293763309026 292.060139807639644 162.896410039255898 293.399857545434315 164.138241733363429 294.608283491217662 165.591717262280326 295.564229775214699 167.357488564805863 296.409273227917765 169.113012436960162 296.810688044769449 170.827734628100188 296.990252666661945 172.522033712565644 296.958214523974675 174.085006859056193 296.513184136522796 175.274384228047893 295.766026727514145 176.100409787800345 294.938592491901545 176.583506644984482 293.809072304957226 176.703217546958513"/>
      <polyline class="cls-4" points="288.391277083531349 161.440161690975401 289.360247079400324 160.63455577577497 290.621093204321369 160.303242109222083 291.952006333572172 160.425763438656759 293.252327604095626 160.881007110515384 294.733581102149401 161.800329746606621 295.972639976893333 162.921048787135987 297.170821954427083 164.485389539256175 298.137015668801723 166.140258010477737 298.982055659371326 167.895819490729082 299.383432868124146 169.610538219746559 299.563038560250789 171.304803158237519 299.420094124129719 172.857566482450238 299.085932422010046 174.057150211589942 298.338812621102079 174.883179233472219 297.511378385489479 175.366276090659994 296.392068020818442 175.375080699203863"/>
      <polyline class="cls-4" points="297.262713817039185 163.487195290291311 295.81208978581526 162.235153773909587 294.310379035112419 161.53764026254521"/>
      <polyline class="cls-4" points="297.050106386584048 173.086812610091329 297.374024120457761 171.99809410414764 297.395848978740105 170.546064859191574 297.095168241142346 168.952462245882089 296.471940837430338 167.217320410182765 295.495571446752365 165.673399302618236 294.387841972118622 164.341039889402055 293.02770112764756 163.321058390259168 291.747802963801405 162.643964523443174"/>
      <polyline class="cls-4" points="294.477323955125939 174.304005556315133 294.801275834973239 173.215328120609229 294.934010448812842 171.773471089826671 294.522382347555322 170.169692800206576 293.899154943843314 168.43455096451089 292.922789015294256 166.89059224884204 291.82530350891102 165.447367612429844 290.465128518462734 164.427345043056448 289.074361669293467 163.740044816096088"/>
      <polyline class="cls-4" points="291.904575669639598 175.521239572776722 292.33939623481092 174.442768497207908 292.361224555229455 172.990701644154797 291.949599916099032 171.386885746437656 291.326410120491346 169.651747372868158 290.360212943982333 167.996916509743642 289.252521077452911 166.664560558657286 287.902555909281546 165.53363169585009 286.501575775705533 164.957275370424213"/>
      <polyline class="cls-4" points="289.321583415908208 176.849338812434326 289.655707509928106 175.649751621161158 289.788438661640612 174.207932198482922 289.497967746317954 172.503423291743275 288.753624226901593 170.868977927196283 287.787468120629455 169.214112918100909 286.579038712711736 167.760674997281058 285.329807623798843 166.750865712311679 283.939003166525254 166.063562023221493"/>
      <polyline class="cls-4" points="286.748797522323912 178.066569366758813 287.193865517874656 176.877195459896939 287.215693838285915 175.42512860684019 286.814279021432412 173.710406415692887 286.191051617720404 171.975264579993564 285.224892049317532 170.320437178998873 284.006293889357949 168.977871405638325 282.656328721187492 167.84694254283113 281.255348587608751 167.270586217405253"/>
      <polyline class="cls-4" points="284.176049236836661 179.283803383216764 284.621083086415638 178.094388406124381 284.642907944697981 176.642359161164677 284.352437029375324 174.93785025442503 283.618303332236792 173.192498596451514 282.652109617861242 171.537630125222677 281.443717818046935 170.084195666536289 280.083542827598649 169.064173097159255 278.692775978427562 168.376872870202533"/>
      <polyline class="cls-4" points="281.603266805378553 180.500996329444206 282.048334800928387 179.311622422578694 282.070125513242601 177.859552107392119 281.779654597919034 176.155043200652472 281.045517438648858 174.40972915077964 280.079361332374901 172.754864141684266 278.870935386588826 171.301388612767369 277.521007826517234 170.170463212086361 276.130199907117458 169.483197131104134"/>
      <polyline class="cls-4" points="279.141424813324193 181.728440168179986 279.475552369473007 180.528815368806136 279.497377227755351 179.076786123853708 279.20686870433201 177.372273754980597 278.48294482946585 175.51601580357692 277.516788723194622 173.861150794481546 276.308396923380315 172.407716335795158 274.958431755208949 171.276787472987962 273.446511182231006 170.690180255050109"/>
      <polyline class="cls-4" points="276.568642381866084 182.945633114407428 276.902766475885073 181.746045923137899 276.924594796299061 180.29397907008115 276.644333703256052 178.478563869907703 275.910196543982238 176.733249820034871 274.944040437707372 175.078384810939497 273.735614491924025 173.6249092820226 272.274743030321588 172.483770596937575 270.883972719021585 171.796507978081536"/>
      <polyline class="cls-4" points="274.211678356186894 180.603502024322552 273.810301147437713 178.888783295301437 272.854317255339083 177.123008530646075"/>
      <polyline class="cls-4" points="297.262713817039185 163.487195290291311 297.947203616532533 164.556861757312618 298.601060487070754 165.959284712725093 299.113381597354419 167.684216726146587 299.303159503650932 169.267571909081198"/>
      <polyline class="cls-4" points="274.960644988923377 187.047948798056495 274.973631092691903 184.476568118200703 274.563449275397943 181.642539024517646 273.69939485400846 178.878573473027245 272.391677650802194 176.073765170306615 270.831514931782294 173.581293711425133 269.018910159074949 171.401121488278477 267.044349981560117 169.765270910001163"/>
      <polyline class="cls-4" points="259.705181711508885 168.082987409402449 261.419903902657097 167.681572592548946 263.194479813727412 167.844936673221127 265.139815738142715 168.583289473689547 267.15525627498937 169.775480732275355 269.008700336799848 171.512027781708639 270.821305109506284 173.692200004851657 272.270561535096931 176.174461641462585 273.588450952474886 178.868360188623228 274.452542981967781 181.632329202239816 274.872934621536842 184.355452002499987 274.981064633474489 186.82613621119981 274.65574514799755 189.145033767138557 273.917392347528221 191.090369691556589 272.876950133600985 192.67235726886156 271.443935319466618 193.658936481818273"/>
      <line class="cls-4" x1="274.960644988923377" y1="187.047948798056495" x2="274.919805699822973" y2="187.491573971773505"/>
      <line class="cls-4" x1="267.044349981560117" y1="169.765270910001163" x2="266.621106844294445" y2="169.50261557191061"/>
      <polyline class="cls-4" points="150.943697992914167 245.090475429992694 151.168321007236045 242.650461758356869 150.959532132248569 240.058664896078881 150.32750011999542 237.204212695710339 149.231423289472332 234.530733793101717 147.792380148285702 231.937528254963581 146.111101313561448 229.545753267234431 144.267867074026981 227.698299924378261 142.262636359456337 226.395202372358654"/>
      <polyline class="cls-4" points="140.117312706464872 224.184400682382147 142.193978030991275 224.711113110167389 144.320287253164679 225.913510728904839 146.284675216505093 227.660271062738502 148.208186282638962 229.850653108162987 149.869042010685916 232.464278290849506 151.166549391616172 235.379992887000299 152.020393990730554 238.254864731913585 152.541519709555359 241.099107110007935 152.51828617540923 243.781390621160426 152.071850574229757 246.200984648247868 151.22258801820135 248.13614835849603"/>
      <polyline class="cls-4" points="126.418231200705122 219.903328396817415 128.596998210120546 219.320940282211268 131.057469134415442 219.323754171801738 133.688665926091744 219.901515710965214 136.24842810780774 221.255662374363055 138.989160125149283 223.073891464130611 141.557726915409148 225.547348492190395 143.873848189853561 228.333142364096602 146.028014059494126 231.663257880864876 147.839210156337685 235.073684370211595 149.397964199494709 238.79641009529314 150.391976953233097 242.578993002422976 151.063446502988882 246.219999079069567 151.190553337642996 249.699083896882257 150.894454643132121 252.915516838730582 150.185363703860276 255.758354003090972 148.952333156164968 258.217419713652816 147.437598693594737 260.091283420010768 145.419385337385393 261.359528939746269"/>
      <line class="cls-4" x1="139.502889911294915" y1="223.568569211352042" x2="259.705181711508885" y2="168.082987409402449"/>
      <line class="cls-4" x1="151.251815733427065" y1="249.03360852820424" x2="271.443935319466618" y2="193.658936481818273"/>
      <line class="cls-4" x1="118.235832163806663" y1="223.735955749461027" x2="126.418231200705122" y2="219.903328396817415"/>
      <line class="cls-4" x1="137.358140024292879" y1="265.091463283360099" x2="145.419385337385393" y2="261.359528939746269"/>
      <polyline class="cls-4" points="122.750138888476613 235.448454569571368 124.71449270584344 237.19517383317816 126.638037917951806 239.385596948833154 128.298897108124038 241.999184523415352 129.717520604762285 244.814202648417449 130.682271497303191 247.699284315608566 131.193187393853805 250.654432987129439 131.38155662429017 253.468042436264113 131.046023854405576 255.897883893730068 130.186554938236441 257.943916289307708 129.035206430879953 259.515694044331212 127.491285323313605 260.492063435013733 125.66565683873705 260.883268429589407 123.679478163086969 260.588578410942318 121.633408159414103 259.729106032636082 119.537731866197646 258.193951925514739 117.48289139994904 256.215210252777069 115.690672125824676 253.813184372539581 114.150970121586397 251.098866180826917 112.964369034083575 248.193361406953954 112.231640550676275 245.217793090881059 111.932327418711793 242.393970357342369 112.066467246284446 239.721896668464069 112.613636926720574 237.423422219207168 113.563554883667166 235.609408770637856 114.906124119159358 234.390773002579408 116.651438169030371 233.656635843309232 118.557377626180823 233.608400621525107 120.623829666303209 234.246056950837556 122.750138888476613 235.448454569571368"/>
      <polyline class="cls-4" points="137.358140024292879 265.091463283360099 139.265447087072062 263.813007941354044 140.780147403674164 261.939103164758308 142.002964666958178 259.590981355727308 142.712093214334345 256.748147653500382 143.00819190884522 253.531714711652057 142.891257288364613 249.941720138279379 142.219791200741383 246.300676453532105 141.225816055106407 242.518097008528457 139.767755020968252 238.916525007259224 137.855824844870767 235.384978940078327 135.691486761057604 232.165773178862764 133.385575308889202 229.269073013533671 130.806798696356054 226.906522278896773 128.187182794715227 224.987596717980523 125.506304497293968 223.734146525735014 122.885283381926456 223.045437622914505 120.424808995497187 223.042661341417443 118.235832163806663 223.735955749461027"/>
      <polyline class="cls-4" points="137.358140024292879 265.091463283360099 135.269859663753778 265.905873807104399 133.111474690787873 266.266445872724034 130.983760254883236 266.294264912085964 128.876465463529712 266.100271364591208 127.021612725858176 265.593978581357987 125.187183094869397 264.865835603167397 123.484079401858253 263.926089860394313 121.891882002277271 262.996553939895421 119.091292802885619 260.613583560706502 116.553358941579972 257.807370044255549 114.378773427391025 254.699067114343961 112.668270339571791 251.409794348802279 111.210212767564371 247.808184739428725 110.306724270809354 244.257627703555954 109.756374298889568 240.51588754765271 109.871499695642342 236.835409787535355 110.045073598591443 234.949927583039425 110.551366381822845 233.095074845373347 111.16856545848168 231.250431929974184 112.007614730102432 229.426212121260505 113.169173059734021 227.743528072803201 114.542330691820098 226.192207570428764 116.348944745577683 224.792598504610396 118.235832163806663 223.735955749461027"/>
      <polyline class="cls-4" points="122.27025993087409 240.6612384012451 126.588760422195264 247.210597287333258 125.976146850750411 253.86523814978591 121.055239148130568 253.85965144083184 116.636042185657971 247.189176439039329 117.238445934827723 240.645441870016839 122.27025993087409 240.6612384012451"/>
      <line class="cls-4" x1="126.200769865072289" y1="251.425224478142809" x2="121.055239148130568" y2="253.85965144083184"/>
      <line class="cls-4" x1="124.223032858206352" y1="243.749121686611943" x2="116.636042185657971" y2="247.189176439039329"/>
    </g>
    <g>
      <polyline class="cls-4" points="335.747150748090462 134.235674843244851 334.258209354534301 134.816348570324408 332.935235654497774 135.822419864583935 331.972065435353215 137.374297371586181 331.378195972379217 139.370325668112855 331.264557678337042 141.718117537267972 331.446664618063551 144.195699641656574 332.127718299872868 146.821743557736227 333.123101234269598 149.374194302212345 334.432951323067755 151.853064570073002 336.075852585095163 154.054970954480268 337.857893934565254 155.859567413289369 339.677303826913885 157.257485051818549 341.543582711154158 158.147033971396922 343.364318416173774 158.41717715914001 344.926815332129081 158.150863986350487 346.342201203281547 157.255829704973621"/>
      <polyline class="cls-4" points="350.959139064557348 104.875892608100912 353.80591532499966 105.137961412122422 356.707594138108107 105.917767829780132 359.654819304195371 107.316945503812349 362.666306396392429 109.132192673285317 365.630927670438723 111.455774086255587 368.548748903508567 114.287730565669335 371.23522155700357 117.406013475726468 373.782485172143424 120.921599963889093 376.09840338145932 124.723478407243419 378.090564013830772 128.700611792902237 379.758963895514171 132.853034596322686 381.214668167353921 137.088406771049449 382.162000546492891 141.276944429336254 382.813719246203618 145.335773498286471 383.058696522208265 149.357158725952104 382.915723246064772 153.137735747977786 382.394155617475917 156.575870921621572 381.484634262988948 159.773232365075273 380.205808978590539 162.526477494463506 378.557755062684919 164.835543706359203"/>
      <polyline class="cls-4" points="342.961839663793398 105.985281019911781 345.504968684020241 105.091534902005151 348.296911342704334 104.835872439881314 351.143756554055471 105.097947591390039 354.239412230119342 105.998140874141427 357.288267865194939 107.406709223333564 360.392032400432072 109.332946235249437 363.448993720940052 111.76759278906502 366.468517547663396 114.608911815673309 369.247267644198473 117.838184568174256 371.886874479543621 121.464801721728691 374.193430141665885 125.368382758732878 376.268505669881961 129.558208580491737 378.130882414515327 133.831018249004956 379.475593670164926 138.158702342224387 380.616899738511165 142.467661341061103 381.249899691322753 146.729826646401307 381.485517593882832 150.852879992266935 381.333184944291133 154.735125132488974 380.79289539506135 158.376631017982618 379.874014667126175 161.675660579640862 378.585833183027717 164.53053935177104 376.82678307718561 166.931951957617457 374.911127825019321 168.806264402636771 372.524603951113022 170.227110681372324"/>
      <polyline class="cls-4" points="321.965794392676798 116.869162108034288 323.983083287585032 115.004205862719573 326.258614145301181 113.675671502477599 328.801674214622835 112.781919037078296 331.593685824215754 112.526262922447131 334.542164678310655 112.797694273659545 337.536186711627124 113.688531356705425 340.686748114102556 115.106427777634053 343.688806881944402 117.023336717815255 346.745768202454201 119.457983271629018 349.765292029172997 122.299302298237308 352.534682752262597 125.630243168936431 355.183648961055951 129.155192204291779 357.490135672264842 133.058766893806933 359.666913794138964 137.257955262755786 361.427656896029475 141.521408731568954 362.772368151679075 145.849092824788386 363.913674220020766 150.158051823624191 364.546674172835083 154.420217128968034 364.782292075392434 158.543270474831843 364.629959425802554 162.425515615054792 364.089673050317288 166.066987025094022 363.180151695833047 169.264348468554999 361.891967037984614 172.119261716136862 360.23455057488809 174.530030521685148 358.207902306531651 176.49665488519986 355.923012075367296 177.92685736364092 353.389311379493847 178.718941710835679 350.597368720810664 178.974604172964064"/>
      <polyline class="cls-4" points="341.246123593604352 119.054226181192462 338.142362232113555 117.127954693820357 334.991800829638123 115.710058272887181 331.98841942287163 114.920889308040387 329.030581195331251 114.751126075021602 326.330912805940898 115.117812855049124 323.778493363171947 116.113233438643874 321.585946352213796 117.654466582473106 319.651569179408398 119.732149739343186 318.077136563064414 122.355617328480548 316.871935751977617 125.423229359651486 316.146962936081763 128.842639438912556 315.791290876351923 132.706200307695326 315.833004040617197 136.708838660502806 316.364301399779833 140.961641418653016 317.292911858279695 145.353549788789678 318.628263740484726 149.782902000206377 320.287304248717192 154.036992921825004 322.362376603192388 158.226853219040095 324.659576065612782 162.232067898786227 327.289823527508815 165.960353170540657 330.059211076856627 169.291328516691465 333.069375530125399 172.234315661496112 336.126336850635198 174.668962215314423 339.23010138587415 176.595199227228477 342.380590663692601 178.013123776124303 345.383975244203612 178.802258265518503 348.341813471749447 178.972021498536378 351.143181281039688 178.614731741156902 353.593901303902385 177.609914134912287 355.888150908514945 176.078043538281236 357.720825487665934 173.990997834212067 359.295258104010827 171.367530245080161 360.500527866010088 168.299924561394619 361.225431730995297 164.880508134648153 361.581100616985168 161.016981741316158 361.539459577368689 157.014315260546027 361.008093267296317 152.761506154904964 360.079482808795547 148.369597784768303 358.836474146798537 144.051276238740684 357.08509041835805 139.686154651730249 355.111717483790017 135.505691377170479 352.712818601466097 131.491079674771754 350.082571139564607 127.762794403020052 347.313180416479554 124.431853532320929 344.303088087861397 121.488838259550903 341.246123593604352 119.054226181192462"/>
      <polyline class="cls-4" points="337.680056317827621 157.791365085410689 335.777593627809438 156.180742315805219 334.014339976146402 154.17281596808607 332.491794277501867 151.776895071530816 331.200731886505309 149.094694914768297 330.325701341750573 146.348264133597695 329.746281302680472 143.731576417221731 329.675305280967223 141.161695089320347 329.992214034238714 138.832581144111828 330.780057186415434 136.956974188135064 331.835501674851912 135.516120999031955 333.260246919454403 134.519418599458731 334.924446429061391 134.262467973861931 336.754541507527392 134.430943043406842 338.722454034511429 135.329848162684357 340.652925893960855 136.63546023021172 342.527241512727414 138.551081006919958 344.170142774752094 140.752987391327224 345.581626506296743 143.241213858887932 346.660062238358478 146.006369734444888 347.433390189461534 148.743437968421858 347.707771398481782 151.332044390708688 347.584839508160258 153.781545201011795 347.083247488225425 155.888563339981374 346.110786846546944 157.54211531267083 344.870655917698969 158.76090717099305 343.270721507954477 159.433892816571642 341.523541325335827 159.478110183122226 339.629250097917065 158.893606441081829 337.680056317827621 157.791365085410689"/>
      <line class="cls-4" x1="378.557755062684919" y1="164.835543706359203" x2="376.82678307718561" y2="166.931951957617457"/>
      <line class="cls-4" x1="350.959139064557348" y1="104.875892608100912" x2="348.195208749050835" y2="104.826509892687682"/>
      <line class="cls-4" x1="326.258614145301181" y1="113.675671502477599" x2="342.961839663793398" y2="105.985281019911781"/>
      <line class="cls-4" x1="355.923012075367296" y1="177.92685736364092" x2="372.524603951113022" y2="170.227110681372324"/>
      <line class="cls-4" x1="320.234822407178399" y1="118.965570359289813" x2="321.965794392676798" y2="116.869162108034288"/>
      <line class="cls-4" x1="347.925781625512172" y1="179.036252122944461" x2="350.597368720810664" y2="178.974604172964064"/>
    </g>
    <g>
      <polyline class="cls-4" points="446.517855690573015 78.08793493731082 445.028914297022311 78.668608664392195 443.705940596985783 79.674679958649904 442.742770377840316 81.22655746565124 442.148900914867227 83.222585762177914 442.035262620823232 85.570377631335759 442.21736956055156 88.047959735723452 442.898423242361787 90.674003651803105 443.893806176755788 93.226454396277404 445.203656265556674 95.705324664136242 446.846557527581353 97.907231048547146 448.628598877051445 99.711827507355338 450.448008769396438 101.109745145885427 452.314287653641259 101.999294065458344 454.135023358660874 102.26943725320325 455.697520274611634 102.003124080416455 457.112906145769557 101.10808979903868"/>
      <polyline class="cls-4" points="461.729844007045358 48.728152702165971 464.57662026748676 48.990221506187481 467.478299080595207 49.770027923845191 470.425524246676105 51.169205597878317 473.4370113388768 52.984452767350376 476.401632612928552 55.308034180319737 479.319453845998396 58.139990659734394 482.00592649948976 61.258273569789708 484.553190114628705 64.773860057954153 486.869108323943692 68.575738501308479 488.861268956316962 72.552871886967296 490.529668837997633 76.705294690390474 491.985373109845568 80.940666865117237 492.932705488980901 85.129204523401313 493.584424188692537 89.188033592348802 493.829401464693547 93.209418820017163 493.686428188554601 96.989995842040116 493.164860559963017 100.428131015685722 492.255339205476957 103.62549245914397 490.97651392107673 106.378737588531294 489.328460005174747 108.687803800427901"/>
      <polyline class="cls-4" points="453.732544606275951 49.83754111397684 456.275673626508251 48.94379499607021 459.067616285193253 48.688132533946373 461.914461496541662 48.950207685456007 465.010117172602804 49.850400968206486 468.058972807685677 51.258969317400442 471.162737342919172 53.185206329316316 474.21969866343079 55.619852883130079 477.239222490153224 58.461171909737459 480.017972586684664 61.690444662238406 482.657579422030722 65.31706181579284 484.964135084149348 69.220642852796118 487.039210612373608 73.410468674555887 488.901587357003336 77.683278343070924 490.246298612656574 82.010962436290356 491.387604680997356 86.319921435126162 492.020604633807125 90.582086740466366 492.256222536369933 94.705140086331994 492.103889886774596 98.587385226555853 491.563600337544813 102.228891112048586 490.644719609609638 105.527920673704102 489.356538125514817 108.382799445837009 487.597488019670891 110.784212051683426 485.681832767503693 112.658524496700011 483.295308893598303 114.079370775441021"/>
      <polyline class="cls-4" points="432.736499335162989 60.721422202102076 434.753788230068494 58.856465956784632 437.029319087788281 57.527931596542658 439.572379157106297 56.634179131144265 442.364390766700126 56.378523016509462 445.312869620797755 56.649954367726423 448.306891654113315 57.540791450769575 451.457453056588747 58.958687871700022 454.459511824429683 60.875596811879404 457.516473144941301 63.310243365693168 460.535996971660097 66.151562392302367 463.305387694746059 69.482503263000581 465.95435390354487 73.007452298356839 468.260840614752851 76.911026987873811 470.437618736626064 81.110215356820845 472.198361838513847 85.373668825634013 473.543073094167084 89.701352918853445 474.684379162507867 94.010311917691979 475.317379115321273 98.272477223032183 475.552997017880443 102.395530568895992 475.400664368292382 106.277775709119851 474.860377992802569 109.919247119158172 473.950856638316509 113.11660856261642 472.662671980470805 115.971521810201921 471.005255517372461 118.382290615755664 468.978607249017841 120.348914979265828 466.693717017850759 121.77911745770507 464.160016321978219 122.571201804904376 461.368073663296855 122.826864267030032"/>
      <polyline class="cls-4" points="452.016828536093271 62.906486275255702 448.913067174601565 60.980214787885416 445.762505772120676 59.562318366956788 442.759124365356001 58.773149402105446 439.801286137818352 58.60338616908939 437.101617748429817 58.970072949113273 434.549198305657228 59.965493532708933 432.356651294697258 61.506726676539074 430.422274121895498 63.584409833408245 428.847841505555152 66.207877422544698 427.642640694467445 69.275489453717455 426.917667878570683 72.694899532974887 426.561995818837204 76.558460401760385 426.603708983105207 80.561098754568775 427.135006342267843 84.813901512717166 428.063616800766795 89.205809882854737 429.398968682967279 93.635162094271436 431.058009191206111 97.889253015890972 433.133081545684945 102.079113313105154 435.430281008099882 106.084327992849467 438.060528469998644 109.812613264602987 440.82991601933918 113.143588610757433 443.840080472612499 116.08657575556208 446.897041793124117 118.521222309379482 450.000806328357612 120.447459321292627 453.151295606178792 121.865383870193 456.154680186687074 122.654518359585381 459.11251841423018 122.824281592599618 461.913886223527697 122.46699183522469 464.364606246385847 121.462174228977347 466.658855851002045 119.930303632344476 468.491530430154853 117.843257928278035 470.065963046495199 115.219790339141582 471.271232808493551 112.152184655458768 471.996136673479668 108.732768228711393 472.351805559465902 104.869241835381217 472.310164519855789 100.866575354610177 471.778798209784327 96.613766248970933 470.850187751283556 92.221857878833362 469.607179089282909 87.903536332805743 467.85579536084424 83.538414745795308 465.882422426276207 79.3579514712319 463.483523543954107 75.343339768836813 460.853276082049888 71.615054497085112 458.083885358963926 68.284113626385988 455.073793030344859 65.341098353615962 452.016828536093271 62.906486275255702"/>
      <polyline class="cls-4" points="448.450761260312902 101.64362517947211 446.548298570293809 100.033002409868459 444.785044918634412 98.025076062153857 443.262499219989877 95.629155165600423 441.97143682899241 92.946955008835175 441.096406284233126 90.200524227662754 440.516986245164844 87.583836511290428 440.446010223452504 85.013955183386315 440.762918976723995 82.684841238176887 441.550762128902534 80.809234282199213 442.606206617339012 79.368381093096104 444.030951861942413 78.371678693521062 445.695151371547581 78.11472806792608 447.525246450012673 78.28320313747281 449.493158976995801 79.182108256750325 451.423630836449775 80.487720324274051 453.297946455212696 82.403341100985926 454.940847717233737 84.605247485394102 456.352331448783843 87.093473952952991 457.430767180846487 89.858629828510857 458.204095131947724 92.595698062486917 458.478476340970701 95.184304484773747 458.35554445064281 97.633805295076854 457.853952430709796 99.740823434047343 456.881491789031315 101.394375406737709 455.64136086018425 102.613167265054471 454.041426450440667 103.286152910633973 452.294246267822928 103.330370277186375 450.399955040405075 102.745866535147798 448.450761260312902 101.64362517947211"/>
      <line class="cls-4" x1="489.328460005174747" y1="108.687803800427901" x2="487.597488019670891" y2="110.784212051683426"/>
      <line class="cls-4" x1="461.729844007045358" y1="48.728152702165971" x2="458.965913691537025" y2="48.678769986752741"/>
      <line class="cls-4" x1="437.029319087788281" y1="57.527931596542658" x2="453.732544606275951" y2="49.83754111397684"/>
      <line class="cls-4" x1="466.693717017850759" y1="121.77911745770507" x2="483.295308893598303" y2="114.079370775441021"/>
      <line class="cls-4" x1="431.005527349660952" y1="62.817830453354873" x2="432.736499335162989" y2="60.721422202102076"/>
      <line class="cls-4" x1="458.696486567995635" y1="122.88851221701043" x2="461.368073663296855" y2="122.826864267030032"/>
    </g>
    <g>
      <polyline class="cls-4" points="398.756521182678625 128.834577094811721 400.781803849372409 130.046705062556612 402.76137324384581 130.827268371300306 404.702976734412005 131.091479969455577 406.429303432410961 130.908517213668347 408.109862024739414 130.293955767884654 409.413500109956658 129.131839095900432 410.578840961023161 127.615105938037232 411.351599422300751 125.720318303730892 411.893476687496332 123.547862356669611 412.035026840307182 121.082110245180047 411.853109189401948 118.415666733631952 411.424708584615473 115.6410322109341 410.572571616447021 112.827389325157128 409.466146846934862 109.990337188393823 408.082025025089024 107.384163601997898 406.428071123241352 104.924063357643718 404.665926210243015 102.71044606716805 402.787845563486371 100.828070042589388 400.785972147775283 99.361654273491695 398.745085077561271 98.319032346931635 396.74991127957037 97.707975079364587 394.87748249995002 97.621103109441719 393.143353600193223 97.888818885817273 391.616636520658176 98.688514224454593 390.305256358556107 99.935360468873114 389.293814499444125 101.637232811014655 388.598035596579393 103.624578313375423 388.217804691645142 105.897386393124179"/>
      <polyline class="cls-4" points="407.648953602774782 122.302377892980076 407.697919793656183 119.913573954610911 407.330891698050436 117.401032080732875 406.717380648568906 114.780299195701446 405.680130589992586 112.120586687165996 404.457715253279275 109.614741785296246 402.872878583219062 107.331975877745208 401.172106179405091 105.380451236092995 399.355343208387239 103.760133829333427 397.499569228585642 102.563581525525478 395.604781594278393 101.790823064246979 393.832741624056325 101.542221161028465 392.191136561355052 101.733012212444009 390.749203887699878 102.540483658968697 389.615071843665646 103.718204734473147 388.696216592191377 105.343100163907366 388.169943730509658 107.34605006979109 387.959276345915896 109.634467844472056 388.072013994456029 112.123629206947044 388.600745929485129 114.736528504932721 389.391565221906603 117.288112772893328 390.521399242406915 119.87087710830383 391.921122822058351 122.307573393099119 393.52150906218867 124.420799228467331 395.314862782220189 126.295404436576973 397.155035004218917 127.661434041989196 399.026413387539833 128.688480304614131 400.859828512662716 129.199146117070086 402.655332567319419 129.193494249935611 404.158640395867224 128.648086712649274 405.52359351110772 127.748057398059245 406.511628764948 126.300444117692678 407.276582378756757 124.490438243560675 407.648953602774782 122.302377892980076"/>
      <polyline class="cls-4" points="405.400594587466912 120.727799852311364 405.418349325607778 118.678036735884234 405.03571682648726 116.335000903181935 404.390996969968 114.053280100511984 403.399460183622068 111.825132250978641 402.138086025858684 109.74311522264361 400.683744388186824 107.89971882156442 399.113467016761206 106.38756368637587 397.4115920289114 105.376150566844444 395.755485146733918 104.796336137315848 394.22207109518331 104.740644234842875 392.90393383619903 105.132126686306947 391.71622883902819 105.963030831979268 390.90556195299996 107.341472047113712 390.317916582130238 109.082329304173982 390.138458004566928 111.03173499649165 390.359386664262274 113.274413405089035 390.834545646151128 115.540495773239854 391.733555949729634 117.845597087318311 392.817619218844811 119.99679147230836 394.171574692830291 122.001889067100819 395.72624766073568 123.683550243466925 397.404713397600972 124.949251164351153 399.037411028798488 125.783353395234371 400.632200235243545 126.101109206946603 402.104241777606148 125.894708460598849 403.361064006562628 125.241138651735127 404.317885161945924 124.132594932890242 405.051632614434311 122.661572401536432 405.400594587466912 120.727799852311364"/>
      <polyline class="cls-4" points="423.531425033020241 115.046041005322877 423.56478417467315 112.826771847715463 423.351657716738373 110.499340418532483 422.80732137819632 108.055947161728909 421.916173401244123 105.666069378904467 420.847714535641899 103.345368952731405 419.594087746184414 101.1785648728046 418.155405345477448 99.165696461543121 416.51595061739954 97.476230437708182 414.853089284049929 96.041023475643669"/>
      <polyline class="cls-4" points="418.91158654433093 125.305091768692364 420.361321419747583 124.412867301574806 421.518860069055336 122.980887164299929 422.445520167996619 121.271209974692283 423.056574789848128 119.27606491628103 423.359768657214772 116.910693677054951 423.339614970603179 114.344584141458654 422.988191278514023 111.662536226396696 422.305560351532222 108.864497744137225 421.360839421440687 106.127803031479743 420.154025842531155 103.452480828008447 418.677380183623427 100.923231966576168 417.007819232553629 98.63266650298192 415.13748330839644 96.66553216639204 413.243800903837837 94.952633443412196 411.311044719912388 93.663552011124011 409.339335006353394 92.798240973209431 407.413335919307428 92.364523333876605 405.610029662893794 92.454928221598493 403.945075474076475 92.899983626202811"/>
      <line class="cls-4" x1="387.983728056065047" y1="108.440091969158857" x2="388.217804691645142" y2="105.897386393124179"/>
      <line class="cls-4" x1="396.669923485950676" y1="127.360361769668998" x2="398.756521182678625" y2="128.834577094811721"/>
      <line class="cls-4" x1="423.531425033020241" y1="115.046041005322877" x2="423.305150599197987" y2="117.503993560767412"/>
      <line class="cls-4" x1="414.853089284049929" y1="96.041023475643669" x2="412.758631906407572" y2="94.651555879672742"/>
      <line class="cls-4" x1="418.91158654433093" y1="125.305091768692364" x2="407.577937295925949" y2="130.501401619109856"/>
      <line class="cls-4" x1="403.945075474076475" y1="92.899983626202811" x2="392.611426225666946" y2="98.096293476622122"/>
    </g>
    <line class="cls-1" x1="447.422811677094614" y1="90.914408980153894" x2="421.101381061205757" y2="104.263746796919804"/>
    <line class="cls-1" x1="403.588060531925294" y1="112.775239166358915" x2="377.266629916032798" y2="126.124576983128463"/>
    <g>
      <line class="cls-5" x1="344.297809987828259" y1="142.0456591619959" x2="306.382435231968884" y2="161.275059796761525"/>
      <polygon class="cls-6" points="307.004810720250134 157.84528074402715 307.208729177281384 160.855992413949025 309.517322927281384 162.799290753792775 302.389332204625134 163.30023679871465 307.004810720250134 157.84528074402715"/>
    </g>
  </g>
  <g>
    <line class="cls-3" x1="459.613331228062634" y1="206.801793195199025" x2="494.989918142125134" y2="206.801793195199025"/>
    <polygon class="cls-7" points="492.883472829625134 209.579136945199025 494.063404470250134 206.801793195199025 492.883472829625134 204.024449445199025 499.467213064000134 206.801793195199025 492.883472829625134 209.579136945199025"/>
  </g>
  <g>
    <path class="cls-2" d="M366.112903981968884,92.602757550667775c-1.81317138671875-6.570114135742188-7.72576904296875-11.423736572265625-14.79791259765625-11.50885009765625-8.470428466796875-.1019287109375-15.442535400390625,6.674728393554688-15.740478515625,15.209213256835938"/>
    <polygon class="cls-7" points="368.429829030797009 90.120747662972462 365.863911062047009 91.70880613465215 362.939594655797009 90.964390851449025 366.684650808140759 97.0499316229334 368.429829030797009 90.120747662972462"/>
    <rect class="cls-7" x="335.213964062933428" y="93.863650112568322" width=".749997757992787" height="4.875004426980141" transform="translate(218.743113521366666 425.301017768209817) rotate(-86.4587136250138)"/>
  </g>
  <g>
    <path class="cls-2" d="M475.320270925328259,38.887806989144337c-1.81317138671875-6.570114135742188-7.725738525390625-11.423751831054688-14.79791259765625-11.50885009765625-7.07305908203125-.085128784179688-13.10137939453125,4.62603759765625-15.07135009765625,11.151947021484375"/>
    <polygon class="cls-7" points="477.637195974156384 36.405781842659962 475.071278005406384 37.993855573128712 472.146961599156384 37.249440289925587 475.892017751500134 43.3349658026209 477.637195974156384 36.405781842659962"/>
    <polygon class="cls-7" points="443.195240407750134 35.991292096566212 445.722187429234509 37.640660382699025 448.663593679234509 36.966832257699025 444.773151784703259 42.960484601449025 443.195240407750134 35.991292096566212"/>
  </g>
  <g>
    <polyline class="cls-4" points="624.918083179470159 208.546160200196937 626.506167097658363 207.82432612579305 628.383009122856492 207.463384611340189 630.33205903273938 207.535543541534025 632.425451280262678 207.968692940675282 634.591051412467095 208.762734899767565 636.756627067426052 209.989877303502908 638.922227199637746 211.505802291497275 641.087802854593065 213.310460909256108 643.109036171922526 215.403853156772129 645.058061604556315 217.713820103866055 646.79053681487585 220.31256963521173 648.306437325621118 222.983429142256682 649.605812091297594 225.726545488484589 650.688587680150704 228.541771810404498 651.482654116492085 231.357047086826242 652.060145853266476 234.100163433057787 652.276696075588006 236.771022940099101 652.204512668145071 239.225356702064346 651.843571153695848 241.535323649158272 651.121712602039224 243.556556966484095 650.183303828071985 245.289032176799992 649.028320354523203 246.732749280105963 647.584578773971771 247.81554934621181"/>
    <polyline class="cls-4" points="638.994410607073405 211.217068661736448 640.871252632271535 212.516418950163825 642.748094657469665 214.032343938158192 644.4805698677892 215.76479467122499 646.140861670662161 217.786027988554451 647.65676218140743 220.023787050952706 649.028320354523203 222.333753998039356 650.183303828071985 224.71592882981804 651.049529194599927 227.170262591786923 651.699204338813615 229.552388469071047 652.132329260705774 231.934563300846094 652.276696075588006 234.244530247936382"/>
    <line class="cls-4" x1="652.276696075588006" y1="234.244530247936382" x2="652.276696075588006" y2="237.420698084312789"/>
    <line class="cls-4" x1="638.994410607073405" y1="211.217068661736448" x2="636.251318738090959" y2="209.628984743548244"/>
    <line class="cls-4" x1="623.041216677022931" y1="209.628984743548244" x2="624.918083179470159" y2="208.546160200196937"/>
    <line class="cls-4" x1="645.707736748770003" y1="248.898349412314019" x2="647.584578773971771" y2="247.81554934621181"/>
    <polyline class="cls-4" points="592.001103137951759 274.88542861256883 594.816378414369865 277.123212152216183 597.631629213546148 279.07223758485361 600.519087897403551 280.588138095598879 603.334363173825295 281.81530497658332 606.077430565551367 282.609371412924702 608.748339027094516 283.042471857567762 611.274856196506335 282.970288450128464 613.65700655103592 282.609371412924702 615.894790090683273 281.743121569144023 617.843815523324338 280.515954688155944 619.576290733640235 278.927870769971378 621.092191244385504 276.978820860084852 622.319358125369945 274.741061797686598 623.185607969154262 272.142336743586384 623.835283113360674 269.254878059721705 624.124016743121501 266.150869153542772 624.124016743121501 262.830310025038671 623.763099705925015 259.365359604406876 623.113424561711327 255.828225776332147 622.174991310487712 252.146725133378823 620.875641022060336 248.465224490421861 619.359716034069606 244.855907254911472 617.627240823750071 241.246590019393807 615.606031983669709 237.709480668571814 613.368248444025994 234.388897062818614 610.986098089496409 231.284888156632405 608.387397512645293 228.325246065332067 605.716513528354881 225.654337603792555 602.901238251929499 223.344370656705905 600.085962975507755 221.323137339376444 597.270712176338748 219.66289449100168 594.455436899917004 218.363495248076106 591.640161623498898 217.42508647410159 588.969277639208485 216.919778144770135 586.37057706235737 216.847619214579936 583.916218823139388 217.136352844340763 581.678459760737496 217.858235873242847 579.657226443411673 219.013170392286156 577.852567825656479 220.456936450093963 576.264483907468275 222.333753998039356 574.965133619040898 224.499354130251049 573.954516960377987 227.025895776908328 573.304841816167936 229.841122098831875 572.943900301718713 232.872972074820609 572.871716894279416 236.121347795885413 573.08826711659367 239.514139286327008 573.665758853368061 243.123432044591937"/>
    <polyline class="cls-4" points="614.234498287810311 282.753738227806934 616.616648642336258 282.320613305914776 618.782224297291577 281.454387939383196 620.803457614621038 280.299404465838052 622.535932824940573 278.711296070404387 624.124016743121501 276.834454045206257 625.351183624109581 274.596670505555267 626.289616875336833 271.997969928704151 627.011475426986181 269.182694652286045 627.372416941439042 266.150869153542772 627.444600348878339 262.902493432481606 627.155842241868413 259.437543011842536 626.650533912536957 255.900409183771444 625.784308546001739 252.291091948261055 624.629325072456595 248.609591305304093 623.257791376597197 244.928090662347131 621.597499573716959 241.246590019393807 619.648474141079532 237.709480668571814 617.555057416310774 234.316689178130218 615.245114946473223 230.996105572373381 612.718573299812306 227.964304550882844 610.11987272296119 225.149029274464738 607.376780853978744 222.622487627803821 604.561530054813375 220.31256963521173 601.746254778387993 218.435703132764502 598.858796094526951 216.847619214579936 596.043545295354306 215.620427856346396 593.300453426375498 214.826385897250475 590.557361557396689 214.393285452607415 588.030844387981233 214.321077567919019 585.57651062601235 214.68201908237188 583.338727086364997 215.476061041464163 581.317518246284635 216.558836630320911 579.512859628529441 218.074761618315279 577.924751233095776 219.951628120758869"/>
    <polyline class="cls-4" points="636.540076845104522 271.276111377051166 638.489102277741949 269.90457768118813 640.149394080618549 268.172102470868595 641.520927776485223 266.150869153542772 642.675911250026729 263.768718799013186 643.542161093811046 261.025651407283476 644.047444945893403 258.138192723422435 644.26401964546767 254.962000409800567 644.191836238024734 251.569233396604432 643.830894723575511 248.104282975972637 643.109036171922526 244.422782333015675 642.170602920698911 240.741281690062351 640.871252632271535 237.059756569859928 639.355352121526266 233.378280404155703 637.550693503767434 229.768963168638038 635.529460186441611 226.231804863317848 633.291701124043357 222.83906232737445 630.837342884821737 219.66289449100168 628.23864230797426 216.703252399701341 625.567758323683847 214.032343938158192 622.752483047262103 211.578010176189309 619.937207770840359 209.48461792866965 617.049773564224779 207.752118241101016 614.234498287810311 206.380560067988881 611.34703960394927 205.369992363824167 608.603947734966823 204.792476149800677 606.005247158119346 204.575901450233687 603.47872998870389 204.720317219610479 601.16876304161724 205.369992363824167 599.003187386654645 206.308401137795045"/>
    <polyline class="cls-4" points="607.304597446539447 204.359375705157618 609.831139093200363 204.359375705157618 612.429839670047841 204.720317219610479 615.172907061784827 205.442151294014366 617.915998930763635 206.59713476755951 620.731274207181741 208.113059755553877 623.546525006358024 209.989877303502908 626.289616875336833 212.155477435710964 628.960500859623608 214.609811197679846 631.55922591372746 217.352927543907754 633.941376268257045 220.384728565401929 636.251318738090959 223.560945356276534 638.344735462863355 226.953687892219932 640.221577488057846 230.418638312851726 641.809685883495149 234.027955548365753 643.181219579361823 237.63727278387978 644.336203052906967 241.246590019393807 645.130245012002888 244.783723847468536 645.635553341330706 248.248674268100331 645.852103563652236 251.569233396604432 645.707736748770003 254.7454257102263 645.346819711569879 257.777251208969574 644.624936682667794 260.448159670509085 643.686527908693279 262.902493432481606 642.387177620265902 265.068093564689661"/>
    <line class="cls-4" x1="576.264483907468275" y1="222.261595067849157" x2="577.924751233095776" y2="219.951628120758869"/>
    <line class="cls-4" x1="611.34703960394927" y1="282.970288450128464" x2="614.234498287810311" y2="282.753738227806934"/>
    <line class="cls-4" x1="636.540076845104522" y1="271.276111377051166" x2="619.648474141079532" y2="281.021263017491037"/>
    <line class="cls-4" x1="599.003187386654645" y1="206.308401137795045" x2="582.111560205384194" y2="216.053577255487653"/>
    <line class="cls-4" x1="642.387177620265902" y1="265.068093564689661" x2="640.72688581739294" y2="267.378036034530851"/>
    <line class="cls-4" x1="607.304597446539447" y1="204.359375705157618" x2="604.489346647370439" y2="204.648109334918445"/>
    <polyline class="cls-4" points="645.130245012002888 258.860051275071783 647.873336880978059 259.437543011842536 650.472037457832812 259.654117711416802 652.926371219801695 259.437543011842536 655.236338166888345 258.860051275071783 657.329730414408004 257.84945909365797 659.206596916855233 256.4057175131029 660.866864242482734 254.673242302790641 662.238422415598507 252.579850055267343 663.249014597012319 250.12551629329846 664.043081033353701 247.382424424319652 664.476181477993123 244.422782333015675 664.620572770124454 241.17440661195451 664.476181477993123 237.781639598758375 663.970897625914404 234.244530247936382 663.176831189569384 230.635213012418717 662.094031123467175 226.953687892219932 660.722497427600501 223.272211726512069 659.062205624723902 219.66289449100168 657.113180192082837 216.053577255487653 655.019787944566815 212.660785765042419 652.709820997480165 209.412410043977616 650.183303828071985 206.380560067988881 647.584578773971771 203.565333746065335 644.841511382234785 201.038792099408056 642.026236105816679 198.8731919672 639.138777421955638 196.996374419250969 636.323526622782992 195.552608361446801 633.508251346361249 194.469832772593691 630.765159477378802 193.747949743687968 628.094275493092027 193.459216113927141 625.567758323683847 193.531423998619175 623.257791376597197 194.108891258140829 621.092191244385504 195.047348986613542 619.143165811744439 196.346699275040919 617.482874008871477 198.006991077913881 616.039156905565505 200.10038332543354 614.956356839456021 202.482509202714027 614.090131472931716 205.153417664253539"/>
    <polyline class="cls-4" points="654.731029837553251 259.365359604406876 657.113180192082837 258.932234682514718 659.278780324290892 258.0660093159795 661.29998916437853 256.911025842437994 663.104647782126449 255.322917446997053 664.620572770124454 253.446075421802561 665.847739651108895 251.20829188215157 666.786148425087049 248.609591305304093 667.508006976736397 245.794316028882349 667.868948491189258 242.762490530142713 667.941131898628555 239.514139286327008 667.652398268867728 236.049188865691576 667.147089939536272 232.512030560367748 666.280840095755593 228.902713324857359 665.125856622206811 225.221237159153134 663.754322926340137 221.539712038947073 662.094031123467175 217.858235873242847 660.145005690829748 214.321077567919019 658.051613443310089 210.928335031975621 655.741646496219801 207.607751426222421 653.215129326807983 204.575901450233687 650.616404272711407 201.76067512831014 647.873336880978059 199.234133481649224 645.058061604556315 196.924166534558935 642.242786328134571 195.047348986613542 639.427535528965564 193.459216113927141 636.540076845104522 192.232073710191798 633.796984976125714 191.438031751095878 631.126100991835301 191.004882351958258 628.527400414980548 190.932723421764422 626.145250060458238 191.293615981719086 623.907466520807247 192.087706895309566 621.814049796034851 193.170482484166314 620.009391178279657 194.686407472164319 618.493490667538026 196.563225020109712"/>
    <polyline class="cls-4" points="677.036608394854738 247.887732753651107 678.985633827495803 246.516199057784434 680.645925630368765 244.783723847468536 682.089667210923835 242.762490530142713 683.172442799776945 240.380340175613128 684.038692643557624 237.63727278387978 684.544000972892718 234.749838577271476 684.832734602657183 231.573621786393232 684.760551195217886 228.180879250453472 684.327426273325727 224.71592882981804 683.677751129112039 221.034403709615617 682.667158947698226 217.352927543907754 681.367784182021751 213.671402423705331 679.851883671276482 209.989877303502908 678.047225053521288 206.380560067988881 676.026016213440926 202.84345071716325 673.788232673789935 199.45070818122349 671.333898911817414 196.274491390348885 668.807381742409234 193.314849299048547 666.064289873430425 190.643940837505397 663.321198004451617 188.189607075536514 660.433763797836036 186.096214828016855 657.546305113974995 184.363764094950056 654.731029837553251 182.992205921837922 651.915754561138783 181.981589263171372 649.172687169405435 181.404122003649718 646.501778707862286 181.187547304079089 643.975261538454106 181.331914118961322 641.665294591363818 181.909430332981174 639.571902343847796 182.919998037145888"/>
    <polyline class="cls-4" points="647.873336880978059 180.970972604508461 650.327670642950579 180.970972604508461 652.998554627237354 181.331914118961322 655.669463088780503 182.053797147863406 658.412530480510213 183.208780621404912 661.227805756931957 184.724656654901082 664.043081033353701 186.601523157348311 666.786148425087049 188.767123289556366 669.457056886622922 191.221457051528887 672.055757463477676 193.964524443258597 674.510091225446558 196.996374419250969 676.747874765093911 200.172542255623739 678.841267012613571 203.565333746065335 680.718109037808063 207.030284166700767 682.378400840684662 210.639601402214794 683.749934536551336 214.248918637728821 684.832734602657183 217.858235873242847 685.626801038998565 221.395345224068478 686.132084891080922 224.860295644700273 686.34865959065155 228.180879250453472 686.276476183212253 231.357047086826242 685.843351261320095 234.316689178130218 685.193676117106406 237.059756569859928 684.183059458443495 239.514139286327008 682.883709170016118 241.679714941285965"/>
    <line class="cls-4" x1="616.833198864657788" y1="198.8731919672" x2="618.493490667538026" y2="196.563225020109712"/>
    <line class="cls-4" x1="651.843571153695848" y1="259.581909826724768" x2="654.731029837553251" y2="259.365359604406876"/>
    <line class="cls-4" x1="677.036608394854738" y1="247.887732753651107" x2="660.145005690829748" y2="257.632884394090979"/>
    <line class="cls-4" x1="639.571902343847796" y1="182.919998037145888" x2="622.680299639819168" y2="192.66517415483122"/>
    <line class="cls-4" x1="682.883709170016118" y1="241.679714941285965" x2="681.22341736713588" y2="243.989657411123517"/>
    <line class="cls-4" x1="647.873336880978059" y1="180.970972604508461" x2="644.985878197117017" y2="181.259755188767485"/>
    <polyline class="cls-4" points="719.843106891691605 170.14302089796638 720.92593143504655 170.070861967776182 722.080914908591694 170.287387712848613 723.308057312327037 170.792696042180069 724.535248670560577 171.514579071082153 725.690232144102083 172.45298784505303 726.773007732958831 173.607971318601813 727.711416506936985 174.835162676835353 728.577666350717664 176.20667189544929 729.227341494931352 177.650437953257097 729.732649824262808 179.09415505655943 730.021383454023635 180.465664275177005 730.093591338712031 181.692855633410545 729.949224523833436 182.847839106952051 729.588283009380575 183.786247880926567 729.010766795360723 184.435923025140255 728.361091651147035 184.941231354475349"/>
    <polyline class="cls-4" points="720.131840521452432 170.070861967776182 720.564989920597327 169.637712568631287 721.070298249925145 169.204612123991865 721.647765509450437 168.988037424421236 722.225281723473927 168.771511679352443 722.874956867683977 168.699303794660409 723.596790942087864 168.771511679352443 724.31867397098631 168.915878494231038 725.040556999895671 169.132453193801666 725.76239107429592 169.493345753752692 726.484274103198004 169.854287268205553 727.278316062290287 170.431803482225405 727.927991206503975 171.009270741750697 728.64987423540606 171.658945885960748 729.299549379619748 172.380828914862832 729.87701663914504 173.174870873958753 730.454532853164892 173.968912833051036 730.95979222799815 174.835162676835353 731.392941627139408 175.701363566117834 731.753883141584993 176.567613409902151 732.042616771353096 177.506022183876667 732.259191470920086 178.300113097467147 732.403558285798681 179.166313986753266 732.403558285798681 179.960404900343747 732.403558285798681 180.682238974747634 732.259191470920086 181.331914118961322 732.114775701543294 181.981589263171372 731.826042071778829 182.486897592506466 731.537308442018002 182.919998037145888 731.10420799737858 183.280939551598749 730.671058598233685 183.49751425116574 730.165750268905867 183.641881066047972 729.588283009380575 183.714088950740006"/>
    <polyline class="cls-4" points="722.586174283424953 168.771511679352443 723.524632011894028 167.905261835568126 724.679615485439172 167.472161390925066 725.978965773866548 167.39995350623667 727.42268287717252 167.760895020685894 728.938607865170525 168.554936979781814 729.660441939570774 169.06024530911327 730.382324968476496 169.637712568631287 731.681675256900235 171.009270741750697 732.259191470920086 171.80331270084298 732.836658730441741 172.597354659935263 733.775067504419894 174.329854347500259 734.424742648633583 176.062305080570695 734.641317348200573 176.928554924351374 734.785684163079168 177.722596883443657 734.785684163079168 179.238521871441662 734.641317348200573 179.960404900343747 734.496950533318341 180.537872159865401 733.847275389104652 181.476280933839917 733.486333874651791 181.837222448292778 733.053233430012369 182.053797147863406 732.547925100684552 182.198163962742001 731.970408886661062 182.270322892932199"/>
    <polyline class="cls-4" points="725.040556999895671 167.39995350623667 725.906757889174514 166.533703662452353 727.061741362723296 166.100603217809294 728.433299535839069 166.100603217809294 729.87701663914504 166.461544732262155 731.320733742447374 167.183378806666042 732.764450845753345 168.266203350017349 734.063850088678919 169.637712568631287 735.218784607722228 171.225845441321326 736.15724233619494 172.958296174388124 736.806917480408629 174.69079586195312 737.095651110169456 176.35108766482972 737.16785899486149 177.86696369832589 736.879076410602465 179.09415505655943 736.229401266388777 180.032563830533945 735.435359307292856 180.610080044553797 734.352583718439746 180.826605789629866"/>
    <polyline class="cls-4" points="727.42268287717252 166.028395333124536 728.361091651147035 165.234353374024977 729.516075124692179 164.801252929381917 730.815425413119556 164.729045044697159 732.259191470920086 165.089986559146382 733.702908574226058 165.811869588048467 735.146625677532029 166.966853061593611 736.445975965959406 168.338362280211186 737.60095943950455 169.854287268205553 738.539368213479065 171.586786955770549 739.189043357689116 173.319237688837347 739.477825941951778 174.979529491713947 739.477825941951778 176.423246595023556 739.189043357689116 177.650437953257097 738.611576098171099 178.588846727231612 737.745326254383144 179.166313986753266 736.734709595716595 179.382888686320257"/>
    <polyline class="cls-4" points="729.87701663914504 164.729045044697159 730.815425413119556 163.862844155407402 731.970408886661062 163.429694756269782 733.269759175084801 163.357535826079584 734.641317348200573 163.718477340528807 736.15724233619494 164.51251929962109 737.528751554816154 165.595294888477838 738.828101843236254 166.966853061593611 739.983085316785036 168.48272909508978 740.921543045257749 170.215228782654776 741.499010304779404 171.875520585531376 741.859951819228627 173.535812388411614 741.859951819228627 175.051688421904146 741.571218189464162 176.278879780141324 740.99370197544431 177.217288554112201 740.127501086161828 177.722596883443657 739.116884427498917 177.939171583017924"/>
    <polyline class="cls-4" points="732.331350401110285 163.357535826079584 733.269759175084801 162.563493866987301 734.352583718439746 162.130344467846044 735.651934006863485 162.058185537655845 737.095651110169456 162.419078097606871 738.539368213479065 163.140961126508955 739.9109263865912 164.223736715362065 741.282484559703335 165.595294888477838 742.365260148560083 167.111219876472205 743.30366892253096 168.771511679352443 743.88118513655445 170.503962412415603 744.242077696505476 172.164254215292203 744.242077696505476 173.607971318601813 743.953344066744648 174.835162676835353 743.375876807226632 175.773571450809868 742.509626963442315 176.278879780141324 741.499010304779404 176.495454479708314"/>
    <polyline class="cls-4" points="734.785684163079168 162.058185537655845 735.651934006863485 161.191935693871528 736.806917480408629 160.758835249228468 738.106267768836005 160.686627364540072 739.477825941951778 161.047568878989296 740.921543045257749 161.769402953393183 742.365260148560083 162.852227496748128 743.664610436983821 164.223736715362065 744.747386025840569 165.739661703360071 745.685843754313282 167.39995350623667 746.263311013838575 169.132453193801666 746.624252528287798 170.720537111986232 746.624252528287798 172.164254215292203 746.335518898526971 173.391445573525743 745.758002684507119 174.329854347500259 744.891801795220999 174.835162676835353 743.88118513655445 175.051688421904146"/>
    <polyline class="cls-4" points="737.240017925051689 160.686627364540072 738.106267768836005 159.89258540544779 739.261251242377512 159.459436006306532 740.488393646112854 159.387277076112696 741.932159703917023 159.748218590565557 743.375876807226632 160.470052664965806 744.747386025840569 161.480669323632355 746.046736314267946 162.852227496748128 747.129560857622891 164.368152484742495 747.99581070140357 166.028395333124536 748.645485845617259 167.688687135997498 749.006378405568285 169.348978938874097 749.006378405568285 170.792696042180069 748.717644775803819 172.019887400413609 748.140177516282165 172.886137244194288 747.273927672501486 173.46360450371958 746.263311013838575 173.607971318601813"/>
    <polyline class="cls-4" points="739.622192756830373 159.387277076112696 740.560601530804888 158.521027232332017 741.643377119657998 158.087926787685319 742.942727408085375 158.015718902996923 744.31428558119751 158.376660417449784 745.758002684507119 159.098543446351869 747.129560857622891 160.181319035208617 748.42891114604663 161.480669323632355 749.511686734903378 162.996594311626723 750.377936578684057 164.656886114503322 751.027611722897745 166.317177917379922 751.316345352654935 167.905261835568126 751.388553237343331 169.348978938874097 751.027611722897745 170.576170297107637 750.450144463372453 171.442371186393757 749.656053549781973 172.019887400413609 748.645485845617259 172.164254215292203"/>
    <polyline class="cls-4" points="749.006378405568285 169.854287268205553 749.150794174948714 169.348978938874097 749.295160989830947 168.771511679352443 749.295160989830947 168.121836535138755 749.222953105138913 167.39995350623667 749.006378405568285 166.605911547144387 748.717644775803819 165.811869588048467 748.42891114604663 165.017827628956184 747.99581070140357 164.295944600054099 747.490502372068477 163.501902640961816 746.912986158048625 162.780019612056094 746.335518898526971 162.130344467846044 745.685843754313282 161.552877208320751 745.036168610099594 161.119727809179494 744.31428558119751 160.686627364540072 743.664610436983821 160.397893734779245 742.942727408085375 160.253526919897013"/>
    <polyline class="cls-4" points="746.624252528287798 171.298004371511524 746.840827227862064 170.792696042180069 746.912986158048625 170.14302089796638 746.912986158048625 169.493345753752692 746.840827227862064 168.771511679352443 746.624252528287798 167.977469720256522 746.335518898526971 167.255586691358076 746.046736314267946 166.461544732262155 745.613635869624886 165.667502773169872 745.108327540293431 164.873411859575754 744.530860280768138 164.151577785171867 743.953344066744648 163.501902640961816 743.30366892253096 162.924386426938327 742.581834848130711 162.491285982295267 741.932159703917023 162.058185537655845 741.210276675018576 161.769402953393183 740.560601530804888 161.552877208320751"/>
    <polyline class="cls-4" points="744.242077696505476 172.669562544627297 744.458652396079742 172.164254215292203 744.530860280768138 171.586786955770549 744.530860280768138 170.864903926868465 744.458652396079742 170.14302089796638 744.242077696505476 169.421186823562493 744.02555195144032 168.62714486447021 743.664610436983821 167.833053950876092 743.231509992340762 167.039011991783809 742.726201663012944 166.244970032691526 742.148685448989454 165.523135958287639 741.499010304779404 164.873411859575754 740.849335160565715 164.295944600054099 740.199660016352027 163.790636270722644 739.477825941951778 163.357535826079584 738.828101843236254 163.068753241816921 738.106267768836005 162.924386426938327"/>
    <polyline class="cls-4" points="741.932159703917023 174.113279647933268 742.076526518799255 173.607971318601813 742.148685448989454 173.030504059072882 742.148685448989454 172.308621030174436 742.076526518799255 171.586786955770549 741.859951819228627 170.792696042180069 741.643377119657998 169.998654083087786 741.282484559703335 169.204612123991865 740.849335160565715 168.410570164899582 740.344026831237898 167.616528205803661 739.766559571712605 166.894645176901577 739.116884427498917 166.244970032691526 738.467209283285229 165.667502773169872 737.81753413907154 165.162194443834778 737.095651110169456 164.729045044697159 736.373768081267372 164.440311414936332 735.724092937053683 164.223736715362065"/>
    <polyline class="cls-4" points="739.549984872138339 175.556996751235602 739.694351687024209 175.051688421904146 739.766559571712605 174.402013277694095 739.766559571712605 173.680179203286571 739.694351687024209 172.958296174388124 739.549984872138339 172.164254215292203 739.261251242377512 171.37021225619992 738.90030972792465 170.576170297107637 738.467209283285229 169.782128338011717 737.961900953957411 168.988037424421236 737.384384739930283 168.266203350017349 736.734709595716595 167.616528205803661 736.085034451506544 166.966853061593611 735.363200377106295 166.461544732262155 734.713525232892607 166.100603217809294 733.991642203986885 165.811869588048467 733.269759175084801 165.595294888477838"/>
    <polyline class="cls-4" points="737.16785899486149 177.000762809043408 737.312225809743722 176.423246595023556 737.456592624622317 175.845779335494626 737.456592624622317 175.12389630659618 737.312225809743722 174.402013277694095 737.16785899486149 173.607971318601813 736.879076410602465 172.741770429315693 736.518183850647802 171.947679515725213 736.085034451506544 171.15363755663293 735.579726122175089 170.359595597537009 735.002258862649796 169.637712568631287 734.352583718439746 168.988037424421236 733.702908574226058 168.338362280211186 732.981025545323973 167.833053950876092 732.259191470920086 167.472161390925066 731.537308442018002 167.111219876472205 730.887633297804314 166.894645176901577"/>
    <polyline class="cls-4" points="734.785684163079168 178.444479912345741 734.9300509779614 177.86696369832589 735.074417792839995 177.217288554112201 735.074417792839995 176.495454479708314 734.9300509779614 175.773571450809868 734.785684163079168 174.979529491713947 734.496950533318341 174.185487532621664 734.136009018865479 173.319237688837347 733.702908574226058 172.525195729745064 733.19760024489824 171.731153770652782 732.547925100684552 171.009270741750697 731.970408886661062 170.359595597537009 731.248574812257175 169.709920453326959 730.598899668043487 169.204612123991865 729.87701663914504 168.771511679352443 729.155133610239318 168.48272909508978 728.433299535839069 168.266203350017349"/>
    <polyline class="cls-4" points="732.403558285798681 179.815989130966955 732.620084030871112 179.310680801631861 732.692291915559508 178.661005657425449 732.692291915559508 177.939171583017924 732.620084030871112 177.145129623922003 732.403558285798681 176.35108766482972 732.114775701543294 175.556996751235602 731.753883141584993 174.69079586195312 731.320733742447374 173.89670494836264 730.743266482925719 173.102662989266719 730.165750268905867 172.380828914862832 729.588283009380575 171.658945885960748 728.866399980478491 171.081478626439093 728.144565906078242 170.576170297107637 727.42268287717252 170.14302089796638 726.700799848270435 169.782128338011717 726.051124704060385 169.637712568631287"/>
    <polyline class="cls-4" points="730.021383454023635 181.259755188767485 730.237958153594263 180.682238974747634 730.310117083784462 180.032563830533945 730.310117083784462 179.310680801631861 730.237958153594263 178.588846727231612 730.021383454023635 177.794804768135691 729.732649824262808 176.928554924351374 729.371708309809947 176.062305080570695 728.938607865170525 175.268263121474774 728.361091651147035 174.474221162382491 727.783624391625381 173.752338133480407 727.133949247411692 173.030504059072882 726.484274103198004 172.45298784505303 725.76239107429592 171.875520585531376 725.040556999895671 171.442371186393757 724.31867397098631 171.15363755663293 723.596790942087864 170.937111811560499"/>
    <polyline class="cls-4" points="727.855783321815579 182.053797147863406 728.000150136697812 181.043180489200495 727.855783321815579 179.888197015655351 727.494890761864553 178.588846727231612 726.917374547841064 177.361655368998072 726.195491518935341 176.062305080570695 725.32929062965286 174.907321607025551 724.31867397098631 173.968912833051036 723.2358983821332 173.174870873958753"/>
    <polyline class="cls-4" points="728.361091651147035 185.663114383373795 728.21672483626844 183.714088950740006 727.783624391625381 181.692855633410545 727.133949247411692 179.599463385890886 726.195491518935341 177.578230068565063 725.040556999895671 175.556996751235602 723.741157756966459 173.752338133480407 722.225281723473927 172.092046330603807 720.70935673547956 170.720537111986232 719.049064932599322 169.637712568631287"/>
    <polyline class="cls-4" points="711.902638346259664 168.699303794660409 713.201988634687041 168.193995465328953 714.645705737989374 168.121836535138755 716.233789656177578 168.338362280211186 717.894081459057816 168.988037424421236 719.554373261934415 169.926495152893949 721.214665064807377 171.225845441321326 722.802748982991943 172.813929359505892 724.246466086301552 174.618587977261086 725.545816374721653 176.567613409902151 726.628640918076599 178.733213542110207 727.42268287717252 180.898813674314624 728.000150136697812 183.064413806526318 728.288932720956836 185.085598169353943 728.288932720956836 187.034623601995008 728.000150136697812 188.767123289556366 727.42268287717252 190.283048277554371 726.628640918076599 191.510190681289714 725.545816374721653 192.376440525070393"/>
    <line class="cls-4" x1="728.361091651147035" y1="185.663114383373795" x2="728.361091651147035" y2="186.096214828016855"/>
    <line class="cls-4" x1="719.049064932599322" y1="169.637712568631287" x2="718.688123418146461" y2="169.421186823562493"/>
    <polyline class="cls-4" points="587.381169243767545 230.779579827304588 589.11364445408708 230.057696798398865 590.990486479288847 229.696755283949642 593.011719796611033 229.841122098831875 595.177295451573627 230.346430428159692 597.342895583781683 231.212680271947647 599.580654646179937 232.512030560367748 601.818438185830928 234.172322363247986 603.984038318035346 236.121347795885413 606.005247158119346 238.359155812781864 607.882089183313838 240.885648504944584 609.542380986190437 243.556556966484095 611.058305974184805 246.37180776565674 612.21326497048085 249.187083042078484 613.151698221700826 252.074541725935887 613.801373365914515 254.962000409800567 614.090131472931716 257.705067801530276 614.090131472931716 260.231584970938457 613.801373365914515 262.613735325468042 613.151698221700826 264.779335457676098 612.21326497048085 266.58399407543493 611.058305974184805 268.027711178737263 609.542380986190437 269.11051124484311"/>
    <line class="cls-4" x1="670.684223767611002" y1="192.520807339952626" x2="711.902638346259664" y2="168.699303794660409"/>
    <line class="cls-4" x1="684.327426273325727" y1="216.125736185674214" x2="725.545816374721653" y2="192.376440525070393"/>
    <line class="cls-4" x1="579.873801142982302" y1="235.110731137222501" x2="587.381169243767545" y2="230.779579827304588"/>
    <line class="cls-4" x1="602.035012885397919" y1="273.513894916698519" x2="609.542380986190437" y2="269.11051124484311"/>
    <polyline class="cls-4" points="575.253867248805363 251.857991503617995 575.398234063687596 249.90894159373147 575.903542393015414 248.176466383411935 576.697584352107697 246.732749280105963 577.708201010774246 245.649949214003755 579.007551299197985 245.000274069790066 580.52347628719599 244.711540440029239 582.111560205384194 244.855907254911472 583.916218823139388 245.433398991682225 585.648694033455286 246.37180776565674 587.453352651214118 247.671182531329578 589.11364445408708 249.259266449517781 590.701752849524382 251.136108474712273 592.145469952830354 253.229525199481031 593.300453426375498 255.467308739128384 594.238886677599112 257.777251208969574 594.816378414369865 260.087218156056224 595.177295451573627 262.325001695707215 595.177295451573627 264.346210535787577 594.816378414369865 266.223052560982069 594.238886677599112 267.811160956419371 593.300453426375498 269.038327837403813 592.145469952830354 269.90457768118813 590.701752849524382 270.409861533266849 589.11364445408708 270.482069417958883 587.453352651214118 270.12112790350966 585.648694033455286 269.399269351856674 583.916218823139388 268.24428587831153 582.111560205384194 266.80054429775646 580.52347628719599 264.995885679997627 579.007551299197985 263.0468602473602 577.708201010774246 260.809076707712848 576.697584352107697 258.571317645310955 575.903542393015414 256.261350698224305 575.398234063687596 254.023567158576952 575.253867248805363 251.857991503617995"/>
    <polyline class="cls-4" points="602.035012885397919 273.513894916698519 603.47872998870389 272.431094850599948 604.705896869691969 270.915169862601942 605.644330120911945 269.11051124484311 606.221821857686336 267.017118997327088 606.582738894886461 264.634968642797503 606.582738894886461 262.036243588697289 606.221821857686336 259.293176196963941 605.644330120911945 256.477900920542197 604.705896869691969 253.590442236681156 603.47872998870389 250.703008030072851 602.035012885397919 247.887732753651107 600.302537675082021 245.216848769357057 598.425695649883892 242.762490530142713 596.404462332558069 240.524706990491723 594.238886677599112 238.575681557854296 592.073286545391056 236.915389754977696 589.835503005743703 235.616039466553957 587.597743943341811 234.677630692579442 585.432143811133756 234.172322363247986 583.410934971057031 234.100163433057787 581.534068468609803 234.388897062818614 579.873801142982302 235.110731137222501"/>
    <polyline class="cls-4" points="602.035012885397919 273.513894916698519 600.085962975507755 274.452303690673034 597.992570727995371 275.029795427447425 595.97133741066591 275.246345649768955 593.950128570585548 275.17416224232602 592.001103137951759 274.88542861256883 590.196444520192927 274.380120283233737 588.536152717316327 273.658261731580751 586.875860914439727 272.792011887796434 585.359960403694458 271.853603113825557 583.916218823139388 270.770803047723348 582.544685127272714 269.543636166738906 581.245334838848976 268.316469285750827 580.018167957864534 266.944935589884153 578.935367891762326 265.501194009329083 577.852567825656479 263.985293498583815 576.914159051681963 262.39718510315015 576.047909207901284 260.809076707712848 575.253867248805363 259.148809382088984 574.532008697152378 257.416334171769449 573.954516960377987 255.683858961449914 573.521392038485828 253.951383751134017 573.160475001285704 252.146725133378823 572.943900301718713 250.34206651561999 572.871716894279416 248.537407897864796 572.943900301718713 246.732749280105963 573.232658408725001 244.928090662347131 573.665758853368061 243.051248637152639 574.387641882273783 241.246590019393807 575.326050656241023 239.514139286327008 576.553217537229102 237.853847483450409 578.069142525223469 236.337922495452403 579.873801142982302 235.110731137222501"/>
    <polyline class="cls-4" points="579.657226443411673 254.384508673022538 582.472501719833417 250.414249923059288 588.030844387981233 253.66265012137319 590.77393625696368 260.809076707712848 588.030844387981233 264.779335457676098 582.472501719833417 261.530959736611294 579.657226443411673 254.384508673022538"/>
    <line class="cls-4" x1="589.474585968539941" y1="257.488517579208747" x2="582.472501719833417" y2="261.530959736611294"/>
    <line class="cls-4" x1="579.657226443411673" y1="254.384508673022538" x2="584.493710559913779" y2="251.569233396604432"/>
  </g>
</svg>