<?xml version="1.0" encoding="UTF-8"?><svg id="Layer_1" xmlns="http://www.w3.org/2000/svg" viewBox="0 0 834.91 386.65"><defs><style>.cls-1{stroke-miterlimit:10;}.cls-1,.cls-2,.cls-3,.cls-4,.cls-5{fill:none;}.cls-1,.cls-3{stroke:#1d1d1b;}.cls-1,.cls-4,.cls-5{stroke-width:.5px;}.cls-2{stroke:#000;stroke-width:.25px;}.cls-2,.cls-3,.cls-4,.cls-5{stroke-linecap:round;stroke-linejoin:round;}.cls-6{fill:#d3125a;}.cls-3{stroke-width:.75px;}.cls-4{stroke-dasharray:0 0 3 3;}.cls-4,.cls-5{stroke:#d3125a;}.cls-7{fill:#1d1d1b;}.cls-5{stroke-dasharray:0 1;}</style></defs><polyline class="cls-2" points="260.48 201.56 259.06 201.56 257.64 201.18 256.87 200.4 256.74 199.5"/><polyline class="cls-2" points="261.26 197.94 260.48 198.85 260.48 201.56"/><polyline class="cls-2" points="256.99 195.75 257.9 195.1 259.19 194.84 260.61 194.84 261.78 195.23 262.55 195.88 262.68 196.65 262.29 197.43 261.26 197.94"/><polyline class="cls-2" points="256.74 199.5 256.74 196.91 256.99 195.75"/><polyline class="cls-2" points="301.96 225.6 300.54 225.6 299.25 225.08 298.6 224.3 298.6 223.53"/><polyline class="cls-2" points="302.73 222.11 301.96 223.01 301.96 225.6"/><polyline class="cls-2" points="298.86 219.65 299.89 219.14 301.18 218.88 302.61 219.01 303.64 219.39 304.41 220.17 304.41 220.94 303.9 221.72 302.73 222.11"/><polyline class="cls-2" points="298.6 223.53 298.6 220.82 298.86 219.65"/><line class="cls-2" x1="260.48" y1="198.85" x2="298.6" y2="220.82"/><line class="cls-2" x1="298.86" y1="219.65" x2="261.26" y2="197.94"/><polyline class="cls-2" points="49.22 197.43 45.48 195.1 41.99 192.78 38.63 190.32 35.53 187.87 32.69 185.28 30.1 182.57 27.65 179.73 25.45 176.88 23.51 174.04 21.83 171.07 20.41 168.1 19.25 165.13 18.34 162.02 17.7 158.92 17.31 155.82 17.18 152.85 17.31 149.75 17.7 146.65 18.34 143.55 19.25 140.45 20.41 137.47 21.83 134.5 23.51 131.53 25.45 128.69 27.65 125.85 30.1 123 32.69 120.42 35.53 117.71 38.63 115.25 41.99 112.8 45.48 110.47 49.22 108.14 53.1 106.08 57.11 104.01 61.37 102.07 65.76 100.39 70.29 98.71 74.94 97.16 79.72 95.74 84.63 94.45 89.67 93.41 94.71 92.38 99.88 91.61 105.17 90.96 110.47 90.44 115.77 90.05 121.07 89.8 126.49 89.67 131.79 89.8 137.09 90.05 142.51 90.44 147.81 90.96 152.98 91.61 158.15 92.38 163.19 93.41 168.23 94.45 173.14 95.74 177.92 97.16 182.57 98.71 187.09 100.39 191.48 102.07 195.75 104.01 199.88 106.08 203.76 108.14"/><line class="cls-2" x1="230.38" y1="301.96" x2="49.22" y2="197.43"/><polyline class="cls-2" points="232.7 301.96 231.93 302.22 231.15 302.22 230.38 301.96"/><line class="cls-2" x1="384.91" y1="214.1" x2="232.7" y2="301.96"/><polyline class="cls-2" points="384.91 212.8 385.3 213.19 385.3 213.71 384.91 214.1"/><line class="cls-2" x1="203.76" y1="108.14" x2="384.91" y2="212.8"/><polyline class="cls-2" points="233.22 142 231.67 137.73 229.6 133.6 227.15 129.46 224.05 125.46 220.56 121.71 216.55 117.96 212.16 114.48 207.38 111.12 202.21 108.01 196.65 105.04 190.84 102.33 184.64 100 178.18 97.81 171.46 95.87 164.48 94.19 157.37 92.77 150.14 91.73 142.77 90.83 135.28 90.44 127.78 90.18 120.29 90.31 112.8 90.7 105.43 91.35 98.07 92.38 90.96 93.67 83.85 95.22 77.13 97.03 70.54 99.1 64.21 101.55 58.27 104.14 52.58 106.98 47.29 109.95 42.38 113.31 37.85 116.67 33.72 120.29 29.97 124.17 26.87 128.04 24.16 132.05 21.83 136.18 20.15 140.45 18.86 144.71 18.21 148.97 17.96 153.37 18.34 157.63 19.12 162.02 20.54 166.29 22.35 170.42 24.8 174.56 27.65 178.56 30.88 182.44 34.75 186.19 38.89 189.8 43.54 193.16 48.58 196.39 54.01 199.37 59.82 202.21 65.89 204.66 72.22 206.99 78.81 209.06 85.66 210.87 92.77 212.29 100 213.45 107.24 214.48 114.73 215"/><line class="cls-2" x1="233.22" y1="142" x2="233.22" y2="142"/><polyline class="cls-2" points="235.16 142.64 234.51 142.64 233.87 142.51 233.48 142.26 233.22 142"/><polyline class="cls-2" points="235.16 142.64 235.16 142.64 254.41 140.83"/><polyline class="cls-2" points="256.35 164.74 258.93 164.48 261.39 163.83 263.45 162.67 264.75 161.38 265.39 159.83 265.91 155.18 265.91 150.4 265.39 145.74 264.88 144.32 263.58 143.03 261.78 141.87 259.58 141.22 256.99 140.83 254.41 140.83"/><polyline class="cls-2" points="240.33 165.13 240.84 165.13 256.35 164.74"/><polyline class="cls-2" points="238.26 166.03 238.39 165.64 238.9 165.38 239.55 165.13 240.33 165.13"/><line class="cls-2" x1="238.26" y1="166.03" x2="238.26" y2="166.03"/><polyline class="cls-2" points="115.9 215.13 126.1 216.29 131.27 216.81 136.31 217.07 141.35 217.33 146.26 217.33 151.17 217.33 156.08 217.2 160.73 216.94 165.51 216.55 170.04 216.03 174.56 215.39 178.95 214.61 183.22 213.71 187.48 212.8 191.48 211.64 197.04 209.57 202.34 207.38 207.38 204.92 212.16 202.34 216.68 199.5 220.94 196.65 224.82 193.55 228.44 190.32 230.64 187.61 232.57 184.77 234.12 181.79 235.55 178.82 236.71 175.72 237.48 172.62 238 169.39 238.26 166.03"/><line class="cls-2" x1="114.73" y1="215" x2="115.9" y2="215.13"/><polyline class="cls-2" points="304.29 226.24 304.29 224.82 303.9 223.4 302.73 222.11"/><line class="cls-2" x1="301.05" y1="239.29" x2="304.29" y2="226.24"/><polyline class="cls-2" points="297.57 243.3 299.25 242.13 300.41 240.71 301.05 239.29"/><line class="cls-2" x1="247.17" y1="272.37" x2="297.57" y2="243.3"/><polyline class="cls-2" points="242.14 274.18 244.85 273.4 247.17 272.37"/><line class="cls-2" x1="222.24" y1="277.67" x2="242.14" y2="274.18"/><polyline class="cls-2" points="211.64 276.25 213.97 277.15 216.55 277.8 219.39 277.93 222.24 277.67"/><line class="cls-2" x1="163.45" y1="248.34" x2="211.64" y2="276.25"/><polyline class="cls-2" points="160.86 242.26 160.47 243.94 160.73 245.49 161.77 247.04 163.45 248.34"/><line class="cls-2" x1="167.06" y1="230.76" x2="160.86" y2="242.26"/><polyline class="cls-2" points="170.17 227.79 168.23 229.21 167.06 230.76"/><line class="cls-2" x1="220.43" y1="198.72" x2="170.17" y2="227.79"/><polyline class="cls-2" points="227.41 196.78 224.82 197.17 222.5 197.82 220.43 198.72"/><line class="cls-2" x1="250.02" y1="194.84" x2="227.41" y2="196.78"/><polyline class="cls-2" points="256.99 195.75 254.8 195.1 252.47 194.84 250.02 194.84"/><polyline class="cls-2" points="301.96 223.01 302.99 224.17 303.51 225.47 303.51 226.89"/><line class="cls-2" x1="303.51" y1="226.89" x2="304.29" y2="226.24"/><polyline class="cls-2" points="230.38 330.26 231.15 330.51 231.93 330.51 232.7 330.26"/><polyline class="cls-2" points="409.2 227.79 409.07 228.31 408.56 228.7"/><polyline class="cls-2" points="408.56 228.7 233.22 330 232.7 330.26"/><polyline class="cls-2" points="233.22 330 232.19 330.26 230.89 330.26 229.86 330"/><polyline class="cls-2" points="37.08 218.62 229.86 330 230.38 330.26"/><polyline class="cls-2" points="37.08 218.62 30.36 214.48 24.16 209.96 18.73 205.18 13.82 200.14 9.69 194.97 6.33 189.68 3.61 184.12 1.68 178.43 .51 172.75 .12 167.06"/><polyline class="cls-2" points="408.56 220.17 409.2 219.52 409.2 218.75 408.56 218.1"/><polyline class="cls-2" points="215.26 106.46 407.91 217.84 408.56 218.1"/><line class="cls-2" x1="407.91" y1="219.14" x2="408.56" y2="220.17"/><polyline class="cls-2" points="407.91 217.84 408.3 218.23 408.3 218.75 407.91 219.14"/><line class="cls-2" x1="232.7" y1="320.31" x2="233.22" y2="321.34"/><line class="cls-2" x1="233.22" y1="321.34" x2="408.56" y2="220.17"/><line class="cls-2" x1="407.91" y1="219.14" x2="232.7" y2="320.31"/><line class="cls-2" x1="230.38" y1="320.31" x2="229.86" y2="321.34"/><polyline class="cls-2" points="229.86 321.34 230.89 321.6 232.19 321.6 233.22 321.34"/><polyline class="cls-2" points="232.7 320.31 231.93 320.57 231.15 320.57 230.38 320.31"/><line class="cls-2" x1="37.73" y1="209.06" x2="37.08" y2="209.96"/><line class="cls-2" x1="37.08" y1="209.96" x2="229.86" y2="321.34"/><line class="cls-2" x1="230.38" y1="320.31" x2="37.73" y2="209.06"/><line class="cls-2" x1="7.62" y1="134.37" x2="6.84" y2="134.89"/><polyline class="cls-2" points="6.84 134.89 4 140.45 1.93 146.13 .64 151.95 .12 157.63 .38 163.45 1.42 169.26 3.36 174.95 6.07 180.5 9.43 186.06 13.56 191.36 18.47 196.39 24.03 201.18 30.23 205.7 37.08 209.96"/><polyline class="cls-2" points="37.73 209.06 30.88 204.79 24.67 200.27 19.25 195.49 14.34 190.45 10.2 185.15 6.84 179.73 4.13 174.17 2.32 168.48 1.16 162.8 .9 156.99 1.42 151.3 2.71 145.61 4.78 139.93 7.62 134.37"/><polyline class="cls-2" points="7.62 134.37 8.01 133.99 7.36 134.37 6.84 134.89"/><line class="cls-2" x1="8.01" y1="133.99" x2="33.72" y2="119.13"/><polyline class="cls-2" points="67.57 99.62 85.27 89.41 85.92 89.15"/><polyline class="cls-2" points="85.92 89.15 95.48 87.47 105.3 86.31 115.12 85.53 125.2 85.27 135.15 85.4 145.1 86.05 154.92 87.21 164.48 88.76 173.91 90.7 182.96 93.03 191.74 95.87 200.01 99.1 207.89 102.59 215.26 106.46"/><polyline class="cls-2" points="48.45 108.66 44.7 110.86 41.21 113.18 37.85 115.64 34.75 118.22 31.91 120.94 29.2 123.65 26.87 126.36 24.67 129.21 22.74 132.18 21.06 135.15 19.64 138.12 18.47 141.09 17.57 144.19 16.92 147.29 16.53 150.4 16.41 153.5 16.53 156.6 16.92 159.7 17.57 162.8 18.47 165.9 19.64 169 21.19 171.97 22.87 174.95 24.8 177.79 27 180.63 29.33 183.47 32.04 186.19 34.88 188.77 37.98 191.36 41.34 193.81 44.83 196.14 48.58 198.33"/><line class="cls-2" x1="49.22" y1="197.43" x2="48.58" y2="198.33"/><line class="cls-2" x1="384.91" y1="212.8" x2="385.56" y2="213.19"/><line class="cls-2" x1="48.58" y1="198.33" x2="229.86" y2="302.99"/><line class="cls-2" x1="229.86" y1="302.99" x2="230.38" y2="301.96"/><polyline class="cls-2" points="229.86 302.99 230.89 303.38 232.19 303.38 233.22 302.99"/><line class="cls-2" x1="233.22" y1="302.99" x2="232.7" y2="301.96"/><line class="cls-2" x1="385.56" y1="215.13" x2="384.91" y2="214.1"/><line class="cls-2" x1="233.22" y1="302.99" x2="385.56" y2="215.13"/><polyline class="cls-2" points="385.56 215.13 386.08 214.48 386.08 213.71 385.56 213.19"/><line class="cls-2" x1="161.64" y1="243.04" x2="160.86" y2="242.26"/><polyline class="cls-2" points="164.09 248.72 162.54 247.43 161.51 246.14 161.25 244.59 161.64 243.04"/><line class="cls-2" x1="167.84" y1="231.54" x2="167.06" y2="230.76"/><line class="cls-2" x1="161.64" y1="243.04" x2="167.84" y2="231.54"/><line class="cls-2" x1="170.68" y1="228.83" x2="170.17" y2="227.79"/><polyline class="cls-2" points="167.84 231.54 169 230.12 170.68 228.83"/><line class="cls-2" x1="221.07" y1="199.75" x2="220.43" y2="198.72"/><line class="cls-2" x1="170.68" y1="228.83" x2="221.07" y2="199.75"/><line class="cls-2" x1="227.53" y1="197.94" x2="227.41" y2="196.78"/><polyline class="cls-2" points="221.07 199.75 223.01 198.85 225.21 198.2 227.53 197.94"/><line class="cls-2" x1="250.15" y1="196.01" x2="250.02" y2="194.84"/><line class="cls-2" x1="227.53" y1="197.94" x2="250.15" y2="196.01"/><polyline class="cls-2" points="250.15 196.01 252.47 196.01 254.67 196.27 256.74 196.91"/><line class="cls-2" x1="300.28" y1="239.81" x2="301.05" y2="239.29"/><line class="cls-2" x1="303.51" y1="226.89" x2="300.28" y2="239.81"/><polyline class="cls-2" points="300.28 239.81 299.63 241.23 298.6 242.52 297.05 243.69"/><line class="cls-2" x1="238.26" y1="166.03" x2="237.87" y2="166.55"/><polyline class="cls-2" points="237.87 166.55 237.48 171.33 236.45 175.98 234.77 180.5 232.44 184.89"/><line class="cls-2" x1="237.87" y1="166.55" x2="238.26" y2="166.03"/><polyline class="cls-2" points="237.87 166.55 237.87 166.55 238 166.16"/><line class="cls-2" x1="265.39" y1="159.83" x2="264.62" y2="160.47"/><polyline class="cls-2" points="264.62 160.47 264.23 161.51 263.45 162.54 262.42 163.32"/><line class="cls-2" x1="265.39" y1="145.74" x2="264.62" y2="146.52"/><polyline class="cls-2" points="264.62 146.52 265.01 151.17 265.01 155.82 264.62 160.47"/><line class="cls-2" x1="254.41" y1="140.83" x2="254.54" y2="142"/><polyline class="cls-2" points="254.54 142 256.87 142 259.19 142.26 261.26 143.03 262.94 143.94 264.1 145.1 264.62 146.52"/><line class="cls-2" x1="235.16" y1="142.64" x2="235.29" y2="143.81"/><line class="cls-2" x1="235.29" y1="143.81" x2="254.54" y2="142"/><line class="cls-2" x1="233.22" y1="142" x2="232.44" y2="142.64"/><polyline class="cls-2" points="232.44 142.64 232.83 143.16 233.48 143.55 234.25 143.81 235.29 143.81"/><line class="cls-2" x1="235.29" y1="143.81" x2="235.16" y2="142.64"/><line class="cls-2" x1="235.29" y1="143.81" x2="235.29" y2="143.81"/><polyline class="cls-2" points="50 197.17 45.74 194.59 41.73 191.74 37.98 188.9 34.49 185.8 31.39 182.57 28.55 179.34 26.1 175.98 24.03 172.62 22.22 169.13 20.8 165.51 19.76 161.9 19.12 158.28 18.86 154.66 18.86 151.04 19.25 147.42 20.15 143.81 21.32 140.19 22.74 136.7 24.67 133.21 26.87 129.85 29.46 126.49 32.3 123.26 35.53 120.16 39.15 117.19 42.89 114.22 47.03 111.5 51.42 108.92 56.07 106.46 60.98 104.14 66.15 101.94 71.45 100 76.88 98.32 82.56 96.64 88.5 95.35 94.45 94.19 100.52 93.16 106.59 92.38 112.93 91.86 119.13 91.48 125.46 91.35 131.79 91.35 137.99 91.73 144.32 92.12 150.4 92.9 156.6 93.8 162.54 94.96 168.49 96.26 174.17 97.81 179.73 99.49 185.15 101.3 190.32 103.36 195.23 105.69 200.01 108.01 204.41 110.6 208.67 113.31 212.55 116.15 216.16 119.13 219.52 122.23 222.5 125.46 225.21 128.82 227.53 132.18 229.6 135.67 231.15 139.15 232.44 142.64"/><line class="cls-2" x1="232.44" y1="142.64" x2="233.22" y2="142"/><line class="cls-2" x1="232.44" y1="142.64" x2="232.44" y2="142.64"/><line class="cls-2" x1="48.45" y1="108.66" x2="48.97" y2="108.27"/><line class="cls-2" x1="203.76" y1="108.14" x2="203.76" y2="108.14"/><line class="cls-2" x1="238" y1="166.16" x2="238.39" y2="165.77"/><polyline class="cls-2" points="151.82 234.77 153.63 233.99 155.82 233.61 158.02 233.74 159.96 234.25 161.51 235.16 162.54 236.32 162.67 237.61 162.15 238.9 160.86 239.94 159.05 240.71 156.86 240.97 154.66 240.84 152.59 240.33 151.04 239.42 150.14 238.26 149.88 236.97 150.53 235.8 151.82 234.77"/><polyline class="cls-2" points="232.32 188.25 234.12 187.48 236.32 187.09 238.52 187.22 240.58 187.74 242.14 188.64 243.04 189.8 243.3 191.1 242.65 192.39 241.49 193.42 239.55 194.2 237.48 194.46 235.29 194.33 233.22 193.81 231.67 192.91 230.76 191.74 230.51 190.45 231.02 189.29 232.32 188.25"/><polyline class="cls-2" points="150.01 238 150.78 236.84 152.21 235.8 154.14 235.16 156.34 234.9 158.54 235.16 160.47 235.8 161.9 236.84 162.67 238"/><polyline class="cls-2" points="159.7 240.45 158.92 239.81 157.76 239.29 156.34 239.03 154.92 239.29 153.76 239.81 152.98 240.45"/><polyline class="cls-2" points="158.92 240.71 157.76 240.2 156.34 239.94 154.92 240.2 153.63 240.71"/><polyline class="cls-2" points="230.64 191.48 231.41 190.32 232.83 189.29 234.77 188.64 236.84 188.38 239.03 188.64 240.97 189.29 242.39 190.32 243.17 191.48"/><polyline class="cls-2" points="240.2 193.94 239.55 193.29 238.39 192.78 236.84 192.52 235.42 192.78 234.25 193.29 233.61 193.94"/><polyline class="cls-2" points="239.55 194.2 238.39 193.68 236.84 193.42 235.42 193.68 234.25 194.2"/><polyline class="cls-2" points="277.28 194.2 275.08 195.1 272.63 195.75 269.92 195.75 267.2 195.49 264.75 194.71 262.94 193.55 261.52 192.26 261 190.71 261.13 189.16 262.16 187.61 263.71 186.45 265.91 185.41 268.49 184.89 271.21 184.77 273.92 185.15 276.25 185.93 278.18 186.96 279.48 188.38 280.12 189.93 279.86 191.48 278.96 192.91 277.28 194.2"/><polyline class="cls-2" points="319.02 218.23 316.82 219.26 314.23 219.78 311.52 219.91 308.94 219.52 306.48 218.75 304.54 217.71 303.25 216.29 302.73 214.74 302.86 213.19 303.9 211.77 305.45 210.48 307.64 209.57 310.23 208.93 312.94 208.93 315.66 209.19 317.98 209.96 319.92 211.12 321.21 212.42 321.86 213.97 321.6 215.52 320.69 217.07 319.02 218.23"/><polyline class="cls-2" points="278.06 221.2 275.86 222.11 273.27 222.62 270.56 222.75 267.85 222.49 265.52 221.72 263.58 220.56 262.29 219.26 261.78 217.71 261.9 216.16 262.81 214.61 264.49 213.45 266.69 212.42 269.27 211.9 271.98 211.77 274.57 212.16 277.02 212.93 278.96 213.97 280.25 215.39 280.77 216.94 280.64 218.49 279.61 219.91 278.06 221.2"/><polyline class="cls-2" points="303.12 216.03 304.29 214.61 306.09 213.45 308.29 212.67 310.87 212.29 313.59 212.29 316.17 212.67 318.5 213.45 320.18 214.61 321.34 216.03"/><polyline class="cls-2" points="315.01 219.65 313.72 219.26 312.3 219.14 310.75 219.26 309.45 219.65"/><polyline class="cls-2" points="261.39 192 262.55 190.58 264.36 189.42 266.56 188.64 269.14 188.12 271.85 188.12 274.44 188.64 276.76 189.42 278.44 190.58 279.61 192"/><polyline class="cls-2" points="273.27 195.62 271.98 195.23 270.56 195.1 269.01 195.23 267.72 195.62"/><polyline class="cls-2" points="275.6 222.24 275.86 221.07 275.21 220.04 273.92 219.26 272.24 218.75 270.3 218.75 268.49 219.26 267.33 220.04 266.69 221.07 266.94 222.24"/><line class="cls-2" x1="260.48" y1="201.56" x2="298.6" y2="223.53"/><polyline class="cls-2" points="301.96 225.6 302.73 226.5 303.38 227.4"/><line class="cls-2" x1="294.85" y1="243.3" x2="228.18" y2="204.92"/><line class="cls-2" x1="174.95" y1="235.67" x2="241.62" y2="274.05"/><line class="cls-2" x1="221.07" y1="202.47" x2="221.07" y2="199.75"/><polyline class="cls-2" points="221.2 202.34 223.01 201.43 225.21 200.92 227.53 200.53"/><line class="cls-2" x1="227.53" y1="197.94" x2="227.53" y2="200.53"/><line class="cls-2" x1="170.68" y1="228.83" x2="170.68" y2="231.54"/><line class="cls-2" x1="170.68" y1="231.54" x2="206.47" y2="210.87"/><line class="cls-2" x1="167.84" y1="231.54" x2="167.84" y2="234.25"/><polyline class="cls-2" points="167.84 234.25 169 232.7 170.68 231.54"/><line class="cls-2" x1="161.64" y1="243.04" x2="161.64" y2="245.75"/><polyline class="cls-2" points="161.51 246.14 161.64 245.75 167.84 234.25"/><polyline class="cls-2" points="250.15 198.72 252.47 198.72 254.67 198.98 256.74 199.5"/><line class="cls-2" x1="227.53" y1="200.53" x2="250.15" y2="198.72"/><line class="cls-2" x1="174.43" y1="233.74" x2="210.22" y2="212.93"/><line class="cls-2" x1="250.15" y1="196.01" x2="250.15" y2="198.72"/><line class="cls-2" x1="230.25" y1="217.71" x2="229.73" y2="216.68"/><polyline class="cls-2" points="158.28 240.84 158.28 240.84 158.54 240.45"/><polyline class="cls-2" points="156.99 240.97 156.47 240.45 155.95 240.33 155.31 240.45 154.66 240.97"/><line class="cls-2" x1="286.07" y1="249.89" x2="230.25" y2="217.71"/><polyline class="cls-2" points="48.84 202.85 45.35 200.66 41.86 198.46 38.5 196.01 35.4 193.42 32.43 190.84 29.84 188.12 27.39 185.41 25.32 182.83 23.38 180.11 21.7 177.27 20.28 174.3 18.99 171.33 17.96 168.23 17.18 165.13 16.66 162.02 16.53 159.05"/><line class="cls-2" x1="385.56" y1="219.39" x2="233.22" y2="307.39"/><line class="cls-2" x1="229.86" y1="307.39" x2="48.84" y2="202.85"/><line class="cls-2" x1="37.08" y1="218.62" x2="37.08" y2="209.96"/><line class="cls-2" x1=".12" y1="158.41" x2=".12" y2="167.06"/><line class="cls-2" x1="295.63" y1="244.46" x2="294.85" y2="243.3"/><line class="cls-2" x1="227.15" y1="205.57" x2="228.18" y2="204.92"/><polyline class="cls-2" points="228.18 204.92 227.41 204.53 226.5 204.41 225.73 204.28 224.95 204.53"/><line class="cls-2" x1="294.85" y1="243.3" x2="295.89" y2="244.2"/><line class="cls-2" x1="241.62" y1="274.05" x2="241.75" y2="274.18"/><polyline class="cls-2" points="174.43 233.74 174.04 234.12 174.04 234.64 174.3 235.16 174.95 235.67"/><line class="cls-2" x1="224.18" y1="205.05" x2="224.82" y2="204.66"/><polyline class="cls-2" points="224.18 205.05 224.43 205.05 224.69 205.05 225.73 205.18 226.5 205.31 227.15 205.57"/><line class="cls-2" x1="174.17" y1="233.87" x2="174.43" y2="233.74"/><line class="cls-2" x1="227.15" y1="205.57" x2="227.92" y2="206.09"/><line class="cls-2" x1="220.82" y1="203.11" x2="220.94" y2="203.24"/><line class="cls-2" x1="209.96" y1="213.32" x2="209.96" y2="213.32"/><line class="cls-2" x1="224.18" y1="205.05" x2="224.18" y2="205.05"/><line class="cls-2" x1="174.04" y1="234.25" x2="208.28" y2="214.35"/><polyline class="cls-2" points="227.92 206.09 228.83 206.86 229.47 207.89 229.73 209.06"/><line class="cls-2" x1="229.73" y1="209.06" x2="229.73" y2="216.68"/><polyline class="cls-2" points="113.7 262.94 106.85 266.43 100.26 269.79 94.32 272.76 88.63 275.47 83.59 278.06 79.07 280.12 75.2 281.93 71.97 283.35 69.25 284.52 67.31 285.16 66.02 285.55 65.38 285.55"/><polyline class="cls-2" points="60.98 282.06 61.63 282.06 62.92 281.67 64.86 281.03 67.44 279.99 70.67 278.57 74.55 276.76 78.94 274.7 83.85 272.24 89.41 269.53 95.35 266.56 101.68 263.33 108.53 259.84"/><polyline class="cls-2" points="102.07 256.22 95.61 259.58 89.41 262.68 83.59 265.52 78.43 268.11 73.65 270.43 69.38 272.37 65.76 274.05 62.79 275.34 60.34 276.38 58.53 276.89 57.37 277.15 56.98 277.02"/><polyline class="cls-2" points="116.16 264.23 111.12 266.81 106.34 269.27 101.81 271.59 97.42 273.79 93.41 275.86 89.54 277.67 86.05 279.35 82.82 280.9 79.98 282.19 77.39 283.35 75.07 284.39 73.13 285.16 71.45 285.68 70.03 286.2 68.61 286.45 67.44 286.45 66.54 286.2 65.38 285.55"/><polyline class="cls-2" points="60.98 282.06 58.79 279.86 56.98 277.02"/><line class="cls-2" x1="408.56" y1="220.17" x2="408.56" y2="228.7"/><polyline class="cls-2" points="386.2 218.49 386.08 219.01 385.56 219.39"/><polyline class="cls-2" points="233.22 307.39 232.19 307.64 230.89 307.64 229.86 307.39"/><line class="cls-2" x1="229.86" y1="302.99" x2="229.86" y2="307.39"/><line class="cls-2" x1="233.22" y1="307.39" x2="233.22" y2="302.99"/><line class="cls-2" x1="235.55" y1="144.84" x2="235.29" y2="143.81"/><line class="cls-2" x1="233.09" y1="145.1" x2="232.44" y2="142.64"/><line class="cls-2" x1="385.56" y1="215.13" x2="385.56" y2="219.39"/><line class="cls-2" x1="233.22" y1="330" x2="233.22" y2="321.34"/><line class="cls-2" x1="229.86" y1="321.34" x2="229.86" y2="330"/><line class="cls-2" x1="409.2" y1="227.79" x2="409.2" y2="219.14"/><line class="cls-2" x1="386.2" y1="214.1" x2="386.2" y2="218.49"/><polyline class="cls-2" points="88.5 93.67 87.99 93.03 88.12 92.51 89.02 92.12 90.06 92.12 90.96 92.51 91.09 93.16"/><polyline class="cls-2" points="261.9 139.54 262.94 139.28 263.97 139.41 264.62 139.93 264.49 140.58 263.71 140.96 262.68 140.96 261.78 140.7 261.52 140.06 261.9 139.54"/><polyline class="cls-2" points="397.57 217.84 398.61 217.58 399.64 217.71 400.29 218.23 400.16 218.88 399.38 219.26 398.35 219.39 397.45 219.01 397.19 218.36 397.57 217.84"/><polyline class="cls-2" points="230.38 314.36 231.41 314.1 232.44 314.23 233.09 314.75 232.96 315.4 232.19 315.78 231.15 315.91 230.25 315.53 229.99 314.88 230.38 314.36"/><polyline class="cls-2" points="94.71 236.06 95.74 235.8 96.77 235.93 97.42 236.45 97.29 237.1 96.52 237.48 95.48 237.61 94.58 237.22 94.32 236.58 94.71 236.06"/><polyline class="cls-2" points="13.05 135.79 13.95 135.54 14.98 135.67 15.63 136.18 15.63 136.83 14.85 137.35 13.69 137.35 12.79 136.96 12.53 136.44 13.05 135.79"/><line class="cls-2" x1="48.84" y1="202.85" x2="48.58" y2="198.33"/><line class="cls-2" x1="221.07" y1="202.47" x2="221.2" y2="202.34"/><line class="cls-2" x1="206.47" y1="210.87" x2="206.73" y2="210.74"/><polyline class="cls-2" points="220.94 203.24 220.82 202.85 221.07 202.47"/><line class="cls-2" x1="224.82" y1="204.66" x2="224.95" y2="204.53"/><line class="cls-2" x1="224.95" y1="204.53" x2="221.2" y2="202.34"/><line class="cls-2" x1="220.94" y1="203.24" x2="224.18" y2="205.05"/><polyline class="cls-2" points="224.18 205.05 224.3 204.92 224.82 204.66"/><line class="cls-2" x1="206.47" y1="210.87" x2="210.22" y2="212.93"/><polyline class="cls-2" points="210.22 212.93 210.48 212.93 209.96 213.32"/><line class="cls-2" x1="206.73" y1="210.74" x2="210.48" y2="212.93"/><polyline class="cls-2" points="206.99 211 207.51 210.35 208.02 209.96"/><polyline class="cls-2" points="219.65 203.24 220.3 202.98 220.82 203.11"/><polyline class="cls-2" points="208.28 214.35 209.19 213.84 209.96 213.32"/><line class="cls-2" x1="224.18" y1="205.05" x2="224.18" y2="205.05"/><line class="cls-2" x1="208.02" y1="209.96" x2="219.65" y2="203.24"/><line class="cls-2" x1="264.62" y1="146.52" x2="264.62" y2="149.1"/><line class="cls-2" x1="265.13" y1="154.79" x2="264.62" y2="149.1"/><line class="cls-2" x1="254.54" y1="142" x2="254.54" y2="143.03"/><line class="cls-2" x1="264.62" y1="149.1" x2="264.1" y2="147.94"/><polyline class="cls-2" points="102.33 213.84 108.79 210.22 115.25 206.6 121.97 202.98 128.69 199.24"/><polyline class="cls-2" points="146 189.8 153.5 185.8 160.86 181.79 168.1 178.05 175.2 174.3 182.05 170.68 188.64 167.32 194.84 164.09 200.79 161.12 206.34 158.28 211.38 155.82 216.03 153.63 220.17 151.56"/><polyline class="cls-2" points="70.8 238.13 65.25 240.84 60.21 243.3 55.69 245.49 51.94 247.17 48.71 248.6 46.12 249.63 44.19 250.27 43.02 250.53 42.51 250.53"/><line class="cls-2" x1="16.53" y1="159.05" x2="16.41" y2="153.63"/><polyline class="cls-2" points="42.51 250.53 37.6 240.97 33.2 231.28 29.2 221.33 25.71 211.12"/><polyline class="cls-2" points="295.63 229.73 294.47 230.12 293.04 230.12 291.88 229.6 291.36 228.83 291.75 228.05 292.66 227.4 294.08 227.28 295.37 227.53 296.27 228.18 296.4 229.08 295.63 229.73"/><polyline class="cls-2" points="220.82 276.25 219.65 276.63 218.23 276.63 217.07 276.12 216.55 275.34 216.94 274.57 217.84 273.92 219.27 273.79 220.56 274.05 221.46 274.7 221.59 275.6 220.82 276.25"/><polyline class="cls-2" points="172.62 248.47 171.46 248.85 170.04 248.72 168.87 248.21 168.36 247.56 168.74 246.66 169.65 246.14 171.07 246.01 172.36 246.27 173.27 246.92 173.4 247.69 172.62 248.47"/><polyline class="cls-2" points="253.25 205.18 251.96 205.57 250.53 205.57 249.5 205.05 248.98 204.28 249.24 203.5 250.28 202.98 251.7 202.73 252.99 203.11 253.76 203.76 253.89 204.53 253.25 205.18"/><polyline class="cls-2" points="148.97 288.39 147.3 287.23 145.74 285.68 144.32 283.74 143.29 281.67 142.51 279.48"/><polyline class="cls-2" points="201.05 318.5 199.37 317.46 148.97 288.39"/><polyline class="cls-2" points="205.83 316.04 205.05 317.33 203.89 318.11 202.47 318.37 200.92 318.24 199.37 317.46"/><polyline class="cls-2" points="201.05 318.5 202.86 319.27 204.66 319.66 206.21 319.53 207.51 318.76 208.54 317.72"/><polyline class="cls-2" points="254.54 150.78 253.63 150.14 253.51 149.36 254.02 148.59 255.31 148.2 256.61 148.2 257.9 148.59 258.42 149.36 258.29 150.14 257.38 150.78"/><polyline class="cls-2" points="254.54 163.83 253.63 163.19 253.51 162.41 254.02 161.77 255.31 161.25 256.61 161.25 257.9 161.77 258.42 162.41 258.29 163.19 257.38 163.83"/><line class="cls-2" x1="209.06" y1="317.98" x2="207.12" y2="319.01"/><line class="cls-2" x1="42.51" y1="250.53" x2="56.98" y2="277.02"/><line class="cls-2" x1="65.38" y1="285.55" x2="60.98" y2="282.06"/><polyline class="cls-2" points="186.7 242.39 188.9 241.1 190.45 240.07 191.48 239.42 191.74 239.03"/><polyline class="cls-2" points="182.05 239.81 184.77 238.26 186.83 236.97 188.25 235.93 189.16 235.29 189.42 234.9"/><polyline class="cls-2" points="180.63 238.9 183.09 237.48 185.15 236.32 186.83 235.29 188 234.51 188.64 233.99 188.77 233.74"/><polyline class="cls-2" points="182.05 239.81 184.77 238.26 186.83 236.97 188.25 235.93 189.16 235.29 189.42 234.9"/><polyline class="cls-2" points="180.63 238.9 183.09 237.48 185.15 236.32 186.7 235.29 187.87 234.51 188.64 233.99 188.77 233.74"/><polyline class="cls-2" points="139.8 192.78 139.54 192.91 138.9 193.29 137.86 193.94 136.57 194.59 135.54 195.23 134.76 195.62 134.5 195.62"/><polyline class="cls-2" points="139.03 192.65 137.99 193.16 136.7 193.94 135.41 194.59 134.63 195.1 134.5 195.23 134.89 194.97 135.92 194.46 137.22 193.81 138.51 193.16 139.28 192.65 139.41 192.52 139.03 192.65"/><polyline class="cls-2" points="180.63 238.9 183.47 237.22 185.8 235.93 187.48 234.77 188.51 234.12 188.77 233.74"/><polyline class="cls-2" points="182.05 239.81 184.64 238.26 186.7 236.97 188.25 235.93 189.16 235.29 189.42 235.03"/><polyline class="cls-2" points="185.41 227.53 188.77 233.74 189.42 234.9 191.74 239.03"/><line class="cls-2" x1="139.8" y1="192.78" x2="139.93" y2="192.91"/><line class="cls-2" x1="134.5" y1="195.62" x2="134.63" y2="195.88"/><line class="cls-2" x1="139.41" y1="192.52" x2="139.8" y2="192.78"/><line class="cls-2" x1="134.5" y1="195.23" x2="134.5" y2="195.62"/><polyline class="cls-2" points="185.93 210.22 178.69 212.03 171.33 213.71 163.83 215.39 156.34 217.2"/><line class="cls-2" x1="185.93" y1="210.22" x2="191.87" y2="206.86"/><polyline class="cls-2" points="152.85 217.33 157.89 215.91 162.8 214.61 167.84 213.32 172.75 212.03 177.66 210.87 182.57 209.57 187.22 208.28 191.87 206.86"/><polyline class="cls-2" points="237.74 169 236.06 172.62 233.87 176.75 231.28 181.28 228.18 185.93"/><polyline class="cls-2" points="222.11 189.29 224.95 186.32 227.41 183.21 229.6 180.11 231.41 177.14 233.09 174.3 234.51 171.72 235.67 169.26 236.71 167.19"/><line class="cls-2" x1="222.11" y1="189.29" x2="228.18" y2="185.93"/><line class="cls-2" x1="225.73" y1="188.77" x2="228.18" y2="185.93"/><line class="cls-2" x1="185.93" y1="210.22" x2="190.97" y2="208.8"/><line class="cls-2" x1="219.39" y1="192" x2="222.11" y2="189.29"/><polyline class="cls-2" points="196.52 205.18 202.86 202.34 208.8 199.11 214.36 195.62 219.39 192"/><line class="cls-2" x1="191.87" y1="206.86" x2="196.52" y2="205.18"/><polyline class="cls-2" points="232.57 184.64 229.34 186.7 225.73 188.77 221.07 192.78 215.91 196.52 210.35 200.01 204.28 203.24 197.82 206.21 190.97 208.8 186.45 211.38 181.66 214.1"/><polyline class="cls-2" points="189.55 185.02 196.14 181.66 202.34 178.56 208.15 175.59 213.58 172.88 218.62 170.29 223.27 168.1"/><polyline class="cls-2" points="195.36 184.51 201.69 181.28 207.64 178.18 213.19 175.46 218.23 172.88 222.88 170.68 227.02 168.74"/><polyline class="cls-2" points="224.05 194.2 218.23 197.56 212.03 201.18 205.44 205.05 198.33 209.06"/><polyline class="cls-2" points="134.5 195.75 133.86 196.14 133.99 196.14 134.63 195.88 135.8 195.23 137.35 194.46 138.77 193.68 139.93 193.03 140.58 192.52 139.93 192.78"/><polyline class="cls-2" points="139.67 192.65 141.61 191.61 143.16 190.97 144.06 190.45 144.45 190.45 144.06 190.71 143.03 191.36 141.48 192.26 139.54 193.42 137.35 194.59 135.15 195.75 133.21 196.78 131.53 197.56 130.5 198.07 130.11 198.2 130.24 198.07 131.14 197.43 132.57 196.65 134.5 195.49"/><polyline class="cls-2" points="128.17 199.75 128.43 199.75 129.33 199.37 130.76 198.72 132.69 197.69 135.15 196.39 137.6 195.1 140.19 193.68 142.39 192.39 144.32 191.23 145.74 190.45 146.52 189.93 146.65 189.68"/><polyline class="cls-2" points="128.17 199.75 128.69 199.24 128.95 198.98 129.46 198.59 129.98 198.2 131.14 197.43 132.69 196.52 134.5 195.49"/><polyline class="cls-2" points="139.67 192.65 141.61 191.74 143.16 190.97 144.45 190.32 145.1 190.06 145.62 189.93 146 189.8 146.65 189.68"/><line class="cls-2" x1="206.6" y1="199.88" x2="207.12" y2="200.01"/><polyline class="cls-2" points="200.53 203.37 199.75 203.11 199.5 202.47 199.88 201.82 200.79 201.18 202.21 200.53 203.76 200.14 205.31 199.88 206.6 199.88"/><polyline class="cls-2" points="199.5 202.73 200.01 201.82 201.05 201.05 202.47 200.66 204.15 200.53 205.7 200.79"/><polyline class="cls-2" points="216.94 193.81 215.91 193.68 215.26 193.42 215.13 193.03 215.39 192.65 216.29 192.13 217.46 191.61 218.88 191.36 220.3 191.1"/><polyline class="cls-2" points="215.13 193.16 215.52 192.52 216.55 192.13 217.84 191.87 219.39 191.87"/><line class="cls-2" x1="148.46" y1="193.55" x2="150.14" y2="192.65"/><polyline class="cls-2" points="154.53 196.14 153.88 194.59 152.72 193.42 151.43 192.78 150.14 192.65 151.43 192.39 152.72 192.26 155.18 192.26 157.37 192.39 159.31 192.65 161.12 193.03 162.54 193.55 163.58 194.2 163.7 194.71 163.58 194.97 163.19 195.23 162.54 195.49 161.9 195.75 160.6 196.01 158.02 196.27 155.69 196.14 153.63 196.01 151.69 195.62 150.14 195.23 148.85 194.59 148.46 194.07 148.46 193.55"/><polyline class="cls-2" points="153.11 195.88 152.46 194.84 151.3 194.2 150.27 194.2 149.36 194.84"/><line class="cls-2" x1="146.65" y1="189.68" x2="229.08" y2="180.89"/><line class="cls-2" x1="128.17" y1="199.75" x2="115.77" y2="215.13"/><line class="cls-2" x1="226.5" y1="168.23" x2="226.5" y2="168.36"/><line class="cls-2" x1="226.5" y1="168.36" x2="236.19" y2="168.23"/><line class="cls-2" x1="236.32" y1="167.97" x2="226.5" y2="168.23"/><polyline class="cls-2" points="219.52 166.81 221.59 167.71 223.92 168.23 226.5 168.36"/><polyline class="cls-2" points="226.5 168.23 223.79 167.97 221.2 167.45 219.01 166.55 217.33 165.25 216.29 163.83 215.91 162.28"/><line class="cls-2" x1="221.2" y1="149.62" x2="216.42" y2="158.54"/><polyline class="cls-2" points="216.42 158.54 215.91 160.22 216.29 161.77 217.33 163.19 219.01 164.48 221.2 165.38 223.79 166.03 226.5 166.16"/><line class="cls-2" x1="226.5" y1="166.16" x2="238.26" y2="165.9"/><line class="cls-2" x1="263.84" y1="162.02" x2="264.1" y2="161.38"/><line class="cls-2" x1="256.22" y1="164.74" x2="256.22" y2="164.48"/><line class="cls-2" x1="256.22" y1="164.48" x2="226.5" y2="165"/><line class="cls-2" x1="226.5" y1="165" x2="226.5" y2="166.16"/><line class="cls-2" x1="264.1" y1="161.38" x2="263.33" y2="160.6"/><polyline class="cls-2" points="263.33 160.6 262.81 161.77 261.78 162.8 260.22 163.7 258.29 164.22 256.22 164.48"/><line class="cls-2" x1="264.1" y1="147.42" x2="263.33" y2="146.78"/><polyline class="cls-2" points="263.33 146.78 263.71 151.43 263.71 155.95 263.33 160.6"/><polyline class="cls-2" points="264.1 161.38 264.49 156.73 264.49 152.08 264.1 147.42"/><polyline class="cls-2" points="254.8 143.03 257.12 143.03 259.45 143.42 261.39 144.32 262.68 145.49 263.33 146.78"/><polyline class="cls-2" points="264.1 147.42 263.71 146.39 262.94 145.36 261.78 144.45"/><line class="cls-2" x1="229.34" y1="145.36" x2="254.8" y2="143.03"/><line class="cls-2" x1="221.2" y1="149.62" x2="221.98" y2="149.1"/><polyline class="cls-2" points="221.98 149.1 223.01 147.81 224.69 146.65 226.89 145.87 229.34 145.36"/><polyline class="cls-2" points="223.66 147.29 222.24 148.33 221.2 149.62"/><line class="cls-2" x1="216.42" y1="158.54" x2="217.2" y2="158.02"/><line class="cls-2" x1="217.2" y1="158.02" x2="221.98" y2="149.1"/><polyline class="cls-2" points="226.5 165 223.92 164.87 221.59 164.35 219.52 163.45 217.97 162.28 217.07 160.99 216.81 159.57 217.2 158.02"/><line class="cls-2" x1="219.52" y1="166.81" x2="218.88" y2="166.42"/><line class="cls-2" x1="261.13" y1="144.19" x2="261.78" y2="144.45"/><line class="cls-2" x1="224.3" y1="146.91" x2="223.66" y2="147.29"/><line class="cls-2" x1="226.5" y1="166.16" x2="226.5" y2="168.23"/><line class="cls-2" x1="264.1" y1="161.38" x2="264.1" y2="161.77"/><line class="cls-2" x1="215.91" y1="160.34" x2="215.91" y2="162.28"/><line class="cls-2" x1="264.62" y1="154.4" x2="264.62" y2="156.08"/><polyline class="cls-2" points="260.48 162.8 258.67 163.58 256.48 163.96 254.28 163.83 252.34 163.32 250.66 162.41 249.76 161.25 249.63 159.96 250.15 158.67 251.44 157.63 253.25 156.86 255.44 156.6 257.64 156.73 259.71 157.24 261.26 158.15 262.16 159.31 262.29 160.6 261.78 161.77 260.48 162.8"/><polyline class="cls-2" points="260.48 149.75 258.67 150.52 256.48 150.78 254.28 150.78 252.34 150.14 250.66 149.23 249.76 148.07 249.63 146.78 250.15 145.61 251.44 144.58 253.25 143.81 255.44 143.42 257.64 143.55 259.71 144.19 261.26 145.1 262.16 146.26 262.29 147.42 261.78 148.72 260.48 149.75"/><polyline class="cls-2" points="259.19 150.4 259.45 149.49 259.06 148.72 258.16 147.94 256.74 147.68 255.19 147.68 253.89 147.94 252.86 148.72 252.47 149.49 252.86 150.4"/><polyline class="cls-2" points="259.19 163.45 259.45 162.67 259.06 161.77 258.16 161.12 256.74 160.73 255.19 160.73 253.89 161.12 252.86 161.77 252.47 162.67 252.86 163.45"/><line class="cls-2" x1="235.16" y1="169.78" x2="235.42" y2="169.78"/><polyline class="cls-2" points="235.03 168.23 234.77 168.23 234.64 168.23"/><polyline class="cls-2" points="234.64 168.23 234.64 168.23 235.16 169.78"/><polyline class="cls-2" points="230.38 168.36 229.47 168.61 228.44 169 227.53 169.26 227.28 169.26"/><polyline class="cls-2" points="230.64 168.36 229.34 168.74 228.05 169.13 227.02 169.39 226.76 169.39 227.28 169.13"/><polyline class="cls-2" points="231.54 169.13 231.15 169.26 230.25 169.65 229.08 170.04 228.05 170.42 227.66 170.42"/><polyline class="cls-2" points="232.06 170.68 231.67 170.81 230.76 171.2 229.6 171.59 228.57 171.84 228.18 171.97"/><line class="cls-2" x1="227.02" y1="168.36" x2="227.28" y2="169.26"/><line class="cls-2" x1="227.66" y1="170.42" x2="226.76" y2="169.39"/><polyline class="cls-2" points="232.06 170.68 231.54 169.13 231.54 168.23"/><line class="cls-2" x1="227.66" y1="170.42" x2="228.18" y2="171.97"/><polyline class="cls-2" points="235.49 73.81 237.17 74.59 239.24 74.98 241.44 74.98 243.5 74.59 245.31 73.81"/><line class="cls-2" x1="245.31" y1="70.58" x2="245.31" y2="73.81"/><polyline class="cls-2" points="235.49 70.58 237.17 71.23 239.24 71.62 241.44 71.62 243.5 71.23 245.31 70.58"/><line class="cls-2" x1="235.49" y1="70.58" x2="235.49" y2="73.81"/><line class="cls-2" x1="177.06" y1="40.2" x2="235.49" y2="73.81"/><line class="cls-2" x1="177.06" y1="36.84" x2="235.49" y2="70.58"/><line class="cls-2" x1="177.06" y1="36.84" x2="177.06" y2="40.2"/><polyline class="cls-2" points="175.12 37.36 175.37 38.39 176.02 39.3 177.06 40.2"/><polyline class="cls-2" points="177.06 31.15 175.89 32.19 175.12 33.35 175.12 34.64 175.89 35.81 177.06 36.84"/><line class="cls-2" x1="226.05" y1="2.97" x2="177.06" y2="31.15"/><polyline class="cls-2" points="235.88 2.97 234.07 2.19 232 1.81 229.93 1.81 227.86 2.19 226.05 2.97"/><line class="cls-2" x1="294.18" y1="36.58" x2="235.88" y2="2.97"/><polyline class="cls-2" points="294.18 45.63 295.34 44.73 295.99 43.82 296.25 42.79"/><polyline class="cls-2" points="294.18 42.27 295.47 41.24 296.12 40.07 296.12 38.78 295.47 37.62 294.18 36.58"/><line class="cls-2" x1="294.18" y1="42.27" x2="294.18" y2="45.63"/><line class="cls-2" x1="245.31" y1="73.81" x2="294.18" y2="45.63"/><line class="cls-2" x1="245.31" y1="70.58" x2="294.18" y2="42.27"/><line class="cls-2" x1="175.12" y1="34" x2="175.12" y2="37.36"/><line class="cls-2" x1="296.25" y1="39.43" x2="296.25" y2="42.79"/><polyline class="cls-2" points="235.62 67.48 236.52 67.74 237.69 67.74 238.59 67.48"/><polyline class="cls-2" points="288.88 38.39 289.4 37.87 289.4 37.23 288.88 36.71"/><line class="cls-2" x1="288.88" y1="36.71" x2="288.88" y2="38.39"/><line class="cls-2" x1="288.88" y1="38.39" x2="289.01" y2="38.26"/><line class="cls-2" x1="289.01" y1="38.39" x2="288.88" y2="38.39"/><line class="cls-2" x1="228.77" y1="8.92" x2="229.93" y2="9.3"/><polyline class="cls-2" points="229.93 9.3 231.22 8.66 232.64 8.01 234.07 7.62 235.62 7.62"/><polyline class="cls-2" points="235.62 7.62 235.1 6.98 234.33 6.59 233.55 6.33 232.77 6.59"/><line class="cls-2" x1="235.62" y1="7.62" x2="235.62" y2="5.94"/><polyline class="cls-2" points="235.62 5.94 234.71 5.68 233.68 5.68 232.77 5.94"/><line class="cls-2" x1="232.77" y1="5.94" x2="232.77" y2="6.59"/><line class="cls-2" x1="182.36" y1="35.68" x2="182.36" y2="35.03"/><line class="cls-2" x1="181.84" y1="36.19" x2="182.36" y2="35.68"/><polyline class="cls-2" points="182.36 35.03 181.84 35.55 181.84 36.19 182.36 36.71"/><line class="cls-2" x1="288.88" y1="38.39" x2="238.59" y2="67.48"/><line class="cls-2" x1="182.36" y1="35.03" x2="232.77" y2="5.94"/><polyline class="cls-2" points="182.36 35.68 225.15 10.98 225.92 10.47 232.77 6.59"/><line class="cls-2" x1="235.62" y1="67.48" x2="182.36" y2="36.71"/><line class="cls-2" x1="235.62" y1="5.94" x2="288.88" y2="36.71"/><line class="cls-2" x1="284.61" y1="40.85" x2="229.93" y2="9.3"/><polyline class="cls-2" points="263.54 18.87 263.67 17.32 264.58 15.9 266.26 14.6 268.45 13.57 271.04 13.05 273.75 12.92 276.47 13.31 278.8 13.96 280.74 15.12 282.03 16.54 282.67 18.09 282.42 19.65 281.51 21.07 279.83 22.36 277.63 23.27 275.05 23.91 272.2 23.91"/><polyline class="cls-2" points="282.16 20.16 281.12 18.74 279.44 17.71 277.37 16.8 275.05 16.41 272.46 16.28 270.01 16.54 267.68 17.19 265.74 18.22 264.45 19.39"/><polyline class="cls-2" points="225.41 78.98 223.6 79.76 221.53 80.15 219.2 80.02 217.26 79.5 215.71 78.6 214.67 77.43 214.55 76.14 215.06 74.85 216.36 73.81 218.17 73.04 220.36 72.78 222.56 72.78 224.63 73.43 226.18 74.33 227.09 75.49 227.34 76.79 226.7 77.95 225.41 78.98"/><polyline class="cls-2" points="224.11 79.63 224.37 78.73 223.98 77.95 223.08 77.3 221.66 76.92 220.1 76.92 218.81 77.3 217.78 77.95 217.39 78.73 217.78 79.63"/><polyline class="cls-2" points="224.24 79.24 223.6 78.47 222.43 77.95 220.88 77.69 219.46 77.95 218.17 78.47 217.52 79.24"/><polyline class="cls-2" points="257.85 8.01 256.04 8.66 253.85 9.05 251.65 8.92 249.58 8.4 248.03 7.49 247.12 6.33 246.87 5.04 247.51 3.74 248.8 2.71 250.61 1.93 252.68 1.68 255.01 1.81 256.95 2.32 258.5 3.23 259.53 4.39 259.66 5.68 259.15 6.98 257.85 8.01"/><polyline class="cls-2" points="256.43 8.53 256.69 7.75 256.43 6.85 255.4 6.2 254.1 5.81 252.55 5.81 251.13 6.2 250.23 6.85 249.84 7.75 250.1 8.53"/><polyline class="cls-2" points="256.69 8.27 256.04 7.36 254.75 6.85 253.33 6.72 251.78 6.85 250.61 7.36 249.97 8.27"/><polyline class="cls-2" points="177.18 51.19 175.37 51.97 173.18 52.22 170.98 52.09 169.04 51.58 167.49 50.67 166.45 49.51 166.33 48.22 166.84 47.05 168.14 46.02 169.94 45.24 172.14 44.86 174.34 44.98 176.41 45.5 177.96 46.41 178.87 47.57 179.12 48.86 178.48 50.16 177.18 51.19"/><polyline class="cls-2" points="175.89 51.84 176.15 50.93 175.76 50.03 174.86 49.38 173.44 48.99 171.88 48.99 170.59 49.38 169.56 50.03 169.17 50.93 169.56 51.84"/><polyline class="cls-2" points="176.02 51.45 175.37 50.67 174.21 50.16 172.66 49.9 171.24 50.16 169.94 50.67 169.3 51.45"/><polyline class="cls-2" points="300.26 32.44 298.45 33.22 296.38 33.61 294.05 33.48 292.11 32.96 290.56 32.06 289.53 30.89 289.4 29.6 289.91 28.31 291.21 27.27 293.02 26.5 295.21 26.24 297.41 26.24 299.48 26.89 301.03 27.79 301.94 28.95 302.2 30.25 301.55 31.41 300.26 32.44"/><polyline class="cls-2" points="298.96 33.09 299.22 32.19 298.83 31.41 297.93 30.76 296.51 30.38 294.96 30.38 293.66 30.76 292.63 31.41 292.24 32.19 292.63 33.09"/><polyline class="cls-2" points="299.09 32.7 298.45 31.93 297.28 31.41 295.73 31.15 294.31 31.41 293.02 31.93 292.37 32.7"/><line class="cls-2" x1="304.78" y1="34" x2="304.91" y2="33.22"/><polyline class="cls-2" points="302.2 26.11 303.62 27.14 304.39 28.18 304.91 29.34 304.78 30.63"/><line class="cls-2" x1="304.78" y1="34" x2="304.78" y2="30.63"/><line class="cls-2" x1="259.79" y1="1.68" x2="302.2" y2="26.11"/><polyline class="cls-2" points="252.04 .12 254.1 .12 256.17 .38 258.11 .9 259.79 1.68"/><line class="cls-2" x1="231.74" y1="1.81" x2="252.04" y2=".12"/><polyline class="cls-2" points="223.21 3.74 225.41 2.84 227.86 2.19"/><line class="cls-2" x1="172.79" y1="32.83" x2="223.21" y2="3.74"/><polyline class="cls-2" points="170.07 35.42 171.24 34.12 172.79 32.83"/><line class="cls-2" x1="163.87" y1="47.05" x2="170.07" y2="35.42"/><polyline class="cls-2" points="166.2 55.59 164.77 54.55 163.87 53.26 163.48 51.84"/><line class="cls-2" x1="166.2" y1="55.59" x2="166.2" y2="52.35"/><polyline class="cls-2" points="166.2 52.35 164.64 51.19 163.74 49.9 163.48 48.47 163.87 47.05"/><line class="cls-2" x1="214.42" y1="83.51" x2="166.2" y2="55.59"/><line class="cls-2" x1="214.42" y1="83.51" x2="214.42" y2="80.15"/><line class="cls-2" x1="214.42" y1="80.15" x2="166.2" y2="52.35"/><polyline class="cls-2" points="223.6 84.8 221.14 85.06 218.68 84.93 216.36 84.28 214.42 83.51"/><line class="cls-2" x1="223.6" y1="84.8" x2="223.6" y2="81.44"/><polyline class="cls-2" points="223.6 81.44 221.14 81.7 218.68 81.57 216.36 81.05 214.42 80.15"/><line class="cls-2" x1="243.63" y1="81.18" x2="223.6" y2="84.8"/><line class="cls-2" x1="243.63" y1="81.18" x2="243.63" y2="77.95"/><line class="cls-2" x1="243.63" y1="77.95" x2="223.6" y2="81.44"/><polyline class="cls-2" points="248.16 79.63 245.96 80.66 243.63 81.18"/><line class="cls-2" x1="248.16" y1="79.63" x2="248.16" y2="76.27"/><polyline class="cls-2" points="248.16 76.27 245.96 77.3 243.63 77.95"/><line class="cls-2" x1="298.45" y1="50.54" x2="248.16" y2="79.63"/><line class="cls-2" x1="298.45" y1="50.54" x2="298.45" y2="47.18"/><line class="cls-2" x1="298.45" y1="47.18" x2="248.16" y2="76.27"/><polyline class="cls-2" points="301.55 46.92 301.03 48.35 300 49.51 298.45 50.54"/><line class="cls-2" x1="301.55" y1="46.92" x2="301.55" y2="43.69"/><polyline class="cls-2" points="301.55 43.69 301.03 44.98 300 46.15 298.45 47.18"/><line class="cls-2" x1="304.78" y1="34" x2="301.55" y2="46.92"/><line class="cls-2" x1="304.78" y1="30.63" x2="301.55" y2="43.69"/><line class="cls-2" x1="304.91" y1="29.86" x2="304.91" y2="33.22"/><line class="cls-2" x1="163.48" y1="48.6" x2="163.48" y2="51.84"/><path class="cls-2" d="m751.5,263.04c-.8.56-1.27,1.5-1.23,2.48.04.98.57,1.88,1.42,2.38"/><line class="cls-2" x1="751.74" y1="267.8" x2="752.48" y2="268.17"/><path class="cls-2" d="m752.47,268.21c1.2.29,2.45-.21,3.12-1.24.67-1.03.61-2.38-.15-3.35-.76-.97-2.05-1.35-3.21-.95"/><line class="cls-2" x1="751.62" y1="263.01" x2="752.24" y2="262.64"/><path class="cls-2" d="m751.69,319.14c-.85.5-1.38,1.39-1.42,2.38s.42,1.92,1.23,2.48"/><line class="cls-2" x1="751.62" y1="323.9" x2="752.24" y2="324.27"/><path class="cls-2" d="m752.22,324.36c1.17.4,2.46.02,3.22-.95.76-.97.82-2.31.15-3.35-.67-1.04-1.92-1.53-3.11-1.24"/><polyline class="cls-2" points="751.74 267.8 751.74 319.1 752.48 318.74 752.48 268.17"/><polyline class="cls-2" points="610.39 124.6 610.51 119.56 610.88 114.39 611.5 109.35 612.48 104.3 613.59 99.38 614.94 94.46 616.54 89.54 618.39 84.87 620.48 80.19 622.69 75.64 625.28 71.21 627.98 66.78 630.93 62.72 634.01 58.66 637.33 54.73 640.9 51.04 644.59 47.59 648.53 44.27 652.46 41.07 656.65 38.12 660.95 35.41 665.38 32.83 669.93 30.61 674.61 28.52 679.41 26.68 684.33 25.08 689.25 23.72 694.17 22.62 699.21 21.76 704.26 21.14 709.42 20.77 714.47 20.65 719.51 20.77 724.68 21.14 729.72 21.76 734.77 22.62 739.69 23.72 744.61 25.08 749.53 26.68 754.33 28.52 759 30.61 763.55 32.95 767.98 35.41 772.29 38.12 776.47 41.07 780.41 44.27 784.34 47.59 788.04 51.04 791.6 54.73 794.92 58.66 798 62.72 800.95 66.78 803.66 71.21 806.24 75.64 808.46 80.19 810.55 84.87 812.39 89.54 813.99 94.46 815.35 99.38 816.45 104.3 817.44 109.35 818.05 114.39 818.42 119.56 818.55 124.6"/><line class="cls-2" x1="610.39" y1="368.68" x2="610.39" y2="124.6"/><path class="cls-2" d="m610.39,368.62c0,.85.69,1.54,1.54,1.54"/><line class="cls-2" x1="816.95" y1="370.16" x2="611.99" y2="370.16"/><path class="cls-2" d="m817.01,370.16c.85,0,1.54-.69,1.54-1.54"/><line class="cls-2" x1="818.55" y1="124.6" x2="818.55" y2="368.68"/><polyline class="cls-2" points="798.98 183.9 802.92 177.87 806.37 171.72 809.44 165.2 812.03 158.56 814.12 151.67 815.72 144.78 816.95 137.64 817.56 130.63 817.68 123.37 817.44 116.24 816.58 109.23 815.22 102.21 813.5 95.2 811.16 88.43 808.46 81.91 805.26 75.52 801.69 69.37 797.63 63.46 793.2 57.8 788.4 52.51 783.24 47.59 777.7 43.04 771.92 38.86 765.89 35.04 759.49 31.72 752.97 28.89 746.33 26.43 739.44 24.46 732.43 22.99 725.29 22 718.16 21.39 711.02 21.39 703.89 21.88 696.87 22.86 689.86 24.34 682.97 26.31 676.21 28.65 669.69 31.6 663.41 34.92 657.26 38.61 651.48 42.79 645.94 47.34 640.78 52.27 635.98 57.56 631.55 63.09 627.49 69 623.8 75.15 620.6 81.55 617.89 88.19 615.56 94.95 613.71 101.84 612.48 108.86 611.62 115.99 611.25 123.13 611.37 130.26 611.99 137.28 613.1 144.41 614.7 151.3 616.79 158.19 619.37 164.83 622.32 171.35 625.77 177.63 629.7 183.66 634.01 189.31"/><line class="cls-2" x1="798.98" y1="183.9" x2="798.98" y2="183.9"/><polyline class="cls-2" points="799.35 185.99 798.98 185.62 798.74 185.01 798.74 184.39 798.98 183.9"/><polyline class="cls-2" points="799.35 185.99 799.48 186.12 814.49 196.94"/><path class="cls-2" d="m816.18,210.07c1.62-1.93,2.36-4.45,2.04-6.95-.32-2.5-1.66-4.75-3.71-6.22"/><path class="cls-2" d="m799.76,226.41c5.92-4.97,11.4-10.44,16.37-16.36"/><path class="cls-2" d="m787.83,226.12c3.34,3.12,8.48,3.26,11.98.32"/><polyline class="cls-2" points="776.72 215.64 777.09 216.01 787.91 226.1"/><polyline class="cls-2" points="774.26 215.4 774.87 215.03 775.49 215.03 776.1 215.27 776.72 215.64"/><line class="cls-2" x1="774.26" y1="215.4" x2="774.26" y2="215.4"/><polyline class="cls-2" points="634.62 190.18 640.16 198.54 643.11 202.48 646.07 206.17 649.26 209.86 652.46 213.3 655.91 216.5 659.35 219.58 662.8 222.53 666.49 225.24 670.18 227.7 673.99 230.04 677.81 232.13 681.62 233.97 685.56 235.69 689.62 237.05 695.77 238.4 702.04 239.38 708.19 239.88 714.47 240.12 720.74 239.88 726.89 239.38 733.17 238.4 739.32 237.05 743.99 235.33 748.67 233.36 753.1 231.02 757.53 228.44 761.95 225.61 766.14 222.41 770.32 219.09 774.26 215.4"/><line class="cls-2" x1="634.62" y1="190.18" x2="634.01" y2="189.31"/><path class="cls-2" d="m748.59,330.02c1.9-1.42,3.23-3.48,3.76-5.79"/><line class="cls-2" x1="731.2" y1="343.09" x2="748.54" y2="330.05"/><path class="cls-2" d="m724.12,345.43c2.54,0,5.02-.82,7.05-2.35"/><line class="cls-2" x1="656.4" y1="345.43" x2="724.19" y2="345.43"/><path class="cls-2" d="m650.85,344.07c1.69.89,3.57,1.36,5.49,1.36"/><line class="cls-2" x1="633.27" y1="334.73" x2="650.86" y2="344.08"/><path class="cls-2" d="m627.86,325.93c0,3.72,2.06,7.13,5.34,8.87"/><line class="cls-2" x1="627.98" y1="261.04" x2="627.98" y2="325.87"/><path class="cls-2" d="m633.2,252.11c-3.29,1.74-5.34,5.15-5.34,8.86"/><line class="cls-2" x1="650.86" y1="242.95" x2="633.27" y2="252.18"/><path class="cls-2" d="m656.34,241.48c-1.91,0-3.8.47-5.49,1.36"/><line class="cls-2" x1="724.19" y1="241.6" x2="656.4" y2="241.6"/><path class="cls-2" d="m731.17,243.83c-2.03-1.53-4.51-2.35-7.05-2.35"/><line class="cls-2" x1="748.54" y1="256.98" x2="731.2" y2="243.94"/><path class="cls-2" d="m752.35,262.68c-.53-2.31-1.86-4.37-3.76-5.79"/><path class="cls-2" d="m748.08,329.33c1.79-1.34,3.03-3.29,3.48-5.48"/><path class="cls-2" d="m832.51,386.4c1.26,0,2.28-1.02,2.28-2.28"/><line class="cls-2" x1="834.78" y1="384.18" x2="834.78" y2="124.6"/><path class="cls-2" d="m834.66,124.67c0-45.84-26.06-87.69-67.2-107.92"/><path class="cls-2" d="m767.57,16.7c-.31-.15-.66-.23-1-.23"/><line class="cls-2" x1="766.51" y1="16.47" x2="662.43" y2="16.47"/><line class="cls-2" x1="834.05" y1="124.6" x2="834.05" y2="384.18"/><path class="cls-2" d="m832.51,385.66c.85,0,1.54-.69,1.54-1.54"/><line class="cls-2" x1="596.49" y1="386.52" x2="832.45" y2="386.52"/><line class="cls-2" x1="832.45" y1="385.66" x2="596.49" y2="385.66"/><path class="cls-2" d="m594.15,384.12c0,1.26,1.02,2.28,2.28,2.28"/><path class="cls-2" d="m594.89,384.12c0,.85.69,1.54,1.54,1.54"/><line class="cls-2" x1="594.15" y1="124.6" x2="594.15" y2="384.18"/><line class="cls-2" x1="594.89" y1="384.18" x2="594.89" y2="124.6"/><path class="cls-2" d="m661.36,16.74c-41.14,20.22-67.2,62.07-67.21,107.91"/><path class="cls-2" d="m661.69,17.4c-40.89,20.1-66.79,61.69-66.8,107.25"/><path class="cls-2" d="m662.37,16.47c-.35,0-.69.08-1,.23"/><path class="cls-2" d="m662.37,17.2c-.24,0-.47.05-.68.16"/><line class="cls-2" x1="662.43" y1="17.2" x2="766.51" y2="17.2"/><path class="cls-2" d="m767.25,17.36c-.21-.1-.44-.16-.68-.16"/><path class="cls-2" d="m833.92,124.68c0-45.56-25.89-87.16-66.78-107.26"/><polyline class="cls-2" points="819.28 124.6 819.16 119.56 818.79 114.39 818.18 109.23 817.32 104.18 816.08 99.14 814.73 94.22 813.13 89.3 811.29 84.5 809.2 79.82 806.86 75.27 804.4 70.72 801.57 66.41 798.62 62.23 795.54 58.17 792.1 54.23 788.53 50.54 784.84 46.98 780.9 43.65 776.96 40.46 772.66 37.5 768.35 34.8 763.92 32.21 759.25 29.88 754.57 27.78 749.78 25.94 744.85 24.34 739.93 22.99 734.89 21.88 729.85 21.02 724.8 20.28 719.63 19.91 714.47 19.79 709.3 19.91 704.13 20.28 699.09 21.02 694.05 21.88 689 22.99 684.08 24.34 679.16 25.94 674.36 27.78 669.69 29.88 665.01 32.21 660.58 34.8 656.28 37.5 651.97 40.46 648.03 43.65 644.1 46.98 640.41 50.54 636.84 54.23 633.39 58.17 630.32 62.23 627.37 66.41 624.54 70.72 622.08 75.27 619.74 79.82 617.65 84.5 615.8 89.3 614.2 94.22 612.85 99.14 611.62 104.18 610.76 109.23 610.14 114.39 609.77 119.56 609.65 124.6"/><line class="cls-2" x1="819.28" y1="368.68" x2="819.28" y2="124.6"/><line class="cls-2" x1="609.65" y1="124.6" x2="609.65" y2="368.68"/><path class="cls-2" d="m609.65,368.62c0,1.26,1.02,2.28,2.28,2.28"/><line class="cls-2" x1="611.99" y1="371.02" x2="816.95" y2="371.02"/><path class="cls-2" d="m817.01,370.9c1.26,0,2.28-1.02,2.28-2.28"/><line class="cls-2" x1="651.23" y1="343.34" x2="633.64" y2="334.11"/><path class="cls-2" d="m628.72,325.93c0,3.4,1.88,6.52,4.88,8.1"/><line class="cls-2" x1="628.72" y1="325.87" x2="628.72" y2="261.04"/><path class="cls-2" d="m633.6,252.87c-3,1.59-4.88,4.71-4.89,8.1"/><line class="cls-2" x1="633.64" y1="252.92" x2="651.23" y2="243.57"/><path class="cls-2" d="m656.34,242.34c-1.77,0-3.52.43-5.09,1.26"/><line class="cls-2" x1="656.4" y1="242.34" x2="724.19" y2="242.34"/><path class="cls-2" d="m730.66,244.51c-1.88-1.41-4.18-2.18-6.53-2.18"/><line class="cls-2" x1="730.71" y1="244.55" x2="748.05" y2="257.59"/><path class="cls-2" d="m751.56,263.07c-.45-2.19-1.69-4.14-3.48-5.48"/><line class="cls-2" x1="748.05" y1="329.44" x2="730.71" y2="342.48"/><path class="cls-2" d="m724.12,344.57c2.36,0,4.65-.76,6.53-2.18"/><line class="cls-2" x1="724.19" y1="344.57" x2="656.4" y2="344.57"/><path class="cls-2" d="m651.25,343.31c1.57.83,3.31,1.26,5.09,1.26"/><polyline class="cls-2" points="686.54 235.69 682.73 234.22 679.04 232.37 675.47 230.53 671.9 228.44 664.89 223.64 658.12 218.22 651.85 212.07 645.82 205.31 640.16 197.93 635.12 189.93"/><line class="cls-2" x1="635.12" y1="189.93" x2="634.62" y2="190.18"/><polyline class="cls-2" points="686.54 235.69 688.02 236.31 689.62 237.05"/><line class="cls-2" x1="739.32" y1="237.05" x2="740.92" y2="236.31"/><polyline class="cls-2" points="741.9 235.94 735.14 237.54 728.25 238.65 721.36 239.38 714.47 239.63 707.58 239.38 700.69 238.65 693.8 237.54 687.03 235.94"/><polyline class="cls-2" points="774.01 215.15 770.44 218.47 766.63 221.67 762.82 224.5 758.88 227.21 754.82 229.67 750.76 232 746.58 233.97 742.39 235.69"/><line class="cls-2" x1="740.92" y1="236.31" x2="742.39" y2="235.69"/><polyline class="cls-2" points="777.21 215.15 776.47 214.66 775.49 214.53 774.75 214.66 774.01 215.15"/><line class="cls-2" x1="774.01" y1="215.15" x2="774.01" y2="215.15"/><line class="cls-2" x1="788.4" y1="225.48" x2="777.7" y2="215.4"/><path class="cls-2" d="m788.42,225.49c3.02,2.82,7.68,2.95,10.84.29"/><path class="cls-2" d="m799.29,225.84c5.89-4.94,11.33-10.39,16.28-16.27"/><path class="cls-2" d="m815.52,209.52c1.47-1.75,2.14-4.02,1.85-6.28-.29-2.26-1.5-4.3-3.35-5.63"/><line class="cls-2" x1="798.98" y1="186.73" x2="814.12" y2="197.56"/><line class="cls-2" x1="777.21" y1="215.15" x2="777.7" y2="215.4"/><polyline class="cls-2" points="798.37 183.53 798 184.27 798 185.13 798.37 185.99 798.98 186.73"/><line class="cls-2" x1="798.98" y1="186.73" x2="798.98" y2="186.73"/><polyline class="cls-2" points="634.5 188.95 630.32 183.16 626.51 177.26 623.06 170.98 620.11 164.59 617.52 157.94 615.43 151.18 613.83 144.29 612.73 137.28 612.11 130.14 611.99 123.13 612.36 115.99 613.22 108.98 614.57 101.97 616.29 95.08 618.63 88.43 621.34 81.91 624.54 75.52 628.1 69.49 632.16 63.58 636.59 58.05 641.39 52.76 646.56 47.96 651.97 43.41 657.75 39.35 663.78 35.53 670.06 32.34 676.58 29.38 683.22 27.05 690.11 25.08 697 23.6 704.01 22.74 711.15 22.25 718.16 22.25 725.29 22.74 732.31 23.72 739.2 25.2 746.08 27.17 752.73 29.51 759.25 32.46 765.52 35.78 771.55 39.47 777.21 43.65 782.75 48.21 787.79 53.13 792.59 58.29 797.02 63.83 800.95 69.74 804.64 75.89 807.72 82.16 810.43 88.8 812.76 95.45 814.49 102.34 815.84 109.35 816.58 116.36 816.95 123.5 816.82 130.51 816.08 137.64 814.98 144.53 813.38 151.55 811.29 158.31 808.7 164.83 805.75 171.35 802.31 177.5 798.37 183.41"/><line class="cls-2" x1="798.37" y1="183.53" x2="798.37" y2="183.41"/><line class="cls-2" x1="635.12" y1="189.93" x2="634.5" y2="188.95"/><path class="cls-2" d="m636.04,237.29c-3.36,0-6.09,2.73-6.09,6.09,0,3.36,2.73,6.09,6.09,6.09,3.36,0,6.09-2.73,6.09-6.09,0-3.36-2.73-6.09-6.09-6.09"/><path class="cls-2" d="m744.55,237.29c-3.36,0-6.09,2.73-6.09,6.09,0,3.36,2.73,6.09,6.09,6.09,3.36,0,6.09-2.73,6.09-6.09,0-3.36-2.73-6.09-6.09-6.09"/><path class="cls-2" d="m636.04,240.12c-1.8,0-3.26,1.46-3.26,3.26,0,1.8,1.46,3.26,3.26,3.26s3.26-1.46,3.26-3.26c0-1.8-1.46-3.26-3.26-3.26"/><path class="cls-2" d="m744.55,240.12c-1.8,0-3.26,1.46-3.26,3.26,0,1.8,1.46,3.26,3.26,3.26s3.26-1.46,3.26-3.26c0-1.8-1.46-3.26-3.26-3.26"/><path class="cls-2" d="m767.8,274.57c5.06,0,9.17-4.1,9.17-9.17s-4.1-9.17-9.17-9.17-9.17,4.1-9.17,9.17,4.1,9.17,9.17,9.17"/><path class="cls-2" d="m767.8,330.79c5.06,0,9.17-4.1,9.17-9.17s-4.1-9.17-9.17-9.17-9.17,4.1-9.17,9.17,4.1,9.17,9.17,9.17"/><path class="cls-2" d="m740.61,302.62c5.06,0,9.17-4.1,9.17-9.17s-4.1-9.17-9.17-9.17-9.17,4.1-9.17,9.17,4.1,9.17,9.17,9.17"/><path class="cls-2" d="m767.8,325.99c2.41,0,4.37-1.96,4.37-4.37s-1.96-4.37-4.37-4.37-4.37,1.96-4.37,4.37,1.96,4.37,4.37,4.37"/><path class="cls-2" d="m767.8,269.77c2.41,0,4.37-1.96,4.37-4.37s-1.96-4.37-4.37-4.37-4.37,1.96-4.37,4.37,1.96,4.37,4.37,4.37"/><path class="cls-2" d="m740.61,297.82c2.41,0,4.37-1.96,4.37-4.37s-1.96-4.37-4.37-4.37-4.37,1.96-4.37,4.37,1.96,4.37,4.37,4.37"/><line class="cls-2" x1="726.03" y1="339.77" x2="726.03" y2="249.96"/><line class="cls-2" x1="654.43" y1="249.96" x2="654.43" y2="339.77"/><line class="cls-2" x1="656.4" y1="343.22" x2="724.19" y2="343.22"/><line class="cls-2" x1="656.4" y1="247.38" x2="704.63" y2="247.38"/><path class="cls-2" d="m765.21,22.62c-.85,0-1.54.69-1.54,1.54s.69,1.54,1.54,1.54c.85,0,1.54-.69,1.54-1.54s-.69-1.54-1.54-1.54"/><path class="cls-2" d="m826.97,194.48c-.85,0-1.54.69-1.54,1.54s.69,1.54,1.54,1.54c.85,0,1.54-.69,1.54-1.54s-.69-1.54-1.54-1.54"/><path class="cls-2" d="m826.97,377.17c-.85,0-1.54.69-1.54,1.54,0,.85.69,1.54,1.54,1.54.85,0,1.54-.69,1.54-1.54,0-.85-.69-1.54-1.54-1.54"/><path class="cls-2" d="m601.96,377.17c-.85,0-1.54.69-1.54,1.54,0,.85.69,1.54,1.54,1.54s1.54-.69,1.54-1.54c0-.85-.69-1.54-1.54-1.54"/><path class="cls-2" d="m601.96,194.48c-.85,0-1.54.69-1.54,1.54s.69,1.54,1.54,1.54c.85,0,1.54-.69,1.54-1.54s-.69-1.54-1.54-1.54"/><path class="cls-2" d="m663.72,22.62c-.85,0-1.54.69-1.54,1.54s.69,1.54,1.54,1.54c.85,0,1.54-.69,1.54-1.54s-.69-1.54-1.54-1.54"/><polyline class="cls-2" points="797.63 186.24 798 185.5 798.12 185.38"/><line class="cls-2" x1="777.09" y1="215.03" x2="777.46" y2="214.66"/><polyline class="cls-2" points="723.82 247.01 724.19 247.38 724.31 247.38"/><polyline class="cls-2" points="704.63 247.38 704.99 247.26 705.12 247.01"/><line class="cls-2" x1="723.82" y1="247.01" x2="723.82" y2="242.34"/><line class="cls-2" x1="705.12" y1="242.34" x2="705.12" y2="247.01"/><polyline class="cls-2" points="726.03 249.96 725.91 249.1 725.66 248.24 725.05 247.75 724.31 247.38"/><polyline class="cls-2" points="724.19 343.22 724.68 343.09 725.05 342.72 725.66 341.86 726.03 340.76 726.03 339.77"/><polyline class="cls-2" points="654.43 339.77 654.55 340.76 654.8 341.86 655.42 342.72 655.78 343.09 656.4 343.22"/><polyline class="cls-2" points="656.4 247.38 655.54 247.63 654.92 248.24 654.55 249.1 654.43 249.96"/><path class="cls-2" d="m742.58,324.39c1.32,0,2.4-1.07,2.4-2.4s-1.07-2.4-2.4-2.4-2.4,1.07-2.4,2.4,1.07,2.4,2.4,2.4"/><path class="cls-2" d="m637.89,328.33c1.32,0,2.4-1.07,2.4-2.4s-1.07-2.4-2.4-2.4-2.4,1.07-2.4,2.4,1.07,2.4,2.4,2.4"/><path class="cls-2" d="m637.89,263.37c1.32,0,2.4-1.07,2.4-2.4s-1.07-2.4-2.4-2.4-2.4,1.07-2.4,2.4,1.07,2.4,2.4,2.4"/><path class="cls-2" d="m742.58,267.31c1.32,0,2.4-1.07,2.4-2.4s-1.07-2.4-2.4-2.4-2.4,1.07-2.4,2.4,1.07,2.4,2.4,2.4"/><line class="cls-2" x1="701.67" y1="238.65" x2="702.9" y2="238.89"/><line class="cls-2" x1="726.03" y1="238.89" x2="727.26" y2="238.65"/><line class="cls-2" x1="699.46" y1="238.52" x2="701.67" y2="238.65"/><line class="cls-2" x1="727.26" y1="238.65" x2="729.48" y2="238.52"/><path class="cls-2" d="m809.26,206.66c1.32,0,2.4-1.07,2.4-2.4s-1.07-2.4-2.4-2.4-2.4,1.07-2.4,2.4,1.07,2.4,2.4,2.4"/><path class="cls-2" d="m794,221.92c1.32,0,2.4-1.07,2.4-2.4s-1.07-2.4-2.4-2.4-2.4,1.07-2.4,2.4,1.07,2.4,2.4,2.4"/><polyline class="cls-2" points="716.93 138.01 717.42 138.87 717.17 139.86 716.31 140.72 715.08 141.09 713.85 141.09 712.62 140.72 711.76 139.86 711.51 138.87 712.01 138.01"/><polyline class="cls-2" points="717.17 138.75 716.8 137.77 715.82 137.03 714.47 136.78 713.11 137.03 712.13 137.77 711.76 138.75 712.13 139.86 713.11 140.6 714.47 140.84 715.82 140.6 716.8 139.86 717.17 138.75"/><line class="cls-2" x1="717.42" y1="139.12" x2="717.42" y2="139.74"/><line class="cls-2" x1="711.51" y1="139.12" x2="711.51" y2="139.74"/><line class="cls-2" x1="716.8" y1="137.77" x2="716.93" y2="138.01"/><line class="cls-2" x1="712.13" y1="137.77" x2="712.01" y2="138.01"/><polyline class="cls-2" points="686.05 233.11 678.3 229.79 670.79 225.85 663.66 221.55 656.77 216.99"/><polyline class="cls-2" points="652.71 211.7 657.38 214.9 662.18 218.1 667.1 221.18 672.27 224.13 677.56 226.71 682.97 229.17 688.39 231.39 694.05 233.11"/><line class="cls-2" x1="650.13" y1="210.23" x2="652.71" y2="211.7"/><line class="cls-2" x1="775.49" y1="214.53" x2="776.59" y2="213.8"/><polyline class="cls-2" points="772.17 216.99 765.28 221.55 758.14 225.85 750.64 229.79 742.89 233.11"/><polyline class="cls-2" points="734.89 233.11 740.3 231.39 745.72 229.3 751.01 226.96 756.05 224.38 761.09 221.55 766.01 218.59 770.69 215.52 775.12 212.44"/><line class="cls-2" x1="737.84" y1="234.96" x2="742.89" y2="233.11"/><line class="cls-2" x1="686.05" y1="233.11" x2="691.09" y2="234.96"/><line class="cls-2" x1="729.85" y1="234.34" x2="734.89" y2="233.11"/><polyline class="cls-2" points="699.09 234.34 706.72 235.2 714.47 235.57 722.22 235.2 729.85 234.34"/><line class="cls-2" x1="694.05" y1="233.11" x2="699.09" y2="234.34"/><polyline class="cls-2" points="750.64 232 744.36 233.6 737.84 234.96 730.09 236.43 722.34 237.29 714.47 237.54 706.59 237.29 698.84 236.43 691.09 234.96 684.57 233.6 678.3 232"/><polyline class="cls-2" points="613.34 141.58 615.06 135.18 617.4 128.91 620.48 122.76 624.29 116.85 628.72 111.32 633.89 106.03 639.67 100.98 645.94 96.43 652.71 92.25 659.97 88.56 667.6 85.36 675.71 82.53 683.96 80.32 692.57 78.72 701.18 77.61 710.04 76.99 718.9 76.99 727.75 77.61 736.37 78.72 744.98 80.32 753.22 82.53 761.34 85.36 768.97 88.56 776.23 92.25 782.99 96.43 789.27 100.98 795.05 106.03 800.21 111.32 804.64 116.85 808.46 122.76 811.53 128.91 813.87 135.18 815.59 141.58"/><polyline class="cls-2" points="615.31 150.68 616.91 144.41 619.37 138.26 622.32 132.35 626.14 126.57 630.57 121.16 635.49 115.87 641.15 111.07 647.3 106.52 653.94 102.46 661.07 98.89 668.58 95.69 676.45 92.99 684.57 90.9 692.94 89.3 701.55 88.19 710.16 87.57 718.77 87.57 727.38 88.19 736 89.3 744.36 90.9 752.48 92.99 760.36 95.69 767.86 98.89 775 102.46 781.64 106.52 787.79 111.07 793.45 115.87 798.37 121.16 802.8 126.57 806.61 132.35 809.56 138.26 811.9 144.41 813.62 150.68"/><line class="cls-2" x1="649.88" y1="209.98" x2="652.71" y2="211.7"/><polyline class="cls-2" points="614.57 147.73 615.68 141.33 617.52 134.94 620.11 128.79 623.43 122.76 627.37 116.98 632.04 111.56 637.45 106.4 643.36 101.6 649.76 97.17 656.77 93.23 664.15 89.66 671.9 86.71 680.02 84.13 688.39 82.28 697 80.81 705.73 79.95 714.47 79.7 723.2 79.95 731.94 80.81 740.55 82.28 748.91 84.13 757.03 86.71 764.78 89.66 772.17 93.23 779.18 97.17 785.58 101.6 791.48 106.4 796.89 111.56 801.57 116.98 805.5 122.76 808.83 128.79 811.41 134.94 813.26 141.33 814.36 147.73"/><polyline class="cls-2" points="710.41 228.44 711.02 229.3 712.01 229.91"/><polyline class="cls-2" points="716.93 229.91 717.91 229.3 718.53 228.44"/><polyline class="cls-2" points="718.03 230.77 716.8 231.14 715.57 231.39"/><polyline class="cls-2" points="713.36 231.39 714.47 231.39 715.57 231.39"/><polyline class="cls-2" points="713.36 231.39 712.13 231.14 710.9 230.77"/><line class="cls-2" x1="712.01" y1="229.91" x2="713.36" y2="230.4"/><polyline class="cls-2" points="713.36 230.4 714.47 230.53 715.57 230.4"/><line class="cls-2" x1="715.57" y1="230.4" x2="716.93" y2="229.91"/><polyline class="cls-2" points="743.25 235.33 736.12 236.8 728.98 237.66 721.73 238.28 714.47 238.52 707.21 238.28 699.95 237.66 692.82 236.8 685.68 235.33"/><polyline class="cls-2" points="717.42 139.74 717.05 140.6 716.31 141.33 715.08 141.83 713.85 141.83 712.62 141.33 711.88 140.6 711.51 139.74"/><polyline class="cls-2" points="714.47 141.83 716.07 141.58 717.3 140.84 718.03 139.74 718.03 138.51 717.3 137.52 716.07 136.66 714.47 136.41 712.87 136.66 711.64 137.52 710.9 138.51 710.9 139.74 711.64 140.84 712.87 141.58 714.47 141.83"/><polyline class="cls-2" points="718.53 228.56 718.28 230.16 717.54 231.51 716.19 232.37 714.71 232.86 713.11 232.62 711.64 231.76 710.78 230.53 710.41 228.93 710.65 227.45 711.39 226.1 712.62 225.11 714.22 224.75 715.82 224.99 717.3 225.73 718.16 227.08 718.53 228.56"/><polyline class="cls-2" points="695.03 227.08 694.41 228.56 693.31 229.67 691.83 230.4 690.23 230.53 688.76 229.91 687.65 228.8 687.03 227.45 687.03 225.85 687.65 224.5 688.76 223.27 690.23 222.53 691.83 222.53 693.31 223.02 694.54 224.13 695.03 225.48 695.03 227.08"/><polyline class="cls-2" points="665.13 220.07 665.63 218.35 666.86 216.87 667.6 216.38 668.46 216.01 669.32 215.89 670.3 215.89 671.16 216.13 671.9 216.5 672.52 217.12 672.89 217.86 673.13 218.59 673.25 219.46 672.76 221.18 671.9 222.41 670.79 223.27"/><line class="cls-2" x1="652.83" y1="211.83" x2="653.45" y2="211.21"/><polyline class="cls-2" points="647.42 207.28 648.65 206.17 650.13 205.43 651.73 205.43 653.08 205.92 654.06 206.91 654.43 208.26 654.31 209.86 653.45 211.21"/><polyline class="cls-2" points="636.22 191.77 637.21 191.65 638.19 191.9 639.05 192.27 639.67 193 640.04 193.74 640.04 194.73 639.91 195.71 639.42 196.7"/><polyline class="cls-2" points="626.01 176.4 627.37 175.9 628.72 175.9 629.83 176.15 630.69 177.01 631.06 178 630.81 179.23 630.2 180.46 629.21 181.56"/><polyline class="cls-2" points="624.17 164.96 622.57 165.2 621.34 164.96 620.35 164.34 619.99 163.23 620.23 162 620.97 160.77 622.2 159.79 623.8 159.05 625.28 158.8 626.63 159.05 627.49 159.67 627.98 160.77 627.74 162 626.87 163.23 625.64 164.34 624.17 164.96"/><polyline class="cls-2" points="626.14 147.61 624.78 147.61 623.68 147.12 623.06 146.26 623.06 145.27 623.8 144.04 624.91 143.06 626.38 142.32 627.86 141.83 629.33 141.83 630.32 142.32 630.93 143.18 630.93 144.16 630.32 145.39 629.09 146.5 627.74 147.24 626.14 147.61"/><polyline class="cls-2" points="634.26 131.25 633.03 131 632.29 130.39 632.04 129.4 632.53 128.42 633.52 127.43 634.87 126.57 636.47 126.08 637.95 126.08 639.18 126.33 639.91 126.94 640.04 127.8 639.67 128.91 638.56 129.89 637.21 130.63 635.61 131.12 634.26 131.25"/><polyline class="cls-2" points="647.67 116.98 646.8 116.48 646.44 115.75 646.68 114.88 647.42 113.9 648.77 113.16 650.37 112.67 651.85 112.55 653.2 112.67 654.06 113.16 654.43 113.9 654.31 114.76 653.45 115.62 652.09 116.48 650.49 116.98 649.02 117.1 647.67 116.98"/><polyline class="cls-2" points="665.75 105.78 665.26 105.17 665.26 104.43 665.87 103.57 666.98 102.83 668.58 102.34 670.18 102.09 671.53 102.21 672.64 102.71 673.13 103.32 673.13 104.06 672.52 104.8 671.41 105.53 669.81 106.03 668.21 106.27 666.86 106.15 665.75 105.78"/><polyline class="cls-2" points="687.16 98.4 687.03 97.66 687.4 96.92 688.39 96.31 689.86 95.82 691.46 95.69 692.94 95.69 694.17 96.06 694.91 96.68 695.15 97.42 694.66 98.15 693.68 98.77 692.32 99.26 690.6 99.38 689.12 99.38 687.89 99.01 687.16 98.4"/><polyline class="cls-2" points="710.41 95.32 710.65 94.71 711.39 94.09 712.74 93.6 714.22 93.48 715.82 93.48 717.3 93.97 718.16 94.46 718.53 95.2 718.28 95.82 717.54 96.43 716.31 96.92 714.71 97.05 713.11 96.92 711.64 96.55 710.78 96.06 710.41 95.32"/><polyline class="cls-2" points="733.91 96.8 734.52 96.31 735.63 95.82 737.1 95.69 738.7 95.82 740.18 96.19 741.29 96.8 741.9 97.54 741.9 98.28 741.29 98.89 740.18 99.26 738.7 99.38 737.1 99.26 735.63 98.89 734.4 98.28 733.91 97.54 733.91 96.8"/><polyline class="cls-2" points="756.17 102.83 757.03 102.34 758.39 102.09 759.99 102.21 761.59 102.71 762.82 103.32 763.55 104.18 763.8 104.92 763.31 105.66 762.45 106.15 761.09 106.27 759.49 106.15 757.89 105.66 756.66 105.04 755.8 104.18 755.68 103.44 756.17 102.83"/><polyline class="cls-2" points="775.49 112.79 776.72 112.55 778.19 112.55 779.79 113.04 781.15 113.78 782.13 114.64 782.5 115.5 782.25 116.36 781.52 116.85 780.29 117.1 778.81 117.1 777.21 116.61 775.86 115.87 774.87 115.01 774.5 114.02 774.63 113.29 775.49 112.79"/><polyline class="cls-2" points="790.62 126.08 792.1 126.08 793.69 126.45 795.05 127.19 796.28 128.17 796.77 129.16 796.77 130.14 796.16 130.88 795.05 131.25 793.69 131.25 792.1 130.88 790.62 130.14 789.51 129.16 788.9 128.05 788.9 127.06 789.51 126.45 790.62 126.08"/><polyline class="cls-2" points="800.71 141.83 802.18 142.07 803.66 142.81 804.89 143.8 805.75 144.9 805.87 146.01 805.5 146.99 804.52 147.49 803.17 147.61 801.69 147.36 800.09 146.62 798.86 145.64 798.12 144.53 797.88 143.43 798.37 142.44 799.35 141.95 800.71 141.83"/><polyline class="cls-2" points="804.77 158.93 806.37 159.54 807.6 160.53 808.58 161.76 808.95 162.99 808.7 164.09 807.97 164.83 806.74 165.2 805.14 165.08 803.66 164.46 802.31 163.48 801.45 162.37 800.95 161.02 801.2 159.91 802.06 159.17 803.29 158.8 804.77 158.93"/><line class="cls-2" x1="802.8" y1="176.27" x2="802.92" y2="176.4"/><polyline class="cls-2" points="799.72 181.56 798.74 180.46 798.12 179.35 797.88 178.12 798.25 177.01 798.98 176.27 800.09 175.9 801.45 175.9 802.8 176.27"/><polyline class="cls-2" points="758.14 223.27 757.4 222.65 756.66 222.04 756.17 221.18 755.8 220.32 755.68 219.46 755.8 218.47 756.05 217.73 756.54 216.99 757.28 216.38 758.14 216.01 759.12 215.89 760.11 215.89 760.97 216.26 761.83 216.75 762.57 217.36 763.18 218.1 763.55 219.09 763.8 220.07"/><polyline class="cls-2" points="741.78 225.48 741.9 227.08 741.53 228.56 740.55 229.67 739.07 230.4 737.47 230.53 736 229.91 734.77 228.8 734.03 227.45 733.78 225.98 734.27 224.5 735.26 223.27 736.61 222.53 738.33 222.53 739.81 223.02 741.04 224.13 741.78 225.48"/><polyline class="cls-2" points="617.03 156.59 618.39 150.19 620.35 143.92 623.18 137.89 626.75 131.99 630.93 126.45 635.73 121.04 641.27 116.11 647.3 111.56 653.94 107.38 660.95 103.57 668.46 100.37 676.33 97.54 684.45 95.32 692.94 93.6 701.43 92.49 710.16 91.88 718.77 91.88 727.51 92.49 736 93.6 744.49 95.32 752.6 97.54 760.48 100.37 767.98 103.57 775 107.38 781.64 111.56 787.67 116.11 793.2 121.04 798 126.45 802.18 131.99 805.75 137.89 808.58 143.92 810.55 150.19 811.9 156.59"/><line class="cls-2" x1="713.36" y1="155.36" x2="715.57" y2="155.36"/><polyline class="cls-2" points="715.57 155.36 716.44 156.34 717.05 157.45 717.91 159.91 718.28 162.49 718.28 165.08 718.03 167.78 717.54 170.25 716.56 172.58 715.7 173.57 715.08 173.94 714.47 174.06 713.85 173.94 713.24 173.57 712.38 172.58 711.39 170.25 710.9 167.78 710.65 165.08 710.65 162.49 711.02 159.91 711.88 157.45 712.5 156.34 713.36 155.36"/><polyline class="cls-2" points="711.15 159.3 712.25 160.03 713.73 160.53 715.21 160.53 716.68 160.03 717.79 159.3"/><polyline class="cls-2" points="714.47 156.22 713.24 156.47 712.38 157.08 712.01 157.94 712.38 158.68 713.24 159.3 714.47 159.54 715.7 159.3 716.56 158.68 716.93 157.94 716.56 157.08 715.7 156.47 714.47 156.22"/><polyline class="cls-2" points="710.41 228.44 710.9 227.08 711.76 225.98 712.99 225.36 714.47 225.11 715.94 225.36 717.17 225.98 718.03 227.08 718.53 228.44"/><line class="cls-2" x1="783.73" y1="182.92" x2="770.07" y2="190.18"/><path class="cls-2" d="m770.18,190.18c-2.76,1.46-4.65,4.16-5.07,7.26-.41,3.1.69,6.2,2.98,8.34"/><line class="cls-2" x1="767.98" y1="205.8" x2="788.77" y2="225.11"/><path class="cls-2" d="m788.75,225.13c2.84,2.65,7.21,2.77,10.19.27"/><line class="cls-2" x1="789.27" y1="224.62" x2="768.6" y2="205.18"/><path class="cls-2" d="m789.26,224.59c2.57,2.4,6.52,2.51,9.21.25"/><path class="cls-2" d="m798.42,224.8c5.83-4.89,11.22-10.28,16.11-16.11"/><path class="cls-2" d="m798.97,225.46c5.87-4.92,11.29-10.35,16.21-16.21"/><path class="cls-2" d="m814.58,208.73c1.24-1.48,1.81-3.42,1.57-5.34-.24-1.92-1.28-3.65-2.85-4.78"/><path class="cls-2" d="m815.15,209.2c1.38-1.64,2.01-3.78,1.74-5.91-.27-2.13-1.41-4.04-3.15-5.29"/><line class="cls-2" x1="793.45" y1="184.27" x2="813.38" y2="198.54"/><line class="cls-2" x1="813.87" y1="197.93" x2="793.94" y2="183.66"/><path class="cls-2" d="m793.41,184.21c-2.75-1.97-6.37-2.21-9.35-.64"/><path class="cls-2" d="m793.84,183.61c-2.97-2.13-6.89-2.39-10.13-.69"/><line class="cls-2" x1="770.44" y1="190.79" x2="784.1" y2="183.66"/><path class="cls-2" d="m770.53,190.84c-2.55,1.35-4.3,3.84-4.68,6.71-.38,2.86.64,5.73,2.75,7.7"/><path class="cls-2" d="m794,225.61c3.36,0,6.09-2.73,6.09-6.09s-2.73-6.09-6.09-6.09-6.09,2.73-6.09,6.09,2.73,6.09,6.09,6.09"/><path class="cls-2" d="m809.26,210.35c3.36,0,6.09-2.73,6.09-6.09s-2.73-6.09-6.09-6.09-6.09,2.73-6.09,6.09,2.73,6.09,6.09,6.09"/><path class="cls-2" d="m809.26,207.52c1.8,0,3.26-1.46,3.26-3.26s-1.46-3.26-3.26-3.26-3.26,1.46-3.26,3.26,1.46,3.26,3.26,3.26"/><path class="cls-2" d="m794,222.78c1.8,0,3.26-1.46,3.26-3.26s-1.46-3.26-3.26-3.26-3.26,1.46-3.26,3.26,1.46,3.26,3.26,3.26"/><polyline class="cls-5" points="656.02 343 655.52 342.88 655.03 342.51 654.9 342.27"/><polyline class="cls-5" points="654.29 340.92 654.16 340.68 654.04 339.57"/><line class="cls-5" x1="654.04" y1="339.57" x2="654.04" y2="336.15"/><line class="cls-5" x1="654.04" y1="332.6" x2="654.04" y2="329.17"/><line class="cls-5" x1="726.11" y1="339.57" x2="726.11" y2="336.15"/><line class="cls-5" x1="726.11" y1="332.6" x2="726.11" y2="329.17"/><polyline class="cls-5" points="726.11 339.57 725.99 340.68 725.86 340.92"/><polyline class="cls-5" points="725.37 342.27 725.12 342.51 724.75 342.88 724.13 343"/><polyline class="cls-5" points="724.13 247.68 725 247.92 725.24 248.17"/><polyline class="cls-5" points="725.86 249.15 725.99 249.39 726.11 250.25"/><line class="cls-5" x1="726.11" y1="257.83" x2="726.11" y2="255.39"/><line class="cls-5" x1="726.11" y1="252.82" x2="726.11" y2="250.25"/><line class="cls-5" x1="654.04" y1="257.83" x2="654.04" y2="255.39"/><line class="cls-5" x1="654.04" y1="252.82" x2="654.04" y2="250.25"/><polyline class="cls-5" points="654.04 250.25 654.29 249.27 654.29 249.15"/><polyline class="cls-5" points="655.03 248.17 655.27 247.92 656.02 247.68"/><line class="cls-5" x1="656.02" y1="343" x2="660.59" y2="343"/><line class="cls-5" x1="662.82" y1="343" x2="671.96" y2="343"/><line class="cls-5" x1="674.19" y1="343" x2="683.34" y2="343"/><line class="cls-5" x1="685.56" y1="343" x2="694.59" y2="343"/><line class="cls-5" x1="696.93" y1="343" x2="705.96" y2="343"/><line class="cls-5" x1="708.31" y1="343" x2="717.33" y2="343"/><line class="cls-5" x1="719.68" y1="343" x2="724.13" y2="343"/><polyline class="cls-5" points="717.95 247.68 717.46 249.63 717.08 250.49"/><polyline class="cls-5" points="716.1 253.31 715.85 253.67 714.98 256"/><line class="cls-5" x1="717.95" y1="247.68" x2="720.05" y2="247.68"/><line class="cls-5" x1="722.15" y1="247.68" x2="724.13" y2="247.68"/><polyline class="cls-5" points="713.87 256 713.01 253.67 712.76 253.31"/><polyline class="cls-5" points="711.77 250.49 711.4 249.63 710.9 247.68"/><line class="cls-5" x1="656.02" y1="247.68" x2="660.47" y2="247.68"/><line class="cls-5" x1="662.57" y1="247.68" x2="671.35" y2="247.68"/><line class="cls-5" x1="673.57" y1="247.68" x2="682.35" y2="247.68"/><line class="cls-5" x1="684.57" y1="247.68" x2="693.35" y2="247.68"/><line class="cls-5" x1="695.57" y1="247.68" x2="704.35" y2="247.68"/><line class="cls-5" x1="706.45" y1="247.68" x2="710.9" y2="247.68"/><polyline class="cls-5" points="717.95 247.68 717.46 246.45 716.71 245.35 716.1 244.74"/><polyline class="cls-5" points="712.76 244.74 712.14 245.35 711.4 246.45 710.9 247.68"/><path class="cls-5" d="m650.45,332.54c0,3.62,2.96,6.55,6.61,6.55"/><line class="cls-5" x1="650.33" y1="254.53" x2="650.33" y2="332.6"/><path class="cls-5" d="m657.07,247.92c-3.65,0-6.61,2.93-6.61,6.55"/><line class="cls-5" x1="723.14" y1="247.92" x2="657.01" y2="247.92"/><path class="cls-5" d="m729.82,254.47c0-3.62-2.96-6.55-6.61-6.55"/><line class="cls-5" x1="729.82" y1="332.6" x2="729.82" y2="254.53"/><path class="cls-5" d="m723.2,339.09c3.65,0,6.61-2.93,6.61-6.55"/><line class="cls-5" x1="657.01" y1="339.09" x2="723.14" y2="339.09"/><path class="cls-5" d="m654.16,329.23c0,1.05.86,1.9,1.92,1.9"/><path class="cls-5" d="m724.19,331.13c1.06,0,1.92-.85,1.92-1.9"/><path class="cls-5" d="m726.11,257.89c0-1.05-.86-1.9-1.92-1.9"/><path class="cls-5" d="m656.08,256c-1.06,0-1.92.85-1.92,1.9"/><line class="cls-5" x1="654.04" y1="329.17" x2="654.04" y2="257.83"/><line class="cls-5" x1="726.11" y1="257.83" x2="726.11" y2="329.17"/><line class="cls-5" x1="724.13" y1="331.13" x2="656.02" y2="331.13"/><line class="cls-5" x1="656.02" y1="256" x2="724.13" y2="256"/><path class="cls-5" d="m740.76,284.39c-5.09,0-9.21,4.08-9.21,9.12,0,5.03,4.12,9.12,9.21,9.12,5.09,0,9.21-4.08,9.21-9.12,0-5.03-4.12-9.12-9.21-9.12"/><path class="cls-5" d="m637.54,331.87c3.38,0,6.12-2.71,6.12-6.06s-2.74-6.06-6.12-6.06-6.12,2.71-6.12,6.06,2.74,6.06,6.12,6.06"/><path class="cls-5" d="m637.54,329.05c1.81,0,3.28-1.45,3.28-3.24s-1.47-3.24-3.28-3.24-3.28,1.45-3.28,3.24,1.47,3.24,3.28,3.24"/><path class="cls-5" d="m742.61,271.17c3.38,0,6.12-2.71,6.12-6.06s-2.74-6.06-6.12-6.06-6.12,2.71-6.12,6.06,2.74,6.06,6.12,6.06"/><path class="cls-5" d="m742.61,268.36c1.81,0,3.28-1.45,3.28-3.24s-1.47-3.24-3.28-3.24-3.28,1.45-3.28,3.24,1.47,3.24,3.28,3.24"/><path class="cls-5" d="m637.54,267.26c3.38,0,6.12-2.71,6.12-6.06s-2.74-6.06-6.12-6.06-6.12,2.71-6.12,6.06,2.74,6.06,6.12,6.06"/><path class="cls-5" d="m637.54,264.44c1.81,0,3.28-1.45,3.28-3.24s-1.47-3.24-3.28-3.24-3.28,1.45-3.28,3.24,1.47,3.24,3.28,3.24"/><path class="cls-5" d="m742.61,328.07c3.38,0,6.12-2.71,6.12-6.06s-2.74-6.06-6.12-6.06-6.12,2.71-6.12,6.06,2.74,6.06,6.12,6.06"/><path class="cls-5" d="m742.61,325.26c1.81,0,3.28-1.45,3.28-3.24s-1.47-3.24-3.28-3.24-3.28,1.45-3.28,3.24,1.47,3.24,3.28,3.24"/><path class="cls-5" d="m747.84,328.92c2.19-1.63,3.49-4.19,3.49-6.9"/><line class="cls-5" x1="751.45" y1="265.05" x2="751.45" y2="321.95"/><path class="cls-5" d="m751.33,265.12c0-2.72-1.29-5.27-3.49-6.9"/><line class="cls-5" x1="730.44" y1="245.23" x2="747.87" y2="258.2"/><path class="cls-5" d="m730.53,245.24c-1.83-1.36-4.05-2.09-6.34-2.09"/><line class="cls-5" x1="656.02" y1="243.15" x2="724.13" y2="243.15"/><path class="cls-5" d="m656.08,243.15c-1.72,0-3.42.42-4.94,1.21"/><line class="cls-5" x1="633.39" y1="253.55" x2="651.07" y2="244.37"/><path class="cls-5" d="m633.47,253.57c-2.86,1.49-4.64,4.43-4.65,7.63"/><line class="cls-5" x1="628.82" y1="325.87" x2="628.82" y2="261.26"/><path class="cls-5" d="m628.82,325.81c0,3.2,1.79,6.13,4.64,7.63"/><line class="cls-5" x1="651.07" y1="342.76" x2="633.39" y2="333.46"/><path class="cls-5" d="m651.14,342.77c1.52.8,3.22,1.21,4.94,1.21"/><line class="cls-5" x1="724.13" y1="343.98" x2="656.02" y2="343.98"/><path class="cls-5" d="m724.19,343.98c2.29,0,4.51-.73,6.34-2.09"/><line class="cls-5" x1="747.87" y1="328.93" x2="730.44" y2="341.9"/><line class="cls-3" x1="473.18" y1="226.62" x2="522.43" y2="226.62"/><polygon class="cls-7" points="520.32 229.4 521.5 226.62 520.32 223.85 526.9 226.62 520.32 229.4"/><line class="cls-4" x1="233.14" y1="41.44" x2="233.14" y2="240.59"/><polygon class="cls-6" points="231.29 239.19 233.14 239.97 234.99 239.19 233.14 243.58 231.29 239.19"/><path class="cls-7" d="m639.88,224.49c0,.28-.03.5-.09.64s-.14.22-.24.22h-.95v1.94c0,.06-.02.1-.05.15-.03.04-.09.08-.17.1-.08.03-.19.05-.32.06-.13.01-.3.02-.51.02s-.37,0-.5-.02c-.14-.01-.24-.04-.32-.06-.08-.03-.14-.06-.17-.1-.03-.04-.05-.09-.05-.15v-1.94h-4.1c-.08,0-.15,0-.21-.03-.06-.02-.11-.06-.15-.13-.04-.07-.07-.17-.09-.3s-.03-.3-.03-.52c0-.18,0-.33.01-.46,0-.13.02-.25.04-.35.02-.1.05-.2.08-.3.04-.09.08-.19.14-.3l3.33-5.88s.08-.09.14-.13.16-.07.28-.09c.12-.02.27-.04.45-.05.18-.01.4-.02.66-.02.28,0,.52,0,.72.02.2.01.36.04.48.07.12.03.21.07.26.11.05.04.08.1.08.16v6.46h.95c.09,0,.16.07.23.2.06.14.1.36.1.68Zm-3.37-5.81h-.02l-2.83,4.93h2.84v-4.93Z"/><circle class="cls-1" cx="635.92" cy="222.96" r="11.42"/><path class="cls-7" d="m745.6,224.49c0,.28-.03.5-.09.64s-.14.22-.24.22h-.95v1.94c0,.06-.02.1-.05.15-.03.04-.09.08-.17.1-.08.03-.19.05-.32.06-.13.01-.3.02-.51.02s-.37,0-.5-.02c-.14-.01-.24-.04-.32-.06-.08-.03-.14-.06-.17-.1-.03-.04-.05-.09-.05-.15v-1.94h-4.1c-.08,0-.15,0-.21-.03-.06-.02-.11-.06-.15-.13-.04-.07-.07-.17-.09-.3s-.03-.3-.03-.52c0-.18,0-.33.01-.46,0-.13.02-.25.04-.35.02-.1.05-.2.08-.3.04-.09.08-.19.14-.3l3.33-5.88s.08-.09.14-.13.16-.07.28-.09c.12-.02.27-.04.45-.05.18-.01.4-.02.66-.02.28,0,.52,0,.72.02.2.01.36.04.48.07.12.03.21.07.26.11.05.04.08.1.08.16v6.46h.95c.09,0,.16.07.23.2.06.14.1.36.1.68Zm-3.37-5.81h-.02l-2.83,4.93h2.84v-4.93Z"/><circle class="cls-1" cx="741.65" cy="222.96" r="11.42"/></svg>