<?xml version="1.0" encoding="UTF-8"?><svg id="Layer_1" xmlns="http://www.w3.org/2000/svg" viewBox="0 0 842.304347826087906 223.463768115942003"><defs><style>.cls-1{stroke-width:.75px;}.cls-1,.cls-2,.cls-3,.cls-4,.cls-5,.cls-6,.cls-7,.cls-8,.cls-9,.cls-10,.cls-11,.cls-12,.cls-13,.cls-14,.cls-15,.cls-16,.cls-17{fill:none;stroke-linecap:round;stroke-linejoin:round;}.cls-1,.cls-2,.cls-4,.cls-6,.cls-7,.cls-9,.cls-10,.cls-11,.cls-12,.cls-13,.cls-14,.cls-15,.cls-16,.cls-17{stroke:#d3155a;}.cls-2{stroke-dasharray:0 0 1.968891143798828 1.968891143798828;}.cls-2,.cls-4,.cls-5,.cls-6,.cls-7,.cls-9,.cls-10,.cls-11,.cls-12,.cls-13,.cls-14,.cls-15,.cls-16,.cls-17{stroke-width:.5px;}.cls-3{stroke-width:.1px;}.cls-3,.cls-5,.cls-8{stroke:#000;}.cls-4{stroke-dasharray:0 0 2.103004455566406 2.103004455566406;}.cls-6{stroke-dasharray:0 0 1.243100881576538 1.243100881576538;}.cls-7{stroke-dasharray:0 0 2.154660224914551 2.154660224914551;}.cls-8{stroke-width:.25px;}.cls-9{stroke-dasharray:0 0 1.968891263008118 1.968891263008118;}.cls-10{stroke-dasharray:0 0 2.007575988769531 2.007575988769531;}.cls-12{stroke-dasharray:0 0 1.828402519226074 1.828402519226074;}.cls-13{stroke-dasharray:0 0 1.539795160293579 1.539795160293579;}.cls-14{stroke-dasharray:0 0 2.009259462356567 2.009259462356567;}.cls-15{stroke-dasharray:0 0 2.155282497406006 2.155282497406006;}.cls-16{stroke-dasharray:0 0 1.464419960975647 1.464419960975647;}.cls-17{stroke-dasharray:0 0 2.103698253631592 2.103698253631592;}.cls-18{fill:#1d1e1c;}</style></defs><polyline class="cls-8" points="339.876366659349515 207.237564706581907 342.750611270714217 208.88002003431393 342.750611270714217 209.290616462174512"/><polyline class="cls-8" points="340.184279172151946 207.442862920521293 339.876366659349515 207.648161134460679 339.876366659349515 207.237564706581907"/><polyline class="cls-8" points="334.538334632075021 204.157952265064523 334.127738204196248 204.363250479003909 334.127738204196248 203.952654051128775 337.002052431773336 205.59510937885716 337.002052431773336 206.005705806732294"/><line class="cls-8" x1="338.952489888517448" y1="207.134880791505566" x2="339.876366659349515" y2="207.648161134460679"/><line class="cls-8" x1="614.165919076303908" y1="24.514705365824739" x2="613.344656604334887" y2="24.001425022881449"/><polyline class="cls-8" points="635.107172292666291 48.12497459583301 635.107172292666291 36.525103386657065 634.183295521836044 36.011823043701042"/><line class="cls-8" x1="337.002052431773336" y1="206.005705806732294" x2="337.823245287528152" y2="206.518986149687407"/><polyline class="cls-8" points="344.187768384499577 210.111809317942971 349.320432581622299 213.088737844380375 635.107172292666291 48.12497459583301"/><line class="cls-8" x1="342.750611270714217" y1="209.290616462174512" x2="343.571873742683238" y2="209.803896805133263"/><line class="cls-8" x1="327.557916893289075" y1="200.565059480592026" x2="332.690581090409978" y2="203.541988007029431"/><line class="cls-8" x1="333.306545348441432" y1="203.849970136037882" x2="334.127738204196248" y2="204.363250479003909"/><polyline class="cls-8" points="349.320432581622299 213.088737844380375 349.320432581622299 201.488936251422274 348.396555810788414 201.078339823532588"/><polyline class="cls-8" points="327.557916893289075 200.565059480592026 327.557916893289075 188.965257887637563 328.379179365258096 189.478538230592676"/><line class="cls-8" x1="613.344656604334887" y1="24.001425022881449" x2="327.557916893289075" y2="188.965257887637563"/><line class="cls-8" x1="349.320432581622299" y1="201.488936251422274" x2="635.107172292666291" y2="36.525103386657065"/><line class="cls-8" x1="614.165919076303908" y1="24.514705365824739" x2="614.165919076303908" y2="24.822617878636265"/><polyline class="cls-8" points="613.755322648425135 25.027985708780761 614.165919076303908 25.335898221579555 614.165919076303908 32.418999875447298"/><line class="cls-8" x1="615.910988702895338" y1="35.395928401900164" x2="625.663106370397145" y2="40.93918902689984"/><polyline class="cls-8" points="348.909836153743527 201.591620166505891 348.396555810788414 201.899532679301046 348.396555810788414 208.982634333169699"/><line class="cls-8" x1="346.754100483062757" y1="209.906511104003584" x2="330.124248991849527" y2="200.359761266667192"/><polyline class="cls-8" points="614.165919076303908 24.822617878636265 328.379179365258096 189.786450743406022 328.379179365258096 189.478538230592676 614.165919076303908 24.514705365824739"/><polyline class="cls-8" points="328.379179365258096 189.786450743406022 327.968582937381143 190.094432872407197 327.968582937381143 189.581152529452083 328.379179365258096 189.786450743406022"/><polyline class="cls-8" points="614.165919076303908 25.335898221579555 328.379179365258096 190.299731086346583 327.968582937381143 190.094432872407197"/><line class="cls-8" x1="328.379179365258096" y1="197.382832740215235" x2="328.379179365258096" y2="190.299731086346583"/><polyline class="cls-8" points="634.183295521836044 36.011823043701042 348.396555810788414 201.078339823532588 348.396555810788414 201.386321952566504 348.909836153743527 201.591620166505891 348.909836153743527 202.104900509461004 348.396555810788414 201.899532679301046"/><polyline class="cls-8" points="615.910988702895338 35.395928401900164 615.500392275016566 35.087946272884437 615.192479762215953 34.780033760069273 614.884497633198407 34.369437332192319 614.576515504184499 33.856156989236297 614.371217290246932 33.342876646280274 614.268533375168772 32.829596303324251 614.165919076303908 32.418999875447298"/><polyline class="cls-8" points="328.379179365258096 197.382832740215235 328.481793664122051 197.896113083170349 328.584477579201121 198.306709511045483 328.789775793136869 198.819989854004234 329.097757922154415 199.333200580738776 329.405670434955027 199.74386662483812 329.713652563972573 200.051779137633275 330.124248991849527 200.359761266667192"/><line class="cls-8" x1="330.124248991849527" y1="200.359761266667192" x2="615.910988702895338" y2="35.395928401900164"/><line class="cls-8" x1="614.165919076303908" y1="32.418999875447298" x2="328.379179365258096" y2="197.382832740215235"/><line class="cls-8" x1="338.336525630485085" y1="206.21100402067168" x2="337.823245287528152" y2="206.518986149687407"/><line class="cls-8" x1="333.306545348441432" y1="203.336689793090045" x2="333.306545348441432" y2="203.849970136037882"/><polyline class="cls-8" points="332.690581090409978 203.028777280280337 332.382668577609365 203.131391579165211 332.382668577609365 202.823409450134932 333.306545348441432 203.336689793090045"/><line class="cls-8" x1="333.101247134502955" y1="203.234075494234276" x2="332.690581090409978" y2="203.541988007029431"/><polyline class="cls-8" points="332.998563219427524 203.131391579165211 332.690581090409978 203.336689793090045 332.690581090409978 203.541988007029431"/><line class="cls-8" x1="332.690581090409978" y1="203.336689793090045" x2="332.382668577609365" y2="203.131391579165211"/><line class="cls-8" x1="338.952489888517448" y1="206.621600448535901" x2="338.952489888517448" y2="207.134880791505566"/><polyline class="cls-8" points="337.823245287528152 206.518986149687407 337.823245287528152 206.005705806732294 338.952489888517448 206.621600448535901"/><polyline class="cls-8" points="344.393066598438963 209.803896805133263 344.187768384499577 209.906511104003584 344.187768384499577 210.111809317942971"/><line class="cls-8" x1="344.393066598438963" y1="210.111809317942971" x2="344.187768384499577" y2="209.906511104003584"/><polyline class="cls-8" points="343.982470170561101 209.49591467612845 343.571873742683238 209.803896805133263 343.571873742683238 209.290616462174512 344.393066598438963 209.803896805133263 344.393066598438963 210.111809317942971"/><polyline class="cls-8" points="346.754100483062757 209.906511104003584 347.062082612077575 210.111809317942971 347.472679039956347 210.214493233022949 347.780661168970255 210.111809317942971 348.088573681775415 210.009195019087201 348.293941511923549 209.701212890064198 348.396555810788414 209.393230761037557 348.396555810788414 208.982634333169699"/><line class="cls-8" x1="348.396555810788414" y1="208.982634333169699" x2="346.754100483062757" y2="209.906511104003584"/><polyline class="cls-11" points="384.995681541554404 171.103012306102755 385.03965737163162 170.88917563618088 384.98399330913162 170.61769126118088 384.729141014209745 170.23097251118088 384.703323143115995 170.198593360790255"/><polyline class="cls-17" points="383.29179360210037 168.64131186664963 382.61412026225662 168.050338966259005 381.86125160991287 167.375534278759005 380.96580483256912 166.67140219868088 380.027419822804404 165.99562094868088 379.032363670459745 165.23390219868088 377.99436928569412 164.50050376118088 376.941726463429404 163.838363868602755 375.860732811084745 163.133285743602755 374.83641030131912 162.51411460102463 373.76908852397537 161.92329428852463 372.801406639209745 161.390060645946505 371.862014549365995 160.899826270946505 371.050552147022245 160.51014731586838 370.267410057179404 160.163437110790255 370.09733559428787 160.119064552196505"/><polyline class="cls-11" points="369.090591209522245 159.81666587055588 369.041885154834745 159.80012534321213 368.59953285991287 159.78352378071213 368.29972817241287 159.796188575634005 368.12785317241287 159.909469825634005"/><line class="cls-11" x1="372.86173989116287" y1="166.15742514789963" x2="372.06651284038162" y2="165.55110190571213"/><polyline class="cls-16" points="370.932571189990995 164.624618751415255 370.50254799663162 164.260910255321505 369.84928871928787 163.643722755321505 369.32395912944412 163.127121192821505"/><polyline class="cls-11" points="368.84092690288162 162.58119223774338 368.64335610210037 162.28144858539963 368.488113182179404 161.95234702289963 368.432449119679404 161.68086264789963 368.533035057179404 161.552963477977755 368.776199119679404 161.454330665477755 369.104324119679404 161.48463462055588 369.347732322804404 161.51545737446213"/><polyline class="cls-12" points="371.061477439990995 162.131271583446505 371.597305076709745 162.36848471821213 372.408767479054404 162.75813315571213 373.305190818897245 163.276718360790255 374.272903221240995 163.809921485790255 375.197646873584745 164.37147544086838 376.17900063335037 165.01893637836838 377.16038491069412 165.666427833446505 378.141738670459745 166.313888770946505 379.080154197804404 166.989670020946505 379.94725014506912 167.650802833446505 380.71476723491287 168.25434897602463 381.43931557475662 168.88618491352463 382.02128578960037 169.488693458446505 382.345779197804404 169.807785255321505"/><polyline class="cls-11" points="382.97550942241287 170.469040138134005 383.198928611865995 170.808029395946505 383.35417153178787 171.137130958446505 383.381484764209745 171.365646583446505 383.23796059428787 171.52186606586838 382.99479653178787 171.62049887836838 382.63835121928787 171.547226173290255 382.480117576709745 171.514694435009005"/><polyline class="cls-13" points="381.02635170756912 171.02046225727463 380.90019203960037 170.96711753071213 380.11704994975662 170.620407325634005 379.27726723491287 170.18775962055588 378.947829979054404 170.015854102977755"/><line class="cls-11" x1="378.267898338429404" y1="169.655014259227755" x2="377.41313149272537" y2="169.135971290477755"/><polyline class="cls-11" points="368.12785317241287 159.909469825634005 367.98332192241287 160.25123618305588 367.88175942241287 160.564682227977755 367.86613442241287 160.821518165477755 367.874587791554404 160.862777931102755"/><polyline class="cls-7" points="368.875930564990995 162.740341407665255 368.911880272022245 162.782394630321505 369.25267006694412 163.112472755321505 369.593459861865995 163.442550880321505 369.96256996928787 163.815597755321505 370.374648826709745 164.160324317821505 370.815017479054404 164.548019630321505 371.24137856303787 164.93977378071213"/><polyline class="cls-11" points="372.101272361865995 165.58729575336838 372.350051658740995 165.75508139789963 372.89006020366287 166.20039389789963"/><polyline class="cls-11" points="377.37016274272537 169.164291602977755 377.967788475147245 169.51002524555588 378.23576332866287 169.66505454243088"/><polyline class="cls-15" points="380.134048240772245 170.68342612446213 380.17369057475662 170.706344825634005 380.686355369679404 170.923141700634005 381.198989647022245 171.13996909321213 381.64036537944412 171.34211753071213 382.053420799365995 171.50129721821213 382.438186424365995 171.617538673290255 383.16679360210037 171.76728842914963"/><polyline class="cls-11" points="384.22996498881912 171.70869467914963 384.27891518413162 171.698654395946505 384.522048729054404 171.60005210102463 384.751540916554404 171.38716147602463 384.995681541554404 171.103012306102755"/><polyline class="cls-11" points="428.575576561084745 105.466537696727755 428.619521873584745 105.252670509227755 428.53556801616287 104.93824790180588 428.30900551616287 104.59449790180588 428.28123452006912 104.559677345165255"/><polyline class="cls-4" points="426.870132225147245 103.003463966259005 426.193984764209745 102.41383383930588 425.441116111865995 101.73902915180588 424.545669334522245 101.03492758930588 423.57896401225662 100.31617758930588 422.612258689990995 99.59742758930588 421.574233787647245 98.863998634227755 420.49327065288162 98.158920509227755 419.440627830615995 97.496811134227755 418.387954490772245 96.83467124164963 417.34898354350662 96.28681967914963 416.38127114116287 95.753586036572415 415.44187905131912 95.26332114399338 414.58744789897537 94.90199301899338 413.80430580913162 94.555282813915255 413.66947914897537 94.50465415180588"/><polyline class="cls-11" points="412.671340721240995 94.17732260883713 412.62174965678787 94.16365073383713 412.179397361865995 94.147018653759005 411.879592674365995 94.159713966259005 411.70774819194412 94.27296469868088"/><line class="cls-11" x1="428.575576561084745" y1="105.466537696727755" x2="428.022414939990995" y2="106.29963706196213"/><line class="cls-2" x1="426.933364647022245" y1="107.93989585102463" x2="386.09336830913162" y2="169.44978354633713"/><line class="cls-11" x1="385.54881264506912" y1="170.269943458446505" x2="384.995681541554404" y2="171.103012306102755"/><line class="cls-11" x1="411.70774819194412" y1="94.27296469868088" x2="411.15458657085037" y2="95.106064063915255"/><line class="cls-9" x1="410.06553627788162" y1="96.746322852977755" x2="369.225539939990995" y2="158.25624106586838"/><line class="cls-11" x1="368.68101479350662" y1="159.07637046039963" x2="368.12785317241287" y2="159.909469825634005"/><polyline class="cls-11" points="373.55314614116287 164.962204200634005 373.63908364116287 164.905563575634005 373.85295082866287 164.949508888134005 374.166396873584745 165.051071388134005 374.57749916850662 165.239364845165255"/><polyline class="cls-6" points="375.65519692241287 165.85676596821213 376.173110740772245 166.13215659321213 376.656448143115995 166.491562110790255 377.16813637553787 166.893905860790255 377.18717934428787 166.909836036571505"/><polyline class="cls-11" points="377.66056801616287 167.31245444477463 377.89268471538162 167.525741798290255 378.133865135304404 167.798202735790255 378.247146385304404 167.97004721821213 378.26078774272537 168.08430503071213"/><polyline class="cls-11" points="362.633804100147245 186.64131186664963 362.406265037647245 186.48310874164963 362.22172524272537 186.29658530414963 362.12211586772537 186.23896811664963 362.13676430522537 186.16767905414963 362.27934243022537 186.19697592914963 362.478530662647245 186.31221030414963 362.706069725147245 186.47041342914963 362.93357827006912 186.628647071727755 363.08982827006912 186.772201759227755 363.146438377490995 186.85810874164963 363.07517983256912 186.84346030414963 362.90428139506912 186.77119467914963 362.633804100147245 186.64131186664963"/><line class="cls-11" x1="362.13676430522537" y1="186.16767905414963" x2="362.610793846240995" y2="185.28718589008713"/><line class="cls-10" x1="363.562454002490995" y1="183.51948569477463" x2="372.603286522022245" y2="166.726547462352755"/><line class="cls-11" x1="373.079116600147245" y1="165.842697364696505" x2="373.55314614116287" y2="164.962204200634005"/><line class="cls-11" x1="363.146438377490995" y1="186.85810874164963" x2="363.77354409038162" y2="186.07917807758713"/><line class="cls-14" x1="365.03355385600662" y1="184.51411460102463" x2="377.003677147022245" y2="169.645797950634005"/><line class="cls-11" x1="377.633682029834745" y1="168.863266212352755" x2="378.26078774272537" y2="168.08430503071213"/><polyline class="cls-5" points="243.53040378022979 112.332106981041761 243.636774190226788 113.12991661727574 243.90271825021955 113.874541048524407 244.27503272020931 114.565975765995972 244.860088010199433 115.257410483485728 245.551513710183826 115.895659995971073 246.402513060163074 116.480719794708421 247.359900855137312 117.012594388441357 248.423641025113284 117.438094063425524 249.54056640008821 117.810404024665331 250.763880220060855 118.0763413215318 252.040379245032454 118.28909115902934 253.370063474996641 118.395466077792662 254.699747704968104 118.395466077792662 255.976246729936975 118.28909115902934 257.252745754905845 118.0763413215318 258.476059574876672 117.810404024665331 259.646170154852371 117.438094063425524 260.709928359826336 117.012594388441357 261.667298119802581 116.480719794708421 262.465112264782874 115.895659995971073 263.20972316976804 115.257410483485728 263.74159325475739 114.565975765995972 264.167092929745195 113.874541048524407 264.433036989736138 113.12991661727574 264.48622219473873 112.332106981041761"/><line class="cls-5" x1="243.53040378022979" y1="112.332106981041761" x2="243.53040378022979" y2="44.996900641377579"/><line class="cls-5" x1="264.48622219473873" y1="112.332106981041761" x2="264.48622219473873" y2="44.996900641377579"/><polyline class="cls-5" points="256.933616489914129 43.826772026404797 256.933616489914129 44.252271701388054 256.720875669919224 44.624586171385999 256.401746404925689 44.943706418875081 255.923061524938021 45.262835683865887 255.338006234949717 45.475585521366156 254.699747704968104 45.581955931360426 254.008322004980982 45.635141136363018 253.316878270000416 45.581955931360426 252.678637775011339 45.475585521366156 252.146749655028543 45.262835683865887 251.668064775038147 44.943706418875081 251.348953545045333 44.624586171385999 251.136194690052434 44.252271701388054 251.083009485051662 43.826772026404797"/><polyline class="cls-5" points="253.582822329992268 23.190073859392214 253.848748354987038 23.083703449381574 254.114692414980709 23.083703449381574 254.433803644976251 23.136888654399627 254.593377294969287 23.296453286898213 254.646562499966421 23.456008901879613 254.540192089970333 23.61557353437729 254.327433234975615 23.77513816687042 254.061507209980846 23.828323371874831 253.742377944990039 23.77513816687042 253.529619089996231 23.668758739394434 253.423248679997414 23.509203124383021 253.423248679997414 23.349638491887163 253.582822329992268 23.190073859392214"/><line class="cls-5" x1="254.646562499966421" y1="23.402823696889755" x2="256.933616489914129" y2="43.826772026404797"/><line class="cls-5" x1="253.370063474996641" y1="23.402823696889755" x2="251.083009485051662" y2="43.826772026404797"/><polyline class="cls-5" points="264.48622219473873 44.996900641377579 264.433036989736138 44.358651128893143 264.326666579740049 43.773586821415847 264.113907724746241 43.135337308931412 263.794796494752518 42.603467223940243 263.422482024760029 42.071588121449167 262.996982349772225 41.592903241462409 262.518297469781828 41.114218361472012 261.986427384795206 40.688718686489665 261.401354059808909 40.263219011489127 260.816298769821515 39.944098763997317 260.124855034840948 39.62496949900742 259.433429334855646 39.305849251514701 258.688800394873397 39.093099414014432 257.944171454890238 38.880349576528715 257.146375344908847 38.720784944031038 256.348561199929463 38.561220311538818"/><polyline class="cls-5" points="251.668064775038147 38.561220311538818 250.870250630058763 38.720784944031038 250.125639725072688 38.880349576528715 249.327825580092394 39.093099414014432 248.636381845110009 39.305849251514701 247.891770940126662 39.62496949900742 247.25351241014323 39.944098763997317 246.615271915157791 40.263219011489127 246.030216625167668 40.688718686489665 245.498328505185782 41.114218361472012 245.019643625193567 41.592903241462409 244.594143950204852 42.071588121449167 244.221829480215092 42.603467223940243 243.955903455220323 43.135337308931412 243.743144600227424 43.773586821415847 243.583588985229653 44.358651128893143 243.53040378022979 44.996900641377579"/><polyline class="cls-5" points="244.101592434608392 46.224729979120639 244.686647724593058 46.916164696608575 245.378073424578361 47.554414209091192 246.229072774559427 48.139474007828539 247.186460569532755 48.671348601564205 248.250200739510547 49.096848276549281 249.367126114484563 49.469158237800912 250.590439934457208 49.735095534653738 251.86693895942517 49.947845372151278 253.196623189393904 50.054220290901867 254.526307419364457 50.054220290901867 255.802806444333328 49.947845372151278 257.079305469303108 49.735095534653738 258.302619289273025 49.469158237800912 259.472729869247814 49.096848276549281 260.53648807422087 48.671348601564205 261.493857834199844 48.139474007828539 262.291671979180137 47.554414209091192 263.036282884165303 46.916164696608575 263.568152969151924 46.224729979120639"/><path class="cls-18" d="m285.734084861865995,51.759079200634005h1.23291015625v4.23046875h.02783203125c.1962890625-.3505859375.50439453125-.65869140625.88232421875-.86865234375.3642578125-.2099609375.798828125-.35009765625,1.2607421875-.35009765625.91064453125,0,2.3671875.56005859375,2.3671875,2.8994140625v4.0341796875h-1.232421875v-3.89404296875c0-1.0927734375-.40625-2.01708984375-1.56884765625-2.01708984375-.79833984375,0-1.4287109375.56005859375-1.65283203125,1.232421875-.0703125.16845703125-.083984375.3505859375-.083984375.58837890625v4.09033203125h-1.23291015625v-9.9453125Z"/><path class="cls-18" d="m294.190627830615995,58.538864356884005c.02783203125,1.66650390625,1.0927734375,2.35302734375,2.3251953125,2.35302734375.88232421875,0,1.41455078125-.15380859375,1.876953125-.35009765625l.2099609375.88232421875c-.43408203125.1962890625-1.17626953125.42041015625-2.2548828125.42041015625-2.08740234375,0-3.333984375-1.37255859375-3.333984375-3.41796875,0-2.044921875,1.20458984375-3.65576171875,3.1796875-3.65576171875,2.21337890625,0,2.8017578125,1.94677734375,2.8017578125,3.193359375,0,.25244140625-.0283203125.4482421875-.0419921875.57470703125h-4.7626953125Zm3.61376953125-.8828125c.01416015625-.7841796875-.322265625-2.0029296875-1.708984375-2.0029296875-1.24658203125,0-1.79296875,1.1484375-1.890625,2.0029296875h3.599609375Z"/><path class="cls-18" d="m304.271682518115995,61.704391700634005l-.09765625-.8544921875h-.0419921875c-.37841796875.5322265625-1.10693359375,1.0087890625-2.0732421875,1.0087890625-1.373046875,0-2.0732421875-.966796875-2.0732421875-1.947265625,0-1.638671875,1.45703125-2.53515625,4.076171875-2.521484375v-.14013671875c0-.56005859375-.15380859375-1.56884765625-1.541015625-1.56884765625-.6298828125,0-1.28857421875.1962890625-1.7646484375.50439453125l-.2802734375-.8125c.560546875-.3642578125,1.373046875-.60205078125,2.22705078125-.60205078125,2.0732421875,0,2.57763671875,1.41455078125,2.57763671875,2.7734375v2.53515625c0,.58837890625.02783203125,1.16259765625.11181640625,1.625h-1.12060546875Zm-.181640625-3.4599609375c-1.3447265625-.02783203125-2.87158203125.2099609375-2.87158203125,1.52685546875,0,.79833984375.5322265625,1.1767578125,1.16259765625,1.1767578125.88232421875,0,1.4423828125-.560546875,1.638671875-1.134765625.0419921875-.1259765625.0703125-.26611328125.0703125-.39208984375v-1.1767578125Z"/><path class="cls-18" d="m308.694534080615995,52.977829200634005v1.94677734375h1.76513671875v.9384765625h-1.76513671875v3.65625c0,.84033203125.23828125,1.31640625.92431640625,1.31640625.322265625,0,.560546875-.0419921875.71435546875-.083984375l.05615234375.9248046875c-.23779296875.09765625-.6162109375.16796875-1.09228515625.16796875-.57470703125,0-1.03662109375-.18212890625-1.3310546875-.5185546875-.35009765625-.36376953125-.47607421875-.96630859375-.47607421875-1.7646484375v-3.6982421875h-1.05078125v-.9384765625h1.05078125v-1.62451171875l1.20458984375-.322265625Z"/><path class="cls-18" d="m274.015823143115995,73.839645606884005c0-.79833984375-.013671875-1.48486328125-.05615234375-2.115234375h1.07861328125l.0419921875,1.3310546875h.05615234375c.30810546875-.91064453125,1.05078125-1.48486328125,1.876953125-1.48486328125.14013671875,0,.23828125.013671875.35009765625.0419921875v1.16259765625c-.1259765625-.0283203125-.251953125-.0419921875-.419921875-.0419921875-.86865234375,0-1.48486328125.658203125-1.65283203125,1.58251953125-.0283203125.16845703125-.05615234375.3642578125-.05615234375.57470703125v3.61376953125h-1.21875v-4.66455078125Z"/><path class="cls-18" d="m279.140334861865995,75.338669044384005c.02783203125,1.66650390625,1.09228515625,2.35302734375,2.3251953125,2.35302734375.88232421875,0,1.41455078125-.15380859375,1.876953125-.35009765625l.2099609375.88232421875c-.43408203125.1962890625-1.17626953125.42041015625-2.2548828125.42041015625-2.08740234375,0-3.333984375-1.37255859375-3.333984375-3.41796875,0-2.044921875,1.20458984375-3.65576171875,3.1796875-3.65576171875,2.21337890625,0,2.8017578125,1.94677734375,2.8017578125,3.193359375,0,.25244140625-.0283203125.4482421875-.0419921875.57470703125h-4.7626953125Zm3.61376953125-.8828125c.01416015625-.7841796875-.322265625-2.0029296875-1.708984375-2.0029296875-1.24658203125,0-1.79296875,1.1484375-1.890625,2.0029296875h3.599609375Z"/><path class="cls-18" d="m285.300002830615995,77.243454200634005c.3642578125.23828125,1.00830078125.490234375,1.625.490234375.896484375,0,1.31640625-.4482421875,1.31640625-1.00830078125,0-.58837890625-.35009765625-.91064453125-1.2607421875-1.24658203125-1.21826171875-.4345703125-1.79296875-1.10693359375-1.79296875-1.91943359375,0-1.09228515625.8828125-1.98876953125,2.33935546875-1.98876953125.6865234375,0,1.28857421875.19580078125,1.6669921875.419921875l-.30810546875.896484375c-.26611328125-.16796875-.75634765625-.39208984375-1.38671875-.39208984375-.728515625,0-1.134765625.42041015625-1.134765625.92431640625,0,.560546875.40625.8125,1.28857421875,1.14892578125,1.1767578125.4482421875,1.779296875,1.03662109375,1.779296875,2.044921875,0,1.19091796875-.9248046875,2.03125-2.53564453125,2.03125-.7421875,0-1.4287109375-.18212890625-1.90478515625-.46240234375l.30810546875-.9384765625Z"/><path class="cls-18" d="m292.384963768115995,69.819626075634005c.013671875.419921875-.29443359375.75634765625-.78466796875.75634765625-.43408203125,0-.7421875-.33642578125-.7421875-.75634765625,0-.4345703125.32177734375-.7705078125.77001953125-.7705078125.46240234375,0,.7568359375.3359375.7568359375.7705078125Zm-1.373046875,8.6845703125v-6.77978515625h1.23291015625v6.77978515625h-1.23291015625Z"/><path class="cls-18" d="m294.119827049365995,77.243454200634005c.3642578125.23828125,1.00830078125.490234375,1.625.490234375.896484375,0,1.31640625-.4482421875,1.31640625-1.00830078125,0-.58837890625-.35009765625-.91064453125-1.2607421875-1.24658203125-1.21826171875-.4345703125-1.79296875-1.10693359375-1.79296875-1.91943359375,0-1.09228515625.8828125-1.98876953125,2.33935546875-1.98876953125.6865234375,0,1.2890625.19580078125,1.6669921875.419921875l-.30810546875.896484375c-.26611328125-.16796875-.75634765625-.39208984375-1.38671875-.39208984375-.728515625,0-1.134765625.42041015625-1.134765625.92431640625,0,.560546875.40625.8125,1.28857421875,1.14892578125,1.1767578125.4482421875,1.779296875,1.03662109375,1.779296875,2.044921875,0,1.19091796875-.9248046875,2.03125-2.53564453125,2.03125-.7421875,0-1.4287109375-.18212890625-1.90478515625-.46240234375l.30810546875-.9384765625Z"/><path class="cls-18" d="m301.316604393115995,69.777633888134005v1.94677734375h1.76513671875v.9384765625h-1.76513671875v3.65625c0,.84033203125.23828125,1.31640625.92431640625,1.31640625.322265625,0,.560546875-.0419921875.71435546875-.083984375l.05615234375.9248046875c-.23779296875.09765625-.6162109375.16796875-1.09228515625.16796875-.57470703125,0-1.03662109375-.18212890625-1.3310546875-.5185546875-.35009765625-.36376953125-.47607421875-.96630859375-.47607421875-1.7646484375v-3.6982421875h-1.05078125v-.9384765625h1.05078125v-1.62451171875l1.20458984375-.322265625Z"/><path class="cls-18" d="m308.219436424365995,78.504196388134005l-.09765625-.8544921875h-.0419921875c-.37841796875.5322265625-1.10693359375,1.0087890625-2.0732421875,1.0087890625-1.373046875,0-2.0732421875-.966796875-2.0732421875-1.947265625,0-1.638671875,1.45703125-2.53515625,4.076171875-2.521484375v-.14013671875c0-.56005859375-.15380859375-1.56884765625-1.54052734375-1.56884765625-.63037109375,0-1.2890625.1962890625-1.76513671875.50439453125l-.2802734375-.8125c.560546875-.3642578125,1.37255859375-.60205078125,2.22705078125-.60205078125,2.0732421875,0,2.57763671875,1.41455078125,2.57763671875,2.7734375v2.53515625c0,.58837890625.02783203125,1.16259765625.11181640625,1.625h-1.12060546875Zm-.18212890625-3.4599609375c-1.3447265625-.02783203125-2.87109375.2099609375-2.87109375,1.52685546875,0,.79833984375.5322265625,1.1767578125,1.16259765625,1.1767578125.88232421875,0,1.4423828125-.560546875,1.638671875-1.134765625.0419921875-.1259765625.06982421875-.26611328125.06982421875-.39208984375v-1.1767578125Z"/><path class="cls-18" d="m311.213577049365995,73.559372169384005c0-.7001953125-.01416015625-1.2744140625-.05615234375-1.8349609375h1.0927734375l.0703125,1.12060546875h.02783203125c.3359375-.64404296875,1.12060546875-1.2744140625,2.2412109375-1.2744140625.9384765625,0,2.39501953125.56005859375,2.39501953125,2.88525390625v4.04833984375h-1.232421875v-3.908203125c0-1.09228515625-.40625-2.0029296875-1.56884765625-2.0029296875-.8125,0-1.44287109375.57421875-1.65283203125,1.2607421875-.05615234375.15380859375-.083984375.3642578125-.083984375.57421875v4.076171875h-1.23291015625v-4.94482421875Z"/><path class="cls-18" d="m320.412307518115995,69.777633888134005v1.94677734375h1.76513671875v.9384765625h-1.76513671875v3.65625c0,.84033203125.23828125,1.31640625.92431640625,1.31640625.322265625,0,.560546875-.0419921875.71435546875-.083984375l.05615234375.9248046875c-.23779296875.09765625-.6162109375.16796875-1.09228515625.16796875-.57470703125,0-1.03662109375-.18212890625-1.3310546875-.5185546875-.35009765625-.36376953125-.47607421875-.96630859375-.47607421875-1.7646484375v-3.6982421875h-1.05078125v-.9384765625h1.05078125v-1.62451171875l1.20458984375-.322265625Z"/><path class="cls-18" d="m278.075881736865995,94.043747169384005c.3642578125.23828125,1.00830078125.490234375,1.625.490234375.896484375,0,1.31640625-.4482421875,1.31640625-1.00830078125,0-.58837890625-.35009765625-.91064453125-1.2607421875-1.2470703125-1.21826171875-.43408203125-1.79296875-1.1064453125-1.79296875-1.9189453125,0-1.09228515625.8828125-1.98876953125,2.33935546875-1.98876953125.6865234375,0,1.2890625.19580078125,1.6669921875.419921875l-.30810546875.896484375c-.26611328125-.16796875-.75634765625-.39208984375-1.38671875-.39208984375-.728515625,0-1.134765625.42041015625-1.134765625.92431640625,0,.560546875.40625.8125,1.28857421875,1.14892578125,1.1767578125.4482421875,1.779296875,1.03662109375,1.779296875,2.044921875,0,1.19091796875-.9248046875,2.03125-2.53564453125,2.03125-.7421875,0-1.4287109375-.18212890625-1.90478515625-.46240234375l.30810546875-.9384765625Z"/><path class="cls-18" d="m285.160842674365995,86.619919044384005c.013671875.419921875-.29443359375.75634765625-.78466796875.75634765625-.43408203125,0-.7421875-.33642578125-.7421875-.75634765625,0-.4345703125.32177734375-.7705078125.77001953125-.7705078125.46240234375,0,.7568359375.3359375.7568359375.7705078125Zm-1.373046875,8.6845703125v-6.77978515625h1.23291015625v6.77978515625h-1.23291015625Z"/><path class="cls-18" d="m287.063674705615995,85.359176856884005h1.23291015625v9.9453125h-1.23291015625v-9.9453125Z"/><path class="cls-18" d="m291.740432518115995,86.619919044384005c.013671875.419921875-.29443359375.75634765625-.78466796875.75634765625-.43408203125,0-.7421875-.33642578125-.7421875-.75634765625,0-.4345703125.32177734375-.7705078125.77001953125-.7705078125.46240234375,0,.7568359375.3359375.7568359375.7705078125Zm-1.373046875,8.6845703125v-6.77978515625h1.23291015625v6.77978515625h-1.23291015625Z"/><path class="cls-18" d="m298.476272361865995,95.052536231884005c-.32177734375.16796875-1.03662109375.39208984375-1.94677734375.39208984375-2.04541015625,0-3.3759765625-1.38671875-3.3759765625-3.4599609375,0-2.0869140625,1.4287109375-3.60009765625,3.64208984375-3.60009765625.728515625,0,1.37255859375.18212890625,1.708984375.3505859375l-.2802734375.9521484375c-.2939453125-.16796875-.75634765625-.32177734375-1.4287109375-.32177734375-1.5546875,0-2.3955078125,1.1484375-2.3955078125,2.56298828125,0,1.56884765625,1.0087890625,2.53564453125,2.353515625,2.53564453125.7001953125,0,1.16259765625-.18212890625,1.5126953125-.33642578125l.2099609375.9248046875Z"/><path class="cls-18" d="m305.966995018115995,91.858688575634005c0,2.50732421875-1.73681640625,3.60009765625-3.37548828125,3.60009765625-1.8349609375,0-3.25-1.3447265625-3.25-3.48828125,0-2.26904296875,1.48486328125-3.599609375,3.36181640625-3.599609375,1.947265625,0,3.263671875,1.41455078125,3.263671875,3.48779296875Zm-5.37890625.06982421875c0,1.48486328125.8544921875,2.60546875,2.05908203125,2.60546875,1.1767578125,0,2.05908203125-1.1064453125,2.05908203125-2.63330078125,0-1.1484375-.57421875-2.60546875-2.03076171875-2.60546875-1.45703125,0-2.08740234375,1.3447265625-2.08740234375,2.63330078125Z"/><path class="cls-18" d="m307.517287986865995,90.359665138134005c0-.7001953125-.01416015625-1.2744140625-.05615234375-1.8349609375h1.0927734375l.0703125,1.12060546875h.02783203125c.3359375-.64404296875,1.12060546875-1.2744140625,2.2412109375-1.2744140625.9384765625,0,2.39501953125.56005859375,2.39501953125,2.88525390625v4.04833984375h-1.232421875v-3.908203125c0-1.09228515625-.40625-2.0029296875-1.56884765625-2.0029296875-.8125,0-1.44287109375.57421875-1.65283203125,1.2607421875-.05615234375.15380859375-.083984375.3642578125-.083984375.57421875v4.076171875h-1.23291015625v-4.94482421875Z"/><path class="cls-18" d="m315.973830955615995,92.138962013134005c.02783203125,1.66650390625,1.0927734375,2.35302734375,2.3251953125,2.35302734375.88232421875,0,1.41455078125-.15380859375,1.876953125-.35009765625l.2099609375.88232421875c-.43408203125.1962890625-1.17626953125.42041015625-2.2548828125.42041015625-2.08740234375,0-3.333984375-1.373046875-3.333984375-3.41796875s1.20458984375-3.65576171875,3.1796875-3.65576171875c2.21337890625,0,2.8017578125,1.94677734375,2.8017578125,3.193359375,0,.25244140625-.0283203125.4482421875-.0419921875.57470703125h-4.7626953125Zm3.61376953125-.8828125c.01416015625-.7841796875-.322265625-2.0029296875-1.708984375-2.0029296875-1.24658203125,0-1.79296875,1.1484375-1.890625,2.0029296875h3.599609375Z"/><path class="cls-3" d="m358.248664031962107,148.351334933937324l-28.524025369687479-43.64241878303892c5.299830377665785-9.326566087111132,8.341520914433204-20.103892407200874,8.341520914433204-31.597838214352123,0-35.384415869123586-28.684870525952647-64.069169586691714-64.069286395086237-64.069169586691714-35.384532677527204,0-64.069286395087147,28.684753717568128-64.069286395087147,64.069169586691714,0,35.384532677526295,28.684753717559943,64.069286395077143,64.069286395087147,64.069286395077143,12.519640300368337,0,24.191368480673191-3.604356562693283,34.059808699894347-9.812488999272318l50.191982150446165,20.983459601586219Z"/><path class="cls-1" d="m338.269322852411278,201.183982452399505c.866873315269913-.762069879576302,2.216429654257809-1.707169226614496,4.011071713865022-2.005526324148377,2.292234358701535-.38108260370791,3.12808799234972.655760263900447,4.58408740601044,0,1.711478045331205-.770820975991228,1.174343755035807-2.481669857519591,3.438056021722332-5.157103098150401.292256115285454-.345410923124291,1.668122940224748-1.932409865010413,4.011071713865931-3.151557708439213,1.810924055983378-.942315773889277,3.479771487848666-1.290300548887899,4.58408740601044-1.432529697576683"/></svg>