<?xml version="1.0" encoding="UTF-8"?><svg id="Layer_1" xmlns="http://www.w3.org/2000/svg" viewBox="0 0 841.88983154296875 595.27557373046875"><defs><style>.cls-1{fill:none;stroke:#000;stroke-linecap:round;stroke-linejoin:round;stroke-width:.25px;}.cls-2{fill:#1d1d1b;}</style></defs><polyline class="cls-1" points="421.168394054999226 48.672975940015021 429.660871952459274 43.756302140764092 777.854284493474552 244.894790088220361 769.361655033926581 249.811463887470381 421.168394054999226 48.672975940015021 421.168394054999226 134.939079301965648 694.716877100645434 293.168069633001323"/><polyline class="cls-1" points="412.675916157526444 455.86692875836161 64.035547049488741 254.728289248819237 72.528024946954247 249.811463887470381 421.168394054999226 450.950103397011844 412.675916157526444 455.86692875836161 412.675916157526444 542.133032120294956"/><polyline class="cls-1" points="421.168394054999226 547.049705919547705 786.346762390940057 336.07771881149165 786.346762390940057 249.811463887470381 777.854284493474552 244.894790088220361 412.675916157526444 455.86692875836161 412.675916157526444 542.133032120294956 64.035547049488741 340.994392610740761 64.035547049488741 254.728289248819237"/><polyline class="cls-1" points="412.675916157526444 542.133032120294956 421.168394054999226 547.049705919547705 421.168394054999226 460.783602557607082 786.346762390940057 249.811463887470381"/><line class="cls-1" x1="412.675916157526444" y1="455.86692875836161" x2="421.168394054999226" y2="460.783602557607082"/><polyline class="cls-1" points="421.168394054999226 38.839325217345504 429.660871952459274 43.756302140764092 64.035547049488741 254.728289248819237 64.035547049488741 340.994392610740761"/><line class="cls-1" x1="147.172802880246309" y1="293.168069633001323" x2="421.168394054999226" y2="134.939079301965648"/><polyline class="cls-1" points="64.035547049488741 254.728289248819237 55.543069152028693 249.811463887470381 55.543069152028693 336.07771881149165 64.035547049488741 340.994392610740761"/><line class="cls-1" x1="55.543069152028693" y1="249.811463887470381" x2="421.168394054999226" y2="38.839325217345504"/><polyline class="cls-1" points="421.168394054999226 547.049705919547705 421.168394054999226 556.436248513124156 55.990025719045661 345.911066410022613 55.990025719045661 336.524675378514075"/><polyline class="cls-1" points="421.168394054999226 556.436248513124156 785.899805823919451 345.911066410022613 785.899805823919451 336.524675378514075"/><path class="cls-2" d="m346.11376953125,277.43408203125v-15.025390625h2.11767578125l4.8154296875,7.6015625c1.11474609375,1.76123046875,1.98388671875,3.34423828125,2.697265625,4.88232421875l.044921875-.02197265625c-.1787109375-2.0068359375-.22314453125-3.83447265625-.22314453125-6.17529296875v-6.28662109375h1.828125v15.025390625h-1.9619140625l-4.7705078125-7.6240234375c-1.0478515625-1.67236328125-2.05126953125-3.388671875-2.80908203125-5.01611328125l-.06689453125.0224609375c.111328125,1.89453125.15625,3.7001953125.15625,6.197265625v6.42041015625h-1.828125Z"/><path class="cls-2" d="m361.8046875,272.39599609375c.04443359375,2.65283203125,1.73876953125,3.7451171875,3.70068359375,3.7451171875,1.404296875,0,2.25146484375-.2451171875,2.9873046875-.55712890625l.33447265625,1.404296875c-.69140625.31201171875-1.87255859375.6689453125-3.58935546875.6689453125-3.32177734375,0-5.3056640625-2.18505859375-5.3056640625-5.43994140625,0-3.25439453125,1.9169921875-5.818359375,5.060546875-5.818359375,3.5224609375,0,4.45849609375,3.0986328125,4.45849609375,5.0830078125,0,.4013671875-.04443359375.71337890625-.06689453125.9140625h-7.57958984375Zm5.75146484375-1.40478515625c.0224609375-1.248046875-.5126953125-3.1875-2.7197265625-3.1875-1.98388671875,0-2.853515625,1.82763671875-3.00927734375,3.1875h5.72900390625Z"/><path class="cls-2" d="m371.61083984375,275.427734375c.57958984375.37890625,1.60498046875.7802734375,2.5859375.7802734375,1.4267578125,0,2.095703125-.71337890625,2.095703125-1.60498046875,0-.9365234375-.5576171875-1.44921875-2.00634765625-1.984375-1.939453125-.69091796875-2.853515625-1.76123046875-2.853515625-3.05419921875,0-1.73876953125,1.404296875-3.16552734375,3.72265625-3.16552734375,1.0927734375,0,2.05126953125.31201171875,2.65283203125.6689453125l-.490234375,1.4267578125c-.42333984375-.267578125-1.20361328125-.62451171875-2.20703125-.62451171875-1.1591796875,0-1.8056640625.6689453125-1.8056640625,1.4716796875,0,.8916015625.646484375,1.29296875,2.05078125,1.828125,1.87255859375.71337890625,2.83154296875,1.6494140625,2.83154296875,3.25439453125,0,1.89501953125-1.4716796875,3.23291015625-4.03515625,3.23291015625-1.181640625,0-2.27392578125-.2900390625-3.03173828125-.73583984375l.490234375-1.49365234375Z"/><path class="cls-2" d="m383.0673828125,263.54541015625v3.0986328125h2.80908203125v1.49365234375h-2.80908203125v5.81884765625c0,1.33740234375.37939453125,2.09521484375,1.4716796875,2.09521484375.5126953125,0,.8916015625-.06689453125,1.13671875-.1337890625l.08935546875,1.4716796875c-.37890625.15576171875-.98095703125.267578125-1.73876953125.267578125-.9140625,0-1.64990234375-.2900390625-2.1181640625-.8251953125-.55712890625-.57958984375-.7578125-1.5380859375-.7578125-2.80859375v-5.8857421875h-1.671875v-1.49365234375h1.671875v-2.5859375l1.9169921875-.5126953125Z"/><path class="cls-2" d="m390.26611328125,263.6123046875c.0224609375.6689453125-.46826171875,1.2041015625-1.24853515625,1.2041015625-.69091796875,0-1.18115234375-.53515625-1.18115234375-1.2041015625,0-.69091796875.5126953125-1.22607421875,1.22607421875-1.22607421875.7353515625,0,1.20361328125.53515625,1.20361328125,1.22607421875Zm-2.1845703125,13.82177734375v-10.7900390625h1.9619140625v10.7900390625h-1.9619140625Z"/><path class="cls-2" d="m393.29638671875,269.564453125c0-1.1142578125-.021484375-2.0283203125-.0888671875-2.92041015625h1.7392578125l.111328125,1.78369140625h.044921875c.5341796875-1.025390625,1.783203125-2.02880859375,3.56640625-2.02880859375,1.494140625,0,3.8125.8916015625,3.8125,4.59228515625v6.44287109375h-1.9619140625v-6.2197265625c0-1.73876953125-.646484375-3.18798828125-2.4970703125-3.18798828125-1.29296875,0-2.2958984375.9140625-2.630859375,2.00634765625-.0888671875.2451171875-.1337890625.57958984375-.1337890625.9140625v6.4873046875h-1.9619140625v-7.86962890625Z"/><path class="cls-2" d="m414.96337890625,266.64404296875c-.044921875.7802734375-.08984375,1.64990234375-.08984375,2.96533203125v6.26416015625c0,2.474609375-.490234375,3.99072265625-1.5380859375,4.9267578125-1.0478515625.98095703125-2.5634765625,1.29296875-3.9228515625,1.29296875-1.29296875,0-2.7197265625-.31201171875-3.58984375-.8916015625l.490234375-1.49365234375c.7138671875.44580078125,1.828125.84716796875,3.166015625.84716796875,2.0068359375,0,3.4775390625-1.0478515625,3.4775390625-3.767578125v-1.20361328125h-.0439453125c-.6025390625,1.0029296875-1.76171875,1.8056640625-3.43359375,1.8056640625-2.6748046875,0-4.5927734375-2.27392578125-4.5927734375-5.26123046875,0-3.65625,2.3857421875-5.7294921875,4.8603515625-5.7294921875,1.873046875,0,2.8984375.98095703125,3.3662109375,1.87255859375h.044921875l.0888671875-1.62744140625h1.716796875Zm-2.029296875,4.25830078125c0-.33447265625-.021484375-.62451171875-.111328125-.89208984375-.3564453125-1.13671875-1.3154296875-2.0732421875-2.7421875-2.0732421875-1.8720703125,0-3.2099609375,1.5830078125-3.2099609375,4.080078125,0,2.11767578125,1.0703125,3.87890625,3.1884765625,3.87890625,1.203125,0,2.2958984375-.75830078125,2.7197265625-2.00634765625.111328125-.33447265625.1552734375-.71337890625.1552734375-1.0478515625v-1.939453125Z"/><path class="cls-2" d="m422.8505859375,269.564453125c0-1.1142578125-.021484375-2.0283203125-.0888671875-2.92041015625h1.716796875l.0888671875,1.7392578125h.0673828125c.6015625-1.02587890625,1.6044921875-1.984375,3.388671875-1.984375,1.470703125,0,2.5859375.8916015625,3.0537109375,2.16259765625h.044921875c.333984375-.60205078125.7578125-1.0703125,1.203125-1.40478515625.646484375-.490234375,1.3603515625-.7578125,2.3857421875-.7578125,1.4267578125,0,3.544921875.9365234375,3.544921875,4.681640625v6.353515625h-1.91796875v-6.1083984375c0-2.0732421875-.7578125-3.32177734375-2.33984375-3.32177734375-1.115234375,0-1.984375.8251953125-2.3193359375,1.78369140625-.0888671875.267578125-.1552734375.6240234375-.1552734375.98095703125v6.66552734375h-1.91796875v-6.46484375c0-1.716796875-.7578125-2.96533203125-2.2509765625-2.96533203125-1.2265625,0-2.1181640625.98095703125-2.4306640625,1.9619140625-.111328125.2900390625-.1552734375.62451171875-.1552734375.95849609375v6.509765625h-1.91796875v-7.86962890625Z"/><path class="cls-2" d="m447.4130859375,277.43408203125l-.1552734375-1.35986328125h-.0673828125c-.6015625.84716796875-1.7607421875,1.60498046875-3.298828125,1.60498046875-2.185546875,0-3.2998046875-1.5380859375-3.2998046875-3.0986328125,0-2.6083984375,2.318359375-4.03515625,6.4873046875-4.0126953125v-.22314453125c0-.8916015625-.2451171875-2.49658203125-2.4521484375-2.49658203125-1.0029296875,0-2.05078125.31201171875-2.80859375.80224609375l-.4462890625-1.29296875c.8916015625-.57958984375,2.1845703125-.95849609375,3.544921875-.95849609375,3.298828125,0,4.1015625,2.25146484375,4.1015625,4.4140625v4.03515625c0,.93603515625.044921875,1.85009765625.1787109375,2.5859375h-1.7841796875Zm-.2890625-5.50634765625c-2.140625-.04443359375-4.5703125.33447265625-4.5703125,2.4296875,0,1.27099609375.8466796875,1.873046875,1.8505859375,1.873046875,1.404296875,0,2.2958984375-.89208984375,2.607421875-1.80615234375.0673828125-.20068359375.1123046875-.42333984375.1123046875-.6240234375v-1.87255859375Z"/><path class="cls-2" d="m454.4560546875,263.54541015625v3.0986328125h2.8095703125v1.49365234375h-2.8095703125v5.81884765625c0,1.33740234375.37890625,2.09521484375,1.4716796875,2.09521484375.5126953125,0,.8916015625-.06689453125,1.13671875-.1337890625l.0888671875,1.4716796875c-.37890625.15576171875-.98046875.267578125-1.73828125.267578125-.9140625,0-1.6494140625-.2900390625-2.1181640625-.8251953125-.5576171875-.57958984375-.7578125-1.5380859375-.7578125-2.80859375v-5.8857421875h-1.671875v-1.49365234375h1.671875v-2.5859375l1.9169921875-.5126953125Z"/><path class="cls-2" d="m460.4287109375,272.39599609375c.044921875,2.65283203125,1.7392578125,3.7451171875,3.701171875,3.7451171875,1.404296875,0,2.2509765625-.2451171875,2.986328125-.55712890625l.3349609375,1.404296875c-.69140625.31201171875-1.873046875.6689453125-3.5888671875.6689453125-3.322265625,0-5.306640625-2.18505859375-5.306640625-5.43994140625,0-3.25439453125,1.91796875-5.818359375,5.060546875-5.818359375,3.5224609375,0,4.458984375,3.0986328125,4.458984375,5.0830078125,0,.4013671875-.044921875.71337890625-.06640625.9140625h-7.580078125Zm5.751953125-1.40478515625c.0224609375-1.248046875-.5126953125-3.1875-2.7197265625-3.1875-1.984375,0-2.853515625,1.82763671875-3.009765625,3.1875h5.7294921875Z"/><path class="cls-2" d="m470.501953125,270.01025390625c0-1.2705078125-.021484375-2.36279296875-.0888671875-3.3662109375h1.716796875l.06640625,2.1181640625h.08984375c.490234375-1.44921875,1.671875-2.36328125,2.9873046875-2.36328125.22265625,0,.37890625.0224609375.556640625.06689453125v1.8505859375c-.2001953125-.044921875-.4013671875-.06689453125-.66796875-.06689453125-1.3828125,0-2.36328125,1.04736328125-2.630859375,2.51904296875-.044921875.267578125-.0888671875.57958984375-.0888671875.9140625v5.75146484375h-1.9404296875v-7.423828125Z"/><path class="cls-2" d="m480.0654296875,263.6123046875c.021484375.6689453125-.46875,1.2041015625-1.2490234375,1.2041015625-.6904296875,0-1.181640625-.53515625-1.181640625-1.2041015625,0-.69091796875.5126953125-1.22607421875,1.2265625-1.22607421875.7353515625,0,1.2041015625.53515625,1.2041015625,1.22607421875Zm-2.185546875,13.82177734375v-10.7900390625h1.9619140625v10.7900390625h-1.9619140625Z"/><path class="cls-2" d="m489.0693359375,277.43408203125l-.1552734375-1.35986328125h-.0673828125c-.6015625.84716796875-1.7607421875,1.60498046875-3.298828125,1.60498046875-2.185546875,0-3.2998046875-1.5380859375-3.2998046875-3.0986328125,0-2.6083984375,2.318359375-4.03515625,6.4873046875-4.0126953125v-.22314453125c0-.8916015625-.2451171875-2.49658203125-2.4521484375-2.49658203125-1.0029296875,0-2.05078125.31201171875-2.80859375.80224609375l-.4462890625-1.29296875c.8916015625-.57958984375,2.1845703125-.95849609375,3.544921875-.95849609375,3.298828125,0,4.1015625,2.25146484375,4.1015625,4.4140625v4.03515625c0,.93603515625.044921875,1.85009765625.1787109375,2.5859375h-1.7841796875Zm-.2890625-5.50634765625c-2.140625-.04443359375-4.5703125.33447265625-4.5703125,2.4296875,0,1.27099609375.8466796875,1.873046875,1.8505859375,1.873046875,1.404296875,0,2.2958984375-.89208984375,2.607421875-1.80615234375.0673828125-.20068359375.1123046875-.42333984375.1123046875-.6240234375v-1.87255859375Z"/><path class="cls-2" d="m493.837890625,261.60595703125h1.9619140625v15.828125h-1.9619140625v-15.828125Z"/><path class="cls-2" d="m421.65966796875,292.3193359375v5.2392578125h5.03857421875v1.337890625h-5.03857421875v5.283203125h-1.4267578125v-5.283203125h-5.0380859375v-1.337890625h5.0380859375v-5.2392578125h1.4267578125Z"/><path class="cls-2" d="m369.716796875,325.8876953125c.04443359375,2.65234375,1.73876953125,3.7451171875,3.70068359375,3.7451171875,1.404296875,0,2.25146484375-.2451171875,2.9873046875-.5576171875l.33447265625,1.404296875c-.69140625.3125-1.87255859375.6689453125-3.58935546875.6689453125-3.32177734375,0-5.3056640625-2.1845703125-5.3056640625-5.439453125s1.9169921875-5.818359375,5.060546875-5.818359375c3.5224609375,0,4.45849609375,3.0986328125,4.45849609375,5.0830078125,0,.4013671875-.04443359375.712890625-.06689453125.9140625h-7.57958984375Zm5.75146484375-1.404296875c.0224609375-1.2490234375-.5126953125-3.1884765625-2.7197265625-3.1884765625-1.98388671875,0-2.853515625,1.828125-3.00927734375,3.1884765625h5.72900390625Z"/><path class="cls-2" d="m379.79052734375,323.056640625c0-1.115234375-.0224609375-2.029296875-.08935546875-2.9208984375h1.73876953125l.11181640625,1.783203125h.04443359375c.53515625-1.025390625,1.78369140625-2.0283203125,3.56689453125-2.0283203125,1.49365234375,0,3.81201171875.8916015625,3.81201171875,4.5927734375v6.4423828125h-1.96142578125v-6.2197265625c0-1.7392578125-.64697265625-3.1875-2.4970703125-3.1875-1.29296875,0-2.29638671875.9130859375-2.63037109375,2.005859375-.08935546875.2451171875-.1337890625.580078125-.1337890625.9140625v6.4873046875h-1.9619140625v-7.869140625Z"/><path class="cls-2" d="m392.16064453125,323.501953125c0-1.2705078125-.0224609375-2.36328125-.0888671875-3.3662109375h1.7158203125l.0673828125,2.1181640625h.0888671875c.490234375-1.44921875,1.671875-2.36328125,2.9873046875-2.36328125.22265625,0,.37890625.0224609375.5576171875.0673828125v1.849609375c-.201171875-.0439453125-.4013671875-.06640625-.6689453125-.06640625-1.3818359375,0-2.36328125,1.0478515625-2.630859375,2.5185546875-.0439453125.267578125-.0888671875.580078125-.0888671875.9140625v5.751953125h-1.939453125v-7.423828125Z"/><path class="cls-2" d="m401.72314453125,317.1044921875c.021484375.66796875-.46875,1.203125-1.2490234375,1.203125-.6904296875,0-1.181640625-.53515625-1.181640625-1.203125,0-.69140625.5126953125-1.2265625,1.2265625-1.2265625.7353515625,0,1.2041015625.53515625,1.2041015625,1.2265625Zm-2.185546875,13.8212890625v-10.7900390625h1.9619140625v10.7900390625h-1.9619140625Z"/><path class="cls-2" d="m412.44384765625,330.5244140625c-.5126953125.267578125-1.6494140625.6240234375-3.0986328125.6240234375-3.2548828125,0-5.373046875-2.20703125-5.373046875-5.505859375,0-3.322265625,2.2744140625-5.7294921875,5.796875-5.7294921875,1.1591796875,0,2.1845703125.2900390625,2.7197265625.5576171875l-.4462890625,1.515625c-.4677734375-.267578125-1.203125-.5126953125-2.2734375-.5126953125-2.474609375,0-3.8125,1.828125-3.8125,4.0791015625,0,2.4970703125,1.60546875,4.03515625,3.7451171875,4.03515625,1.115234375,0,1.8505859375-.2890625,2.408203125-.53515625l.333984375,1.4716796875Z"/><path class="cls-2" d="m414.73779296875,315.09765625h1.9619140625v6.732421875h.044921875c.3125-.5576171875.802734375-1.0478515625,1.404296875-1.3818359375.580078125-.3349609375,1.2705078125-.5576171875,2.0068359375-.5576171875,1.44921875,0,3.76806640625.8916015625,3.76806640625,4.6142578125v6.4208984375h-1.96240234375v-6.197265625c0-1.7392578125-.646484375-3.2099609375-2.4970703125-3.2099609375-1.2705078125,0-2.2734375.8916015625-2.630859375,1.9609375-.111328125.267578125-.1337890625.5576171875-.1337890625.9365234375v6.509765625h-1.9619140625v-15.828125Z"/><path class="cls-2" d="m427.107421875,323.056640625c0-1.115234375-.021484375-2.029296875-.0888671875-2.9208984375h1.716796875l.0888671875,1.7392578125h.0673828125c.6015625-1.025390625,1.6044921875-1.984375,3.388671875-1.984375,1.470703125,0,2.5859375.8916015625,3.0537109375,2.162109375h.044921875c.333984375-.6015625.7578125-1.0693359375,1.203125-1.404296875.646484375-.490234375,1.3603515625-.7578125,2.3857421875-.7578125,1.4267578125,0,3.544921875.9365234375,3.544921875,4.681640625v6.353515625h-1.91796875v-6.1083984375c0-2.0732421875-.7578125-3.3212890625-2.33984375-3.3212890625-1.115234375,0-1.984375.82421875-2.3193359375,1.783203125-.0888671875.267578125-.1552734375.6240234375-.1552734375.98046875v6.666015625h-1.91796875v-6.46484375c0-1.716796875-.7578125-2.96484375-2.2509765625-2.96484375-1.2265625,0-2.1181640625.98046875-2.4306640625,1.9619140625-.111328125.2890625-.1552734375.6240234375-.1552734375.9580078125v6.509765625h-1.91796875v-7.869140625Z"/><path class="cls-2" d="m446.7890625,325.8876953125c.044921875,2.65234375,1.7392578125,3.7451171875,3.7001953125,3.7451171875,1.4052734375,0,2.251953125-.2451171875,2.9873046875-.5576171875l.3349609375,1.404296875c-.69140625.3125-1.873046875.6689453125-3.5888671875.6689453125-3.322265625,0-5.306640625-2.1845703125-5.306640625-5.439453125s1.91796875-5.818359375,5.060546875-5.818359375c3.5224609375,0,4.458984375,3.0986328125,4.458984375,5.0830078125,0,.4013671875-.044921875.712890625-.06640625.9140625h-7.580078125Zm5.751953125-1.404296875c.0224609375-1.2490234375-.5126953125-3.1884765625-2.7197265625-3.1884765625-1.984375,0-2.853515625,1.828125-3.009765625,3.1884765625h5.7294921875Z"/><path class="cls-2" d="m456.8623046875,323.056640625c0-1.115234375-.021484375-2.029296875-.0888671875-2.9208984375h1.7392578125l.111328125,1.783203125h.044921875c.5341796875-1.025390625,1.783203125-2.0283203125,3.56640625-2.0283203125,1.494140625,0,3.8125.8916015625,3.8125,4.5927734375v6.4423828125h-1.9619140625v-6.2197265625c0-1.7392578125-.646484375-3.1875-2.4970703125-3.1875-1.29296875,0-2.2958984375.9130859375-2.630859375,2.005859375-.0888671875.2451171875-.1337890625.580078125-.1337890625.9140625v6.4873046875h-1.9619140625v-7.869140625Z"/><path class="cls-2" d="m471.5068359375,317.037109375v3.0986328125h2.8095703125v1.494140625h-2.8095703125v5.818359375c0,1.337890625.37890625,2.095703125,1.4716796875,2.095703125.5126953125,0,.8916015625-.0673828125,1.13671875-.1337890625l.0888671875,1.470703125c-.37890625.15625-.98046875.267578125-1.73828125.267578125-.9140625,0-1.6494140625-.2890625-2.1181640625-.82421875-.5576171875-.580078125-.7578125-1.5380859375-.7578125-2.8095703125v-5.884765625h-1.671875v-1.494140625h1.671875v-2.5859375l1.9169921875-.5126953125Z"/></svg>