<?xml version="1.0" encoding="UTF-8"?><svg id="Layer_1" xmlns="http://www.w3.org/2000/svg" viewBox="0 0 838.78 331.51"><defs><style>.cls-1{fill:#1d1d1b;font-family:MyriadPro-Regular, 'Myriad Pro';font-size:16.13px;}.cls-2{stroke-width:.75px;}.cls-2,.cls-3,.cls-4,.cls-5{stroke:#000;}.cls-2,.cls-3,.cls-4,.cls-5,.cls-6{fill:none;stroke-linecap:round;stroke-linejoin:round;}.cls-3,.cls-6{stroke-width:.5px;}.cls-5{stroke-width:.25px;}.cls-7{fill:#d3125a;}.cls-6{stroke:#d3125a;stroke-dasharray:0 0 3 3;}</style></defs><polyline class="cls-3" points="42.98 60.55 42.16 60.22 41.22 60 40.23 60 39.24 60.22 38.47 60.55 37.86 60.99 37.53 61.54 37.53 62.15 37.86 62.7 38.47 63.14 39.24 63.53 40.23 63.69 41.22 63.69 42.16 63.53 42.98 63.14 43.59 62.7 43.86 62.15 43.86 61.54 43.59 60.99 42.98 60.55"/><polyline class="cls-3" points="43.92 67.54 43.75 68.09 43.31 68.59 42.6 69.03 41.72 69.3 40.73 69.36 39.74 69.3 38.85 69.03 38.14 68.59 37.64 68.09 37.53 67.54"/><polyline class="cls-3" points="93.23 24.45 92.41 24.12 91.47 23.95 90.48 23.95 89.49 24.12 88.72 24.45 88.11 24.94 87.78 25.49 87.78 26.04 88.11 26.59 88.72 27.09 89.49 27.42 90.48 27.58 91.47 27.58 92.41 27.42 93.23 27.09 93.84 26.59 94.11 26.04 94.11 25.49 93.84 24.94 93.23 24.45"/><polyline class="cls-3" points="94.17 31.44 94 31.99 93.56 32.54 92.85 32.92 91.97 33.2 90.98 33.25 89.99 33.2 89.11 32.92 88.39 32.54 87.95 31.99 87.78 31.44"/><line class="cls-3" x1="37.53" y1="67.54" x2="37.53" y2="61.87"/><line class="cls-3" x1="43.92" y1="67.54" x2="43.92" y2="61.87"/><line class="cls-3" x1="87.78" y1="31.44" x2="87.78" y2="25.77"/><line class="cls-3" x1="94.17" y1="31.44" x2="94.17" y2="25.77"/><polyline class="cls-3" points="22.95 67.16 22.95 68.59 35.22 75.63 35.22 74.26 22.95 67.16"/><line class="cls-3" x1="96.48" y1="24.72" x2="94.17" y2="26.04"/><line class="cls-3" x1="87.78" y1="29.73" x2="22.95" y2="67.16"/><polyline class="cls-3" points="35.22 75.63 108.75 33.2 108.75 31.77 96.48 24.72"/><line class="cls-3" x1="35.22" y1="74.26" x2="108.75" y2="31.77"/><text class="cls-1" transform="translate(115.94 54.37)"><tspan x="0" y="0">x 2</tspan></text><rect class="cls-2" x=".38" y=".38" width="160.46" height="95.23" rx="12" ry="12"/><polyline class="cls-5" points="186.42 175.29 187.27 175.16 188.12 175.16 188.97 175.29"/><polyline class="cls-5" points="190.18 174.8 189.33 175.16 188.24 175.41 187.15 175.41 186.06 175.16 185.21 174.8 184.61 174.32 184.24 173.71 184.24 173.1 184.61 172.5 185.21 171.89 186.06 171.53 187.15 171.41 188.24 171.41 189.33 171.53 190.18 171.89 190.91 172.5 191.15 173.1 191.15 173.71 190.91 174.32 190.18 174.8"/><polyline class="cls-5" points="255.26 143.29 256.11 143.29 256.96 143.29 257.81 143.29"/><polyline class="cls-5" points="259.02 142.93 258.17 143.29 257.08 143.41 255.99 143.41 254.9 143.29 254.05 142.93 253.44 142.32 253.08 141.71 253.08 141.11 253.44 140.5 254.05 140.02 254.9 139.65 255.99 139.41 257.08 139.41 258.17 139.65 259.02 140.02 259.75 140.5 259.99 141.11 259.99 141.71 259.75 142.32 259.02 142.93"/><polyline class="cls-5" points="353.67 178.8 354.64 178.44 355.37 178.44 356.09 178.56"/><polyline class="cls-5" points="275.14 131.9 274.41 131.66 273.56 131.78 272.71 132.14"/><line class="cls-5" x1="272.71" y1="132.14" x2="353.67" y2="178.8"/><polyline class="cls-5" points="353.67 178.8 355.61 180.13 357.31 181.47 358.64 182.92 359.61 184.5 360.34 186.07 360.7 187.77 360.7 189.46 360.34 191.04 359.61 192.74 358.64 194.19 357.31 195.65 355.61 197.1 353.67 198.31 354.64 198.92 355.37 199.77 356.09 200.86 356.58 201.95 356.94 203.04 357.06 204.13 359.25 202.8 361.06 201.22 362.64 199.65 363.85 197.95 364.7 196.13 365.31 194.31 365.43 192.49"/><polyline class="cls-5" points="236.6 131.9 237.33 131.66 238.17 131.78 239.02 132.14 241.2 130.93 243.51 130.08 246.05 129.23 248.72 128.63 251.63 128.26 254.41 128.14 257.32 128.14 260.11 128.26 263.02 128.63 265.68 129.23 268.23 130.08 270.53 130.93 272.71 132.14"/><polyline class="cls-5" points="292.95 233.34 293.8 234.06 294.65 234.91 295.38 235.88 295.86 236.97 296.23 238.18 296.35 239.28"/><line class="cls-5" x1="296.35" y1="239.28" x2="357.06" y2="204.13"/><line class="cls-5" x1="353.67" y1="198.31" x2="292.95" y2="233.34"/><polyline class="cls-5" points="175.88 166.92 176.61 166.68 177.33 166.8 178.3 167.17"/><line class="cls-5" x1="178.3" y1="167.17" x2="239.02" y2="132.14"/><polyline class="cls-5" points="292.95 233.34 290.77 234.43 288.47 235.4 285.92 236.25 283.26 236.85 280.47 237.22 277.56 237.34 274.65 237.34 271.87 237.22 268.96 236.85 266.29 236.25 263.75 235.4 261.44 234.43 259.26 233.34 258.41 234.06 257.56 234.91 256.84 235.88 256.35 236.97 255.99 238.18 255.87 239.28 258.29 240.49 260.84 241.58 263.75 242.43 266.65 243.15 269.68 243.64 272.96 244 276.11 244.12 279.26 244 282.53 243.64 285.56 243.15 288.59 242.43 291.38 241.58 293.92 240.49 296.35 239.28"/><polyline class="cls-5" points="166.55 180.74 166.67 182.68 167.28 184.5 168.12 186.19 169.34 188.01 170.91 189.59 172.73 191.04 174.91 192.49 175.03 191.4 175.4 190.31 175.88 189.1 176.61 188.13 177.33 187.28 178.3 186.68 176.36 185.34 174.67 184.01 173.33 182.56 172.37 180.98 171.64 179.41 171.27 177.71 171.27 176.01 171.64 174.44 172.37 172.74 173.33 171.29 174.67 169.71 176.36 168.38 178.3 167.17"/><line class="cls-5" x1="174.91" y1="192.49" x2="255.87" y2="239.28"/><line class="cls-5" x1="259.26" y1="233.34" x2="178.3" y2="186.68"/><line class="cls-5" x1="356.09" y1="178.56" x2="275.14" y2="131.9"/><polyline class="cls-5" points="356.09 178.56 358.03 179.89 359.85 181.22 361.43 182.8 362.76 184.37 363.85 186.31 364.7 188.25 365.31 190.31 365.43 192.49"/><polyline class="cls-5" points="236.6 131.9 238.66 130.81 240.84 129.84 243.26 128.99 245.69 128.38 248.11 127.9 250.66 127.54 253.2 127.29 255.87 127.17 258.53 127.29 261.08 127.54 263.62 127.9 266.05 128.38 268.47 128.99 270.9 129.84 273.08 130.81 275.14 131.9"/><line class="cls-5" x1="175.88" y1="166.92" x2="236.6" y2="131.9"/><polyline class="cls-5" points="166.55 180.74 166.67 178.68 167.28 176.5 168.12 174.56 169.21 172.74 170.55 171.04 172.12 169.47 173.94 168.13 175.88 166.92"/><polyline class="cls-5" points="166.55 183.16 166.67 184.98 167.28 186.8 168.12 188.62 169.34 190.31 170.91 191.89 172.73 193.46 174.91 194.8"/><line class="cls-5" x1="174.91" y1="194.8" x2="174.91" y2="192.49"/><line class="cls-5" x1="357.06" y1="204.13" x2="357.06" y2="206.55"/><polyline class="cls-5" points="357.06 206.55 359.25 205.1 361.06 203.64 362.64 201.95 363.85 200.25 364.7 198.43 365.31 196.62 365.43 194.8"/><line class="cls-5" x1="296.35" y1="241.58" x2="296.35" y2="239.28"/><line class="cls-5" x1="255.87" y1="239.28" x2="255.87" y2="241.58"/><polyline class="cls-5" points="255.87 241.58 258.29 242.79 260.84 243.88 263.75 244.73 266.65 245.46 269.68 245.94 272.96 246.3 276.11 246.43 279.26 246.3 282.53 245.94 285.56 245.46 288.59 244.73 291.38 243.88 293.92 242.79 296.35 241.58"/><line class="cls-5" x1="166.55" y1="180.74" x2="166.55" y2="183.16"/><line class="cls-5" x1="365.43" y1="192.49" x2="365.43" y2="194.8"/><polyline class="cls-5" points="346.76 193.59 345.91 193.95 344.82 194.07 343.73 194.07 342.64 193.95 341.79 193.59 341.07 192.98 340.82 192.37 340.82 191.77 341.07 191.16 341.79 190.68 342.64 190.31 343.73 190.07 344.82 190.07 345.91 190.31 346.76 190.68 347.37 191.16 347.73 191.77 347.73 192.37 347.37 192.98 346.76 193.59"/><polyline class="cls-5" points="277.92 225.46 277.08 225.82 275.99 226.07 274.9 226.07 273.8 225.82 272.96 225.46 272.35 224.97 271.99 224.37 271.99 223.76 272.35 223.16 272.96 222.55 273.8 222.19 274.9 222.07 275.99 222.07 277.08 222.19 277.92 222.55 278.53 223.16 278.89 223.76 278.89 224.37 278.53 224.97 277.92 225.46"/><polyline class="cls-5" points="274.17 225.94 275.02 225.82 275.86 225.82 276.71 225.94"/><polyline class="cls-5" points="343.01 193.95 343.85 193.83 344.7 193.83 345.55 193.95"/><line class="cls-5" x1="357.06" y1="206.55" x2="296.35" y2="241.58"/><line class="cls-5" x1="255.87" y1="241.58" x2="174.91" y2="194.8"/><polyline class="cls-5" points="105.35 248 105.47 250.06 106.07 252 106.92 253.94 108.25 255.88 109.83 257.7 111.77 259.39 113.95 260.97 111.77 260.48 109.71 259.76 107.89 258.91 106.31 257.94 104.98 256.85 103.89 255.64 103.29 254.3 102.92 252.97 103.04 251.64 103.41 250.3 104.25 248.97 105.35 247.76"/><polyline class="cls-5" points="102.92 258.67 103.16 260.12 103.65 261.45 104.62 262.67 105.83 263.88 107.28 264.85 109.1 265.82 111.16 266.54 113.34 267.03 115.65 267.39 117.95 267.51 120.37 267.39 122.68 267.15 124.86 266.67 126.92 265.94"/><polyline class="cls-5" points="214.18 318.78 216.96 320.11 219.99 321.2 223.15 322.17 226.54 322.9 229.93 323.38 233.45 323.75 237.08 323.87 234.9 324.47 232.72 324.84 230.42 325.08 228.11 325.2 225.69 324.96 223.51 324.6 221.33 323.99 219.39 323.26 217.69 322.29 216.24 321.32 215.03 320.11 214.18 318.78"/><polyline class="cls-5" points="213.57 322.66 213.81 323.99 214.3 325.32 215.15 326.53 216.36 327.75 217.93 328.72 219.63 329.69 221.69 330.41 223.75 330.9 226.05 331.26 228.36 331.38 230.78 331.38 233.08 331.02 235.26 330.66 237.33 329.93 239.14 329.08 240.72 328.11 242.05 327.02 243.14 325.81 243.75 324.47 244.11 323.14"/><polyline class="cls-5" points="366.15 237.82 367.61 238.79 368.7 240 369.43 241.21 369.91 242.55 370.03 243.76 369.79 245.09 369.3 246.43 368.46 247.64 367.24 248.73 365.79 249.7 364.09 250.67 365.06 248.85 365.67 247.15 366.03 245.34 366.15 243.52"/><polyline class="cls-5" points="347.37 257.58 349.43 258.18 351.61 258.55 353.79 258.67 356.09 258.67 358.28 258.42 360.46 258.06 362.52 257.45 364.34 256.73 366.03 255.88 367.49 254.79 368.58 253.7 369.43 252.49 369.91 251.15 370.03 249.94"/><line class="cls-5" x1="102.92" y1="252.49" x2="102.92" y2="258.67"/><line class="cls-5" x1="213.57" y1="318.54" x2="213.57" y2="322.66"/><line class="cls-5" x1="370.03" y1="243.64" x2="370.03" y2="249.94"/><polyline class="cls-5" points="237.08 323.87 240.35 323.75 243.75 323.38 256.96 315.63 269.93 307.75 282.65 299.75 295.13 291.51 307.37 283.27 319.37 274.91 331.01 266.42 334.16 264.24 337.67 262.18 341.31 260.24 345.19 258.55 349.19 256.85 353.43 255.52 357.79 254.18 362.4 253.09 363.37 251.88 364.09 250.67"/><polyline class="cls-5" points="210.18 316.35 212.12 317.57 214.18 318.78"/><polyline class="cls-5" points="123.89 262.91 128.37 267.27 133.1 271.51 138.19 275.75 143.52 279.88 149.1 283.75 155.03 287.63 161.09 291.27 167.52 294.78 174.06 298.18 180.85 301.45 187.88 304.6 195.15 307.51 202.54 310.29 210.18 312.84"/><line class="cls-5" x1="118.31" y1="263.27" x2="123.89" y2="262.91"/><polyline class="cls-5" points="113.95 260.97 116.01 262.18 118.31 263.27"/><polyline class="cls-5" points="210.9 289.93 204.12 288.12 197.45 286.18 191.03 284 184.73 281.57 178.55 279.03 172.61 276.36 166.91 273.45 161.46 270.42 156 267.15 150.91 263.76 145.82 260.12 141.1 256.36 136.37 252.49 132.01 248.36 127.77 244.12 123.89 239.64"/><line class="cls-5" x1="210.18" y1="294.18" x2="210.9" y2="289.93"/><polyline class="cls-5" points="364.21 199.65 365.18 201.58 365.91 203.4 366.15 205.34 366.15 207.16 365.67 208.98 364.94 210.79 363.85 212.61 362.4 214.31 357.79 215.16 353.31 216.13 348.94 217.34 344.82 218.79 341.07 220.37 337.43 222.07 334.16 224.01 331.01 226.19 325.92 229.94 320.83 233.7 315.62 237.7 310.28 241.82 304.95 245.94 299.62 250.18 294.16 254.55 288.71 258.91 283.14 263.51 277.68 268.12 272.11 272.85 266.41 277.57 260.84 282.54 255.14 287.51 249.44 292.48 243.75 297.57 241.45 298.3 239.14 298.9 236.84 299.27 234.54 299.63 232.23 299.87 229.93 299.99 227.63 299.99 225.33 299.87 223.15 299.51 220.96 299.14 218.9 298.66 216.84 297.93 215.03 297.21 213.33 296.24 211.75 295.27 210.18 294.18"/><polyline class="cls-5" points="227.27 137.23 227.75 136.62 228.72 136.38"/><polyline class="cls-5" points="118.31 241.09 116.5 240.37 114.8 239.4 113.22 238.43 111.77 237.22 110.44 236 109.22 234.67 108.13 233.22 107.28 231.64 106.56 230.06 105.95 228.37 105.59 226.79 105.35 225.1 105.35 223.4 105.35 221.7 105.71 219.88 106.07 218.19 113.83 211.28 121.71 204.74 129.71 198.31 137.83 192.25 146.07 186.44 154.43 180.74 162.79 175.41 171.27 170.32"/><line class="cls-5" x1="118.31" y1="241.09" x2="123.89" y2="239.64"/><line class="cls-5" x1="362.4" y1="214.31" x2="362.4" y2="253.09"/><line class="cls-5" x1="331.01" y1="226.19" x2="331.01" y2="266.42"/><line class="cls-5" x1="118.31" y1="241.09" x2="118.31" y2="263.27"/><line class="cls-5" x1="123.89" y1="239.64" x2="123.89" y2="262.91"/><line class="cls-5" x1="210.18" y1="294.18" x2="210.18" y2="316.35"/><line class="cls-5" x1="243.75" y1="297.57" x2="243.75" y2="323.38"/><line class="cls-5" x1="366.15" y1="205.95" x2="366.15" y2="243.52"/><line class="cls-5" x1="105.35" y1="223.52" x2="105.35" y2="248"/><polyline class="cls-5" points="265.06 65.91 264.98 66.32 264.73 66.71 264.37 67.07 263.84 67.35 263.23 67.57 262.53 67.71 261.81 67.77 261.11 67.71 260.42 67.57 259.81 67.35 259.28 67.07 258.89 66.71 258.67 66.32 258.58 65.91"/><line class="cls-5" x1="265.06" y1="61.87" x2="265.06" y2="65.91"/><line class="cls-5" x1="258.58" y1="65.63" x2="258.58" y2="65.91"/><polyline class="cls-5" points="199.26 99.87 199.26 98.45 186.88 91.3 186.88 92.72 199.26 99.87"/><line class="cls-5" x1="273.6" y1="55.53" x2="199.26" y2="98.45"/><polyline class="cls-5" points="186.88 91.3 261.2 48.38 273.6 55.53 273.6 56.95 199.26 99.87"/><polyline class="cls-5" points="351.1 94.88 351.01 95.3 350.76 95.69 350.4 96.05 349.87 96.33 349.26 96.55 348.57 96.69 347.84 96.75 347.15 96.69 346.45 96.55 345.84 96.33 345.31 96.05 344.92 95.69 344.7 95.3 344.62 94.88"/><line class="cls-5" x1="351.1" y1="90.85" x2="351.1" y2="94.88"/><line class="cls-5" x1="344.62" y1="94.6" x2="344.62" y2="94.88"/><polyline class="cls-5" points="285.29 128.84 285.29 127.42 272.91 120.28 272.91 121.69 285.29 128.84"/><line class="cls-5" x1="359.64" y1="84.51" x2="285.29" y2="127.42"/><polyline class="cls-5" points="272.91 120.28 347.23 77.36 359.64 84.51 359.64 85.93 285.29 128.84"/><line class="cls-6" x1="315.44" y1="133.86" x2="315.37" y2="188.03"/><polygon class="cls-7" points="313.52 186.62 315.37 187.41 317.22 186.63 315.37 191.01 313.52 186.62"/><line class="cls-6" x1="230.36" y1="100.41" x2="230.29" y2="154.58"/><polygon class="cls-7" points="228.44 153.17 230.29 153.96 232.14 153.18 230.29 157.56 228.44 153.17"/><polyline class="cls-5" points="822.31 175.99 823.28 175.63 824.01 175.51 824.73 175.75"/><polyline class="cls-5" points="743.9 129.04 743.18 128.8 742.33 128.92 741.48 129.29"/><line class="cls-5" x1="741.48" y1="129.29" x2="822.31" y2="175.99"/><polyline class="cls-5" points="822.31 175.99 824.25 177.2 825.94 178.54 827.28 180.11 828.24 181.56 828.97 183.25 829.33 184.83 829.33 186.52 828.97 188.22 828.24 189.79 827.28 191.36 825.94 192.81 824.25 194.15 822.31 195.48 823.28 196.08 824.01 196.93 824.73 197.9 825.22 199.11 825.58 200.2 825.7 201.28 827.88 199.83 829.7 198.38 831.27 196.69 832.48 194.99 833.33 193.3 833.93 191.48 834.05 189.55"/><polyline class="cls-5" points="705.42 129.04 706.15 128.8 707 128.92 707.84 129.29 710.02 128.2 712.32 127.23 714.86 126.5 717.52 125.9 720.43 125.54 723.21 125.29 726.12 125.29 729.02 125.54 731.8 125.9 734.46 126.5 737.01 127.23 739.31 128.2 741.48 129.29"/><polyline class="cls-5" points="761.69 230.45 762.54 231.05 763.39 231.9 764.11 232.99 764.6 234.08 764.96 235.17 765.08 236.26"/><line class="cls-5" x1="765.08" y1="236.26" x2="825.7" y2="201.28"/><line class="cls-5" x1="822.31" y1="195.48" x2="761.69" y2="230.45"/><polyline class="cls-5" points="644.8 164.02 645.53 163.89 646.37 163.89 647.22 164.26"/><line class="cls-5" x1="647.22" y1="164.26" x2="707.84" y2="129.29"/><polyline class="cls-5" points="761.69 230.45 759.51 231.54 757.21 232.5 754.67 233.23 752.01 233.84 749.23 234.2 746.32 234.44 743.42 234.44 740.64 234.2 737.85 233.84 735.07 233.23 732.53 232.5 730.23 231.54 728.05 230.45 727.2 231.05 726.36 231.9 725.63 232.99 725.15 234.08 724.78 235.17 724.66 236.26 727.08 237.47 729.62 238.55 732.53 239.4 735.43 240.13 738.58 240.73 741.73 240.97 744.87 241.1 748.14 240.97 751.28 240.73 754.31 240.13 757.33 239.4 760.12 238.55 762.66 237.47 765.08 236.26"/><polyline class="cls-5" points="635.48 177.93 635.6 179.75 636.21 181.56 637.06 183.38 638.27 185.07 639.84 186.64 641.65 188.22 643.83 189.55 643.95 188.46 644.32 187.37 644.8 186.28 645.53 185.19 646.37 184.34 647.22 183.74 645.28 182.53 643.59 181.2 642.26 179.62 641.29 178.17 640.56 176.48 640.2 174.91 640.2 173.21 640.56 171.52 641.29 169.94 642.26 168.37 643.59 166.92 645.28 165.59 647.22 164.26"/><line class="cls-5" x1="643.83" y1="189.55" x2="724.66" y2="236.26"/><line class="cls-5" x1="728.05" y1="230.45" x2="647.22" y2="183.74"/><line class="cls-5" x1="824.73" y1="175.75" x2="743.9" y2="129.04"/><polyline class="cls-5" points="824.73 175.75 826.67 176.96 828.49 178.29 830.06 179.87 831.39 181.56 832.48 183.38 833.33 185.31 833.93 187.49 834.05 189.55"/><polyline class="cls-5" points="705.42 129.04 707.48 127.96 709.78 126.99 712.08 126.26 714.5 125.54 716.92 125.05 719.46 124.69 722.12 124.45 724.66 124.45 727.33 124.45 729.87 124.69 732.41 125.05 734.95 125.54 737.25 126.26 739.67 126.99 741.85 127.96 743.9 129.04"/><line class="cls-5" x1="644.8" y1="164.02" x2="705.42" y2="129.04"/><polyline class="cls-5" points="635.48 177.93 635.6 175.75 636.21 173.7 637.06 171.76 638.14 169.82 639.48 168.25 641.17 166.68 642.86 165.35 644.8 164.02"/><polyline class="cls-5" points="635.48 180.23 635.6 182.04 636.21 183.86 637.06 185.68 638.27 187.37 639.84 189.06 641.65 190.52 643.83 191.97"/><line class="cls-5" x1="643.83" y1="191.97" x2="643.83" y2="189.55"/><line class="cls-5" x1="825.7" y1="201.28" x2="825.7" y2="203.58"/><polyline class="cls-5" points="825.7 203.58 827.88 202.25 829.7 200.68 831.27 199.11 832.48 197.41 833.33 195.6 833.93 193.78 834.05 191.97"/><line class="cls-5" x1="765.08" y1="238.55" x2="765.08" y2="236.26"/><line class="cls-5" x1="724.66" y1="236.26" x2="724.66" y2="238.55"/><polyline class="cls-5" points="724.66 238.55 727.08 239.89 729.62 240.85 732.53 241.82 735.43 242.55 738.58 243.03 741.73 243.27 744.87 243.39 748.14 243.27 751.28 243.03 754.31 242.55 757.33 241.82 760.12 240.85 762.66 239.89 765.08 238.55"/><line class="cls-5" x1="635.48" y1="177.93" x2="635.48" y2="180.23"/><line class="cls-5" x1="834.05" y1="189.55" x2="834.05" y2="191.97"/><line class="cls-5" x1="825.7" y1="203.58" x2="765.08" y2="238.55"/><line class="cls-5" x1="724.66" y1="238.55" x2="643.83" y2="191.97"/><polyline class="cls-5" points="574.38 244.97 574.5 247.02 575.1 249.08 575.95 251.02 577.28 252.83 578.85 254.65 580.79 256.34 582.97 257.92 580.79 257.43 578.73 256.83 576.92 255.98 575.34 255.01 574.01 253.8 572.92 252.59 572.32 251.26 571.96 249.93 572.08 248.6 572.44 247.27 573.29 245.94 574.38 244.73"/><polyline class="cls-5" points="571.96 255.74 572.2 257.07 572.68 258.4 573.65 259.73 574.86 260.82 576.31 261.91 578.13 262.76 580.18 263.48 582.36 264.09 584.66 264.33 586.96 264.57 589.38 264.45 591.68 264.09 593.86 263.6 595.91 262.88"/><polyline class="cls-5" points="683.04 315.76 685.82 316.97 688.85 318.18 691.99 319.02 695.38 319.75 698.77 320.35 702.28 320.6 705.91 320.72 703.85 321.32 701.55 321.81 699.25 322.05 696.95 322.05 694.53 321.93 692.36 321.56 690.18 320.96 688.24 320.11 686.55 319.26 685.09 318.18 683.88 316.97 683.04 315.76"/><polyline class="cls-5" points="682.43 319.51 682.67 320.84 683.16 322.17 684.13 323.38 685.22 324.59 686.79 325.68 688.48 326.53 690.54 327.25 692.6 327.86 694.9 328.1 697.2 328.34 699.62 328.22 701.91 327.98 704.09 327.49 706.15 326.89 707.96 326.04 709.54 325.07 710.87 323.86 711.96 322.65 712.56 321.44 712.93 320.11"/><polyline class="cls-5" points="834.78 234.8 836.23 235.89 837.32 236.98 838.05 238.19 838.53 239.52 838.65 240.85 838.53 242.18 837.92 243.39 837.08 244.6 835.87 245.81 834.42 246.78 832.84 247.63 833.69 245.94 834.29 244.12 834.66 242.43 834.78 240.61"/><polyline class="cls-5" points="816.02 254.65 818.08 255.13 820.26 255.5 822.44 255.74 824.73 255.74 826.91 255.5 829.09 255.13 831.15 254.53 832.96 253.8 834.66 252.83 836.11 251.86 837.2 250.65 838.05 249.44 838.53 248.23 838.65 246.9"/><line class="cls-5" x1="571.96" y1="249.44" x2="571.96" y2="255.74"/><line class="cls-5" x1="682.43" y1="315.39" x2="682.43" y2="319.51"/><line class="cls-5" x1="838.65" y1="240.73" x2="838.65" y2="246.9"/><polyline class="cls-5" points="705.91 320.72 709.17 320.6 712.56 320.23 725.75 312.49 738.7 304.62 751.41 296.64 763.87 288.53 776.09 280.3 788.07 271.83 799.69 263.36 802.83 261.18 806.34 259.13 809.97 257.31 813.84 255.5 817.84 253.92 822.07 252.47 826.55 251.26 831.03 250.17 832 248.96 832.84 247.63"/><polyline class="cls-5" points="679.04 313.21 680.98 314.55 683.04 315.76"/><polyline class="cls-5" points="592.89 259.85 597.37 264.21 602.09 268.56 607.17 272.68 612.49 276.79 618.06 280.79 623.99 284.54 630.04 288.17 636.45 291.8 642.99 295.18 649.88 298.45 656.9 301.48 664.04 304.5 671.54 307.16 679.04 309.83"/><line class="cls-5" x1="587.32" y1="260.21" x2="592.89" y2="259.85"/><polyline class="cls-5" points="582.97 257.92 585.02 259.13 587.32 260.21"/><polyline class="cls-5" points="679.77 286.84 672.99 285.02 666.34 283.08 659.93 280.91 653.63 278.61 647.46 276.07 641.53 273.28 635.85 270.38 630.4 267.35 624.96 264.21 619.87 260.7 614.79 257.19 610.07 253.44 605.47 249.44 601 245.33 596.76 241.1 592.89 236.74"/><line class="cls-5" x1="679.04" y1="291.19" x2="679.77" y2="286.84"/><polyline class="cls-5" points="832.84 196.81 833.81 198.62 834.54 200.56 834.78 202.37 834.78 204.19 834.29 206 833.57 207.82 832.48 209.63 831.03 211.33 826.43 212.18 821.95 213.14 817.6 214.47 813.48 215.81 809.73 217.38 806.1 219.19 802.83 221.13 799.69 223.19 794.6 226.94 789.52 230.81 784.32 234.8 778.99 238.8 773.67 242.91 768.35 247.15 762.9 251.5 757.46 255.98 751.89 260.46 746.44 265.05 740.88 269.77 735.19 274.61 729.62 279.45 723.94 284.42 718.25 289.5 712.56 294.58 710.26 295.18 707.96 295.79 705.67 296.27 703.37 296.64 701.07 296.88 698.77 296.88 696.47 296.88 694.17 296.76 691.99 296.52 689.81 296.03 687.76 295.55 685.7 294.94 683.88 294.1 682.19 293.25 680.62 292.28 679.04 291.19"/><polyline class="cls-5" points="696.11 134.49 696.59 133.76 697.56 133.64"/><polyline class="cls-5" points="587.32 238.19 585.51 237.34 583.81 236.5 582.24 235.41 580.79 234.32 579.46 233.11 578.25 231.66 577.16 230.2 576.31 228.75 575.59 227.06 574.98 225.49 574.62 223.79 574.38 222.1 574.38 220.4 574.5 218.71 574.74 217.02 575.1 215.2 582.85 208.42 590.71 201.77 598.7 195.48 606.8 189.31 615.03 183.5 623.38 177.93 631.73 172.61 640.2 167.52"/><line class="cls-5" x1="587.32" y1="238.19" x2="592.89" y2="236.74"/><line class="cls-5" x1="831.03" y1="211.33" x2="831.03" y2="250.17"/><line class="cls-5" x1="799.69" y1="223.19" x2="799.69" y2="263.36"/><line class="cls-5" x1="587.32" y1="238.19" x2="587.32" y2="260.21"/><line class="cls-5" x1="592.89" y1="236.74" x2="592.89" y2="259.85"/><line class="cls-5" x1="679.04" y1="291.19" x2="679.04" y2="313.21"/><line class="cls-5" x1="712.56" y1="294.58" x2="712.56" y2="320.23"/><line class="cls-5" x1="834.78" y1="202.98" x2="834.78" y2="240.61"/><line class="cls-5" x1="574.38" y1="220.52" x2="574.38" y2="244.97"/><polyline class="cls-5" points="731.44 224.64 731.44 223.07 812.27 176.36 825.7 184.1 825.7 185.68"/><line class="cls-5" x1="744.87" y1="230.81" x2="731.44" y2="223.07"/><polyline class="cls-5" points="825.7 184.1 744.87 230.81 744.87 232.38 731.44 224.64"/><line class="cls-5" x1="825.7" y1="185.68" x2="744.87" y2="232.38"/><polyline class="cls-5" points="657.26 181.8 657.26 180.23 643.83 172.49 643.83 174.06 657.26 181.8"/><line class="cls-5" x1="738.1" y1="133.52" x2="657.26" y2="180.23"/><polyline class="cls-5" points="643.83 172.49 724.66 125.78 738.1 133.52 738.1 135.09 657.26 181.8"/><line class="cls-4" x1="430" y1="227.81" x2="498.26" y2="227.81"/><polygon points="496.01 230.77 497.27 227.81 496.01 224.85 503.03 227.81 496.01 230.77"/></svg>