<?xml version="1.0" encoding="UTF-8"?><svg id="Layer_1" xmlns="http://www.w3.org/2000/svg" viewBox="0 0 842.304348 408.246377"><polyline points="485.98967 113.871284 483.736225 112.550293 483.736225 312.408627 485.98967 313.729618 485.98967 113.871284" style="fill:none; stroke:#000; stroke-linecap:round; stroke-linejoin:round; stroke-width:.25px;"/><polyline points="483.736225 112.550293 574.651561 60.099105 576.82733 61.342394 576.82733 261.200755" style="fill:none; stroke:#000; stroke-linecap:round; stroke-linejoin:round; stroke-width:.25px;"/><line x1="576.82733" y1="61.342394" x2="485.98967" y2="113.871284" style="fill:none; stroke:#000; stroke-linecap:round; stroke-linejoin:round; stroke-width:.25px;"/><line x1="485.98967" y1="313.729618" x2="576.82733" y2="261.200755" style="fill:none; stroke:#000; stroke-linecap:round; stroke-linejoin:round; stroke-width:.25px;"/><line x1="473.245998" y1="103.536435" x2="473.245998" y2="106.566955" style="fill:none; stroke:#000; stroke-linecap:round; stroke-linejoin:round; stroke-width:.25px;"/><polyline points="435.403442 197.09378 435.32574 198.026259 435.092633 198.958713 434.704095 199.891193 434.160166 200.745944 433.538522 201.522993 432.839175 202.22234 432.139815 202.766282 431.440468 203.077091 430.741122 203.15482 430.119477 203.077091 429.575535 202.766282 429.187011 202.300042 428.953904 201.678397 428.876188 200.823646" style="fill:none; stroke:#000; stroke-linecap:round; stroke-linejoin:round; stroke-width:.25px;"/><line x1="433.149997" y1="195.850491" x2="435.403442" y2="197.09378" style="fill:none; stroke:#000; stroke-linecap:round; stroke-linejoin:round; stroke-width:.25px;"/><polyline points="429.031606 201.833828 429.653251 201.600695 430.352597 201.212184 430.974242 200.668242 431.595886 199.968895 432.139815 199.19182 432.606055 198.337068 432.916877 197.482317 433.072282 196.62754 433.149997 195.850491" style="fill:none; stroke:#000; stroke-linecap:round; stroke-linejoin:round; stroke-width:.25px;"/><line x1="428.876188" y1="200.823646" x2="428.876188" y2="195.850491" style="fill:none; stroke:#000; stroke-linecap:round; stroke-linejoin:round; stroke-width:.25px;"/><polyline points="428.876188 195.850491 428.953904 194.995739 429.187011 194.063286 429.575535 193.130806 430.119477 192.198353 430.741122 191.421277 431.440468 190.721931 432.139815 190.255717 432.839175 189.944882 433.538522 189.789477 434.160166 189.867179 434.704095 190.178015 435.092633 190.644228 435.32574 191.343575 435.403442 192.12065" style="fill:none; stroke:#000; stroke-linecap:round; stroke-linejoin:round; stroke-width:.25px;"/><polyline points="433.149997 190.877361 433.149997 190.333419 433.072282 189.867179" style="fill:none; stroke:#000; stroke-linecap:round; stroke-linejoin:round; stroke-width:.25px;"/><line x1="433.149997" y1="190.877361" x2="435.403442" y2="192.12065" style="fill:none; stroke:#000; stroke-linecap:round; stroke-linejoin:round; stroke-width:.25px;"/><line x1="435.403442" y1="192.12065" x2="435.403442" y2="197.09378" style="fill:none; stroke:#000; stroke-linecap:round; stroke-linejoin:round; stroke-width:.25px;"/><line x1="433.149997" y1="195.850491" x2="433.149997" y2="190.877361" style="fill:none; stroke:#000; stroke-linecap:round; stroke-linejoin:round; stroke-width:.25px;"/><polyline points="386.75985 56.602372 384.506392 55.281407 384.506392 255.139741 386.75985 256.38303 386.75985 56.602372" style="fill:none; stroke:#000; stroke-linecap:round; stroke-linejoin:round; stroke-width:.25px;"/><polyline points="384.506392 55.281407 475.421741 2.830245 477.675212 4.073534" style="fill:none; stroke:#000; stroke-linecap:round; stroke-linejoin:round; stroke-width:.25px;"/><line x1="477.675212" y1="203.931868" x2="477.675212" y2="178.988415" style="fill:none; stroke:#000; stroke-linecap:round; stroke-linejoin:round; stroke-width:.25px;"/><line x1="477.675212" y1="4.073534" x2="386.75985" y2="56.602372" style="fill:none; stroke:#000; stroke-linecap:round; stroke-linejoin:round; stroke-width:.25px;"/><line x1="386.75985" y1="256.38303" x2="477.675212" y2="203.931868" style="fill:none; stroke:#000; stroke-linecap:round; stroke-linejoin:round; stroke-width:.25px;"/><polyline points="475.421741 2.830245 477.597483 1.586957 579.003072 60.099105 579.003072 235.014038" style="fill:none; stroke:#000; stroke-linecap:round; stroke-linejoin:round; stroke-width:.25px;"/><polyline points="579.003072 60.099105 576.82733 61.420123 576.82733 236.257327 579.003072 235.014038" style="fill:none; stroke:#000; stroke-linecap:round; stroke-linejoin:round; stroke-width:.25px;"/><line x1="576.82733" y1="61.420123" x2="475.421741" y2="2.830245" style="fill:none; stroke:#000; stroke-linecap:round; stroke-linejoin:round; stroke-width:.25px;"/><line x1="477.597483" y1="178.988415" x2="483.736225" y2="182.562877" style="fill:none; stroke:#000; stroke-linecap:round; stroke-linejoin:round; stroke-width:.25px;"/><line x1="477.839434" y1="4.303443" x2="477.839434" y2="179.218377" style="fill:none; stroke:#000; stroke-linecap:round; stroke-linejoin:round; stroke-width:.25px;"/><polyline points="424.120105 406.65942 426.449109 405.261986 426.449109 205.664976 394.541533 187.149271 392.212529 188.546705 392.212529 390.705612 397.569293 393.733333 397.802186 391.404329 424.120105 406.65942 424.120105 206.945924 392.212529 188.546705" style="fill:none; stroke:#000; stroke-linecap:round; stroke-linejoin:round; stroke-width:.25px;"/><line x1="424.120105" y1="206.945924" x2="426.449109" y2="205.664976" style="fill:none; stroke:#000; stroke-linecap:round; stroke-linejoin:round; stroke-width:.25px;"/><polyline points="289.968573 331.664954 289.735641 328.986611 263.301276 313.73152 263.301276 114.13451 265.630299 112.737076" style="fill:none; stroke:#000; stroke-linecap:round; stroke-linejoin:round; stroke-width:.25px;"/><polyline points="263.301276 114.13451 295.325298 132.533807 297.537856 131.25278 265.630299 112.737076" style="fill:none; stroke:#000; stroke-linecap:round; stroke-linejoin:round; stroke-width:.25px;"/><line x1="297.537856" y1="131.25278" x2="297.537856" y2="333.411727" style="fill:none; stroke:#000; stroke-linecap:round; stroke-linejoin:round; stroke-width:.25px;"/><polyline points="289.968573 331.664954 295.325298 334.692714 295.325298 132.533807" style="fill:none; stroke:#000; stroke-linecap:round; stroke-linejoin:round; stroke-width:.25px;"/><line x1="397.569293" y1="393.733333" x2="399.665405" y2="392.452385" style="fill:none; stroke:#000; stroke-linecap:round; stroke-linejoin:round; stroke-width:.25px;"/><line x1="295.325298" y1="334.692714" x2="297.537856" y2="333.411727" style="fill:none; stroke:#000; stroke-linecap:round; stroke-linejoin:round; stroke-width:.25px;"/><line x1="307.436987" y1="115.27915" x2="364.113714" y2="81.799216" style="fill:none; stroke:#d2155b; stroke-dasharray:3 3; stroke-linecap:round; stroke-linejoin:round; stroke-width:.75px;"/><polygon points="363.712652 85.261847 363.315984 82.270437 360.887487 80.479269 367.968664 79.522024 363.712652 85.261847" style="fill:#d2155b;"/><line x1="405.780492" y1="173.128271" x2="462.457189" y2="139.648321" style="fill:none; stroke:#d2155b; stroke-dasharray:3 3; stroke-linecap:round; stroke-linejoin:round; stroke-width:.75px;"/><polygon points="462.056127 143.110968 461.65946 140.119559 459.230962 138.328375 466.312139 137.37113 462.056127 143.110968" style="fill:#d2155b;"/></svg>