<?xml version="1.0" encoding="UTF-8"?><svg id="Layer_1" xmlns="http://www.w3.org/2000/svg" viewBox="0 0 841.88983154296875 595.27557373046875"><defs><style>.cls-1{fill:#d2155b;}.cls-2{stroke:#000;stroke-width:.25px;}.cls-2,.cls-3{fill:none;stroke-linecap:round;stroke-linejoin:round;}.cls-3{stroke:#d2155b;stroke-width:.5px;}</style></defs><polyline class="cls-2" points="570.863455161161255 8.363340172601966 808.901888113823588 145.86946415604325 808.901888113823588 204.844296308534467"/><polyline class="cls-2" points="808.901888113823588 145.86946415604325 803.096103001913434 149.230691808152187 803.096103001913434 207.900070843554204 808.901888113823588 204.844296308534467"/><polyline class="cls-2" points="803.096103001913434 149.230691808152187 565.057670049243825 11.724567824721817 565.057670049243825 70.393946860105643 803.096103001913434 207.900070843554204"/><line class="cls-2" x1="565.057670049243825" y1="11.724567824721817" x2="570.863455161161255" y2="8.363340172601966"/><polyline class="cls-2" points="446.564610023842761 112.918949044278634 446.564610023842761 171.786446714555495 633.232537063980999 279.761008641924491"/><line class="cls-2" x1="689.965030422092241" y1="246.819597584828443" x2="684.169708442308547" y2="250.174707786212821"/><line class="cls-2" x1="446.564610023842761" y1="112.918949044278634" x2="446.564610023842761" y2="112.918949044278634"/><polyline class="cls-2" points="440.769391469168113 449.653281250035434 440.769391469168113 390.785783579745839 689.965030422092241 246.819597584828443 695.760248976792354 250.174707786212821 695.760248976792354 309.042308881609642 446.564610023842761 453.008391451428906"/><polyline class="cls-2" points="440.769391469168113 449.653281250035434 446.564610023842761 453.008391451428906 446.564610023842761 394.140893781132036 695.760248976792354 250.174707786212821"/><line class="cls-2" x1="440.769391469168113" y1="390.785783579745839" x2="446.564610023842761" y2="394.140893781132036"/><polyline class="cls-2" points="440.517978396459512 109.409679711690842 446.313196951161444 112.764996763266026 202.859189009572219 253.529921412702606 202.859189009572219 312.39741908299402 446.564610023842761 171.786446714555495"/><polyline class="cls-2" points="202.859189009572219 253.529921412702606 197.06397045488302 250.174707786212821 197.06397045488302 309.042308881609642 202.859189009572219 312.39741908299402"/><line class="cls-2" x1="197.06397045488302" y1="250.174707786212821" x2="440.517978396459512" y2="109.409679711690842"/><line class="cls-2" x1="440.769391469168113" y1="449.653281250035434" x2="203.164189625609652" y2="312.39741908299402"/><polyline class="cls-2" points="446.564610023842761 453.008391451428906 446.564610023842761 459.413714663267456 197.368971070914995 315.752529284376578 197.368971070914995 309.347309497636161"/><polyline class="cls-2" points="446.564610023842761 459.413714663267456 695.455248360760379 315.752529284376578 695.455248360760379 309.347309497636161"/><line class="cls-3" x1="654.4888916015625" y1="171.703369140625" x2="580.91485595703125" y2="214.181350708007812"/><polygon class="cls-1" points="581.20526123046875 211.875701904296875 581.4498291015625 213.872512817382812 583.05682373046875 215.08270263671875 578.32989501953125 215.673782348632812 581.20526123046875 211.875701904296875"/><polyline class="cls-2" points="38.793728541062592 387.375502886914546 276.832161493724925 524.881626870355831 276.832161493724925 583.856459022847048"/><polyline class="cls-2" points="276.832161493724925 524.881626870355831 271.026376381812952 528.242854522466587 271.026376381812952 586.912233557866784 276.832161493724925 583.856459022847048"/><polyline class="cls-2" points="271.026376381812952 528.242854522466587 32.987943429145162 390.736730539023483 32.987943429145162 449.406109574423681 271.026376381812952 586.912233557866784"/><line class="cls-2" x1="32.987943429145162" y1="390.736730539023483" x2="38.793728541062592" y2="387.375502886914546"/><line class="cls-3" x1="214.9993896484375" y1="450.796875" x2="288.573394775390625" y2="408.318878173828125"/><polygon class="cls-1" points="288.283050537109375 410.624542236328125 288.038482666015625 408.627716064453125 286.43145751953125 407.41754150390625 291.15838623046875 406.826446533203125 288.283050537109375 410.624542236328125"/></svg>