<?xml version="1.0" encoding="UTF-8"?><svg id="Layer_1" xmlns="http://www.w3.org/2000/svg" viewBox="0 0 841.88983154296875 595.27557373046875"><defs><style>.cls-1{fill:#d2155b;}.cls-2{stroke:#d2155b;stroke-dasharray:0 0 3 3;stroke-width:.5px;}.cls-2,.cls-3{fill:none;stroke-linecap:round;stroke-linejoin:round;}.cls-3{stroke:#000;stroke-width:.25px;}</style></defs><polyline class="cls-3" points="515.243456472215257 166.376966976598851 511.96608526626369 164.4557401231923 511.96608526626369 455.12626909361461 515.243456472215257 457.047495947019343 515.243456472215257 166.376966976598851"/><polyline class="cls-3" points="511.96608526626369 164.4557401231923 644.191788285505027 88.171633524621939 647.356188976569683 89.979851542067991 647.356188976569683 380.65041883356389"/><line class="cls-3" x1="647.356188976569683" y1="89.979851542067991" x2="515.243456472215257" y2="166.376966976598851"/><line class="cls-3" x1="515.243456472215257" y1="457.047495947019343" x2="647.356188976569683" y2="380.65041883356389"/><line class="cls-3" x1="496.709279274971777" y1="151.346140336157987" x2="496.709279274971777" y2="155.753676543823531"/><polyline class="cls-3" points="441.671715220887563 287.414335383282378 441.558706384927063 288.770518056900983 441.219679877060116 290.126662409456912 440.654597376204038 291.482845083077336 439.863516363971939 292.725980599670947 438.959407355248914 293.856107280307697 437.942289510565388 294.873225124987584 436.925152505351434 295.664325297757387 435.908034660667909 296.116360641583015 434.89091681598984 296.229407798609827 433.986807807268633 296.116360641583015 433.195707634498831 295.664325297757387 432.630644294178637 294.986233960946265 432.29161778631169 294.08212495222142 432.178589789815305 292.838989435627809"/><line class="cls-3" x1="438.394344014930539" y1="285.606117365830869" x2="441.671715220887563" y2="287.414335383282378"/><polyline class="cls-3" points="432.404626622264914 294.308180945206914 433.308735630989759 293.969116116266378 434.325853475671465 293.40407193648025 435.229962484394491 292.612971763714086 436.134071493119336 291.59585391903056 436.925152505351434 290.465688917327498 437.603243842160737 289.22255340072843 438.055298346525888 287.979417884138456 438.281316018439611 286.736244046471256 438.394344014930539 285.606117365830869"/><line class="cls-3" x1="432.178589789815305" y1="292.838989435627809" x2="432.178589789815305" y2="285.606117365830869"/><polyline class="cls-3" points="432.178589789815305 285.606117365830869 432.29161778631169 284.362981849239077 432.630644294178637 283.006837496688604 433.195707634498831 281.650654823062723 433.986807807268633 280.29451047051225 434.89091681598984 279.164345468807369 435.908034660667909 278.147227624123843 436.925152505351434 277.469174608386311 437.942289510565388 277.017100943487094 438.959407355248914 276.79108327157337 439.863516363971939 276.904092107530232 440.654597376204038 277.356165772429449 441.219679877060116 278.03421878817062 441.558706384927063 279.051336632846869 441.671715220887563 280.181501634559027"/><polyline class="cls-3" points="438.394344014930539 278.373283617109337 438.394344014930539 277.582183444343173 438.281316018439611 276.904092107530232"/><line class="cls-3" x1="438.394344014930539" y1="278.373283617109337" x2="441.671715220887563" y2="280.181501634559027"/><line class="cls-3" x1="441.671715220887563" y1="280.181501634559027" x2="441.671715220887563" y2="287.414335383282378"/><line class="cls-3" x1="438.394344014930539" y1="285.606117365830869" x2="438.394344014930539" y2="278.373283617109337"/><polyline class="cls-3" points="370.925309831689447 83.086044301218863 367.647919465194718 81.164855768878624 367.647919465194718 371.835384739299116 370.925309831689447 373.643602756750624 370.925309831689447 83.086044301218863"/><polyline class="cls-3" points="367.647919465194718 81.164855768878624 499.873641644973759 4.880787491383671 503.151051171998915 6.689005508829723"/><line class="cls-3" x1="503.151051171998915" y1="297.359534479248396" x2="503.151051171998915" y2="261.082203615389517"/><line class="cls-3" x1="503.151051171998915" y1="6.689005508829723" x2="370.925309831689447" y2="83.086044301218863"/><line class="cls-3" x1="370.925309831689447" y1="373.643602756750624" x2="503.151051171998915" y2="297.359534479248396"/><polyline class="cls-3" points="499.873641644973759 4.880787491383671 503.038004014973922 3.072569473930344 650.520551346573484 88.171633524621939 650.520551346573484 342.564908273327092"/><polyline class="cls-3" points="650.520551346573484 88.171633524621939 647.356188976569683 90.09289869910026 647.356188976569683 344.373126290773143 650.520551346573484 342.564908273327092"/><line class="cls-3" x1="647.356188976569683" y1="90.09289869910026" x2="499.873641644973759" y2="4.880787491383671"/><line class="cls-3" x1="503.038004014973922" y1="261.082203615389517" x2="511.96608526626369" y2="266.280839995823044"/><line class="cls-3" x1="503.389893752895659" y1="7.023381426317428" x2="503.389893752895659" y2="261.416656175022581"/><polyline class="cls-3" points="425.26142341384184 592.203004256538406 428.64868685996953 590.170600245848618 428.64868685996953 299.880135877710927 382.242856046981615 272.951213451853619 378.855592600853925 274.983617462539769 378.855592600853925 569.00006013566599 386.646378927209298 573.403525587138574 386.985093786071957 570.016262141010884 425.26142341384184 592.203004256538406 425.26142341384184 301.74312503020883 378.855592600853925 274.983617462539769"/><line class="cls-3" x1="425.26142341384184" y1="301.74312503020883" x2="428.64868685996953" y2="299.880135877710927"/><polyline class="cls-3" points="230.153739541228788 483.132340260122874 229.814967253601935 479.237004525708471 191.369280196395266 457.050262410180949 191.369280196395266 166.759798042035982 194.756572356902325 164.727394031349831"/><polyline class="cls-3" points="191.369280196395266 166.759798042035982 237.944468438819968 193.519420467233431 241.162374455509052 191.65631645720714 194.756572356902325 164.727394031349831"/><line class="cls-3" x1="241.162374455509052" y1="191.65631645720714" x2="241.162374455509052" y2="485.672816559113926"/><polyline class="cls-3" points="230.153739541228788 483.132340260122874 237.944468438819968 487.535863140366928 237.944468438819968 193.519420467233431"/><line class="cls-3" x1="386.646378927209298" y1="573.403525587138574" x2="389.69492751447433" y2="571.540536434640671"/><line class="cls-3" x1="237.944468438819968" y1="487.535863140366928" x2="241.162374455509052" y2="485.672816559113926"/><line class="cls-2" x1="255.55950927734375" y1="168.424545288085938" x2="341.0257568359375" y2="117.938117980957031"/><polygon class="cls-1" points="340.75836181640625 120.246543884277344 340.493927001953125 118.252273559570312 338.87493896484375 117.058158874511719 343.595703125 116.419990539550781 340.75836181640625 120.246543884277344"/><line class="cls-2" x1="398.588592529296875" y1="252.559310913085938" x2="484.054840087890625" y2="202.0728759765625"/><polygon class="cls-1" points="483.7874755859375 204.381301879882812 483.52301025390625 202.38702392578125 481.904022216796875 201.192916870117188 486.62481689453125 200.55474853515625 483.7874755859375 204.381301879882812"/></svg>