<?xml version="1.0" encoding="UTF-8"?><svg id="Layer_1" xmlns="http://www.w3.org/2000/svg" viewBox="0 0 837.93 343.24"><defs><style>.cls-1,.cls-2{stroke:#000;}.cls-1,.cls-2,.cls-3{fill:none;stroke-linecap:round;stroke-linejoin:round;}.cls-2{stroke-width:.25px;}.cls-4{fill:#d3125a;}.cls-3{stroke:#d3125a;stroke-dasharray:0 0 3 3;stroke-width:.5px;}</style></defs><polyline class="cls-2" points="178.61 332.88 178.61 333.04 178.69 333.12"/><polyline class="cls-2" points="178.14 334.06 178.06 334.06 177.91 334.06"/><line class="cls-2" x1="178.14" y1="334.06" x2="179.86" y2="334.99"/><polyline class="cls-2" points="179.94 335.31 179.94 335.15 179.86 334.99"/><polyline class="cls-2" points="176.27 334.99 179.94 337.18 179.94 335.31"/><polyline class="cls-2" points="180.4 334.06 180.48 334.13 180.64 334.06"/><line class="cls-2" x1="180.4" y1="334.06" x2="178.69" y2="333.12"/><polyline class="cls-2" points="181.73 336.01 181.97 335.85 182.12 335.54 182.2 335.23"/><line class="cls-2" x1="182.2" y1="333.82" x2="182.2" y2="335.23"/><polyline class="cls-2" points="177.83 337.96 177.91 337.73 178.06 337.57"/><line class="cls-2" x1="177.83" y1="337.96" x2="177.83" y2="338.82"/><polyline class="cls-2" points="181.73 331.25 181.73 331.09 181.89 330.93"/><polyline class="cls-2" points="178.61 330.46 181.73 332.26 181.73 331.25"/><polyline class="cls-2" points="178.06 338.97 177.91 338.97 177.83 338.82"/><line class="cls-2" x1="178.06" y1="338.97" x2="181.58" y2="336.94"/><polyline class="cls-2" points="182.67 330.46 182.82 330.46 182.9 330.62"/><line class="cls-2" x1="182.9" y1="334.68" x2="182.9" y2="330.62"/><polyline class="cls-2" points="182.9 334.68 182.82 335.15 182.67 335.7 182.36 336.16 181.97 336.63 181.58 336.94"/><polyline class="cls-2" points="181.73 336.01 180.48 336.71 180.48 334.76 182.2 333.82"/><polyline class="cls-2" points="175.8 335.31 178.92 337.1 178.06 337.57"/><polyline class="cls-2" points="179.94 337.18 178.92 337.73 178.92 337.1"/><polyline class="cls-2" points="178.61 331.01 182.28 333.12 180.64 334.06"/><polyline class="cls-2" points="181.73 332.26 182.28 331.95 182.28 333.12"/><line class="cls-2" x1="182.67" y1="330.46" x2="181.89" y2="330.93"/><polyline class="cls-2" points="174.86 335.85 174.71 335.93 174.55 336.16"/><line class="cls-2" x1="174.86" y1="335.85" x2="177.91" y2="334.06"/><polyline class="cls-2" points="174 335.85 174.08 335.62 174.16 335.38"/><line class="cls-2" x1="16.14" y1="247.87" x2="17.16" y2="246.15"/><line class="cls-2" x1="174" y1="335.85" x2="172.36" y2="338.66"/><polyline class="cls-2" points="172.05 339.05 172.21 338.9 172.36 338.66"/><line class="cls-2" x1="172.05" y1="339.05" x2="170.49" y2="339.91"/><polyline class="cls-2" points="172.91 338.97 172.83 339.21 172.75 339.44"/><line class="cls-2" x1="172.91" y1="338.97" x2="174.55" y2="336.16"/><polyline class="cls-2" points="170.57 342.02 170.57 342.18 170.72 342.25 170.96 342.25"/><polyline class="cls-2" points="170.57 340.54 172.21 341.47 170.96 342.25"/><polyline class="cls-2" points="170.8 337.26 170.96 337.26 171.04 337.41"/><polyline class="cls-2" points="13.57 247.4 14.35 246.93 14.51 246.93"/><line class="cls-2" x1="170.8" y1="337.26" x2="170.1" y2="337.73"/><polyline class="cls-2" points="174.71 339.52 174.86 339.52 174.86 339.68"/><polyline class="cls-2" points="172.75 339.44 173.77 339.99 174.71 339.52"/><polyline class="cls-2" points="169.86 338.12 169.94 337.88 170.1 337.73"/><polyline class="cls-2" points="13.57 247.4 13.41 247.55 13.33 247.79"/><line class="cls-2" x1="13.33" y1="251.85" x2="13.33" y2="247.79"/><line class="cls-2" x1="169.86" y1="338.12" x2="169.86" y2="342.18"/><polyline class="cls-2" points="174.86 340.54 174.86 340.77 174.71 340.93"/><line class="cls-2" x1="171.11" y1="342.96" x2="174.71" y2="340.93"/><polyline class="cls-2" points="13.33 251.85 13.41 252.24 13.57 252.47 13.72 252.71"/><polyline class="cls-2" points="171.11 342.96 170.72 343.11 170.41 343.11 170.1 342.96 169.94 342.64 169.86 342.18"/><polyline class="cls-2" points="170.57 342.02 170.57 340.54 172.21 339.52 172.21 341.47"/><polyline class="cls-2" points="170.49 339.91 170.49 338.74 171.04 338.43 171.04 337.41"/><polyline class="cls-2" points="172.75 340.15 173.77 340.69 172.75 341.32 172.75 339.44"/><line class="cls-2" x1="173.77" y1="339.99" x2="173.77" y2="340.69"/><line class="cls-2" x1="174.86" y1="340.54" x2="174.86" y2="339.68"/><polyline class="cls-2" points="174.16 331.95 174.08 331.79 174 331.64"/><line class="cls-2" x1="174.16" y1="331.95" x2="174.16" y2="335.38"/><polyline class="cls-2" points="174.55 330.7 174.71 330.78 174.86 330.7"/><line class="cls-2" x1="174.55" y1="330.7" x2="172.91" y2="329.76"/><polyline class="cls-2" points="172.75 329.53 172.83 329.68 172.91 329.76"/><line class="cls-2" x1="172.75" y1="329.53" x2="172.75" y2="327.65"/><polyline class="cls-2" points="172.36 330.7 172.21 330.7 172.05 330.78"/><line class="cls-2" x1="172.36" y1="330.7" x2="174" y2="331.64"/><polyline class="cls-2" points="170.96 328.75 170.72 328.98 170.57 329.22 170.57 329.53"/><line class="cls-2" x1="170.57" y1="331.01" x2="170.57" y2="329.53"/><polyline class="cls-2" points="174.94 326.87 174.86 327.03 174.71 327.19"/><line class="cls-2" x1="174.94" y1="326.87" x2="174.94" y2="325.94"/><polyline class="cls-2" points="171.04 333.51 170.96 333.74 170.8 333.9"/><polyline class="cls-2" points="170.49 332.18 171.04 332.49 171.04 333.51"/><polyline class="cls-2" points="174.71 325.86 174.86 325.86 174.94 325.94"/><polyline class="cls-2" points="14.66 237.56 18.17 235.45 18.33 235.45"/><line class="cls-2" x1="174.71" y1="325.86" x2="171.11" y2="327.89"/><polyline class="cls-2" points="170.1 334.29 169.94 334.37 169.86 334.21"/><line class="cls-2" x1="13.41" y1="243.96" x2="13.33" y2="243.88"/><line class="cls-2" x1="169.86" y1="330.15" x2="169.86" y2="334.21"/><line class="cls-2" x1="13.33" y1="243.88" x2="13.33" y2="239.83"/><polyline class="cls-2" points="14.66 237.56 14.27 237.87 13.88 238.26 13.65 238.73 13.41 239.28 13.33 239.83"/><polyline class="cls-2" points="169.86 330.15 169.94 329.61 170.1 329.14 170.41 328.59 170.72 328.2 171.11 327.89"/><polyline class="cls-2" points="170.65 329.14 172.21 330 170.57 331.01"/><polyline class="cls-2" points="170.96 328.75 172.21 328.04 172.21 330"/><polyline class="cls-2" points="173.22 327.34 173.85 327.73 174.71 327.19"/><polyline class="cls-2" points="172.75 327.65 173.85 327.03 173.85 327.73"/><polyline class="cls-2" points="171.04 332.49 170.49 332.88 170.49 331.64 172.05 330.78"/><line class="cls-2" x1="170.1" y1="334.29" x2="170.8" y2="333.9"/><line class="cls-2" x1="174.16" y1="336.79" x2="177.91" y2="338.97"/><line class="cls-2" x1="179.08" y1="328.28" x2="182.82" y2="330.46"/><line class="cls-2" x1="14.51" y1="246.93" x2="170.96" y2="337.26"/><line class="cls-2" x1="173.14" y1="338.58" x2="174.86" y2="339.52"/><line class="cls-2" x1="170.26" y1="343.03" x2="13.72" y2="252.71"/><line class="cls-2" x1="18.33" y1="235.45" x2="174.86" y2="325.86"/><line class="cls-2" x1="13.41" y1="243.96" x2="169.94" y2="334.37"/><polyline class="cls-2" points="177.91 328.98 178.06 328.83 178.14 328.67"/><polyline class="cls-2" points="178.69 328.98 178.61 329.14 178.61 329.37"/><polyline class="cls-2" points="180.64 325.78 180.48 325.94 180.4 326.09"/><polyline class="cls-2" points="179.86 325.78 179.94 325.55 179.94 325.39"/><polyline class="cls-2" points="182.2 322.81 182.12 322.58 181.97 322.5 181.73 322.58"/><line class="cls-2" x1="177.91" y1="328.98" x2="174.86" y2="330.7"/><line class="cls-2" x1="178.69" y1="328.98" x2="180.4" y2="326.09"/><line class="cls-2" x1="180.64" y1="325.78" x2="182.28" y2="324.84"/><line class="cls-2" x1="179.86" y1="325.78" x2="178.14" y2="328.67"/><line class="cls-2" x1="22.08" y1="237.64" x2="23.09" y2="235.92"/><line class="cls-2" x1="180.48" y1="323.28" x2="181.73" y2="322.58"/><line class="cls-2" x1="181.89" y1="327.5" x2="182.67" y2="327.11"/><line class="cls-2" x1="21.38" y1="234.83" x2="21.38" y2="233.89"/><line class="cls-2" x1="21.61" y1="233.58" x2="25.12" y2="231.47"/><line class="cls-2" x1="178.06" y1="325.23" x2="178.92" y2="324.77"/><line class="cls-2" x1="182.9" y1="326.72" x2="182.9" y2="322.58"/><line class="cls-2" x1="181.58" y1="321.88" x2="178.06" y2="323.91"/><polyline class="cls-2" points="182.2 324.3 180.48 325.23 180.48 323.28 182.2 324.3 182.2 322.81"/><polyline class="cls-2" points="180.64 325.78 181.73 326.41 181.73 327.42"/><polyline class="cls-2" points="181.26 325.47 182.28 326.01 181.73 326.41"/><line class="cls-2" x1="182.28" y1="324.84" x2="182.28" y2="326.01"/><line class="cls-2" x1="178.61" y1="332.88" x2="178.61" y2="329.37"/><polyline class="cls-2" points="176.34 333.67 175.95 333.82 175.56 333.74 175.33 333.43 175.25 333.04 175.33 332.49 175.56 331.95 175.95 331.48 176.34 331.17 176.81 331.01 177.13 331.09 177.36 331.32 177.44 331.79 177.36 332.26 177.13 332.81 176.81 333.35 176.34 333.67"/><polyline class="cls-2" points="178.92 324.77 178.92 324.06 179.94 323.52 179.94 325.39"/><line class="cls-2" x1="177.83" y1="324.3" x2="177.83" y2="325.16"/><polyline class="cls-2" points="181.89 327.5 181.73 327.5 181.73 327.42"/><line class="cls-2" x1="21.45" y1="234.91" x2="21.38" y2="234.83"/><polyline class="cls-2" points="21.61 233.58 21.45 233.74 21.38 233.89"/><polyline class="cls-2" points="178.06 325.23 177.91 325.31 177.83 325.16"/><polyline class="cls-2" points="182.9 326.72 182.82 326.87 182.67 327.11"/><polyline class="cls-2" points="177.83 324.3 177.91 324.06 178.06 323.91"/><line class="cls-2" x1="180.09" y1="326.56" x2="181.73" y2="327.5"/><line class="cls-2" x1="21.45" y1="234.91" x2="177.91" y2="325.31"/><polyline class="cls-2" points="26.06 231.39 25.75 231.32 25.43 231.39 25.12 231.47"/><polyline class="cls-2" points="181.58 321.88 181.97 321.72 182.36 321.72 182.67 321.88 182.82 322.19 182.9 322.58"/><line class="cls-2" x1="182.51" y1="321.8" x2="26.06" y2="231.39"/><polyline class="cls-2" points="276.13 273.81 276.13 273.97 276.21 274.05"/><polyline class="cls-2" points="275.66 274.98 275.58 274.98 275.43 274.98"/><line class="cls-2" x1="275.66" y1="274.98" x2="277.38" y2="275.92"/><polyline class="cls-2" points="277.46 276.23 277.46 276.08 277.38 275.92"/><polyline class="cls-2" points="273.79 275.92 277.46 278.11 277.46 276.23"/><polyline class="cls-2" points="277.92 274.98 278 275.06 278.16 274.98"/><line class="cls-2" x1="277.92" y1="274.98" x2="276.21" y2="274.05"/><polyline class="cls-2" points="279.25 276.93 279.49 276.78 279.64 276.47 279.72 276.15"/><line class="cls-2" x1="279.72" y1="274.75" x2="279.72" y2="276.15"/><polyline class="cls-2" points="275.35 278.89 275.43 278.65 275.58 278.5"/><line class="cls-2" x1="275.35" y1="278.89" x2="275.35" y2="279.74"/><polyline class="cls-2" points="279.25 272.17 279.25 272.02 279.41 271.86"/><polyline class="cls-2" points="276.13 271.39 279.25 273.19 279.25 272.17"/><polyline class="cls-2" points="275.58 279.9 275.43 279.9 275.35 279.74"/><line class="cls-2" x1="275.58" y1="279.9" x2="279.1" y2="277.87"/><polyline class="cls-2" points="280.19 271.39 280.34 271.39 280.42 271.55"/><line class="cls-2" x1="280.42" y1="275.61" x2="280.42" y2="271.55"/><polyline class="cls-2" points="280.42 275.61 280.34 276.08 280.19 276.62 279.88 277.09 279.49 277.56 279.1 277.87"/><polyline class="cls-2" points="279.25 276.93 278 277.64 278 275.69 279.72 274.75"/><polyline class="cls-2" points="273.32 276.23 276.44 278.03 275.58 278.5"/><polyline class="cls-2" points="277.46 278.11 276.44 278.65 276.44 278.03"/><polyline class="cls-2" points="276.13 271.94 279.8 274.05 278.16 274.98"/><polyline class="cls-2" points="279.25 273.19 279.8 272.87 279.8 274.05"/><line class="cls-2" x1="280.19" y1="271.39" x2="279.41" y2="271.86"/><polyline class="cls-2" points="272.38 276.78 272.23 276.86 272.07 277.09"/><line class="cls-2" x1="272.38" y1="276.78" x2="275.43" y2="274.98"/><polyline class="cls-2" points="271.52 276.78 271.6 276.54 271.68 276.31"/><line class="cls-2" x1="113.66" y1="188.79" x2="114.68" y2="187.08"/><line class="cls-2" x1="271.52" y1="276.78" x2="269.88" y2="279.59"/><polyline class="cls-2" points="269.57 279.98 269.73 279.82 269.88 279.59"/><line class="cls-2" x1="269.57" y1="279.98" x2="268.01" y2="280.84"/><polyline class="cls-2" points="270.43 279.9 270.35 280.14 270.27 280.37"/><line class="cls-2" x1="270.43" y1="279.9" x2="272.07" y2="277.09"/><polyline class="cls-2" points="268.09 282.95 268.09 283.1 268.24 283.18 268.48 283.18"/><polyline class="cls-2" points="268.09 281.46 269.73 282.4 268.48 283.18"/><polyline class="cls-2" points="268.32 278.18 268.48 278.18 268.56 278.34"/><polyline class="cls-2" points="111.09 188.32 111.87 187.86 112.03 187.86"/><line class="cls-2" x1="268.32" y1="278.18" x2="267.62" y2="278.65"/><polyline class="cls-2" points="272.23 280.45 272.38 280.45 272.38 280.6"/><polyline class="cls-2" points="270.27 280.37 271.29 280.92 272.23 280.45"/><polyline class="cls-2" points="267.39 279.04 267.46 278.81 267.62 278.65"/><polyline class="cls-2" points="111.09 188.32 110.93 188.48 110.85 188.71"/><line class="cls-2" x1="110.85" y1="192.77" x2="110.85" y2="188.71"/><line class="cls-2" x1="267.39" y1="279.04" x2="267.39" y2="283.1"/><polyline class="cls-2" points="272.38 281.46 272.38 281.7 272.23 281.85"/><line class="cls-2" x1="268.63" y1="283.88" x2="272.23" y2="281.85"/><polyline class="cls-2" points="110.85 192.77 110.93 193.16 111.09 193.4 111.24 193.63"/><polyline class="cls-2" points="268.63 283.88 268.24 284.04 267.93 284.04 267.62 283.88 267.46 283.57 267.39 283.1"/><polyline class="cls-2" points="268.09 282.95 268.09 281.46 269.73 280.45 269.73 282.4"/><polyline class="cls-2" points="268.01 280.84 268.01 279.67 268.56 279.35 268.56 278.34"/><polyline class="cls-2" points="270.27 281.07 271.29 281.62 270.27 282.24 270.27 280.37"/><line class="cls-2" x1="271.29" y1="280.92" x2="271.29" y2="281.62"/><line class="cls-2" x1="272.38" y1="281.46" x2="272.38" y2="280.6"/><polyline class="cls-2" points="271.68 272.87 271.6 272.72 271.52 272.56"/><line class="cls-2" x1="271.68" y1="272.87" x2="271.68" y2="276.31"/><polyline class="cls-2" points="272.07 271.63 272.23 271.7 272.38 271.63"/><line class="cls-2" x1="272.07" y1="271.63" x2="270.43" y2="270.69"/><polyline class="cls-2" points="270.27 270.45 270.35 270.61 270.43 270.69"/><line class="cls-2" x1="270.27" y1="270.45" x2="270.27" y2="268.58"/><polyline class="cls-2" points="269.88 271.63 269.73 271.63 269.57 271.7"/><line class="cls-2" x1="269.88" y1="271.63" x2="271.52" y2="272.56"/><polyline class="cls-2" points="268.48 269.67 268.24 269.91 268.09 270.14 268.09 270.45"/><line class="cls-2" x1="268.09" y1="271.94" x2="268.09" y2="270.45"/><polyline class="cls-2" points="272.46 267.8 272.38 267.96 272.23 268.11"/><line class="cls-2" x1="272.46" y1="267.8" x2="272.46" y2="266.86"/><polyline class="cls-2" points="268.56 274.44 268.48 274.67 268.32 274.83"/><polyline class="cls-2" points="268.01 273.11 268.56 273.42 268.56 274.44"/><polyline class="cls-2" points="272.23 266.79 272.38 266.79 272.46 266.86"/><polyline class="cls-2" points="112.18 178.49 115.69 176.38 115.85 176.38"/><line class="cls-2" x1="272.23" y1="266.79" x2="268.63" y2="268.81"/><polyline class="cls-2" points="267.62 275.22 267.46 275.29 267.39 275.14"/><line class="cls-2" x1="110.93" y1="184.89" x2="110.85" y2="184.81"/><line class="cls-2" x1="267.39" y1="271.08" x2="267.39" y2="275.14"/><line class="cls-2" x1="110.85" y1="184.81" x2="110.85" y2="180.75"/><polyline class="cls-2" points="112.18 178.49 111.79 178.8 111.4 179.19 111.17 179.66 110.93 180.21 110.85 180.75"/><polyline class="cls-2" points="267.39 271.08 267.46 270.53 267.62 270.06 267.93 269.52 268.24 269.13 268.63 268.81"/><polyline class="cls-2" points="268.17 270.06 269.73 270.92 268.09 271.94"/><polyline class="cls-2" points="268.48 269.67 269.73 268.97 269.73 270.92"/><polyline class="cls-2" points="270.74 268.27 271.37 268.66 272.23 268.11"/><polyline class="cls-2" points="270.27 268.58 271.37 267.96 271.37 268.66"/><polyline class="cls-2" points="268.56 273.42 268.01 273.81 268.01 272.56 269.57 271.7"/><line class="cls-2" x1="267.62" y1="275.22" x2="268.32" y2="274.83"/><line class="cls-2" x1="271.68" y1="277.71" x2="275.43" y2="279.9"/><line class="cls-2" x1="276.6" y1="269.21" x2="280.34" y2="271.39"/><line class="cls-2" x1="112.03" y1="187.86" x2="268.48" y2="278.18"/><line class="cls-2" x1="270.66" y1="279.51" x2="272.38" y2="280.45"/><line class="cls-2" x1="267.78" y1="283.96" x2="111.24" y2="193.63"/><line class="cls-2" x1="115.85" y1="176.38" x2="272.38" y2="266.79"/><line class="cls-2" x1="110.93" y1="184.89" x2="267.46" y2="275.29"/><polyline class="cls-2" points="275.43 269.91 275.58 269.75 275.66 269.6"/><polyline class="cls-2" points="276.21 269.91 276.13 270.06 276.13 270.3"/><polyline class="cls-2" points="278.16 266.71 278 266.86 277.92 267.02"/><polyline class="cls-2" points="277.38 266.71 277.46 266.47 277.46 266.32"/><polyline class="cls-2" points="279.72 263.74 279.64 263.51 279.49 263.43 279.25 263.51"/><line class="cls-2" x1="275.43" y1="269.91" x2="272.38" y2="271.63"/><line class="cls-2" x1="276.21" y1="269.91" x2="277.92" y2="267.02"/><line class="cls-2" x1="278.16" y1="266.71" x2="279.8" y2="265.77"/><line class="cls-2" x1="277.38" y1="266.71" x2="275.66" y2="269.6"/><line class="cls-2" x1="119.6" y1="178.57" x2="120.61" y2="176.85"/><line class="cls-2" x1="278" y1="264.21" x2="279.25" y2="263.51"/><line class="cls-2" x1="279.41" y1="268.42" x2="280.19" y2="268.03"/><line class="cls-2" x1="118.9" y1="175.76" x2="118.9" y2="174.82"/><line class="cls-2" x1="119.13" y1="174.51" x2="122.64" y2="172.4"/><line class="cls-2" x1="275.58" y1="266.16" x2="276.44" y2="265.69"/><line class="cls-2" x1="280.42" y1="267.64" x2="280.42" y2="263.51"/><line class="cls-2" x1="279.1" y1="262.8" x2="275.58" y2="264.83"/><polyline class="cls-2" points="279.72 265.22 278 266.16 278 264.21 279.72 265.22 279.72 263.74"/><polyline class="cls-2" points="278.16 266.71 279.25 267.33 279.25 268.35"/><polyline class="cls-2" points="278.78 266.39 279.8 266.94 279.25 267.33"/><line class="cls-2" x1="279.8" y1="265.77" x2="279.8" y2="266.94"/><line class="cls-2" x1="276.13" y1="273.81" x2="276.13" y2="270.3"/><polyline class="cls-2" points="273.86 274.59 273.47 274.75 273.08 274.67 272.85 274.36 272.77 273.97 272.85 273.42 273.08 272.87 273.47 272.41 273.86 272.09 274.33 271.94 274.65 272.02 274.88 272.25 274.96 272.72 274.88 273.19 274.65 273.73 274.33 274.28 273.86 274.59"/><polyline class="cls-2" points="276.44 265.69 276.44 264.99 277.46 264.44 277.46 266.32"/><line class="cls-2" x1="275.35" y1="265.22" x2="275.35" y2="266.08"/><polyline class="cls-2" points="279.41 268.42 279.25 268.42 279.25 268.35"/><line class="cls-2" x1="118.97" y1="175.83" x2="118.9" y2="175.76"/><polyline class="cls-2" points="119.13 174.51 118.97 174.66 118.9 174.82"/><polyline class="cls-2" points="275.58 266.16 275.43 266.24 275.35 266.08"/><polyline class="cls-2" points="280.42 267.64 280.34 267.8 280.19 268.03"/><polyline class="cls-2" points="275.35 265.22 275.43 264.99 275.58 264.83"/><line class="cls-2" x1="277.61" y1="267.49" x2="279.25" y2="268.42"/><line class="cls-2" x1="118.97" y1="175.83" x2="275.43" y2="266.24"/><polyline class="cls-2" points="123.58 172.32 123.27 172.24 122.96 172.32 122.64 172.4"/><polyline class="cls-2" points="279.1 262.8 279.49 262.65 279.88 262.65 280.19 262.8 280.34 263.12 280.42 263.51"/><line class="cls-2" x1="280.03" y1="262.73" x2="123.58" y2="172.32"/><polyline class="cls-2" points="135.05 12.18 134.41 11.63 133.95 11.08 133.77 10.44 133.95 9.8 134.32 9.25 134.87 8.71 135.69 8.34 136.69 8.07 137.7 7.88 138.79 7.88 139.8 8.07 140.8 8.43 141.53 8.89 142.08 9.35 142.35 9.98 142.44 10.62 142.17 11.26 141.71 11.81 140.98 12.27 140.07 12.63 139.07 12.81 137.97 12.91 136.88 12.81 135.96 12.54 135.05 12.18"/><polyline class="cls-2" points="140.16 12.54 140.25 12.18 140.16 11.72 139.8 11.35 139.25 11.08 138.52 10.9 137.79 10.9 137.06 11.08 136.42 11.35 136.05 11.72 135.96 12.18 136.15 12.54"/><polyline class="cls-2" points="139.89 12.63 139.43 12.36 138.79 12.18 138.15 12.08 137.42 12.18 136.78 12.36 136.33 12.63"/><polyline class="cls-2" points="257.01 82.56 256.37 82.1 256.01 81.46 255.83 80.92 255.92 80.28 256.28 79.64 256.83 79.18 257.65 78.72 258.66 78.45 259.66 78.36 260.76 78.36 261.85 78.54 262.76 78.82 263.49 79.27 264.04 79.82 264.41 80.46 264.41 81.01 264.13 81.65 263.68 82.19 262.95 82.65 262.03 83.02 261.03 83.2 259.93 83.29 258.93 83.2 257.93 82.92 257.01 82.56"/><polyline class="cls-2" points="262.12 83.02 262.31 82.56 262.12 82.19 261.76 81.74 261.21 81.46 260.48 81.37 259.75 81.37 259.02 81.46 258.47 81.74 258.11 82.19 257.93 82.56 258.11 83.02"/><polyline class="cls-2" points="261.94 83.11 261.39 82.74 260.85 82.56 260.12 82.47 259.39 82.56 258.75 82.74 258.29 83.11"/><polyline class="cls-2" points="160.52 138.34 159.79 137.79 159.42 137.24 159.24 136.6 159.33 136.05 159.7 135.42 160.34 134.96 161.07 134.5 162.07 134.23 163.17 134.05 164.17 134.14 165.27 134.32 166.18 134.59 166.91 135.05 167.46 135.6 167.82 136.15 167.82 136.78 167.55 137.42 167.09 137.97 166.36 138.43 165.45 138.79 164.45 138.98 163.44 139.07 162.35 138.98 161.34 138.7 160.52 138.34"/><polyline class="cls-2" points="165.54 138.79 165.72 138.34 165.54 137.88 165.18 137.51 164.63 137.24 163.9 137.06 163.17 137.06 162.44 137.24 161.89 137.51 161.52 137.88 161.34 138.34 161.52 138.79"/><polyline class="cls-2" points="165.36 138.79 164.9 138.52 164.26 138.34 163.53 138.25 162.8 138.34 162.16 138.52 161.71 138.79"/><polyline class="cls-2" points="38.47 67.86 37.83 67.4 37.37 66.86 37.28 66.22 37.37 65.58 37.74 65.03 38.28 64.48 39.11 64.12 40.11 63.75 41.11 63.66 42.21 63.66 43.3 63.84 44.22 64.21 44.95 64.58 45.5 65.12 45.77 65.76 45.86 66.4 45.59 66.95 45.13 67.5 44.4 68.04 43.49 68.32 42.48 68.59 41.39 68.59 40.38 68.5 39.38 68.32 38.47 67.86"/><polyline class="cls-2" points="43.58 68.32 43.67 67.86 43.58 67.5 43.21 67.13 42.67 66.86 41.94 66.67 41.21 66.67 40.47 66.86 39.93 67.13 39.56 67.5 39.38 67.86 39.56 68.32"/><polyline class="cls-2" points="43.4 68.41 42.85 68.04 42.21 67.86 41.57 67.86 40.84 67.86 40.2 68.04 39.74 68.41"/><polyline class="cls-2" points="8.52 96.98 6.61 95.7 4.96 94.43 3.5 93.06 2.32 91.6 1.31 90.04 .67 88.4 .22 86.85 .12 85.21 .22 83.56 .67 82.01 1.31 80.37 2.32 78.82 3.5 77.36 4.96 75.99 6.61 74.71 8.52 73.43"/><polyline class="cls-2" points=".12 88.13 .22 89.77 .67 91.41 1.31 92.97 2.32 94.52 3.5 95.98 4.96 97.35 6.61 98.72 8.52 99.9"/><line class="cls-2" x1="8.52" y1="99.9" x2="8.52" y2="96.98"/><line class="cls-2" x1="110.13" y1="155.68" x2="110.13" y2="158.6"/><polyline class="cls-2" points="110.13 158.6 112.23 159.7 114.51 160.61 116.97 161.43 119.53 162.16 122.18 162.71 124.92 163.08 127.66 163.35 130.49 163.44 133.32 163.35 136.15 163.08 138.88 162.71 141.53 162.16 144.09 161.43 146.46 160.61 148.74 159.7 150.84 158.6"/><polyline class="cls-2" points="150.84 155.68 148.74 156.69 146.46 157.69 144.09 158.51 141.53 159.24 138.88 159.79 136.15 160.15 133.32 160.43 130.49 160.52 127.66 160.43 124.92 160.15 122.18 159.79 119.53 159.24 116.97 158.51 114.51 157.69 112.23 156.69 110.13 155.68"/><line class="cls-2" x1="150.84" y1="158.6" x2="150.84" y2="155.68"/><line class="cls-2" x1=".12" y1="88.13" x2=".12" y2="85.21"/><line class="cls-2" x1="8.52" y1="99.9" x2="110.13" y2="158.6"/><line class="cls-2" x1="8.52" y1="96.98" x2="110.13" y2="155.68"/><line class="cls-2" x1="150.84" y1="158.6" x2="277.92" y2="85.21"/><polyline class="cls-2" points="277.92 85.21 277.92 82.29 135.6 .12"/><line class="cls-2" x1="150.84" y1="155.68" x2="277.92" y2="82.29"/><line class="cls-2" x1="135.6" y1=".12" x2="8.52" y2="73.43"/><polyline class="cls-2" points="199.14 60.28 176.22 47.05 148.29 63.21"/><polyline class="cls-2" points="176.22 47.05 176.22 44.13 201.69 58.82 171.2 76.44"/><polyline class="cls-2" points="171.2 76.44 145.73 61.75 176.22 44.13"/><line class="cls-3" x1="162.83" y1="193.92" x2="162.71" y2="290.47"/><polygon class="cls-4" points="160.86 289.07 162.71 289.86 164.56 289.07 162.7 293.46 160.86 289.07"/><line class="cls-3" x1="266.2" y1="123.39" x2="266.08" y2="219.94"/><polygon class="cls-4" points="264.23 218.54 266.08 219.33 267.94 218.54 266.08 222.93 264.23 218.54"/><line class="cls-3" x1="36.26" y1="131.12" x2="36.14" y2="227.67"/><polygon class="cls-4" points="34.29 226.27 36.14 227.06 38 226.27 36.14 230.66 34.29 226.27"/><polyline class="cls-2" points="735.04 275.29 735.13 274.67 735.39 274.04 735.75 273.51 736.28 273.15 736.73 272.98 737.17 273.07 737.44 273.42 737.53 273.87 737.44 274.49 737.17 275.11 736.73 275.65 736.28 276 735.75 276.18 735.39 276.09 735.13 275.82 735.04 275.29"/><line class="cls-2" x1="737.97" y1="270.66" x2="734.5" y2="272.62"/><line class="cls-2" x1="731.66" y1="272.71" x2="733.61" y2="273.78"/><line class="cls-2" x1="729.52" y1="273.78" x2="731.39" y2="272.71"/><line class="cls-2" x1="734.24" y1="272.71" x2="732.28" y2="271.64"/><line class="cls-2" x1="730.14" y1="270.48" x2="731.57" y2="269.68"/><line class="cls-2" x1="729.08" y1="276.8" x2="729.97" y2="276.36"/><line class="cls-2" x1="729.61" y1="272.98" x2="729.61" y2="271.29"/><polyline class="cls-2" points="731.57 269.68 731.57 271.91 729.61 272.98"/><line class="cls-2" x1="733.7" y1="274.04" x2="733.7" y2="278.05"/><polyline class="cls-2" points="732.19 271.29 732.19 269.15 733.35 268.53 733.35 269.24 734.33 268.71"/><line class="cls-2" x1="734.59" y1="268.26" x2="734.59" y2="267.28"/><line class="cls-2" x1="734.33" y1="267.1" x2="730.32" y2="269.42"/><line class="cls-2" x1="728.81" y1="272" x2="728.81" y2="276.71"/><polyline class="cls-2" points="730.14 275.91 730.14 274.76 729.52 275.11 729.52 273.78"/><line class="cls-2" x1="733.35" y1="269.24" x2="732.64" y2="268.88"/><line class="cls-2" x1="550.5" y1="173.68" x2="550.5" y2="169.05"/><line class="cls-2" x1="551.92" y1="166.47" x2="556.02" y2="164.16"/><line class="cls-2" x1="731.57" y1="271.91" x2="729.79" y2="270.84"/><line class="cls-2" x1="730.14" y1="274.76" x2="729.52" y2="274.31"/><polyline class="cls-2" points="733.61 278.49 733.7 278.23 733.7 278.05"/><line class="cls-2" x1="733.7" y1="278.05" x2="730.14" y2="276"/><line class="cls-2" x1="729.88" y1="276.36" x2="733.61" y2="278.49"/><polyline class="cls-2" points="734.5 278.49 734.33 278.67 734.24 278.85"/><line class="cls-2" x1="732.28" y1="282.14" x2="734.24" y2="278.85"/><polyline class="cls-2" points="732.28 282.14 732.19 282.41 732.19 282.59"/><line class="cls-2" x1="732.19" y1="284.72" x2="732.19" y2="282.59"/><polyline class="cls-2" points="731.39 282.14 731.57 281.96 731.66 281.78"/><line class="cls-2" x1="731.66" y1="281.78" x2="730.14" y2="280.89"/><line class="cls-2" x1="730.14" y1="281.43" x2="731.39" y2="282.14"/><line class="cls-2" x1="553.61" y1="178.3" x2="554.77" y2="176.35"/><line class="cls-2" x1="733.61" y1="278.49" x2="731.66" y2="281.78"/><polyline class="cls-2" points="729.61 285.52 729.7 285.79 729.88 285.88 730.14 285.79"/><line class="cls-2" x1="730.14" y1="285.79" x2="729.61" y2="285.52"/><line class="cls-2" x1="729.61" y1="285.52" x2="729.61" y2="283.83"/><line class="cls-2" x1="732.55" y1="281.7" x2="734.33" y2="282.67"/><polyline class="cls-2" points="734.33 282.67 734.5 282.67 734.59 282.85"/><line class="cls-2" x1="734.59" y1="283.83" x2="734.59" y2="282.85"/><line class="cls-2" x1="551.57" y1="177.24" x2="551.75" y2="177.24"/><line class="cls-2" x1="551.57" y1="177.24" x2="559.84" y2="181.95"/><line class="cls-2" x1="701.05" y1="263.46" x2="729.97" y2="280.18"/><polyline class="cls-2" points="729.97 280.18 730.14 280.18 730.14 280.36"/><line class="cls-2" x1="730.14" y1="281.43" x2="730.14" y2="280.36"/><polyline class="cls-2" points="734.59 283.83 734.5 284.1 734.33 284.28"/><line class="cls-2" x1="730.32" y1="286.59" x2="734.33" y2="284.28"/><polyline class="cls-2" points="550.77 177.68 550.59 177.86 550.5 178.13"/><line class="cls-2" x1="550.5" y1="178.13" x2="558.42" y2="182.75"/><line class="cls-2" x1="699.63" y1="264.26" x2="728.81" y2="281.07"/><polyline class="cls-2" points="728.81 281.07 728.9 280.89 729.08 280.72"/><line class="cls-2" x1="729.08" y1="280.72" x2="700.16" y2="263.99"/><line class="cls-2" x1="558.95" y1="182.49" x2="550.77" y2="177.68"/><line class="cls-2" x1="550.5" y1="182.75" x2="550.5" y2="178.13"/><line class="cls-2" x1="728.81" y1="285.7" x2="695.62" y2="266.57"/><line class="cls-2" x1="554.5" y1="185.07" x2="550.5" y2="182.75"/><line class="cls-2" x1="728.81" y1="281.07" x2="728.81" y2="285.7"/><polyline class="cls-2" points="730.32 286.59 729.88 286.77 729.43 286.77 729.08 286.59 728.9 286.23 728.81 285.7"/><polyline class="cls-2" points="550.5 182.75 550.5 183.2 550.68 183.55 550.94 183.73"/><polyline class="cls-2" points="730.14 285.79 731.57 284.99 729.61 283.83 731.57 282.76 731.57 284.99"/><polyline class="cls-2" points="734.33 282.67 733.35 283.3 732.19 282.59"/><polyline class="cls-2" points="733.35 283.3 733.35 284.01 732.19 283.39"/><line class="cls-2" x1="733.35" y1="284.01" x2="732.19" y2="284.72"/><polyline class="cls-2" points="731.39 282.14 729.52 283.21 729.52 281.87 730.14 281.43"/><line class="cls-2" x1="550.77" y1="177.68" x2="551.57" y2="177.24"/><line class="cls-2" x1="729.97" y1="280.18" x2="729.08" y2="280.72"/><polyline class="cls-2" points="738.33 276.45 738.15 276.45 737.97 276.54"/><line class="cls-2" x1="734.5" y1="278.49" x2="737.97" y2="276.54"/><polyline class="cls-2" points="738.77 275.11 738.77 275.29 738.95 275.47"/><line class="cls-2" x1="740.82" y1="276.54" x2="738.95" y2="275.47"/><polyline class="cls-2" points="740.82 276.54 741 276.54 741.18 276.45"/><line class="cls-2" x1="741.18" y1="276.45" x2="738.77" y2="275.11"/><polyline class="cls-2" points="738.77 272.98 742.96 275.38 741.18 276.45"/><polyline class="cls-2" points="740.38 277.87 740.29 277.69 740.2 277.6"/><line class="cls-2" x1="737.97" y1="276.54" x2="740.38" y2="277.87"/><line class="cls-2" x1="738.33" y1="276.45" x2="740.2" y2="277.6"/><line class="cls-2" x1="741" y1="277.87" x2="742.42" y2="278.67"/><polyline class="cls-2" points="742.42 278.67 742.69 278.49 742.87 278.14 742.87 277.87"/><line class="cls-2" x1="742.87" y1="277.87" x2="741.44" y2="276.98"/><line class="cls-2" x1="742.42" y1="278.67" x2="741" y2="279.56"/><line class="cls-2" x1="738.77" y1="271.29" x2="742.33" y2="273.33"/><polyline class="cls-2" points="742.33 273.33 742.42 273.07 742.6 272.89"/><line class="cls-2" x1="742.6" y1="272.89" x2="738.86" y2="270.75"/><line class="cls-2" x1="743.4" y1="272.35" x2="742.6" y2="272.89"/><line class="cls-2" x1="739.31" y1="269.95" x2="743.4" y2="272.35"/><line class="cls-2" x1="734.24" y1="278.76" x2="737.97" y2="280.89"/><polyline class="cls-2" points="737.97 280.89 737.97 280.63 738.15 280.45"/><line class="cls-2" x1="738.15" y1="280.45" x2="734.68" y2="278.4"/><polyline class="cls-2" points="735.66 277.87 739.22 279.92 738.15 280.45"/><polyline class="cls-2" points="743.4 272.35 743.58 272.35 743.67 272.53"/><line class="cls-2" x1="743.67" y1="277.16" x2="743.67" y2="272.53"/><polyline class="cls-2" points="738.15 282.05 737.97 282.05 737.97 281.87"/><line class="cls-2" x1="737.97" y1="281.87" x2="733.79" y2="279.56"/><line class="cls-2" x1="738.15" y1="282.05" x2="742.16" y2="279.74"/><polyline class="cls-2" points="743.67 277.16 743.58 277.69 743.4 278.31 743.05 278.94 742.69 279.38 742.16 279.74"/><polyline class="cls-2" points="741 279.56 741 277.34 742.87 276.18 742.87 277.87"/><polyline class="cls-2" points="742.33 273.33 742.33 274.4 738.77 272.35"/><polyline class="cls-2" points="742.33 274.4 742.96 274.04 742.96 275.38"/><polyline class="cls-2" points="740.38 277.87 740.38 280.01 736.11 277.6"/><polyline class="cls-2" points="740.38 280.01 739.22 280.72 739.22 279.92"/><line class="cls-2" x1="737.97" y1="280.89" x2="737.97" y2="281.87"/><polyline class="cls-2" points="738.95 270.66 738.77 270.93 738.77 271.2"/><line class="cls-2" x1="738.77" y1="275.11" x2="738.77" y2="271.2"/><polyline class="cls-2" points="737.97 270.66 738.15 270.57 738.33 270.31"/><line class="cls-2" x1="738.33" y1="270.31" x2="734.59" y2="268.17"/><line class="cls-2" x1="734.42" y1="268.62" x2="737.97" y2="270.66"/><line class="cls-2" x1="740.2" y1="267.01" x2="738.33" y2="270.31"/><line class="cls-2" x1="738.69" y1="266.21" x2="740.2" y2="267.01"/><line class="cls-2" x1="560.38" y1="166.56" x2="561.53" y2="164.6"/><polyline class="cls-2" points="740.2 267.01 740.29 266.84 740.38 266.57"/><line class="cls-2" x1="740.38" y1="266.57" x2="739.13" y2="265.86"/><line class="cls-2" x1="740.38" y1="264.43" x2="740.38" y2="266.57"/><polyline class="cls-2" points="741.18 267.01 741 267.19 740.82 267.37"/><line class="cls-2" x1="738.95" y1="270.66" x2="740.82" y2="267.37"/><line class="cls-2" x1="742.42" y1="263.37" x2="742.87" y2="263.63"/><polyline class="cls-2" points="742.87 263.63 742.87 263.46 742.69 263.28 742.42 263.37"/><polyline class="cls-2" points="742.87 263.63 742.87 265.32 741 264.17"/><line class="cls-2" x1="559.66" y1="163.53" x2="559.58" y2="163.36"/><polyline class="cls-2" points="738.15 266.48 737.97 266.48 737.89 266.3"/><line class="cls-2" x1="737.89" y1="266.3" x2="716.98" y2="254.29"/><line class="cls-2" x1="706.83" y1="248.42" x2="705.68" y2="247.71"/><line class="cls-2" x1="587.96" y1="179.73" x2="586.8" y2="179.11"/><line class="cls-2" x1="575.77" y1="172.7" x2="559.58" y2="163.36"/><line class="cls-2" x1="737.89" y1="265.32" x2="737.89" y2="266.3"/><line class="cls-2" x1="559.58" y1="162.38" x2="576.66" y2="172.25"/><line class="cls-2" x1="588.58" y1="179.11" x2="589.38" y2="179.55"/><line class="cls-2" x1="707.46" y1="247.8" x2="708.26" y2="248.24"/><line class="cls-2" x1="717.87" y1="253.76" x2="737.89" y2="265.32"/><line class="cls-2" x1="559.58" y1="163.36" x2="559.58" y2="162.38"/><polyline class="cls-2" points="742.6 268.97 742.42 268.97 742.33 268.88"/><line class="cls-2" x1="742.33" y1="268.88" x2="740.55" y2="267.82"/><polyline class="cls-2" points="741.18 267.01 742.33 267.73 742.33 268.88"/><polyline class="cls-2" points="559.84 161.93 559.66 162.11 559.58 162.38"/><polyline class="cls-2" points="737.89 265.32 737.97 265.06 738.15 264.88"/><line class="cls-2" x1="738.15" y1="264.88" x2="718.31" y2="253.49"/><line class="cls-2" x1="577.19" y1="171.99" x2="559.84" y2="161.93"/><line class="cls-2" x1="742.16" y1="262.57" x2="738.15" y2="264.88"/><line class="cls-2" x1="563.85" y1="159.62" x2="581.2" y2="169.58"/><line class="cls-2" x1="722.4" y1="251.18" x2="742.16" y2="262.57"/><line class="cls-2" x1="559.84" y1="161.93" x2="563.85" y2="159.62"/><polyline class="cls-2" points="743.67 268.08 743.58 268.35 743.4 268.53"/><line class="cls-2" x1="743.67" y1="268.08" x2="743.67" y2="263.46"/><polyline class="cls-2" points="742.16 262.57 742.69 262.39 743.05 262.39 743.4 262.57 743.58 262.92 743.67 263.46"/><polyline class="cls-2" points="564.91 159.53 564.56 159.44 564.2 159.44 563.85 159.62"/><polyline class="cls-2" points="742.87 265.32 741 266.48 741 264.17 742.42 263.37"/><polyline class="cls-2" points="738.15 266.48 739.13 265.95 739.13 265.15 740.38 264.43"/><line class="cls-2" x1="741.18" y1="267.01" x2="742.96" y2="265.95"/><polyline class="cls-2" points="742.96 265.95 742.96 267.28 741.8 266.66"/><line class="cls-2" x1="742.96" y1="267.28" x2="742.33" y2="267.73"/><line class="cls-2" x1="742.6" y1="268.97" x2="743.4" y2="268.53"/><line class="cls-2" x1="734.5" y1="282.67" x2="732.64" y2="281.61"/><line class="cls-2" x1="730.14" y1="280.18" x2="701.14" y2="263.46"/><line class="cls-2" x1="559.93" y1="181.86" x2="551.75" y2="177.24"/><line class="cls-2" x1="550.94" y1="183.73" x2="553.88" y2="185.42"/><line class="cls-2" x1="695" y1="266.93" x2="729.25" y2="286.68"/><line class="cls-2" x1="743.58" y1="272.35" x2="739.4" y2="269.86"/><line class="cls-2" x1="737.97" y1="282.05" x2="733.79" y2="279.65"/><line class="cls-2" x1="737.97" y1="266.48" x2="716.89" y2="254.29"/><line class="cls-2" x1="706.65" y1="248.42" x2="705.59" y2="247.8"/><line class="cls-2" x1="587.78" y1="179.73" x2="586.62" y2="179.11"/><line class="cls-2" x1="575.68" y1="172.79" x2="559.66" y2="163.53"/><line class="cls-2" x1="742.42" y1="268.97" x2="740.55" y2="267.9"/><line class="cls-2" x1="564.91" y1="159.53" x2="581.82" y2="169.23"/><line class="cls-2" x1="723.03" y1="250.82" x2="743.22" y2="262.48"/><polyline class="cls-2" points="734.24 272.71 734.33 272.71 734.5 272.62"/><line class="cls-2" x1="734.5" y1="272.62" x2="732.19" y2="271.29"/><polyline class="cls-2" points="733.7 274.04 733.7 273.87 733.61 273.78"/><line class="cls-2" x1="731.39" y1="272.71" x2="733.7" y2="274.04"/><polyline class="cls-2" points="731.66 272.71 731.57 272.62 731.39 272.71"/><polyline class="cls-2" points="732.19 271.29 732.19 271.46 732.28 271.64"/><polyline class="cls-2" points="730.14 270.48 729.88 270.66 729.7 271.02 729.61 271.29"/><polyline class="cls-2" points="730.14 275.91 730.14 276.09 729.97 276.36"/><polyline class="cls-2" points="734.59 268.26 734.5 268.53 734.33 268.71"/><polyline class="cls-2" points="734.33 267.1 734.5 267.1 734.59 267.28"/><polyline class="cls-2" points="729.08 276.8 728.9 276.8 728.81 276.71"/><line class="cls-2" x1="550.59" y1="173.86" x2="550.5" y2="173.68"/><line class="cls-2" x1="728.81" y1="276.71" x2="703.45" y2="262.03"/><line class="cls-2" x1="562.33" y1="180.53" x2="550.5" y2="173.68"/><line class="cls-2" x1="556.02" y1="164.16" x2="556.19" y2="164.16"/><line class="cls-2" x1="556.02" y1="164.16" x2="573.28" y2="174.12"/><line class="cls-2" x1="714.48" y1="255.71" x2="734.33" y2="267.1"/><line class="cls-2" x1="728.9" y1="276.8" x2="703.36" y2="262.12"/><line class="cls-2" x1="562.16" y1="180.62" x2="550.59" y2="173.86"/><line class="cls-2" x1="734.5" y1="267.1" x2="714.57" y2="255.63"/><line class="cls-2" x1="573.46" y1="174.12" x2="556.19" y2="164.16"/><polyline class="cls-2" points="728.81 272 728.9 271.46 729.08 270.84 729.43 270.31 729.88 269.77 730.32 269.42"/><line class="cls-2" x1="550.5" y1="169.05" x2="566.34" y2="178.22"/><line class="cls-2" x1="707.54" y1="259.72" x2="728.81" y2="272"/><line class="cls-2" x1="730.32" y1="269.42" x2="710.48" y2="258.03"/><line class="cls-2" x1="569.27" y1="176.53" x2="551.92" y2="166.47"/><polyline class="cls-2" points="551.92 166.47 551.48 166.83 551.12 167.27 550.77 167.89 550.59 168.52 550.5 169.05"/><polyline class="cls-2" points="829.18 220.92 829.26 220.39 829.53 219.77 829.89 219.23 830.42 218.79 830.87 218.61 831.22 218.7 831.49 219.06 831.58 219.5 831.49 220.12 831.22 220.75 830.87 221.28 830.42 221.64 829.89 221.81 829.53 221.73 829.26 221.46 829.18 220.92"/><line class="cls-2" x1="832.11" y1="216.3" x2="828.64" y2="218.34"/><line class="cls-2" x1="825.79" y1="218.34" x2="827.75" y2="219.41"/><line class="cls-2" x1="823.66" y1="219.41" x2="825.44" y2="218.34"/><line class="cls-2" x1="828.29" y1="218.34" x2="826.42" y2="217.28"/><line class="cls-2" x1="824.28" y1="216.12" x2="825.71" y2="215.32"/><line class="cls-2" x1="823.21" y1="222.44" x2="824.1" y2="221.99"/><line class="cls-2" x1="823.75" y1="218.61" x2="823.75" y2="217.01"/><polyline class="cls-2" points="825.71 215.32 825.71 217.54 823.75 218.61"/><line class="cls-2" x1="827.84" y1="219.77" x2="827.84" y2="223.68"/><polyline class="cls-2" points="826.33 216.92 826.33 214.79 827.48 214.16 827.48 214.96 828.46 214.34"/><line class="cls-2" x1="828.73" y1="213.9" x2="828.73" y2="212.92"/><line class="cls-2" x1="828.46" y1="212.74" x2="824.46" y2="215.05"/><line class="cls-2" x1="822.95" y1="217.63" x2="822.95" y2="222.35"/><polyline class="cls-2" points="824.28 221.55 824.28 220.39 823.66 220.75 823.66 219.41"/><line class="cls-2" x1="827.48" y1="214.96" x2="826.77" y2="214.52"/><line class="cls-2" x1="644.64" y1="119.4" x2="644.64" y2="114.69"/><line class="cls-2" x1="646.06" y1="112.11" x2="650.07" y2="109.79"/><line class="cls-2" x1="825.71" y1="217.54" x2="823.93" y2="216.48"/><line class="cls-2" x1="824.28" y1="220.39" x2="823.66" y2="220.03"/><polyline class="cls-2" points="827.75 224.13 827.84 223.95 827.84 223.68"/><line class="cls-2" x1="827.84" y1="223.68" x2="824.28" y2="221.64"/><line class="cls-2" x1="824.01" y1="221.99" x2="827.75" y2="224.13"/><polyline class="cls-2" points="828.64 224.13 828.46 224.31 828.29 224.48"/><line class="cls-2" x1="826.42" y1="227.78" x2="828.29" y2="224.48"/><polyline class="cls-2" points="826.42 227.78 826.33 228.04 826.33 228.31"/><line class="cls-2" x1="826.33" y1="230.36" x2="826.33" y2="228.31"/><polyline class="cls-2" points="825.44 227.78 825.71 227.69 825.79 227.42"/><line class="cls-2" x1="825.79" y1="227.42" x2="824.28" y2="226.53"/><line class="cls-2" x1="824.28" y1="227.15" x2="825.44" y2="227.78"/><line class="cls-2" x1="647.75" y1="123.94" x2="648.91" y2="121.98"/><line class="cls-2" x1="827.75" y1="224.13" x2="825.79" y2="227.42"/><polyline class="cls-2" points="823.75 231.16 823.84 231.42 824.01 231.51 824.28 231.42"/><line class="cls-2" x1="824.28" y1="231.42" x2="823.75" y2="231.16"/><line class="cls-2" x1="823.75" y1="231.16" x2="823.75" y2="229.56"/><line class="cls-2" x1="826.68" y1="227.33" x2="828.46" y2="228.4"/><polyline class="cls-2" points="828.46 228.4 828.64 228.31 828.73 228.49"/><line class="cls-2" x1="828.73" y1="229.47" x2="828.73" y2="228.49"/><line class="cls-2" x1="645.71" y1="122.87" x2="645.88" y2="122.87"/><line class="cls-2" x1="645.71" y1="122.87" x2="653.98" y2="127.59"/><line class="cls-2" x1="713.42" y1="161.93" x2="735.66" y2="174.83"/><line class="cls-2" x1="795.1" y1="209.09" x2="824.1" y2="225.82"/><polyline class="cls-2" points="824.1 225.82 824.28 225.82 824.28 226"/><line class="cls-2" x1="824.28" y1="227.15" x2="824.28" y2="226"/><polyline class="cls-2" points="828.73 229.47 828.64 229.73 828.46 229.91"/><line class="cls-2" x1="824.46" y1="232.22" x2="828.46" y2="229.91"/><polyline class="cls-2" points="644.82 123.41 644.64 123.58 644.64 123.76"/><line class="cls-2" x1="644.64" y1="123.76" x2="652.56" y2="128.39"/><line class="cls-2" x1="711.99" y1="162.73" x2="734.33" y2="175.64"/><line class="cls-2" x1="793.76" y1="209.89" x2="822.95" y2="226.8"/><polyline class="cls-2" points="822.95 226.8 823.04 226.53 823.21 226.35"/><line class="cls-2" x1="823.21" y1="226.35" x2="794.3" y2="209.62"/><line class="cls-2" x1="734.86" y1="175.28" x2="712.53" y2="162.47"/><line class="cls-2" x1="653.09" y1="128.12" x2="644.82" y2="123.41"/><line class="cls-2" x1="644.64" y1="128.39" x2="644.64" y2="123.76"/><line class="cls-2" x1="822.95" y1="231.42" x2="789.76" y2="212.2"/><line class="cls-2" x1="730.32" y1="177.95" x2="707.99" y2="165.05"/><line class="cls-2" x1="648.55" y1="130.7" x2="644.64" y2="128.39"/><line class="cls-2" x1="822.95" y1="226.8" x2="822.95" y2="231.42"/><polyline class="cls-2" points="824.46 232.22 824.01 232.4 823.57 232.4 823.21 232.22 823.04 231.87 822.95 231.42"/><polyline class="cls-2" points="644.64 128.39 644.64 128.83 644.82 129.19 645.08 129.37"/><polyline class="cls-2" points="824.28 231.42 825.71 230.62 823.75 229.56 825.71 228.4 825.71 230.62"/><polyline class="cls-2" points="828.46 228.4 827.48 228.93 826.33 228.22"/><polyline class="cls-2" points="827.48 228.93 827.48 229.73 826.33 229.02"/><line class="cls-2" x1="827.48" y1="229.73" x2="826.33" y2="230.36"/><polyline class="cls-2" points="825.44 227.78 823.66 228.84 823.66 227.51 824.28 227.15"/><line class="cls-2" x1="644.82" y1="123.41" x2="645.71" y2="122.87"/><line class="cls-2" x1="824.1" y1="225.82" x2="823.21" y2="226.35"/><polyline class="cls-2" points="832.47 222.17 832.29 222.08 832.11 222.17"/><line class="cls-2" x1="828.64" y1="224.13" x2="832.11" y2="222.17"/><polyline class="cls-2" points="832.91 220.75 832.91 220.92 833.09 221.1"/><line class="cls-2" x1="834.96" y1="222.17" x2="833.09" y2="221.1"/><polyline class="cls-2" points="834.96 222.17 835.14 222.17 835.31 222.17"/><line class="cls-2" x1="835.31" y1="222.17" x2="832.91" y2="220.75"/><polyline class="cls-2" points="832.91 218.61 837.09 221.1 835.31 222.17"/><polyline class="cls-2" points="834.43 223.5 834.43 223.33 834.34 223.24"/><line class="cls-2" x1="832.11" y1="222.17" x2="834.43" y2="223.5"/><line class="cls-2" x1="832.47" y1="222.17" x2="834.34" y2="223.24"/><line class="cls-2" x1="835.05" y1="223.5" x2="836.56" y2="224.39"/><polyline class="cls-2" points="836.56 224.39 836.74 224.13 836.92 223.86 837.01 223.5"/><line class="cls-2" x1="837.01" y1="223.5" x2="835.58" y2="222.7"/><line class="cls-2" x1="836.56" y1="224.39" x2="835.05" y2="225.2"/><line class="cls-2" x1="832.91" y1="216.92" x2="836.47" y2="218.97"/><polyline class="cls-2" points="836.47 218.97 836.56 218.7 836.74 218.52"/><line class="cls-2" x1="836.74" y1="218.52" x2="833" y2="216.39"/><line class="cls-2" x1="837.54" y1="217.99" x2="836.74" y2="218.52"/><line class="cls-2" x1="833.45" y1="215.67" x2="837.54" y2="217.99"/><line class="cls-2" x1="828.37" y1="224.39" x2="832.02" y2="226.53"/><polyline class="cls-2" points="832.02 226.53 832.11 226.35 832.29 226.17"/><line class="cls-2" x1="832.29" y1="226.17" x2="828.73" y2="224.13"/><polyline class="cls-2" points="829.8 223.5 833.27 225.55 832.29 226.17"/><polyline class="cls-2" points="837.54 217.99 837.72 217.99 837.81 218.17"/><line class="cls-2" x1="837.81" y1="222.79" x2="837.81" y2="218.17"/><polyline class="cls-2" points="832.29 227.69 832.11 227.69 832.02 227.6"/><line class="cls-2" x1="832.02" y1="227.6" x2="827.93" y2="225.2"/><line class="cls-2" x1="832.29" y1="227.69" x2="836.29" y2="225.37"/><polyline class="cls-2" points="837.81 222.79 837.72 223.42 837.54 223.95 837.18 224.57 836.83 225.02 836.29 225.37"/><polyline class="cls-2" points="835.05 225.2 835.05 222.97 837.01 221.81 837.01 223.5"/><polyline class="cls-2" points="836.47 218.97 836.47 220.12 832.91 218.08"/><polyline class="cls-2" points="836.47 220.12 837.09 219.68 837.09 221.1"/><polyline class="cls-2" points="834.43 223.5 834.43 225.64 830.24 223.24"/><polyline class="cls-2" points="834.43 225.64 833.27 226.35 833.27 225.55"/><line class="cls-2" x1="832.02" y1="226.53" x2="832.02" y2="227.6"/><polyline class="cls-2" points="833.09 216.3 832.91 216.56 832.91 216.83"/><line class="cls-2" x1="832.91" y1="220.75" x2="832.91" y2="216.83"/><polyline class="cls-2" points="832.11 216.3 832.29 216.21 832.47 215.94"/><line class="cls-2" x1="832.47" y1="215.94" x2="828.73" y2="213.81"/><line class="cls-2" x1="828.55" y1="214.25" x2="832.11" y2="216.3"/><line class="cls-2" x1="834.34" y1="212.74" x2="832.47" y2="215.94"/><line class="cls-2" x1="832.82" y1="211.85" x2="834.34" y2="212.74"/><line class="cls-2" x1="654.51" y1="112.28" x2="655.67" y2="110.24"/><polyline class="cls-2" points="834.34 212.74 834.43 212.47 834.43 212.2"/><line class="cls-2" x1="834.43" y1="212.2" x2="833.27" y2="211.49"/><line class="cls-2" x1="834.43" y1="210.07" x2="834.43" y2="212.2"/><polyline class="cls-2" points="835.31 212.65 835.14 212.83 834.96 213.09"/><line class="cls-2" x1="833.09" y1="216.3" x2="834.96" y2="213.09"/><line class="cls-2" x1="836.56" y1="209" x2="837.01" y2="209.36"/><polyline class="cls-2" points="837.01 209.36 836.92 209.09 836.74 209 836.56 209"/><polyline class="cls-2" points="837.01 209.36 837.01 210.96 835.05 209.89"/><line class="cls-2" x1="653.8" y1="109.17" x2="653.71" y2="108.99"/><polyline class="cls-2" points="832.29 212.12 832.11 212.12 832.02 212.03"/><line class="cls-2" x1="832.02" y1="212.03" x2="811.11" y2="199.93"/><line class="cls-2" x1="800.97" y1="194.05" x2="799.81" y2="193.43"/><line class="cls-2" x1="682.1" y1="125.45" x2="680.94" y2="124.74"/><line class="cls-2" x1="669.91" y1="118.42" x2="653.71" y2="108.99"/><line class="cls-2" x1="832.02" y1="210.96" x2="832.02" y2="212.03"/><line class="cls-2" x1="653.71" y1="108.01" x2="670.8" y2="117.89"/><line class="cls-2" x1="682.72" y1="124.74" x2="683.52" y2="125.19"/><line class="cls-2" x1="801.59" y1="193.43" x2="802.39" y2="193.88"/><line class="cls-2" x1="812" y1="199.39" x2="832.02" y2="210.96"/><line class="cls-2" x1="653.71" y1="108.99" x2="653.71" y2="108.01"/><polyline class="cls-2" points="836.74 214.7 836.56 214.7 836.47 214.52"/><line class="cls-2" x1="836.47" y1="214.52" x2="834.69" y2="213.45"/><polyline class="cls-2" points="835.31 212.65 836.47 213.36 836.47 214.52"/><polyline class="cls-2" points="653.98 107.57 653.8 107.75 653.71 108.01"/><polyline class="cls-2" points="832.02 210.96 832.11 210.78 832.29 210.6"/><line class="cls-2" x1="832.29" y1="210.6" x2="812.45" y2="199.13"/><line class="cls-2" x1="671.33" y1="117.62" x2="653.98" y2="107.57"/><line class="cls-2" x1="836.29" y1="208.2" x2="832.29" y2="210.6"/><line class="cls-2" x1="657.98" y1="105.25" x2="675.33" y2="115.31"/><line class="cls-2" x1="816.54" y1="196.81" x2="836.29" y2="208.2"/><line class="cls-2" x1="653.98" y1="107.57" x2="657.98" y2="105.25"/><polyline class="cls-2" points="837.81 213.72 837.72 213.98 837.54 214.16"/><line class="cls-2" x1="837.81" y1="213.72" x2="837.81" y2="209.09"/><polyline class="cls-2" points="836.29 208.2 836.83 208.02 837.18 208.02 837.54 208.2 837.72 208.56 837.81 209.09"/><polyline class="cls-2" points="659.05 105.17 658.7 105.08 658.34 105.08 657.98 105.25"/><polyline class="cls-2" points="837.01 210.96 835.05 212.12 835.05 209.89 836.56 209"/><polyline class="cls-2" points="832.29 212.12 833.27 211.58 833.27 210.78 834.43 210.07"/><line class="cls-2" x1="835.31" y1="212.65" x2="837.09" y2="211.67"/><polyline class="cls-2" points="837.09 211.67 837.09 213.01 835.94 212.29"/><line class="cls-2" x1="837.09" y1="213.01" x2="836.47" y2="213.36"/><line class="cls-2" x1="836.74" y1="214.7" x2="837.54" y2="214.16"/><line class="cls-2" x1="828.64" y1="228.31" x2="826.77" y2="227.24"/><line class="cls-2" x1="824.28" y1="225.82" x2="795.28" y2="209.09"/><line class="cls-2" x1="735.75" y1="174.75" x2="713.51" y2="161.84"/><line class="cls-2" x1="654.07" y1="127.59" x2="645.88" y2="122.87"/><line class="cls-2" x1="645.08" y1="129.37" x2="647.93" y2="131.06"/><line class="cls-2" x1="707.37" y1="165.4" x2="729.7" y2="178.3"/><line class="cls-2" x1="789.14" y1="212.56" x2="823.39" y2="232.4"/><line class="cls-2" x1="837.72" y1="217.99" x2="833.54" y2="215.59"/><line class="cls-2" x1="832.11" y1="227.69" x2="827.93" y2="225.28"/><line class="cls-2" x1="832.11" y1="212.12" x2="811.02" y2="199.93"/><line class="cls-2" x1="800.79" y1="194.05" x2="799.72" y2="193.43"/><line class="cls-2" x1="681.92" y1="125.45" x2="680.76" y2="124.74"/><line class="cls-2" x1="669.82" y1="118.42" x2="653.8" y2="109.17"/><line class="cls-2" x1="836.56" y1="214.7" x2="834.6" y2="213.54"/><line class="cls-2" x1="659.05" y1="105.17" x2="675.96" y2="114.95"/><line class="cls-2" x1="817.16" y1="196.46" x2="837.36" y2="208.11"/><polyline class="cls-2" points="828.29 218.34 828.46 218.34 828.64 218.34"/><line class="cls-2" x1="828.64" y1="218.34" x2="826.33" y2="216.92"/><polyline class="cls-2" points="827.84 219.77 827.84 219.5 827.75 219.41"/><line class="cls-2" x1="825.44" y1="218.34" x2="827.84" y2="219.77"/><polyline class="cls-2" points="825.79 218.34 825.71 218.26 825.44 218.34"/><polyline class="cls-2" points="826.33 216.92 826.33 217.1 826.42 217.28"/><polyline class="cls-2" points="824.28 216.12 824.01 216.39 823.84 216.65 823.75 217.01"/><polyline class="cls-2" points="824.28 221.55 824.28 221.81 824.1 221.99"/><polyline class="cls-2" points="828.73 213.9 828.64 214.16 828.46 214.34"/><polyline class="cls-2" points="828.46 212.74 828.64 212.74 828.73 212.92"/><polyline class="cls-2" points="823.21 222.44 823.04 222.53 822.95 222.35"/><line class="cls-2" x1="644.64" y1="119.49" x2="644.64" y2="119.4"/><line class="cls-2" x1="822.95" y1="222.35" x2="797.59" y2="207.67"/><line class="cls-2" x1="738.15" y1="173.41" x2="715.91" y2="160.51"/><line class="cls-2" x1="656.38" y1="126.16" x2="644.64" y2="119.4"/><line class="cls-2" x1="650.07" y1="109.79" x2="650.24" y2="109.79"/><line class="cls-2" x1="650.07" y1="109.79" x2="667.42" y2="119.85"/><line class="cls-2" x1="808.62" y1="201.35" x2="828.46" y2="212.74"/><line class="cls-2" x1="823.04" y1="222.53" x2="797.5" y2="207.76"/><line class="cls-2" x1="738.06" y1="173.41" x2="715.73" y2="160.6"/><line class="cls-2" x1="656.29" y1="126.25" x2="644.64" y2="119.49"/><line class="cls-2" x1="828.64" y1="212.74" x2="808.71" y2="201.26"/><line class="cls-2" x1="667.5" y1="119.76" x2="650.24" y2="109.79"/><polyline class="cls-2" points="822.95 217.63 823.04 217.1 823.21 216.48 823.57 215.94 824.01 215.41 824.46 215.05"/><line class="cls-2" x1="644.64" y1="114.69" x2="660.48" y2="123.85"/><line class="cls-2" x1="801.68" y1="205.35" x2="822.95" y2="217.63"/><line class="cls-2" x1="824.46" y1="215.05" x2="804.62" y2="203.66"/><line class="cls-2" x1="663.41" y1="122.16" x2="646.06" y2="112.11"/><polyline class="cls-2" points="646.06 112.11 645.62 112.46 645.26 113 644.9 113.53 644.64 114.15 644.64 114.69"/><polyline class="cls-2" points="678.8 124.74 678.18 124.21 677.74 123.67 677.56 123.05 677.65 122.43 678 121.89 678.63 121.36 679.43 121 680.32 120.74 681.38 120.56 682.45 120.56 683.43 120.74 684.32 121.09 685.12 121.54 685.66 122.07 685.92 122.61 685.92 123.23 685.74 123.85 685.21 124.38 684.5 124.83 683.7 125.19 682.72 125.36 681.65 125.45 680.58 125.36 679.61 125.1 678.8 124.74"/><polyline class="cls-2" points="683.7 125.19 683.88 124.74 683.7 124.3 683.34 123.94 682.81 123.67 682.1 123.49 681.38 123.49 680.67 123.67 680.14 123.94 679.78 124.3 679.69 124.74 679.78 125.19"/><polyline class="cls-2" points="683.52 125.19 683.08 124.92 682.45 124.74 681.74 124.65 681.12 124.74 680.5 124.92 679.96 125.19"/><polyline class="cls-2" points="797.68 193.34 797.05 192.9 796.61 192.36 796.43 191.74 796.52 191.12 796.88 190.58 797.5 190.05 798.3 189.6 799.19 189.34 800.26 189.25 801.33 189.25 802.3 189.43 803.19 189.69 803.99 190.14 804.53 190.67 804.8 191.3 804.88 191.83 804.62 192.45 804.17 192.99 803.46 193.43 802.57 193.79 801.59 194.05 800.52 194.05 799.46 193.96 798.48 193.7 797.68 193.34"/><polyline class="cls-2" points="802.66 193.79 802.75 193.34 802.66 192.99 802.3 192.54 801.68 192.27 801.06 192.19 800.26 192.19 799.64 192.27 799.01 192.54 798.66 192.99 798.57 193.34 798.66 193.79"/><polyline class="cls-2" points="802.39 193.88 801.95 193.52 801.33 193.34 800.61 193.25 799.99 193.34 799.37 193.52 798.92 193.88"/><polyline class="cls-2" points="703.54 247.71 702.92 247.26 702.47 246.64 702.29 246.11 702.47 245.48 702.83 244.86 703.36 244.41 704.16 243.97 705.14 243.7 706.12 243.61 707.19 243.61 708.17 243.79 709.15 244.06 709.86 244.5 710.39 245.04 710.66 245.57 710.75 246.19 710.48 246.82 710.04 247.35 709.32 247.8 708.43 248.15 707.46 248.33 706.39 248.42 705.32 248.33 704.43 248.06 703.54 247.71"/><polyline class="cls-2" points="708.52 248.15 708.61 247.71 708.52 247.26 708.17 246.91 707.54 246.64 706.92 246.55 706.12 246.55 705.5 246.64 704.87 246.91 704.52 247.26 704.43 247.71 704.61 248.15"/><polyline class="cls-2" points="708.26 248.15 707.81 247.88 707.19 247.71 706.57 247.62 705.85 247.71 705.23 247.88 704.79 248.15"/><polyline class="cls-2" points="584.67 179.02 584.04 178.57 583.6 178.04 583.42 177.41 583.51 176.79 583.87 176.26 584.49 175.72 585.29 175.37 586.18 175.1 587.25 174.92 588.32 174.92 589.29 175.1 590.18 175.46 590.98 175.81 591.52 176.35 591.79 176.97 591.79 177.59 591.61 178.13 591.07 178.75 590.45 179.19 589.56 179.46 588.58 179.73 587.51 179.73 586.45 179.64 585.47 179.46 584.67 179.02"/><polyline class="cls-2" points="589.56 179.46 589.74 179.11 589.65 178.66 589.29 178.3 588.67 178.04 587.96 177.86 587.25 177.86 586.54 178.04 586 178.3 585.65 178.66 585.56 179.11 585.65 179.46"/><polyline class="cls-2" points="589.38 179.55 588.94 179.28 588.32 179.02 587.6 179.02 586.98 179.02 586.36 179.28 585.82 179.55"/><polyline class="cls-2" points="555.39 207.4 553.61 206.15 551.92 204.91 550.5 203.57 549.34 202.15 548.45 200.64 547.74 199.13 547.39 197.52 547.21 195.92 547.39 194.32 547.74 192.81 548.45 191.21 549.34 189.78 550.5 188.27 551.92 186.94 553.61 185.69 555.39 184.53"/><polyline class="cls-2" points="547.21 198.77 547.39 200.37 547.74 201.97 548.45 203.49 549.34 205 550.5 206.42 551.92 207.76 553.61 209.09 555.39 210.25"/><line class="cls-2" x1="555.39" y1="210.25" x2="555.39" y2="207.4"/><line class="cls-2" x1="654.51" y1="264.61" x2="654.51" y2="267.46"/><polyline class="cls-2" points="654.51 267.46 656.56 268.53 658.78 269.42 661.1 270.31 663.59 270.93 666.17 271.46 668.84 271.91 671.6 272.09 674.36 272.18 677.11 272.09 679.78 271.91 682.45 271.46 685.03 270.93 687.52 270.31 689.93 269.42 692.15 268.53 694.11 267.46"/><polyline class="cls-2" points="694.11 264.61 692.15 265.68 689.93 266.57 687.52 267.37 685.03 268.08 682.45 268.62 679.78 268.97 677.11 269.24 674.36 269.33 671.6 269.24 668.84 268.97 666.17 268.62 663.59 268.08 661.1 267.37 658.78 266.57 656.56 265.68 654.51 264.61"/><line class="cls-2" x1="694.11" y1="267.46" x2="694.11" y2="264.61"/><line class="cls-2" x1="547.21" y1="198.77" x2="547.21" y2="195.92"/><line class="cls-2" x1="555.39" y1="210.25" x2="654.51" y2="267.46"/><line class="cls-2" x1="555.39" y1="207.4" x2="654.51" y2="264.61"/><line class="cls-2" x1="694.11" y1="267.46" x2="817.96" y2="195.92"/><polyline class="cls-2" points="817.96 195.92 817.96 193.07 679.25 113"/><line class="cls-2" x1="694.11" y1="264.61" x2="817.96" y2="193.07"/><line class="cls-2" x1="679.25" y1="113" x2="555.39" y2="184.53"/><polyline class="cls-2" points="741.18 171.63 718.93 158.73 691.71 174.48"/><polyline class="cls-2" points="718.93 158.73 718.93 155.88 743.67 170.21 713.95 187.38"/><polyline class="cls-2" points="713.95 187.38 689.21 173.06 718.93 155.88"/><line class="cls-1" x1="398.99" y1="205.73" x2="470.54" y2="205.73"/><polygon points="468.29 208.69 469.55 205.73 468.29 202.76 475.31 205.73 468.29 208.69"/></svg>