<?xml version="1.0" encoding="UTF-8"?><svg id="Layer_1" xmlns="http://www.w3.org/2000/svg" viewBox="0 0 842.304348 408.246377"><line x1="274.856938" y1="168.554596" x2="274.856938" y2="245.428803" style="fill:none; stroke:#d2155b; stroke-dasharray:3 3; stroke-linecap:round; stroke-linejoin:round; stroke-width:.75px;"/><polygon points="272.079594 243.322358 274.856938 244.502289 277.634312 243.322358 274.856938 249.906098 272.079594 243.322358" style="fill:#d2155b;"/><polyline points="419.41147 177.752717 271.266291 92.165822 271.266291 96.155004 419.41147 181.56064 419.41147 177.752717" style="fill:none; stroke:#000; stroke-linecap:round; stroke-linejoin:round; stroke-width:.25px;"/><polyline points="271.266291 92.165822 419.41147 6.760186 567.375327 92.165822 567.375327 96.155004" style="fill:none; stroke:#000; stroke-linecap:round; stroke-linejoin:round; stroke-width:.25px;"/><line x1="567.375327" y1="92.165822" x2="419.41147" y2="177.752717" style="fill:none; stroke:#000; stroke-linecap:round; stroke-linejoin:round; stroke-width:.25px;"/><line x1="419.41147" y1="181.56064" x2="567.375327" y2="96.155004" style="fill:none; stroke:#000; stroke-linecap:round; stroke-linejoin:round; stroke-width:.25px;"/><line x1="563.638798" y1="174.710785" x2="563.638798" y2="251.584992" style="fill:none; stroke:#d2155b; stroke-dasharray:3 3; stroke-linecap:round; stroke-linejoin:round; stroke-width:.75px;"/><polygon points="560.861455 249.478547 563.638798 250.658478 566.416203 249.478547 563.638798 256.062287 560.861455 249.478547" style="fill:#d2155b;"/><polyline points="317.98406 313.124545 401.5057 264.929279 401.5057 263.289106 316.596165 312.367582 330.97907 320.694522 416.014808 271.616046" style="fill:none; stroke:#000; stroke-linecap:round; stroke-linejoin:round; stroke-width:.25px;"/><line x1="401.5057" y1="264.929279" x2="414.500796" y2="272.373053" style="fill:none; stroke:#000; stroke-linecap:round; stroke-linejoin:round; stroke-width:.25px;"/><line x1="401.5057" y1="263.289106" x2="416.014808" y2="271.616046" style="fill:none; stroke:#000; stroke-linecap:round; stroke-linejoin:round; stroke-width:.25px;"/><line x1="493.228163" y1="317.792701" x2="506.223258" y2="325.362635" style="fill:none; stroke:#000; stroke-linecap:round; stroke-linejoin:round; stroke-width:.25px;"/><polyline points="409.580319 366.11417 493.228163 317.792701 493.228163 316.278688 507.611067 324.479468" style="fill:none; stroke:#000; stroke-linecap:round; stroke-linejoin:round; stroke-width:.25px;"/><polyline points="507.611067 324.479468 422.575415 373.557944 408.19251 365.357164 493.228163 316.278688" style="fill:none; stroke:#000; stroke-linecap:round; stroke-linejoin:round; stroke-width:.25px;"/><polyline points="264.615953 318.423504 264.615953 320.063677 412.103616 405.225532 412.103616 403.585359 264.615953 318.423504 412.103616 233.261648 559.591365 318.423504 559.591365 320.063677 412.103616 405.225532" style="fill:none; stroke:#000; stroke-linecap:round; stroke-linejoin:round; stroke-width:.25px;"/><line x1="412.103616" y1="403.585359" x2="559.591365" y2="318.423504" style="fill:none; stroke:#000; stroke-linecap:round; stroke-linejoin:round; stroke-width:.25px;"/></svg>