<?xml version="1.0" encoding="UTF-8"?><svg id="Layer_1" xmlns="http://www.w3.org/2000/svg" viewBox="0 0 842.304348 337.231884"><polyline points="506.589488 3.76087 642.245587 82.124452 642.245587 115.733713" style="fill:none; stroke:#000; stroke-linecap:round; stroke-linejoin:round; stroke-width:.25px;"/><polyline points="642.245587 82.124452 638.936919 84.039988 638.936919 117.475173 642.245587 115.733713" style="fill:none; stroke:#000; stroke-linecap:round; stroke-linejoin:round; stroke-width:.25px;"/><polyline points="638.936919 84.039988 503.28082 5.676405 503.28082 39.11159 638.936919 117.475173" style="fill:none; stroke:#000; stroke-linecap:round; stroke-linejoin:round; stroke-width:.25px;"/><line x1="503.28082" y1="5.676405" x2="506.589488" y2="3.76087" style="fill:none; stroke:#000; stroke-linecap:round; stroke-linejoin:round; stroke-width:.25px;"/><polyline points="435.752622 63.346231 435.752622 96.894323 542.133103 158.428117" style="fill:none; stroke:#000; stroke-linecap:round; stroke-linejoin:round; stroke-width:.25px;"/><line x1="574.464473" y1="139.655084" x2="571.161768" y2="141.567133" style="fill:none; stroke:#000; stroke-linecap:round; stroke-linejoin:round; stroke-width:.25px;"/><line x1="435.752622" y1="63.346231" x2="435.752622" y2="63.346231" style="fill:none; stroke:#000; stroke-linecap:round; stroke-linejoin:round; stroke-width:.25px;"/><polyline points="432.449976 255.248293 432.449976 221.700201 574.464473 139.655084 577.767119 141.567133 577.767119 175.115283 435.752622 257.160342" style="fill:none; stroke:#000; stroke-linecap:round; stroke-linejoin:round; stroke-width:.25px;"/><polyline points="432.449976 255.248293 435.752622 257.160342 435.752622 223.61225 577.767119 141.567133" style="fill:none; stroke:#000; stroke-linecap:round; stroke-linejoin:round; stroke-width:.25px;"/><line x1="432.449976" y1="221.700201" x2="435.752622" y2="223.61225" style="fill:none; stroke:#000; stroke-linecap:round; stroke-linejoin:round; stroke-width:.25px;"/><polyline points="432.306698 61.346328 435.609344 63.258495 296.866954 143.479241 296.866954 177.027332 435.752622 96.894323" style="fill:none; stroke:#000; stroke-linecap:round; stroke-linejoin:round; stroke-width:.25px;"/><polyline points="296.866954 143.479241 293.564307 141.567133 293.564307 175.115283 296.866954 177.027332" style="fill:none; stroke:#000; stroke-linecap:round; stroke-linejoin:round; stroke-width:.25px;"/><line x1="293.564307" y1="141.567133" x2="432.306698" y2="61.346328" style="fill:none; stroke:#000; stroke-linecap:round; stroke-linejoin:round; stroke-width:.25px;"/><line x1="432.449976" y1="255.248293" x2="297.040771" y2="177.027332" style="fill:none; stroke:#000; stroke-linecap:round; stroke-linejoin:round; stroke-width:.25px;"/><polyline points="435.752622 257.160342 435.752622 260.810682 293.738125 178.939381 293.738125 175.2891" style="fill:none; stroke:#000; stroke-linecap:round; stroke-linejoin:round; stroke-width:.25px;"/><polyline points="435.752622 260.810682 577.593302 178.939381 577.593302 175.2891" style="fill:none; stroke:#000; stroke-linecap:round; stroke-linejoin:round; stroke-width:.25px;"/><line x1="554.246905" y1="96.846979" x2="514.722003" y2="119.666681" style="fill:none; stroke:#d2155b; stroke-linecap:round; stroke-linejoin:round; stroke-width:.75px;"/><polygon points="515.15755 116.208215 515.524371 119.203424 517.934893 121.018732 510.844561 121.905328 515.15755 116.208215" style="fill:#d2155b;"/><polyline points="203.367429 219.756711 339.023528 298.120294 339.023528 331.729554" style="fill:none; stroke:#000; stroke-linecap:round; stroke-linejoin:round; stroke-width:.25px;"/><polyline points="339.023528 298.120294 335.71486 300.035829 335.71486 333.471014 339.023528 331.729554" style="fill:none; stroke:#000; stroke-linecap:round; stroke-linejoin:round; stroke-width:.25px;"/><polyline points="335.71486 300.035829 200.058761 221.672246 200.058761 255.107432 335.71486 333.471014" style="fill:none; stroke:#000; stroke-linecap:round; stroke-linejoin:round; stroke-width:.25px;"/><line x1="200.058761" y1="221.672246" x2="203.367429" y2="219.756711" style="fill:none; stroke:#000; stroke-linecap:round; stroke-linejoin:round; stroke-width:.25px;"/><line x1="303.78554" y1="255.900018" x2="343.310473" y2="233.080286" style="fill:none; stroke:#d2155b; stroke-linecap:round; stroke-linejoin:round; stroke-width:.75px;"/><polygon points="342.874896 236.538782 342.508075 233.543542 340.097552 231.728265 347.187915 230.841638 342.874896 236.538782" style="fill:#d2155b;"/></svg>