<?xml version="1.0" encoding="UTF-8"?><svg id="Layer_1" xmlns="http://www.w3.org/2000/svg" viewBox="0 0 842.304348 408.246377"><line x1="381.867799" y1="66.205428" x2="445.744996" y2="28.472029" style="fill:none; stroke:#d2155b; stroke-dasharray:3 3; stroke-linecap:round; stroke-linejoin:round; stroke-width:.75px;"/><polygon points="445.343934 31.934676 444.947297 28.943251 442.5188 27.152083 449.599946 26.194838 445.343934 31.934676" style="fill:#d2155b;"/><polyline points="579.360824 71.816094 576.794974 73.301644 576.794974 275.866129 579.360824 274.38067 579.360824 71.816094" style="fill:none; stroke:#000; stroke-linecap:round; stroke-linejoin:round; stroke-width:.25px;"/><polyline points="576.794974 73.301644 459.307564 5.510059 459.307564 208.074544 576.794974 275.866129" style="fill:none; stroke:#000; stroke-linecap:round; stroke-linejoin:round; stroke-width:.25px;"/><polyline points="459.307564 5.510059 461.873369 4.024509 579.360824 71.816094" style="fill:none; stroke:#000; stroke-linecap:round; stroke-linejoin:round; stroke-width:.25px;"/><polyline points="376.498663 180.589548 373.977161 179.11142 373.977161 402.743739 376.498663 404.221868 376.498663 180.589548" style="fill:none; stroke:#000; stroke-linecap:round; stroke-linejoin:round; stroke-width:.25px;"/><polyline points="373.977161 179.11142 475.707257 120.420944 478.141842 121.812127 478.141842 345.444476" style="fill:none; stroke:#000; stroke-linecap:round; stroke-linejoin:round; stroke-width:.25px;"/><line x1="478.141842" y1="121.812127" x2="376.498663" y2="180.589548" style="fill:none; stroke:#000; stroke-linecap:round; stroke-linejoin:round; stroke-width:.25px;"/><line x1="376.498663" y1="404.221868" x2="478.141842" y2="345.444476" style="fill:none; stroke:#000; stroke-linecap:round; stroke-linejoin:round; stroke-width:.25px;"/><line x1="362.239078" y1="169.025326" x2="362.239078" y2="172.416339" style="fill:none; stroke:#000; stroke-linecap:round; stroke-linejoin:round; stroke-width:.25px;"/><polyline points="319.894991 273.711708 319.808046 274.75511 319.54721 275.798483 319.112454 276.841885 318.503823 277.798313 317.808231 278.667795 317.025694 279.450332 316.243142 280.058978 315.460605 280.406759 314.678068 280.493734 313.982477 280.406759 313.37383 280.058978 312.939089 279.537277 312.678254 278.841685 312.591293 277.885258" style="fill:none; stroke:#000; stroke-linecap:round; stroke-linejoin:round; stroke-width:.25px;"/><line x1="317.37349" y1="272.320525" x2="319.894991" y2="273.711708" style="fill:none; stroke:#000; stroke-linecap:round; stroke-linejoin:round; stroke-width:.25px;"/><polyline points="312.765199 279.015606 313.46079 278.75474 314.243327 278.320014 314.938919 277.711367 315.634511 276.928831 316.243142 276.059319 316.764843 275.102891 317.112639 274.146464 317.28653 273.190007 317.37349 272.320525" style="fill:none; stroke:#000; stroke-linecap:round; stroke-linejoin:round; stroke-width:.25px;"/><line x1="312.591293" y1="277.885258" x2="312.591293" y2="272.320525" style="fill:none; stroke:#000; stroke-linecap:round; stroke-linejoin:round; stroke-width:.25px;"/><polyline points="312.591293 272.320525 312.678254 271.364097 312.939089 270.320725 313.37383 269.277322 313.982477 268.23395 314.678068 267.364438 315.460605 266.581901 316.243142 266.060229 317.025694 265.712419 317.808231 265.538528 318.503823 265.625474 319.112454 265.973284 319.54721 266.494956 319.808046 267.277493 319.894991 268.147004" style="fill:none; stroke:#000; stroke-linecap:round; stroke-linejoin:round; stroke-width:.25px;"/><polyline points="317.37349 266.755821 317.37349 266.147175 317.28653 265.625474" style="fill:none; stroke:#000; stroke-linecap:round; stroke-linejoin:round; stroke-width:.25px;"/><line x1="317.37349" y1="266.755821" x2="319.894991" y2="268.147004" style="fill:none; stroke:#000; stroke-linecap:round; stroke-linejoin:round; stroke-width:.25px;"/><line x1="319.894991" y1="268.147004" x2="319.894991" y2="273.711708" style="fill:none; stroke:#000; stroke-linecap:round; stroke-linejoin:round; stroke-width:.25px;"/><line x1="317.37349" y1="272.320525" x2="317.37349" y2="266.755821" style="fill:none; stroke:#000; stroke-linecap:round; stroke-linejoin:round; stroke-width:.25px;"/><polyline points="265.46504 116.508259 262.943524 115.03016 262.943524 338.662479 265.46504 340.053663 265.46504 116.508259" style="fill:none; stroke:#000; stroke-linecap:round; stroke-linejoin:round; stroke-width:.25px;"/><polyline points="262.943524 115.03016 364.673634 56.339714 367.195165 57.730897" style="fill:none; stroke:#000; stroke-linecap:round; stroke-linejoin:round; stroke-width:.25px;"/><line x1="367.195165" y1="281.363216" x2="367.195165" y2="253.452634" style="fill:none; stroke:#000; stroke-linecap:round; stroke-linejoin:round; stroke-width:.25px;"/><line x1="367.195165" y1="57.730897" x2="265.46504" y2="116.508259" style="fill:none; stroke:#000; stroke-linecap:round; stroke-linejoin:round; stroke-width:.25px;"/><line x1="265.46504" y1="340.053663" x2="367.195165" y2="281.363216" style="fill:none; stroke:#000; stroke-linecap:round; stroke-linejoin:round; stroke-width:.25px;"/><line x1="478.141842" y1="121.899102" x2="478.141842" y2="317.533923" style="fill:none; stroke:#000; stroke-linecap:round; stroke-linejoin:round; stroke-width:.25px;"/><line x1="367.378922" y1="57.988155" x2="367.378922" y2="253.709951" style="fill:none; stroke:#000; stroke-linecap:round; stroke-linejoin:round; stroke-width:.25px;"/><line x1="493.305787" y1="121.023909" x2="557.182984" y2="83.290511" style="fill:none; stroke:#d2155b; stroke-dasharray:3 3; stroke-linecap:round; stroke-linejoin:round; stroke-width:.75px;"/><polygon points="556.781922 86.753157 556.385255 83.761732 553.956758 81.970564 561.037934 81.013319 556.781922 86.753157" style="fill:#d2155b;"/></svg>