<?xml version="1.0" encoding="UTF-8"?><svg id="Layer_1" xmlns="http://www.w3.org/2000/svg" viewBox="0 0 830.710145 260.42029"><polyline points="415.465614 7.061695 419.66635 4.629702 591.897433 104.121244 587.696622 106.553237 415.465614 7.061695 415.465614 49.732532 550.774181 127.999235" style="fill:none; stroke:#000; stroke-linecap:round; stroke-linejoin:round; stroke-width:.25px;"/><polyline points="411.264878 208.476923 238.812712 108.985306 243.013448 106.553237 415.465614 206.044855 411.264878 208.476923 411.264878 251.14776" style="fill:none; stroke:#000; stroke-linecap:round; stroke-linejoin:round; stroke-width:.25px;"/><polyline points="415.465614 253.579753 596.09817 149.224149 596.09817 106.553237 591.897433 104.121244 411.264878 208.476923 411.264878 251.14776 238.812712 151.656143 238.812712 108.985306" style="fill:none; stroke:#000; stroke-linecap:round; stroke-linejoin:round; stroke-width:.25px;"/><polyline points="411.264878 251.14776 415.465614 253.579753 415.465614 210.908916 596.09817 106.553237" style="fill:none; stroke:#000; stroke-linecap:round; stroke-linejoin:round; stroke-width:.25px;"/><line x1="411.264878" y1="208.476923" x2="415.465614" y2="210.908916" style="fill:none; stroke:#000; stroke-linecap:round; stroke-linejoin:round; stroke-width:.25px;"/><polyline points="415.465614 2.197558 419.66635 4.629702 238.812712 108.985306 238.812712 151.656143" style="fill:none; stroke:#000; stroke-linecap:round; stroke-linejoin:round; stroke-width:.25px;"/><line x1="279.935889" y1="127.999235" x2="415.465614" y2="49.732532" style="fill:none; stroke:#000; stroke-linecap:round; stroke-linejoin:round; stroke-width:.25px;"/><polyline points="238.812712 108.985306 234.611975 106.553237 234.611975 149.224149 238.812712 151.656143" style="fill:none; stroke:#000; stroke-linecap:round; stroke-linejoin:round; stroke-width:.25px;"/><line x1="234.611975" y1="106.553237" x2="415.465614" y2="2.197558" style="fill:none; stroke:#000; stroke-linecap:round; stroke-linejoin:round; stroke-width:.25px;"/><polyline points="415.465614 253.579753 415.465614 258.222731 234.833059 154.088136 234.833059 149.445233" style="fill:none; stroke:#000; stroke-linecap:round; stroke-linejoin:round; stroke-width:.25px;"/><polyline points="415.465614 258.222731 595.877086 154.088136 595.877086 149.445233" style="fill:none; stroke:#000; stroke-linecap:round; stroke-linejoin:round; stroke-width:.25px;"/><path d="M378.339157,120.214773v-7.435547h1.04834l2.382812,3.761719c.55127.871582.981934,1.654785,1.334961,2.416016l.021973-.010742c-.088379-.993164-.110352-1.897461-.110352-3.056152v-3.11084h.904785v7.435547h-.971191l-2.36084-3.772949c-.518555-.827637-1.014648-1.676758-1.390137-2.482422l-.032715.01123c.055176.9375.077148,1.831055.077148,3.066895v3.177246h-.904785Z" style="fill:#1d1d1b;"/><path d="M386.100388,117.721609c.022461,1.3125.86084,1.853516,1.831543,1.853516.694824,0,1.114258-.121582,1.478516-.275879l.165039.694824c-.341797.154297-.92627.331055-1.775879.331055-1.644043,0-2.625488-1.081055-2.625488-2.691895s.94873-2.879395,2.503906-2.879395c1.743164,0,2.206543,1.533691,2.206543,2.515137,0,.19873-.021973.353027-.033203.452637h-3.750977ZM388.947067,117.026296c.010742-.617676-.253906-1.577148-1.346191-1.577148-.981934,0-1.412109.904297-1.489258,1.577148h2.835449Z" style="fill:#1d1d1b;"/><path d="M390.950974,119.222097c.287109.1875.794434.385742,1.279785.385742.706055,0,1.037109-.353027,1.037109-.793945,0-.463379-.275879-.717285-.993164-.981934-.959473-.342285-1.412109-.871582-1.412109-1.511719,0-.860352.695312-1.566406,1.842773-1.566406.540527,0,1.014648.154297,1.3125.331055l-.242676.706055c-.209473-.132324-.595703-.309082-1.092285-.309082-.573242,0-.893555.331055-.893555.728027,0,.441406.320312.640137,1.015137.904785.926758.353027,1.400879.816406,1.400879,1.61084,0,.9375-.728027,1.599609-1.996582,1.599609-.584961,0-1.125488-.143555-1.500488-.364258l.242676-.73877Z" style="fill:#1d1d1b;"/><path d="M396.618454,113.341726v1.533691h1.390137v.73877h-1.390137v2.879395c0,.662109.1875,1.037109.728027,1.037109.253906,0,.441406-.033203.562988-.065918l.043945.728027c-.1875.077148-.485352.132324-.860352.132324-.452637,0-.816406-.143555-1.04834-.408203-.275391-.286621-.375-.76123-.375-1.390137v-2.912598h-.827148v-.73877h.827148v-1.279785l.94873-.253906Z" style="fill:#1d1d1b;"/><path d="M400.179489,113.374929c.010742.331055-.231934.595703-.618164.595703-.341797,0-.584473-.264648-.584473-.595703,0-.342285.253418-.606934.606445-.606934.364258,0,.596191.264648.596191.606934ZM399.097946,120.214773v-5.339355h.971191v5.339355h-.971191Z" style="fill:#1d1d1b;"/><path d="M401.678025,116.320242c0-.55127-.010742-1.003906-.043945-1.444824h.860352l.055176.882324h.021973c.265137-.507324.882812-1.003906,1.765137-1.003906.739258,0,1.886719.441406,1.886719,2.272461v3.188477h-.970703v-3.078125c0-.860352-.320312-1.577637-1.23584-1.577637-.639648,0-1.13623.452637-1.301758.993164-.043945.121094-.065918.286621-.065918.452148v3.210449h-.971191v-3.894531Z" style="fill:#1d1d1b;"/><path d="M412.397263,114.875418c-.021973.385742-.043945.816406-.043945,1.467285v3.099609c0,1.224609-.243164,1.975098-.76123,2.438477-.518555.485352-1.269043.639648-1.941895.639648-.639648,0-1.345703-.154297-1.776367-.441406l.243164-.73877c.353027.220215.904297.418945,1.566406.418945.992676,0,1.720703-.518555,1.720703-1.864258v-.595703h-.021973c-.297852.496094-.871582.893555-1.69873.893555-1.32373,0-2.272461-1.125488-2.272461-2.603516,0-1.80957,1.180176-2.835449,2.404785-2.835449.926758,0,1.434082.485352,1.666016.926758h.021973l.043945-.805176h.849609ZM411.393357,116.982351c0-.165527-.01123-.309082-.055176-.441406-.176758-.5625-.650879-1.025879-1.356934-1.025879-.926758,0-1.588867.783203-1.588867,2.019043,0,1.047852.529785,1.919434,1.577637,1.919434.595703,0,1.13623-.375,1.346191-.992676.055176-.165527.077148-.353027.077148-.518555v-.959961Z" style="fill:#1d1d1b;"/><path d="M416.2957,116.320242c0-.55127-.010742-1.003906-.043945-1.444824h.849609l.044922.860352h.032227c.297852-.507324.794922-.981934,1.677734-.981934.727539,0,1.279297.441406,1.510742,1.070312h.022461c.165039-.297852.375-.529785.595703-.695312.319336-.242676.672852-.375,1.180664-.375.706055,0,1.753906.463379,1.753906,2.316895v3.144043h-.949219v-3.022949c0-1.025879-.375-1.643555-1.158203-1.643555-.551758,0-.981445.408203-1.147461.882324-.043945.132324-.077148.309082-.077148.485352v3.298828h-.948242v-3.199219c0-.849609-.375-1.467285-1.114258-1.467285-.607422,0-1.048828.485352-1.203125.970703-.054688.143555-.077148.309082-.077148.474609v3.221191h-.949219v-3.894531Z" style="fill:#1d1d1b;"/><path d="M428.447067,120.214773l-.077148-.672852h-.033203c-.297852.418945-.871094.794434-1.632812.794434-1.081055,0-1.632812-.76123-1.632812-1.533691,0-1.290527,1.147461-1.996582,3.210938-1.98584v-.110352c0-.441406-.121094-1.235352-1.213867-1.235352-.496094,0-1.014648.154297-1.389648.396973l-.220703-.639648c.441406-.287109,1.081055-.474609,1.753906-.474609,1.632812,0,2.030273,1.114258,2.030273,2.18457v1.996582c0,.463379.021484.915527.087891,1.279785h-.882812ZM428.303513,117.489675c-1.058594-.021973-2.260742.165527-2.260742,1.202637,0,.628906.418945.926758.915039.926758.695312,0,1.136719-.441406,1.291016-.893555.033203-.099609.054688-.209473.054688-.309082v-.926758Z" style="fill:#1d1d1b;"/><path d="M431.930466,113.341726v1.533691h1.390625v.73877h-1.390625v2.879395c0,.662109.1875,1.037109.728516,1.037109.253906,0,.441406-.033203.5625-.065918l.043945.728027c-.1875.077148-.485352.132324-.860352.132324-.452148,0-.816406-.143555-1.047852-.408203-.276367-.286621-.375-.76123-.375-1.390137v-2.912598h-.828125v-.73877h.828125v-1.279785l.948242-.253906Z" style="fill:#1d1d1b;"/><path d="M434.883591,117.721609c.022461,1.3125.860352,1.853516,1.832031,1.853516.694336,0,1.113281-.121582,1.477539-.275879l.166016.694824c-.341797.154297-.926758.331055-1.776367.331055-1.643555,0-2.625977-1.081055-2.625977-2.691895s.949219-2.879395,2.504883-2.879395c1.743164,0,2.206055,1.533691,2.206055,2.515137,0,.19873-.022461.353027-.033203.452637h-3.750977ZM437.730271,117.026296c.010742-.617676-.253906-1.577148-1.345703-1.577148-.982422,0-1.412109.904297-1.489258,1.577148h2.834961Z" style="fill:#1d1d1b;"/><path d="M439.866989,116.540945c0-.628906-.011719-1.169434-.044922-1.665527h.849609l.033203,1.047852h.043945c.243164-.717285.828125-1.169434,1.478516-1.169434.110352,0,.1875.01123.276367.033203v.915527c-.099609-.021973-.199219-.033203-.331055-.033203-.68457,0-1.169922.518555-1.301758,1.246582-.022461.132812-.043945.287109-.043945.452637v2.846191h-.959961v-3.673828Z" style="fill:#1d1d1b;"/><path d="M444.597458,113.374929c.010742.331055-.231445.595703-.618164.595703-.341797,0-.584961-.264648-.584961-.595703,0-.342285.253906-.606934.607422-.606934.364258,0,.595703.264648.595703.606934ZM443.516403,120.214773v-5.339355h.970703v5.339355h-.970703Z" style="fill:#1d1d1b;"/><path d="M449.052536,120.214773l-.077148-.672852h-.033203c-.297852.418945-.871094.794434-1.632812.794434-1.081055,0-1.632812-.76123-1.632812-1.533691,0-1.290527,1.147461-1.996582,3.210938-1.98584v-.110352c0-.441406-.121094-1.235352-1.213867-1.235352-.496094,0-1.014648.154297-1.389648.396973l-.220703-.639648c.441406-.287109,1.081055-.474609,1.753906-.474609,1.632812,0,2.030273,1.114258,2.030273,2.18457v1.996582c0,.463379.021484.915527.087891,1.279785h-.882812ZM448.908982,117.489675c-1.058594-.021973-2.260742.165527-2.260742,1.202637,0,.628906.418945.926758.915039.926758.695312,0,1.136719-.441406,1.291016-.893555.033203-.099609.054688-.209473.054688-.309082v-.926758Z" style="fill:#1d1d1b;"/><path d="M451.409958,112.381765h.970703v7.833008h-.970703v-7.833008Z" style="fill:#1d1d1b;"/><path d="M415.708786,127.575125v2.592773h2.493164v.661621h-2.493164v2.614746h-.706055v-2.614746h-2.493164v-.661621h2.493164v-2.592773h.706055Z" style="fill:#1d1d1b;"/><path d="M390.013962,144.180593c.022461,1.3125.86084,1.853516,1.831543,1.853516.694824,0,1.114258-.121094,1.478516-.276367l.165039.695312c-.341797.154297-.92627.331055-1.775879.331055-1.644043,0-2.625488-1.081055-2.625488-2.691406,0-1.611328.94873-2.879883,2.503906-2.879883,1.743164,0,2.206543,1.533203,2.206543,2.515625,0,.198242-.021973.352539-.033203.452148h-3.750977ZM392.860642,143.485281c.010742-.617188-.253906-1.577148-1.346191-1.577148-.981934,0-1.412109.904297-1.489258,1.577148h2.835449Z" style="fill:#1d1d1b;"/><path d="M394.996872,142.779226c0-.551758-.010742-1.003906-.043945-1.445312h.860352l.055176.882812h.021973c.265137-.507812.882812-1.003906,1.765137-1.003906.739258,0,1.886719.441406,1.886719,2.272461v3.188477h-.970703v-3.078125c0-.860352-.319824-1.577148-1.23584-1.577148-.639648,0-1.13623.452148-1.301758.992188-.043945.12207-.065918.287109-.065918.453125v3.209961h-.971191v-3.894531Z" style="fill:#1d1d1b;"/><path d="M401.115525,142.999929c0-.628906-.010742-1.168945-.043945-1.666016h.849609l.032715,1.048828h.044434c.242676-.717773.827148-1.169922,1.478027-1.169922.110352,0,.1875.010742.275879.033203v.916016c-.099121-.022461-.198242-.033203-.331055-.033203-.683594,0-1.169434.518555-1.301758,1.246094-.021973.132812-.043945.287109-.043945.452148v2.84668h-.959961v-3.673828Z" style="fill:#1d1d1b;"/><path d="M405.845993,139.833914c.010742.331055-.231934.595703-.618164.595703-.341797,0-.584473-.264648-.584473-.595703,0-.341797.253418-.606445.606445-.606445.364258,0,.596191.264648.596191.606445ZM404.76445,146.673757v-5.339844h.971191v5.339844h-.971191Z" style="fill:#1d1d1b;"/><path d="M411.150192,146.475515c-.253418.131836-.816406.308594-1.533203.308594-1.61084,0-2.658691-1.091797-2.658691-2.724609,0-1.644531,1.125-2.835938,2.868164-2.835938.57373,0,1.081055.143555,1.345703.276367l-.220215.75c-.231934-.132812-.596191-.253906-1.125488-.253906-1.224609,0-1.886719.904297-1.886719,2.018555,0,1.236328.794434,1.99707,1.853516,1.99707.551758,0,.915527-.143555,1.191406-.264648l.165527.728516Z" style="fill:#1d1d1b;"/><path d="M412.283005,138.84075h.971191v3.332031h.021973c.154297-.276367.396484-.518555.694336-.68457.287109-.165039.628906-.275391.993164-.275391.716797,0,1.864258.441406,1.864258,2.28418v3.176758h-.970703v-3.067383c0-.860352-.319336-1.587891-1.235352-1.587891-.628906,0-1.125.441406-1.301758.970703-.055176.131836-.065918.275391-.065918.462891v3.22168h-.971191v-7.833008Z" style="fill:#1d1d1b;"/><path d="M418.402146,142.779226c0-.551758-.011719-1.003906-.044922-1.445312h.849609l.044922.860352h.032227c.297852-.506836.794922-.981445,1.677734-.981445.727539,0,1.279297.441406,1.510742,1.070312h.022461c.165039-.297852.375-.529297.595703-.695312.319336-.242188.672852-.375,1.180664-.375.706055,0,1.753906.463867,1.753906,2.316406v3.144531h-.949219v-3.022461c0-1.026367-.375-1.644531-1.158203-1.644531-.551758,0-.981445.408203-1.147461.882812-.043945.132812-.077148.308594-.077148.485352v3.298828h-.948242v-3.199219c0-.849609-.375-1.467773-1.114258-1.467773-.607422,0-1.048828.485352-1.203125.97168-.054688.142578-.077148.308594-.077148.473633v3.22168h-.948242v-3.894531Z" style="fill:#1d1d1b;"/><path d="M428.136521,144.180593c.022461,1.3125.860352,1.853516,1.831055,1.853516.695312,0,1.114258-.121094,1.478516-.276367l.166016.695312c-.341797.154297-.926758.331055-1.776367.331055-1.643555,0-2.625977-1.081055-2.625977-2.691406,0-1.611328.949219-2.879883,2.504883-2.879883,1.743164,0,2.206055,1.533203,2.206055,2.515625,0,.198242-.022461.352539-.033203.452148h-3.750977ZM430.9832,143.485281c.010742-.617188-.253906-1.577148-1.345703-1.577148-.982422,0-1.412109.904297-1.489258,1.577148h2.834961Z" style="fill:#1d1d1b;"/><path d="M433.119919,142.779226c0-.551758-.011719-1.003906-.044922-1.445312h.861328l.054688.882812h.022461c.264648-.507812.881836-1.003906,1.764648-1.003906.739258,0,1.886719.441406,1.886719,2.272461v3.188477h-.970703v-3.078125c0-.860352-.320312-1.577148-1.235352-1.577148-.640625,0-1.136719.452148-1.301758.992188-.044922.12207-.066406.287109-.066406.453125v3.209961h-.970703v-3.894531Z" style="fill:#1d1d1b;"/><path d="M440.363083,139.80071v1.533203h1.390625v.739258h-1.390625v2.879883c0,.661133.1875,1.037109.728516,1.037109.253906,0,.441406-.033203.5625-.066406l.043945.727539c-.1875.077148-.485352.132812-.860352.132812-.452148,0-.816406-.143555-1.047852-.408203-.276367-.287109-.375-.761719-.375-1.389648v-2.913086h-.828125v-.739258h.828125v-1.279297l.948242-.253906Z" style="fill:#1d1d1b;"/></svg>