<?xml version="1.0" encoding="utf-8"?>
<!-- Generator: Adobe Adobe Illustrator 29.2.0, SVG Export Plug-In . SVG Version: 6.00 Build 0)  -->
<svg version="1.1" id="Layer_1" xmlns:xlink="http://www.w3.org/1999/xlink"
	 xmlns="http://www.w3.org/2000/svg" x="0px" y="0px" width="96px" height="96px"
	 viewBox="0 0 96 96" style="enable-background:new 0 0 96 96;" xml:space="preserve">
<style type="text/css">
	.st0{stroke:#000000;stroke-miterlimit:10;}
</style>
<path class="st0" d="M93.1,39.5c-0.1-0.4-0.4-0.6-0.7-0.7l-7.6-0.6c-0.9-3.3-2.2-6.5-3.9-9.4l5.1-5.4c0.3-0.3,0.3-0.7,0.1-1
	c-3.2-4.9-7.5-9-12.3-12.4c-0.3-0.2-0.7-0.2-1,0.1l-5.7,4.9c-2.9-1.8-6.1-3-9.4-3.9l-0.3-7.5c0-0.4-0.3-0.7-0.7-0.8
	c-2.6-0.5-5.4-0.8-8.1-0.9c-3.1-0.1-6.3,0.2-9.3,0.8c-0.3,0.1-0.6,0.4-0.6,0.8l-0.6,7.6c-3.3,0.9-6.5,2.2-9.4,3.9L23.4,10
	c-0.3-0.3-0.7-0.3-1-0.1c-4.9,3.2-9,7.5-12.4,12.3c-0.2,0.3-0.2,0.7,0.1,1l4.9,5.7c-1.8,2.9-3,6.1-3.9,9.4l-7.5,0.3
	c-0.4,0-0.7,0.3-0.8,0.7c-0.5,2.6-0.8,5.4-0.9,8.1c-0.1,3.1,0.2,6.3,0.8,9.3c0,0.2,0.3,0.5,0.7,0.5l7.6,0.6c0.9,3.3,2.2,6.5,3.9,9.4
	l-5.1,5.4c-0.3,0.3-0.3,0.7-0.1,1c3.2,4.9,7.5,9,12.3,12.4c0.3,0.2,0.7,0.2,1-0.1l5.7-4.9c2.9,1.8,6.1,3,9.4,3.9l0.3,7.5
	c0,0.4,0.3,0.7,0.7,0.8c2.6,0.5,5.4,0.8,8.1,0.9c0.3,0,0.5,0,0.8,0c2.8,0,5.7-0.3,8.5-0.8c0.4-0.1,0.6-0.4,0.7-0.7l0.6-7.6
	c3.3-0.9,6.5-2.2,9.4-3.9l5.4,5.1c0.3,0.3,0.7,0.3,1,0.1c4.9-3.2,9-7.5,12.4-12.3c0.2-0.3,0.2-0.7-0.1-1L81,67.3
	c1.8-2.9,3-6.1,3.9-9.4l7.5-0.3c0.4,0,0.7-0.3,0.8-0.7c0.5-2.6,0.8-5.4,0.9-8.1C93.9,45.7,93.7,42.6,93.1,39.5L93.1,39.5z
	 M92.2,48.8c0,2.5-0.3,4.8-0.7,7.3l-7.4,0.2c-0.4,0-0.7,0.3-0.8,0.6c-0.9,3.5-2.3,7-4.2,10.1c-0.2,0.3-0.2,0.7,0.1,1l4.9,5.7
	c-3,4.3-6.8,7.9-11.1,11l-5.4-5c-0.3-0.2-0.7-0.3-1-0.1c-3.1,1.9-6.6,3.3-10.1,4.2c-0.3,0.1-0.6,0.4-0.6,0.7l-0.6,7.5
	c-2.7,0.5-5.6,0.7-8.3,0.7c-2.5,0-4.8-0.3-7.3-0.7l-0.2-7.6c0-0.4-0.3-0.7-0.6-0.8c-3.5-0.9-7-2.3-10.1-4.2c-0.3-0.2-0.7-0.2-1,0.1
	l-5.6,4.9c-4.3-3-7.9-6.8-11-11.1l5-5.4c0.2-0.3,0.3-0.7,0.1-1c-1.9-3.1-3.3-6.6-4.2-10.1c-0.1-0.3-0.4-0.6-0.7-0.6l-7.5-0.6
	c-0.5-2.7-0.7-5.6-0.7-8.3c0-2.5,0.3-4.8,0.7-7.3l7.4-0.3c0.4,0,0.7-0.3,0.8-0.6c0.9-3.5,2.3-7,4.2-10.1c0.2-0.3,0.2-0.7-0.1-1
	l-4.8-5.5c3-4.3,6.8-7.9,11.1-11l5.4,5c0.3,0.2,0.7,0.3,1,0.1c3.1-1.9,6.6-3.3,10.1-4.2c0.3-0.1,0.6-0.4,0.6-0.7l0.6-7.5
	c2.7-0.5,5.6-0.7,8.3-0.7c2.5,0,4.8,0.3,7.3,0.7l0.3,7.4c0,0.4,0.3,0.7,0.6,0.8c3.5,0.9,7,2.3,10.1,4.2c0.3,0.2,0.7,0.1,1-0.1
	l5.7-4.9c4.3,3,7.9,6.8,11,11.1l-5,5.4c-0.2,0.3-0.3,0.7-0.1,1c1.9,3.1,3.3,6.6,4.2,10.1c0.1,0.3,0.4,0.6,0.7,0.6l7.5,0.6
	C92.1,43.2,92.3,46,92.2,48.8L92.2,48.8z M47.9,18.1C31.4,18.1,18,31.6,18,48.1S31.4,78,47.9,78s29.9-13.4,29.9-29.9
	S64.4,18.1,47.9,18.1z M47.9,76.4c-15.6,0-28.3-12.7-28.3-28.3s12.7-28.3,28.3-28.3s28.3,12.7,28.3,28.3S63.5,76.4,47.9,76.4z
	 M47.4,31.2c-1.6,0-3.2,0.4-4.6,1.2c-1.4,0.8-2.6,2-3.4,3.3c-0.9,1.5-0.5,3.4,1,4.3c1.5,0.9,3.4,0.5,4.3-1c0.3-0.5,0.7-0.9,1.2-1.1
	c0.5-0.3,1-0.4,1.6-0.4c0.9,0,1.7,0.3,2.3,1c0.6,0.6,0.9,1.4,0.9,2.3c0,0.6-0.2,1.2-0.5,1.7s-0.8,0.9-1.4,1.2
	c-1.4,0.7-2.5,1.7-3.3,2.8c-0.8,1.3-1.2,2.7-1.2,4.2v2.4c0,1.8,1.4,3.1,3.1,3.1c1.8,0,3.1-1.4,3.1-3.1v-2.4c0-0.3,0.1-0.6,0.2-0.8
	c0.1-0.2,0.4-0.4,0.7-0.6c1.7-0.8,3-2,4-3.5s1.5-3.3,1.5-5.1c0-2.5-1-4.9-2.7-6.8C52.3,32.2,50,31.2,47.4,31.2L47.4,31.2z M54.1,45
	c-0.8,1.3-2,2.3-3.3,2.9c-0.6,0.3-1,0.7-1.3,1.2c-0.3,0.5-0.5,1.1-0.5,1.7v2.4c0,0.9-0.7,1.6-1.6,1.6s-1.6-0.7-1.6-1.6v-2.4
	c0-1.2,0.3-2.4,1-3.3c0.6-1,1.6-1.8,2.6-2.3c0.8-0.4,1.6-1,2.1-1.8c0.5-0.8,0.8-1.7,0.8-2.5c0-1.3-0.5-2.5-1.4-3.4
	c-0.9-0.9-2.1-1.4-3.4-1.4c-0.8,0-1.7,0.2-2.4,0.6c-0.7,0.4-1.3,1-1.8,1.7c-0.5,0.7-1.4,1-2.2,0.5c-0.7-0.5-1-1.4-0.5-2.2
	c0.7-1.2,1.7-2.1,2.8-2.7s2.5-1,3.8-1c2.2,0,4.1,0.8,5.6,2.4c1.5,1.5,2.4,3.5,2.4,5.6C55.4,42.3,54.9,43.7,54.1,45L54.1,45z
	 M47.4,58.6c-1.8,0-3.1,1.4-3.1,3.1v0.1c0,1.8,1.4,3.1,3.1,3.1c1.8,0,3.1-1.4,3.1-3.1v-0.1C50.6,59.9,49.2,58.6,47.4,58.6z M49,61.7
	c0,0.9-0.7,1.6-1.6,1.6s-1.6-0.7-1.6-1.6v-0.1c0-0.9,0.7-1.6,1.6-1.6C48.3,60.1,49,60.8,49,61.7L49,61.7z"/>
</svg>
