<?xml version="1.0" encoding="utf-8"?>
<!-- Generator: Adobe Adobe Illustrator 29.2.0, SVG Export Plug-In . SVG Version: 6.00 Build 0)  -->
<svg version="1.1" id="Layer_1" xmlns:xlink="http://www.w3.org/1999/xlink"
	 xmlns="http://www.w3.org/2000/svg" x="0px" y="0px" width="96px" height="96px"
	 viewBox="0 0 96 96" style="enable-background:new 0 0 96 96;" xml:space="preserve">
<g>
	<path d="M72.9,44.9c1.2-0.7,2.8-0.7,4,0l16.6,9.6c1.2,0.7,2,2,2,3.5v19.1c0,1.5-0.8,2.8-2,3.5l-16.6,9.6c-1.2,0.7-2.8,0.7-4,0
		l-16.6-9.6c-1.2-0.7-2-2-2-3.5V62.3l2.7,1.6v13.2c0,0.4,0.1,0.8,0.5,1.1l0.1,0.1l16.6,9.6c0.4,0.3,0.9,0.3,1.3,0l16.6-9.6
		c0.4-0.3,0.7-0.7,0.7-1.2V58c0-0.5-0.3-0.9-0.7-1.2l-16.6-9.6c-0.4-0.3-0.9-0.3-1.3,0l-12.2,7l-2.7-1.6L72.9,44.9z M19.1,44.9
		c1.2-0.7,2.8-0.7,4,0L36,52.3l-2.7,1.6l-11.6-6.7c-0.4-0.3-0.8-0.3-1.2-0.1l-0.1,0.1L3.9,56.7C3.5,57,3.2,57.4,3.2,58v19.1
		c0,0.5,0.3,0.9,0.7,1.2l16.6,9.6c0.4,0.3,0.9,0.3,1.3,0l16.6-9.6c0.4-0.3,0.7-0.7,0.7-1.2v-14l2.7-1.6v15.5c0,1.3-0.7,2.6-1.7,3.4
		l-0.3,0.1l-16.6,9.7c-1.2,0.7-2.8,0.7-4,0L2.5,80.6c-1.2-0.7-2-2-2-3.5V58c0-1.5,0.8-2.8,2-3.5L19.1,44.9z M49.3,5.9
		c-1.2-0.7-2.8-0.7-4,0l-17.1,9.8c-1.2,0.7-2,2-2,3.5v21.4h2.7V19.3c0-0.5,0.3-0.9,0.7-1.2l17.1-9.8C47.1,8,47.6,8,48,8.3l17.1,9.8
		c0.4,0.3,0.7,0.7,0.7,1.2v21.3h2.7V19.3c0-1.5-0.8-2.8-2-3.5L49.3,5.9z"/>
	<path d="M45.3,22.2c1.2-0.7,2.8-0.7,4,0l3.1,1.7c1.2,0.7,2,2,2,3.5V31c0,1.5-0.8,2.8-2,3.5l-3.1,1.7c-0.3,0.1-0.4,0.3-0.7,0.3v10.9
		c0.4,0.1,0.7,0.3,0.9,0.4c1.5,0.8,2.3,2.4,2.3,4c0,0.4,0,0.7-0.1,1.1l16.6,9.6c0.1-0.1,0.4-0.3,0.7-0.5l3.1-1.7
		c1.2-0.7,2.8-0.7,4,0l3.1,1.7c1.2,0.7,2,2,2,3.5v3.6c0,1.5-0.8,2.8-2,3.5l-3.1,1.7c-1.2,0.7-2.8,0.7-4,0L69,72.6
		c-1.2-0.7-2-2-2-3.5v-3.6c0-0.3,0-0.4,0-0.7l-16.4-9.4c-0.3,0.3-0.5,0.4-0.8,0.7c-1.5,0.8-3.2,0.8-4.7,0c-0.3-0.1-0.5-0.4-0.8-0.7
		l-9,5.2c-0.1,0-0.1,0.1-0.3,0.1l-7.4,4.3c0,0.3,0,0.4,0,0.7v3.6c0,1.5-0.8,2.8-2,3.5l-3.1,1.7c-1.2,0.7-2.8,0.7-4,0l-3.1-1.7
		c-1.2-0.7-2-2-2-3.5v-3.6c0-1.5,0.8-2.8,2-3.5l3.1-1.7c1.2-0.7,2.8-0.7,4,0l3.1,1.7c0.3,0.1,0.4,0.3,0.7,0.5l7.3-4.2
		c0.1,0,0.1-0.1,0.3-0.1l8.9-5.1c-0.1-0.4-0.1-0.7-0.1-1.1c0-1.6,0.9-3.2,2.3-4c0.3-0.1,0.7-0.3,0.9-0.4V37
		c-0.3-0.1-0.4-0.1-0.7-0.3l-3.1-1.7c-1.2-0.7-2-2-2-3.5v-3.6c0-1.5,0.8-2.8,2-3.5L45.3,22.2z M74.9,62.7c-0.4-0.3-0.9-0.3-1.3,0
		l-3.1,1.7c-0.4,0.3-0.7,0.7-0.7,1.2v3.6c0,0.5,0.3,0.9,0.7,1.2l3.1,1.7c0.4,0.3,0.9,0.3,1.3,0l3.1-1.7c0.4-0.3,0.7-0.7,0.7-1.2
		v-3.6c0-0.5-0.3-0.9-0.7-1.2L74.9,62.7z M21.1,62.7c-0.4-0.3-0.9-0.3-1.3,0l-3.1,1.7c-0.4,0.3-0.7,0.7-0.7,1.2v3.6
		c0,0.5,0.3,0.9,0.7,1.2l3.1,1.7c0.4,0.3,0.9,0.3,1.3,0l3.1-1.7c0.4-0.3,0.7-0.7,0.7-1.2v-3.6c0-0.5-0.3-0.9-0.7-1.2L21.1,62.7z
		 M48,24.5c-0.4-0.3-0.9-0.3-1.3,0l-3.1,1.7c-0.4,0.3-0.7,0.7-0.7,1.2V31c0,0.5,0.3,0.9,0.7,1.2l3.1,1.7c0.4,0.3,0.9,0.3,1.3,0
		l3.1-1.7c0.4-0.3,0.7-0.7,0.7-1.2v-3.6c0-0.5-0.3-0.9-0.7-1.2L48,24.5z"/>
</g>
</svg>
