<?xml version="1.0" encoding="utf-8"?>
<!-- Generator: Adobe Adobe Illustrator 29.2.0, SVG Export Plug-In . SVG Version: 6.00 Build 0)  -->
<svg version="1.1" id="Layer_1" xmlns="http://www.w3.org/2000/svg" xmlns:xlink="http://www.w3.org/1999/xlink" x="0px" y="0px"
	 width="96px" height="96px" viewBox="0 0 96 96" style="enable-background:new 0 0 96 96;" xml:space="preserve">
<style type="text/css">
	.st0{fill-rule:evenodd;clip-rule:evenodd;}
</style>
<g>
	<path class="st0" d="M79.1,92.9H49.7c-0.8,0-1.4-0.6-1.4-1.4V76.7c0-0.8,0.6-1.4,1.4-1.4l29.4,0c4.8,0,8.8,3.9,8.8,8.8
		S84,92.9,79.1,92.9L79.1,92.9z M51.2,90h28c3.2,0,5.9-2.6,5.9-5.9c0-3.2-2.6-5.9-5.9-5.9h-28V90z"/>
	<path class="st0" d="M22.5,90.9c-0.3,0-13.2-3-13.5-3c-0.6-0.1-1.1-0.7-1.1-1.4v-4.6c0-0.7,0.4-1.2,1.1-1.4l13.2-3.1
		c0.9-0.2,1.8,0.5,1.8,1.4c0,0.4,0.4,0.8,0.8,0.8h24.9c0.8,0,1.4,0.6,1.4,1.4c0,0.8-0.6,1.4-1.4,1.4H24.8c-1.3,0-2.6-0.8-3.2-1.9
		L10.8,83v2.3l10.7,2.4c0.6-1.2,1.8-2,3.2-2h24.9c0.8,0,1.4,0.6,1.4,1.4c0,0.8-0.6,1.4-1.4,1.4H24.8C23.4,88.7,24.7,90.7,22.5,90.9
		L22.5,90.9z"/>
	<path class="st0" d="M47.9,46.5c-5.3,0-9.6-4.3-9.6-9.6s4.3-9.6,9.6-9.6s9.6,4.3,9.6,9.6S53.2,46.5,47.9,46.5z M47.9,30.2
		c-3.7,0-6.7,3-6.7,6.7c0,3.7,3,6.7,6.7,6.7c3.7,0,6.7-3,6.7-6.7C54.7,33.2,51.6,30.2,47.9,30.2z"/>
	<path class="st0" d="M50.9,62.1H45c-2,0-3.6-1.6-3.6-3.6v-5.7c0,0,0,0-0.1,0l-4,4c-0.7,0.7-1.6,1-2.5,1c-0.9,0-1.8-0.3-2.5-1
		L28,52.7c-0.7-0.7-1-1.6-1-2.5c0-1,0.4-1.9,1-2.5l4-4c0,0,0,0,0-0.1h-5.7c-2,0-3.6-1.6-3.6-3.6V34c0-2,1.6-3.6,3.6-3.6H32
		c0,0,0,0,0-0.1l-4-4c-0.7-0.7-1-1.6-1-2.5c0-1,0.4-1.9,1-2.5l4.2-4.2c1.4-1.4,3.7-1.4,5.1,0l4,4c0,0,0,0,0.1,0v-5.7
		c0-2,1.6-3.6,3.6-3.6h5.9c2,0,3.6,1.6,3.6,3.6V21c0,0,0,0,0.1,0l4-4c1.4-1.4,3.7-1.4,5.1,0l4.2,4.2c1.4,1.4,1.4,3.7,0,5.1l-4,4
		c0,0,0,0,0,0.1h5.7c2,0,3.6,1.6,3.6,3.6v5.9c0,2-1.6,3.6-3.6,3.6h-5.7c0,0,0,0,0,0.1l4,4c0.7,0.7,1,1.6,1,2.5c0,1-0.4,1.9-1,2.5
		l-4.2,4.2c-0.7,0.7-1.6,1-2.5,1c-1,0-1.9-0.4-2.5-1l-4-4c0,0,0,0-0.1,0v5.7C54.5,60.5,52.9,62.1,50.9,62.1L50.9,62.1z M41,49.6
		c0.8,0.1,1.5,0.6,2.3,0.8c0.6,0.2,1,0.7,1,1.4v6.7c0,0.4,0.3,0.7,0.7,0.7h5.9c0.4,0,0.7-0.3,0.7-0.7v-6.7c0-0.6,0.4-1.2,1-1.4
		c0.6-0.2,1.1-0.4,1.7-0.7c0.5-0.3,1.2-0.1,1.6,0.3l4.7,4.7C60.8,55,61,55,61.1,55c0.1,0,0.3,0,0.5-0.2l4.2-4.2
		c0.2-0.2,0.2-0.4,0.2-0.5c0-0.1,0-0.3-0.2-0.5l-4.7-4.7c-0.4-0.4-0.5-1.1-0.3-1.6c0.3-0.5,0.5-1.1,0.7-1.7c0.2-0.6,0.7-1,1.4-1h6.7
		c0.4,0,0.7-0.3,0.7-0.7V34c0-0.4-0.3-0.7-0.7-0.7h-6.7c-0.6,0-1.2-0.4-1.4-1c-0.2-0.6-0.4-1.1-0.7-1.7c-0.3-0.5-0.1-1.2,0.3-1.6
		l4.7-4.7c0.3-0.3,0.3-0.7,0-1l-4.2-4.2c-0.3-0.3-0.7-0.3-1,0l-4.7,4.7c-0.4,0.4-1.1,0.5-1.6,0.3c-0.5-0.3-1.1-0.5-1.7-0.7
		c-0.6-0.2-1-0.7-1-1.4v-6.7c0-0.4-0.3-0.7-0.7-0.7H45c-0.4,0-0.7,0.3-0.7,0.7V22c0,0.6-0.4,1.2-1,1.4c-0.6,0.2-1.1,0.4-1.7,0.7
		c-0.5,0.3-1.2,0.1-1.6-0.3l-4.7-4.7c-0.3-0.3-0.7-0.3-1,0l-4.2,4.2c-0.2,0.2-0.2,0.4-0.2,0.5c0,0.1,0,0.3,0.2,0.5l4.7,4.7
		c0.4,0.4,0.5,1.1,0.3,1.6c-0.3,0.5-0.5,1.1-0.7,1.7c-0.2,0.6-0.7,1-1.4,1h-6.7c-0.4,0-0.7,0.3-0.7,0.7v5.9c0,0.4,0.3,0.7,0.7,0.7
		H33c0.6,0,1.2,0.4,1.4,1c0.2,0.6,0.4,1.1,0.7,1.7c0.3,0.5,0.1,1.2-0.3,1.6l-4.7,4.7c-0.2,0.2-0.2,0.4-0.2,0.5c0,0.1,0,0.3,0.2,0.5
		l4.2,4.2c0.3,0.3,0.7,0.3,1,0L40,50C40.2,49.8,40.6,49.6,41,49.6L41,49.6z"/>
	<path class="st0" d="M77.1,70.7H18.8c-2.6,0-4.6-2.1-4.6-4.6V7.8c0-2.6,2.1-4.6,4.6-4.6h58.3c2.6,0,4.6,2.1,4.6,4.6v58.3
		C81.7,68.6,79.6,70.7,77.1,70.7L77.1,70.7z M18.8,6c-1,0-1.8,0.8-1.8,1.8v58.3c0,1,0.8,1.8,1.8,1.8h58.3c1,0,1.8-0.8,1.8-1.8V7.8
		c0-1-0.8-1.8-1.8-1.8L18.8,6z"/>
	<path class="st0" d="M15.6,22.1H8.5c-0.8,0-1.4-0.6-1.4-1.4c0-0.8,0.6-1.4,1.4-1.4h7.1c0.8,0,1.4,0.6,1.4,1.4
		C17,21.4,16.4,22.1,15.6,22.1L15.6,22.1z"/>
	<path class="st0" d="M15.6,38.4H8.5c-0.8,0-1.4-0.6-1.4-1.4c0-0.8,0.6-1.4,1.4-1.4h7.1c0.8,0,1.4,0.6,1.4,1.4
		C17.1,37.7,16.4,38.4,15.6,38.4L15.6,38.4z"/>
	<path class="st0" d="M15.6,54.6H8.5c-0.8,0-1.4-0.6-1.4-1.4c0-0.8,0.6-1.4,1.4-1.4h7.1c0.8,0,1.4,0.6,1.4,1.4
		C17,54,16.4,54.6,15.6,54.6L15.6,54.6z"/>
	<path class="st0" d="M87.5,22.1h-7.2c-0.8,0-1.4-0.6-1.4-1.4c0-0.8,0.6-1.4,1.4-1.4h7.2c0.8,0,1.4,0.6,1.4,1.4
		C89,21.4,88.3,22.1,87.5,22.1z"/>
	<path class="st0" d="M87.5,38.4h-7.2c-0.8,0-1.4-0.6-1.4-1.4c0-0.8,0.6-1.4,1.4-1.4h7.2c0.8,0,1.4,0.6,1.4,1.4
		C89,37.7,88.3,38.4,87.5,38.4z"/>
	<path class="st0" d="M87.5,54.6h-7.2c-0.8,0-1.4-0.6-1.4-1.4c0-0.8,0.6-1.4,1.4-1.4h7.2c0.8,0,1.4,0.6,1.4,1.4
		C88.9,54,88.3,54.6,87.5,54.6z"/>
	<path class="st0" d="M90,24.6c-2.2,0-4-1.8-4-4s1.8-4,4-4c2.2,0,4,1.8,4,4C94,22.8,92.2,24.6,90,24.6L90,24.6z M90,19.6
		c-0.6,0-1.1,0.5-1.1,1.1c0,0.6,0.5,1.1,1.1,1.1c0.6,0,1.1-0.5,1.1-1.1C91.1,20.1,90.7,19.6,90,19.6z"/>
	<path class="st0" d="M90,40.9c-2.2,0-4-1.8-4-4s1.8-4,4-4c2.2,0,4,1.8,4,4C94,39.1,92.2,40.9,90,40.9L90,40.9z M90,35.8
		c-0.6,0-1.1,0.5-1.1,1.1c0,0.6,0.5,1.1,1.1,1.1c0.6,0,1.1-0.5,1.1-1.1C91.2,36.3,90.7,35.8,90,35.8z"/>
	<path class="st0" d="M90,57.2c-2.2,0-4-1.8-4-4s1.8-4,4-4c2.2,0,4,1.8,4,4C94,55.4,92.2,57.2,90,57.2L90,57.2z M90,52.1
		c-0.6,0-1.1,0.5-1.1,1.1c0,0.6,0.5,1.1,1.1,1.1c0.6,0,1.1-0.5,1.1-1.1C91.1,52.6,90.7,52.1,90,52.1z"/>
	<path class="st0" d="M6,24.6c-2.2,0-4-1.8-4-4s1.8-4,4-4s4,1.8,4,4S8.2,24.6,6,24.6z M6,19.6c-0.6,0-1.1,0.5-1.1,1.1
		c0,0.6,0.5,1.1,1.1,1.1c0.6,0,1.1-0.5,1.1-1.1C7.1,20.1,6.6,19.6,6,19.6z"/>
	<path class="st0" d="M6,40.9c-2.2,0-4-1.8-4-4s1.8-4,4-4s4,1.8,4,4C9.9,39.1,8.2,40.9,6,40.9z M6,35.8c-0.6,0-1.1,0.5-1.1,1.1
		C4.9,37.5,5.4,38,6,38c0.6,0,1.1-0.5,1.1-1.1C7.1,36.3,6.6,35.8,6,35.8z"/>
	<path class="st0" d="M6,57.2c-2.2,0-4-1.8-4-4s1.8-4,4-4s4,1.8,4,4S8.2,57.2,6,57.2z M6,52.1c-0.6,0-1.1,0.5-1.1,1.1
		c0,0.6,0.5,1.1,1.1,1.1c0.6,0,1.1-0.5,1.1-1.1C7.1,52.6,6.6,52.1,6,52.1z"/>
</g>
</svg>
