<?xml version="1.0" encoding="utf-8"?>
<!-- Generator: Adobe Adobe Illustrator 29.2.0, SVG Export Plug-In . SVG Version: 6.00 Build 0)  -->
<svg version="1.1" id="Layer_1" xmlns:xlink="http://www.w3.org/1999/xlink"
	 xmlns="http://www.w3.org/2000/svg" x="0px" y="0px" width="96px" height="96px"
	 viewBox="0 0 96 96" style="enable-background:new 0 0 96 96;" xml:space="preserve">
<path d="M76.8,38.1l1-2.8c-11.7-4.1-22.9-0.2-23.4,0l1,2.8C55.6,38,66.1,34.3,76.8,38.1z"/>
<path d="M76.8,47.1l1-2.8c-11.7-4.1-22.9-0.2-23.4,0l1,2.8C55.6,47,66.1,43.3,76.8,47.1z"/>
<path d="M77.8,53.2c-11.7-4.1-22.9-0.2-23.4,0l1,2.8c0.1,0,10.7-3.8,21.4,0L77.8,53.2z"/>
<path d="M40.5,38.1l1-2.8c-11.7-4.1-22.9-0.2-23.4,0l1,2.8C19.3,38,29.8,34.3,40.5,38.1z"/>
<path d="M85.8,20.9l-1-0.4c-5.6-2-11.7-3-18.1-3c-9.5,0-16.7,2.1-18.7,2.8c-5.4-1.9-11.4-2.8-17.6-2.8c-10.9,0-18.9,2.8-19.2,3
	l-1,0.4v3H4v54.4h88V24h-6.2V20.9z M49.5,23.1c2.4-0.7,9-2.5,17.2-2.5c5.7,0,11.1,0.8,16.1,2.4v45.3c-5-1.5-10.4-2.3-16.1-2.3
	c-7.8,0-14.1,1.5-17.2,2.3V23.1z M13.2,23.1c2.4-0.7,9-2.5,17.2-2.5c5.7,0,11.1,0.8,16.1,2.5v45.3c-5-1.5-10.4-2.3-16.1-2.3
	c-7.8,0-14.1,1.5-17.2,2.3V51.8l1.5,3.9l7.2,8l0-8.3c3.8-0.9,11.2-1.9,18.7,0.7l1-2.8c-8-2.8-15.7-1.9-19.9-0.9l-2.1-5.4
	c1.9-0.6,11.4-3.3,21,0.1l1-2.8c-10.8-3.8-21.2-0.7-23.1-0.1l-5.2-13.6L13.2,23.1L13.2,23.1z M10.7,32.2l2.6,6.6l5.5,14.2l0.2,0.4
	l0,1.6l0,0.7l-1.5-1.7l-4.1-10.7l-3-7.8l-1.1-2.8l1.1-0.4L10.7,32.2z M7,27h3.2v2.2L7,30.4C7,30.4,7,27,7,27z M89,27v48.4H7V35.6
	l3.2,8.4v28.6l2-0.7c0.1,0,7.8-2.8,18.2-2.8c6.1,0,11.8,0.9,17.1,2.8L48,72l0.5-0.2c0.1,0,7.8-2.8,18.2-2.8c6.1,0,11.8,0.9,17.1,2.8
	l2,0.7V27H89z"/>
</svg>
