<?xml version="1.0" encoding="utf-8"?>
<!-- Generator: Adobe Adobe Illustrator 29.2.0, SVG Export Plug-In . SVG Version: 6.00 Build 0)  -->
<svg version="1.1" id="Layer_1" xmlns="http://www.w3.org/2000/svg" xmlns:xlink="http://www.w3.org/1999/xlink" x="0px" y="0px" width="96px" height="96px"
	 viewBox="0 0 96 96" style="enable-background:new 0 0 96 96;" xml:space="preserve">
<g>
	<path d="M78.1,37.6l1-3c-12.2-4.3-23.9-0.2-24.4,0l1.1,3C55.9,37.6,66.9,33.7,78.1,37.6z"/>
	<path d="M78.1,47l1-3c-12.2-4.3-23.9-0.2-24.4,0l1.1,3C55.9,47,66.9,43.1,78.1,47z"/>
	<path d="M79.2,53.5c-12.2-4.3-23.9-0.2-24.4,0l1.1,3c0.1,0,11.1-3.9,22.3,0L79.2,53.5z"/>
	<path d="M40.2,37.6l1-3c-12.2-4.3-23.9-0.2-24.4,0l1.1,3C18,37.6,29,33.7,40.2,37.6z"/>
	<path d="M87.5,19.7l-1-0.4c-5.8-2.1-12.2-3.1-18.9-3.1c-9.9,0-17.5,2.2-19.5,2.9c-5.7-1.9-11.9-2.9-18.4-2.9
		c-11.4,0-19.7,3-20.1,3.1l-1,0.4v3.2H2v56.9h92V22.9h-6.5V19.7z M49.6,21.9c2.5-0.8,9.4-2.6,18-2.6c5.9,0,11.6,0.9,16.8,2.6v47.4
		c-5.3-1.6-10.9-2.4-16.8-2.4c-8.2,0-14.8,1.5-18,2.4V21.9z M11.6,21.9c2.5-0.8,9.4-2.6,18-2.6c5.9,0,11.6,0.9,16.8,2.6v47.4
		c-5.3-1.6-10.9-2.4-16.8-2.4c-8.2,0-14.8,1.5-18,2.4V51.9l1.6,4.1l7.5,8.4l0-8.7c4-0.9,11.7-2,19.5,0.8l1-3c-8.3-2.9-16.4-2-20.8-1
		l-2.2-5.6c2-0.6,11.9-3.4,22,0.1l1-3c-11.3-4-22.2-0.8-24.1-0.1l-5.5-14.3L11.6,21.9L11.6,21.9z M9,31.5l2.7,6.9l5.7,14.9l0.2,0.4
		l0,1.7l0,0.7l-1.6-1.8l-4.3-11.1l-3.1-8.2l-1.1-2.9l1.1-0.4L9,31.5z M5.1,26h3.4v2.3l-3.4,1.3C5.1,29.6,5.1,26,5.1,26z M90.9,26
		v50.6H5.1V35.1l3.4,8.7v29.9l2.1-0.8c0.1,0,8.2-2.9,19-2.9c6.3,0,12.4,1,17.9,2.9l0.5,0.2l0.5-0.2c0.1,0,8.2-2.9,19-2.9
		c6.3,0,12.4,1,17.9,2.9l2.1,0.7V26H90.9z"/>
</g>
</svg>
