<?xml version="1.0" encoding="utf-8"?>
<!-- Generator: Adobe Adobe Illustrator 29.2.0, SVG Export Plug-In . SVG Version: 6.00 Build 0)  -->
<svg version="1.1" id="Layer_1" xmlns="http://www.w3.org/2000/svg" xmlns:xlink="http://www.w3.org/1999/xlink" x="0px" y="0px"
	 width="96px" height="96px" viewBox="0 0 96 96" style="enable-background:new 0 0 96 96;" xml:space="preserve">
<style type="text/css">
	.st0{fill-rule:evenodd;clip-rule:evenodd;}
</style>
<g id="surface1">
	<path class="st0" d="M22.9,29.6c-0.7,0-1.2-0.5-1.2-1.2c0-0.7,0.5-1.2,1.2-1.2h29.8c0.7,0,1.2,0.5,1.2,1.2c0,0.7-0.5,1.2-1.2,1.2
		H22.9z M18,27.1c0.7,0,1.2,0.5,1.2,1.2c0,0.7-0.5,1.2-1.2,1.2h0c-0.7,0-1.2-0.5-1.2-1.2C16.8,27.7,17.3,27.1,18,27.1L18,27.1z
		 M13.8,27.1c0.7,0,1.2,0.5,1.2,1.2c0,0.7-0.5,1.2-1.2,1.2h0c-0.7,0-1.2-0.5-1.2-1.2C12.6,27.7,13.2,27.1,13.8,27.1L13.8,27.1z
		 M9.7,27.1c0.7,0,1.2,0.5,1.2,1.2c0,0.7-0.5,1.2-1.2,1.2h0c-0.7,0-1.2-0.5-1.2-1.2C8.4,27.7,9,27.1,9.7,27.1L9.7,27.1z M91.4,44.3
		h-3c-0.7,0-1.4-0.3-1.8-0.8c-0.5-0.5-0.8-1.1-0.8-1.8v-4H75.8v20.5h15.7L91.4,44.3L91.4,44.3z M88.3,39.8l1.7,2h-1.6
		c0,0-0.1,0-0.1,0c0,0,0-0.1,0-0.1V39.8z M87.1,35.3c0.4,0,0.8,0.2,1,0.5l5.5,6.5l0,0l0,0l0,0c0,0,0,0.1,0.1,0.1l0,0l0,0l0,0l0,0
		l0,0v0l0,0l0,0l0,0l0,0l0,0l0,0l0,0l0,0l0,0l0,0l0,0l0,0l0,0l0,0l0,0l0,0l0,0l0,0l0,0l0,0v0l0,0v0l0,0l0,0v0l0,0v0l0,0v0l0,0l0,0v0
		l0,0l0,0v0l0,0v0l0,0v0l0,0v0l0,0v0l0,0v15.7c0,0.5-0.2,0.9-0.5,1.2c0,0-0.1,0.1-0.1,0.1c-0.3,0.3-0.8,0.6-1.4,0.6H75.3
		c-0.5,0-1-0.2-1.4-0.6c-0.3-0.3-0.6-0.8-0.6-1.3V37.2c0-0.5,0.2-0.9,0.5-1.2c0,0,0.1-0.1,0.1-0.1c0.3-0.3,0.8-0.6,1.4-0.6
		L87.1,35.3L87.1,35.3z M91.4,77.6h-3c-0.7,0-1.4-0.3-1.8-0.8s-0.8-1.1-0.8-1.8v-4H75.8v20.5h15.7L91.4,77.6L91.4,77.6z M88.3,73.1
		l1.7,2h-1.6c0,0-0.1,0-0.1,0c0,0,0-0.1,0-0.1V73.1z M87.1,68.6c0.4,0,0.8,0.2,1,0.5l5.5,6.5l0,0l0,0l0,0c0,0,0,0.1,0.1,0.1l0,0l0,0
		l0,0l0,0l0,0v0l0,0l0,0l0,0l0,0l0,0l0,0l0,0l0,0l0,0l0,0l0,0l0,0l0,0l0,0l0,0l0,0l0,0v0l0,0v0l0,0l0,0l0,0v0l0,0v0l0,0v0l0,0l0,0v0
		l0,0l0,0v0l0,0v0l0,0v0l0,0v0l0,0v0l0,0v15.7c0,0.5-0.2,0.9-0.5,1.2c0,0-0.1,0.1-0.1,0.1C93,93.8,92.5,94,92,94H75.2
		c-0.5,0-1-0.2-1.3-0.6c-0.3-0.3-0.6-0.8-0.6-1.4V70.5c0-0.5,0.2-0.9,0.5-1.2c0,0,0.1-0.1,0.1-0.1c0.3-0.3,0.8-0.6,1.3-0.6
		L87.1,68.6L87.1,68.6z M91.4,11h-3c-0.7,0-1.4-0.3-1.8-0.8c-0.5-0.5-0.8-1.1-0.8-1.8v-4H75.8v20.5h15.7L91.4,11L91.4,11z M88.3,6.5
		l1.7,2h-1.6c0,0-0.1,0-0.1,0c0,0,0-0.1,0-0.1V6.5z M87.1,2c0.4,0,0.8,0.2,1,0.5L93.5,9l0,0l0,0l0,0c0,0,0,0.1,0.1,0.1l0,0l0,0l0,0
		l0,0l0,0v0l0,0l0,0l0,0l0,0l0,0l0,0l0,0l0,0l0,0l0,0l0,0l0,0l0,0l0,0l0,0l0,0v0l0,0v0l0,0l0,0v0l0,0v0l0,0v0l0,0l0,0v0l0,0l0,0v0
		l0,0v0l0,0v0l0,0v0l0,0v0l0,0v15.7c0,0.5-0.2,0.9-0.5,1.2c0,0-0.1,0.1-0.1,0.1c-0.3,0.3-0.8,0.6-1.3,0.6H75.2c-0.5,0-1-0.2-1.3-0.6
		c-0.3-0.3-0.6-0.8-0.6-1.3l0-21.6c0-0.5,0.2-0.9,0.5-1.2c0,0,0.1-0.1,0.1-0.1C74.2,2.2,74.7,2,75.2,2H87.1L87.1,2z M41.8,64.3h4.4
		v-16h-4.4V64.3z M29,64.3h4.4V44.4H29V64.3z M16.1,64.3h4.4v-12h-4.4V64.3z M51.9,64.3c0.7,0,1.2,0.5,1.2,1.2
		c0,0.7-0.5,1.2-1.2,1.2l-41.5,0c-0.7,0-1.2-0.5-1.2-1.2c0-0.7,0.5-1.2,1.2-1.2h3.3V51.1c0-0.7,0.5-1.2,1.2-1.2h6.8
		c0.7,0,1.2,0.5,1.2,1.2v13.2h3.6V43.2c0-0.7,0.5-1.2,1.2-1.2h6.8c0.7,0,1.2,0.5,1.2,1.2v21.1h3.6V47.1c0-0.7,0.5-1.2,1.2-1.2h6.8
		c0.7,0,1.2,0.5,1.2,1.2v17.2L51.9,64.3L51.9,64.3z M4.6,21.8c-0.7,0-1.3,0.3-1.8,0.7l0,0c-0.5,0.5-0.7,1.1-0.7,1.8v47.5
		c0,0.7,0.3,1.3,0.7,1.8l0,0c0.5,0.5,1.1,0.7,1.8,0.7h53.2c0.7,0,1.3-0.3,1.8-0.7l0,0c0.5-0.5,0.7-1.1,0.7-1.8V24.3
		c0-0.7-0.3-1.3-0.7-1.8l0,0c-0.5-0.5-1.1-0.7-1.8-0.7H4.6z M57.8,34.5v37.2c0,0,0,0,0,0c0,0,0,0,0,0H4.6c0,0,0,0,0,0c0,0,0,0,0,0
		V34.5H57.8z M4.5,32.1h53.3v-7.8c0,0,0,0,0,0c0,0,0,0,0,0l-53.2,0c0,0,0,0,0,0c0,0,0,0,0,0V32.1z M67.6,85.5c0.7,0,1.2,0.5,1.2,1.2
		c0,0.7-0.5,1.2-1.2,1.2H31.2c-0.7,0-1.2-0.5-1.2-1.2v-7.2c0-0.7,0.5-1.2,1.2-1.2c0.7,0,1.2,0.5,1.2,1.2v6H67.6z M32.4,16.5
		c0,0.7-0.5,1.2-1.2,1.2c-0.7,0-1.2-0.5-1.2-1.2V9.2C30,8.6,30.5,8,31.2,8h36.4c0.7,0,1.2,0.5,1.2,1.2c0,0.7-0.5,1.2-1.2,1.2H32.4
		V16.5z M65.4,49.2c-0.7,0-1.2-0.5-1.2-1.2c0-0.7,0.5-1.2,1.2-1.2h4.3c0.7,0,1.2,0.5,1.2,1.2c0,0.7-0.5,1.2-1.2,1.2H65.4z"/>
</g>
</svg>
