<?xml version="1.0" encoding="utf-8"?>
<!-- Generator: Adobe Adobe Illustrator 29.2.0, SVG Export Plug-In . SVG Version: 6.00 Build 0)  -->
<svg version="1.1" id="Layer_1" xmlns:xlink="http://www.w3.org/1999/xlink" xmlns:serif="http://www.serif.com/"
	 xmlns="http://www.w3.org/2000/svg" x="0px" y="0px" width="96px" height="96px"
	 viewBox="0 0 96 96" style="enable-background:new 0 0 96 96;" xml:space="preserve">
<path d="M73.1,64.2c0-4.9-4-8.8-8.8-8.8c-4.9,0-8.8,4-8.8,8.8c0,4.9,4,8.8,8.8,8.8C69.1,73,73.1,69.1,73.1,64.2 M75.6,64.2
	c0,6.3-5.1,11.4-11.4,11.4c-6.3,0-11.4-5.1-11.4-11.4S58,52.8,64.3,52.8C70.5,52.8,75.6,57.9,75.6,64.2 M10.8,72.6
	c-0.9,0-1.6,0.7-1.6,1.6c0,0.9,0.7,1.6,1.6,1.6s1.6-0.7,1.6-1.6C12.4,73.3,11.7,72.6,10.8,72.6 M10.8,83.3c-0.9,0-1.6,0.7-1.6,1.6
	c0,0.9,0.7,1.6,1.6,1.6s1.6-0.7,1.6-1.6C12.4,84,11.7,83.3,10.8,83.3 M10.8,65.1c0.9,0,1.6-0.7,1.6-1.6c0-0.9-0.7-1.6-1.6-1.6
	s-1.6,0.7-1.6,1.6C9.1,64.4,9.9,65.1,10.8,65.1 M90.3,87.5c0-0.1,0-0.3-0.2-0.4l-9.8-9.8c-0.1-0.1-0.3-0.2-0.4-0.2
	c-0.1,0-0.3,0-0.4,0.2l-2.1,2.1c-0.1,0.1-0.2,0.3-0.2,0.4s0,0.3,0.2,0.4l9.8,9.8c0.1,0.1,0.3,0.2,0.4,0.2s0.3,0,0.4-0.2l2.1-2.1
	C90.3,87.8,90.3,87.6,90.3,87.5 M74.7,75.6l1.5,1.5l1-1l-1.5-1.5C75.4,75,75,75.3,74.7,75.6 M64.3,77.1c7.1,0,12.9-5.8,12.9-12.9
	c0-7.1-5.8-12.9-12.9-12.9c-7.1,0-12.9,5.8-12.9,12.9C51.4,71.3,57.1,77.1,64.3,77.1 M50.8,71.8c-1.3-2.2-2-4.8-2-7.6
	c0-8.5,6.9-15.5,15.5-15.5c3.6,0,7,1.3,9.6,3.4V16.9H64c-0.7,0-1.3-0.6-1.3-1.3V5.8H22.3v41.6c8.5,0.2,16.7,2.4,16.7,6.6v17.9H50.8z
	 M36.4,75.4v-7.2c-3.3,2-9.4,3-15.4,3c-6,0-12.1-1-15.4-3v7.2c0,1.4,5.4,4,15.4,4C31,79.5,36.4,76.8,36.4,75.4 M36.4,86.2V79
	c-3.3,2-9.4,3-15.4,3c-6,0-12.1-1-15.4-3v7.2c0,1.4,5.4,4,15.4,4C31,90.2,36.4,87.6,36.4,86.2 M5.7,64.7c0,1.4,5.4,4,15.4,4
	c10,0,15.4-2.7,15.4-4v-7.2c-3.3,2-9.4,3-15.4,3c-6,0-12.1-1-15.4-3V64.7z M5.7,53.9c0,1.4,5.4,4,15.4,4c10,0,15.4-2.7,15.4-4
	c0-1.4-5.4-4-15.4-4C11.1,49.9,5.7,52.5,5.7,53.9 M65.3,14.4h6.8l-6.8-6.8V14.4z M92.9,87.5c0,0.8-0.3,1.6-0.9,2.2l-2.1,2.1
	c-0.6,0.6-1.4,0.9-2.2,0.9c-0.8,0-1.6-0.3-2.2-0.9L75.6,82c-0.6-0.6-0.9-1.4-0.9-2.2c0-0.2,0-0.4,0.1-0.6l-2.1-2.1
	c-2.4,1.6-5.3,2.5-8.4,2.5c-4.6,0-8.8-2.1-11.6-5.3H39v11.9c0,4.3-9,6.6-17.9,6.6S3.1,90.5,3.1,86.2V53.9c0-4.1,8.1-6.3,16.6-6.6
	V4.5c0-0.7,0.6-1.3,1.3-1.3h43c0.3,0,0.7,0.1,0.9,0.4l11.2,11.2c0.2,0.2,0.4,0.6,0.4,0.9v39c2.1,2.6,3.3,5.9,3.3,9.5
	c0,3.1-0.9,6-2.5,8.4l2.1,2.1c0.2,0,0.4-0.1,0.6-0.1c0.8,0,1.6,0.3,2.2,0.9l9.8,9.8C92.5,85.9,92.9,86.7,92.9,87.5 M26.8,35.6h42.6
	c0.7,0,1.3-0.6,1.3-1.3S70.1,33,69.4,33H26.8c-0.7,0-1.3,0.6-1.3,1.3S26.1,35.6,26.8,35.6 M26.8,26.6h42.6c0.7,0,1.3-0.6,1.3-1.3
	c0-0.7-0.6-1.3-1.3-1.3H26.8c-0.7,0-1.3,0.6-1.3,1.3C25.5,26,26.1,26.6,26.8,26.6 M26.8,17.6h21.3c0.7,0,1.3-0.6,1.3-1.3
	S48.8,15,48.1,15H26.8c-0.7,0-1.3,0.6-1.3,1.3S26.1,17.6,26.8,17.6 M69.4,44.6H26.8c-0.7,0-1.3-0.6-1.3-1.3c0-0.7,0.6-1.3,1.3-1.3
	h42.6c0.7,0,1.3,0.6,1.3,1.3C70.6,44,70.1,44.6,69.4,44.6"/>
</svg>
