<?xml version="1.0" encoding="utf-8"?>
<!-- Generator: Adobe Adobe Illustrator 29.2.0, SVG Export Plug-In . SVG Version: 6.00 Build 0)  -->
<svg version="1.1" id="Layer_1" xmlns="http://www.w3.org/2000/svg" xmlns:xlink="http://www.w3.org/1999/xlink" x="0px" y="0px" width="96px" height="96px"
	 viewBox="0 0 96 96" style="enable-background:new 0 0 96 96;" xml:space="preserve">
<g>
	<path d="M72.1,44.9c1.2-0.7,2.7-0.7,3.9,0l16.1,9.3c1.2,0.7,1.9,1.9,1.9,3.4v18.5c0,1.5-0.8,2.7-1.9,3.4L76,88.8
		c-1.2,0.7-2.7,0.7-3.9,0L56,79.5c-1.2-0.7-1.9-1.9-1.9-3.4V61.8l2.6,1.5v12.8c0,0.4,0.1,0.8,0.5,1.1l0.1,0.1l16.1,9.3
		c0.4,0.3,0.9,0.3,1.3,0l16.1-9.3c0.4-0.3,0.7-0.7,0.7-1.2V57.6c0-0.5-0.3-0.9-0.7-1.2l-16.1-9.3c-0.4-0.3-0.9-0.3-1.3,0L61.6,54
		l-2.6-1.5L72.1,44.9z M20,44.9c1.2-0.7,2.7-0.7,3.9,0l12.5,7.2l-2.6,1.5l-11.2-6.5c-0.4-0.3-0.8-0.3-1.2-0.1l-0.1,0.1l-16,9.2
		c-0.4,0.3-0.7,0.7-0.7,1.3v18.5c0,0.5,0.3,0.9,0.7,1.2l16.1,9.3c0.4,0.3,0.9,0.3,1.3,0l16.1-9.3c0.4-0.3,0.7-0.7,0.7-1.2V62.6
		L42,61v15c0,1.3-0.7,2.5-1.6,3.3l-0.3,0.1L24,88.8c-1.2,0.7-2.7,0.7-3.9,0L3.9,79.5C2.8,78.8,2,77.6,2,76.1V57.6
		c0-1.5,0.8-2.7,1.9-3.4L20,44.9z M49.3,7.2c-1.2-0.7-2.7-0.7-3.9,0l-16.6,9.5c-1.2,0.7-1.9,1.9-1.9,3.4v20.7h2.6V20.2
		c0-0.5,0.3-0.9,0.7-1.2l16.6-9.5c0.4-0.3,0.9-0.3,1.3,0L64.6,19c0.4,0.3,0.7,0.7,0.7,1.2v20.6h2.6V20.2c0-1.5-0.8-2.7-1.9-3.4
		L49.3,7.2z"/>
	<path d="M45.4,23c1.2-0.7,2.7-0.7,3.9,0l3,1.6c1.2,0.7,1.9,1.9,1.9,3.4v3.5c0,1.5-0.8,2.7-1.9,3.4l-3,1.6c-0.3,0.1-0.4,0.3-0.7,0.3
		v10.6c0.4,0.1,0.7,0.3,0.9,0.4c1.5,0.8,2.2,2.3,2.2,3.9c0,0.4,0,0.7-0.1,1.1L67.7,62c0.1-0.1,0.4-0.3,0.7-0.5l3-1.6
		c1.2-0.7,2.7-0.7,3.9,0l3,1.6c1.2,0.7,1.9,1.9,1.9,3.4v3.5c0,1.5-0.8,2.7-1.9,3.4l-3,1.6c-1.2,0.7-2.7,0.7-3.9,0l-3-1.6
		c-1.2-0.7-1.9-1.9-1.9-3.4v-3.5c0-0.3,0-0.4,0-0.7l-15.9-9.1c-0.3,0.3-0.5,0.4-0.8,0.7c-1.5,0.8-3.1,0.8-4.6,0
		c-0.3-0.1-0.5-0.4-0.8-0.7l-8.7,5c-0.1,0-0.1,0.1-0.3,0.1l-7.2,4.2c0,0.3,0,0.4,0,0.7v3.5c0,1.5-0.8,2.7-1.9,3.4l-3,1.6
		c-1.2,0.7-2.7,0.7-3.9,0l-3-1.6c-1.2-0.7-1.9-1.9-1.9-3.4v-3.5c0-1.5,0.8-2.7,1.9-3.4l3-1.6c1.2-0.7,2.7-0.7,3.9,0l3,1.6
		c0.3,0.1,0.4,0.3,0.7,0.5l7.1-4.1c0.1,0,0.1-0.1,0.3-0.1l8.6-4.9c-0.1-0.4-0.1-0.7-0.1-1.1c0-1.5,0.9-3.1,2.2-3.9
		c0.3-0.1,0.7-0.3,0.9-0.4V37.3c-0.3-0.1-0.4-0.1-0.7-0.3l-3-1.6c-1.2-0.7-1.9-1.9-1.9-3.4v-3.5c0-1.5,0.8-2.7,1.9-3.4L45.4,23z
		 M74.1,62.2c-0.4-0.3-0.9-0.3-1.3,0l-3,1.6c-0.4,0.3-0.7,0.7-0.7,1.2v3.5c0,0.5,0.3,0.9,0.7,1.2l3,1.6c0.4,0.3,0.9,0.3,1.3,0l3-1.6
		c0.4-0.3,0.7-0.7,0.7-1.2V65c0-0.5-0.3-0.9-0.7-1.2L74.1,62.2z M21.9,62.2c-0.4-0.3-0.9-0.3-1.3,0l-3,1.6C17.3,64.1,17,64.5,17,65
		v3.5c0,0.5,0.3,0.9,0.7,1.2l3,1.6c0.4,0.3,0.9,0.3,1.3,0l3-1.6c0.4-0.3,0.7-0.7,0.7-1.2V65c0-0.5-0.3-0.9-0.7-1.2L21.9,62.2z
		 M48,25.2c-0.4-0.3-0.9-0.3-1.3,0l-3,1.6c-0.4,0.3-0.7,0.7-0.7,1.2v3.5c0,0.5,0.3,0.9,0.7,1.2l3,1.6c0.4,0.3,0.9,0.3,1.3,0l3-1.6
		c0.4-0.3,0.7-0.7,0.7-1.2V28c0-0.5-0.3-0.9-0.7-1.2L48,25.2z"/>
</g>
</svg>
