<?xml version="1.0" encoding="utf-8"?>
<!-- Generator: Adobe Adobe Illustrator 29.2.0, SVG Export Plug-In . SVG Version: 6.00 Build 0)  -->
<svg version="1.1" id="Layer_1" xmlns="http://www.w3.org/2000/svg" xmlns:xlink="http://www.w3.org/1999/xlink" x="0px" y="0px"
	 width="96px" height="96px" viewBox="0 0 96 96" style="enable-background:new 0 0 96 96;" xml:space="preserve">
<style type="text/css">
	.st0{stroke:#000000;stroke-miterlimit:10;}
</style>
<path class="st0" d="M94.1,39.3c-0.1-0.4-0.4-0.6-0.7-0.7l-7.7-0.6c-0.9-3.4-2.2-6.6-4-9.6l5.2-5.5c0.3-0.3,0.3-0.7,0.1-1
	c-3.3-5-7.6-9.2-12.5-12.6c-0.3-0.2-0.7-0.2-1,0.1l-5.8,5c-3-1.8-6.2-3.1-9.6-4l-0.3-7.6c0-0.4-0.3-0.7-0.7-0.8
	c-2.7-0.5-5.5-0.8-8.3-0.9c-3.2-0.1-6.4,0.2-9.5,0.8C39,2,38.7,2.3,38.7,2.7l-0.6,7.7c-3.4,0.9-6.6,2.2-9.6,4l-5.5-5.2
	c-0.3-0.3-0.7-0.3-1-0.1c-5,3.3-9.2,7.6-12.6,12.5c-0.2,0.3-0.2,0.7,0.1,1l5,5.8c-1.8,3-3.1,6.2-4,9.6l-7.6,0.3
	c-0.4,0-0.7,0.3-0.8,0.7c-0.5,2.7-0.8,5.5-0.9,8.3c-0.1,3.2,0.2,6.4,0.8,9.5C2,57,2.3,57.3,2.7,57.3l7.7,0.6c0.9,3.4,2.2,6.6,4,9.6
	l-5.2,5.5c-0.3,0.3-0.3,0.7-0.1,1c3.3,5,7.6,9.2,12.5,12.6c0.3,0.2,0.7,0.2,1-0.1l5.8-5c3,1.8,6.2,3.1,9.6,4l0.3,7.6
	c0,0.4,0.3,0.7,0.7,0.8c2.7,0.5,5.5,0.8,8.3,0.9c0.3,0,0.5,0,0.8,0c2.9,0,5.8-0.3,8.7-0.8c0.4-0.1,0.6-0.4,0.7-0.7l0.6-7.7
	c3.4-0.9,6.6-2.2,9.6-4l5.5,5.2c0.3,0.3,0.7,0.3,1,0.1c5-3.3,9.2-7.6,12.6-12.5c0.2-0.3,0.2-0.7-0.1-1l-5-5.8c1.8-3,3.1-6.2,4-9.6
	l7.6-0.3c0.4,0,0.7-0.3,0.8-0.7c0.5-2.7,0.8-5.5,0.9-8.3C94.9,45.6,94.7,42.4,94.1,39.3L94.1,39.3z M93.2,48.8
	c0,2.5-0.3,4.9-0.7,7.4L85,56.4c-0.4,0-0.7,0.3-0.8,0.6c-0.9,3.6-2.3,7.1-4.3,10.3c-0.2,0.3-0.2,0.7,0.1,1l5,5.8
	c-3.1,4.4-6.9,8.1-11.3,11.2l-5.5-5.1c-0.3-0.2-0.7-0.3-1-0.1c-3.2,1.9-6.7,3.4-10.3,4.3c-0.3,0.1-0.6,0.4-0.6,0.7l-0.6,7.6
	c-2.8,0.5-5.7,0.7-8.5,0.7c-2.5,0-4.9-0.3-7.4-0.7L39.6,85c0-0.4-0.3-0.7-0.6-0.8c-3.6-0.9-7.1-2.3-10.3-4.3c-0.3-0.2-0.7-0.2-1,0.1
	L22,85c-4.4-3.1-8.1-6.9-11.2-11.3l5.1-5.5c0.2-0.3,0.3-0.7,0.1-1c-1.9-3.2-3.4-6.7-4.3-10.3c-0.1-0.3-0.4-0.6-0.7-0.6l-7.6-0.6
	c-0.5-2.8-0.7-5.7-0.7-8.5c0-2.5,0.3-4.9,0.7-7.4l7.5-0.3c0.4,0,0.7-0.3,0.8-0.6c0.9-3.6,2.3-7.1,4.3-10.3c0.2-0.3,0.2-0.7-0.1-1
	L11,22c3.1-4.4,6.9-8.1,11.3-11.2l5.5,5.1c0.3,0.2,0.7,0.3,1,0.1c3.2-1.9,6.7-3.4,10.3-4.3c0.3-0.1,0.6-0.4,0.6-0.7l0.6-7.6
	c2.8-0.5,5.7-0.7,8.5-0.7c2.5,0,4.9,0.3,7.4,0.7l0.3,7.5c0,0.4,0.3,0.7,0.6,0.8c3.6,0.9,7.1,2.3,10.3,4.3c0.3,0.2,0.7,0.1,1-0.1
	l5.8-5c4.4,3.1,8.1,6.9,11.2,11.3l-5.1,5.5c-0.2,0.3-0.3,0.7-0.1,1c1.9,3.2,3.4,6.7,4.3,10.3c0.1,0.3,0.4,0.6,0.7,0.6l7.6,0.6
	C93.1,43,93.3,45.9,93.2,48.8L93.2,48.8z M48,17.5c-16.8,0-30.5,13.7-30.5,30.5S31.2,78.5,48,78.5S78.5,64.8,78.5,48
	S64.8,17.5,48,17.5z M48,76.9c-15.9,0-28.9-13-28.9-28.9s13-28.9,28.9-28.9s28.9,13,28.9,28.9S63.9,76.9,48,76.9z M47.5,30.8
	c-1.6,0-3.3,0.4-4.7,1.2c-1.4,0.8-2.7,2-3.5,3.4c-0.9,1.5-0.5,3.5,1,4.4c1.5,0.9,3.5,0.5,4.4-1c0.3-0.5,0.7-0.9,1.2-1.1
	c0.5-0.3,1-0.4,1.6-0.4c0.9,0,1.7,0.3,2.3,1c0.6,0.6,0.9,1.4,0.9,2.3c0,0.6-0.2,1.2-0.5,1.7c-0.3,0.5-0.8,0.9-1.4,1.2
	c-1.4,0.7-2.6,1.7-3.4,2.9c-0.8,1.3-1.2,2.8-1.2,4.3v2.4c0,1.8,1.4,3.2,3.2,3.2s3.2-1.4,3.2-3.2v-2.4c0-0.3,0.1-0.6,0.2-0.8
	c0.1-0.2,0.4-0.4,0.7-0.6c1.7-0.8,3.1-2,4.1-3.6c1-1.6,1.5-3.4,1.5-5.2c0-2.6-1-5-2.8-6.9C52.5,31.8,50.1,30.8,47.5,30.8L47.5,30.8z
	 M54.3,44.9c-0.8,1.3-2,2.3-3.4,3c-0.6,0.3-1,0.7-1.3,1.2c-0.3,0.5-0.5,1.1-0.5,1.7v2.4c0,0.9-0.7,1.6-1.6,1.6
	c-0.9,0-1.6-0.7-1.6-1.6v-2.4c0-1.2,0.3-2.4,1-3.4c0.6-1,1.6-1.8,2.7-2.3c0.8-0.4,1.6-1,2.1-1.8c0.5-0.8,0.8-1.7,0.8-2.6
	c0-1.3-0.5-2.5-1.4-3.5c-0.9-0.9-2.1-1.4-3.5-1.4c-0.8,0-1.7,0.2-2.4,0.6c-0.7,0.4-1.3,1-1.8,1.7c-0.5,0.7-1.4,1-2.2,0.5
	c-0.7-0.5-1-1.4-0.5-2.2c0.7-1.2,1.7-2.1,2.9-2.8c1.2-0.7,2.6-1,3.9-1c2.2,0,4.2,0.8,5.7,2.4c1.5,1.5,2.4,3.6,2.4,5.7
	C55.6,42.1,55.1,43.6,54.3,44.9L54.3,44.9z M47.5,58.7c-1.8,0-3.2,1.4-3.2,3.2v0.1c0,1.8,1.4,3.2,3.2,3.2s3.2-1.4,3.2-3.2v-0.1
	C50.7,60.1,49.3,58.7,47.5,58.7z M49.1,61.9c0,0.9-0.7,1.6-1.6,1.6c-0.9,0-1.6-0.7-1.6-1.6v-0.1c0-0.9,0.7-1.6,1.6-1.6
	C48.4,60.3,49.1,61,49.1,61.9L49.1,61.9z"/>
</svg>
