<?xml version="1.0" encoding="UTF-8"?>
<svg width="1200pt" height="1200pt" version="1.1" viewBox="0 0 1200 1200" xmlns="http://www.w3.org/2000/svg">
 <path d="m1070.9 1028.2h-941.72c-31.547 0-57.141-25.688-57.141-57.141v-742.08c0-31.547 25.688-57.141 57.141-57.141h941.63c31.547 0 57.141 25.688 57.141 57.141v742.08c0 31.547-25.688 57.141-57.141 57.141zm-941.72-820.31c-11.625 0-21.141 9.4688-21.141 21.141v742.08c0 11.625 9.4688 21.141 21.141 21.141h941.63c11.625 0 21.141-9.4688 21.141-21.141l-0.046875-742.13c0-11.625-9.4688-21.141-21.141-21.141z"/>
 <path d="m1110 402.61h-1020c-9.9375 0-18-8.0625-18-18s8.0625-18 18-18h1020c9.9375 0 18 8.0625 18 18s-8.0625 18-18 18z"/>
 <path d="m234.14 288.71c0 30.562-45.844 30.562-45.844 0s45.844-30.562 45.844 0"/>
 <path d="m211.22 329.76c-22.547 0-40.922-18.375-40.922-40.922s18.375-40.922 40.922-40.922 40.922 18.375 40.922 40.922-18.375 40.922-40.922 40.922zm0-45.984c-2.7656 0-4.9219 2.2969-4.9219 4.9219s2.2969 4.9219 4.9219 4.9219 4.9219-2.2969 4.9219-4.9219-2.2969-4.9219-4.9219-4.9219z"/>
 <path d="m359.76 288.71c0 30.562-45.844 30.562-45.844 0s45.844-30.562 45.844 0"/>
 <path d="m336.84 329.76c-22.547 0-40.922-18.375-40.922-40.922s18.375-40.922 40.922-40.922 40.922 18.375 40.922 40.922-18.375 40.922-40.922 40.922zm0-45.984c-2.7656 0-4.9219 2.2969-4.9219 4.9219s2.2969 4.9219 4.9219 4.9219 4.9219-2.2969 4.9219-4.9219-2.2969-4.9219-4.9219-4.9219z"/>
 <path d="m485.39 288.71c0 30.562-45.844 30.562-45.844 0s45.844-30.562 45.844 0"/>
 <path d="m462.47 329.76c-22.547 0-40.922-18.375-40.922-40.922s18.375-40.922 40.922-40.922 40.922 18.375 40.922 40.922-18.375 40.922-40.922 40.922zm0-45.984c-2.7656 0-4.9219 2.2969-4.9219 4.9219s2.2969 4.9219 4.9219 4.9219 4.9219-2.2969 4.9219-4.9219-2.2969-4.9219-4.9219-4.9219z"/>
 <path d="m423.71 807.47c-4.5469 0-9.2344-1.7812-12.703-5.2969l-109.31-109.31c-7.0781-7.0781-7.0781-18.469 0-25.453l106.08-106.08c7.0781-7.0781 18.469-7.0781 25.453 0 7.0781 7.0781 7.0781 18.469 0 25.453l-93.375 93.375 96.609 96.609c7.0781 7.0781 7.0781 18.469 0 25.453-3.4688 3.4688-8.1562 5.2969-12.703 5.2969z"/>
 <path d="m785.29 807.47c-4.5469 0-9.2344-1.7812-12.703-5.2969-7.0781-7.0781-7.0781-18.469 0-25.453l96.609-96.609-93.375-93.375c-7.0781-7.0781-7.0781-18.469 0-25.453 7.0781-7.0781 18.469-7.0781 25.453 0l106.08 106.08c3.375 3.375 5.2969 7.9219 5.2969 12.703s-1.9219 9.375-5.2969 12.703l-109.31 109.31c-3.4688 3.4688-8.1562 5.2969-12.703 5.2969z"/>
 <path d="m512.76 852.47c-3 0-6.1406-0.70312-8.8594-2.3906-8.625-4.9219-11.625-15.938-6.7031-24.609l174.37-305.29c4.9219-8.625 15.938-11.625 24.609-6.7031 8.625 4.9219 11.625 15.938 6.7031 24.609l-174.37 305.29c-3.375 5.7656-9.375 9.1406-15.609 9.1406z"/>
</svg>
