<svg xmlns="http://www.w3.org/2000/svg" xmlns:xlink="http://www.w3.org/1999/xlink" version="1.1" x="0px" y="0px" viewBox="0 0 72 72" style="enable-background:new 0 0 72 72;" xml:space="preserve"><g><g><path d="M58,68c-5.51,0-10-4.49-10-10s4.49-10,10-10c0.55,0,1,0.45,1,1s-0.45,1-1,1c-4.41,0-8,3.59-8,8s3.59,8,8,8s8-3.59,8-8    c0-0.55,0.45-1,1-1s1,0.45,1,1C68,63.51,63.51,68,58,68z"/></g><g><path d="M57,63c-0.26,0-0.52-0.1-0.71-0.29l-4-4c-0.39-0.39-0.39-1.02,0-1.41s1.02-0.39,1.41,0l3.23,3.23l9.3-11.16    c0.35-0.42,0.98-0.48,1.41-0.13c0.42,0.35,0.48,0.98,0.13,1.41l-10,12c-0.18,0.22-0.44,0.35-0.72,0.36C57.03,63,57.02,63,57,63z"/></g><g><path d="M58,42c-3.31,0-6-2.69-6-6s2.69-6,6-6s6,2.69,6,6S61.31,42,58,42z M58,32c-2.21,0-4,1.79-4,4s1.79,4,4,4s4-1.79,4-4    S60.21,32,58,32z"/></g><g><path d="M36,42c-3.31,0-6-2.69-6-6s2.69-6,6-6s6,2.69,6,6S39.31,42,36,42z M36,32c-2.21,0-4,1.79-4,4s1.79,4,4,4s4-1.79,4-4    S38.21,32,36,32z"/></g><g><path d="M36,20c-3.31,0-6-2.69-6-6s2.69-6,6-6s6,2.69,6,6S39.31,20,36,20z M36,10c-2.21,0-4,1.79-4,4s1.79,4,4,4s4-1.79,4-4    S38.21,10,36,10z"/></g><g><path d="M14,20c-3.31,0-6-2.69-6-6s2.69-6,6-6s6,2.69,6,6S17.31,20,14,20z M14,10c-2.21,0-4,1.79-4,4s1.79,4,4,4s4-1.79,4-4    S16.21,10,14,10z"/></g><g><path d="M9,15H4c-0.55,0-1-0.45-1-1s0.45-1,1-1h5c0.55,0,1,0.45,1,1S9.55,15,9,15z"/></g><g><path d="M31,15H19c-0.55,0-1-0.45-1-1s0.45-1,1-1h12c0.55,0,1,0.45,1,1S31.55,15,31,15z"/></g><g><path d="M36,32c-0.55,0-1-0.45-1-1V19c0-0.55,0.45-1,1-1s1,0.45,1,1v12C37,31.55,36.55,32,36,32z"/></g><g><path d="M53,37H41c-0.55,0-1-0.45-1-1s0.45-1,1-1h12c0.55,0,1,0.45,1,1S53.55,37,53,37z"/></g><g><path d="M58,46c-0.55,0-1-0.45-1-1v-4c0-0.55,0.45-1,1-1s1,0.45,1,1v4C59,45.55,58.55,46,58,46z"/></g><g><path d="M36,69c-0.55,0-1-0.45-1-1V45c0-0.55,0.45-1,1-1s1,0.45,1,1v23C37,68.55,36.55,69,36,69z"/></g><g><path d="M14,69c-0.55,0-1-0.45-1-1V23c0-0.55,0.45-1,1-1s1,0.45,1,1v45C15,68.55,14.55,69,14,69z"/></g><g><path d="M14,6c-0.55,0-1-0.45-1-1V4c0-0.55,0.45-1,1-1s1,0.45,1,1v1C15,5.55,14.55,6,14,6z"/></g><g><path d="M36,6c-0.55,0-1-0.45-1-1V4c0-0.55,0.45-1,1-1s1,0.45,1,1v1C37,5.55,36.55,6,36,6z"/></g><g><path d="M58,28c-0.55,0-1-0.45-1-1V4c0-0.55,0.45-1,1-1s1,0.45,1,1v23C59,27.55,58.55,28,58,28z"/></g></g></svg>