<?xml version="1.0" encoding="utf-8"?>
<!-- Generator: Adobe Adobe Illustrator 29.2.0, SVG Export Plug-In . SVG Version: 6.00 Build 0)  -->
<svg version="1.1" id="Layer_1" xmlns="http://www.w3.org/2000/svg" xmlns:xlink="http://www.w3.org/1999/xlink" x="0px" y="0px" width="96px" height="96px"
	 viewBox="0 0 96 96" style="enable-background:new 0 0 96 96;" xml:space="preserve">
<path d="M73.7,64.6c0-5-4.1-9.1-9.1-9.1c-5,0-9.1,4.1-9.1,9.1c0,5,4.1,9.1,9.1,9.1C69.7,73.7,73.7,69.6,73.7,64.6 M76.3,64.6
	c0,6.4-5.2,11.7-11.7,11.7C58.3,76.3,53,71,53,64.6c0-6.4,5.2-11.7,11.7-11.7C71.1,52.9,76.3,58.2,76.3,64.6 M9.8,73.2
	c-0.9,0-1.7,0.8-1.7,1.7c0,0.9,0.8,1.7,1.7,1.7c0.9,0,1.7-0.8,1.7-1.7C11.5,73.9,10.7,73.2,9.8,73.2 M9.8,84.2
	c-0.9,0-1.7,0.8-1.7,1.7c0,0.9,0.8,1.7,1.7,1.7c0.9,0,1.7-0.8,1.7-1.7C11.5,84.9,10.7,84.2,9.8,84.2 M9.8,65.5
	c0.9,0,1.7-0.8,1.7-1.7c0-0.9-0.8-1.7-1.7-1.7c-0.9,0-1.7,0.8-1.7,1.7C8.1,64.8,8.9,65.5,9.8,65.5 M91.4,88.6c0-0.1,0-0.3-0.2-0.4
	L81.1,78.1c-0.1-0.1-0.3-0.2-0.4-0.2s-0.3,0-0.4,0.2l-2.2,2.2C78,80.4,78,80.6,78,80.7c0,0.1,0,0.3,0.2,0.4l10.1,10.1
	c0.1,0.1,0.3,0.2,0.4,0.2c0.1,0,0.3,0,0.4-0.2l2.2-2.2C91.4,88.8,91.4,88.6,91.4,88.6 M75.4,76.3l1.5,1.5l1-1l-1.5-1.5
	C76.1,75.6,75.7,76,75.4,76.3 M64.7,77.9c7.3,0,13.2-5.9,13.2-13.2c0-7.3-5.9-13.2-13.2-13.2c-7.3,0-13.2,5.9-13.2,13.2
	C51.4,71.9,57.4,77.9,64.7,77.9 M50.9,72.4c-1.3-2.3-2.1-5-2.1-7.8c0-8.7,7.1-15.9,15.9-15.9c3.7,0,7.2,1.3,9.9,3.5V16.1H64.4
	c-0.7,0-1.3-0.6-1.3-1.3V4.7H21.6v42.6c8.7,0.2,17.1,2.5,17.1,6.7v18.4H50.9z M36.2,76.1v-7.4c-3.4,2-9.6,3.1-15.8,3.1
	c-6.2,0-12.4-1.1-15.8-3.1v7.4c0,1.4,5.6,4.1,15.8,4.1C30.6,80.3,36.2,77.5,36.2,76.1 M36.2,87.2v-7.4c-3.4,2-9.6,3.1-15.8,3.1
	c-6.2,0-12.4-1.1-15.8-3.1v7.4c0,1.4,5.6,4.1,15.8,4.1C30.6,91.3,36.2,88.6,36.2,87.2 M4.6,65.1c0,1.4,5.6,4.1,15.8,4.1
	c10.2,0,15.8-2.7,15.8-4.1v-7.4c-3.4,2-9.6,3.1-15.8,3.1c-6.2,0-12.4-1.1-15.8-3.1V65.1z M4.6,54c0,1.4,5.6,4.1,15.8,4.1
	c10.2,0,15.8-2.7,15.8-4.1c0-1.4-5.6-4.1-15.8-4.1C10.2,49.9,4.6,52.6,4.6,54 M65.7,13.5h7l-7-7V13.5z M94,88.6
	c0,0.8-0.3,1.6-0.9,2.2L90.9,93c-0.6,0.6-1.4,0.9-2.2,0.9c-0.8,0-1.6-0.3-2.2-0.9L76.3,82.9c-0.6-0.6-0.9-1.4-0.9-2.2
	c0-0.2,0-0.4,0.1-0.6l-2.1-2.1c-2.5,1.6-5.4,2.5-8.6,2.5c-4.8,0-9-2.1-11.9-5.4h-14v12.2c0,4.4-9.2,6.7-18.4,6.7S2,91.6,2,87.2V54
	c0-4.2,8.3-6.5,17-6.7V3.4c0-0.7,0.6-1.3,1.3-1.3h44.1c0.3,0,0.7,0.1,0.9,0.4l11.4,11.4c0.2,0.2,0.4,0.6,0.4,0.9v40
	c2.1,2.7,3.4,6.1,3.4,9.8c0,3.2-0.9,6.1-2.5,8.6l2.1,2.1c0.2,0,0.4-0.1,0.6-0.1c0.8,0,1.6,0.3,2.2,0.9l10.1,10.1
	C93.7,86.9,94,87.7,94,88.6 M26.2,35.2h43.7c0.7,0,1.3-0.6,1.3-1.3s-0.6-1.3-1.3-1.3H26.2c-0.7,0-1.3,0.6-1.3,1.3
	S25.5,35.2,26.2,35.2 M26.2,26h43.7c0.7,0,1.3-0.6,1.3-1.3c0-0.7-0.6-1.3-1.3-1.3H26.2c-0.7,0-1.3,0.6-1.3,1.3
	C24.9,25.4,25.5,26,26.2,26 M26.2,16.8h21.8c0.7,0,1.3-0.6,1.3-1.3s-0.6-1.3-1.3-1.3H26.2c-0.7,0-1.3,0.6-1.3,1.3
	S25.5,16.8,26.2,16.8 M69.9,44.5H26.2c-0.7,0-1.3-0.6-1.3-1.3c0-0.7,0.6-1.3,1.3-1.3h43.7c0.7,0,1.3,0.6,1.3,1.3
	C71.2,43.9,70.6,44.5,69.9,44.5"/>
</svg>
