<?xml version="1.0" encoding="UTF-8"?>
<svg width="1200pt" height="1200pt" version="1.1" viewBox="0 0 1200 1200" xmlns="http://www.w3.org/2000/svg">
 <path d="m904.88 1040h-287.32c-7.8047 0-14.145-6.3398-14.145-14.145v-143.17c0-7.8047 6.3398-14.145 14.145-14.145l287.32-0.003906c47.316 0 85.609 38.535 85.609 85.609s-38.293 85.855-85.609 85.855zm-273.17-28.047h273.17c31.707 0 57.562-25.855 57.562-57.562-0.003906-31.707-25.855-57.562-57.562-57.562h-273.17z" fill-rule="evenodd"/>
 <path d="m351.95 1021c-2.9258 0.48828-128.78-29.512-131.71-29.758-6.3398-1.4648-10.977-7.0742-10.977-13.66v-45.121c0-6.5859 4.3906-12.195 10.73-13.66l128.78-30.242c8.5352-2.1953 17.562 4.8789 17.316 13.66 0 4.1445 3.6602 7.8047 7.8047 7.8047h243.66c7.8047 0 14.145 6.3398 14.145 14.145 0 7.8047-6.3398 14.145-14.145 14.145h-243.66c-13.172 0.24219-25.609-7.5625-31.707-19.023l-104.63 24.633v22.926l104.63 23.902c6.0977-11.465 18.047-19.27 31.707-19.27h243.66c7.8047 0 14.145 6.3398 14.145 14.145 0 7.8047-6.3398 14.145-14.145 14.145h-243.66c-13.902 0.011718-1.2188 19.277-21.949 21.23z" fill-rule="evenodd"/>
 <path d="m600 587.56c-51.707 0-93.902-42.195-93.902-93.902 0-51.707 42.195-93.902 93.902-93.902s93.902 42.195 93.902 93.902c0 51.707-42.195 93.902-93.902 93.902zm0-159.76c-36.34 0-65.609 29.512-65.609 65.609 0 36.098 29.512 65.609 65.609 65.609s65.609-29.512 65.609-65.609c0-36.098-29.512-65.609-65.609-65.609z" fill-rule="evenodd"/>
 <path d="m628.78 739.76h-57.562c-19.27 0-35.121-15.855-35.121-35.121v-55.609c-0.24219 0-0.48828-0.24219-0.73047-0.24219l-39.27 39.27c-6.8281 6.8281-15.855 10.242-24.879 10.242s-18.047-3.4141-24.879-10.242l-40.73-40.73c-6.5859-6.5859-10.242-15.367-10.242-24.879 0-9.5117 3.6602-18.293 10.242-24.879l39.27-39.27c0-0.24219-0.24219-0.48828-0.24219-0.73047h-55.609c-19.27 0-35.121-15.855-35.121-35.121v-57.562c0-19.27 15.855-35.121 35.121-35.121h55.609c0-0.24219 0.24219-0.48828 0.24219-0.73047l-39.27-39.27c-6.5859-6.5859-10.242-15.367-10.242-24.879 0-9.5117 3.6602-18.293 10.242-24.879l40.73-40.73c13.66-13.66 35.855-13.66 49.512 0l39.27 39.27c0.24219 0 0.48828-0.24219 0.73047-0.24219v-55.609c0-19.27 15.855-35.121 35.121-35.121h57.562c19.27 0 35.121 15.855 35.121 35.121v55.609c0.24219 0 0.48828 0.24219 0.73047 0.24219l39.27-39.27c13.66-13.66 35.855-13.66 49.512 0l40.73 40.73c13.66 13.66 13.66 35.855 0 49.512l-39.27 39.27c0 0.24219 0.24219 0.48828 0.24219 0.73047h55.609c19.27 0 35.121 15.855 35.121 35.121v57.562c0 19.27-15.855 35.121-35.121 35.121h-55.609c0 0.24219-0.24219 0.48828-0.24219 0.73047l39.27 39.27c6.5859 6.5859 10.242 15.367 10.242 24.879s-3.6602 18.293-10.242 24.879l-40.73 40.73c-6.5859 6.5859-15.367 10.242-24.879 10.242-9.5117 0-18.293-3.6602-24.879-10.242l-39.27-39.27c-0.24219 0-0.48828 0.24219-0.73047 0.24219v55.609c0.25 19.512-15.363 35.367-34.629 35.367zm-96.586-121.95c7.8047 0.73047 14.633 6.3398 22.438 8.293 5.6094 1.9531 9.5117 7.3164 9.5117 13.414v65.367c0 3.9023 3.1719 7.0742 7.0742 7.0742h57.562c3.9023 0 7.0742-3.1719 7.0742-7.0742v-65.367c0-6.0977 3.9023-11.465 9.5117-13.414 5.6094-1.9531 10.977-4.1445 16.34-6.8281 5.3672-2.6836 11.953-1.4648 16.098 2.6836l46.098 46.098c1.707 1.707 3.9023 1.9531 4.8789 1.9531s3.1719-0.24219 4.8789-1.9531l40.73-40.73c1.707-1.707 1.9531-3.9023 1.9531-4.8789 0-0.97656-0.24219-3.1719-1.9531-4.8789l-46.098-46.098c-4.1445-4.1445-5.3672-10.73-2.6836-16.098 2.6836-5.3672 4.8789-10.73 6.8281-16.34 1.9531-5.6094 7.3164-9.5117 13.414-9.5117h65.367c3.9023 0 7.0742-3.1719 7.0742-7.0742v-57.562c0-3.9023-3.1719-7.0742-7.0742-7.0742h-65.367c-6.0977 0-11.465-3.9023-13.414-9.5117-1.9531-5.6094-4.1445-10.977-6.8281-16.34-2.6836-5.3672-1.4648-11.953 2.6836-16.098l46.098-46.098c2.6836-2.6836 2.6836-7.0742 0-10l-40.73-40.73c-2.6836-2.6836-7.0742-2.6836-9.7578 0l-46.098 46.098c-4.1445 4.1445-10.73 5.3672-16.098 2.6836-5.3672-2.6836-10.73-4.8789-16.34-6.8281-5.6094-1.9531-9.5117-7.3164-9.5117-13.414v-65.367c0-3.9023-3.1719-7.0742-7.0742-7.0742h-57.562c-3.9023 0-7.0742 3.1719-7.0742 7.0742v65.367c0 6.0977-3.9023 11.465-9.5117 13.414-5.6094 1.9531-10.977 4.1445-16.34 6.8281-5.3672 2.6836-11.953 1.4648-16.098-2.6836l-46.098-46.098c-2.6836-2.6836-7.0742-2.6836-10 0l-40.73 40.73c-1.707 1.707-1.9531 3.9023-1.9531 4.8789 0 0.97656 0.24219 3.1719 1.9531 4.8789l46.098 46.098c4.1445 4.1445 5.3672 10.73 2.6836 16.098-2.6836 5.3672-4.8789 10.73-6.8281 16.34-1.9531 5.6094-7.3164 9.5117-13.414 9.5117h-65.367c-3.9023 0-7.0742 3.1719-7.0742 7.0742v57.562c0 3.9023 3.1719 7.0742 7.0742 7.0742h65.367c6.0977 0 11.465 3.9023 13.414 9.5117 1.9531 5.6094 4.1445 10.977 6.8281 16.34 2.6836 5.3672 1.4648 11.953-2.6836 16.098l-46.098 46.098c-1.707 1.707-1.9531 3.9023-1.9531 4.8789 0 0.97656 0.24219 3.1719 1.9531 4.8789l40.73 40.73c2.6836 2.6836 7.0742 2.6836 10 0l46.098-46.098c2.6836-2.4414 6.3398-3.9062 10-3.9062z" fill-rule="evenodd"/>
 <path d="m884.63 823.66h-569.27c-25.121 0-45.367-20.242-45.367-45.367v-569.27c0-25.121 20.242-45.367 45.367-45.367h569.27c25.121 0 45.367 20.242 45.367 45.367v569.27c-0.003906 25.121-20.492 45.367-45.371 45.367zm-569.27-631.95c-9.5117 0-17.316 7.8047-17.316 17.316v569.27c0 9.5117 7.8047 17.316 17.316 17.316h569.27c9.5117 0 17.316-7.8047 17.316-17.316v-569.27c0-9.5117-7.8047-17.316-17.316-17.316z" fill-rule="evenodd"/>
 <path d="m283.9 348.78h-69.023c-7.8047 0-14.145-6.3398-14.145-14.145 0-7.8047 6.3398-14.145 14.145-14.145h69.27c7.8047 0 14.145 6.3398 14.145 14.145-0.24609 7.8008-6.5859 14.145-14.391 14.145z" fill-rule="evenodd"/>
 <path d="m283.9 507.8h-69.023c-7.8047 0-14.145-6.3398-14.145-14.145 0-7.8047 6.3398-14.145 14.145-14.145h69.27c7.8047 0 14.145 6.3398 14.145 14.145 0 7.8047-6.5859 14.145-14.391 14.145z" fill-rule="evenodd"/>
 <path d="m283.9 666.59h-69.023c-7.8047 0-14.145-6.3398-14.145-14.145 0-7.8047 6.3398-14.145 14.145-14.145h69.27c7.8047 0 14.145 6.3398 14.145 14.145-0.24609 8.0469-6.5859 14.145-14.391 14.145z" fill-rule="evenodd"/>
 <path d="m986.59 348.78h-70.488c-7.8047 0-14.145-6.3398-14.145-14.145 0-7.8047 6.3398-14.145 14.145-14.145h70.488c7.8047 0 14.145 6.3398 14.145 14.145 0 7.8008-6.5859 14.145-14.145 14.145z" fill-rule="evenodd"/>
 <path d="m986.59 507.8h-70.488c-7.8047 0-14.145-6.3398-14.145-14.145 0-7.8047 6.3398-14.145 14.145-14.145h70.488c7.8047 0 14.145 6.3398 14.145 14.145 0 7.8047-6.5859 14.145-14.145 14.145z" fill-rule="evenodd"/>
 <path d="m986.59 666.59h-70.488c-7.8047 0-14.145-6.3398-14.145-14.145 0-7.8047 6.3398-14.145 14.145-14.145h70.488c7.8047 0 14.145 6.3398 14.145 14.145-0.24219 8.0469-6.5859 14.145-14.145 14.145z" fill-rule="evenodd"/>
 <path d="m1011.2 373.66c-21.465 0-38.781-17.562-38.781-38.781s17.562-38.781 38.781-38.781 38.781 17.562 38.781 38.781c0.24219 21.219-17.316 38.781-38.781 38.781zm0-49.758c-5.8555 0-10.73 4.8789-10.73 10.73 0 5.8555 4.8789 10.73 10.73 10.73 5.8555 0 10.73-4.8789 10.73-10.73 0.003906-5.8516-4.6328-10.73-10.73-10.73z" fill-rule="evenodd"/>
 <path d="m1011.2 532.44c-21.465 0-38.781-17.562-38.781-38.781s17.562-38.781 38.781-38.781 38.781 17.562 38.781 38.781c0.24219 21.465-17.316 38.781-38.781 38.781zm0-49.512c-5.8555 0-10.73 4.8789-10.73 10.73 0 5.8555 4.8789 10.73 10.73 10.73 5.8555 0 10.73-4.8789 10.73-10.73 0.24609-5.8516-4.6328-10.73-10.73-10.73z" fill-rule="evenodd"/>
 <path d="m1011.2 691.46c-21.465 0-38.781-17.562-38.781-38.781s17.562-38.781 38.781-38.781 38.781 17.562 38.781 38.781c0.24219 21.461-17.316 38.781-38.781 38.781zm0-49.512c-5.8555 0-10.73 4.8789-10.73 10.73 0 5.8555 4.8789 10.73 10.73 10.73 5.8555 0 10.73-4.8789 10.73-10.73 0.003906-5.8555-4.6328-10.73-10.73-10.73z" fill-rule="evenodd"/>
 <path d="m190 373.66c-21.465 0-38.781-17.562-38.781-38.781s17.562-38.781 38.781-38.781 38.781 17.562 38.781 38.781-17.316 38.781-38.781 38.781zm0-49.758c-5.8555 0-10.73 4.8789-10.73 10.73 0 5.8555 4.8789 10.73 10.73 10.73 5.8555 0 10.73-4.8789 10.73-10.73 0-5.8516-4.875-10.73-10.73-10.73z" fill-rule="evenodd"/>
 <path d="m190 532.44c-21.465 0-38.781-17.562-38.781-38.781s17.562-38.781 38.781-38.781 38.781 17.562 38.781 38.781c0 21.223-17.316 38.781-38.781 38.781zm0-49.512c-5.8555 0-10.73 4.8789-10.73 10.73 0 5.8555 4.8789 10.73 10.73 10.73 5.8555 0 10.73-4.8789 10.73-10.73s-4.875-10.73-10.73-10.73z" fill-rule="evenodd"/>
 <path d="m190 691.46c-21.465 0-38.781-17.562-38.781-38.781s17.562-38.781 38.781-38.781 38.781 17.562 38.781 38.781-17.316 38.781-38.781 38.781zm0-49.512c-5.8555 0-10.73 4.8789-10.73 10.73 0 5.8555 4.8789 10.73 10.73 10.73 5.8555 0 10.73-4.8789 10.73-10.73 0-6.0977-4.875-10.73-10.73-10.73z" fill-rule="evenodd"/>
</svg>
