<?xml version="1.0" encoding="utf-8"?>
<!-- Generator: Adobe Adobe Illustrator 29.2.0, SVG Export Plug-In . SVG Version: 6.00 Build 0)  -->
<svg version="1.1" id="Layer_1" xmlns="http://www.w3.org/2000/svg" xmlns:xlink="http://www.w3.org/1999/xlink" x="0px" y="0px"
	 width="96px" height="96px" viewBox="0 0 96 96" style="enable-background:new 0 0 96 96;" xml:space="preserve">
<style type="text/css">
	.st0{fill-rule:evenodd;clip-rule:evenodd;}
</style>
<path class="st0" d="M75.5,37.8c0,0,0-0.1,0.1-0.1c1-1.6,1.8-3.3,2.3-5.1c1.2-4.4,0.7-9.3-1.8-13.6c0,0,0,0,0-0.1
	c-0.1-0.3-0.3-0.5-0.5-0.8c0,0-0.1-0.1-0.1-0.2c-2.5-3.8-6.2-6.4-10.4-7.5c-4.4-1.2-9.3-0.7-13.6,1.8c0,0,0,0-0.1,0
	c-4.3,2.5-7.2,6.5-8.4,10.9c-1.2,4.4-0.7,9.3,1.7,13.6c0,0.1,0.1,0.1,0.1,0.2c2.5,4.3,6.5,7.1,10.9,8.3
	C63.3,47.3,71.3,44.3,75.5,37.8L75.5,37.8z M12.8,5h4.9v30h0c0,0.5,0.2,0.9,0.6,1.2c0.7,0.5,1.6,0.3,2.1-0.4l7.8-11.2l7.7,11
	c0.3,0.4,0.7,0.8,1.3,0.8c0.8,0,1.5-0.7,1.5-1.5l0-30h36.6v8.1c-2.6-2.7-5.9-4.5-9.4-5.4c-5.1-1.4-10.8-0.8-15.8,2
	c-0.1,0-0.2,0.1-0.2,0.1c-5,2.9-8.3,7.5-9.7,12.7c-1.4,5.2-0.8,10.9,2.1,15.9l0,0c2.9,5,7.5,8.4,12.7,9.8c4.7,1.3,9.9,0.9,14.6-1.4
	l3.6,6.3l-0.2,0.1c-0.1,0-0.2,0.1-0.2,0.1c-1,0.6-1.7,1.6-2,2.7c-0.3,1.1-0.2,2.3,0.4,3.3c0,0.1,0.1,0.2,0.1,0.2l3.9,6.7v9.1
	l-62.5,0L12.8,5z M9.9,75.5V5.1C8.7,5.4,7.7,6,6.9,6.8C5.7,8,5,9.6,5,11.4v66.6C6.3,76.7,8,75.8,9.9,75.5L9.9,75.5z M43.1,81.6
	c0.8,0,1.5,0.7,1.5,1.5c0,0.8-0.7,1.5-1.5,1.5H18.4c-0.8,0-1.5-0.7-1.5-1.5c0-0.8,0.7-1.5,1.5-1.5H43.1z M64.5,86.1
	c0.8,0,1.5,0.7,1.5,1.5S65.3,89,64.5,89H39.8c-0.8,0-1.5-0.7-1.5-1.5s0.7-1.5,1.5-1.5H64.5z M72.2,45.3c1.1-0.8,2.2-1.6,3.1-2.6v7.9
	L72.2,45.3z M49.4,36.9c-0.8,0-1.5-0.7-1.5-1.5c0-0.8,0.7-1.5,1.5-1.5h22.2c0.8,0,1.5,0.7,1.5,1.5c0,0.8-0.7,1.5-1.5,1.5H49.4z
	 M49.4,21.9c-0.8,0-1.5-0.7-1.5-1.5c0-0.8,0.7-1.5,1.5-1.5h22.2c0.8,0,1.5,0.7,1.5,1.5c0,0.8-0.7,1.5-1.5,1.5H49.4z M49.4,29.4
	c-0.8,0-1.5-0.7-1.5-1.5s0.7-1.5,1.5-1.5h22.2c0.8,0,1.5,0.7,1.5,1.5s-0.7,1.5-1.5,1.5H49.4z M20.7,5v25.3l6.3-9
	c0.1-0.1,0.2-0.3,0.4-0.4c0.7-0.5,1.6-0.3,2.1,0.4l6.3,9l0-25.3L20.7,5z M78.3,39v11.9c0.4,0,0.9,0,1.3,0.2c1.1,0.3,2.1,1,2.7,2.1
	l0,0l11,19.1c0.6,1.1,0.8,2.3,0.5,3.4c-0.3,1.1-1,2.1-2.1,2.8l-3.1,1.8c0,0-0.1,0-0.1,0.1c-1.1,0.6-2.3,0.7-3.3,0.4
	c-1.1-0.3-2.1-1-2.8-2.1c0,0,0-0.1,0-0.1l-4.1-7.1v5.8c0,0.8-0.7,1.5-1.5,1.5c-1.7,0-3.2,0.7-4.2,1.8s-1.8,2.6-1.8,4.2
	s0.7,3.2,1.8,4.2c1.1,1.1,2.6,1.8,4.2,1.8c0.8,0,1.5,0.7,1.5,1.5v0.3c0,0.8-0.7,1.5-1.5,1.5l-65.5,0c-2.6,0-4.9-1-6.6-2.7
	c-1.7-1.7-2.7-4-2.7-6.6l0-73.4c0-2.6,1.1-4.9,2.8-6.6S8.8,2,11.4,2h65.4c0.8,0,1.5,0.7,1.5,1.5v13.4c0.1,0.2,0.2,0.3,0.3,0.5
	c0,0.1,0.1,0.1,0.1,0.2c2.8,5,3.4,10.6,2,15.8C80.2,35.3,79.4,37.2,78.3,39L78.3,39z M73.8,56.8c-0.1,0.4-0.1,0.8,0.2,1.2h0l0,0
	l4.1,7.1c0.1,0.1,0.1,0.2,0.1,0.2L84.9,77c0,0,0,0,0,0.1c0.2,0.4,0.6,0.6,1,0.7c0.4,0.1,0.8,0.1,1.1-0.1c0,0,0,0,0.1,0l3.1-1.8
	c0.4-0.2,0.6-0.6,0.7-1c0.1-0.4,0.1-0.8-0.2-1.2l-11-19.1h0l0,0c-0.2-0.4-0.6-0.6-1-0.7C77.5,53.5,74,56,73.8,56.8L73.8,56.8z
	 M11.3,91h59.2c-1.6-1.6-2.6-3.9-2.6-6.3c0-2.5,1-4.7,2.6-6.3l-59.2,0c-1.7,0-3.3,0.7-4.5,1.9c-2.5,2.5-2.5,6.4,0,8.9
	C8,90.3,9.6,91,11.3,91L11.3,91z"/>
</svg>
