<?xml version="1.0" encoding="UTF-8"?><svg id="Layer_1" xmlns="http://www.w3.org/2000/svg" viewBox="0 0 792 612"><defs><style>.cls-1,.cls-2,.cls-3,.cls-4,.cls-5,.cls-6,.cls-7,.cls-8,.cls-9{stroke-miterlimit:10;}.cls-1,.cls-2,.cls-3,.cls-4,.cls-5,.cls-7{stroke:#1d1e1c;}.cls-1,.cls-5{stroke-width:4px;}.cls-1,.cls-7,.cls-9,.cls-10{fill:#1d1e1c;}.cls-2{fill:#3c3c3b;}.cls-2,.cls-4,.cls-8,.cls-9{stroke-width:.25px;}.cls-3{fill:#e42528;}.cls-3,.cls-6{stroke-width:2px;}.cls-4,.cls-5,.cls-6{fill:#fff;}.cls-6,.cls-9{stroke:#fff;}.cls-8{fill:#008c39;stroke:#026634;}.cls-11{fill:#676767;}</style></defs><path class="cls-4" d="M386.054067,216.969625h14.768767c.2883,0,.523615.265521.52938.597334l.02426,1.396331c.006864.395094-.106817.780453-.321264,1.089031l-.726914,1.045992c-.017777.02558-.027462.057364-.027462.090123v2.11165c0,.561121-.395149,1.016-.882589,1.016h-11.994162c-.487441,0-.882589-.454879-.882589-1.016v-1.96016c0-.029793-.008013-.058856-.022938-.083197l-.775615-1.264879c-.186563-.304248-.280557-.67094-.267364-1.043041l.049445-1.39452c.011583-.326688.245018-.584664.529045-.584664Z"/><path class="cls-4" d="M387.397574,218.225517h12.144676c.237076,0,.43058.183512.435321.412842l.019949.965061c.005645.273065-.087838.539403-.264182.752674l-.597757.722928c-.014619.01768-.022583.039647-.022583.062288v1.459448c0,.387814-.324939.702199-.725772.702199h-9.863058c-.400833,0-.725772-.314385-.725772-.702199v-1.354747c0-.020591-.006589-.040678-.018863-.057501l-.637805-.87421c-.153415-.210278-.230708-.463714-.219859-.720889l.04066-.96381c.009525-.225787.201484-.404085.435045-.404085Z"/><rect class="cls-2" x="341.427977" y="206.818098" width="103.995168" height="8.624063"/><rect class="cls-8" x="367.426769" y="225.82209" width="51.997584" height="1.841702"/><rect class="cls-1" x="292.99105" y="376.88202" width="54.549803" height="119.179461" rx="5.044586" ry="5.044586"/><rect class="cls-9" x="300.995641" y="386.368943" width="38.540622" height="11.858653"/><rect class="cls-9" x="300.995641" y="400.895792" width="38.540622" height="15.712715"/><circle class="cls-9" cx="320.265952" cy="462.857254" r="8.301057"/><circle class="cls-6" cx="320.265952" cy="462.857254" r="4.368977"/><rect class="cls-5" x="363.516103" y="374.51029" width="150.011959" height="93.090425"/><rect class="cls-10" x="425.181098" y="468.193647" width="26.681969" height="31.42543"/><polygon class="cls-7" points="438.522082 483.153603 415.444146 499.619077 461.600019 499.619077 438.522082 483.153603"/><line class="cls-3" x1="393.425561" y1="249.215758" x2="393.425561" y2="344.828812"/><path class="cls-11" d="M411.175781,250.761719v5.588867c0,2.115234.938477,3.011719,2.199219,3.011719,1.400391,0,2.296875-.923828,2.296875-3.011719v-5.588867h1.233398v5.504883c0,2.900391-1.527344,4.09082-3.572266,4.09082-1.932617,0-3.389648-1.106445-3.389648-4.03418v-5.561523h1.232422Z"/><path class="cls-11" d="M418.84668,258.71875c.545898.335938,1.344727.616211,2.185547.616211,1.246094,0,1.974609-.658203,1.974609-1.611328,0-.882812-.503906-1.386719-1.779297-1.876953-1.540039-.545898-2.493164-1.344727-2.493164-2.675781,0-1.470703,1.21875-2.5625,3.053711-2.5625.966797,0,1.666992.223633,2.086914.461914l-.335938.994141c-.307617-.167969-.938477-.448242-1.792969-.448242-1.288086,0-1.77832.770508-1.77832,1.415039,0,.882812.574219,1.316406,1.876953,1.821289,1.59668.616211,2.40918,1.386719,2.40918,2.773438,0,1.457031-1.079102,2.716797-3.305664,2.716797-.911133,0-1.905273-.265625-2.410156-.601562l.308594-1.022461Z"/><path class="cls-11" d="M425.916992,250.887695c.532227-.111328,1.373047-.195312,2.227539-.195312,1.21875,0,2.00293.209961,2.59082.685547.490234.364258.785156.924805.785156,1.666992,0,.911133-.602539,1.708984-1.597656,2.073242v.02832c.896484.223633,1.947266.966797,1.947266,2.367188,0,.8125-.322266,1.428711-.797852,1.890625-.65918.602539-1.723633.882812-3.263672.882812-.84082,0-1.485352-.055664-1.891602-.112305v-9.287109ZM427.135742,254.753906h1.106445c1.289062,0,2.044922-.671875,2.044922-1.583008,0-1.106445-.839844-1.540039-2.073242-1.540039-.55957,0-.881836.041992-1.078125.083984v3.039062ZM427.135742,259.27832c.238281.041992.587891.056641,1.022461.056641,1.260742,0,2.423828-.462891,2.423828-1.834961,0-1.289062-1.107422-1.821289-2.4375-1.821289h-1.008789v3.599609Z"/><path class="cls-11" d="M444.428711,256.056641c-.069336-1.316406-.15332-2.899414-.139648-4.076172h-.041992c-.322266,1.106445-.714844,2.283203-1.19043,3.585938l-1.666992,4.581055h-.924805l-1.526367-4.49707c-.448242-1.330078-.827148-2.548828-1.092773-3.669922h-.02832c-.02832,1.176758-.097656,2.759766-.181641,4.174805l-.25293,4.047852h-1.162109l.658203-9.441406h1.554688l1.611328,4.566406c.391602,1.163086.713867,2.199219.952148,3.179688h.041992c.238281-.952148.574219-1.988281.995117-3.179688l1.680664-4.566406h1.554688l.587891,9.441406h-1.19043l-.238281-4.146484Z"/><path class="cls-11" d="M449.227539,251.518555c.013672.419922-.293945.755859-.78418.755859-.43457,0-.743164-.335938-.743164-.755859,0-.43457.322266-.770508.770508-.770508.462891,0,.756836.335938.756836.770508ZM447.854492,260.203125v-6.779297h1.232422v6.779297h-1.232422Z"/><path class="cls-11" d="M451.129883,255.258789c0-.701172-.013672-1.275391-.055664-1.834961h1.092773l.069336,1.120117h.02832c.335938-.644531,1.120117-1.274414,2.241211-1.274414.938477,0,2.395508.560547,2.395508,2.885742v4.047852h-1.233398v-3.908203c0-1.092773-.405273-2.00293-1.568359-2.00293-.8125,0-1.442383.574219-1.65332,1.260742-.055664.154297-.083984.364258-.083984.574219v4.076172h-1.232422v-4.944336Z"/><path class="cls-11" d="M460.273438,251.518555c.013672.419922-.293945.755859-.78418.755859-.43457,0-.743164-.335938-.743164-.755859,0-.43457.322266-.770508.770508-.770508.462891,0,.756836.335938.756836.770508ZM458.900391,260.203125v-6.779297h1.232422v6.779297h-1.232422Z"/></svg>