<?xml version="1.0" encoding="UTF-8"?><svg id="Layer_1" xmlns="http://www.w3.org/2000/svg" viewBox="0 0 841.889832 595.275574"><defs><style>.cls-1,.cls-2,.cls-3,.cls-4,.cls-5,.cls-6{stroke-miterlimit:10;}.cls-1,.cls-2,.cls-3,.cls-5{stroke:#1d1e1c;}.cls-1,.cls-3{stroke-width:4px;}.cls-1,.cls-5,.cls-6,.cls-7{fill:#1d1e1c;}.cls-8,.cls-3,.cls-4{fill:#fff;}.cls-9{fill:none;stroke:#000;stroke-linecap:round;stroke-linejoin:round;}.cls-2{fill:#e42528;}.cls-2,.cls-4{stroke-width:2px;}.cls-10{fill:#1d1d1b;}.cls-4,.cls-6{stroke:#fff;}.cls-6{stroke-width:.25px;}.cls-11{fill:#676767;}</style></defs><polyline class="cls-9" points="385.685751 123.375513 386.399905 123.273496 387.114026 123.273496 387.82818 123.375513"/><polyline class="cls-9" points="388.848386 122.967444 388.134266 123.273496 387.216043 123.47753 386.297854 123.47753 385.379665 123.273496 384.66551 122.967444 384.155424 122.559341 383.849373 122.049255 383.849373 121.539135 384.155424 121.029014 384.66551 120.518929 385.379665 120.212842 386.297854 120.110825 387.216043 120.110825 388.134266 120.212842 388.848386 120.518929 389.460524 121.029014 389.664558 121.539135 389.664558 122.049255 389.460524 122.559341 388.848386 122.967444"/><polyline class="cls-9" points="443.633848 96.441876 444.348003 96.441876 445.062157 96.441876 445.776277 96.441876"/><polyline class="cls-9" points="446.796518 96.135825 446.082363 96.441876 445.164174 96.543928 444.245985 96.543928 443.327762 96.441876 442.613642 96.135825 442.103521 95.625705 441.79747 95.115619 441.79747 94.605498 442.103521 94.095413 442.613642 93.687309 443.327762 93.381258 444.245985 93.177224 445.164174 93.177224 446.082363 93.381258 446.796518 93.687309 447.408621 94.095413 447.61269 94.605498 447.61269 95.115619 447.408621 95.625705 446.796518 96.135825"/><polyline class="cls-9" points="526.475169 126.334149 527.291306 126.028063 527.903409 126.028063 528.515581 126.13008"/><polyline class="cls-9" points="460.365353 86.851883 459.753216 86.647849 459.039061 86.749866 458.324906 87.055918"/><line class="cls-9" x1="458.324906" y1="87.055918" x2="526.475169" y2="126.334149"/><polyline class="cls-9" points="526.475169 126.334149 528.107513 127.456372 529.535753 128.578595 530.658045 129.80287 531.474182 131.129128 532.086285 132.45542 532.392371 133.883695 532.392371 135.312004 532.086285 136.638296 531.474182 138.066571 530.658045 139.290846 529.535753 140.515087 528.107513 141.739362 526.475169 142.759568 527.291306 143.269688 527.903409 143.983808 528.515581 144.901997 528.92365 145.820221 529.229736 146.73841 529.331718 147.656599 531.168096 146.534341 532.698458 145.208084 534.024715 143.881791 535.044956 142.453517 535.759111 140.92319 536.269162 139.392863 536.371214 137.862537"/><polyline class="cls-9" points="427.922549 86.851883 428.534686 86.647849 429.248841 86.749866 429.962995 87.055918 431.799373 86.035711 433.737769 85.321557 435.880233 84.607437 438.124679 84.097316 440.573195 83.791265 442.919693 83.689213 445.368209 83.689213 447.714707 83.791265 450.163223 84.097316 452.407669 84.607437 454.550133 85.321557 456.488528 86.035711 458.324906 87.055918"/><polyline class="cls-9" points="475.362463 172.243737 476.076618 172.85584 476.790773 173.569995 477.40291 174.386166 477.810979 175.304355 478.11703 176.324562 478.219082 177.242751"/><line class="cls-9" x1="478.219082" y1="177.242751" x2="529.331718" y2="147.656599"/><line class="cls-9" x1="526.475169" y1="142.759568" x2="475.362463" y2="172.243737"/><polyline class="cls-9" points="376.809878 116.336052 377.422015 116.132018 378.034153 116.234035 378.850325 116.540086"/><line class="cls-9" x1="378.850325" y1="116.540086" x2="429.962995" y2="87.055918"/><polyline class="cls-9" points="475.362463 172.243737 473.526085 173.161926 471.58769 173.978098 469.445226 174.692218 467.20078 175.202338 464.854281 175.50839 462.405766 175.610441 459.95725 175.610441 457.610752 175.50839 455.162236 175.202338 452.91779 174.692218 450.775326 173.978098 448.83693 173.161926 447.000552 172.243737 446.286398 172.85584 445.572243 173.569995 444.960105 174.386166 444.552037 175.304355 444.245985 176.324562 444.143934 177.242751 446.184381 178.262991 448.32681 179.18118 450.775326 179.895335 453.223841 180.507438 455.774374 180.915541 458.528941 181.221593 461.181491 181.32361 463.834075 181.221593 466.588642 180.915541 469.139175 180.507438 471.689707 179.895335 474.036206 179.18118 476.178635 178.262991 478.219082 177.242751"/><polyline class="cls-9" points="368.954245 127.966492 369.056262 129.598801 369.566383 131.129128 370.280537 132.557437 371.300744 134.087764 372.627001 135.414021 374.157328 136.638296 375.993706 137.862537 376.095723 136.944348 376.401809 136.026159 376.809878 135.005953 377.422015 134.189781 378.034153 133.475626 378.850325 132.965506 377.217981 131.843283 375.789671 130.721059 374.667448 129.496784 373.851276 128.170527 373.239139 126.844234 372.933087 125.41596 372.933087 123.98765 373.239139 122.661358 373.851276 121.233083 374.667448 120.008808 375.789671 118.682551 377.217981 117.560293 378.850325 116.540086"/><line class="cls-9" x1="375.993706" y1="137.862537" x2="444.143934" y2="177.242751"/><line class="cls-9" x1="447.000552" y1="172.243737" x2="378.850325" y2="132.965506"/><line class="cls-9" x1="528.515581" y1="126.13008" x2="460.365353" y2="86.851883"/><polyline class="cls-9" points="528.515581 126.13008 530.147925 127.252338 531.678217 128.374561 533.004474 129.700853 534.126767 131.027111 535.044956 132.659454 535.759111 134.291798 536.269162 136.026159 536.371214 137.862537"/><polyline class="cls-9" points="427.922549 86.851883 429.656909 85.933694 431.493322 85.117522 433.533734 84.403368 435.574147 83.893282 437.614593 83.485179 439.757023 83.179127 441.899487 82.975093 444.143934 82.873041 446.388415 82.975093 448.530879 83.179127 450.673308 83.485179 452.713755 83.893282 454.754168 84.403368 456.79458 85.117522 458.630958 85.933694 460.365353 86.851883"/><line class="cls-9" x1="376.809878" y1="116.336052" x2="427.922549" y2="86.851883"/><polyline class="cls-9" points="368.954245 127.966492 369.056262 126.232097 369.566383 124.395719 370.280537 122.763375 371.198726 121.233083 372.32095 119.804774 373.647242 118.478482 375.177534 117.356258 376.809878 116.336052"/><polyline class="cls-9" points="368.954245 130.006905 369.056262 131.537231 369.566383 133.067558 370.280537 134.59785 371.300744 136.026159 372.627001 137.352451 374.157328 138.678709 375.993706 139.800932"/><line class="cls-9" x1="375.993706" y1="139.800932" x2="375.993706" y2="137.862537"/><line class="cls-9" x1="529.331718" y1="147.656599" x2="529.331718" y2="149.697011"/><polyline class="cls-9" points="529.331718 149.697011 531.168096 148.472771 532.698458 147.248496 534.024715 145.820221 535.044956 144.391912 535.759111 142.861585 536.269162 141.331259 536.371214 139.800932"/><line class="cls-9" x1="478.219082" y1="179.18118" x2="478.219082" y2="177.242751"/><line class="cls-9" x1="444.143934" y1="177.242751" x2="444.143934" y2="179.18118"/><polyline class="cls-9" points="444.143934 179.18118 446.184381 180.201386 448.32681 181.119575 450.775326 181.83373 453.223841 182.445868 455.774374 182.853936 458.528941 183.159988 461.181491 183.26204 463.834075 183.159988 466.588642 182.853936 469.139175 182.445868 471.689707 181.83373 474.036206 181.119575 476.178635 180.201386 478.219082 179.18118"/><line class="cls-9" x1="368.954245" y1="127.966492" x2="368.954245" y2="130.006905"/><line class="cls-9" x1="536.371214" y1="137.862537" x2="536.371214" y2="139.800932"/><polyline class="cls-9" points="520.659949 138.780726 519.945794 139.086812 519.027605 139.188829 518.109381 139.188829 517.191192 139.086812 516.477072 138.780726 515.864935 138.27064 515.660901 137.76052 515.660901 137.250399 515.864935 136.740314 516.477072 136.33221 517.191192 136.026159 518.109381 135.822125 519.027605 135.822125 519.945794 136.026159 520.659949 136.33221 521.170069 136.740314 521.476086 137.250399 521.476086 137.76052 521.170069 138.27064 520.659949 138.780726"/><polyline class="cls-9" points="462.711817 165.612345 461.997662 165.918397 461.079473 166.122431 460.161284 166.122431 459.243095 165.918397 458.528941 165.612345 458.018855 165.204242 457.712769 164.694156 457.712769 164.184036 458.018855 163.67395 458.528941 163.16383 459.243095 162.857778 460.161284 162.755726 461.079473 162.755726 461.997662 162.857778 462.711817 163.16383 463.221937 163.67395 463.527989 164.184036 463.527989 164.694156 463.221937 165.204242 462.711817 165.612345"/><polyline class="cls-9" points="459.549181 166.020414 460.263302 165.918397 460.977456 165.918397 461.691611 166.020414"/><polyline class="cls-9" points="517.497279 139.086812 518.211433 138.98476 518.925553 138.98476 519.639708 139.086812"/><line class="cls-9" x1="529.331718" y1="149.697011" x2="478.219082" y2="179.18118"/><line class="cls-9" x1="444.143934" y1="179.18118" x2="375.993706" y2="139.800932"/><polyline class="cls-9" points="317.433471 184.588297 317.535523 186.322658 318.045609 187.955002 318.759763 189.587345 319.881987 191.219689 321.208279 192.750016 322.840623 194.17829 324.677001 195.504583 322.840623 195.096479 321.106262 194.484376 319.575935 193.770222 318.249643 192.95405 317.12742 192.035861 316.209231 191.015655 315.69911 189.893397 315.393059 188.771174 315.495076 187.64895 315.801128 186.526692 316.515282 185.404469 317.433471 184.384263"/><polyline class="cls-9" points="315.393059 193.566187 315.597093 194.790428 316.005196 195.912651 316.821368 196.932892 317.841574 197.953098 319.065815 198.76927 320.596141 199.585442 322.330502 200.197545 324.16688 200.605648 326.10531 200.911699 328.043705 201.013717 330.084117 200.911699 332.022547 200.707665 333.858925 200.299596 335.593286 199.687459"/><polyline class="cls-9" points="409.048614 244.168738 411.395112 245.290996 413.945645 246.209185 416.598194 247.025357 419.454779 247.63746 422.311397 248.045563 425.269999 248.351614 428.330652 248.453631 426.494274 248.963752 424.657896 249.269803 422.719466 249.473838 420.781071 249.575889 418.740659 249.37182 416.904246 249.065769 415.067868 248.555649 413.435524 247.943546 412.007249 247.127374 410.782974 246.311202 409.762768 245.290996 409.048614 244.168738"/><polyline class="cls-9" points="408.538528 247.433425 408.742562 248.555649 409.150631 249.677906 409.864785 250.698113 410.884992 251.718319 412.211284 252.534491 413.639593 253.350662 415.373954 253.9628 417.108315 254.370869 419.04671 254.676955 420.985105 254.778972 423.025552 254.778972 424.963947 254.472886 426.800325 254.166834 428.534686 253.554697 430.065013 252.840542 431.39127 252.02437 432.513528 251.106181 433.431717 250.085975 433.941803 248.963752 434.247889 247.841529"/><polyline class="cls-9" points="536.983316 176.01851 538.207592 176.834682 539.125781 177.854888 539.737883 178.875094 540.146021 179.997352 540.248004 181.017558 540.04397 182.139782 539.635901 183.26204 538.921746 184.282246 537.901505 185.200435 536.6773 186.016607 535.24899 186.832778 536.065127 185.302452 536.575248 183.874142 536.881334 182.343816 536.983316 180.813524"/><polyline class="cls-9" points="521.170069 192.647998 522.904395 193.158084 524.740773 193.46417 526.577151 193.566187 528.515581 193.566187 530.351959 193.362119 532.188337 193.056067 533.922733 192.545947 535.453025 191.933844 536.881334 191.219689 538.10554 190.3015 539.023798 189.383311 539.737883 188.363105 540.146021 187.240847 540.248004 186.220641"/><line class="cls-9" x1="315.393059" y1="188.363105" x2="315.393059" y2="193.566187"/><line class="cls-9" x1="408.538528" y1="243.964704" x2="408.538528" y2="247.433425"/><line class="cls-9" x1="540.248004" y1="180.915541" x2="540.248004" y2="186.220641"/><polyline class="cls-9" points="428.330652 248.453631 431.085219 248.351614 433.941803 248.045563 445.062157 241.516188 455.978408 234.884796 466.690659 228.151387 477.198841 221.213944 487.502989 214.2765 497.603103 207.23704 507.397165 200.095528 510.049715 198.25915 513.008316 196.524789 516.068969 194.892445 519.333622 193.46417 522.700361 192.035861 526.271135 190.913638 529.943891 189.79138 533.820681 188.873191 534.636818 187.852985 535.24899 186.832778"/><polyline class="cls-9" points="405.681909 242.128326 407.314253 243.148532 409.048614 244.168738"/><polyline class="cls-9" points="333.042753 197.136926 336.817527 200.809682 340.796369 204.380421 345.081262 207.951195 349.57019 211.419916 354.263187 214.684604 359.262235 217.949256 364.3633 221.009909 369.770417 223.968511 375.279551 226.825129 380.992754 229.579696 386.909991 232.232246 393.031263 234.680762 399.254586 237.02726 405.681909 239.16969"/><line class="cls-9" x1="328.349757" y1="197.442978" x2="333.042753" y2="197.136926"/><polyline class="cls-9" points="324.677001 195.504583 326.411361 196.524789 328.349757 197.442978"/><polyline class="cls-9" points="406.294047 219.887686 400.580844 218.35736 394.969693 216.725016 389.562541 214.888638 384.257441 212.848191 379.054359 210.705762 374.055311 208.46128 369.260297 206.012765 364.669352 203.462232 360.078407 200.707665 355.793513 197.851081 351.508585 194.790428 347.529778 191.627758 343.550936 188.363105 339.87818 184.894349 336.307441 181.32361 333.042753 177.548837"/><line class="cls-9" x1="405.681909" y1="223.458425" x2="406.294047" y2="219.887686"/><polyline class="cls-9" points="535.350973 143.881791 536.167179 145.514135 536.779282 147.044462 536.983316 148.676805 536.983316 150.207132 536.575248 151.737424 535.963145 153.26775 535.044956 154.798077 533.820681 156.226386 529.943891 156.940541 526.169083 157.756713 522.496327 158.776919 519.027605 160.001159 515.864935 161.327452 512.804282 162.755726 510.049715 164.38807 507.397165 166.224483 503.112271 169.387118 498.827378 172.549788 494.440467 175.916493 489.951505 179.385215 485.462577 182.853936 480.973649 186.424675 476.38267 190.097466 471.791725 193.770222 467.098728 197.647012 462.507783 201.523837 457.814821 205.502679 453.019807 209.481486 448.32681 213.664363 443.531831 217.847239 438.736817 222.030116 433.941803 226.315009 432.003408 226.927147 430.065013 227.437267 428.126617 227.743318 426.188188 228.04937 424.249793 228.253404 422.311397 228.355456 420.372968 228.355456 418.434572 228.253404 416.598194 227.947353 414.761816 227.641301 413.027456 227.233198 411.293095 226.621095 409.762768 226.008958 408.334459 225.192786 407.008201 224.376614 405.681909 223.458425"/><polyline class="cls-9" points="420.066916 91.340811 420.475019 90.830725 421.291191 90.626691"/><polyline class="cls-9" points="328.349757 178.773077 326.81943 178.160974 325.391155 177.344802 324.064863 176.52863 322.840623 175.50839 321.718365 174.488184 320.698159 173.36596 319.77997 172.141685 319.065815 170.815428 318.453712 169.489135 317.943592 168.060861 317.63754 166.734568 317.433471 165.306259 317.433471 163.877984 317.433471 162.449675 317.739557 160.919348 318.045609 159.491074 324.574983 153.675853 331.206375 148.166685 337.939784 142.759568 344.775211 137.658503 351.712654 132.761472 358.752115 127.966492 365.791575 123.47753 372.933087 119.192636"/><line class="cls-9" x1="328.349757" y1="178.773077" x2="333.042753" y2="177.548837"/><line class="cls-9" x1="533.820681" y1="156.226386" x2="533.820681" y2="188.873191"/><line class="cls-9" x1="507.397165" y1="166.224483" x2="507.397165" y2="200.095528"/><line class="cls-9" x1="328.349757" y1="178.773077" x2="328.349757" y2="197.442978"/><line class="cls-9" x1="333.042753" y1="177.548837" x2="333.042753" y2="197.136926"/><line class="cls-9" x1="405.681909" y1="223.458425" x2="405.681909" y2="242.128326"/><line class="cls-9" x1="433.941803" y1="226.315009" x2="433.941803" y2="248.045563"/><line class="cls-9" x1="536.983316" y1="149.186891" x2="536.983316" y2="180.813524"/><line class="cls-9" x1="317.433471" y1="163.980001" x2="317.433471" y2="184.588297"/><rect class="cls-1" x="210.693814" y="421.087186" width="54.549803" height="119.179461" rx="5.044586" ry="5.044586"/><rect class="cls-6" x="218.698404" y="430.574108" width="38.540622" height="11.858653"/><rect class="cls-6" x="218.698404" y="445.100958" width="38.540622" height="15.712715"/><circle class="cls-6" cx="237.968715" cy="507.062419" r="8.301057"/><circle class="cls-4" cx="237.968715" cy="507.062419" r="4.368977"/><rect class="cls-3" x="281.218866" y="418.715455" width="150.011959" height="93.090425"/><rect class="cls-7" x="342.883861" y="512.398813" width="26.681969" height="31.42543"/><polygon class="cls-5" points="356.224846 527.358769 333.146909 543.824243 379.302782 543.824243 356.224846 527.358769"/><path class="cls-7" d="M501.569138,416.15542h101.970233c1.64922,0,2.988177,1.338957,2.988177,2.988177v50.851535c0,2.324173-1.886934,4.211107-4.211107,4.211107h-100.747303c-2.324173,0-4.211107-1.886934-4.211107-4.211107v-49.628605c0-2.324173,1.886934-4.211107,4.211107-4.211107Z"/><polygon class="cls-8" points="560.828483 433.587261 560.828483 432.083706 558.39026 432.083706 558.39026 433.587261 552.904283 433.587261 552.904283 441.227018 566.314477 441.227018 566.314477 433.587261 560.828483 433.587261"/><rect class="cls-7" x="553.960317" y="434.458797" width="11.298127" height="6.0478"/><rect class="cls-8" x="554.940471" y="435.395038" width="1.854916" height="1.854916"/><rect class="cls-8" x="557.434772" y="435.395038" width="1.854916" height="1.854916"/><rect class="cls-8" x="559.929072" y="435.395038" width="1.854916" height="1.854916"/><rect class="cls-8" x="562.423372" y="435.395038" width="1.854916" height="1.854916"/><rect class="cls-8" x="554.940471" y="437.724223" width="1.854916" height="1.854916"/><rect class="cls-8" x="557.434772" y="437.724223" width="1.854916" height="1.854916"/><rect class="cls-8" x="559.929072" y="437.724223" width="1.854916" height="1.854916"/><rect class="cls-8" x="562.423372" y="437.724223" width="1.854916" height="1.854916"/><polygon class="cls-8" points="547.2209 433.587261 547.2209 432.083706 544.782677 432.083706 544.782677 433.587261 539.2967 433.587261 539.2967 441.227018 552.706894 441.227018 552.706894 433.587261 547.2209 433.587261"/><rect class="cls-7" x="540.352734" y="434.458797" width="11.298127" height="6.0478"/><rect class="cls-8" x="541.332888" y="435.395038" width="1.854916" height="1.854916"/><rect class="cls-8" x="543.827188" y="435.395038" width="1.854916" height="1.854916"/><rect class="cls-8" x="546.321489" y="435.395038" width="1.854916" height="1.854916"/><rect class="cls-8" x="548.815789" y="435.395038" width="1.854916" height="1.854916"/><rect class="cls-8" x="541.332888" y="437.724223" width="1.854916" height="1.854916"/><rect class="cls-8" x="543.827188" y="437.724223" width="1.854916" height="1.854916"/><rect class="cls-8" x="546.321489" y="437.724223" width="1.854916" height="1.854916"/><rect class="cls-8" x="548.815789" y="437.724223" width="1.854916" height="1.854916"/><polygon class="cls-8" points="525.914243 433.587261 525.914243 432.083706 523.47602 432.083706 523.47602 433.587261 517.990043 433.587261 517.990043 441.227018 531.400237 441.227018 531.400237 433.587261 525.914243 433.587261"/><rect class="cls-7" x="519.046077" y="434.458797" width="11.298127" height="6.0478"/><rect class="cls-8" x="520.026231" y="435.395038" width="1.854916" height="1.854916"/><rect class="cls-8" x="522.520532" y="435.395038" width="1.854916" height="1.854916"/><rect class="cls-8" x="525.014832" y="435.395038" width="1.854916" height="1.854916"/><rect class="cls-8" x="527.509132" y="435.395038" width="1.854916" height="1.854916"/><rect class="cls-8" x="520.026231" y="437.724223" width="1.854916" height="1.854916"/><rect class="cls-8" x="522.520532" y="437.724223" width="1.854916" height="1.854916"/><rect class="cls-8" x="525.014832" y="437.724223" width="1.854916" height="1.854916"/><rect class="cls-8" x="527.509132" y="437.724223" width="1.854916" height="1.854916"/><polygon class="cls-8" points="512.742125 433.587261 512.742125 432.083706 510.303902 432.083706 510.303902 433.587261 504.817924 433.587261 504.817924 441.227018 518.228119 441.227018 518.228119 433.587261 512.742125 433.587261"/><rect class="cls-7" x="505.873958" y="434.458797" width="11.298127" height="6.0478"/><rect class="cls-8" x="506.854113" y="435.395038" width="1.854916" height="1.854916"/><rect class="cls-8" x="509.348413" y="435.395038" width="1.854916" height="1.854916"/><rect class="cls-8" x="511.842714" y="435.395038" width="1.854916" height="1.854916"/><rect class="cls-8" x="514.337014" y="435.395038" width="1.854916" height="1.854916"/><rect class="cls-8" x="506.854113" y="437.724223" width="1.854916" height="1.854916"/><rect class="cls-8" x="509.348413" y="437.724223" width="1.854916" height="1.854916"/><rect class="cls-8" x="511.842714" y="437.724223" width="1.854916" height="1.854916"/><rect class="cls-8" x="514.337014" y="437.724223" width="1.854916" height="1.854916"/><polygon class="cls-8" points="594.87021 433.581274 594.87021 432.074784 592.89723 432.074784 592.89723 433.581274 588.458044 433.581274 588.458044 441.23594 599.309409 441.23594 599.309409 433.581274 594.87021 433.581274"/><rect class="cls-7" x="589.524709" y="434.467738" width="8.728695" height="6.0478"/><rect class="cls-8" x="590.429733" y="435.403979" width="1.854916" height="1.854916"/><rect class="cls-8" x="592.924033" y="435.403979" width="1.854916" height="1.854916"/><rect class="cls-8" x="595.418334" y="435.403979" width="1.854916" height="1.854916"/><rect class="cls-8" x="590.429733" y="437.733164" width="1.854916" height="1.854916"/><rect class="cls-8" x="592.924033" y="437.733164" width="1.854916" height="1.854916"/><rect class="cls-8" x="595.418334" y="437.733164" width="1.854916" height="1.854916"/><polygon class="cls-8" points="572.85405 433.581274 572.85405 432.074784 570.88107 432.074784 570.88107 433.581274 566.441884 433.581274 566.441884 441.23594 577.293249 441.23594 577.293249 433.581274 572.85405 433.581274"/><rect class="cls-7" x="567.508549" y="434.467738" width="8.728695" height="6.0478"/><rect class="cls-8" x="568.413573" y="435.403979" width="1.854916" height="1.854916"/><rect class="cls-8" x="570.907874" y="435.403979" width="1.854916" height="1.854916"/><rect class="cls-8" x="573.402174" y="435.403979" width="1.854916" height="1.854916"/><rect class="cls-8" x="568.413573" y="437.733164" width="1.854916" height="1.854916"/><rect class="cls-8" x="570.907874" y="437.733164" width="1.854916" height="1.854916"/><rect class="cls-8" x="573.402174" y="437.733164" width="1.854916" height="1.854916"/><polygon class="cls-8" points="583.950666 433.581274 583.950666 432.074784 581.977686 432.074784 581.977686 433.581274 577.5385 433.581274 577.5385 441.23594 588.389865 441.23594 588.389865 433.581274 583.950666 433.581274"/><rect class="cls-7" x="578.605165" y="434.467738" width="8.728695" height="6.0478"/><rect class="cls-8" x="579.510189" y="435.403979" width="1.854916" height="1.854916"/><rect class="cls-8" x="582.004489" y="435.403979" width="1.854916" height="1.854916"/><rect class="cls-8" x="584.49879" y="435.403979" width="1.854916" height="1.854916"/><rect class="cls-8" x="579.510189" y="437.733164" width="1.854916" height="1.854916"/><rect class="cls-8" x="582.004489" y="437.733164" width="1.854916" height="1.854916"/><rect class="cls-8" x="584.49879" y="437.733164" width="1.854916" height="1.854916"/><polygon class="cls-8" points="569.755466 457.051284 569.755466 458.554839 572.193689 458.554839 572.193689 457.051284 577.679667 457.051284 577.679667 449.411527 564.269472 449.411527 564.269472 457.051284 569.755466 457.051284"/><rect class="cls-7" x="565.325506" y="450.131948" width="11.298127" height="6.0478" transform="translate(1141.949139 906.311697) rotate(180)"/><rect class="cls-8" x="573.788562" y="453.388591" width="1.854916" height="1.854916" transform="translate(1149.43204 908.632099) rotate(180)"/><rect class="cls-8" x="571.294262" y="453.388591" width="1.854916" height="1.854916" transform="translate(1144.443439 908.632099) rotate(180)"/><rect class="cls-8" x="568.799961" y="453.388591" width="1.854916" height="1.854916" transform="translate(1139.454839 908.632099) rotate(180)"/><rect class="cls-8" x="566.305661" y="453.388591" width="1.854916" height="1.854916" transform="translate(1134.466238 908.632099) rotate(180)"/><rect class="cls-8" x="573.788562" y="451.059407" width="1.854916" height="1.854916" transform="translate(1149.43204 903.973729) rotate(180)"/><rect class="cls-8" x="571.294262" y="451.059407" width="1.854916" height="1.854916" transform="translate(1144.443439 903.973729) rotate(180)"/><rect class="cls-8" x="568.799961" y="451.059407" width="1.854916" height="1.854916" transform="translate(1139.454839 903.973729) rotate(180)"/><rect class="cls-8" x="566.305661" y="451.059407" width="1.854916" height="1.854916" transform="translate(1134.466238 903.973729) rotate(180)"/><polygon class="cls-8" points="582.365567 457.057272 582.365567 458.563761 584.338547 458.563761 584.338547 457.057272 588.777733 457.057272 588.777733 449.402605 577.926369 449.402605 577.926369 457.057272 582.365567 457.057272"/><rect class="cls-7" x="578.982373" y="450.123007" width="8.728695" height="6.0478" transform="translate(1166.693441 906.293815) rotate(180)"/><rect class="cls-8" x="584.951128" y="453.37965" width="1.854916" height="1.854916" transform="translate(1171.757172 908.614217) rotate(180)"/><rect class="cls-8" x="582.456828" y="453.37965" width="1.854916" height="1.854916" transform="translate(1166.768571 908.614217) rotate(180)"/><rect class="cls-8" x="579.962527" y="453.37965" width="1.854916" height="1.854916" transform="translate(1161.779971 908.614217) rotate(180)"/><rect class="cls-8" x="584.951128" y="451.050465" width="1.854916" height="1.854916" transform="translate(1171.757172 903.955847) rotate(180)"/><rect class="cls-8" x="582.456828" y="451.050465" width="1.854916" height="1.854916" transform="translate(1166.768571 903.955847) rotate(180)"/><rect class="cls-8" x="579.962527" y="451.050465" width="1.854916" height="1.854916" transform="translate(1161.779971 903.955847) rotate(180)"/><polygon class="cls-8" points="592.897243 457.057272 592.897243 458.563761 594.870223 458.563761 594.870223 457.057272 599.309409 457.057272 599.309409 449.402605 588.458044 449.402605 588.458044 457.057272 592.897243 457.057272"/><rect class="cls-7" x="589.514048" y="450.123007" width="8.728695" height="6.0478" transform="translate(1187.756792 906.293815) rotate(180)"/><rect class="cls-8" x="595.482804" y="453.37965" width="1.854916" height="1.854916" transform="translate(1192.820524 908.614217) rotate(180)"/><rect class="cls-8" x="592.988503" y="453.37965" width="1.854916" height="1.854916" transform="translate(1187.831923 908.614217) rotate(180)"/><rect class="cls-8" x="590.494203" y="453.37965" width="1.854916" height="1.854916" transform="translate(1182.843322 908.614217) rotate(180)"/><rect class="cls-8" x="595.482804" y="451.050465" width="1.854916" height="1.854916" transform="translate(1192.820524 903.955847) rotate(180)"/><rect class="cls-8" x="592.988503" y="451.050465" width="1.854916" height="1.854916" transform="translate(1187.831923 903.955847) rotate(180)"/><rect class="cls-8" x="590.494203" y="451.050465" width="1.854916" height="1.854916" transform="translate(1182.843322 903.955847) rotate(180)"/><polygon class="cls-8" points="515.474803 457.051284 515.474803 458.554839 520.2112 458.554839 520.2112 457.051284 530.868047 457.051284 530.868047 449.411527 504.817924 449.411527 504.817924 457.051284 515.474803 457.051284"/><rect class="cls-7" x="505.8741" y="450.133606" width="23.73338" height="6.0478" transform="translate(1035.48158 906.315012) rotate(180)"/><rect class="cls-8" x="514.337156" y="453.390249" width="1.854916" height="1.854916" transform="translate(1030.529228 908.635414) rotate(180)"/><rect class="cls-8" x="511.842855" y="453.390249" width="1.854916" height="1.854916" transform="translate(1025.540627 908.635414) rotate(180)"/><rect class="cls-8" x="509.348555" y="453.390249" width="1.854916" height="1.854916" transform="translate(1020.552027 908.635414) rotate(180)"/><rect class="cls-8" x="506.854255" y="453.390249" width="1.854916" height="1.854916" transform="translate(1015.563426 908.635414) rotate(180)"/><rect class="cls-8" x="514.337156" y="451.061064" width="1.854916" height="1.854916" transform="translate(1030.529228 903.977045) rotate(180)"/><rect class="cls-8" x="511.842855" y="451.061064" width="1.854916" height="1.854916" transform="translate(1025.540627 903.977045) rotate(180)"/><rect class="cls-8" x="509.348555" y="451.061064" width="1.854916" height="1.854916" transform="translate(1020.552027 903.977045) rotate(180)"/><rect class="cls-8" x="506.854255" y="451.061064" width="1.854916" height="1.854916" transform="translate(1015.563426 903.977045) rotate(180)"/><rect class="cls-8" x="524.40016" y="453.390249" width="1.854916" height="1.854916" transform="translate(1050.655235 908.635414) rotate(180)"/><rect class="cls-8" x="521.905859" y="453.390249" width="1.854916" height="1.854916" transform="translate(1045.666635 908.635414) rotate(180)"/><rect class="cls-8" x="519.411559" y="453.390249" width="1.854916" height="1.854916" transform="translate(1040.678034 908.635414) rotate(180)"/><rect class="cls-8" x="516.917259" y="453.390249" width="1.854916" height="1.854916" transform="translate(1035.689433 908.635414) rotate(180)"/><rect class="cls-8" x="524.40016" y="451.061064" width="1.854916" height="1.854916" transform="translate(1050.655235 903.977045) rotate(180)"/><rect class="cls-8" x="521.905859" y="451.061064" width="1.854916" height="1.854916" transform="translate(1045.666635 903.977045) rotate(180)"/><rect class="cls-8" x="519.411559" y="451.061064" width="1.854916" height="1.854916" transform="translate(1040.678034 903.977045) rotate(180)"/><rect class="cls-8" x="516.917259" y="451.061064" width="1.854916" height="1.854916" transform="translate(1035.689433 903.977045) rotate(180)"/><rect class="cls-8" x="526.789168" y="453.444682" width="1.854916" height="1.854916" transform="translate(1055.433253 908.74428) rotate(180)"/><rect class="cls-8" x="526.789168" y="451.115497" width="1.854916" height="1.854916" transform="translate(1055.433253 904.085911) rotate(180)"/><polygon class="cls-8" points="546.06815 457.051284 546.06815 458.554839 548.956445 458.554839 548.956445 457.051284 555.455079 457.051284 555.455079 449.411527 539.569496 449.411527 539.569496 457.051284 546.06815 457.051284"/><rect class="cls-7" x="540.625612" y="450.133565" width="13.956706" height="6.0478" transform="translate(1095.207931 906.31493) rotate(180)"/><rect class="cls-8" x="549.088668" y="453.390208" width="1.854916" height="1.854916" transform="translate(1100.032252 908.635332) rotate(180)"/><rect class="cls-8" x="546.594368" y="453.390208" width="1.854916" height="1.854916" transform="translate(1095.043652 908.635332) rotate(180)"/><rect class="cls-8" x="544.100067" y="453.390208" width="1.854916" height="1.854916" transform="translate(1090.055051 908.635332) rotate(180)"/><rect class="cls-8" x="541.605767" y="453.390208" width="1.854916" height="1.854916" transform="translate(1085.06645 908.635332) rotate(180)"/><rect class="cls-8" x="549.088668" y="451.061023" width="1.854916" height="1.854916" transform="translate(1100.032252 903.976963) rotate(180)"/><rect class="cls-8" x="546.594368" y="451.061023" width="1.854916" height="1.854916" transform="translate(1095.043652 903.976963) rotate(180)"/><rect class="cls-8" x="544.100067" y="451.061023" width="1.854916" height="1.854916" transform="translate(1090.055051 903.976963) rotate(180)"/><rect class="cls-8" x="541.605767" y="451.061023" width="1.854916" height="1.854916" transform="translate(1085.06645 903.976963) rotate(180)"/><rect class="cls-8" x="551.668771" y="453.390208" width="1.854916" height="1.854916" transform="translate(1105.192458 908.635332) rotate(180)"/><rect class="cls-8" x="551.668771" y="451.061023" width="1.854916" height="1.854916" transform="translate(1105.192458 903.976963) rotate(180)"/><line class="cls-2" x1="334.212107" y1="272.536943" x2="334.212107" y2="368.149997"/><line class="cls-2" x1="534.161151" y1="268.868153" x2="534.161151" y2="364.481207"/><path class="cls-11" d="M347.239746,358.136719c.616211-.125977,1.499023-.195312,2.339844-.195312,1.301758,0,2.142578.237305,2.731445.769531.475586.420898.742188,1.06543.742188,1.792969,0,1.24707-.78418,2.073242-1.779297,2.410156v.041992c.728516.251953,1.163086.923828,1.386719,1.904297.308594,1.317383.532227,2.227539.728516,2.591797h-1.260742c-.154297-.266602-.364258-1.078125-.629883-2.254883-.280273-1.302734-.785156-1.792969-1.891602-1.834961h-1.148438v4.089844h-1.21875v-9.31543ZM348.458496,362.4375h1.24707c1.302734,0,2.128906-.714844,2.128906-1.792969,0-1.21875-.882812-1.750977-2.170898-1.764648-.588867,0-1.008789.055664-1.205078.111328v3.446289Z"/><path class="cls-11" d="M354.604004,365.967773c.545898.335938,1.344727.616211,2.185547.616211,1.246094,0,1.974609-.658203,1.974609-1.611328,0-.882812-.503906-1.386719-1.779297-1.876953-1.540039-.545898-2.493164-1.344727-2.493164-2.675781,0-1.470703,1.21875-2.5625,3.053711-2.5625.966797,0,1.666992.223633,2.086914.461914l-.335938.994141c-.307617-.167969-.938477-.448242-1.792969-.448242-1.288086,0-1.77832.770508-1.77832,1.415039,0,.882812.574219,1.316406,1.876953,1.821289,1.59668.616211,2.40918,1.386719,2.40918,2.773438,0,1.457031-1.079102,2.716797-3.305664,2.716797-.911133,0-1.905273-.265625-2.410156-.601562l.308594-1.022461Z"/><path class="cls-11" d="M364.559082,363.208008v.910156h-3.459961v-.910156h3.459961Z"/><path class="cls-11" d="M365.606934,367.452148v-.756836l.966797-.938477c2.325195-2.212891,3.375977-3.389648,3.389648-4.761719,0-.924805-.448242-1.779297-1.806641-1.779297-.826172,0-1.512695.419922-1.932617.770508l-.392578-.869141c.629883-.532227,1.526367-.923828,2.577148-.923828,1.960938,0,2.788086,1.344727,2.788086,2.647461,0,1.680664-1.21875,3.039062-3.137695,4.888672l-.728516.671875v.02832h4.089844v1.022461h-5.813477Z"/><path class="cls-11" d="M373.083496,366.037109c.349609.224609,1.162109.574219,2.016602.574219,1.583008,0,2.073242-1.007812,2.05957-1.764648-.014648-1.274414-1.163086-1.821289-2.353516-1.821289h-.686523v-.923828h.686523c.896484,0,2.03125-.462891,2.03125-1.541016,0-.728516-.462891-1.373047-1.59668-1.373047-.728516,0-1.428711.322266-1.821289.602539l-.322266-.896484c.476562-.350586,1.400391-.700195,2.380859-.700195,1.792969,0,2.605469,1.064453,2.605469,2.170898,0,.938477-.55957,1.737305-1.680664,2.143555v.027344c1.121094.224609,2.03125,1.064453,2.03125,2.339844,0,1.457031-1.134766,2.731445-3.319336,2.731445-1.023438,0-1.919922-.322266-2.368164-.616211l.336914-.953125Z"/><path class="cls-11" d="M379.970215,367.452148v-.756836l.966797-.938477c2.325195-2.212891,3.375977-3.389648,3.389648-4.761719,0-.924805-.448242-1.779297-1.806641-1.779297-.826172,0-1.512695.419922-1.932617.770508l-.392578-.869141c.629883-.532227,1.526367-.923828,2.577148-.923828,1.960938,0,2.788086,1.344727,2.788086,2.647461,0,1.680664-1.21875,3.039062-3.137695,4.888672l-.728516.671875v.02832h4.089844v1.022461h-5.813477Z"/><path class="cls-10" d="M540.043945,391.556641c.588867-.097656,1.358398-.181641,2.339844-.181641,1.204102,0,2.086914.279297,2.647461.78418.517578.448242.826172,1.134766.826172,1.974609,0,.854492-.251953,1.527344-.728516,2.017578-.644531.686523-1.695312,1.036133-2.885742,1.036133-.364258,0-.700195-.013672-.980469-.083984v3.782227h-1.21875v-9.329102ZM541.262695,396.109375c.266602.070312.602539.097656,1.008789.097656,1.470703,0,2.367188-.713867,2.367188-2.016602,0-1.24707-.882812-1.849609-2.227539-1.849609-.532227,0-.938477.041992-1.148438.098633v3.669922Z"/><path class="cls-10" d="M547.324219,399.401367c.545898.335938,1.344727.616211,2.185547.616211,1.246094,0,1.974609-.658203,1.974609-1.611328,0-.882812-.503906-1.386719-1.779297-1.876953-1.540039-.545898-2.493164-1.344727-2.493164-2.675781,0-1.470703,1.21875-2.5625,3.053711-2.5625.966797,0,1.666992.223633,2.086914.461914l-.335938.994141c-.307617-.167969-.938477-.448242-1.792969-.448242-1.288086,0-1.77832.770508-1.77832,1.415039,0,.882812.574219,1.316406,1.876953,1.821289,1.59668.616211,2.40918,1.386719,2.40918,2.773438,0,1.457031-1.079102,2.716797-3.305664,2.716797-.911133,0-1.905273-.265625-2.410156-.601562l.308594-1.022461Z"/><path class="cls-10" d="M555.612305,391.444336v5.588867c0,2.115234.938477,3.011719,2.199219,3.011719,1.400391,0,2.296875-.923828,2.296875-3.011719v-5.588867h1.233398v5.504883c0,2.900391-1.527344,4.09082-3.572266,4.09082-1.932617,0-3.389648-1.106445-3.389648-4.03418v-5.561523h1.232422Z"/></svg>