<?xml version="1.0" encoding="UTF-8"?><svg id="Layer_1" xmlns="http://www.w3.org/2000/svg" viewBox="0 0 841.889832 595.275574"><defs><style>.cls-1,.cls-2,.cls-3,.cls-4,.cls-5,.cls-6,.cls-7,.cls-8,.cls-9,.cls-10,.cls-11,.cls-12,.cls-13,.cls-14,.cls-15,.cls-16,.cls-17,.cls-18{stroke-miterlimit:10;}.cls-1,.cls-2,.cls-5,.cls-6,.cls-7,.cls-9,.cls-10,.cls-11,.cls-13,.cls-14,.cls-16,.cls-17{stroke:#1d1e1c;}.cls-1,.cls-3,.cls-19,.cls-11,.cls-12,.cls-13,.cls-14,.cls-15{fill:#fff;}.cls-2,.cls-4,.cls-9,.cls-17,.cls-18,.cls-20{fill:#1d1e1c;}.cls-2,.cls-14{stroke-width:4px;}.cls-3,.cls-4{stroke-width:.05px;}.cls-3,.cls-4,.cls-12,.cls-15,.cls-18{stroke:#fff;}.cls-5{fill:#39a935;}.cls-5,.cls-6,.cls-7,.cls-9,.cls-12,.cls-13,.cls-16,.cls-18{stroke-width:.25px;}.cls-6,.cls-8{fill:none;}.cls-7,.cls-21{fill:#009540;}.cls-22{fill:#e10b17;}.cls-8{stroke:#000;}.cls-8,.cls-10,.cls-15{stroke-width:2px;}.cls-10{fill:#e42528;}.cls-11{stroke-width:.5px;}.cls-16{fill:#026634;}.cls-23{fill:#676767;}</style></defs><rect class="cls-18" x="279.927962" y="292.48961" width="36.283184" height="35.623489"/><ellipse class="cls-21" cx="306.855913" cy="299.780954" rx="1.388195" ry="1.443723"/><rect class="cls-4" x="283.258189" y="320.190599" width="27.047464" height="5.061691"/><ellipse class="cls-4" cx="307.695384" cy="322.721444" rx=".69982" ry=".672904" transform="translate(-138.07663 312.096415) rotate(-45)"/><path class="cls-3" d="M301.019597,321.449187l3.445085-.052198c.50582-.007664.905366.427164.85503.930531l-.062429.624286c-.062116.621162-.584811,1.094194-1.20907,1.094194h-3.561295l-.53268-1.265114h-1.198529l-.53268,1.198529h-8.332108c-.452736,0-.876307-.223417-1.13196-.597063l-.401114-.586244c-.390899-.571314.018202-1.34692.710446-1.34692h11.951304Z"/><ellipse class="cls-4" cx="285.512223" cy="322.721444" rx=".69982" ry=".672904" transform="translate(-144.573928 296.410551) rotate(-45)"/><circle class="cls-11" cx="286.529915" cy="300.762369" r="3.931081"/><circle class="cls-13" cx="286.529915" cy="300.762369" r="3.14277"/><path class="cls-12" d="M289.42218,299.255059l-.573294-.714747-.298516.239414c-.360463-.385339-.827179-.664588-1.355598-.796693v-.396964h-.763525v.314369c-.613779.019755-1.171952.239577-1.623384.594268l-.299004-.33518-.683693.610039.357292.400379c-.281444.435336-.448993.951479-.448993,1.508433,0,.324205.066093.630607.167875.920018l-.466205.303175.439796.824618.470605-.324678c.397208.500535.953755.868314,1.602166,1.003752l-.093689.58534,1.374363-.027487-.059051-.581509c1.224631-.293476,2.137901-1.388603,2.137901-2.703228,0-.404769-.090563-.786938-.245755-1.134068l.360707-.289248Z"/><ellipse class="cls-9" cx="285.664066" cy="299.195595" rx=".20301" ry=".17259"/><ellipse class="cls-9" cx="287.37672" cy="302.329143" rx=".20301" ry=".17259"/><ellipse class="cls-9" cx="288.264756" cy="300.758535" rx=".20301" ry=".17259"/><ellipse class="cls-9" cx="287.414807" cy="299.203261" rx=".20301" ry=".17259"/><ellipse class="cls-9" cx="285.625979" cy="302.329143" rx=".20301" ry=".17259"/><ellipse class="cls-9" cx="284.795073" cy="300.758535" rx=".20301" ry=".17259"/><rect class="cls-18" x="332.879647" y="296.223787" width="31.63806" height="31.062822" transform="translate(697.397354 623.510396) rotate(180)"/><rect class="cls-17" x="365.851938" y="305.859014" width=".391481" height="11.792368"/><rect class="cls-17" x="369.015744" y="303.845683" width="16.681886" height="15.914903" transform="translate(754.713374 623.606269) rotate(180)"/><rect class="cls-18" x="231.347635" y="298.071562" width="30.484823" height="29.930554"/><rect class="cls-17" x="229.684826" y="307.355576" width=".377211" height="11.362525" transform="translate(459.746863 626.073677) rotate(180)"/><rect class="cls-17" x="219.439019" y="305.323254" width="7.574536" height="15.33479"/><rect class="cls-2" x="201.711745" y="487.09003" width="46.548805" height="101.69902" rx="5.044586" ry="5.044586"/><rect class="cls-18" x="208.542276" y="495.185474" width="32.887743" height="10.119305"/><rect class="cls-18" x="208.542276" y="507.581623" width="32.887743" height="13.40808"/><circle class="cls-18" cx="224.986148" cy="560.454994" r="7.083514"/><circle class="cls-15" cx="224.986148" cy="560.454994" r="3.728165"/><rect class="cls-14" x="261.892657" y="485.066169" width="128.009214" height="79.436548"/><rect class="cls-20" x="314.513046" y="565.008682" width="22.768437" height="26.816159"/><polygon class="cls-17" points="325.897264 577.774412 306.204244 591.824841 345.590285 591.824841 325.897264 577.774412"/><rect class="cls-5" x="376.791214" y="161.683092" width="61.011121" height="14.784265"/><line class="cls-6" x1="377.476157" y1="164.181841" x2="437.325622" y2="164.181841"/><rect class="cls-7" x="384.862859" y="166.452057" width="5.714817" height="7.970665"/><rect class="cls-16" x="386.103576" y="168.182531" width="3.233383" height="4.509719"/><line class="cls-13" x1="384.862859" y1="166.452057" x2="386.103576" y2="168.182531"/><line class="cls-13" x1="390.577675" y1="166.452057" x2="389.336959" y2="168.182531"/><line class="cls-13" x1="389.336959" y1="172.692249" x2="390.577675" y2="174.422723"/><line class="cls-13" x1="386.103576" y1="172.692249" x2="384.862859" y2="174.422723"/><rect class="cls-7" x="391.388361" y="166.452057" width="5.714817" height="7.970665"/><rect class="cls-16" x="392.629078" y="168.182531" width="3.233383" height="4.509719"/><line class="cls-13" x1="391.388361" y1="166.452057" x2="392.629078" y2="168.182531"/><line class="cls-13" x1="397.103178" y1="166.452057" x2="395.862461" y2="168.182531"/><line class="cls-13" x1="395.862461" y1="172.692249" x2="397.103178" y2="174.422723"/><line class="cls-13" x1="392.629078" y1="172.692249" x2="391.388361" y2="174.422723"/><rect class="cls-7" x="378.337356" y="166.452057" width="5.714817" height="7.970665"/><rect class="cls-16" x="379.578073" y="168.182531" width="3.233383" height="4.509719"/><line class="cls-13" x1="378.337356" y1="166.452057" x2="379.578073" y2="168.182531"/><line class="cls-13" x1="384.052173" y1="166.452057" x2="382.811456" y2="168.182531"/><line class="cls-13" x1="382.811456" y1="172.692249" x2="384.052173" y2="174.422723"/><line class="cls-13" x1="379.578073" y1="172.692249" x2="378.337356" y2="174.422723"/><rect class="cls-7" x="430.541377" y="166.452057" width="5.714817" height="7.970665"/><rect class="cls-16" x="431.782093" y="168.182531" width="3.233383" height="4.509719"/><line class="cls-13" x1="430.541377" y1="166.452057" x2="431.782093" y2="168.182531"/><line class="cls-13" x1="436.256193" y1="166.452057" x2="435.015476" y2="168.182531"/><line class="cls-13" x1="435.015476" y1="172.692249" x2="436.256193" y2="174.422723"/><line class="cls-13" x1="431.782093" y1="172.692249" x2="430.541377" y2="174.422723"/><rect class="cls-7" x="424.015874" y="166.452057" width="5.714817" height="7.970665"/><rect class="cls-16" x="425.256591" y="168.182531" width="3.233383" height="4.509719"/><line class="cls-13" x1="424.015874" y1="166.452057" x2="425.256591" y2="168.182531"/><line class="cls-13" x1="429.730691" y1="166.452057" x2="428.489974" y2="168.182531"/><line class="cls-13" x1="428.489974" y1="172.692249" x2="429.730691" y2="174.422723"/><line class="cls-13" x1="425.256591" y1="172.692249" x2="424.015874" y2="174.422723"/><rect class="cls-7" x="417.490372" y="166.452057" width="5.714817" height="7.970665"/><rect class="cls-16" x="418.731088" y="168.182531" width="3.233383" height="4.509719"/><line class="cls-13" x1="417.490372" y1="166.452057" x2="418.731088" y2="168.182531"/><line class="cls-13" x1="423.205188" y1="166.452057" x2="421.964471" y2="168.182531"/><line class="cls-13" x1="421.964471" y1="172.692249" x2="423.205188" y2="174.422723"/><line class="cls-13" x1="418.731088" y1="172.692249" x2="417.490372" y2="174.422723"/><rect class="cls-7" x="410.964869" y="166.452057" width="5.714817" height="7.970665"/><rect class="cls-16" x="412.205586" y="168.182531" width="3.233383" height="4.509719"/><line class="cls-13" x1="410.964869" y1="166.452057" x2="412.205586" y2="168.182531"/><line class="cls-13" x1="416.679686" y1="166.452057" x2="415.438969" y2="168.182531"/><line class="cls-13" x1="415.438969" y1="172.692249" x2="416.679686" y2="174.422723"/><line class="cls-13" x1="412.205586" y1="172.692249" x2="410.964869" y2="174.422723"/><rect class="cls-7" x="404.439366" y="166.452057" width="5.714817" height="7.970665"/><rect class="cls-16" x="405.680083" y="168.182531" width="3.233383" height="4.509719"/><line class="cls-13" x1="404.439366" y1="166.452057" x2="405.680083" y2="168.182531"/><line class="cls-13" x1="410.154183" y1="166.452057" x2="408.913466" y2="168.182531"/><line class="cls-13" x1="408.913466" y1="172.692249" x2="410.154183" y2="174.422723"/><line class="cls-13" x1="405.680083" y1="172.692249" x2="404.439366" y2="174.422723"/><rect class="cls-7" x="397.913864" y="166.452057" width="5.714817" height="7.970665"/><rect class="cls-16" x="399.154581" y="168.182531" width="3.233383" height="4.509719"/><line class="cls-13" x1="397.913864" y1="166.452057" x2="399.154581" y2="168.182531"/><line class="cls-13" x1="403.628681" y1="166.452057" x2="402.387964" y2="168.182531"/><line class="cls-13" x1="402.387964" y1="172.692249" x2="403.628681" y2="174.422723"/><line class="cls-13" x1="399.154581" y1="172.692249" x2="397.913864" y2="174.422723"/><rect class="cls-13" x="445.649969" y="163.597624" width="16.007611" height="13.222547" transform="translate(907.307548 340.417795) rotate(180)"/><path class="cls-9" d="M460.466013,164.712043h-13.729551v7.504378h2.733198v1.997133h2.09757v1.492198h4.131578v-1.552717h1.970445v-1.997133h2.860323s.127125-7.443859-.063563-7.443859Z"/><line class="cls-10" x1="295.399303" y1="341.26653" x2="295.399303" y2="466.291668"/><polyline class="cls-8" points="291.20172 282.92621 291.703442 229.892119 348.257479 229.892119 428.412571 229.892119 428.412571 199.189862"/><line class="cls-8" x1="386.427923" y1="199.167553" x2="386.427923" y2="229.468016"/><polyline class="cls-8" points="283.227453 282.92621 282.725731 229.892119 226.171694 229.892119 146.016602 229.892119 146.016602 199.189862"/><line class="cls-8" x1="188.00125" y1="199.167553" x2="188.00125" y2="229.468016"/><path class="cls-20" d="M131.74431,126.007273h85.957983c1.64922,0,2.988177,1.338957,2.988177,2.988177v42.337032c0,2.324173-1.886934,4.211107-4.211107,4.211107h-84.735053c-2.324173,0-4.211107-1.886934-4.211107-4.211107v-41.114102c0-2.324173,1.886934-4.211107,4.211107-4.211107Z"/><polygon class="cls-19" points="181.694236 140.882329 181.694236 139.599305 179.613635 139.599305 179.613635 140.882329 174.932304 140.882329 174.932304 147.401538 186.375581 147.401538 186.375581 140.882329 181.694236 140.882329"/><rect class="cls-20" x="175.833446" y="141.626034" width="9.640993" height="5.160749"/><rect class="cls-19" x="176.669838" y="142.424953" width="1.58285" height="1.58285"/><rect class="cls-19" x="178.798291" y="142.424953" width="1.58285" height="1.58285"/><rect class="cls-19" x="180.926744" y="142.424953" width="1.58285" height="1.58285"/><rect class="cls-19" x="183.055197" y="142.424953" width="1.58285" height="1.58285"/><rect class="cls-19" x="176.669838" y="144.412509" width="1.58285" height="1.58285"/><rect class="cls-19" x="178.798291" y="144.412509" width="1.58285" height="1.58285"/><rect class="cls-19" x="180.926744" y="144.412509" width="1.58285" height="1.58285"/><rect class="cls-19" x="183.055197" y="144.412509" width="1.58285" height="1.58285"/><polygon class="cls-19" points="170.082522 140.882329 170.082522 139.599305 168.001921 139.599305 168.001921 140.882329 163.32059 140.882329 163.32059 147.401538 174.763867 147.401538 174.763867 140.882329 170.082522 140.882329"/><rect class="cls-20" x="164.221732" y="141.626034" width="9.640993" height="5.160749"/><rect class="cls-19" x="165.058124" y="142.424953" width="1.58285" height="1.58285"/><rect class="cls-19" x="167.186577" y="142.424953" width="1.58285" height="1.58285"/><rect class="cls-19" x="169.31503" y="142.424953" width="1.58285" height="1.58285"/><rect class="cls-19" x="171.443483" y="142.424953" width="1.58285" height="1.58285"/><rect class="cls-19" x="165.058124" y="144.412509" width="1.58285" height="1.58285"/><rect class="cls-19" x="167.186577" y="144.412509" width="1.58285" height="1.58285"/><rect class="cls-19" x="169.31503" y="144.412509" width="1.58285" height="1.58285"/><rect class="cls-19" x="171.443483" y="144.412509" width="1.58285" height="1.58285"/><polygon class="cls-19" points="151.900982 140.882329 151.900982 139.599305 149.820381 139.599305 149.820381 140.882329 145.13905 140.882329 145.13905 147.401538 156.582327 147.401538 156.582327 140.882329 151.900982 140.882329"/><rect class="cls-20" x="146.040192" y="141.626034" width="9.640993" height="5.160749"/><rect class="cls-19" x="146.876584" y="142.424953" width="1.58285" height="1.58285"/><rect class="cls-19" x="149.005037" y="142.424953" width="1.58285" height="1.58285"/><rect class="cls-19" x="151.13349" y="142.424953" width="1.58285" height="1.58285"/><rect class="cls-19" x="153.261943" y="142.424953" width="1.58285" height="1.58285"/><rect class="cls-19" x="146.876584" y="144.412509" width="1.58285" height="1.58285"/><rect class="cls-19" x="149.005037" y="144.412509" width="1.58285" height="1.58285"/><rect class="cls-19" x="151.13349" y="144.412509" width="1.58285" height="1.58285"/><rect class="cls-19" x="153.261943" y="144.412509" width="1.58285" height="1.58285"/><polygon class="cls-19" points="140.660861 140.882329 140.660861 139.599305 138.58026 139.599305 138.58026 140.882329 133.898929 140.882329 133.898929 147.401538 145.342206 147.401538 145.342206 140.882329 140.660861 140.882329"/><rect class="cls-20" x="134.800071" y="141.626034" width="9.640993" height="5.160749"/><rect class="cls-19" x="135.636463" y="142.424953" width="1.58285" height="1.58285"/><rect class="cls-19" x="137.764916" y="142.424953" width="1.58285" height="1.58285"/><rect class="cls-19" x="139.893369" y="142.424953" width="1.58285" height="1.58285"/><rect class="cls-19" x="142.021823" y="142.424953" width="1.58285" height="1.58285"/><rect class="cls-19" x="135.636463" y="144.412509" width="1.58285" height="1.58285"/><rect class="cls-19" x="137.764916" y="144.412509" width="1.58285" height="1.58285"/><rect class="cls-19" x="139.893369" y="144.412509" width="1.58285" height="1.58285"/><rect class="cls-19" x="142.021823" y="144.412509" width="1.58285" height="1.58285"/><polygon class="cls-19" points="210.742951 140.877219 210.742951 139.591692 209.059355 139.591692 209.059355 140.877219 205.271279 140.877219 205.271279 147.409151 214.531038 147.409151 214.531038 140.877219 210.742951 140.877219"/><rect class="cls-20" x="206.181493" y="141.633663" width="7.448429" height="5.160749"/><rect class="cls-19" x="206.953774" y="142.432583" width="1.58285" height="1.58285"/><rect class="cls-19" x="209.082227" y="142.432583" width="1.58285" height="1.58285"/><rect class="cls-19" x="211.21068" y="142.432583" width="1.58285" height="1.58285"/><rect class="cls-19" x="206.953774" y="144.420138" width="1.58285" height="1.58285"/><rect class="cls-19" x="209.082227" y="144.420138" width="1.58285" height="1.58285"/><rect class="cls-19" x="211.21068" y="144.420138" width="1.58285" height="1.58285"/><polygon class="cls-19" points="191.955974 140.877219 191.955974 139.591692 190.272377 139.591692 190.272377 140.877219 186.484301 140.877219 186.484301 147.409151 195.744061 147.409151 195.744061 140.877219 191.955974 140.877219"/><rect class="cls-20" x="187.394515" y="141.633663" width="7.448429" height="5.160749"/><rect class="cls-19" x="188.166796" y="142.432583" width="1.58285" height="1.58285"/><rect class="cls-19" x="190.295249" y="142.432583" width="1.58285" height="1.58285"/><rect class="cls-19" x="192.423702" y="142.432583" width="1.58285" height="1.58285"/><rect class="cls-19" x="188.166796" y="144.420138" width="1.58285" height="1.58285"/><rect class="cls-19" x="190.295249" y="144.420138" width="1.58285" height="1.58285"/><rect class="cls-19" x="192.423702" y="144.420138" width="1.58285" height="1.58285"/><polygon class="cls-19" points="201.425012 140.877219 201.425012 139.591692 199.741416 139.591692 199.741416 140.877219 195.95334 140.877219 195.95334 147.409151 205.213099 147.409151 205.213099 140.877219 201.425012 140.877219"/><rect class="cls-20" x="196.863554" y="141.633663" width="7.448429" height="5.160749"/><rect class="cls-19" x="197.635835" y="142.432583" width="1.58285" height="1.58285"/><rect class="cls-19" x="199.764288" y="142.432583" width="1.58285" height="1.58285"/><rect class="cls-19" x="201.892741" y="142.432583" width="1.58285" height="1.58285"/><rect class="cls-19" x="197.635835" y="144.420138" width="1.58285" height="1.58285"/><rect class="cls-19" x="199.764288" y="144.420138" width="1.58285" height="1.58285"/><rect class="cls-19" x="201.892741" y="144.420138" width="1.58285" height="1.58285"/><polygon class="cls-19" points="189.311869 160.904807 189.311869 162.187831 191.39247 162.187831 191.39247 160.904807 196.073801 160.904807 196.073801 154.385598 184.630524 154.385598 184.630524 160.904807 189.311869 160.904807"/><rect class="cls-20" x="185.531666" y="155.000353" width="9.640993" height="5.160749" transform="translate(380.704325 315.161455) rotate(180)"/><rect class="cls-19" x="192.753418" y="157.779333" width="1.58285" height="1.58285" transform="translate(387.089685 317.141516) rotate(180)"/><rect class="cls-19" x="190.624964" y="157.779333" width="1.58285" height="1.58285" transform="translate(382.832778 317.141516) rotate(180)"/><rect class="cls-19" x="188.496511" y="157.779333" width="1.58285" height="1.58285" transform="translate(378.575872 317.141516) rotate(180)"/><rect class="cls-19" x="186.368058" y="157.779333" width="1.58285" height="1.58285" transform="translate(374.318966 317.141516) rotate(180)"/><rect class="cls-19" x="192.753418" y="155.791777" width="1.58285" height="1.58285" transform="translate(387.089685 313.166405) rotate(180)"/><rect class="cls-19" x="190.624964" y="155.791777" width="1.58285" height="1.58285" transform="translate(382.832778 313.166405) rotate(180)"/><rect class="cls-19" x="188.496511" y="155.791777" width="1.58285" height="1.58285" transform="translate(378.575872 313.166405) rotate(180)"/><rect class="cls-19" x="186.368058" y="155.791777" width="1.58285" height="1.58285" transform="translate(374.318966 313.166405) rotate(180)"/><polygon class="cls-19" points="200.072405 160.909916 200.072405 162.195444 201.756002 162.195444 201.756002 160.909916 205.544078 160.909916 205.544078 154.377984 196.284319 154.377984 196.284319 160.909916 200.072405 160.909916"/><rect class="cls-20" x="197.185435" y="154.992723" width="7.448429" height="5.160749" transform="translate(401.819299 315.146195) rotate(180)"/><rect class="cls-19" x="202.278733" y="157.771703" width="1.58285" height="1.58285" transform="translate(406.140316 317.126256) rotate(180)"/><rect class="cls-19" x="200.15028" y="157.771703" width="1.58285" height="1.58285" transform="translate(401.88341 317.126256) rotate(180)"/><rect class="cls-19" x="198.021827" y="157.771703" width="1.58285" height="1.58285" transform="translate(397.626504 317.126256) rotate(180)"/><rect class="cls-19" x="202.278733" y="155.784148" width="1.58285" height="1.58285" transform="translate(406.140316 313.151145) rotate(180)"/><rect class="cls-19" x="200.15028" y="155.784148" width="1.58285" height="1.58285" transform="translate(401.88341 313.151145) rotate(180)"/><rect class="cls-19" x="198.021827" y="155.784148" width="1.58285" height="1.58285" transform="translate(397.626504 313.151145) rotate(180)"/><polygon class="cls-19" points="209.059366 160.909916 209.059366 162.195444 210.742963 162.195444 210.742963 160.909916 214.531038 160.909916 214.531038 154.377984 205.271279 154.377984 205.271279 160.909916 209.059366 160.909916"/><rect class="cls-20" x="206.172395" y="154.992723" width="7.448429" height="5.160749" transform="translate(419.79322 315.146195) rotate(180)"/><rect class="cls-19" x="211.265694" y="157.771703" width="1.58285" height="1.58285" transform="translate(424.114237 317.126256) rotate(180)"/><rect class="cls-19" x="209.137241" y="157.771703" width="1.58285" height="1.58285" transform="translate(419.857331 317.126256) rotate(180)"/><rect class="cls-19" x="207.008788" y="157.771703" width="1.58285" height="1.58285" transform="translate(415.600425 317.126256) rotate(180)"/><rect class="cls-19" x="211.265694" y="155.784148" width="1.58285" height="1.58285" transform="translate(424.114237 313.151145) rotate(180)"/><rect class="cls-19" x="209.137241" y="155.784148" width="1.58285" height="1.58285" transform="translate(419.857331 313.151145) rotate(180)"/><rect class="cls-19" x="207.008788" y="155.784148" width="1.58285" height="1.58285" transform="translate(415.600425 313.151145) rotate(180)"/><polygon class="cls-19" points="142.992728 160.904807 142.992728 162.187831 147.034423 162.187831 147.034423 160.904807 156.128195 160.904807 156.128195 154.385598 133.898929 154.385598 133.898929 160.904807 142.992728 160.904807"/><rect class="cls-20" x="134.800192" y="155.001767" width="20.252327" height="5.160749" transform="translate(289.852712 315.164284) rotate(180)"/><rect class="cls-19" x="142.021944" y="157.780748" width="1.58285" height="1.58285" transform="translate(285.626737 317.144345) rotate(180)"/><rect class="cls-19" x="139.893491" y="157.780748" width="1.58285" height="1.58285" transform="translate(281.369831 317.144345) rotate(180)"/><rect class="cls-19" x="137.765037" y="157.780748" width="1.58285" height="1.58285" transform="translate(277.112924 317.144345) rotate(180)"/><rect class="cls-19" x="135.636584" y="157.780748" width="1.58285" height="1.58285" transform="translate(272.856018 317.144345) rotate(180)"/><rect class="cls-19" x="142.021944" y="155.793192" width="1.58285" height="1.58285" transform="translate(285.626737 313.169234) rotate(180)"/><rect class="cls-19" x="139.893491" y="155.793192" width="1.58285" height="1.58285" transform="translate(281.369831 313.169234) rotate(180)"/><rect class="cls-19" x="137.765037" y="155.793192" width="1.58285" height="1.58285" transform="translate(277.112924 313.169234) rotate(180)"/><rect class="cls-19" x="135.636584" y="155.793192" width="1.58285" height="1.58285" transform="translate(272.856018 313.169234) rotate(180)"/><rect class="cls-19" x="150.608974" y="157.780748" width="1.58285" height="1.58285" transform="translate(302.800797 317.144345) rotate(180)"/><rect class="cls-19" x="148.480521" y="157.780748" width="1.58285" height="1.58285" transform="translate(298.543891 317.144345) rotate(180)"/><rect class="cls-19" x="146.352067" y="157.780748" width="1.58285" height="1.58285" transform="translate(294.286985 317.144345) rotate(180)"/><rect class="cls-19" x="144.223614" y="157.780748" width="1.58285" height="1.58285" transform="translate(290.030078 317.144345) rotate(180)"/><rect class="cls-19" x="150.608974" y="155.793192" width="1.58285" height="1.58285" transform="translate(302.800797 313.169234) rotate(180)"/><rect class="cls-19" x="148.480521" y="155.793192" width="1.58285" height="1.58285" transform="translate(298.543891 313.169234) rotate(180)"/><rect class="cls-19" x="146.352067" y="155.793192" width="1.58285" height="1.58285" transform="translate(294.286985 313.169234) rotate(180)"/><rect class="cls-19" x="144.223614" y="155.793192" width="1.58285" height="1.58285" transform="translate(290.030078 313.169234) rotate(180)"/><rect class="cls-19" x="152.647579" y="157.827197" width="1.58285" height="1.58285" transform="translate(306.878007 317.237243) rotate(180)"/><rect class="cls-19" x="152.647579" y="155.839641" width="1.58285" height="1.58285" transform="translate(306.878007 313.262132) rotate(180)"/><polygon class="cls-19" points="169.098849 160.904807 169.098849 162.187831 171.563508 162.187831 171.563508 160.904807 177.108967 160.904807 177.108967 154.385598 163.553374 154.385598 163.553374 160.904807 169.098849 160.904807"/><rect class="cls-20" x="164.454586" y="155.001732" width="11.90963" height="5.160749" transform="translate(340.818803 315.164214) rotate(180)"/><rect class="cls-19" x="171.676338" y="157.780712" width="1.58285" height="1.58285" transform="translate(344.935525 317.144275) rotate(180)"/><rect class="cls-19" x="169.547885" y="157.780712" width="1.58285" height="1.58285" transform="translate(340.678619 317.144275) rotate(180)"/><rect class="cls-19" x="167.419432" y="157.780712" width="1.58285" height="1.58285" transform="translate(336.421713 317.144275) rotate(180)"/><rect class="cls-19" x="165.290978" y="157.780712" width="1.58285" height="1.58285" transform="translate(332.164807 317.144275) rotate(180)"/><rect class="cls-19" x="171.676338" y="155.793157" width="1.58285" height="1.58285" transform="translate(344.935525 313.169164) rotate(180)"/><rect class="cls-19" x="169.547885" y="155.793157" width="1.58285" height="1.58285" transform="translate(340.678619 313.169164) rotate(180)"/><rect class="cls-19" x="167.419432" y="155.793157" width="1.58285" height="1.58285" transform="translate(336.421713 313.169164) rotate(180)"/><rect class="cls-19" x="165.290978" y="155.793157" width="1.58285" height="1.58285" transform="translate(332.164807 313.169164) rotate(180)"/><rect class="cls-19" x="173.878009" y="157.780712" width="1.58285" height="1.58285" transform="translate(349.338867 317.144275) rotate(180)"/><rect class="cls-19" x="173.878009" y="155.793157" width="1.58285" height="1.58285" transform="translate(349.338867 313.169164) rotate(180)"/><path class="cls-23" d="M306.790527,458.655273v4.767578c0,1.803711.800781,2.568359,1.875977,2.568359,1.194824,0,1.959473-.789062,1.959473-2.568359v-4.767578h1.05127v4.695312c0,2.473633-1.302246,3.489258-3.046387,3.489258-1.648926,0-2.891602-.944336-2.891602-3.441406v-4.743164h1.05127Z"/><path class="cls-23" d="M313.337402,465.441406c.46582.287109,1.146973.525391,1.86377.525391,1.063477,0,1.68457-.561523,1.68457-1.373047,0-.75293-.430176-1.183594-1.51709-1.601562-1.314453-.46582-2.126953-1.146484-2.126953-2.282227,0-1.253906,1.039551-2.186523,2.604492-2.186523.824707,0,1.421875.191406,1.780273.394531l-.286621.848633c-.262695-.143555-.800293-.382812-1.529297-.382812-1.099121,0-1.517578.657227-1.517578,1.207031,0,.75293.490234,1.123047,1.601074,1.552734,1.362305.526367,2.055176,1.183594,2.055176,2.366211,0,1.242188-.919922,2.317383-2.819824,2.317383-.776367,0-1.624512-.226562-2.054688-.513672l.262695-.87207Z"/><path class="cls-23" d="M319.370117,458.762695c.453613-.095703,1.170898-.166992,1.899414-.166992,1.039551,0,1.708496.178711,2.210449.584961.417969.310547.668945.789062.668945,1.421875,0,.776367-.513672,1.458008-1.361816,1.768555v.023438c.764648.191406,1.660645.825195,1.660645,2.019531,0,.693359-.274902,1.21875-.681152,1.613281-.561523.513672-1.469727.751953-2.783691.751953-.716797,0-1.266602-.047852-1.612793-.094727v-7.921875ZM320.40918,462.060547h.943848c1.099609,0,1.744629-.573242,1.744629-1.350586,0-.943359-.716797-1.313477-1.768555-1.313477-.477539,0-.752441.035156-.919922.071289v2.592773ZM320.40918,465.919922c.203125.035156.501953.046875.872559.046875,1.075195,0,2.066895-.393555,2.066895-1.564453,0-1.099609-.943848-1.553711-2.079102-1.553711h-.860352v3.071289Z"/><path class="cls-23" d="M328.258301,465.500977c.298828.191406.991699.490234,1.720215.490234,1.350098,0,1.768555-.860352,1.756348-1.505859-.011719-1.086914-.991699-1.552734-2.006836-1.552734h-.585449v-.789062h.585449c.764648,0,1.732422-.393555,1.732422-1.313477,0-.621094-.394531-1.170898-1.362305-1.170898-.621094,0-1.21875.274414-1.553223.513672l-.274902-.764648c.40625-.298828,1.194824-.597656,2.03125-.597656,1.529297,0,2.222168.908203,2.222168,1.851562,0,.800781-.477539,1.481445-1.433594,1.828125v.024414c.956055.19043,1.732422.908203,1.732422,1.995117,0,1.242188-.967773,2.330078-2.831543,2.330078-.87207,0-1.636719-.275391-2.019043-.526367l.286621-.8125Z"/><path class="cls-23" d="M334.219238,466.086914c0-.442383.298828-.75293.717285-.75293.417969,0,.70459.310547.70459.75293,0,.429688-.274902.75293-.716797.75293-.417969,0-.705078-.323242-.705078-.75293Z"/><path class="cls-23" d="M338.890625,459.921875h-.023926l-1.350098.728516-.203125-.800781,1.696289-.907227h.895996v7.765625h-1.015137v-6.786133Z"/><path class="cls-23" d="M308.695801,274.945312v3.369141h3.89502v-3.369141h1.05127v8.052734h-1.05127v-3.775391h-3.89502v3.775391h-1.039062v-8.052734h1.039062Z"/><path class="cls-23" d="M316.484863,274.945312v8.052734h-1.039062v-8.052734h1.039062Z"/><path class="cls-23" d="M318.300781,275.052734c.525391-.107422,1.27832-.166992,1.995117-.166992,1.111328,0,1.828125.203125,2.32959.657227.40625.358398.633301.907715.633301,1.529297,0,1.062988-.668945,1.768066-1.51709,2.054688v.036133c.621094.214844.991699.788086,1.182617,1.624512.262695,1.123047.454102,1.899902.621094,2.210449h-1.075195c-.131348-.227051-.310547-.919922-.537598-1.92334-.23877-1.111328-.668945-1.529297-1.612793-1.56543h-.97998v3.48877h-1.039062v-7.945312ZM319.339844,278.720703h1.063477c1.111328,0,1.815918-.609375,1.815918-1.529297,0-1.039551-.752441-1.493164-1.851562-1.505371-.501953,0-.860352.047852-1.027832.095703v2.938965Z"/><path class="cls-23" d="M331.645996,278.888184c0,2.771973-1.68457,4.241211-3.739746,4.241211-2.126953,0-3.620117-1.648926-3.620117-4.085938,0-2.556641,1.588867-4.229492,3.739746-4.229492,2.198242,0,3.620117,1.68457,3.620117,4.074219ZM325.396973,279.019531c0,1.720215.932129,3.261719,2.568848,3.261719,1.648926,0,2.581055-1.517578,2.581055-3.345215,0-1.601074-.836426-3.273926-2.568848-3.273926-1.720703,0-2.581055,1.589355-2.581055,3.357422Z"/><path class="cls-23" d="M332.851562,281.731445c.46582.287109,1.146973.525879,1.86377.525879,1.063477,0,1.68457-.561523,1.68457-1.374023,0-.752441-.430176-1.182617-1.51709-1.601074-1.314453-.46582-2.126953-1.146973-2.126953-2.281738,0-1.254883,1.039551-2.186523,2.604492-2.186523.824707,0,1.421875.190918,1.780273.394043l-.286621.848633c-.262695-.143555-.800293-.382324-1.529297-.382324-1.099121,0-1.51709.656738-1.51709,1.206543,0,.75293.489746,1.123047,1.600586,1.553223,1.362305.525879,2.055176,1.182617,2.055176,2.365723,0,1.242188-.919922,2.317871-2.819824,2.317871-.776367,0-1.624512-.227051-2.054688-.513672l.262695-.872559Z"/><path class="cls-23" d="M343.054199,279.222656h-3.130371v2.90332h3.48877v.87207h-4.527832v-8.052734h4.348633v.87207h-3.30957v2.544922h3.130371v.860352Z"/><path class="cls-23" d="M348.333984,274.945312v3.369141h3.89502v-3.369141h1.05127v8.052734h-1.05127v-3.775391h-3.89502v3.775391h-1.039062v-8.052734h1.039062Z"/><path class="cls-23" d="M355.083984,275.052734c.525391-.107422,1.27832-.166992,1.995117-.166992,1.111328,0,1.828125.203125,2.32959.657227.40625.358398.633301.907715.633301,1.529297,0,1.062988-.668945,1.768066-1.51709,2.054688v.036133c.621094.214844.991699.788086,1.182617,1.624512.262695,1.123047.454102,1.899902.621094,2.210449h-1.075195c-.131348-.227051-.310547-.919922-.537598-1.92334-.23877-1.111328-.668945-1.529297-1.612793-1.56543h-.97998v3.48877h-1.039062v-7.945312ZM356.123047,278.720703h1.063477c1.111328,0,1.815918-.609375,1.815918-1.529297,0-1.039551-.752441-1.493164-1.851562-1.505371-.501953,0-.860352.047852-1.027832.095703v2.938965Z"/><path class="cls-23" d="M363.422852,276.211914h-.023926l-1.350098.728516-.203125-.800293,1.696289-.908203h.895996v7.766113h-1.015137v-6.786133Z"/><path class="cls-23" d="M372.430664,279.03125c0,2.640625-.97998,4.098145-2.700195,4.098145-1.517578,0-2.544922-1.421875-2.568848-3.990234,0-2.60498,1.123047-4.038574,2.700195-4.038574,1.636719,0,2.568848,1.45752,2.568848,3.930664ZM368.212891,279.150879c0,2.019043.621094,3.166016,1.577148,3.166016,1.075195,0,1.588867-1.254395,1.588867-3.237793,0-1.911621-.489746-3.166016-1.577148-3.166016-.919922,0-1.588867,1.123047-1.588867,3.237793Z"/><path class="cls-23" d="M378.70166,279.37793v.776367h-2.951172v-.776367h2.951172Z"/><path class="cls-23" d="M386.5625,275.972656c-.214844-.011719-.489746,0-.788574.047852-1.648926.274902-2.520996,1.481445-2.700195,2.760254h.036133c.370117-.490234,1.015137-.896484,1.875488-.896484,1.374023,0,2.341797.991699,2.341797,2.509277,0,1.421875-.967773,2.73584-2.580566,2.73584-1.660645,0-2.748047-1.290039-2.748047-3.30957,0-1.529297.549316-2.73584,1.313965-3.500488.645508-.633301,1.505859-1.027344,2.485352-1.146973.310547-.047852.573242-.05957.764648-.05957v.859863ZM386.263672,280.453125c0-1.11084-.633301-1.780273-1.601074-1.780273-.632812,0-1.218262.394531-1.505371.956055-.071289.119141-.119141.274902-.119141.46582.023926,1.27832.609375,2.222168,1.708496,2.222168.907715,0,1.51709-.752441,1.51709-1.86377Z"/><path class="cls-23" d="M391.161621,275.041016c.501465-.083496,1.158691-.155273,1.995117-.155273,1.027344,0,1.780273.23877,2.258301.668945.441895.382324.70459.967773.70459,1.68457,0,.729004-.214844,1.302246-.621094,1.720703-.549805.585449-1.445801.883789-2.461426.883789-.310547,0-.597168-.011719-.836426-.071777v3.226074h-1.039062v-7.957031ZM392.200684,278.923828c.227051.05957.51416.083496.860352.083496,1.254395,0,2.019043-.608887,2.019043-1.720215,0-1.063477-.752441-1.577148-1.899414-1.577148-.454102,0-.800781.035645-.97998.083496v3.130371Z"/><path class="cls-23" d="M398.556152,274.945312v8.052734h-1.039062v-8.052734h1.039062Z"/><path class="cls-23" d="M400.37207,282.998047v-8.052734h1.134766l2.580566,4.074219c.597656.943848,1.063477,1.791992,1.445801,2.616699l.023926-.012207c-.095703-1.075195-.119629-2.055176-.119629-3.30957v-3.369141h.979492v8.052734h-1.050781l-2.557129-4.085938c-.561523-.895996-1.099121-1.816406-1.505371-2.688477l-.035645.012207c.05957,1.015625.083496,1.98291.083496,3.321289v3.440918h-.979492Z"/><path class="cls-23" d="M408.089844,281.731445c.46582.287109,1.147461.525879,1.864258.525879,1.0625,0,1.68457-.561523,1.68457-1.374023,0-.752441-.430664-1.182617-1.517578-1.601074-1.314453-.46582-2.126953-1.146973-2.126953-2.281738,0-1.254883,1.040039-2.186523,2.604492-2.186523.824219,0,1.421875.190918,1.780273.394043l-.286133.848633c-.263672-.143555-.800781-.382324-1.529297-.382324-1.099609,0-1.517578.656738-1.517578,1.206543,0,.75293.489258,1.123047,1.600586,1.553223,1.362305.525879,2.054688,1.182617,2.054688,2.365723,0,1.242188-.919922,2.317871-2.819336,2.317871-.776367,0-1.625-.227051-2.054688-.513672l.262695-.872559Z"/><path class="cls-23" d="M306.378418,347.546875v4.767578c0,1.803711.800781,2.568359,1.875977,2.568359,1.194824,0,1.959473-.789062,1.959473-2.568359v-4.767578h1.05127v4.695312c0,2.473633-1.302246,3.489258-3.046387,3.489258-1.648926,0-2.891602-.944336-2.891602-3.441406v-4.743164h1.05127Z"/><path class="cls-23" d="M312.925293,354.333008c.46582.287109,1.146973.525391,1.86377.525391,1.063477,0,1.68457-.561523,1.68457-1.373047,0-.75293-.430176-1.183594-1.51709-1.601562-1.314453-.46582-2.126953-1.146484-2.126953-2.282227,0-1.253906,1.039551-2.186523,2.604492-2.186523.824707,0,1.421875.191406,1.780273.394531l-.286621.848633c-.262695-.143555-.800293-.382812-1.529297-.382812-1.099121,0-1.517578.657227-1.517578,1.207031,0,.75293.490234,1.123047,1.601074,1.552734,1.362305.526367,2.055176,1.183594,2.055176,2.366211,0,1.242188-.919922,2.317383-2.819824,2.317383-.776367,0-1.624512-.226562-2.054688-.513672l.262695-.87207Z"/><path class="cls-23" d="M318.958008,347.654297c.453613-.095703,1.170898-.166992,1.899414-.166992,1.039551,0,1.708496.178711,2.210449.584961.417969.310547.668945.789062.668945,1.421875,0,.776367-.513672,1.458008-1.361816,1.768555v.023438c.764648.191406,1.660645.825195,1.660645,2.019531,0,.693359-.274902,1.21875-.681152,1.613281-.561523.513672-1.469727.751953-2.783691.751953-.716797,0-1.266602-.047852-1.612793-.094727v-7.921875ZM319.99707,350.952148h.943848c1.099609,0,1.744629-.573242,1.744629-1.350586,0-.943359-.716797-1.313477-1.768555-1.313477-.477539,0-.752441.035156-.919922.071289v2.592773ZM319.99707,354.811523c.203125.035156.501953.046875.872559.046875,1.075195,0,2.066895-.393555,2.066895-1.564453,0-1.099609-.943848-1.553711-2.079102-1.553711h-.860352v3.071289Z"/><path class="cls-23" d="M327.846191,354.392578c.298828.191406.991699.490234,1.720215.490234,1.350098,0,1.768555-.860352,1.756348-1.505859-.011719-1.086914-.991699-1.552734-2.006836-1.552734h-.585449v-.789062h.585449c.764648,0,1.732422-.393555,1.732422-1.313477,0-.62207-.394531-1.170898-1.362305-1.170898-.621094,0-1.21875.274414-1.553223.513672l-.274902-.764648c.40625-.298828,1.194824-.597656,2.03125-.597656,1.529297,0,2.222168.908203,2.222168,1.851562,0,.800781-.477539,1.481445-1.433594,1.828125v.024414c.956055.19043,1.732422.908203,1.732422,1.995117,0,1.242188-.967773,2.330078-2.831543,2.330078-.87207,0-1.636719-.275391-2.019043-.526367l.286621-.8125Z"/><path class="cls-23" d="M343.413086,352.063477c-.05957-1.123047-.131348-2.473633-.119629-3.477539h-.035645c-.274902.944336-.609375,1.948242-1.015625,3.058594l-1.421875,3.907227h-.788574l-1.302246-3.834961c-.382324-1.134766-.705078-2.174805-.931641-3.130859h-.023926c-.023926,1.003906-.083984,2.354492-.155273,3.560547l-.215332,3.453125h-.991699l.561523-8.052734h1.326172l1.374023,3.894531c.334473.992188.609375,1.875977.8125,2.712891h.035645c.203125-.8125.490234-1.697266.848633-2.712891l1.433594-3.894531h1.326172l.501953,8.052734h-1.015625l-.203125-3.536133Z"/><path class="cls-23" d="M347.509766,348.192383c.012207.358398-.250977.644531-.668945.644531-.370605,0-.633301-.286133-.633301-.644531,0-.371094.274902-.657227.657227-.657227.394043,0,.64502.286133.64502.657227ZM346.338867,355.599609v-5.782227h1.05127v5.782227h-1.05127Z"/><path class="cls-23" d="M353.256348,355.384766c-.274902.143555-.884277.333984-1.660645.333984-1.744629,0-2.879395-1.182617-2.879395-2.951172,0-1.779297,1.21875-3.070312,3.106445-3.070312.621094,0,1.170898.155273,1.45752.298828l-.239258.8125c-.250488-.143555-.64502-.274414-1.218262-.274414-1.326172,0-2.042969.979492-2.042969,2.186523,0,1.337891.859863,2.162109,2.006836,2.162109.597656,0,.991699-.155273,1.290527-.287109l.179199.789062Z"/><path class="cls-23" d="M354.486328,351.621094c0-.680664-.011719-1.266602-.047852-1.803711h.919922l.036133,1.134766h.047852c.262695-.776367.895996-1.266602,1.601074-1.266602.119141,0,.202637.011719.29834.036133v.991211c-.107422-.023438-.214844-.036133-.358398-.036133-.740723,0-1.266602.561523-1.409668,1.350586-.023926.143555-.047852.310547-.047852.490234v3.082031h-1.039551v-3.978516Z"/><path class="cls-23" d="M363.506836,352.660156c0,2.138672-1.481934,3.071289-2.879395,3.071289-1.56543,0-2.771973-1.147461-2.771973-2.975586,0-1.935547,1.266602-3.070312,2.867188-3.070312,1.660645,0,2.78418,1.207031,2.78418,2.974609ZM358.918945,352.720703c0,1.265625.728516,2.22168,1.755859,2.22168,1.003906,0,1.756348-.943359,1.756348-2.246094,0-.979492-.489746-2.222656-1.732422-2.222656-1.242188,0-1.779785,1.147461-1.779785,2.24707Z"/><path class="cls-23" d="M367.44873,351.979492v.776367h-2.951172v-.776367h2.951172Z"/><path class="cls-23" d="M368.714844,347.654297c.453613-.095703,1.170898-.166992,1.899414-.166992,1.039551,0,1.708496.178711,2.210449.584961.417969.310547.668945.789062.668945,1.421875,0,.776367-.513672,1.458008-1.361816,1.768555v.023438c.764648.191406,1.660645.825195,1.660645,2.019531,0,.693359-.274902,1.21875-.681152,1.613281-.561523.513672-1.469727.751953-2.783691.751953-.716797,0-1.266602-.047852-1.612793-.094727v-7.921875ZM369.753906,350.952148h.943848c1.099609,0,1.744629-.573242,1.744629-1.350586,0-.943359-.716797-1.313477-1.768555-1.313477-.477539,0-.752441.035156-.919922.071289v2.592773ZM369.753906,354.811523c.203125.035156.501953.046875.872559.046875,1.075195,0,2.066895-.393555,2.066895-1.564453,0-1.099609-.943848-1.553711-2.079102-1.553711h-.860352v3.071289Z"/><path class="cls-23" d="M144.685059,246.135254c0-.740723-.023926-1.337891-.047852-1.887695h.943848l.047852.991699h.023926c.430176-.705078,1.111328-1.123047,2.055176-1.123047,1.397949,0,2.449219,1.182617,2.449219,2.938965,0,2.079102-1.266602,3.106445-2.628418,3.106445-.764648,0-1.433594-.334473-1.780273-.907715h-.023926v3.14209h-1.039551v-6.260742ZM145.724609,247.676758c0,.155273.023926.29834.047852.430176.190918.728516.824219,1.230469,1.577148,1.230469,1.11084,0,1.756348-.908203,1.756348-2.234375,0-1.158691-.609375-2.150391-1.720703-2.150391-.716797,0-1.385742.513672-1.588867,1.302246-.036133.131348-.071777.286621-.071777.430176v.991699Z"/><path class="cls-23" d="M152.65332,242.622559c.012207.358398-.250977.645508-.668945.645508-.370605,0-.633301-.287109-.633301-.645508,0-.370117.274902-.656738.657227-.656738.394043,0,.64502.286621.64502.656738ZM151.482422,250.030273v-5.782715h1.05127v5.782715h-1.05127Z"/><path class="cls-23" d="M154.277832,245.812988c0-.597656-.011719-1.087402-.047852-1.56543h.932129l.05957.956055h.023926c.286621-.549805.956055-1.087402,1.911621-1.087402.800781,0,2.042969.478027,2.042969,2.461426v3.452637h-1.05127v-3.333496c0-.931641-.346191-1.708496-1.337891-1.708496-.693359,0-1.230957.489746-1.410156,1.075195-.047852.131836-.071777.311035-.071777.490234v3.476562h-1.05127v-4.217285Z"/><path class="cls-23" d="M165.388184,243.244141h-.023926l-1.350098.728516-.203125-.800293,1.696289-.908203h.895996v7.766113h-1.015137v-6.786133Z"/><path class="cls-23" d="M188.001953,246.405762c0-.740723-.023926-1.337891-.047852-1.887695h.943848l.047852.991699h.023926c.430176-.705078,1.111328-1.123047,2.055176-1.123047,1.397949,0,2.449219,1.182617,2.449219,2.938965,0,2.079102-1.266602,3.106445-2.628418,3.106445-.764648,0-1.433594-.334473-1.780273-.907715h-.023926v3.14209h-1.039551v-6.260742ZM189.041504,247.947266c0,.155273.023926.29834.047852.430176.190918.728516.824219,1.230469,1.577148,1.230469,1.11084,0,1.756348-.908203,1.756348-2.234375,0-1.158691-.609375-2.150391-1.720703-2.150391-.716797,0-1.385742.513672-1.588867,1.302246-.036133.131348-.071777.286621-.071777.430176v.991699Z"/><path class="cls-23" d="M195.970215,242.893066c.012207.358398-.250977.645508-.668945.645508-.370605,0-.633301-.287109-.633301-.645508,0-.370117.274902-.656738.657227-.656738.394043,0,.64502.286621.64502.656738ZM194.799316,250.300781v-5.782715h1.05127v5.782715h-1.05127Z"/><path class="cls-23" d="M197.594727,246.083496c0-.597656-.011719-1.087402-.047852-1.56543h.932129l.05957.956055h.023926c.286621-.549805.956055-1.087402,1.911621-1.087402.800781,0,2.042969.478027,2.042969,2.461426v3.452637h-1.05127v-3.333496c0-.931641-.34668-1.708496-1.337891-1.708496-.693359,0-1.230957.489746-1.410156,1.075195-.047852.131836-.071777.311035-.071777.490234v3.476562h-1.05127v-4.217285Z"/><path class="cls-23" d="M210.855469,243.275391c-.214844-.011719-.489746,0-.788574.047852-1.648926.274902-2.520996,1.481445-2.700195,2.760254h.036133c.370117-.490234,1.015137-.896484,1.875488-.896484,1.374023,0,2.341797.991699,2.341797,2.509277,0,1.421875-.967773,2.73584-2.580566,2.73584-1.660645,0-2.748047-1.290039-2.748047-3.30957,0-1.529297.549316-2.73584,1.313965-3.500488.645508-.633301,1.505859-1.027344,2.485352-1.146973.310547-.047852.573242-.05957.764648-.05957v.859863ZM210.556641,247.755859c0-1.11084-.633301-1.780273-1.601074-1.780273-.632812,0-1.218262.394531-1.505371.956055-.071289.119141-.119141.274902-.119141.46582.023926,1.27832.609375,2.222168,1.708496,2.222168.907715,0,1.51709-.752441,1.51709-1.86377Z"/><path class="cls-23" d="M375.63623,247.894043c0-.740723-.023926-1.337891-.047852-1.887695h.943848l.047852.991699h.023926c.430176-.705078,1.111328-1.123047,2.055176-1.123047,1.397949,0,2.449219,1.182617,2.449219,2.938965,0,2.079102-1.266602,3.106445-2.628418,3.106445-.764648,0-1.433594-.334473-1.780273-.907715h-.023926v3.14209h-1.039551v-6.260742ZM376.675781,249.435547c0,.155273.023926.29834.047852.430176.190918.728516.824219,1.230469,1.577148,1.230469,1.11084,0,1.756348-.908203,1.756348-2.234375,0-1.158691-.609375-2.150391-1.720703-2.150391-.716797,0-1.385742.513672-1.588867,1.302246-.036133.131348-.071777.286621-.071777.430176v.991699Z"/><path class="cls-23" d="M383.604492,244.381348c.012207.358398-.250977.645508-.668945.645508-.370605,0-.633301-.287109-.633301-.645508,0-.370117.274902-.656738.657227-.656738.394043,0,.64502.286621.64502.656738ZM382.433594,251.789062v-5.782715h1.05127v5.782715h-1.05127Z"/><path class="cls-23" d="M385.229004,247.571777c0-.597656-.011719-1.087402-.047852-1.56543h.932129l.05957.956055h.023926c.286621-.549805.956055-1.087402,1.911621-1.087402.800781,0,2.042969.478027,2.042969,2.461426v3.452637h-1.05127v-3.333496c0-.931641-.346191-1.708496-1.337891-1.708496-.693359,0-1.230957.489746-1.410156,1.075195-.047852.131836-.071777.311035-.071777.490234v3.476562h-1.05127v-4.217285Z"/><path class="cls-23" d="M394.057129,251.789062v-.64502l.824219-.800781c1.983398-1.887695,2.879395-2.891113,2.891602-4.062012,0-.788574-.382324-1.517578-1.541504-1.517578-.70459,0-1.290039.358398-1.648438.657227l-.334473-.740723c.537598-.454102,1.302246-.788574,2.198242-.788574,1.672363,0,2.377441,1.146973,2.377441,2.258301,0,1.433594-1.039551,2.592285-2.67627,4.169434l-.621094.57373v.023926h3.48877v.87207h-4.958496Z"/><path class="cls-23" d="M420.925781,246.697754c0-.740723-.023438-1.337891-.047852-1.887695h.944336l.047852.991699h.023438c.430664-.705078,1.111328-1.123047,2.054688-1.123047,1.398438,0,2.449219,1.182617,2.449219,2.938965,0,2.079102-1.265625,3.106445-2.62793,3.106445-.764648,0-1.433594-.334473-1.780273-.907715h-.023438v3.14209h-1.040039v-6.260742ZM421.96582,248.239258c0,.155273.023438.29834.046875.430176.191406.728516.825195,1.230469,1.577148,1.230469,1.111328,0,1.756836-.908203,1.756836-2.234375,0-1.158691-.609375-2.150391-1.720703-2.150391-.716797,0-1.385742.513672-1.588867,1.302246-.036133.131348-.071289.286621-.071289.430176v.991699Z"/><path class="cls-23" d="M428.894531,243.185059c.011719.358398-.250977.645508-.668945.645508-.370117,0-.632812-.287109-.632812-.645508,0-.370117.274414-.656738.65625-.656738.394531,0,.645508.286621.645508.656738ZM427.723633,250.592773v-5.782715h1.051758v5.782715h-1.051758Z"/><path class="cls-23" d="M430.518555,246.375488c0-.597656-.011719-1.087402-.047852-1.56543h.931641l.060547.956055h.023438c.287109-.549805.956055-1.087402,1.912109-1.087402.799805,0,2.042969.478027,2.042969,2.461426v3.452637h-1.051758v-3.333496c0-.931641-.34668-1.708496-1.337891-1.708496-.693359,0-1.230469.489746-1.410156,1.075195-.047852.131836-.071289.311035-.071289.490234v3.476562h-1.051758v-4.217285Z"/><path class="cls-23" d="M443.982422,243.710938h-2.962891l-.297852,1.995117c.178711-.023926.345703-.047852.632812-.047852.597656,0,1.194336.131836,1.672852.418457.609375.346191,1.111328,1.015625,1.111328,1.995117,0,1.517578-1.207031,2.652344-2.891602,2.652344-.848633,0-1.56543-.23877-1.935547-.478027l.262695-.800293c.322266.190918.956055.430176,1.661133.430176.991211,0,1.839844-.64502,1.839844-1.68457-.012695-1.003906-.681641-1.720703-2.234375-1.720703-.442383,0-.789062.047852-1.075195.083984l.501953-3.728027h3.714844v.884277Z"/><path class="cls-17" d="M558.875259,43.302514c-.910523,0-1.655486-.891237-1.655486-1.980544v-5.658662c0-1.089307.744962-1.980544,1.655486-1.980544.259169,0,.50174.0786.720726.207032v-6.612408c-.218986.128431-.461557.207032-.720726.207032-.910523,0-1.655486-.891237-1.655486-1.980519v-5.658687c0-1.089307.744962-1.980544,1.655486-1.980544.259169,0,.50174.0786.720726.207032v-.691687c0-1.875108-1.270603-3.395197-2.837957-3.395197h-130.388633c-1.567354,0-2.837957,1.520089-2.837957,3.395197v.539357c.224966-.137419.475532-.222345.744228-.222345.910523,0,1.655486.891237,1.655486,1.980519v5.658687c0,1.089282-.744962,1.980519-1.655486,1.980519-.268696,0-.519262-.084926-.744228-.222345v6.643035c.224966-.137419.475532-.222345.744228-.222345.910523,0,1.655486.891237,1.655486,1.980544v5.658662c0,1.089307-.744962,1.980544-1.655486,1.980544-.268696,0-.519262-.084926-.744228-.222345v.497408c0,1.875133,1.270603,3.395222,2.837957,3.395222h130.388633c1.567354,0,2.837957-1.520089,2.837957-3.395222v-.314426c-.218986.128431-.461557.207032-.720726.207032Z"/><circle class="cls-1" cx="491.96125" cy="31.332766" r="4.526939"/><circle class="cls-13" cx="491.96125" cy="31.332766" r="2.294906"/><circle class="cls-9" cx="491.96125" cy="31.332766" r=".502993"/><circle class="cls-1" cx="505.015495" cy="31.332766" r="4.526939"/><circle class="cls-13" cx="505.015495" cy="31.332766" r="2.294906"/><circle class="cls-9" cx="505.015495" cy="31.332766" r=".502993"/><circle class="cls-1" cx="518.099867" cy="31.332766" r="4.526939"/><circle class="cls-13" cx="518.099867" cy="31.332766" r="2.294906"/><circle class="cls-9" cx="518.099867" cy="31.332766" r=".502993"/><path class="cls-19" d="M489.901367,21.884277c0,.764648-.464844,1.169922-1.032227,1.169922-.586914,0-.999023-.45459-.999023-1.126953,0-.705566.438477-1.166992,1.032227-1.166992.606445,0,.999023.464844.999023,1.124023ZM488.176758,21.92041c0,.474609.257812.899902.708984.899902.455078,0,.711914-.418457.711914-.922852,0-.441406-.230469-.90332-.708984-.90332-.474609,0-.711914.438477-.711914.92627Z"/><path class="cls-19" d="M490.555664,20.796875v1.314941c0,.497559.220703.708496.517578.708496.330078,0,.541016-.217773.541016-.708496v-1.314941h.289062v1.294922c0,.682617-.358398.962402-.839844.962402-.455078,0-.797852-.260254-.797852-.949219v-1.308105h.290039Z"/><path class="cls-19" d="M492.819336,21.040527h-.674805v-.243652h1.644531v.243652h-.678711v1.977539h-.291016v-1.977539Z"/><path class="cls-19" d="M494.628906,23.018066v-.178223l.227539-.220703c.546875-.520508.793945-.797363.796875-1.120605,0-.217285-.105469-.418457-.424805-.418457-.194336,0-.355469.098633-.455078.181152l-.091797-.204102c.148438-.125488.359375-.217773.606445-.217773.460938,0,.65625.316406.65625.623047,0,.395508-.287109.715332-.738281,1.150391l-.171875.158203v.006348h.962891v.240723h-1.368164Z"/><path class="cls-19" d="M502.956055,21.927246c0,.764648-.464844,1.169922-1.032227,1.169922-.586914,0-.999023-.45459-.999023-1.126953,0-.705566.438477-1.166992,1.032227-1.166992.606445,0,.999023.464844.999023,1.124023ZM501.231445,21.963379c0,.474609.257812.899902.708984.899902.455078,0,.711914-.418457.711914-.922852,0-.441406-.230469-.90332-.708984-.90332-.474609,0-.711914.438477-.711914.92627Z"/><path class="cls-19" d="M503.610352,20.839844v1.314941c0,.497559.220703.708496.517578.708496.330078,0,.541016-.217773.541016-.708496v-1.314941h.289062v1.294922c0,.682617-.358398.962402-.839844.962402-.455078,0-.797852-.260254-.797852-.949219v-1.308105h.290039Z"/><path class="cls-19" d="M505.874023,21.083496h-.674805v-.243652h1.644531v.243652h-.678711v1.977539h-.291016v-1.977539Z"/><path class="cls-19" d="M507.75293,22.728027c.082031.052734.273438.135254.474609.135254.37207,0,.487305-.237305.484375-.415039-.003906-.300293-.273438-.428711-.553711-.428711h-.161133v-.217773h.161133c.210938,0,.477539-.108398.477539-.362305,0-.171387-.108398-.323242-.375-.323242-.171875,0-.336914.076172-.428711.14209l-.076172-.210938c.112305-.08252.330078-.165039.560547-.165039.421875,0,.613281.250488.613281.51123,0,.220703-.131836.408203-.395508.503906v.006836c.263672.052734.477539.250488.477539.550293,0,.342773-.266602.642578-.78125.642578-.240234,0-.451172-.075684-.556641-.14502l.079102-.224121Z"/><path class="cls-19" d="M515.96875,20.751953v2.22168h-.286133v-2.22168h.286133Z"/><path class="cls-19" d="M516.467773,22.973633v-2.22168h.313477l.711914,1.124023c.165039.260742.292969.494629.398438.72168l.006836-.00293c-.026367-.296875-.032227-.566895-.032227-.913086v-.929688h.269531v2.22168h-.290039l-.705078-1.126953c-.155273-.247559-.303711-.500977-.415039-.741699l-.009766.003418c.015625.279785.022461.546875.022461.916016v.949219h-.270508Z"/><path class="cls-19" d="M520.65332,21.879395c0,.728516-.270508,1.130371-.745117,1.130371-.418945,0-.702148-.39209-.708008-1.100586,0-.71875.30957-1.114258.744141-1.114258.452148,0,.708984.402344.708984,1.084473ZM519.489258,21.912109c0,.557129.171875.873535.435547.873535.296875,0,.438477-.346191.438477-.893066,0-.527344-.135742-.873535-.435547-.873535-.25293,0-.438477.310059-.438477.893066Z"/><ellipse class="cls-22" cx="535.782575" cy="28.158626" rx="1.571854" ry="1.634728"/><ellipse class="cls-22" cx="535.782575" cy="33.505548" rx="1.571854" ry="1.634728"/><ellipse class="cls-22" cx="541.100333" cy="28.158626" rx="1.571854" ry="1.634728"/><ellipse class="cls-22" cx="541.100333" cy="33.505548" rx="1.571854" ry="1.634728"/><path class="cls-19" d="M536.938477,22.964355c.040039.079102.079102.237305.079102.439941,0,.469727-.295898.823242-.842773.823242-.521484,0-.875-.353516-.875-.870117,0-.208008.044922-.338867.074219-.395508l.175781.051758c-.040039.081543-.069336.197754-.069336.336426,0,.390137.25.649902.6875.649902.407227,0,.669922-.234863.669922-.640137,0-.131348-.027344-.264648-.069336-.351074l.169922-.044434Z"/><path class="cls-19" d="M536.46875,22.417969l.524414.17334v.222168l-1.666016-.565918v-.259277l1.666016-.568848v.22998l-.524414.177734v.59082ZM536.300781,21.87207l-.479492.163086c-.108398.037109-.207031.061523-.303711.086426v.004883c.098633.024902.200195.051758.301758.083984l.481445.163086v-.501465Z"/><path class="cls-19" d="M536.261719,19.783203c-.232422.012207-.511719.026855-.719727.024414v.007812c.195312.056641.40332.125977.632812.209961l.808594.293945v.163086l-.793945.269531c-.234375.079102-.449219.145996-.647461.192871v.004883c.208008.004883.487305.017578.736328.032227l.714844.044434v.205078l-1.666016-.116211v-.274414l.805664-.28418c.205078-.068848.388672-.125977.561523-.167969v-.007324c-.167969-.041992-.351562-.101562-.561523-.175781l-.805664-.296387v-.274414l1.666016-.104004v.210449l-.731445.041992Z"/><path class="cls-19" d="M536.172852,18.211426c.545898,0,.847656.202637.847656.558594,0,.313965-.293945.526855-.826172.531738-.538086,0-.834961-.232422-.834961-.558594,0-.338867.301758-.531738.813477-.531738ZM536.197266,19.083984c.417969,0,.655273-.128418.655273-.326172,0-.222656-.259766-.328613-.669922-.328613-.395508,0-.655273.101074-.655273.326172,0,.19043.232422.328613.669922.328613Z"/><path class="cls-19" d="M541.456055,22.70459c.574219,0,.87793.348633.87793.773926,0,.439941-.34082.749023-.845703.749023-.529297,0-.875-.329102-.875-.773926,0-.45459.348633-.749023.842773-.749023ZM541.483398,23.997559c.356445,0,.674805-.192871.674805-.531738,0-.34082-.313477-.533691-.692383-.533691-.331055,0-.676758.172852-.676758.53125,0,.355957.328125.53418.694336.53418Z"/><path class="cls-19" d="M542.306641,22.428223h-1.666016v-.234863l.842773-.533691c.195312-.123535.371094-.220215.541016-.299316l-.001953-.004883c-.222656.02002-.424805.024902-.68457.024902h-.697266v-.202637h1.666016v.217285l-.845703.528809c-.185547.116211-.375.227539-.555664.311523l.001953.007812c.209961-.012695.410156-.017578.6875-.017578h.711914v.202637Z"/><path class="cls-19" d="M536.791016,42.213867c.040039.079102.079102.237305.079102.439941,0,.469727-.295898.823242-.842773.823242-.521484,0-.875-.353516-.875-.870117,0-.20752.044922-.338867.074219-.395508l.175781.051758c-.040039.081543-.069336.197754-.069336.336426,0,.390137.25.649902.6875.649902.407227,0,.669922-.234863.669922-.640137,0-.130859-.027344-.264648-.069336-.351074l.169922-.044434Z"/><path class="cls-19" d="M536.321289,41.66748l.524414.17334v.222168l-1.666016-.565918v-.259277l1.666016-.568848v.22998l-.524414.178223v.590332ZM536.15332,41.121582l-.479492.163086c-.108398.037109-.207031.061523-.303711.086426v.004883c.098633.024902.200195.051758.301758.083984l.481445.163086v-.501465Z"/><path class="cls-19" d="M536.114258,39.032715c-.232422.012207-.511719.026855-.719727.024414v.007812c.195312.056641.40332.125977.632812.209961l.808594.293945v.163086l-.793945.269531c-.234375.079102-.449219.145996-.647461.192871v.004883c.208008.004883.487305.017578.736328.032227l.714844.044434v.205078l-1.666016-.116211v-.273926l.805664-.284668c.205078-.068848.388672-.125977.561523-.167969v-.007324c-.167969-.041992-.351562-.101562-.561523-.175781l-.805664-.296387v-.274414l1.666016-.104004v.210449l-.731445.041992Z"/><path class="cls-19" d="M535.441406,38.056641v.004883l.151367.279297-.166016.041992-.1875-.350586v-.185547h1.606445v.209961h-1.404297Z"/><path class="cls-19" d="M541.898438,43.407715c.058594-.096191.108398-.237305.108398-.385742,0-.219727-.116211-.348633-.28418-.348633-.155273,0-.245117.089355-.331055.313965-.09668.271973-.237305.44043-.472656.44043-.258789,0-.452148-.215332-.452148-.539062,0-.17041.040039-.294434.082031-.368164l.174805.059082c-.029297.054199-.079102.165527-.079102.316406,0,.227539.136719.313965.25.313965.155273,0,.232422-.101562.321289-.331055.108398-.282227.245117-.425293.489258-.425293.256836,0,.479492.19043.479492.583496,0,.160645-.046875.335938-.106445.424805l-.179688-.054199Z"/><path class="cls-19" d="M540.676758,41.844727v.506836h-.182617v-1.233398h.182617v.509277h1.483398v.217285h-1.483398Z"/><path class="cls-19" d="M541.635742,40.850586l.524414.17334v.222168l-1.666016-.565918v-.259277l1.666016-.568848v.22998l-.524414.177734v.59082ZM541.467773,40.304688l-.479492.163086c-.108398.037109-.207031.061523-.303711.086426v.004883c.098633.024902.200195.051758.301758.083984l.481445.163086v-.501465Z"/><path class="cls-19" d="M540.676758,39.483398v.506836h-.182617v-1.233398h.182617v.509277h1.483398v.217285h-1.483398Z"/><path class="cls-19" d="M541.378906,37.710449v.647949h.600586v-.72168h.180664v.936523h-1.666016v-.899414h.180664v.68457h.526367v-.647949h.177734Z"/><rect class="cls-13" x="460.812002" y="25.731497" width="11.645963" height="9.619755" transform="translate(933.269968 61.08275) rotate(180)"/><path class="cls-9" d="M471.591069,26.643261h-9.988614v5.459635h1.988474v1.452967h1.526038v1.085614h3.005833v-1.129643h1.433551v-1.452967h2.080961s.092487-5.415606-.046244-5.415606Z"/><rect class="cls-13" x="440.663539" y="25.832492" width="11.645963" height="9.619755" transform="translate(892.973041 61.284739) rotate(180)"/><path class="cls-9" d="M451.442606,26.643261h-9.988614v5.459635h1.988474v1.452967h1.526038v1.085614h3.005833v-1.129643h1.433551v-1.452967h2.080961s.092487-5.415606-.046244-5.415606Z"/><path class="cls-19" d="M443.8125,21.185547c-.105469.052734-.316406.105469-.586914.105469-.625977,0-1.097656-.395508-1.097656-1.123535,0-.695801.47168-1.166992,1.160156-1.166992.277344,0,.452148.05957.527344.099121l-.068359.233887c-.109375-.052734-.263672-.092285-.448242-.092285-.521484,0-.867188.333008-.867188.916016,0,.543945.313477.893555.853516.893555.174805,0,.352539-.036133.467773-.092285l.05957.227051Z"/><path class="cls-19" d="M444.541016,20.55957l-.230469.69873h-.296875l.754883-2.221191h.34668l.757812,2.221191h-.306641l-.237305-.69873h-.788086ZM445.269531,20.335449l-.217773-.63916c-.048828-.145508-.082031-.277344-.115234-.405762h-.005859c-.033203.131836-.069336.26709-.112305.402344l-.217773.642578h.668945Z"/><path class="cls-19" d="M448.053711,20.282715c-.015625-.310059-.036133-.682129-.032227-.958984h-.009766c-.076172.260254-.168945.537109-.280273.84375l-.392578,1.077637h-.217773l-.358398-1.058105c-.105469-.312988-.195312-.599609-.257812-.863281h-.005859c-.006836.276855-.023438.648926-.042969.981934l-.05957.952637h-.273438l.154297-2.221191h.366211l.378906,1.074219c.092773.273438.167969.517578.224609.748047h.009766c.055664-.224121.134766-.467773.233398-.748047l.395508-1.074219h.366211l.138672,2.221191h-.280273l-.056641-.975586Z"/><path class="cls-19" d="M450.84668,20.164062c0,.728516-.270508,1.130371-.745117,1.130371-.418945,0-.702148-.39209-.708008-1.100586,0-.71875.30957-1.114258.744141-1.114258.452148,0,.708984.402344.708984,1.084473ZM449.682617,20.197266c0,.556641.171875.873047.435547.873047.296875,0,.438477-.345703.438477-.893066,0-.527344-.135742-.873535-.435547-.873535-.25293,0-.438477.310059-.438477.893555Z"/><path class="cls-19" d="M463.961914,21.228516c-.105469.052734-.316406.105469-.586914.105469-.625977,0-1.09668-.395508-1.09668-1.123535,0-.695801.470703-1.166992,1.160156-1.166992.276367,0,.451172.05957.527344.099121l-.069336.233887c-.109375-.052734-.263672-.092285-.448242-.092285-.521484,0-.867188.333008-.867188.916016,0,.543945.313477.893555.853516.893555.174805,0,.352539-.036133.467773-.092285l.05957.227051Z"/><path class="cls-19" d="M464.69043,20.602539l-.230469.69873h-.296875l.754883-2.221191h.34668l.757812,2.221191h-.306641l-.237305-.69873h-.788086ZM465.418945,20.378418l-.216797-.63916c-.049805-.145508-.083008-.277344-.116211-.405762h-.005859c-.033203.131836-.069336.26709-.112305.402344l-.217773.642578h.668945Z"/><path class="cls-19" d="M468.204102,20.325684c-.016602-.310059-.037109-.682129-.033203-.958984h-.009766c-.076172.260254-.167969.537109-.280273.84375l-.392578,1.077637h-.217773l-.359375-1.058105c-.105469-.312988-.194336-.599609-.256836-.863281h-.006836c-.005859.276855-.022461.648926-.041992.981934l-.05957.952637h-.273438l.154297-2.221191h.366211l.378906,1.074219c.092773.273438.167969.517578.224609.748047h.009766c.055664-.224121.134766-.467773.233398-.748047l.395508-1.074219h.366211l.138672,2.221191h-.280273l-.055664-.975586Z"/><path class="cls-19" d="M470.202148,19.429199h-.006836l-.373047.201172-.055664-.221191.467773-.25h.24707v2.14209h-.279297v-1.87207Z"/><path class="cls-17" d="M707.011284,43.259999c-.899054,0-1.634633-.880011-1.634633-1.955597v-5.587386c0-1.075586.735579-1.955597,1.634633-1.955597.255905,0,.495421.07761.711648.204424v-6.529119c-.216227.126814-.455743.204424-.711648.204424-.899054,0-1.634633-.880011-1.634633-1.955573v-5.587411c0-1.075586.735579-1.955597,1.634633-1.955597.255905,0,.495421.07761.711648.204424v-.682974c0-1.851489-1.254599-3.352432-2.80221-3.352432h-128.746263c-1.547612,0-2.80221,1.500942-2.80221,3.352432v.532563c.222132-.135688.469542-.219544.734854-.219544.899054,0,1.634633.880011,1.634633,1.955573v5.587411c0,1.075561-.735579,1.955573-1.634633,1.955573-.265311,0-.512721-.083857-.734854-.219544v6.55936c.222132-.135688.469542-.219544.734854-.219544.899054,0,1.634633.880011,1.634633,1.955597v5.587386c0,1.075586-.735579,1.955597-1.634633,1.955597-.265311,0-.512721-.083857-.734854-.219544v.491143c0,1.851514,1.254599,3.352456,2.80221,3.352456h128.746263c1.547612,0,2.80221-1.500942,2.80221-3.352456v-.310465c-.216227.126814-.455743.204424-.711648.204424Z"/><circle class="cls-1" cx="624.883288" cy="32.899009" r="2.88502"/><circle class="cls-13" cx="624.883288" cy="32.899009" r="1.717007"/><path class="cls-19" d="M592.207031,21.8125v1.296875c0,.490723.217773.69873.510742.69873.325195,0,.533203-.214844.533203-.69873v-1.296875h.286133v1.277344c0,.672363-.354492.94873-.829102.94873-.448242,0-.786133-.256836-.786133-.936035v-1.290039h.285156Z"/><path class="cls-19" d="M593.987305,23.658203c.126953.078125.3125.143066.506836.143066.289062,0,.458008-.152832.458008-.373535,0-.205078-.116211-.321777-.412109-.435547-.357422-.126953-.579102-.312012-.579102-.620605,0-.341309.283203-.595215.708984-.595215.224609,0,.386719.052246.484375.107422l-.078125.230957c-.071289-.039062-.217773-.104004-.416016-.104004-.298828,0-.413086.178711-.413086.328125,0,.20459.133789.305664.435547.422363.371094.143066.55957.321777.55957.643555,0,.338379-.250977.630859-.767578.630859-.210938,0-.441406-.062012-.558594-.140137l.071289-.237305Z"/><path class="cls-19" d="M595.628906,21.841797c.123047-.026367.318359-.045898.516602-.045898.283203,0,.464844.048828.601562.159668.113281.084473.181641.214355.181641.386719,0,.210938-.139648.396484-.370117.480957v.006348c.208008.052246.451172.224121.451172.549316,0,.188477-.074219.331543-.18457.438965-.15332.139648-.400391.20459-.757812.20459-.194336,0-.344727-.013184-.438477-.025879v-2.154785ZM595.911133,22.73877h.256836c.299805,0,.474609-.15625.474609-.367188,0-.256836-.194336-.35791-.480469-.35791-.129883,0-.205078.009766-.250977.019531v.705566ZM595.911133,23.788574c.055664.009766.136719.012695.237305.012695.292969,0,.5625-.106934.5625-.425781,0-.298828-.256836-.422363-.56543-.422363h-.234375v.835449Z"/><path class="cls-19" d="M623.727539,23.931641c-.103516.051758-.311523.104004-.578125.104004-.617188,0-1.082031-.390137-1.082031-1.108398,0-.686035.464844-1.150879,1.143555-1.150879.273438,0,.445312.058594.520508.097656l-.068359.230957c-.107422-.052246-.259766-.091309-.442383-.091309-.513672,0-.854492.328613-.854492.903809,0,.536133.308594.880859.841797.880859.171875,0,.347656-.036133.461914-.091309l.057617.224609Z"/><path class="cls-19" d="M624.082031,21.8125h.282227v1.953125h.936523v.237305h-1.21875v-2.19043Z"/><path class="cls-19" d="M625.615234,21.8125h.282227v1.056152h.009766c.058594-.084473.117188-.162598.172852-.233887l.668945-.822266h.351562l-.792969.929199.854492,1.26123h-.334961l-.72168-1.075684-.208008.240234v.835449h-.282227v-2.19043Z"/><path class="cls-19" d="M623.956055,24.748047v2.19043h-.282227v-2.19043h.282227Z"/><path class="cls-19" d="M624.450195,26.938477v-2.19043h.308594l.702148,1.10791c.162109.256836.289062.487793.393555.711914l.005859-.00293c-.025391-.292969-.032227-.559082-.032227-.900391v-.916504h.266602v2.19043h-.286133l-.695312-1.111328c-.15332-.244141-.298828-.494141-.40918-.731445l-.009766.003418c.015625.275879.022461.539551.022461.90332v.936035h-.266602Z"/><circle class="cls-1" cx="638.018752" cy="32.899009" r="2.88502"/><circle class="cls-13" cx="638.018752" cy="32.899009" r="1.717007"/><path class="cls-19" d="M636.860352,23.931641c-.103516.051758-.311523.104004-.578125.104004-.617188,0-1.082031-.390137-1.082031-1.108398,0-.686035.464844-1.150879,1.143555-1.150879.273438,0,.445312.058594.520508.097656l-.068359.230957c-.107422-.052246-.259766-.091309-.442383-.091309-.513672,0-.854492.328613-.854492.903809,0,.536133.308594.880859.841797.880859.171875,0,.347656-.036133.461914-.091309l.057617.224609Z"/><path class="cls-19" d="M637.214844,21.8125h.282227v1.953125h.936523v.237305h-1.21875v-2.19043Z"/><path class="cls-19" d="M638.748047,21.8125h.282227v1.056152h.009766c.058594-.084473.117188-.162598.172852-.233887l.668945-.822266h.351562l-.792969.929199.854492,1.26123h-.334961l-.72168-1.075684-.208008.240234v.835449h-.282227v-2.19043Z"/><path class="cls-19" d="M637.158203,25.820312c0,.753906-.458008,1.153809-1.017578,1.153809-.578125,0-.984375-.448242-.984375-1.111328,0-.695801.431641-1.150879,1.017578-1.150879.597656,0,.984375.458496.984375,1.108398ZM635.458008,25.855957c0,.468262.253906.887695.699219.887695.448242,0,.702148-.413086.702148-.910156,0-.435547-.227539-.890625-.699219-.890625-.467773,0-.702148.432129-.702148.913086Z"/><path class="cls-19" d="M637.806641,24.748047v1.296875c0,.490723.217773.69873.510742.69873.325195,0,.533203-.214844.533203-.69873v-1.296875h.286133v1.277344c0,.672363-.354492.94873-.829102.94873-.448242,0-.786133-.256836-.786133-.936035v-1.290039h.285156Z"/><path class="cls-19" d="M640.042969,24.988281h-.666016v-.240234h1.621094v.240234h-.668945v1.950195h-.286133v-1.950195Z"/><path class="cls-19" d="M673.301758,22.787109h-.005859l-.367188.198242-.055664-.217773.461914-.24707h.243164v2.112793h-.276367v-1.846191Z"/><path class="cls-19" d="M674.348633,24.633301v-.175293l.223633-.217773c.540039-.513672.783203-.786621.787109-1.105469,0-.214355-.104492-.412598-.419922-.412598-.191406,0-.350586.097656-.448242.178711l-.09082-.201172c.146484-.123535.354492-.214844.597656-.214844.455078,0,.647461.312012.647461.614258,0,.390137-.283203.705566-.728516,1.134277l-.168945.15625v.006348h.949219v.237305h-1.348633Z"/><path class="cls-19" d="M677.168945,24.633301l-.71582-2.19043h.305664l.341797,1.079102c.09375.29541.174805.562012.233398.818848h.006836c.061523-.253418.152344-.529785.25-.815918l.371094-1.082031h.301758l-.783203,2.19043h-.311523Z"/><path class="cls-13" d="M590.856803,30.984647h7.696978c.150252,0,.27289.13838.275895.31131l.012643.72772c.003577.205909-.055669.406746-.167432.567566l-.378843.545135c-.009265.013332-.014312.029896-.014312.046969v1.10052c0,.292437-.205938.529504-.459975.529504h-6.250948c-.254037,0-.459975-.237067-.459975-.529504v-1.021568c0-.015527-.004176-.030674-.011955-.043359l-.404224-.659212c-.09723-.158564-.146217-.349671-.139341-.543597l.025769-.726776c.006037-.170259.127695-.304707.27572-.304707Z"/><path class="cls-13" d="M591.556993,31.639175h6.329391c.123556,0,.224404.09564.226874.215159l.010397.502957c.002942.142312-.045778.281119-.137683.392268l-.311531.376765c-.007619.009214-.011769.020662-.011769.032462v.760614c0,.202115-.169347.365962-.378248.365962h-5.140289c-.2089,0-.378248-.163847-.378248-.365962v-.706048c0-.010732-.003434-.0212-.009831-.029967l-.332402-.455608c-.079955-.10959-.120237-.241672-.114583-.375703l.021191-.502305c.004964-.117673.105007-.210596.226731-.210596Z"/><circle class="cls-13" cx="675.400665" cy="32.899009" r="2.010583"/><circle class="cls-13" cx="675.400665" cy="32.899009" r="1.525658"/><circle class="cls-9" cx="675.400665" cy="32.899009" r=".496658"/><path class="cls-20" d="M425.415039,4.875488h3.095703v.622559h-2.353516v1.910645h2.174805v.614258h-2.174805v2.601562h-.742188v-5.749023Z"/><path class="cls-20" d="M429.323242,7.78418c0-.486328-.008789-.904297-.03418-1.288086h.65625l.025391.810547h.03418c.188477-.554688.639648-.904297,1.143555-.904297.084961,0,.144531.008301.212891.025391v.708008c-.076172-.01709-.15332-.025391-.255859-.025391-.52832,0-.904297.400879-1.006836.963867-.016602.102051-.033203.22168-.033203.349609v2.200684h-.742188v-2.840332Z"/><path class="cls-20" d="M435.763672,8.526367c0,1.526855-1.057617,2.191895-2.055664,2.191895-1.117188,0-1.978516-.818848-1.978516-2.124023,0-1.381348.904297-2.191895,2.046875-2.191895,1.185547,0,1.987305.861328,1.987305,2.124023ZM432.488281,8.568848c0,.904297.520508,1.586426,1.253906,1.586426.716797,0,1.253906-.673828,1.253906-1.603516,0-.699219-.349609-1.586426-1.236328-1.586426-.887695,0-1.271484.818848-1.271484,1.603516Z"/><path class="cls-20" d="M436.712891,7.61377c0-.426758-.008789-.776367-.03418-1.117676h.665039l.042969.682617h.016602c.205078-.392578.682617-.776367,1.365234-.776367.571289,0,1.458008.341309,1.458008,1.757324v2.464844h-.75v-2.379883c0-.665039-.248047-1.219727-.956055-1.219727-.494141,0-.87793.349609-1.005859.767578-.03418.094238-.051758.222168-.051758.350098v2.481934h-.75v-3.010742Z"/><path class="cls-20" d="M442.318359,5.310547v1.185547h1.075195v.571777h-1.075195v2.226074c0,.511719.145508.801758.563477.801758.196289,0,.34082-.025391.43457-.05127l.03418.562988c-.144531.05957-.375.102539-.665039.102539-.349609,0-.630859-.11084-.810547-.315918-.212891-.22168-.290039-.588379-.290039-1.074707v-2.251465h-.639648v-.571777h.639648v-.989258l.733398-.196289Z"/><path class="cls-20" d="M575.518555,4.920898c.324219-.067871.835938-.119141,1.356445-.119141.741211,0,1.219727.12793,1.577148.417969.298828.22168.478516.562988.478516,1.014648,0,.554688-.367188,1.041016-.972656,1.262695v.01709c.545898.13623,1.185547.588379,1.185547,1.441406,0,.494629-.196289.870117-.486328,1.151367-.400391.366699-1.048828.537598-1.987305.537598-.511719,0-.904297-.03418-1.151367-.068359v-5.655273ZM576.260742,7.275391h.673828c.78418,0,1.245117-.409668,1.245117-.963867,0-.673828-.511719-.938477-1.262695-.938477-.34082,0-.537109.025879-.65625.05127v1.851074ZM576.260742,10.030273c.144531.025391.358398.03418.62207.03418.767578,0,1.475586-.281738,1.475586-1.117188,0-.785156-.673828-1.108887-1.483398-1.108887h-.614258v2.191895Z"/><path class="cls-20" d="M582.40332,10.593262l-.05957-.520508h-.025391c-.230469.324219-.673828.614258-1.262695.614258-.835938,0-1.261719-.588379-1.261719-1.185547,0-.998047.886719-1.543945,2.481445-1.535156v-.085449c0-.341309-.09375-.955566-.9375-.955566-.383789,0-.785156.119629-1.075195.307129l-.170898-.494629c.341797-.22168.835938-.366699,1.356445-.366699,1.262695,0,1.569336.861328,1.569336,1.688965v1.543945c0,.35791.017578.708008.068359.989258h-.682617ZM582.292969,8.486328c-.819336-.01709-1.749023.12793-1.749023.929688,0,.486328.324219.716797.708008.716797.538086,0,.878906-.341309.998047-.690918.025391-.07666.042969-.162109.042969-.23877v-.716797Z"/><path class="cls-20" d="M587.173828,10.439941c-.196289.102051-.630859.23877-1.185547.23877-1.245117,0-2.055664-.844727-2.055664-2.106934,0-1.270996.870117-2.192383,2.217773-2.192383.443359,0,.835938.111328,1.040039.213379l-.169922.580078c-.179688-.102539-.460938-.196289-.870117-.196289-.947266,0-1.458984.699707-1.458984,1.561035,0,.955566.614258,1.543945,1.433594,1.543945.425781,0,.708008-.11084.920898-.20459l.12793.562988Z"/><path class="cls-20" d="M588.795898,8.358398h.016602c.102539-.14502.24707-.324219.367188-.469238l1.210938-1.424316h.904297l-1.595703,1.697266,1.817383,2.431152h-.913086l-1.423828-1.979004-.383789.426758v1.552246h-.742188v-6.056152h.742188v3.821289Z"/><path class="cls-23" d="M473.238281,167.608887l.824219,1.242676c.214844.322754.394531.621094.584961.943848h.036133c.191406-.34668.382812-.64502.573242-.956055l.8125-1.230469h1.135742l-1.97168,2.795898,2.03125,2.986816h-1.195312l-.847656-1.302246c-.227539-.334473-.418945-.657227-.62207-1.003418h-.023438c-.191406.346191-.394531.656738-.609375,1.003418l-.835938,1.302246h-1.15918l2.054688-2.951172-1.958984-2.831543h1.170898Z"/><path class="cls-23" d="M480.477539,173.391602v-.64502l.824219-.800781c1.983398-1.887695,2.878906-2.891113,2.890625-4.062012,0-.788574-.381836-1.517578-1.541016-1.517578-.705078,0-1.290039.358398-1.648438.657227l-.334961-.740723c.538086-.454102,1.302734-.788574,2.198242-.788574,1.672852,0,2.37793,1.146973,2.37793,2.258301,0,1.433594-1.039062,2.592285-2.675781,4.169434l-.62207.57373v.023926h3.489258v.87207h-4.958008Z"/><line class="cls-10" x1="455.38283" y1="100.803305" x2="455.38283" y2="151.519547"/><polyline class="cls-8" points="439.919913 100.747015 470.845747 101.138424 470.845747 78.316612"/><line class="cls-8" x1="440.807673" y1="78.300029" x2="440.807673" y2="100.823177"/><path class="cls-23" d="M430.083008,60.873047h-2.327148l-.235352,1.567383c.141602-.019043.272461-.037598.498047-.037598.46875,0,.938477.103027,1.313477.328125.478516.272461.873047.797852.873047,1.567383,0,1.191895-.948242,2.083008-2.271484,2.083008-.666016,0-1.229492-.1875-1.519531-.375l.206055-.628906c.25293.149902.750977.337891,1.304688.337891.77832,0,1.445312-.506836,1.445312-1.323242-.009766-.788086-.535156-1.351074-1.754883-1.351074-.347656,0-.620117.037109-.844727.06543l.393555-2.927734h2.918945v.694336Z"/><path class="cls-23" d="M435.311523,63.162598c0,2.074219-.769531,3.21875-2.121094,3.21875-1.191406,0-1.999023-1.116699-2.017578-3.134277,0-2.04541.881836-3.171875,2.121094-3.171875,1.285156,0,2.017578,1.14502,2.017578,3.087402ZM431.999023,63.256836c0,1.585938.487305,2.486816,1.238281,2.486816.844727,0,1.248047-.985352,1.248047-2.543457,0-1.501465-.384766-2.486816-1.238281-2.486816-.722656,0-1.248047.882324-1.248047,2.543457Z"/><path class="cls-23" d="M438.40918,66.27832v-3.913086h-.637695v-.628906h.637695v-.21582c0-.638184.140625-1.219727.525391-1.585938.30957-.300293.722656-.422363,1.107422-.422363.291016,0,.543945.065918.704102.131348l-.113281.638184c-.12207-.056152-.290039-.103027-.525391-.103027-.703125,0-.881836.619141-.881836,1.313477v.244141h1.097656v.628906h-1.097656v3.913086h-.816406Z"/><path class="cls-23" d="M440.868164,65.433594c.244141.159668.675781.328613,1.088867.328613.600586,0,.881836-.300293.881836-.675781,0-.394043-.234375-.609863-.844727-.834961-.816406-.291016-1.201172-.741699-1.201172-1.285645,0-.731934.591797-1.33252,1.567383-1.33252.459961,0,.863281.131348,1.117188.28125l-.207031.600586c-.177734-.112305-.506836-.262695-.928711-.262695-.488281,0-.760742.281738-.760742.619629,0,.375.272461.543945.864258.769531.788086.300293,1.191406.694336,1.191406,1.369629,0,.797852-.619141,1.36084-1.698242,1.36084-.498047,0-.958008-.12207-1.276367-.30957l.206055-.628906Z"/><path class="cls-23" d="M444.698242,63.219238c0-.582031-.018555-1.05127-.037109-1.48291h.741211l.038086.778809h.018555c.337891-.553711.873047-.881836,1.614258-.881836,1.097656,0,1.923828.928711,1.923828,2.308594,0,1.632812-.995117,2.439453-2.064453,2.439453-.600586,0-1.126953-.262695-1.398438-.712891h-.019531v2.467773h-.816406v-4.916992ZM445.514648,64.429688c0,.12207.019531.234375.038086.337891.150391.572266.647461.966309,1.238281.966309.873047,0,1.379883-.712891,1.379883-1.754883,0-.910156-.478516-1.688965-1.351562-1.688965-.5625,0-1.087891.40332-1.248047,1.022949-.02832.103027-.056641.225098-.056641.337891v.778809Z"/><path class="cls-23" d="M460.761719,60.929688h-.018555l-1.060547.572266-.160156-.628906,1.333008-.712891h.704102v6.099609h-.797852v-5.330078Z"/><path class="cls-23" d="M463.78418,66.259766v-.506836l.647461-.628418c1.558594-1.48291,2.261719-2.270996,2.271484-3.190918,0-.619141-.300781-1.191895-1.210938-1.191895-.553711,0-1.012695.281738-1.294922.516113l-.262695-.581543c.422852-.356445,1.023438-.619629,1.726562-.619629,1.314453,0,1.868164.900879,1.868164,1.773926,0,1.125977-.816406,2.036133-2.102539,3.274902l-.488281.450684v.018555h2.740234v.685059h-3.894531Z"/><path class="cls-23" d="M472.65332,63.144043c0,2.074219-.769531,3.21875-2.121094,3.21875-1.191406,0-1.999023-1.116699-2.017578-3.134277,0-2.04541.881836-3.171875,2.121094-3.171875,1.285156,0,2.017578,1.14502,2.017578,3.087402ZM469.34082,63.238281c0,1.585938.487305,2.486816,1.238281,2.486816.844727,0,1.248047-.985352,1.248047-2.543457,0-1.501465-.384766-2.486816-1.238281-2.486816-.722656,0-1.248047.882324-1.248047,2.543457Z"/><path class="cls-23" d="M475.751953,66.259766v-3.913086h-.637695v-.628906h.637695v-.21582c0-.638184.140625-1.219727.525391-1.585938.30957-.300293.722656-.422363,1.107422-.422363.291016,0,.543945.065918.704102.131348l-.113281.638184c-.12207-.056152-.291016-.103027-.525391-.103027-.703125,0-.881836.619141-.881836,1.313477v.244141h1.097656v.628906h-1.097656v3.913086h-.816406Z"/><path class="cls-23" d="M478.210938,65.415039c.244141.159668.675781.328613,1.088867.328613.600586,0,.881836-.300293.881836-.675781,0-.394043-.234375-.609863-.844727-.834961-.816406-.291016-1.201172-.741699-1.201172-1.285645,0-.731934.591797-1.33252,1.567383-1.33252.459961,0,.863281.131348,1.117188.28125l-.207031.600586c-.177734-.112305-.506836-.262695-.928711-.262695-.488281,0-.760742.281738-.760742.619629,0,.375.272461.543945.864258.769531.788086.300293,1.191406.694336,1.191406,1.369629,0,.797852-.619141,1.36084-1.698242,1.36084-.498047,0-.958008-.12207-1.276367-.30957l.206055-.628906Z"/><path class="cls-23" d="M482.040039,63.200684c0-.582031-.018555-1.05127-.037109-1.48291h.741211l.038086.778809h.018555c.337891-.553711.873047-.881836,1.614258-.881836,1.097656,0,1.923828.928711,1.923828,2.308594,0,1.632812-.995117,2.439453-2.064453,2.439453-.600586,0-1.126953-.262695-1.398438-.712891h-.019531v2.467773h-.816406v-4.916992ZM482.856445,64.411133c0,.12207.019531.234375.038086.337891.150391.572266.647461.966309,1.238281.966309.873047,0,1.379883-.712891,1.379883-1.754883,0-.910156-.478516-1.688965-1.351562-1.688965-.5625,0-1.087891.40332-1.248047,1.022949-.02832.103027-.056641.225098-.056641.337891v.778809Z"/><path class="cls-19" d="M338.141113,309.950195h-.015625l-.867188.467773-.130371-.513672,1.089844-.583984h.575684v4.989258h-.652344v-4.359375Z"/><path class="cls-19" d="M340.614746,314.30957v-.414062l.529785-.514648c1.273926-1.212891,1.849609-1.857422,1.857422-2.609375,0-.506836-.245605-.974609-.990234-.974609-.452637,0-.828613.229492-1.059082.421875l-.214844-.475586c.345215-.291992.836426-.506836,1.412109-.506836,1.074707,0,1.527344.736328,1.527344,1.450195,0,.920898-.66748,1.666016-1.719238,2.678711l-.398926.369141v.014648h2.241211v.560547h-3.185547Z"/><path class="cls-19" d="M347.870117,311.761719c0,1.696289-.629395,2.631836-1.734863,2.631836-.974609,0-1.634766-.913086-1.649902-2.563477,0-1.672852.721191-2.59375,1.734375-2.59375,1.051758,0,1.650391.936523,1.650391,2.525391ZM345.160645,311.837891c0,1.297852.398926,2.03418,1.013184,2.03418.690918,0,1.020996-.805664,1.020996-2.080078,0-1.227539-.314941-2.03418-1.013184-2.03418-.591309,0-1.020996.72168-1.020996,2.080078Z"/><path class="cls-19" d="M350.40625,314.30957v-3.200195h-.521973v-.514648h.521973v-.176758c0-.521484.115234-.99707.429688-1.296875.253418-.245117.591309-.345703.905762-.345703.237793,0,.445312.053711.575684.107422l-.092285.522461c-.099609-.045898-.237793-.084961-.429688-.084961-.575684,0-.72168.506836-.72168,1.075195v.199219h.898438v.514648h-.898438v3.200195h-.66748Z"/><path class="cls-19" d="M352.579102,311.807617c0-.475586-.015137-.859375-.030273-1.212891h.605957l.030762.636719h.015625c.276367-.452148.713867-.720703,1.319824-.720703.897949,0,1.57373.759766,1.57373,1.887695,0,1.335938-.813965,1.995117-1.688477,1.995117-.491211,0-.921387-.214844-1.144043-.583008h-.015137v2.018555h-.667969v-4.021484ZM353.24707,312.797852c0,.099609.015137.191406.030762.276367.122559.467773.529297.790039,1.013184.790039.713867,0,1.12793-.583008,1.12793-1.435547,0-.744141-.391113-1.380859-1.10498-1.380859-.460449,0-.890137.330078-1.020996.835938-.022949.084961-.045898.18457-.045898.276367v.637695Z"/><path class="cls-19" d="M356.857422,313.619141c.199707.129883.552734.268555.890137.268555.491211,0,.72168-.246094.72168-.552734,0-.322266-.191895-.499023-.690918-.683594-.66748-.237305-.982422-.606445-.982422-1.050781,0-.598633.483398-1.089844,1.281738-1.089844.375977,0,.706055.107422.913574.229492l-.168945.491211c-.145996-.091797-.414551-.214844-.759766-.214844-.399414,0-.62207.230469-.62207.506836,0,.306641.222656.445312.706543.629883.644531.245117.974609.567383.974609,1.120117,0,.652344-.506836,1.113281-1.38916,1.113281-.406738,0-.783203-.100586-1.043945-.253906l.168945-.513672Z"/><path class="cls-19" d="M240.477051,310.966797h-1.90332l-.191895,1.282227c.115234-.015625.222656-.03125.406738-.03125.383789,0,.767578.084961,1.074707.268555.391113.222656.713867.652344.713867,1.282227,0,.974609-.775391,1.703125-1.857422,1.703125-.544922,0-1.005859-.15332-1.243652-.306641l.168945-.514648c.207031.123047.61377.276367,1.066895.276367.637207,0,1.182129-.414062,1.182129-1.082031-.007812-.644531-.4375-1.104492-1.435547-1.104492-.283691,0-.506348.030273-.690918.053711l.322754-2.395508h2.386719v.568359Z"/><path class="cls-19" d="M244.754883,312.839844c0,1.696289-.629395,2.631836-1.734863,2.631836-.974609,0-1.634766-.913086-1.649902-2.563477,0-1.672852.721191-2.59375,1.734375-2.59375,1.051758,0,1.650391.936523,1.650391,2.525391ZM242.04541,312.916016c0,1.297852.398926,2.03418,1.013184,2.03418.690918,0,1.020996-.805664,1.020996-2.080078,0-1.227539-.314941-2.03418-1.013184-2.03418-.591309,0-1.020996.72168-1.020996,2.080078Z"/><path class="cls-19" d="M247.290527,315.387695v-3.200195h-.521973v-.514648h.521973v-.176758c0-.521484.115234-.99707.429688-1.296875.253418-.245117.591309-.345703.905762-.345703.237793,0,.445312.053711.575684.107422l-.092285.522461c-.099609-.045898-.237793-.084961-.429688-.084961-.575684,0-.72168.506836-.72168,1.075195v.199219h.898438v.514648h-.898438v3.200195h-.66748Z"/><path class="cls-19" d="M249.463867,312.885742c0-.475586-.015137-.859375-.030273-1.212891h.605957l.030762.636719h.015625c.276367-.452148.713867-.720703,1.319824-.720703.897949,0,1.57373.759766,1.57373,1.887695,0,1.335938-.813965,1.995117-1.688477,1.995117-.491211,0-.921387-.214844-1.144043-.583008h-.015137v2.018555h-.667969v-4.021484ZM250.131836,313.875977c0,.099609.015137.191406.030762.276367.122559.467773.529297.790039,1.013184.790039.713867,0,1.12793-.583008,1.12793-1.435547,0-.744141-.391113-1.380859-1.10498-1.380859-.460449,0-.890137.330078-1.020996.835938-.022949.084961-.045898.18457-.045898.276367v.637695Z"/><path class="cls-19" d="M253.741699,314.697266c.199707.129883.552734.268555.890137.268555.491211,0,.72168-.246094.72168-.552734,0-.322266-.191895-.499023-.690918-.683594-.66748-.237305-.982422-.606445-.982422-1.050781,0-.598633.483398-1.089844,1.281738-1.089844.375977,0,.706055.107422.913574.229492l-.168945.491211c-.145996-.091797-.414551-.214844-.759766-.214844-.399414,0-.62207.230469-.62207.506836,0,.306641.222656.445312.706543.629883.644531.245117.974609.567383.974609,1.120117,0,.652344-.506836,1.113281-1.38916,1.113281-.406738,0-.783203-.100586-1.043945-.253906l.168945-.513672Z"/><polyline class="cls-8" points="676.290204 60.859207 678.349746 533.822226 406.693628 534.498534"/><path class="cls-23" d="M692.160156,64.741211c.525391-.107422,1.27832-.166992,1.995117-.166992,1.111328,0,1.828125.203125,2.330078.657227.40625.358398.632812.907715.632812,1.529297,0,1.062988-.668945,1.768066-1.517578,2.054688v.036133c.621094.214844.992188.788086,1.183594,1.624512.262695,1.123047.453125,1.899902.621094,2.210449h-1.075195c-.131836-.227051-.310547-.919922-.538086-1.92334-.239258-1.111328-.668945-1.529297-1.613281-1.56543h-.979492v3.48877h-1.039062v-7.945312ZM693.199219,68.40918h1.063477c1.111328,0,1.816406-.609375,1.816406-1.529297,0-1.039551-.75293-1.493164-1.852539-1.505371-.500977,0-.860352.047852-1.027344.095703v2.938965Z"/><path class="cls-23" d="M700.235352,64.633789h1.040039v5.388184c0,2.138672-1.051758,2.795898-2.4375,2.795898-.382812,0-.848633-.083496-1.111328-.190918l.155273-.848633c.214844.083984.525391.155273.87207.155273.931641,0,1.481445-.417969,1.481445-1.995117v-5.304688Z"/><path class="cls-23" d="M705.886719,72.686523v-2.114746h-3.607422v-.692871l3.463867-4.958496h1.135742v4.827148h1.086914v.824219h-1.086914v2.114746h-.992188ZM705.886719,69.747559v-2.592773c0-.40625.012695-.8125.036133-1.21875h-.036133c-.238281.454102-.429688.788574-.644531,1.146973l-1.900391,2.640625v.023926h2.544922Z"/><path class="cls-23" d="M713.400391,65.804688h-2.962891l-.297852,1.995117c.178711-.023926.345703-.047852.632812-.047852.597656,0,1.194336.131836,1.672852.418457.609375.346191,1.111328,1.015625,1.111328,1.995117,0,1.517578-1.207031,2.652344-2.891602,2.652344-.848633,0-1.56543-.23877-1.935547-.478027l.262695-.800293c.322266.190918.956055.430176,1.661133.430176.991211,0,1.839844-.64502,1.839844-1.68457-.012695-1.003906-.681641-1.720703-2.234375-1.720703-.442383,0-.789062.047852-1.075195.083984l.501953-3.728027h3.714844v.884277Z"/><path class="cls-23" d="M475.446289,113.680664c.525391-.107422,1.27832-.166992,1.995117-.166992,1.111328,0,1.828125.203125,2.330078.657227.40625.358398.632812.907715.632812,1.529297,0,1.062988-.668945,1.768066-1.517578,2.054688v.036133c.62207.214844.992188.788086,1.183594,1.624512.262695,1.123047.453125,1.899902.621094,2.210449h-1.075195c-.131836-.227051-.310547-.919922-.538086-1.92334-.239258-1.111328-.668945-1.529297-1.613281-1.56543h-.979492v3.48877h-1.039062v-7.945312ZM476.485352,117.348633h1.063477c1.111328,0,1.816406-.609375,1.816406-1.529297,0-1.039551-.75293-1.493164-1.852539-1.505371-.500977,0-.860352.047852-1.027344.095703v2.938965Z"/><path class="cls-23" d="M483.521484,113.573242h1.040039v5.388184c0,2.138672-1.051758,2.795898-2.4375,2.795898-.382812,0-.848633-.083496-1.111328-.190918l.155273-.848633c.214844.083984.525391.155273.87207.155273.931641,0,1.481445-.417969,1.481445-1.995117v-5.304688Z"/><path class="cls-23" d="M489.172852,121.625977v-2.114746h-3.607422v-.692871l3.463867-4.958496h1.135742v4.827148h1.086914v.824219h-1.086914v2.114746h-.992188ZM489.172852,118.687012v-2.592773c0-.40625.012695-.8125.036133-1.21875h-.036133c-.238281.454102-.429688.788574-.644531,1.146973l-1.900391,2.640625v.023926h2.544922Z"/><path class="cls-23" d="M496.686523,114.744141h-2.962891l-.298828,1.995117c.179688-.023926.34668-.047852.633789-.047852.597656,0,1.194336.131836,1.672852.418457.609375.346191,1.111328,1.015625,1.111328,1.995117,0,1.517578-1.207031,2.652344-2.891602,2.652344-.848633,0-1.56543-.23877-1.935547-.478027l.262695-.800293c.322266.190918.956055.430176,1.661133.430176.991211,0,1.839844-.64502,1.839844-1.68457-.012695-1.003906-.681641-1.720703-2.234375-1.720703-.442383,0-.789062.047852-1.075195.083984l.501953-3.728027h3.714844v.884277Z"/><path class="cls-23" d="M164.856934,105.976562c.501953-.083496,1.15918-.155273,1.995117-.155273,1.027344,0,1.780273.23877,2.257812.668945.442383.382324.705078.967773.705078,1.68457,0,.729004-.214844,1.302246-.621094,1.720703-.549805.585449-1.445312.883789-2.460938.883789-.310547,0-.597656-.011719-.836914-.071777v3.226074h-1.039062v-7.957031ZM165.895996,109.859375c.227539.05957.513672.083496.860352.083496,1.254883,0,2.019531-.608887,2.019531-1.720215,0-1.063477-.75293-1.577148-1.900391-1.577148-.453125,0-.799805.035645-.979492.083496v3.130371Z"/><path class="cls-23" d="M171.068848,112.666992c.46582.287109,1.147461.525879,1.864258.525879,1.0625,0,1.68457-.561523,1.68457-1.374023,0-.752441-.430664-1.182617-1.517578-1.601074-1.314453-.46582-2.126953-1.146973-2.126953-2.281738,0-1.254883,1.040039-2.186523,2.604492-2.186523.824219,0,1.421875.190918,1.780273.394043l-.286133.848633c-.263672-.143555-.800781-.382324-1.529297-.382324-1.099609,0-1.517578.656738-1.517578,1.206543,0,.75293.489258,1.123047,1.600586,1.553223,1.362305.525879,2.054688,1.182617,2.054688,2.365723,0,1.242188-.919922,2.317871-2.819336,2.317871-.776367,0-1.625-.227051-2.054688-.513672l.262695-.872559Z"/><path class="cls-23" d="M178.141113,105.880859v4.76709c0,1.804199.800781,2.568848,1.875977,2.568848,1.194336,0,1.958984-.788574,1.958984-2.568848v-4.76709h1.051758v4.695312c0,2.473145-1.301758,3.48877-3.046875,3.48877-1.648438,0-2.890625-.943848-2.890625-3.440918v-4.743164h1.050781Z"/></svg>