<?xml version="1.0" encoding="UTF-8"?>
<svg id="Layer_1" data-name="Layer 1" xmlns="http://www.w3.org/2000/svg" viewBox="0 0 455.20421791530589 213.750356928890142">
  <defs>
    <style>
      .cls-1 {
        stroke: #000;
        stroke-width: .1px;
      }

      .cls-1, .cls-2, .cls-3 {
        fill: none;
        stroke-linecap: round;
        stroke-linejoin: round;
      }

      .cls-4 {
        fill: #d2155b;
      }

      .cls-2 {
        stroke: #d2155b;
        stroke-width: .75px;
      }

      .cls-3 {
        stroke: #e10b17;
        stroke-width: .25px;
      }
    </style>
  </defs>
  <g>
    <line class="cls-2" x1="368.339636311852701" y1="55.593727170314196" x2="346.673376546227701" y2="43.259147702540758"/>
    <polygon class="cls-4" points="349.878027425133951 41.887672482814196 347.478552327477701 43.717536984767321 347.129858479821451 46.714912473048571 342.782446370446451 41.044029294337633 349.878027425133951 41.887672482814196"/>
  </g>
  <g>
    <polyline class="cls-3" points="431.998405344184903 126.010415330613796 431.928123158971175 125.975286150244756 431.682206984131881 125.869898609124903 431.366056273015602 125.694240795030964 431.120140098174488 125.55372407354389 431.049857912958942 125.518582980931569"/>
    <polyline class="cls-3" points="430.663425016628935 125.413195439817173 430.558073212217096 125.378066259444495 430.312157037375982 125.272678718330098 430.031075945461453 125.097020904228884 429.78515977061852 124.956492270507624 429.679807966204862 124.886233909764087"/>
    <polyline class="cls-3" points="433.227986218388651 126.572506041043198 433.157704033173104 126.537376860668701 432.876670590197136 126.431989319554305 432.595637147217531 126.25633150545309 432.349720972380055 126.11580287173183 432.279438787160871 126.045544510986474"/>
    <polyline class="cls-3" points="429.539243595781045 124.921363090136765 429.433891791367387 124.886233909764087 429.187975616526273 124.745717188275194 428.906894524606287 124.605188554552115 428.660978349768811 124.464671833063221 428.555626545355153 124.394413472319684"/>
    <line class="cls-3" x1="438.602977147803358" y1="113.679572706091676" x2="431.998405344184903" y2="126.010415330613796"/>
    <line class="cls-3" x1="437.58419518030405" y1="113.222869536785765" x2="431.049857912958942" y2="125.518582980931569"/>
    <line class="cls-3" x1="437.267996820251028" y1="113.047223634920556" x2="430.663425016628935" y2="125.413195439817173"/>
    <line class="cls-3" x1="436.24921485275172" y1="112.625649645983685" x2="429.679807966204862" y2="124.886233909764087"/>
    <line class="cls-3" x1="439.832510373066725" y1="114.206534236146581" x2="433.227986218388651" y2="126.572506041043198"/>
    <line class="cls-3" x1="438.813728405569236" y1="113.749831066835213" x2="432.279438787160871" y2="126.045544510986474"/>
    <line class="cls-3" x1="436.1438153993995" y1="112.555391285240148" x2="429.539243595781045" y2="124.921363090136765"/>
    <line class="cls-3" x1="435.160150700033228" y1="112.028429755188881" x2="428.555626545355153" y2="124.394413472319684"/>
    <polyline class="cls-3" points="437.338279005464756 109.639550191996932 437.830063706206602 110.517815438007347 438.462460426314465 111.22043478215619 439.200161301895605 111.782513580345949"/>
    <polyline class="cls-3" points="435.827664688281402 112.414874563753074 433.684653650990185 111.185293689549326 435.195267968169901 108.374852049654692 437.338279005464756 109.639550191996932 435.827664688281402 112.414874563753074 441.202607968759366 114.838883307315882 442.151155399987147 113.047223634920556"/>
    <polyline class="cls-3" points="392.195435830720271 83.994212155822424 391.527945666944106 83.502379806142017 390.930713863911478 82.870030734972715 390.474022606836115 82.062023849705838 390.12270697864642 81.148629423319107 389.911931896410351 80.129835543589252 389.806532443056312 79.005666034970091 389.841673535666814 77.811214341139021 389.982190257153889 76.54651619879678 390.263247524603685 75.246688876087319"/>
    <polyline class="cls-3" points="394.092483044226356 67.904392372415714 395.041006650987583 66.850469312305904 396.059788618486891 65.901945705553771 397.078570585986199 65.093938820286894 398.132493646096009 64.426460568744005 399.186416706198543 63.899499038688191 400.20519867369967 63.583324503107178 401.188863373060485 63.407666689011421 402.137386979819894 63.407666689011421 403.01565222582667 63.583324503107178 403.788518018486684 63.934628219064507"/>
    <line class="cls-3" x1="403.683142389604654" y1="90.633889315345186" x2="392.195435830720271" y2="83.994212155822424"/>
    <line class="cls-3" x1="415.276248401844896" y1="70.539188110445139" x2="403.788518018486684" y2="63.934628219064507"/>
    <polyline class="cls-3" points="452.936254526955054 104.861791065611214 453.638838134399521 103.386305928804177 454.200952669293656 101.91082079199532 454.657667750842847 100.435335655186464 454.938701193816996 98.994979698748466 455.07921791530589 97.589752922684966 455.07921791530589 96.254784507366821 454.903583925676685 95.060344725769937 454.587385565625482 93.971304397525273 454.130670484079928 93.022768878535317 453.568603598124355 92.214773905506263 452.830855073601015 91.582412922100957 451.987707095727274 91.160850845396453 451.074324581582005 90.914934670557159 450.055542614084516 90.8798054901863 449.001643378444896 91.020334123909379 447.877461957593368 91.371637839864889 446.718115619666605 91.933728550292471 445.558816930678404 92.636335982203491 444.434635509825057 93.514601228217543 443.345571357110202 94.568524288323715 442.326789389607256 95.727834889547921 441.343124690244622 96.992533031890162 440.500024361316719 98.362630627580984 439.727158568654886 99.802986584015343 439.094809497483766 101.278471720826019 438.567812230728123 102.753956857633966 438.216544251473351 104.229441994441913 437.970628076635876 105.669797950879911 437.900345891420329 107.004754453960231 438.00574534477073 108.269452596304291 438.251661519613663 109.428763197526678 438.638094415943669 110.482686257632849 439.165044033760751 111.360951503643264 439.797393104931871 112.063558935557921 440.605423814663482 112.590520465614645 441.483689060675715 112.906695001195658 442.432188842961295 113.047223634920556 443.486135727537658 113.012094454549697 444.575152231312131 112.731049099335905 445.734450920302152 112.309475110402673 446.858632341151861 111.677126039229734 448.017978679082262 110.869119153961037 449.142160099931971 109.920595547207085 450.196059335569771 108.796414126357377 451.179724034934225 107.566845164389633 452.128223817217986 106.267017841674715 452.936254526955054 104.861791065611214"/>
    <polyline class="cls-3" points="417.384094522053601 71.101278820874541 416.540946544181679 70.749963192679388 415.592399112955718 70.574317290821455 414.573617145458229 70.574317290821455 413.519717909820429 70.785092373053885 412.430653757111031 71.171537181619897 411.306472336254046 71.733627892042023 410.182290915402518 72.436235323958499 409.093250587157854 73.349629750341592 408.00421025891319 74.368423630075995 407.020545559548736 75.527734231299291 406.072021952798423 76.792432373639713 405.228873974922863 78.127400788959676 404.491149274876989 79.532615652788991 403.858776379228402 80.972971609226988 403.366967854021823 82.413327565664986 403.01565222582667 83.853683522097526 402.769736050983738 85.258910298162846 402.69947769024202 86.593866801248623 402.769736050983738 87.85857685582323 403.01565222582667 89.017887457045617 403.366967854021823 90.036669424548563 403.858776379228402 90.914934670557159 404.491149274876989 91.617554014706002 405.228873974922863 92.179644725131766"/>
    <line class="cls-3" x1="417.384094522053601" y1="71.101278820874541" x2="452.58493889876172" y2="91.441896200612973"/>
    <line class="cls-3" x1="405.228873974922863" y1="92.179644725131766" x2="434.738600535564728" y2="109.217988115292428"/>
    <line class="cls-3" x1="439.200161301895605" y1="111.782513580345949" x2="440.429742176101172" y2="112.485132924494792"/>
    <polyline class="cls-3" points="374.735506539388552 71.171537181619897 374.103157468217432 70.679704831935851 373.576207850403989 70.047355760768369 373.189774954068525 69.239348875499672 372.943858779229231 68.290825268745721 372.838459325877011 67.23690220863773 372.873600418480237 66.077591607415343 373.049234408109442 64.883151825818459 373.365408943694092 63.618453683478037 373.822124025241465 62.388884721512113 374.419332003802083 61.124174666935687 375.086822167581886 59.929734885338803 375.894829052843306 58.84069455709232 376.737953206250495 57.786771496989786 377.651359544869592 56.908506250979372 378.635000419760217 56.135628546083353 379.58352402651235 55.53840865528673 380.567188725876804 55.116846578583136 381.515712332630756 54.835801223370254 382.393977578642989 54.800672042997576 383.201984463911685 54.90605958411561 383.939732988435026 55.222234119702989"/>
    <polyline class="cls-3" points="378.564742059018499 56.135628546083353 377.686476813008085 56.732848436881795 376.808211566992213 57.470596961403317 375.9650874135923 58.348862207413731 375.192197796462096 59.332514994543999 374.524731457154303 60.38643805465199 373.927499654119856 61.51061947549897 373.470808397051769 62.669930076724995 373.119492768854798 63.829240677946473 372.908717686622367 64.988551279170679 372.838459325877011 66.042462427044484"/>
    <line class="cls-3" x1="378.564742059018499" y1="56.135628546083353" x2="379.337631676148703" y2="55.678937289011628"/>
    <line class="cls-3" x1="372.838459325877011" y1="66.042462427044484" x2="372.838459325877011" y2="66.955856853427576"/>
    <line class="cls-3" x1="381.972427414178128" y1="75.352076417203534" x2="374.735506539388552" y2="71.171537181619897"/>
    <line class="cls-3" x1="384.39642424550857" y1="55.468150294541374" x2="383.939732988435026" y2="55.222234119702989"/>
    <line class="cls-3" x1="389.384982278591451" y1="64.566977290235627" x2="389.384982278591451" y2="71.347183083476011"/>
    <polyline class="cls-3" points="389.384982278591451 71.347183083476011 389.314723917846095 71.768757072414701 389.103925011143474 72.04980242763213 388.822891568165687 72.190319149117386 388.436458671841137 72.120060788372029 388.01488468289881 71.874144613530916 387.628451786572441 71.487711717204547 387.312277250984152 71.031008547894999 387.10147834428335 70.504047017841913 387.031219983539813 69.977097400023013"/>
    <polyline class="cls-3" points="388.998549382261444 68.852915979173304 389.033666650401756 69.274478055870532 389.174183371887011 69.696052044809221 389.384982278591451 70.082484941141047"/>
    <line class="cls-3" x1="388.998549382261444" y1="68.852915979173304" x2="387.031219983539813" y2="69.977097400023013"/>
    <line class="cls-3" x1="387.031219983539813" y1="69.977097400023013" x2="387.031219983539813" y2="63.196891606775353"/>
    <line class="cls-3" x1="388.998549382261444" y1="63.337408328264246" x2="388.998549382261444" y2="68.852915979173304"/>
    <line class="cls-3" x1="388.225659765133059" y1="62.529401443001007" x2="387.031219983539813" y2="63.196891606775353"/>
    <polyline class="cls-3" points="387.031219983539813 63.196891606775353 387.10147834428335 62.775317617840301 387.312277250984152 62.494272262626509 387.628451786572441 62.388884721512113 388.01488468289881 62.424013901882972 388.436458671841137 62.669930076724995 388.822891568165687 63.056362973055002 389.103925011143474 63.5481953227345 389.314723917846095 64.075156852789405 389.384982278591451 64.566977290235627"/>
    <polyline class="cls-3" points="386.2583541908798 57.119293245445988 394.092483044226356 61.616007016617004 394.092483044226356 75.176418603105958 392.125153645504724 76.300600023957486 384.326165884759575 71.803886252787379"/>
    <polyline class="cls-3" points="394.092483044226356 61.616007016617004 392.125153645504724 62.775317617840301 392.125153645504724 76.300600023957486"/>
    <polyline class="cls-3" points="386.57452872646445 86.945182429441957 385.942179655295149 86.874912156460596 385.380088944867566 86.629007893853668 384.923397687792203 86.207433904916797 384.572082059602508 85.645343194491034 384.39642424550857 84.942735762576376 384.326165884759575 84.134728877311318"/>
    <line class="cls-3" x1="384.326165884759575" y1="84.134728877311318" x2="381.972427414178128" y2="82.799760461989536"/>
    <polyline class="cls-3" points="381.972427414178128 82.799760461989536 382.042685774921665 83.64289652763091 382.253460857159553 84.345515871777934 382.604776485347429 84.907606582205517 383.096585010557646 85.329168658910021"/>
    <line class="cls-3" x1="383.096585010557646" y1="85.329168658910021" x2="385.450347305614741" y2="86.664137074226346"/>
    <line class="cls-3" x1="384.326165884759575" y1="71.803886252787379" x2="384.326165884759575" y2="84.134728877311318"/>
    <polyline class="cls-3" points="381.972427414178128 82.799760461989536 381.972427414178128 56.873377070604874 392.125153645504724 62.775317617840301"/>
    <line class="cls-3" x1="386.57452872646445" y1="86.945182429441957" x2="393.916825230134236" y2="86.593866801248623"/>
    <polyline class="cls-3" points="393.916825230134236 86.593866801248623 394.935607197631725 86.45335007975973 395.989530257743354 86.172304724545938"/>
    <polyline class="cls-3" points="407.582636269976319 66.112720787788021 407.336720095137025 65.199326361404928 407.020545559548736 64.356190295767192"/>
    <polyline class="cls-3" points="407.020545559548736 64.356190295767192 399.959282498858556 49.214906031352257 397.605544028273471 47.844808435655978"/>
    <line class="cls-3" x1="399.959282498858556" y1="49.214906031352257" x2="386.2583541908798" y2="57.119293245445988"/>
    <line class="cls-3" x1="381.972427414178128" y1="56.873377070604874" x2="397.605544028273471" y2="47.844808435655978"/>
  </g>
  <g>
    <polyline class="cls-1" points="34.58073735407288 175.730302547734937 35.956454835160002 176.555751695875188 35.956454835160002 176.830885862348623 39.12063769577162 178.619304593147717 39.258204779008338 178.481737509909181"/>
    <polyline class="cls-1" points="34.305603187597626 175.867869630971654 34.443170270837982 175.730302547734937 34.58073735407288 175.730302547734937"/>
    <polyline class="cls-1" points="32.104436558366615 174.354585066647815 32.242003641606971 174.492152149880894 32.379570724841869 174.62971923312125"/>
    <polyline class="cls-1" points="26.188818735578934 170.915268039560942 27.426969133431157 171.603103455740893 27.564536216667875 171.87828427093973 30.728719077279493 173.666703001738824 32.104436558366615 174.354585066647815"/>
    <polyline class="cls-1" points="26.051251652345854 171.052835122794022 26.051251652345854 170.915268039560942 26.188818735578934 170.915268039560942"/>
    <polyline class="cls-1" points="40.496355176860561 179.169619574818171 40.633922260099098 179.307186658054889 40.633922260099098 179.444753741289787"/>
    <line class="cls-1" x1="39.258204779008338" y1="178.481737509909181" x2="40.496355176860561" y2="179.169619574818171"/>
    <line class="cls-1" x1="310.826682835372594" y1="23.024635874970954" x2="309.726146169484309" y2="22.336753810063783"/>
    <polyline class="cls-1" points="311.101817001844211 23.299770041442571 310.964296567329257 23.162202958207672 310.826682835372594 23.024635874970954"/>
    <polyline class="cls-1" points="310.964296567329257 23.712471291152724 311.101817001844211 23.574904207916006 311.101817001844211 23.299770041442571"/>
    <line class="cls-1" x1="310.41393493693522" y1="24.125219189584641" x2="310.41393493693522" y2="23.987652106349742"/>
    <polyline class="cls-1" points="311.239430733804511 27.151788318235958 309.863666603991987 26.326385818815652 309.726146169484309 26.326385818815652 308.763129938100064 25.088188772241665"/>
    <polyline class="cls-1" points="311.376951168321284 27.564536216667875 311.376951168321284 27.289355401474495 311.239430733804511 27.151788318235958"/>
    <polyline class="cls-1" points="311.376951168321284 28.940253697756816 311.376951168321284 28.802686614521008 311.376951168321284 27.564536216667875"/>
    <line class="cls-1" x1="309.038264104571681" y1="30.728672428557729" x2="309.038264104571681" y2="30.315971178847576"/>
    <polyline class="cls-1" points="309.313398271043297 31.003853243751109 309.175784539084816 30.866286160516211 309.038264104571681 30.728672428557729"/>
    <line class="cls-1" x1="310.001280335955926" y1="31.416554493463991" x2="309.313398271043297" y2="31.003853243751109"/>
    <polyline class="cls-1" points="310.826682835372594 31.003853243751109 310.826682835372594 31.003853243751109 311.239430733804511 31.278987410226364"/>
    <polyline class="cls-1" points="311.376951168321284 31.554121576699799 311.376951168321284 31.416554493463991 311.239430733804511 31.278987410226364"/>
    <line class="cls-1" x1="311.376951168321284" y1="34.305603187599445" x2="311.376951168321284" y2="31.554121576699799"/>
    <polyline class="cls-1" points="312.752715298128351 38.983070612534902 313.027849464601786 38.707889797339703 313.302983631075222 38.295188547631369 313.302983631075222 37.74492021468086 313.302983631075222 37.194605233012226 313.027849464601786 36.506723168106873 312.752715298128351 35.956454835160002 312.477581131658553 35.26857277025465 311.927219501266336 34.855871520546316 311.514564900279765 34.443170270834344 311.376951168321284 34.305603187599445"/>
    <polyline class="cls-1" points="296.519146394090967 14.770237690990143 296.656666828604102 14.770237690990143 297.757296791945009 15.458119755895495 298.032430958414807 15.870821005607468 301.059000087067943 17.521719301891608"/>
    <line class="cls-1" x1="302.572284651399059" y1="18.347168450035497" x2="301.196613819024606" y2="17.521719301891608"/>
    <polyline class="cls-1" points="302.709898383352083 18.622302616507113 302.709898383352083 18.484735533270396 302.572284651399059 18.347168450035497"/>
    <polyline class="cls-1" points="302.709898383352083 18.897436782982368 302.709898383352083 18.759869699743831 302.709898383352083 18.622302616507113"/>
    <line class="cls-1" x1="301.884495883931777" y1="20.135587180832772" x2="301.884495883931777" y2="19.310138032690702"/>
    <polyline class="cls-1" points="302.159630050403393 20.548335079264689 302.022016318446731 20.410721347306207 301.884495883931777 20.135587180832772"/>
    <line class="cls-1" x1="302.709898383352083" y1="20.823469245738124" x2="302.159630050403393" y2="20.548335079264689"/>
    <polyline class="cls-1" points="304.773451280624613 19.722885931122619 304.911065012584913 19.722885931122619 306.286829142395618 20.410721347306207 306.42434957691421 20.685902162503226 309.450918705558252 22.474320893298682"/>
    <line class="cls-1" x1="34.58073735407288" y1="175.730302547734937" x2="304.911065012584913" y2="19.722885931122619"/>
    <line class="cls-1" x1="35.956454835160002" y1="176.555751695875188" x2="306.286829142395618" y2="20.410721347306207"/>
    <line class="cls-1" x1="35.956454835160002" y1="176.830885862348623" x2="306.42434957691421" y2="20.685902162503226"/>
    <line class="cls-1" x1="39.258204779008338" y1="178.481737509909181" x2="309.726146169484309" y2="22.336753810063783"/>
    <line class="cls-1" x1="40.496355176860561" y1="179.169619574818171" x2="310.826682835372594" y2="23.024635874970954"/>
    <line class="cls-1" x1="40.633922260099098" y1="179.444753741289787" x2="311.101817001844211" y2="23.299770041442571"/>
    <line class="cls-1" x1="40.909103075294297" y1="179.582320824526505" x2="311.101817001844211" y2="23.574904207916006"/>
    <line class="cls-1" x1="42.559954722855764" y1="180.545337055908931" x2="309.726146169484309" y2="26.326385818815652"/>
    <line class="cls-1" x1="42.697521806091572" y1="180.68290413914383" x2="309.863666603991987" y2="26.326385818815652"/>
    <line class="cls-1" x1="44.073239287182332" y1="181.370786204049182" x2="311.239430733804511" y2="27.151788318235958"/>
    <line class="cls-1" x1="44.485987185610611" y1="181.645920370522617" x2="311.376951168321284" y2="27.564536216667875"/>
    <line class="cls-1" x1="45.586570500227936" y1="182.333802435429789" x2="311.376951168321284" y2="28.802686614521008"/>
    <line class="cls-1" x1="45.999271749938089" y1="182.608936601903224" x2="309.038264104571681" y2="30.728672428557729"/>
    <line class="cls-1" x1="46.411972999648242" y1="182.746503685139942" x2="309.313398271043297" y2="31.003853243751109"/>
    <line class="cls-1" x1="47.237422147792131" y1="183.296772018084994" x2="310.826682835372594" y2="31.003853243751109"/>
    <line class="cls-1" x1="47.37498923102703" y1="183.571952833280193" x2="311.239430733804511" y2="31.278987410226364"/>
    <line class="cls-1" x1="47.512556314265566" y1="183.847086999751809" x2="311.376951168321284" y2="31.554121576699799"/>
    <line class="cls-1" x1="47.512556314265566" y1="186.59852196193151" x2="162.248168605875435" y2="120.426095947924296"/>
    <line class="cls-1" x1="174.079450900174379" y1="113.547461893756008" x2="189.350003572832975" y2="104.742795376830145"/>
    <line class="cls-1" x1="201.318806301649602" y1="97.864161322665495" x2="311.376951168321284" y2="34.305603187599445"/>
    <line class="cls-1" x1="47.512556314265566" y1="186.873702777126709" x2="162.248168605875435" y2="120.563663031159194"/>
    <line class="cls-1" x1="174.354585066647815" y1="113.685028976992726" x2="189.487570656071512" y2="104.880362460068682"/>
    <line class="cls-1" x1="201.456420033605355" y1="98.001728405900394" x2="311.514564900279765" y2="34.443170270834344"/>
    <line class="cls-1" x1="296.656666828604102" y1="14.770237690990143" x2="26.188818735578934" y2="170.915268039560942"/>
    <line class="cls-1" x1="297.757296791945009" y1="15.458119755895495" x2="27.426969133431157" y2="171.603103455740893"/>
    <line class="cls-1" x1="298.032430958414807" y1="15.870821005607468" x2="27.564536216667875" y2="171.87828427093973"/>
    <line class="cls-1" x1="301.196613819024606" y1="17.521719301891608" x2="30.728719077279493" y2="173.666703001738824"/>
    <line class="cls-1" x1="302.572284651399059" y1="18.347168450035497" x2="32.104436558366615" y2="174.354585066647815"/>
    <line class="cls-1" x1="302.709898383352083" y1="18.622302616507113" x2="32.379570724841869" y2="174.767286316357968"/>
    <line class="cls-1" x1="302.709898383352083" y1="18.759869699743831" x2="32.517137808076768" y2="174.767286316357968"/>
    <line class="cls-1" x1="301.884495883931777" y1="20.135587180832772" x2="33.342586956220657" y2="175.179987566066302"/>
    <line class="cls-1" x1="302.159630050403393" y1="20.548335079264689" x2="33.755288205928991" y2="175.455168381261501"/>
    <line class="cls-1" x1="34.443170270837982" y1="175.730302547734937" x2="304.773451280624613" y2="19.722885931122619"/>
    <polyline class="cls-1" points="310.41393493693522 24.125219189584641 40.909103075294297 179.582320824526505 310.964296567329257 23.712471291152724"/>
    <line class="cls-1" x1="45.586570500227936" y1="182.333802435429789" x2="311.376951168321284" y2="28.940253697756816"/>
    <line class="cls-1" x1="47.099855064555413" y1="183.159204934848276" x2="310.826682835372594" y2="31.003853243751109"/>
    <line class="cls-1" x1="47.512556314265566" y1="192.101438535010857" x2="163.486319003727658" y2="125.103563372861572"/>
    <line class="cls-1" x1="178.756918325111656" y1="116.298896855932071" x2="190.725721053921916" y2="109.420262801767421"/>
    <line class="cls-1" x1="205.996273726580512" y1="100.615596284845196" x2="312.752715298128351" y2="38.983070612534902"/>
    <line class="cls-1" x1="296.519146394090967" y1="14.770237690990143" x2="26.051251652345854" y2="170.915268039560942"/>
    <line class="cls-1" x1="302.709898383352083" y1="18.897436782982368" x2="32.654704891315305" y2="174.767286316357968"/>
    <polyline class="cls-1" points="334.62676785847998 38.432755630864449 335.039515756913715 38.157621464391013 335.589784089864224 37.607306482722379 336.002438690847157 36.919471066540609 336.277666154767758 36.231589001635257 336.415186589280893 35.681320668686567 336.415186589280893 34.993438603779396 336.415186589280893 34.443170270834344 336.140052422809276 34.030422372404246 335.72730452437554 33.892855289165709 335.31464992338897 33.75528820593081 334.764288292994934 33.892855289165709 334.351633692008363 34.167989455639145 333.801365359059673 34.718304437307779 333.388617460631394 35.26857277025465 332.97586956219584 35.956454835160002 332.700735395724223 36.506723168106873 332.700735395724223 37.194605233012226 332.700735395724223 37.74492021468086 332.838349127684523 38.295188547631369 333.11348329415614 38.570322714101167 333.52613789514271 38.707889797339703 334.076499525538566 38.707889797339703 334.62676785847998 38.432755630864449"/>
    <polyline class="cls-1" points="325.546967175084319 34.167989455639145 325.271833008610884 33.892855289165709 324.996698842135629 33.480154039455556 324.996698842135629 32.929839057786921 324.996698842135629 32.379570724841869 325.271833008610884 31.691688659934698 325.546967175084319 31.003853243751109 325.959715073518055 30.453538262082475 326.372369674502806 30.040837012374141 326.922731304896843 29.628089113940405 327.335385905881594 29.352954947466969 327.885654238830284 29.352954947466969 328.29840213726402 29.490522030705506"/>
    <line class="cls-1" x1="328.29840213726402" y1="29.490522030705506" x2="335.864918256335841" y2="33.892855289165709"/>
    <line class="cls-1" x1="325.546967175084319" y1="34.167989455639145" x2="333.251003728671094" y2="38.570322714101167"/>
    <line class="cls-1" x1="317.842930621497544" y1="46.274405916413343" x2="317.842930621497544" y2="27.702103299904593"/>
    <polyline class="cls-1" points="317.842930621497544 27.702103299904593 317.842930621497544 27.564536216667875 317.705316889537244 27.289355401474495 317.567703157576943 27.151788318235958"/>
    <line class="cls-1" x1="317.567703157576943" y1="27.151788318235958" x2="311.101817001844211" y2="23.299770041442571"/>
    <line class="cls-1" x1="309.450918705558252" y1="22.474320893298682" x2="306.42434957691421" y2="20.685902162503226"/>
    <line class="cls-1" x1="304.773451280624613" y1="19.722885931122619" x2="302.709898383352083" y2="18.484735533270396"/>
    <line class="cls-1" x1="301.059000087067943" y1="17.521719301891608" x2="298.032430958414807" y2="15.870821005607468"/>
    <line class="cls-1" x1="296.381532662130667" y1="14.907851422950444" x2="289.915646506396115" y2="11.19335358067201"/>
    <polyline class="cls-1" points="289.915646506396115 11.19335358067201 289.778032774435815 11.055786497433473 289.640512339924499 11.19335358067201 289.502898607962379 11.330920663908728"/>
    <line class="cls-1" x1="289.502898607962379" y1="11.330920663908728" x2="289.502898607962379" y2="18.759869699743831"/>
    <line class="cls-1" x1="308.487902474181283" y1="41.32180432500445" x2="317.567703157576943" y2="46.549540082883141"/>
    <polyline class="cls-1" points="317.567703157576943 46.549540082883141 317.705316889537244 46.549540082883141 317.842930621497544 46.549540082883141 317.842930621497544 46.274405916413343"/>
    <line class="cls-1" x1="337.103068654186245" y1="16.696270153749538" x2="317.842930621497544" y2="27.702103299904593"/>
    <line class="cls-1" x1="337.103068654186245" y1="35.26857277025465" x2="336.415186589280893" y2="35.681320668686567"/>
    <line class="cls-1" x1="332.287987497290487" y1="38.020054381156115" x2="317.842930621497544" y2="46.274405916413343"/>
    <line class="cls-1" x1="337.103068654186245" y1="35.26857277025465" x2="337.103068654186245" y2="16.696270153749538"/>
    <polyline class="cls-1" points="337.103068654186245 16.696270153749538 336.965454922233221 16.421135987276102 336.82793448771281 16.146001820800848 336.690320755754328 16.008434737565949"/>
    <line class="cls-1" x1="336.690320755754328" y1="16.008434737565949" x2="317.567703157576943" y2="27.151788318235958"/>
    <polyline class="cls-1" points="336.965454922233221 35.543753585451668 336.965454922233221 35.406139853491368 337.103068654186245 35.26857277025465"/>
    <line class="cls-1" x1="309.038264104571681" y1=".050000000000182" x2="289.915646506396115" y2="11.19335358067201"/>
    <line class="cls-1" x1="336.690320755754328" y1="16.008434737565949" x2="309.038264104571681" y2=".050000000000182"/>
    <polyline class="cls-1" points="309.038264104571681 .050000000000182 308.900650372611381 .050000000000182 308.763129938100064 .050000000000182"/>
    <line class="cls-1" x1="336.965454922233221" y1="35.543753585451668" x2="336.415186589280893" y2="35.818887751925104"/>
    <line class="cls-1" x1="332.425601229252607" y1="38.157621464391013" x2="317.842930621497544" y2="46.549540082883141"/>
    <line class="cls-1" x1="308.763129938100064" y1=".050000000000182" x2="289.640512339924499" y2="11.19335358067201"/>
    <polyline class="cls-1" points="19.310184681414285 167.200770197284328 19.447751764649183 167.200770197284328 19.58531884788863 167.338383929242809"/>
    <line class="cls-1" x1="19.58531884788863" y1="167.338383929242809" x2="47.099855064555413" y2="183.159204934848276"/>
    <polyline class="cls-1" points="47.099855064555413 183.159204934848276 47.37498923102703 183.434385750043475 47.512556314265566 183.571952833280193 47.512556314265566 183.847086999751809"/>
    <line class="cls-1" x1="47.512556314265566" y1="183.847086999751809" x2="47.512556314265566" y2="202.419389616258741"/>
    <polyline class="cls-1" points="47.512556314265566 202.419389616258741 47.512556314265566 202.556956699499096 47.37498923102703 202.694523782730357"/>
    <line class="cls-1" x1=".050000000000182" y1="197.191653858376412" x2=".050000000000182" y2="178.619304593147717"/>
    <polyline class="cls-1" points=".050000000000182 178.619304593147717 .050000000000182 178.344170426676101 .187567083239628 178.344170426676101 .462701249708516 178.344170426676101"/>
    <line class="cls-1" x1=".462701249708516" y1="178.344170426676101" x2="19.58531884788863" y2="167.338383929242809"/>
    <line class="cls-1" x1="27.977237466381666" y1="213.700356928890869" x2=".462701249708516" y2="197.741922191323283"/>
    <polyline class="cls-1" points=".462701249708516 197.741922191323283 .187567083239628 197.604355108086565 .050000000000182 197.32922094161313 .050000000000182 197.191653858376412"/>
    <line class="cls-1" x1="28.389985364811764" y1="213.425222762415615" x2="47.512556314265566" y2="202.419389616258741"/>
    <line class="cls-1" x1="28.389985364811764" y1="194.852920145910502" x2="47.512556314265566" y2="183.847086999751809"/>
    <line class="cls-1" x1="28.389985364811764" y1="194.852920145910502" x2="28.389985364811764" y2="213.425222762415615"/>
    <polyline class="cls-1" points="28.389985364811764 213.425222762415615 28.252418281575046 213.700356928890869 28.114804549616565 213.700356928890869 27.977237466381666 213.700356928890869"/>
    <line class="cls-1" x1="27.977237466381666" y1="194.302605164240049" x2="47.099855064555413" y2="183.159204934848276"/>
    <line class="cls-1" x1=".462701249708516" y1="178.344170426676101" x2="27.977237466381666" y2="194.302605164240049"/>
    <polyline class="cls-1" points="27.977237466381666 194.302605164240049 28.114804549616565 194.440172247478586 28.252418281575046 194.715306413950202 28.389985364811764 194.852920145910502"/>
    <line class="cls-1" x1=".187567083239628" y1="178.344170426676101" x2="19.310184681414285" y2="167.200770197284328"/>
    <line class="cls-1" x1="28.252418281575046" y1="213.700356928890869" x2="47.37498923102703" y2="202.694523782730357"/>
    <polyline class="cls-1" points="163.073617754017505 121.38906553058132 163.486319003727658 121.939380512249954 163.761499818921038 122.627262577155307"/>
    <polyline class="cls-1" points="163.899066902159575 125.516264622569906 164.311768151864271 125.103563372861572 164.586902318339526 124.690815474427836 164.586902318339526 124.140547141477327"/>
    <line class="cls-1" x1="162.523349421070634" y1="120.013348049488741" x2="162.248168605875435" y2="120.150915132725459"/>
    <polyline class="cls-1" points="162.523349421070634 125.653831705808443 163.073617754017505 125.791398789045161 163.623932735686139 125.653831705808443 164.036633985396293 125.378697539335008 164.311768151864271 124.965996289624854 164.449335235102808 124.553248391191119 164.449335235102808 123.86541297500753 164.311768151864271 123.177530910102178 164.036633985396293 122.489648845196825 163.761499818921038 121.801813429013237 163.211184837252404 121.113931364107884 162.798483587544069 120.563663031159194 162.248168605875435 120.150915132725459"/>
    <polyline class="cls-1" points="173.391568835265389 118.087362235456567 173.80427008497918 117.812181420259549 174.354585066647815 117.674614337026469 174.904853399591047 117.674614337026469 175.317601298026602 117.812181420259549 175.730302547736756 118.087362235456567"/>
    <polyline class="cls-1" points="173.116434668795591 117.949748503498085 173.391568835265389 117.674614337026469 173.80427008497918 117.399480170551215 174.354585066647815 117.261913087314497 174.904853399591047 117.261913087314497 175.317601298026602 117.399480170551215 175.867869630971654 117.674614337026469 176.143050446169582 117.949748503498085"/>
    <polyline class="cls-1" points="167.338383929242809 121.526679262537982 167.751085178951143 121.38906553058132 168.163833077387608 121.251498447344602 168.714101410329931 121.251498447344602 169.264416391998566 121.38906553058132 169.539550558472001 121.526679262537982"/>
    <polyline class="cls-1" points="166.925636030809073 121.38906553058132 167.200816846009729 121.113931364107884 167.613518095716245 120.976364280871167 168.163833077387608 120.838797197636268 168.714101410329931 120.838797197636268 169.264416391998566 120.976364280871167 169.677117641708719 121.113931364107884 169.952251808182154 121.38906553058132"/>
    <polyline class="cls-1" points="162.523349421070634 120.150915132725459 163.073617754017505 120.701230114395912 163.623932735686139 121.251498447344602 164.036633985396293 121.939380512249954 164.311768151864271 122.764829660392024 164.586902318339526 123.590232159810512 164.586902318339526 124.278114224719502 164.586902318339526 124.965996289624854 164.311768151864271 125.378697539335008 163.899066902159575 125.791398789045161 163.486319003727658 125.928965872281879 162.936050670778968 125.928965872281879 162.385782337833916 125.791398789045161"/>
    <polyline class="cls-1" points="176.418184612640289 117.674614337026469 175.867869630971654 117.949748503498085 175.180034214788066 118.087362235456567 174.354585066647815 118.224929318693285 173.666703001740643 118.087362235456567 172.978867585558874 117.812181420259549 172.5661196871215 117.537047253789751 172.153418437414985 117.261913087314497 172.015851354180086 116.849211837602525 172.015851354180086 116.436463939170608 172.290985520653521 116.023762689462274 172.703733419085438 115.611014791026719 173.391568835265389 115.335880624553283 174.079450900174379 115.198313541320204 174.76728631635433 115.198313541320204 175.455168381261501 115.335880624553283 176.143050446169582 115.47344770779182 176.693318779115543 115.748628522987019 176.96845294558716 116.161329772693534 177.106020028822059 116.574031022407326 177.106020028822059 116.986778920839242 176.830885862348623 117.399480170551215 176.418184612640289 117.674614337026469"/>
    <polyline class="cls-1" points="172.42855260388842 117.399480170551215 172.841300502322156 117.12434600407596 173.25400175203049 116.986778920839242 173.941883816935842 116.849211837602525 174.62971923312125 116.711598105642224 175.180034214788066 116.849211837602525 175.867869630971654 116.986778920839242 176.418184612640289 117.12434600407596 176.830885862348623 117.399480170551215"/>
    <polyline class="cls-1" points="170.227385974659228 121.251498447344602 169.677117641708719 121.526679262537982 168.989235576807005 121.664246345776519 168.301400160619778 121.664246345776519 167.613518095716245 121.664246345776519 166.925636030809073 121.38906553058132 166.375367697860383 121.113931364107884 166.100233531392405 120.701230114395912 165.825099364917151 120.288528864687578 165.962666448156597 119.875780966253842 166.237800614623666 119.463079716543689 166.650501864335638 119.187945550070253 167.200816846009729 118.912764734875054 167.88865226219059 118.775197651638337 168.576534327093214 118.775197651638337 169.401983475238922 118.775197651638337 169.952251808182154 119.050331818113591 170.502566789852608 119.32551263330879 170.915268039562761 119.738213883015305 171.052835122801298 120.150915132725459 170.915268039562761 120.563663031159194 170.777700956326044 120.976364280871167 170.227385974659228 121.251498447344602"/>
    <polyline class="cls-1" points="166.237800614623666 120.976364280871167 166.650501864335638 120.701230114395912 167.200816846009729 120.426095947924296 167.751085178951143 120.288528864687578 168.438967243856496 120.288528864687578 169.126802660040084 120.288528864687578 169.677117641708719 120.426095947924296 170.227385974659228 120.701230114395912 170.640133873087507 120.976364280871167"/>
    <polyline class="cls-1" points="190.313019804211763 105.705811608208933 190.725721053921916 106.256079941159442 191.000855220395351 106.943962006064794"/>
    <polyline class="cls-1" points="191.138468952353833 109.832964051475756 191.551170202063986 109.420262801767421 191.688737285297066 109.007561552057268 191.826304368537421 108.457246570388634"/>
    <line class="cls-1" x1="189.625137739308229" y1="104.330094127121811" x2="189.350003572832975" y2="104.467661210360347"/>
    <polyline class="cls-1" points="189.762704822541309 109.970577783436056 190.313019804211763 109.970577783436056 190.725721053921916 109.970577783436056 191.138468952353833 109.695396968240857 191.413603118829087 109.282695718528885 191.551170202063986 108.73238073686025 191.551170202063986 108.182112403915198 191.551170202063986 107.494230339011665 191.276036035588731 106.806394922826257 190.863288137158634 106.118512857922724 190.450586887450299 105.430677441739135 189.90031855449979 104.880362460068682 189.350003572832975 104.467661210360347"/>
    <polyline class="cls-1" points="200.630924236741521 102.266494581127517 201.043672135173438 102.128927497892619 201.456420033605355 101.991360414654991 202.006688366554044 101.991360414654991 202.556956699495458 102.128927497892619 202.832090865971622 102.266494581127517"/>
    <polyline class="cls-1" points="200.218269635753131 102.128927497892619 200.493403802228386 101.853746682693782 201.043672135173438 101.716179599458883 201.456420033605355 101.578612516220346 202.006688366554044 101.578612516220346 202.556956699495458 101.716179599458883 202.969704597929194 101.853746682693782 203.24483876440263 102.128927497892619"/>
    <polyline class="cls-1" points="194.577785979438886 105.843378691449288 194.852920145912321 105.705811608208933 195.403188478855554 105.568244524977672 195.953456811806063 105.568244524977672 196.36620471023798 105.705811608208933 196.778952608668078 105.843378691449288"/>
    <polyline class="cls-1" points="194.165038081003331 105.705811608208933 194.440172247476767 105.430677441739135 194.852920145912321 105.293063709777016 195.403188478855554 105.155496626542117 195.953456811806063 105.155496626542117 196.503818442192824 105.293063709777016 196.916473043183032 105.430677441739135 197.191607209656468 105.705811608208933"/>
    <polyline class="cls-1" points="189.625137739308229 104.467661210360347 190.313019804211763 104.880362460068682 190.725721053921916 105.568244524977672 191.276036035588731 106.256079941159442 191.551170202063986 107.081529089301512 191.688737285297066 107.906978237441763 191.826304368537421 108.594813653625351 191.688737285297066 109.145128635295805 191.551170202063986 109.695396968240857 191.138468952353833 110.108144866674593 190.725721053921916 110.245711949909492 190.175452720975045 110.245711949909492 189.487570656071512 110.108144866674593"/>
    <polyline class="cls-1" points="203.657586662838185 101.991360414654991 202.969704597929194 102.266494581127517 202.281822533023842 102.404061664366964 201.59394046811758 102.404061664366964 200.906151700656665 102.404061664366964 200.218269635753131 102.128927497892619 199.668001302804441 101.853746682693782 199.392773838887479 101.441045432985447 199.255253404372525 101.028344183273475 199.255253404372525 100.615596284845196 199.53038757084596 100.340462118369942 199.943135469280605 99.92776086865797 200.493403802228386 99.652626702186353 201.181285867131919 99.515012970226962 202.006688366554044 99.515012970226962 202.694570431459397 99.652626702186353 203.24483876440263 99.790193785421252 203.795107097353139 100.065327951896506 204.207854995781418 100.478029201604841 204.345468727739899 100.890777100038576 204.345468727739899 101.30347834974873 204.070241263821117 101.716179599458883 203.657586662838185 101.991360414654991"/>
    <polyline class="cls-1" points="199.53038757084596 101.716179599458883 199.943135469280605 101.441045432985447 200.493403802228386 101.30347834974873 201.181285867131919 101.165911266512012 201.731554200076971 101.028344183273475 202.419436264984142 101.165911266512012 202.969704597929194 101.30347834974873 203.519972930877884 101.441045432985447 203.932720829307982 101.716179599458883"/>
    <polyline class="cls-1" points="197.466834673575249 105.568244524977672 196.916473043183032 105.843378691449288 196.228684275724845 105.980945774682368 195.403188478855554 105.980945774682368 194.715306413950202 105.980945774682368 194.165038081003331 105.705811608208933 193.614769748058279 105.430677441739135 193.202021849626362 105.01792954330358 193.064501415109589 104.605228293595246 193.064501415109589 104.192480395163329 193.339635581583025 103.779779145453176 193.889903914533534 103.50464497898156 194.440172247476767 103.229510812508124 195.128054312387576 103.091943729269587 195.81593637728929 103.091943729269587 196.503818442192824 103.091943729269587 197.191607209656468 103.367077895743023 197.741968840049594 103.642212062218277 198.017103006516663 104.054913311928431 198.154623441035255 104.467661210360347 198.154623441035255 104.880362460068682 197.879489274563639 105.293063709777016 197.466834673575249 105.568244524977672"/>
    <polyline class="cls-1" points="193.477156016099798 105.293063709777016 193.889903914533534 105.01792954330358 194.440172247476767 104.742795376830145 194.99044058042 104.605228293595246 195.67832264532899 104.605228293595246 196.228684275724845 104.605228293595246 196.916473043183032 104.742795376830145 197.466834673575249 105.01792954330358 197.879489274563639 105.293063709777016"/>
    <polyline class="cls-1" points="161.42276610645149 126.341713770711976 168.438967243856496 130.331299130740263 206.684155791485864 108.319679487153735 206.40902162501061 108.182112403915198"/>
    <polyline class="cls-1" points="206.684155791485864 108.319679487153735 206.684155791485864 110.93354736609308 168.438967243856496 133.082780741641727 159.084032393985581 127.717431251800917"/>
    <line class="cls-1" x1="168.438967243856496" y1="133.082780741641727" x2="168.438967243856496" y2="130.331299130740263"/>
    <polyline class="cls-1" points="201.181285867131919 97.726594239430597 201.043672135173438 97.726594239430597 200.906151700656665 97.726594239430597"/>
    <line class="cls-1" x1="206.133887458542631" y1="100.615596284845196" x2="201.181285867131919" y2="97.726594239430597"/>
    <polyline class="cls-1" points="206.684155791485864 101.441045432985447 206.684155791485864 101.165911266512012 206.40902162501061 100.890777100038576 206.133887458542631 100.615596284845196"/>
    <line class="cls-1" x1="206.684155791485864" y1="107.769411154203226" x2="206.684155791485864" y2="101.441045432985447"/>
    <polyline class="cls-1" points="206.684155791485864 108.04454532067848 206.684155791485864 107.906978237441763 206.684155791485864 107.769411154203226"/>
    <line class="cls-1" x1="195.265668044344238" y1="114.372864393176314" x2="188.662121507925804" y2="110.520846116384746"/>
    <line class="cls-1" x1="195.67832264532899" y1="114.235297309941416" x2="206.684155791485864" y2="107.769411154203226"/>
    <polyline class="cls-1" points="195.265668044344238 114.372864393176314 195.403188478855554 114.372864393176314 195.540802210818583 114.372864393176314 195.67832264532899 114.235297309941416"/>
    <polyline class="cls-1" points="195.67832264532899 114.235297309941416 195.67832264532899 107.906978237441763 206.684155791485864 101.441045432985447"/>
    <line class="cls-1" x1="195.128054312387576" y1="107.081529089301512" x2="206.133887458542631" y2="100.615596284845196"/>
    <polyline class="cls-1" points="195.67832264532899 107.906978237441763 195.540802210818583 107.494230339011665 195.265668044344238 107.21909617253641 195.128054312387576 107.081529089301512"/>
    <line class="cls-1" x1="190.037885637740146" y1="104.192480395163329" x2="201.181285867131919" y2="97.726594239430597"/>
    <line class="cls-1" x1="190.037885637740146" y1="104.192480395163329" x2="195.128054312387576" y2="107.081529089301512"/>
    <polyline class="cls-1" points="190.037885637740146 104.192480395163329 189.90031855449979 104.054913311928431 189.762704822541309 104.192480395163329 189.625137739308229 104.330094127121811"/>
    <line class="cls-1" x1="189.625137739308229" y1="104.467661210360347" x2="189.625137739308229" y2="104.330094127121811"/>
    <line class="cls-1" x1="195.540802210818583" y1="100.615596284845196" x2="195.67832264532899" y2="100.753163368080095"/>
    <line class="cls-1" x1="189.350003572832975" y1="104.467661210360347" x2="189.350003572832975" y2="104.880362460068682"/>
    <polyline class="cls-1" points="195.540802210818583 100.615596284845196 194.302651812965451 101.165911266512012 194.302651812965451 101.441045432985447"/>
    <line class="cls-1" x1="194.302651812965451" y1="101.165911266512012" x2="194.577785979438886" y2="101.441045432985447"/>
    <polyline class="cls-1" points="189.487570656071512 104.880362460068682 189.762704822541309 105.155496626542117 189.90031855449979 105.155496626542117 190.313019804211763 105.568244524977672 190.313019804211763 105.705811608208933"/>
    <polyline class="cls-1" points="191.000855220395351 106.943962006064794 191.138468952353833 106.943962006064794 191.276036035588731 107.631797422248383 191.138468952353833 107.631797422248383"/>
    <polyline class="cls-1" points="191.138468952353833 107.631797422248383 191.276036035588731 108.182112403915198 191.138468952353833 108.73238073686025"/>
    <polyline class="cls-1" points="191.138468952353833 108.73238073686025 191.276036035588731 108.869994468820551 191.138468952353833 109.282695718528885 191.000855220395351 109.145128635295805 190.725721053921916 109.420262801767421"/>
    <polyline class="cls-1" points="190.313019804211763 109.55782988500232 190.313019804211763 109.695396968240857 190.175452720975045 109.695396968240857"/>
    <line class="cls-1" x1="191.276036035588731" y1="109.007561552057268" x2="191.000855220395351" y2="109.145128635295805"/>
    <line class="cls-1" x1="191.276036035588731" y1="107.494230339011665" x2="191.138468952353833" y2="107.631797422248383"/>
    <line class="cls-1" x1="189.762704822541309" y1="105.155496626542117" x2="189.90031855449979" y2="105.155496626542117"/>
    <polyline class="cls-1" points="173.941883816935842 113.40989481051929 173.80427008497918 113.40989481051929 173.666703001740643 113.40989481051929"/>
    <line class="cls-1" x1="179.032052491583272" y1="116.298896855932071" x2="173.941883816935842" y2="113.40989481051929"/>
    <polyline class="cls-1" points="179.582367473251907 117.12434600407596 179.444753741293425 116.849211837602525 179.16961957481999 116.574031022407326 179.032052491583272 116.298896855932071"/>
    <line class="cls-1" x1="179.582367473251907" y1="123.452665076575613" x2="179.582367473251907" y2="117.12434600407596"/>
    <polyline class="cls-1" points="179.444753741293425 123.727845891770812 179.582367473251907 123.590232159810512 179.582367473251907 123.452665076575613"/>
    <line class="cls-1" x1="168.026219345426398" y1="130.056164964268646" x2="161.42276610645149" y2="126.341713770711976"/>
    <line class="cls-1" x1="168.438967243856496" y1="129.918597881031928" x2="179.582367473251907" y2="123.452665076575613"/>
    <polyline class="cls-1" points="168.026219345426398 130.056164964268646 168.301400160619778 130.193732047505364 168.438967243856496 130.056164964268646 168.438967243856496 129.918597881031928"/>
    <polyline class="cls-1" points="168.438967243856496 129.918597881031928 168.438967243856496 123.590232159810512 179.582367473251907 117.12434600407596"/>
    <line class="cls-1" x1="167.88865226219059" y1="122.764829660392024" x2="179.032052491583272" y2="116.298896855932071"/>
    <polyline class="cls-1" points="168.438967243856496 123.590232159810512 168.301400160619778 123.177530910102178 168.163833077387608 122.902396743630561 167.88865226219059 122.764829660392024"/>
    <line class="cls-1" x1="162.798483587544069" y1="119.875780966253842" x2="173.941883816935842" y2="113.40989481051929"/>
    <line class="cls-1" x1="162.798483587544069" y1="119.875780966253842" x2="167.88865226219059" y2="122.764829660392024"/>
    <polyline class="cls-1" points="162.798483587544069 119.875780966253842 162.660916504307352 119.875780966253842 162.523349421070634 119.875780966253842 162.523349421070634 120.150915132725459"/>
    <line class="cls-1" x1="162.523349421070634" y1="120.150915132725459" x2="162.523349421070634" y2="120.150915132725459"/>
    <line class="cls-1" x1="168.301400160619778" y1="116.298896855932071" x2="168.576534327093214" y2="116.436463939170608"/>
    <line class="cls-1" x1="162.248168605875435" y1="120.150915132725459" x2="162.248168605875435" y2="120.563663031159194"/>
    <polyline class="cls-1" points="168.301400160619778 116.298896855932071 167.200816846009729 116.986778920839242 167.200816846009729 117.261913087314497"/>
    <line class="cls-1" x1="167.200816846009729" y1="116.986778920839242" x2="167.338383929242809" y2="117.12434600407596"/>
    <polyline class="cls-1" points="162.248168605875435 120.563663031159194 162.660916504307352 120.976364280871167 162.660916504307352 120.838797197636268 163.211184837252404 121.38906553058132 163.073617754017505 121.38906553058132"/>
    <polyline class="cls-1" points="163.761499818921038 122.627262577155307 163.899066902159575 122.627262577155307 164.036633985396293 123.315097993338895"/>
    <polyline class="cls-1" points="164.036633985396293 123.315097993338895 164.036633985396293 123.86541297500753 164.036633985396293 124.415681307952582"/>
    <polyline class="cls-1" points="164.036633985396293 124.415681307952582 164.036633985396293 124.553248391191119 163.899066902159575 124.965996289624854 163.761499818921038 124.828382557664554 163.486319003727658 125.103563372861572"/>
    <polyline class="cls-1" points="163.211184837252404 125.378697539335008 163.073617754017505 125.378697539335008 163.211184837252404 125.378697539335008"/>
    <line class="cls-1" x1="164.036633985396293" y1="124.690815474427836" x2="163.761499818921038" y2="124.828382557664554"/>
    <line class="cls-1" x1="164.036633985396293" y1="123.177530910102178" x2="164.036633985396293" y2="123.315097993338895"/>
    <line class="cls-1" x1="162.660916504307352" y1="120.976364280871167" x2="162.660916504307352" y2="120.838797197636268"/>
    <line class="cls-1" x1="163.761499818921038" y1="125.516264622569906" x2="163.899066902159575" y2="125.516264622569906"/>
    <line class="cls-1" x1="191.000855220395351" y1="109.832964051475756" x2="191.138468952353833" y2="109.832964051475756"/>
    <line class="cls-1" x1="195.540802210818583" y1="114.372864393176314" x2="206.684155791485864" y2="108.04454532067848"/>
    <line class="cls-1" x1="189.762704822541309" y1="104.192480395163329" x2="200.906151700656665" y2="97.726594239430597"/>
    <line class="cls-1" x1="168.301400160619778" y1="130.056164964268646" x2="179.444753741293425" y2="123.727845891770812"/>
    <line class="cls-1" x1="162.523349421070634" y1="119.875780966253842" x2="173.666703001740643" y2="113.40989481051929"/>
    <polyline class="cls-1" points="195.81593637728929 126.75441502042213 195.81593637728929 127.029549186895565 196.091070543762726 127.167162918852227"/>
    <line class="cls-1" x1="196.091070543762726" y1="127.167162918852227" x2="196.091070543762726" y2="124.965996289624854"/>
    <polyline class="cls-1" points="196.36620471023798 127.717431251800917 196.091070543762726 127.442297085327482 196.091070543762726 127.167162918852227"/>
    <line class="cls-1" x1="195.81593637728929" y1="125.241130456096471" x2="195.81593637728929" y2="126.75441502042213"/>
    <path class="cls-1" d="M195.81593637728929,126.685561505725673c-.000093297445346.368618206752217.196577717450054.709293828618684.515841575595914.893602931999339"/>
    <polyline class="cls-1" points="200.355790070266266 129.643463714558493 200.493403802228386 129.918597881031928 200.630924236741521 130.193732047505364"/>
    <line class="cls-1" x1="200.355790070266266" y1="129.643463714558493" x2="196.091070543762726" y2="127.167162918852227"/>
    <polyline class="cls-1" points="208.885322420716875 125.653831705808443 208.747708688758394 125.928965872281879 208.610188254247078 126.20414668747344 208.335054087773642 126.341713770711976"/>
    <polyline class="cls-1" points="199.943135469280605 122.764829660392024 200.355790070266266 123.03996382686546 200.355790070266266 129.643463714558493"/>
    <polyline class="cls-1" points="157.845881996133357 130.193732047505364 157.708268264173057 129.781030797795211 157.570701180939977 129.505896631323594 157.295567014466542 129.093148732891677 157.020432847994925 128.818014566420061"/>
    <line class="cls-1" x1="186.461001527418375" y1="130.744047029175817" x2="186.461001527418375" y2="129.781030797795211"/>
    <polyline class="cls-1" points="186.461001527418375 129.781030797795211 186.185820712224995 130.056164964268646 186.048253628984639 130.193732047505364 186.185820712224995 130.468866213978799 186.461001527418375 130.744047029175817"/>
    <line class="cls-1" x1="189.487570656071512" y1="130.193732047505364" x2="189.487570656071512" y2="132.532465759973093"/>
    <polyline class="cls-1" points="191.000855220395351 127.579864168562381 190.450586887450299 127.992565418272534 190.037885637740146 128.40531331670627 189.762704822541309 129.093148732891677 189.487570656071512 129.643463714558493 189.487570656071512 130.193732047505364"/>
    <line class="cls-1" x1="200.355790070266266" y1="122.214514678721571" x2="191.000855220395351" y2="127.579864168562381"/>
    <polyline class="cls-1" points="202.006688366554044 123.03996382686546 201.869074634590106 122.489648845196825 201.59394046811758 122.214514678721571 201.318806301649602 121.939380512249954 200.906151700656665 121.939380512249954 200.355790070266266 122.214514678721571"/>
    <polyline class="cls-1" points="208.885322420716875 125.653831705808443 202.006688366554044 129.643463714558493 202.006688366554044 123.03996382686546"/>
    <polyline class="cls-1" points="201.731554200076971 130.193732047505364 201.869074634590106 129.918597881031928 202.006688366554044 129.643463714558493"/>
    <polyline class="cls-1" points="191.000855220395351 127.579864168562381 190.863288137158634 127.854998335037635 190.725721053921916 128.130132501511071"/>
    <polyline class="cls-1" points="189.762704822541309 129.781030797795211 189.625137739308229 130.056164964268646 189.487570656071512 130.193732047505364"/>
    <polyline class="cls-1" points="202.006688366554044 129.643463714558493 201.59394046811758 129.781030797795211 201.181285867131919 129.918597881031928 200.768537968700002 129.781030797795211 200.355790070266266 129.643463714558493"/>
    <polyline class="cls-1" points="202.006688366554044 123.03996382686546 201.59394046811758 123.177530910102178 201.181285867131919 123.177530910102178 200.768537968700002 123.177530910102178 200.355790070266266 123.03996382686546 200.355790070266266 122.764829660392024 200.218269635753131 122.627262577155307 200.355790070266266 122.489648845196825 200.355790070266266 122.214514678721571"/>
    <line class="cls-1" x1="200.630924236741521" y1="130.193732047505364" x2="196.36620471023798" y2="127.717431251800917"/>
    <line class="cls-1" x1="208.335054087773642" y1="126.341713770711976" x2="201.731554200076971" y2="130.193732047505364"/>
    <polyline class="cls-1" points="189.762704822541309 129.781030797795211 189.762704822541309 129.643463714558493 189.90031855449979 129.368282899365113 189.90031855449979 129.093148732891677 190.037885637740146 128.818014566420061 190.175452720975045 128.542880399944806 190.450586887450299 128.40531331670627 190.588153970685198 128.267699584745969 190.725721053921916 128.130132501511071"/>
    <path class="cls-1" d="M200.596497479390564,130.192985667942594c.319170560698694.184355752100601.712512590485858.184355752100601,1.031683151190009.000093297445346"/>
    <line class="cls-1" x1="200.218269635753131" y1="122.627262577155307" x2="200.355790070266266" y2="122.627262577155307"/>
    <line class="cls-1" x1="200.218269635753131" y1="122.627262577155307" x2="190.725721053921916" y2="128.130132501511071"/>
    <line class="cls-1" x1="189.762704822541309" y1="129.781030797795211" x2="189.762704822541309" y2="132.67003284320981"/>
    <polyline class="cls-1" points="157.845881996133357 134.596065305965567 158.533717412316946 135.008766555679358 158.533717412316946 132.67003284320981 172.841300502322156 140.924431027186984 172.841300502322156 143.400731822893249 178.206603343435745 146.427300951544566 178.206603343435745 149.453916728917648"/>
    <line class="cls-1" x1="208.885322420716875" y1="123.452665076575613" x2="213.837924012127587" y2="120.563663031159194"/>
    <line class="cls-1" x1="158.533717412316946" y1="135.008766555679358" x2="158.533717412316946" y2="135.008766555679358"/>
    <line class="cls-1" x1="208.885322420716875" y1="125.653831705808443" x2="208.885322420716875" y2="123.452665076575613"/>
    <polyline class="cls-1" points="186.461001527418375 129.781030797795211 213.837924012127587 113.960163143466161 213.837924012127587 120.563663031159194"/>
    <polyline class="cls-1" points="198.154623441035255 125.516264622569906 197.741968840049594 125.378697539335008 197.466834673575249 125.516264622569906 197.191607209656468 125.653831705808443 197.191607209656468 126.06657960424036 197.191607209656468 126.479280853946875 197.466834673575249 126.891982103657028 197.741968840049594 127.304730002088945 198.154623441035255 127.579864168562381 198.4297576075096 127.717431251800917 198.704985071427473 127.717431251800917 198.980119237902727 127.442297085327482 198.980119237902727 127.167162918852227 198.980119237902727 126.616847937183593 198.704985071427473 126.20414668747344 198.4297576075096 125.791398789045161 198.154623441035255 125.516264622569906"/>
    <line class="cls-1" x1="157.845881996133357" y1="130.193732047505364" x2="157.845881996133357" y2="134.596065305965567"/>
    <line class="cls-1" x1="157.020432847994925" y1="128.818014566420061" x2="157.020432847994925" y2="128.818014566420061"/>
    <polyline class="cls-1" points="158.121016162608612 128.267699584745969 181.37078620405282 141.612266443370572 181.37078620405282 151.379949191675223 178.206603343435745 149.453916728917648"/>
    <line class="cls-1" x1="206.684155791485864" y1="109.832964051475756" x2="213.837924012127587" y2="113.960163143466161"/>
    <line class="cls-1" x1="193.339635581583025" y1="144.501315137510574" x2="181.37078620405282" y2="151.379949191675223"/>
    <polyline class="cls-1" points="186.461001527418375 130.744047029175817 193.339635581583025 134.733632389204104 181.37078620405282 141.612266443370572"/>
    <line class="cls-1" x1="193.339635581583025" y1="144.501315137510574" x2="193.339635581583025" y2="134.733632389204104"/>
    <polyline class="cls-1" points="186.323387795458075 142.575282674752998 186.323387795458075 142.987983924463151 186.048253628984639 143.400731822893249 185.773119462509385 143.675865989366685 185.497985296039587 143.813433072601583 185.222804480842569 143.813433072601583 184.947670314370953 143.675865989366685 184.947670314370953 143.400731822893249 184.947670314370953 142.987983924463151 185.222804480842569 142.575282674752998 185.497985296039587 142.300148508275925 185.773119462509385 142.024967693080725 186.048253628984639 142.024967693080725 186.323387795458075 142.300148508275925 186.323387795458075 142.575282674752998"/>
    <polyline class="cls-1" points="189.350003572832975 140.786817295228502 189.350003572832975 141.199565193662238 189.07486940635772 141.612266443370572 188.799735239887923 141.887400609842189 188.524554424689086 142.162581425044664 188.249420258217469 142.162581425044664 188.111853174980752 141.887400609842189 187.974286091745853 141.612266443370572 188.111853174980752 141.199565193662238 188.249420258217469 140.786817295228502 188.524554424689086 140.511683128755067 188.799735239887923 140.374116045518349 189.07486940635772 140.374116045518349 189.350003572832975 140.511683128755067 189.350003572832975 140.786817295228502"/>
    <polyline class="cls-1" points="170.640133873087507 143.813433072601583 170.089818891417053 143.538298906128148 169.814684724945437 143.125551007699869 169.539550558472001 142.575282674752998 169.401983475238922 142.024967693080725 169.401983475238922 141.474699360132036 169.539550558472001 141.199565193662238 169.814684724945437 140.924431027186984 170.089818891417053 140.924431027186984 170.640133873087507 141.06199811042552 171.052835122801298 141.337132276897137 171.327969289271095 141.887400609842189 171.603150104468114 142.300148508275925 171.740717187703012 142.850416841224614 171.740717187703012 143.400731822893249 171.603150104468114 143.813433072601583 171.327969289271095 143.951000155838301 171.052835122801298 144.088567239075019 170.640133873087507 143.813433072601583"/>
    <polyline class="cls-1" points="160.597316958313058 138.172949416287338 160.184615708602905 137.760248166579004 159.771867810170988 137.347500268147087 159.496733643695734 136.797231935202035 159.359166560460835 136.246916953531581 159.359166560460835 135.834215703821428 159.496733643695734 135.421514454111275 159.771867810170988 135.146333638914257 160.184615708602905 135.146333638914257 160.597316958313058 135.283947370874557 161.010018208023212 135.559081537347993 161.42276610645149 136.109349870291226 161.697900272926745 136.659664851963498 161.835467356165282 137.20993318490855 161.835467356165282 137.622681083342286 161.697900272926745 138.035382333052439 161.42276610645149 138.310516499524056 161.010018208023212 138.310516499524056 160.597316958313058 138.172949416287338"/>
    <polyline class="cls-1" points="182.608936601901405 150.692067126769871 182.608936601901405 169.264369743278621 183.159251583571859 169.539503909748419 221.817188029633144 147.252750099686637"/>
    <polyline class="cls-1" points="182.88407076837666 150.554500043534972 183.159251583571859 150.692067126769871 183.159251583571859 169.539503909748419"/>
    <polyline class="cls-1" points="193.339635581583025 144.088567239075019 209.710724920137181 134.733632389204104 215.076074409977991 131.569449528596124 221.266826399240927 127.992565418272534"/>
    <polyline class="cls-1" points="221.266826399240927 127.992565418272534 221.817188029633144 128.40531331670627 183.159251583571859 150.692067126769871"/>
    <line class="cls-1" x1="221.817188029633144" y1="147.252750099686637" x2="221.817188029633144" y2="128.40531331670627"/>
    <polyline class="cls-1" points="211.086489049951524 133.908183241060215 211.086489049951524 129.230715816128395 215.076074409977991 131.569449528596124"/>
    <polyline class="cls-1" points="209.710724920137181 134.733632389204104 209.710724920137181 134.596065305965567 205.721139560108895 132.257331593501476 211.086489049951524 129.230715816128395"/>
    <polyline class="cls-1" points="215.076074409977991 131.569449528596124 221.266826399240927 127.992565418272534 213.012521512705462 123.177530910102178"/>
    <line class="cls-1" x1="181.095652037579384" y1="151.242382108436686" x2="172.841300502322156" y2="146.427300951544566"/>
    <line class="cls-1" x1="193.339635581583025" y1="144.088567239075019" x2="209.710724920137181" y2="134.596065305965567"/>
    <polyline class="cls-1" points="146.014599701838051 142.850416841224614 146.014599701838051 149.866617978627801 181.095652037579384 170.089818891418872 181.095652037579384 151.242382108436686"/>
    <line class="cls-1" x1="158.533717412316946" y1="138.172949416287338" x2="149.729050895391083" y2="133.082780741641727"/>
    <line class="cls-1" x1="181.095652037579384" y1="170.089818891418872" x2="182.608936601901405" y2="169.264369743278621"/>
    <line class="cls-1" x1="221.266826399240927" y1="127.992565418272534" x2="221.266826399240927" y2="128.130132501511071"/>
    <line class="cls-1" x1="213.012521512705462" y1="123.177530910102178" x2="208.885322420716875" y2="125.653831705808443"/>
    <polyline class="cls-1" points="175.592735464500038 144.914016387217089 172.841300502322156 146.427300951544566 172.841300502322156 141.06199811042552 158.533717412316946 132.945213658405009 158.533717412316946 138.172949416287338"/>
    <line class="cls-1" x1="213.012521512705462" y1="123.177530910102178" x2="213.012521512705462" y2="121.113931364107884"/>
    <line class="cls-1" x1="172.841300502322156" y1="141.06199811042552" x2="172.841300502322156" y2="141.06199811042552"/>
    <line class="cls-1" x1="158.808851578792201" y1="132.807599926448347" x2="158.533717412316946" y2="132.945213658405009"/>
    <polyline class="cls-1" points="176.830885862348623 150.554500043534972 176.830885862348623 161.560333189690027 172.978867585558874 163.761453170199275 172.978867585558874 148.353333414303961 179.582367473251907 152.067784607858812"/>
    <line class="cls-1" x1="179.582367473251907" y1="167.475951012479527" x2="172.978867585558874" y2="163.761453170199275"/>
    <line class="cls-1" x1="179.582367473251907" y1="163.073617754012048" x2="176.830885862348623" y2="161.560333189690027"/>
    <line class="cls-1" x1="179.582367473251907" y1="152.067784607858812" x2="179.582367473251907" y2="167.475951012479527"/>
    <line class="cls-1" x1="164.724516050303464" y1="149.729050895389264" x2="165.137217300013617" y2="149.453916728917648"/>
    <polyline class="cls-1" points="164.999650216773261 144.363748054272037 165.549918549721951 143.951000155838301 166.100233531392405 143.675865989366685 166.650501864335638 143.538298906128148 167.338383929242809 143.675865989366685 168.026219345426398 143.813433072601583"/>
    <polyline class="cls-1" points="169.539550558472001 144.638882220745472 170.227385974659228 145.32671763693088 170.915268039562761 146.014599701834413 171.465536372509632 146.702481766741585"/>
    <polyline class="cls-1" points="171.465536372509632 155.369534551703509 170.777700956326044 155.369534551703509 170.089818891417053 155.369534551703509 169.401983475238922 155.094400385231893 168.576534327093214 154.68169913552174 167.751085178951143 153.993817070618206 167.063249762769374 153.305935005709216 166.375367697860383 152.480532506292548 165.68748563295685 151.655083358148659 165.274784383247606 150.692067126769871 164.724516050303464 149.729050895389264"/>
    <line class="cls-1" x1="165.549918549721951" y1="143.951000155838301" x2="164.999650216773261" y2="144.363748054272037"/>
    <polyline class="cls-1" points="155.919849533373963 136.934799018435115 156.74529868152149 137.760248166579004 157.570701180939977 138.723264397957792"/>
    <polyline class="cls-1" points="158.808851578792201 154.268951237089823 157.983449079368256 154.544085403566896 157.020432847994925 154.68169913552174 156.0574166166125 154.544085403566896 155.094400385235531 154.268951237089823 153.993817070616387 153.85624998737967 153.030800839239419 153.168367922474317 151.930217524620275 152.480532506292548 150.967247941966889 151.517516274911941 150.00423171058992 150.554500043534972 149.041215479207494 149.316349645682749 148.215766331063605 148.215766331067243 147.527930914881836 146.840048849976483 146.840048849978302 145.60189845212426 146.289733868307849 144.226134322311736 146.014599701838051 142.850416841224614"/>
    <line class="cls-1" x1="149.453916728921286" y1="133.220347824876626" x2="155.919849533373963" y2="136.934799018435115"/>
    <line class="cls-1" x1="146.014599701838051" y1="142.850416841224614" x2="150.279365877059718" y2="140.374116045518349"/>
    <polyline class="cls-1" points="164.999650216773261 144.363748054272037 164.724516050303464 142.987983924463151 164.311768151864271 141.612266443370572"/>
    <line class="cls-1" x1="158.396150329082047" y1="138.310516499524056" x2="157.570701180939977" y2="138.723264397957792"/>
    <polyline class="cls-1" points="157.570701180939977 138.723264397957792 157.570701180939977 137.760248166579004 171.465536372509632 145.73946553535734"/>
    <line class="cls-1" x1="158.808851578792201" y1="154.268951237089823" x2="162.660916504307352" y2="152.067784607858812"/>
    <polyline class="cls-1" points="159.771867810170988 155.231967468466792 159.221599477224117 154.819266218756638 158.808851578792201 154.268951237089823"/>
    <line class="cls-1" x1="159.771867810170988" y1="155.231967468466792" x2="163.623932735686139" y2="153.030800839239419"/>
    <polyline class="cls-1" points="163.623932735686139 153.030800839239419 163.073617754017505 152.618099589529265 162.660916504307352 152.067784607858812"/>
    <line class="cls-1" x1="169.264416391998566" y1="160.59731695830942" x2="159.771867810170988" y2="155.231967468466792"/>
    <line class="cls-1" x1="169.264416391998566" y1="160.59731695830942" x2="171.465536372509632" y2="159.359166560457197"/>
    <line class="cls-1" x1="171.465536372509632" y1="157.570701180938158" x2="163.623932735686139" y2="153.030800839239419"/>
    <polyline class="cls-1" points="171.465536372509632 159.359166560457197 171.465536372509632 159.909434893405887 171.327969289271095 160.322136143117859 171.052835122801298 160.59731695830942 170.640133873087507 160.872451124786494 170.227385974659228 160.872451124786494 169.677117641708719 160.872451124786494 169.264416391998566 160.59731695830942"/>
    <line class="cls-1" x1="171.465536372509632" y1="145.73946553535734" x2="171.465536372509632" y2="159.359166560457197"/>
    <polyline class="cls-1" points="162.660916504307352 152.067784607858812 163.348751920492759 151.655083358148659 163.899066902159575 151.104768376480024 164.449335235102808 150.416932960298254 164.724516050303464 149.729050895389264"/>
    <polyline class="cls-1" points="153.856249987381489 146.840048849976483 154.406564969051942 146.977615933213201 154.956833301998813 147.115183016451738 155.507148283667448 146.977615933213201 155.782282450139064 146.702481766741585 156.0574166166125 146.15216678507295 156.194983699847398 145.60189845212426 156.194983699847398 144.914016387217089 155.919849533373963 144.226134322311736 155.644715366902346 143.538298906128148 155.231967468472249 142.850416841224614 154.681699135525378 142.162581425044664 154.131384153856743 141.749833526610928 153.581115820906234 141.337132276897137 153.030800839239419 141.199565193662238 152.618099589529265 141.199565193662238 152.067831256584213 141.474699360132036 151.792650441385376 141.887400609842189 151.655083358152297 142.300148508275925 151.655083358152297 142.987983924463151 151.655083358152297 143.675865989366685 151.930217524620275 144.501315137510574 152.34296542305583 145.189150553695981 152.755666672764164 145.877032618595877 153.30598165443098 146.427300951544566 153.856249987381489 146.840048849976483"/>
    <polyline class="cls-1" points="156.0574166166125 139.135965647671583 156.607684949557552 138.998398564431227 157.020432847994925 138.998398564431227 157.570701180939977 139.273532730906481 158.121016162608612 139.548666897378098 158.671284495553664 140.098981879044914 159.084032393985581 140.649250211989965 159.496733643695734 141.337132276897137 159.771867810170988 142.024967693080725 159.909434893411344 142.712849757987897 160.047001976644424 143.400731822893249 159.909434893411344 143.951000155838301 159.63430072693609 144.363748054272037 159.359166560460835 144.776449303980371"/>
    <line class="cls-1" x1="159.359166560460835" y1="144.776449303980371" x2="155.507148283667448" y2="146.977615933213201"/>
    <line class="cls-1" x1="156.0574166166125" y1="139.135965647671583" x2="152.34296542305583" y2="141.337132276897137"/>
    <polyline class="cls-1" points="150.692067126769871 133.908183241060215 150.416932960300073 134.458498222728849 150.141798793826638 135.146333638914257"/>
    <polyline class="cls-1" points="150.141798793826638 140.098981879044914 150.554500043534972 141.474699360132036 151.104815025201788 142.850416841224614 151.655083358152297 144.226134322311736 152.480532506290729 145.60189845212426 153.30598165443098 146.840048849976483 154.268951237091642 148.078199247830526 155.231967468472249 149.041215479207494 156.332550783085935 150.004185061864519 157.433134097701441 150.829634210006589 158.533717412316946 151.379949191675223 159.496733643695734 151.792650441383557 160.597316958313058 152.067784607858812 161.560333189690027 152.067784607858812 162.523349421070634 151.930217524623913 163.348751920492759 151.517516274911941 164.036633985396293 150.967201293243306"/>
    <polyline class="cls-1" points="164.999650216773261 149.591483812156184 165.274784383247606 148.628467580777397 165.549918549721951 147.665451349400428 165.549918549721951 146.564868034781284 165.549918549721951 145.32671763693088 165.274784383247606 144.088567239075019"/>
    <line class="cls-1" x1="150.141798793826638" y1="135.146333638914257" x2="150.141798793826638" y2="140.098981879044914"/>
    <line class="cls-1" x1="163.761499818921038" y1="151.242382108436686" x2="163.211184837252404" y2="151.517516274911941"/>
    <polyline class="cls-1" points="166.100233531392405 143.675865989366685 165.549918549721951 144.088567239075019 165.137217300013617 144.638882220745472 164.862083133540182 145.32671763693088 164.724516050303464 146.28973386830603 164.724516050303464 147.252750099686637 164.862083133540182 148.215766331067243 165.137217300013617 149.316349645682749 165.549918549721951 150.416932960298254 166.100233531392405 151.379949191675223 166.788068947572356 152.342918774332247 167.475951012478617 153.168367922474317 168.301400160619778 153.85624998737967 169.126802660040084 154.544085403566896 169.952251808182154 154.956833301996994 170.777700956326044 155.094400385231893 171.465536372509632 155.094400385231893"/>
    <line class="cls-1" x1="166.100233531392405" y1="143.675865989366685" x2="165.962666448156597" y2="143.675865989366685"/>
  </g>
</svg>