<?xml version="1.0" encoding="UTF-8"?>
<svg id="Layer_1" data-name="Layer 1" xmlns="http://www.w3.org/2000/svg" viewBox="0 0 842.753623188406891 321.014492753623927">
  <defs>
    <style>
      .cls-1 {
        stroke-miterlimit: 10;
      }

      .cls-1, .cls-2, .cls-3 {
        stroke-width: .75px;
      }

      .cls-1, .cls-2, .cls-3, .cls-4 {
        fill: none;
      }

      .cls-1, .cls-3 {
        stroke: #1d1e1c;
      }

      .cls-2, .cls-3, .cls-4 {
        stroke-linecap: round;
        stroke-linejoin: round;
      }

      .cls-2, .cls-4 {
        stroke: #000;
      }

      .cls-4 {
        stroke-width: .25px;
      }

      .cls-5 {
        fill: #1d1e1c;
      }
    </style>
  </defs>
  <g>
    <polyline class="cls-4" points="255.527974028639619 198.32135976200334 255.418642150727464 198.649355395737075 255.199978394910431 199.032035505528256 254.817298285116522 199.30538373741183"/>
    <polyline class="cls-4" points="174.400430282603338 205.482875821739071 174.291089136140727 204.881531956129038 174.017750172813066 204.280188090511729 173.635070063019157 203.733491626742762 173.143058075316731 203.350848591173417"/>
    <polyline class="cls-4" points="219.829669996534903 204.826884554284334 219.501665094251621 205.154880188012612 219.337658008834296 205.537560297803793 219.501665094251621 205.92024040760225 219.829669996534903 206.24823604132871"/>
    <line class="cls-4" x1="242.462295579347483" y1="205.428228419896186" x2="235.574099945833041" y2="201.437448042199321"/>
    <line class="cls-4" x1="254.817298285116522" y1="199.30538373741183" x2="244.211679774341974" y2="205.428228419896186"/>
    <polyline class="cls-4" points="225.241820398385244 204.826884554284334 225.241820398385244 204.553536322397122 225.351152276297398 204.170856212605941 225.515159361714723 203.733491626742762 225.733832386094946 203.296164115103238 225.952505410468802 202.913484005312057 226.28051958130709 202.585488371585598 226.553858544635659 202.312140139700205 226.772531569005878 202.093476383877714"/>
    <path class="cls-4" d="M242.503206982289157,205.416105149612122c.532738019539465.307641886363854,1.189137103428038.307716034805708,1.721949271409358.000185371101907"/>
    <polyline class="cls-4" points="241.751601298711648 193.455887286812867 241.970274323091871 193.401239884966344 242.024949530595222 193.346555408903441"/>
    <line class="cls-4" x1="241.751601298711648" y1="193.455887286812867" x2="226.772531569005878" y2="202.093476383877714"/>
    <line class="cls-4" x1="225.241820398385244" y1="204.826884554284334" x2="225.241820398385244" y2="209.36432432152651"/>
    <line class="cls-4" x1="255.527974028639619" y1="198.32135976200334" x2="255.527974028639619" y2="194.767943970169654"/>
    <polyline class="cls-4" points="219.829669996534903 204.826884554284334 263.509534784027892 179.624830080825632 263.509534784027892 190.175819726864574"/>
    <polyline class="cls-4" points="238.471515201651528 197.993364128275061 237.870162067482852 197.829347774299094 237.432825287291962 197.884032250365635 237.104811116450037 198.266675285940437 236.99547923854152 198.868056225774126 237.104811116450037 199.578731969297223 237.432825287291962 200.289407712820321 237.870162067482852 200.945436054495076 238.471515201651528 201.382763566136418 239.018193128311395 201.601464396177107 239.45553917705638 201.492095444045844 239.783553347900124 201.109452408472862 239.89288522581046 200.562755944703895 239.783553347900124 199.852080201178978 239.45553917705638 199.086719981591159 239.018193128311395 198.485376115981126 238.471515201651528 197.993364128275061"/>
    <polyline class="cls-4" points="146.082319968894808 187.333042604330331 146.191656481079917 187.715722714123331 146.574331956599053 188.043755422069808"/>
    <polyline class="cls-4" points="146.574331956599053 185.911691117282317 146.191656481079917 185.583695483554038 146.082319968894808 185.201015373759219 146.191656481079917 184.818335263966219 146.574331956599053 184.490302556016104"/>
    <polyline class="cls-4" points="208.076020424938179 149.010680816843887 208.622698351595318 148.792017061025035 209.278717424721435 148.737332584960313 209.934736497841186 148.792017061025035 210.481414424499235 149.010680816843887"/>
    <line class="cls-4" x1="146.082319968894808" y1="185.201015373759219" x2="146.082319968894808" y2="187.333042604330331"/>
    <line class="cls-4" x1="146.574331956599053" y1="188.043755422069808" x2="173.143058075316731" y2="203.350848591173417"/>
    <polyline class="cls-4" points="152.861169821668227 185.419679129578071 153.57185946802565 185.091646421627956 154.391880992289771 184.927667141872007 155.211902516560258 184.927667141872007 156.086594614054775 185.091646421627956 156.742613687175435 185.419679129578071"/>
    <polyline class="cls-4" points="205.834624242238533 154.805492791378128 206.49064331536465 154.532144559496373 207.31066020534945 154.368165279740424 208.185352302845786 154.368165279740424 209.005378461393775 154.532144559496373 209.716063473471877 154.805492791378128"/>
    <polyline class="cls-4" points="242.352954432883962 175.907397935012341 243.008973506005532 175.579402301284063 243.883665603505506 175.415385947309915 244.703691762047129 175.415385947309915 245.523717920589661 175.579402301284063 246.234393664112758 175.907397935012341"/>
    <polyline class="cls-4" points="189.379509280870479 206.466899797142105 190.090194292944034 206.193588639484005 190.910211182930652 206.029572285509857 191.784903280430626 206.029572285509857 192.604929438973159 206.193588639484005 193.260948512099276 206.466899797142105"/>
    <polyline class="cls-4" points="174.400430282603338 205.482875821739071 174.400430282603338 212.535097077785395 175.603127282387504 213.19108834524377"/>
    <polyline class="cls-4" points="198.399750682065132 226.366117209556251 206.763982278692311 231.231589684746723 206.763982278692311 236.151746636003736"/>
    <line class="cls-4" x1="255.527974028639619" y1="194.767943970169654" x2="263.509534784027892" y2="190.175819726864574"/>
    <polyline class="cls-4" points="198.399750682065132 226.366117209556251 198.399750682065132 222.484705783992467 175.603127282387504 209.36432432152651 175.603127282387504 213.19108834524377 178.937888586959161 211.277724870496968"/>
    <polyline class="cls-4" points="146.574331956599053 185.911691117282317 211.957459656166066 223.63270903915145 211.957459656166066 239.10381856222557 206.763982278692311 236.151746636003736"/>
    <line class="cls-4" x1="210.481414424499235" y1="149.010680816843887" x2="263.509534784027892" y2="179.624830080825632"/>
    <line class="cls-4" x1="230.981975702523414" y1="228.115501404550741" x2="211.957459656166066" y2="239.10381856222557"/>
    <line class="cls-4" x1="230.981975702523414" y1="212.699076357541344" x2="211.957459656166066" y2="223.63270903915145"/>
    <line class="cls-4" x1="146.574331956599053" y1="184.490302556016104" x2="208.076020424938179" y2="149.010680816843887"/>
    <polyline class="cls-4" points="230.981975702523414 228.115501404550741 230.981975702523414 212.699076357541344 219.829669996534903 206.24823604132871"/>
    <polyline class="cls-4" points="219.77500405758019 225.108745002262367 219.665672179673493 225.764773343944398 219.337658008834296 226.366117209556251 218.900311960084764 226.912813673325218 218.408299972380519 227.186161905206973 217.916287984676273 227.186161905206973 217.642949021347704 226.912813673325218 217.533607874879635 226.420801685619153 217.642949021347704 225.764773343944398 217.916287984676273 225.163429478328908 218.408299972380519 224.616733014559941 218.900311960084764 224.343421856896384 219.337658008834296 224.343421856896384 219.665672179673493 224.616733014559941 219.77500405758019 225.108745002262367"/>
    <polyline class="cls-4" points="224.640467264221115 222.320689430014681 224.53113538631078 222.922033295628353 224.203121215467036 223.578061637308565 223.765784435272508 224.07007362501281 223.273763179019625 224.343421856896384 222.836417130267364 224.39806925873927 222.508412227984991 224.124721026855696 222.399080350072836 223.578061637308565 222.508412227984991 222.976717771694894 222.836417130267364 222.320689430014681 223.273763179019625 221.828677442314074 223.765784435272508 221.555329210426862 224.203121215467036 221.555329210426862 224.53113538631078 221.828677442314074 224.640467264221115 222.320689430014681"/>
    <polyline class="cls-4" points="156.687943113945948 183.232930348725858 157.23462567487968 183.670294934581761 157.453298699254447 184.216991398354367 157.398628126019503 184.763650787901497 157.015952650504005 185.201015373759219 156.359933577384254 185.583695483554038 155.48524611416542 185.802359239374709 154.555883443433231 185.857006641217595 153.68119598020985 185.747674763309988 152.91584039490499 185.419679129578071 152.369157833963982 184.98231454371853 152.150484809589216 184.490302556016104 152.205155382825069 183.943643166467155 152.642501431570963 183.451631178764728 153.298515870418669 183.068951068973547 154.118542028960292 182.850287313154695 155.047900065410431 182.795602837086335 155.922587528632903 182.959619191060483 156.687943113945948 183.232930348725858"/>
    <polyline class="cls-4" points="209.661397534512616 152.673428486590637 210.208075461170665 153.110793072448359 210.426748485546341 153.602805060150786 210.317407339079182 154.149501523921572 209.934736497841186 154.641513511627636 209.278717424721435 155.024156547196981 208.458691266178903 155.242857377237669 207.529333229725125 155.297504779082374 206.654641132224242 155.133525499326424 205.889290181191427 154.860177267444669 205.342612254537926 154.422812681585128 205.123939230157703 153.876153292037998 205.178605169117873 153.384141304335571 205.561285278909054 152.892129316629507 206.217295083478348 152.509449206836507 207.091987180974684 152.290748376795818 208.02134521743028 152.236100974952933 208.896037314924797 152.34543285286054 209.661397534512616 152.673428486590637"/>
    <polyline class="cls-4" points="193.206273304585011 204.334872566578269 193.752960499804431 204.772200078215974 193.971633524174649 205.31889654198676 193.916958316664022 205.810908529689186 193.534287475423298 206.302920517393432 192.878268402303547 206.68560062719007 192.003576304806302 206.904264383007103 191.074218268352524 206.958911784853626 190.199526170857098 206.849579906940562 189.434175219823373 206.521584273212284 188.887488024609411 206.08425676157276 188.668815000234645 205.537560297803793 188.778156146698166 205.045548310099548 189.160836256493894 204.553536322397122 189.816846061065007 204.170856212605941 190.636872219602083 203.95219245678345 191.566230256057679 203.897507980720547 192.440922353557653 204.006839858628155 193.206273304585011 204.334872566578269"/>
    <polyline class="cls-4" points="246.179727725159864 173.775370704444867 246.726405651817913 174.212698216082572 246.945087944742227 174.704710203788636 246.890422005789333 175.251406667557603 246.453075957043438 175.743418655256392 245.797047615363226 176.126098765054849 244.977021456820694 176.344762520871882 244.047663420366007 176.399409922714767 243.172971322869671 176.235430642964275 242.407620371836856 175.962082411080701 241.860942445178807 175.524717825219341 241.642269420804041 174.97805843567221 241.696935359757845 174.431361971901424 242.079615469549935 173.939349984200817 242.735625274120139 173.61135435047072 243.610317371621022 173.338006118585326 244.539675408070252 173.338006118585326 245.414367505570226 173.447337996496572 246.179727725159864 173.775370704444867"/>
    <line class="cls-4" x1="234.754083055840965" y1="197.55599954241552" x2="234.754083055840965" y2="199.961412079090223"/>
    <path class="cls-4" d="M234.754073787290508,199.934088378166052c0,.615209624294948.328181004832004,1.183668655827205.860928292925564,1.491310542191059"/>
  </g>
  <g>
    <polyline class="cls-4" points="494.556529570259045 212.459717404948606 494.168612797177957 212.1272334201185 494.05778480223762 211.739316647037413"/>
    <polyline class="cls-4" points="524.53674239367956 195.114440937586551 524.14882562060393 194.837352159453076 524.037960044109241 194.449435386371988"/>
    <polyline class="cls-4" points="517.498845271583377 189.628248489345424 516.889272508610702 189.849904479235192 516.224285748180591 189.905299685931823 515.559298987739567 189.849904479235192 515.005121431472617 189.628248489345424"/>
    <polyline class="cls-4" points="527.86169498664367 183.199961711759897 527.750866991703333 183.587878484837347 527.362950218616788 183.920362469672909"/>
    <polyline class="cls-4" points="487.46325603223795 206.973524956711117 486.909097266740901 207.195180946597247 486.244091715529976 207.25061373484823 485.579104955092589 207.195180946597247 485.024927398822001 206.973524956711117"/>
    <polyline class="cls-4" points="497.881500953996692 200.545238179127409 497.715258961577092 200.933154952204859 497.38275618597163 201.265638937036783"/>
    <line class="cls-4" x1="504.808532499603643" y1="197.0540248029738" x2="494.944446343336494" y2="202.761873241101057"/>
    <path class="cls-4" d="M506.540252804451484,197.06620122561435c-.54006568373552-.31181413158447-1.205447050460862-.31181413158447-1.745512734196382,0"/>
    <line class="cls-4" x1="494.05778480223762" y1="204.258107545165331" x2="494.05778480223762" y2="211.739316647037413"/>
    <path class="cls-4" d="M494.930635123210777,202.774087245292321c-.540065683733701.311776550030118-.872793948647086.887976895393876-.872850320973157,1.511605158566454"/>
    <line class="cls-4" x1="534.788726532248802" y1="179.708710754057392" x2="524.924621585206296" y2="185.416596773735364"/>
    <path class="cls-4" d="M536.520409255547747,179.720887176697943c-.540084474512696-.31181413158447-1.205428259685505-.31181413158447-1.745512734192744,0"/>
    <line class="cls-4" x1="524.037960044109241" y1="186.96826386605062" x2="524.037960044109241" y2="194.449435386371988"/>
    <path class="cls-4" d="M524.910829155857755,185.428773196374095c-.540084474507239.311776550035574-.872793948648905.887976895397514-.8728315301978,1.511605158571911"/>
    <line class="cls-4" x1="527.86169498664367" y1="175.718752609887815" x2="527.86169498664367" y2="183.199961711759897"/>
    <path class="cls-4" d="M527.86169498664367,175.746675702544962c.000037581550714-.62366584472511-.3326343110366-1.200016516293545-.872718785549296-1.511868229430547"/>
    <line class="cls-4" x1="497.881500953996692" y1="193.064029077251689" x2="497.881500953996692" y2="200.545238179127409"/>
    <path class="cls-4" d="M497.881500953996692,193.036519381659673c.000075163101428-.62366584472511-.332615520261243-1.200016516293545-.872699994777577-1.511868229426909"/>
    <line class="cls-4" x1="502.75813943004232" y1="209.744337574951714" x2="502.75813943004232" y2="206.862696961767142"/>
    <polyline class="cls-4" points="542.657852407201972 183.864929681423746 543.378253165109527 183.920362469672909 544.098653923022539 184.142018459557221 544.652831479285851 184.419107237692515 544.985315464117775 184.862419217466595 545.096143459063569 185.305768778791389"/>
    <line class="cls-4" x1="519.549257131912782" y1="170.509611358233087" x2="519.549257131912782" y2="169.900038595267688"/>
    <polyline class="cls-4" points="479.649562945530306 193.507378638576483 478.929143396843756 193.618206633522277 478.208742638936201 193.784467416709958 477.654583873446427 194.116951401541883 477.322081097839146 194.504868174615694 477.211253102893352 194.948180154393413"/>
    <polyline class="cls-4" points="467.845892923877727 211.018915889129858 468.344637691897333 211.185139090772282 468.732554464978421 211.12974388407747 469.009643243110077 210.797222317694832 469.065057240583883 210.298477549673407"/>
    <polyline class="cls-4" points="538.944945459618793 193.839862623408408 539.38829502093995 193.064029077251689 539.887039788955917 192.28819553109679 540.44117976367761 191.67862276813139 541.050752526644828 191.179878000108147"/>
    <polyline class="cls-4" points="538.944945459618793 203.094394807481876 539.499123015880286 202.872701236045032 540.164090985542316 202.817306029344763 540.829096536758698 202.872701236045032 541.383274093025648 203.094394807481876"/>
    <line class="cls-4" x1="513.5088871274138" y1="201.099378153841826" x2="506.526441584327586" y2="197.0540248029738"/>
    <line class="cls-4" x1="544.375742701152376" y1="184.252846454499377" x2="536.506616826197387" y2="179.708710754057392"/>
    <line class="cls-4" x1="526.975033445541158" y1="174.222518305823542" x2="519.549257131912782" y2="169.900038595267688"/>
    <line class="cls-4" x1="496.994839412901456" y1="191.567794773185597" x2="490.40031064289451" y2="187.744097412207338"/>
    <path class="cls-4" d="M508.784698214428317,176.118845805605815c-.540065683730063.311776550033755-.872793948652543.887976895392057-.872850320978614,1.511605158568273"/>
    <polyline class="cls-4" points="507.911847893449703 188.298237386921755 507.911847893449703 188.519893376807886 507.856433895975897 188.57532616505523"/>
    <path class="cls-4" d="M490.414272189224903,187.756348997947498c-.540084474512696-.311889294691355-1.205522213565928-.311926876242069-1.745663060402876-.00011274465578"/>
    <line class="cls-4" x1="488.682401558165111" y1="187.744097412207338" x2="477.931653860806364" y2="193.950690618352382"/>
    <path class="cls-4" d="M514.395548668507217,202.568102762317721c.000075163099609-.623665844723291-.332615520263062-1.200016516288088-.872699994773939-1.511868229428728"/>
    <polyline class="cls-4" points="514.450962665975567 213.568034935931792 514.395548668507217 213.457206940989636 514.395548668507217 213.290983739354488"/>
    <line class="cls-4" x1="514.395548668507217" y1="202.595650039460452" x2="514.395548668507217" y2="213.290983739354488"/>
    <line class="cls-4" x1="507.911847893449703" y1="188.298237386921755" x2="507.911847893449703" y2="177.658336475276883"/>
    <line class="cls-4" x1="519.549257131912782" y1="169.900038595267688" x2="508.798509434548578" y2="176.106669382963446"/>
    <polyline class="cls-4" points="497.826086956522886 211.406832662210945 497.271928191031293 210.963483100886151 496.773183423004411 210.298477549673407 496.440680647398949 209.578076791762214 496.329852652458612 208.85767603385284 496.440680647398949 208.24810327088926 496.773183423004411 207.91558170450844 497.271928191031293 207.804753709562647 497.826086956522886 207.971014492753966 498.380245722018117 208.46975926077539 498.878990490039541 209.07933202374079 499.156079268171197 209.855165569895689 499.266907263115172 210.575566327805063 499.156079268171197 211.12974388407747 498.878990490039541 211.517660657153101 498.380245722018117 211.628488652097076 497.826086956522886 211.406832662210945"/>
    <polyline class="cls-4" points="481.755370012559979 202.152300478135658 481.201211247068386 201.708988498359759 480.702466479046961 201.043982947147015 480.425396491687025 200.323582189235822 480.259135708495705 199.603143849779372 480.425396491687025 198.993571086813972 480.702466479046961 198.605654313736522 481.201211247068386 198.550259107039892 481.755370012559979 198.716482308678678 482.309547568836024 199.159831870005291 482.808292336851991 199.824837421214397 483.140776321682097 200.600633385822221 483.251623107403248 201.321071725284128 483.140776321682097 201.875211700002183 482.808292336851991 202.263128473081451 482.309547568836024 202.318561261325158 481.755370012559979 202.152300478135658"/>
    <line class="cls-4" x1="494.556529570259045" y1="212.459717404948606" x2="498.158589732128348" y2="214.510129265281648"/>
    <polyline class="cls-4" points="535.121210517078907 166.519653214056234 535.121210517078907 170.398783363287293 554.849420411154824 181.814555402643236"/>
    <polyline class="cls-4" points="493.448212039272221 217.280941883524065 493.448212039272221 221.160072032753305 470.339635554763845 207.804753709562647 470.339635554763845 203.925623560333406"/>
    <polyline class="cls-4" points="478.430398628827788 199.215227076703741 478.430398628827788 203.149790014176688 485.024927398822001 206.973524956711117"/>
    <line class="cls-4" x1="470.339635554763845" y1="207.804753709562647" x2="478.430398628827788" y2="203.149790014176688"/>
    <line class="cls-4" x1="527.584606208506557" y1="174.776658280539777" x2="535.121210517078907" y2="170.398783363287293"/>
    <line class="cls-4" x1="501.538975113336164" y1="212.570545399894399" x2="502.75813943004232" y2="213.290983739354488"/>
    <line class="cls-4" x1="533.902064991148109" y1="165.79925245614686" x2="535.121210517078907" y2="166.519653214056234"/>
    <line class="cls-4" x1="558.229805792364459" y1="179.819538749001367" x2="562.386024719728994" y2="182.257867382415498"/>
    <line class="cls-4" x1="494.667357565204838" y1="217.945947434736809" x2="493.448212039272221" y2="217.280941883524065"/>
    <line class="cls-4" x1="470.339635554763845" y1="203.925623560333406" x2="469.065057240583883" y2="203.205222802422213"/>
    <line class="cls-4" x1="477.211253102893352" y1="198.494826318790729" x2="478.430398628827788" y2="199.215227076703741"/>
    <line class="cls-4" x1="545.096143459063569" y1="187.411575845822881" x2="558.229805792364459" y2="179.819538749001367"/>
    <line class="cls-4" x1="541.050752526644828" y1="191.179878000108147" x2="545.096143459063569" y2="188.852414943190524"/>
    <line class="cls-4" x1="502.75813943004232" y1="213.290983739354488" x2="494.667357565204838" y2="217.945947434736809"/>
    <line class="cls-4" x1="523.15133608456108" y1="172.005845662297361" x2="533.902064991148109" y2="165.79925245614686"/>
    <line class="cls-4" x1="493.448212039272221" y1="217.280941883524065" x2="501.538975113336164" y2="212.570545399894399"/>
    <line class="cls-4" x1="478.430398628827788" y1="199.215227076703741" x2="470.339635554763845" y2="203.925623560333406"/>
    <line class="cls-4" x1="469.065057240583883" y1="203.205222802422213" x2="477.211253102893352" y2="198.494826318790729"/>
    <polyline class="cls-4" points="566.708504430284847 179.764143542306556 547.423644097528268 190.902789221974672 547.423644097528268 197.331075999558379"/>
    <line class="cls-4" x1="535.121210517078907" y1="166.519653214056234" x2="524.370481610488241" y2="172.726284001759268"/>
    <line class="cls-4" x1="502.75813943004232" y1="209.744337574951714" x2="502.75813943004232" y2="213.290983739354488"/>
    <line class="cls-4" x1="494.667357565204838" y1="228.641281134627206" x2="494.667357565204838" y2="217.945947434736809"/>
    <line class="cls-4" x1="545.096143459063569" y1="185.305768778791389" x2="545.096143459063569" y2="188.852414943190524"/>
    <line class="cls-4" x1="538.944945459618793" y1="203.094394807481876" x2="494.667357565204838" y2="228.641281134627206"/>
    <polyline class="cls-4" points="527.806299779947039 194.116951401541883 528.360439754663275 194.283212184731383 528.859184522686519 194.227779396485857 529.191706089065519 193.839862623408408 529.302534084011313 193.230289860444827 529.191706089065519 192.509889102531815 528.859184522686519 191.789450763075365 528.360439754663275 191.124482793409697 527.806299779947039 190.681133232088541 527.252122223681909 190.459477242196954 526.753377455655027 190.570305237142748 526.420893470824922 190.958222010223835 526.310027894328414 191.512399566490785 526.420893470824922 192.232800324401978 526.753377455655027 193.008633870556878 527.252122223681909 193.618206633522277 527.806299779947039 194.116951401541883"/>
    <polyline class="cls-4" points="511.735564045205138 184.807024010768146 512.345155598945894 185.028680000659733 512.78848636949715 184.91785200571212 513.120970354327255 184.585368020883834 513.231817140048406 183.975757676367721 513.120970354327255 183.255356918458347 512.78848636949715 182.534956160547154 512.345155598945894 181.869950609338048 511.735564045205138 181.426638629563968 511.181405279713545 181.204945058127123 510.738074509162288 181.315810634619993 510.405571733562283 181.703689826146729 510.294743738616489 182.257867382415498 510.405571733562283 182.978268140324872 510.738074509162288 183.754101686479771 511.181405279713545 184.36367444944517 511.735564045205138 184.807024010768146"/>
    <line class="cls-4" x1="524.53674239367956" y1="195.114440937586551" x2="515.005121431472617" y2="189.628248489345424"/>
    <line class="cls-4" x1="497.881500953996692" y1="200.101888617797158" x2="498.657334500149773" y2="200.600633385822221"/>
    <polyline class="cls-4" points="503.256884198065563 158.096387364388647 503.811042963557156 157.874731374502517 504.476048514768081 157.763903379556723 505.141035275209106 157.874731374502517 505.695194040700699 158.096387364388647"/>
    <polyline class="cls-4" points="440.91360028760846 195.502357710665819 440.525683514527373 195.169873725833895 440.414855519588855 194.781956952752807 440.525683514527373 194.394040179677177 440.91360028760846 194.061518613296357"/>
    <polyline class="cls-4" points="440.414855519588855 196.887764019787937 440.525683514527373 197.275680792863568 440.91360028760846 197.608164777693673"/>
    <line class="cls-4" x1="440.414855519588855" y1="196.887764019787937" x2="440.414855519588855" y2="194.781956952752807"/>
    <line class="cls-4" x1="505.695194040700699" y1="158.096387364388647" x2="526.476288677519733" y2="170.066299378457188"/>
    <line class="cls-4" x1="440.91360028760846" y1="194.061518613296357" x2="503.256884198065563" y2="158.096387364388647"/>
    <line class="cls-4" x1="467.845892923877727" y1="211.018915889129858" x2="440.91360028760846" y2="195.502357710665819"/>
    <polyline class="cls-4" points="501.040230345316559 163.970496585703586 501.816063891471458 164.303018152086224 502.70272543257397 164.46924135372501 503.644800971141194 164.413846147030199 504.476048514768081 164.19219015714225 505.141035275209106 163.8042733840648 505.528952048284737 163.305528616043375 505.63978004323053 162.751351059772787 505.362710055870593 162.252606291751363 504.863946497073812 161.809256730426569 504.088131741690631 161.476772745596463 503.14605620311977 161.310511962406963 502.259394662022714 161.365944750652488 501.372733120920202 161.587600740538619 500.707727569709277 161.975517513617888 500.319829587403547 162.474262281639312 500.264396799156202 163.0284398379099 500.486071579823147 163.527184605931325 501.040230345316559 163.970496585703586"/>
    <polyline class="cls-4" points="447.341887065193987 195.003612942640757 448.117720611350705 195.280701720772413 449.004363361672404 195.446924922416656 449.946457691020441 195.391529715718207 450.777686443871971 195.169873725833895 451.442691995084715 194.781956952752807 451.886022765634152 194.283212184731383 451.941436763109778 193.729034628464433 451.719761982444652 193.230289860444827 451.165603216947602 192.786940299116395 450.389769670796341 192.454456314288109 449.503126920469185 192.343628319342315 448.561051381896505 192.39906110758966 447.674389840799449 192.620717097477609 447.009384289588525 193.008633870556878 446.621467516512894 193.451945850329139 446.566053519035449 194.006123406597908 446.787728299698756 194.560263381317782 447.341887065193987 195.003612942640757"/>
    <polyline class="cls-4" points="483.639521089703521 212.95846217297003 484.637029416521727 212.681410976390907 485.689932950038383 212.515150193197769 486.853664478497194 212.515150193197769 487.906586802785569 212.681410976390907 488.904076338837513 212.95846217297003"/>
    <polyline class="cls-4" points="489.679909884983317 208.69141525066334 488.682401558165111 208.24810327088926 487.518670029708119 207.971014492753966 486.299505713000144 207.86018649781181 485.024927398822001 207.971014492753966 483.861195870365009 208.24810327088926 482.863706334327617 208.69141525066334 482.087872788165441 209.245592806932109 481.644542017619642 209.910598358144853 481.478300025198223 210.630999116054227 481.644542017619642 211.351399873961782 482.087872788165441 212.016405425174526 482.863706334327617 212.570545399894399 483.861195870365009 213.013894961217375 485.024927398822001 213.290983739354488 486.299505713000144 213.401811734294824 487.518670029708119 213.290983739354488 488.682401558165111 213.013894961217375 489.679909884983317 212.570545399894399 490.455724640370136 212.016405425174526 490.899055410915935 211.351399873961782 491.065316194107254 210.630999116054227 490.899055410915935 209.910598358144853 490.455724640370136 209.245592806932109 489.679909884983317 208.69141525066334"/>
    <polyline class="cls-4" points="541.050752526644828 182.313300170662842 542.214502845877178 182.091606599224178 543.211992381918208 181.648294619451917 544.043258716320452 181.094117063181329 544.542003484341876 180.4291490935193 544.763659474237102 179.708710754057392 544.652831479285851 178.988309996149837 544.209481917961057 178.323304444938913 543.433648371809795 177.713731681971694 542.491591624010653 177.270419702201252 541.327841304774665 176.993330924065958 540.108695778847505 176.882502929120164 538.834117464667543 176.937898135814976 537.670367145435193 177.214986913952089 536.672877609392344 177.602903687033177 535.841648856537176 178.212476449993119 535.342904088515752 178.877482001204044 535.176643305324433 179.597882759117056"/>
    <polyline class="cls-4" points="539.609951010824261 181.482033836260598 540.662835753563741 181.537466624506123 541.660362871160942 181.648294619451917 542.602419618952808 181.925383397583573"/>
    <polyline class="cls-4" points="571.973040888636206 198.494826318790729 571.973040888636206 182.812044938684267 566.708504430284847 179.764143542306556"/>
    <line class="cls-4" x1="440.91360028760846" y1="197.608164777693673" x2="494.667357565204838" y2="228.641281134627206"/>
    <line class="cls-4" x1="552.688180555885083" y1="193.950690618352382" x2="571.973040888636206" y2="182.812044938684267"/>
    <line class="cls-4" x1="552.688180555885083" y1="209.578076791762214" x2="571.973040888636206" y2="198.494826318790729"/>
    <line class="cls-4" x1="469.065057240583883" y1="203.205222802422213" x2="469.065057240583883" y2="210.298477549673407"/>
    <line class="cls-4" x1="477.211253102893352" y1="198.494826318790729" x2="477.211253102893352" y2="194.948180154393413"/>
    <line class="cls-4" x1="527.362950218616788" y1="183.920362469672909" x2="517.498845271583377" y2="189.628248489345424"/>
    <line class="cls-4" x1="497.38275618597163" y1="201.265638937036783" x2="487.46325603223795" y2="206.973524956711117"/>
    <line class="cls-4" x1="547.423644097528268" y1="190.902789221974672" x2="552.688180555885083" y2="193.950690618352382"/>
    <polyline class="cls-4" points="552.688180555885083 193.950690618352382 552.688180555885083 209.578076791762214 541.383274093025648 203.094394807481876"/>
    <polyline class="cls-4" points="564.048519806982767 196.998592014726455 564.159347801926742 196.33358646351553 564.491831786758667 195.724013700550131 564.93518134808528 195.169873725833895 565.433926116106704 194.892784947696782 565.877238095880784 194.892784947696782 566.209759662263423 195.169873725833895 566.32058765720376 195.66861849385532 566.209759662263423 196.33358646351553 565.877238095880784 196.943159226482749 565.433926116106704 197.441941576054887 564.93518134808528 197.774425560883174 564.491831786758667 197.774425560883174 564.159347801926742 197.497336782749699 564.048519806982767 196.998592014726455"/>
    <polyline class="cls-4" points="559.116467333465152 199.824837421214397 559.227295328407308 199.215227076703741 559.504384106540783 198.550259107039892 560.003128874567665 198.051514339020287 560.501873642583632 197.774425560883174 560.94518562236135 197.718992772637648 561.277707188747627 197.996081550769304 561.388535183686145 198.494826318790729 561.277707188747627 199.159831870005291 560.94518562236135 199.824837421214397 560.501873642583632 200.323582189235822 560.003128874567665 200.600633385822221 559.504384106540783 200.600633385822221 559.227295328407308 200.323582189235822 559.116467333465152 199.824837421214397"/>
    <polyline class="cls-4" points="504.919379285319337 163.970496585703586 504.198959736636425 163.638012600871662 503.367712193011357 163.471751817682161 502.481050651912483 163.471751817682161 501.649803108281958 163.638012600871662 500.984816347839114 163.970496585703586"/>
    <polyline class="cls-4" points="451.221017214423227 194.948180154393413 450.500616456512034 194.615696169565126 449.669368912883328 194.504868174615694 448.782707371786273 194.504868174615694 447.951459828155748 194.615696169565126 447.286473067718362 194.948180154393413"/>
  </g>
  <g>
    <path class="cls-1" d="M364.533279197802585,174.753578075464247c-1.941192626953125-7.49053955078125-8.66815185546875-13.015625-16.668426513671875-13.015625-9.517242431640625,0-17.232513427734375,7.819061279296875-17.232513427734375,17.464385986328125"/>
    <polygon class="cls-5" points="366.884719627490085 172.283882030542372 364.30918862163071 173.856300243432997 361.389419334521335 173.094123729761122 365.09739662944321 179.202339061792372 366.884719627490085 172.283882030542372"/>
  </g>
  <g>
    <line class="cls-3" x1="606.846450584521335" y1="247.150977977807997" x2="571.070205467333835" y2="221.662544139917372"/>
    <polygon class="cls-5" points="574.397292869677585 220.622810253198622 571.824783104052585 222.200141796167372 571.174270408740085 225.146797069604872 567.423660057177585 219.064643749292372 574.397292869677585 220.622810253198622"/>
  </g>
  <g>
    <path d="M622.437698143115085,243.758888134057997c.5322265625-.111328125,1.373046875-.1953125,2.2275390625-.1953125,1.21875,0,2.0029296875.2099609375,2.5908203125.685546875.490234375.3642578125.78515625.9248046875.78515625,1.6669921875,0,.9111328125-.6025390625,1.708984375-1.59765625,2.0732421875v.0283203125c.896484375.2236328125,1.947265625.966796875,1.947265625,2.3671875,0,.8125-.322265625,1.4287109375-.7978515625,1.890625-.6591796875.6025390625-1.7236328125.8828125-3.263671875.8828125-.8408203125,0-1.4853515625-.0556640625-1.8916015625-.1123046875v-9.287109375ZM623.656448143115085,247.625099071557997h1.1064453125c1.2890625,0,2.044921875-.671875,2.044921875-1.5830078125,0-1.1064453125-.83984375-1.5400390625-2.072265625-1.5400390625-.560546875,0-.8828125.0419921875-1.0791015625.083984375v3.0390625ZM623.656448143115085,252.149513134057997c.23828125.0419921875.587890625.056640625,1.0224609375.056640625,1.2607421875,0,2.423828125-.462890625,2.423828125-1.8349609375,0-1.2890625-1.107421875-1.8212890625-2.4375-1.8212890625h-1.0087890625v3.599609375Z"/>
    <path d="M629.983596580615085,248.410255321557997c0-.798828125-.013671875-1.4853515625-.0556640625-2.115234375h1.078125l.0419921875,1.330078125h.056640625c.3076171875-.91015625,1.0498046875-1.484375,1.876953125-1.484375.1396484375,0,.23828125.013671875.349609375.0419921875v1.162109375c-.1259765625-.02734375-.251953125-.0419921875-.419921875-.0419921875-.8681640625,0-1.484375.6591796875-1.6533203125,1.5830078125-.02734375.16796875-.0556640625.3642578125-.0556640625.57421875v3.6142578125h-1.21875v-4.6640625Z"/>
    <path d="M638.245315330615085,253.074317821557997l-.09765625-.8544921875h-.0419921875c-.3779296875.5322265625-1.1064453125,1.0087890625-2.0732421875,1.0087890625-1.373046875,0-2.0732421875-.966796875-2.0732421875-1.947265625,0-1.638671875,1.45703125-2.53515625,4.076171875-2.521484375v-.1396484375c0-.560546875-.154296875-1.5693359375-1.541015625-1.5693359375-.6298828125,0-1.2880859375.1962890625-1.7646484375.5048828125l-.2802734375-.8125c.560546875-.3642578125,1.373046875-.6025390625,2.2275390625-.6025390625,2.0732421875,0,2.5771484375,1.4150390625,2.5771484375,2.7734375v2.53515625c0,.5888671875.0283203125,1.1630859375.1123046875,1.625h-1.12109375ZM638.063674705615085,249.614356884057997c-1.3447265625-.0283203125-2.8720703125.2099609375-2.8720703125,1.52734375,0,.7978515625.5322265625,1.17578125,1.1630859375,1.17578125.8818359375,0,1.4423828125-.5595703125,1.638671875-1.1337890625.0419921875-.126953125.0703125-.2666015625.0703125-.392578125v-1.1767578125Z"/>
    <path d="M641.071487205615085,251.813575634057997c.3642578125.23828125,1.0087890625.490234375,1.625.490234375.896484375,0,1.31640625-.4482421875,1.31640625-1.0087890625,0-.587890625-.349609375-.91015625-1.2607421875-1.24609375-1.21875-.4345703125-1.79296875-1.1064453125-1.79296875-1.9189453125,0-1.0927734375.8828125-1.9892578125,2.33984375-1.9892578125.685546875,0,1.2880859375.1962890625,1.6669921875.419921875l-.30859375.896484375c-.2666015625-.16796875-.7568359375-.3916015625-1.38671875-.3916015625-.728515625,0-1.134765625.419921875-1.134765625.923828125,0,.560546875.40625.8125,1.2890625,1.1484375,1.1767578125.4482421875,1.7783203125,1.037109375,1.7783203125,2.0458984375,0,1.1904296875-.923828125,2.0302734375-2.53515625,2.0302734375-.7421875,0-1.4287109375-.181640625-1.9052734375-.4619140625l.30859375-.9384765625Z"/>
    <path d="M646.615432518115085,251.813575634057997c.3642578125.23828125,1.0087890625.490234375,1.625.490234375.896484375,0,1.31640625-.4482421875,1.31640625-1.0087890625,0-.587890625-.349609375-.91015625-1.2607421875-1.24609375-1.21875-.4345703125-1.79296875-1.1064453125-1.79296875-1.9189453125,0-1.0927734375.8828125-1.9892578125,2.33984375-1.9892578125.685546875,0,1.2880859375.1962890625,1.6669921875.419921875l-.30859375.896484375c-.2666015625-.16796875-.7568359375-.3916015625-1.38671875-.3916015625-.728515625,0-1.134765625.419921875-1.134765625.923828125,0,.560546875.40625.8125,1.2890625,1.1484375,1.1767578125.4482421875,1.7783203125,1.037109375,1.7783203125,2.0458984375,0,1.1904296875-.923828125,2.0302734375-2.53515625,2.0302734375-.7421875,0-1.4287109375-.181640625-1.9052734375-.4619140625l.30859375-.9384765625Z"/>
    <path d="M656.668166893115085,244.389747509057997c.013671875.419921875-.2939453125.755859375-.7841796875.755859375-.4345703125,0-.7431640625-.3359375-.7431640625-.755859375,0-.4345703125.322265625-.7705078125.7705078125-.7705078125.462890625,0,.7568359375.3359375.7568359375.7705078125ZM655.295120018115085,253.074317821557997v-6.779296875h1.232421875v6.779296875h-1.232421875Z"/>
    <path d="M658.571487205615085,248.129981884057997c0-.701171875-.013671875-1.275390625-.0556640625-1.8349609375h1.0927734375l.0693359375,1.1201171875h.0283203125c.3359375-.64453125,1.1201171875-1.2744140625,2.2412109375-1.2744140625.9384765625,0,2.3955078125.560546875,2.3955078125,2.8857421875v4.0478515625h-1.2333984375v-3.908203125c0-1.0927734375-.4052734375-2.0029296875-1.568359375-2.0029296875-.8125,0-1.4423828125.57421875-1.6533203125,1.2607421875-.0556640625.154296875-.083984375.3642578125-.083984375.57421875v4.076171875h-1.232421875v-4.9443359375Z"/>
    <path d="M666.173049705615085,251.813575634057997c.3642578125.23828125,1.0087890625.490234375,1.625.490234375.896484375,0,1.31640625-.4482421875,1.31640625-1.0087890625,0-.587890625-.349609375-.91015625-1.2607421875-1.24609375-1.21875-.4345703125-1.79296875-1.1064453125-1.79296875-1.9189453125,0-1.0927734375.8828125-1.9892578125,2.33984375-1.9892578125.685546875,0,1.2880859375.1962890625,1.6669921875.419921875l-.30859375.896484375c-.2666015625-.16796875-.7568359375-.3916015625-1.38671875-.3916015625-.728515625,0-1.134765625.419921875-1.134765625.923828125,0,.560546875.40625.8125,1.2890625,1.1484375,1.1767578125.4482421875,1.7783203125,1.037109375,1.7783203125,2.0458984375,0,1.1904296875-.923828125,2.0302734375-2.53515625,2.0302734375-.7421875,0-1.4287109375-.181640625-1.9052734375-.4619140625l.30859375-.9384765625Z"/>
    <path d="M672.571487205615085,249.908302196557997c.0283203125,1.6669921875,1.0927734375,2.353515625,2.3251953125,2.353515625.8828125,0,1.4150390625-.154296875,1.876953125-.3505859375l.2099609375.8828125c-.43359375.1962890625-1.1767578125.419921875-2.2548828125.419921875-2.0869140625,0-3.333984375-1.3720703125-3.333984375-3.4169921875,0-2.0458984375,1.205078125-3.65625,3.1796875-3.65625,2.212890625,0,2.8017578125,1.947265625,2.8017578125,3.193359375,0,.251953125-.0283203125.4482421875-.0419921875.57421875h-4.7626953125ZM676.185745018115085,249.026466259057997c.013671875-.78515625-.322265625-2.0029296875-1.708984375-2.0029296875-1.2470703125,0-1.79296875,1.1484375-1.8916015625,2.0029296875h3.6005859375Z"/>
    <path d="M678.898635643115085,248.410255321557997c0-.798828125-.013671875-1.4853515625-.0556640625-2.115234375h1.078125l.0419921875,1.330078125h.056640625c.3076171875-.91015625,1.0498046875-1.484375,1.876953125-1.484375.1396484375,0,.2373046875.013671875.349609375.0419921875v1.162109375c-.1259765625-.02734375-.251953125-.0419921875-.419921875-.0419921875-.8681640625,0-1.4853515625.6591796875-1.6533203125,1.5830078125-.02734375.16796875-.0556640625.3642578125-.0556640625.57421875v3.6142578125h-1.21875v-4.6640625Z"/>
    <path d="M685.298049705615085,244.347755321557997v1.947265625h1.7646484375v.9384765625h-1.7646484375v3.6552734375c0,.8408203125.2373046875,1.3173828125.923828125,1.3173828125.322265625,0,.560546875-.0419921875.71484375-.083984375l.0556640625.923828125c-.23828125.0986328125-.6162109375.16796875-1.0927734375.16796875-.57421875,0-1.0361328125-.181640625-1.330078125-.517578125-.3505859375-.3642578125-.4765625-.966796875-.4765625-1.765625v-3.697265625h-1.05078125v-.9384765625h1.05078125v-1.625l1.205078125-.322265625Z"/>
    <path d="M688.278518455615085,251.813575634057997c.3642578125.23828125,1.0087890625.490234375,1.625.490234375.896484375,0,1.31640625-.4482421875,1.31640625-1.0087890625,0-.587890625-.349609375-.91015625-1.2607421875-1.24609375-1.21875-.4345703125-1.79296875-1.1064453125-1.79296875-1.9189453125,0-1.0927734375.8828125-1.9892578125,2.33984375-1.9892578125.685546875,0,1.2880859375.1962890625,1.6669921875.419921875l-.30859375.896484375c-.2666015625-.16796875-.7568359375-.3916015625-1.38671875-.3916015625-.728515625,0-1.134765625.419921875-1.134765625.923828125,0,.560546875.40625.8125,1.2890625,1.1484375,1.1767578125.4482421875,1.7783203125,1.037109375,1.7783203125,2.0458984375,0,1.1904296875-.923828125,2.0302734375-2.53515625,2.0302734375-.7421875,0-1.4287109375-.181640625-1.9052734375-.4619140625l.30859375-.9384765625Z"/>
    <path d="M656.972854393115085,265.727638134057997c-.0693359375-1.31640625-.1533203125-2.8994140625-.1396484375-4.076171875h-.0419921875c-.322265625,1.1064453125-.71484375,2.283203125-1.1904296875,3.5859375l-1.6669921875,4.5810546875h-.9248046875l-1.5263671875-4.4970703125c-.4482421875-1.330078125-.8271484375-2.548828125-1.0927734375-3.669921875h-.0283203125c-.0283203125,1.1767578125-.09765625,2.759765625-.181640625,4.1748046875l-.2529296875,4.0478515625h-1.162109375l.658203125-9.44140625h1.5546875l1.611328125,4.56640625c.3916015625,1.1630859375.7138671875,2.19921875.9521484375,3.1796875h.0419921875c.23828125-.9521484375.57421875-1.98828125.9951171875-3.1796875l1.6806640625-4.56640625h1.5546875l.587890625,9.44140625h-1.1904296875l-.23828125-4.146484375Z"/>
    <path d="M660.133010643115085,268.459083446557997c.349609375.224609375,1.162109375.57421875,2.0166015625.57421875,1.5830078125,0,2.0732421875-1.0078125,2.0595703125-1.7646484375-.0146484375-1.2744140625-1.1630859375-1.8212890625-2.353515625-1.8212890625h-.6865234375v-.923828125h.6865234375c.896484375,0,2.03125-.462890625,2.03125-1.541015625,0-.728515625-.462890625-1.373046875-1.5966796875-1.373046875-.728515625,0-1.4287109375.322265625-1.8212890625.6025390625l-.322265625-.896484375c.4765625-.3505859375,1.400390625-.7001953125,2.380859375-.7001953125,1.79296875,0,2.60546875,1.064453125,2.60546875,2.1708984375,0,.9384765625-.5595703125,1.7373046875-1.6806640625,2.1435546875v.02734375c1.12109375.224609375,2.03125,1.064453125,2.03125,2.33984375,0,1.45703125-1.134765625,2.7314453125-3.3193359375,2.7314453125-1.0234375,0-1.919921875-.322265625-2.3681640625-.6162109375l.3369140625-.953125Z"/>
  </g>
  <g>
    <path d="M638.370315330615085,124.629981884057997h-2.87109375v-1.03662109375h6.9892578125v1.03662109375h-2.8857421875v8.404296875h-1.232421875v-8.404296875Z"/>
    <path d="M644.012893455615085,130.064552196557997l-.98046875,2.9697265625h-1.2607421875l3.20703125-9.44091796875h1.470703125l3.2216796875,9.44091796875h-1.302734375l-1.0078125-2.9697265625h-3.34765625ZM647.108596580615085,129.112403759057997l-.9248046875-2.7177734375c-.2099609375-.6162109375-.3505859375-1.1767578125-.490234375-1.72265625h-.0283203125c-.1396484375.56005859375-.2939453125,1.13427734375-.4765625,1.70849609375l-.923828125,2.73193359375h2.84375Z"/>
    <path d="M651.052932518115085,123.705177196557997c.5888671875-.09814453125,1.3583984375-.18212890625,2.33984375-.18212890625,1.2041015625,0,2.0869140625.2802734375,2.6474609375.78466796875.517578125.4482421875.826171875,1.13427734375.826171875,1.97509765625,0,.8544921875-.251953125,1.52685546875-.728515625,2.01708984375-.64453125.68603515625-1.6953125,1.0361328125-2.8857421875,1.0361328125-.3642578125,0-.7001953125-.013671875-.98046875-.083984375v3.7822265625h-1.21875v-9.3291015625ZM652.271682518115085,128.257911571557997c.2666015625.06982421875.6025390625.09765625,1.0087890625.09765625,1.470703125,0,2.3671875-.71435546875,2.3671875-2.01708984375,0-1.24658203125-.8828125-1.8486328125-2.2275390625-1.8486328125-.5322265625,0-.9384765625.0419921875-1.1484375.09765625v3.67041015625Z"/>
    <path d="M669.425002830615085,128.887794384057997c-.0693359375-1.31640625-.1533203125-2.8994140625-.1396484375-4.076171875h-.0419921875c-.322265625,1.10693359375-.71484375,2.283203125-1.1904296875,3.5859375l-1.6669921875,4.58056640625h-.9248046875l-1.5263671875-4.49609375c-.4482421875-1.3310546875-.8271484375-2.5498046875-1.0927734375-3.67041015625h-.0283203125c-.0283203125,1.1767578125-.09765625,2.759765625-.181640625,4.17431640625l-.2529296875,4.04833984375h-1.162109375l.658203125-9.44091796875h1.5546875l1.611328125,4.56640625c.3916015625,1.16259765625.7138671875,2.19921875.9521484375,3.1796875h.0419921875c.23828125-.95263671875.57421875-1.9892578125.9951171875-3.1796875l1.6806640625-4.56640625h1.5546875l.587890625,9.44091796875h-1.1904296875l-.23828125-4.146484375Z"/>
    <path d="M677.487502830615085,124.797950634057997c-.251953125-.01416015625-.57421875,0-.9248046875.0556640625-1.9326171875.322265625-2.955078125,1.7373046875-3.1650390625,3.23583984375h.0419921875c.43359375-.57421875,1.1904296875-1.05029296875,2.19921875-1.05029296875,1.6103515625,0,2.7451171875,1.16259765625,2.7451171875,2.94140625,0,1.6669921875-1.134765625,3.2080078125-3.025390625,3.2080078125-1.947265625,0-3.2216796875-1.51318359375-3.2216796875-3.88037109375,0-1.79296875.6435546875-3.20751953125,1.5400390625-4.10400390625.7568359375-.74267578125,1.765625-1.20458984375,2.9140625-1.3447265625.3642578125-.05615234375.671875-.0703125.896484375-.0703125v1.0087890625ZM677.136916893115085,130.050880321557997c0-1.302734375-.7421875-2.08740234375-1.876953125-2.08740234375-.7421875,0-1.4287109375.46240234375-1.7646484375,1.12060546875-.083984375.14013671875-.1396484375.322265625-.1396484375.54638671875.02734375,1.49853515625.7138671875,2.60546875,2.0029296875,2.60546875,1.064453125,0,1.7783203125-.88232421875,1.7783203125-2.18505859375Z"/>
  </g>
  <g>
    <path d="M377.860061424365085,267.140724071557997h-2.87158203125v-1.037109375h6.98974609375v1.037109375h-2.88525390625v8.404296875h-1.23291015625v-8.404296875Z"/>
    <path d="M383.502151268115085,272.575294384057997l-.98046875,2.9697265625h-1.2607421875l3.2080078125-9.44140625h1.470703125l3.2216796875,9.44140625h-1.302734375l-1.00830078125-2.9697265625h-3.34814453125ZM386.597854393115085,271.623145946557997l-.92431640625-2.7177734375c-.21044921875-.6162109375-.35009765625-1.1767578125-.490234375-1.72265625h-.0283203125c-.14013671875.560546875-.2939453125,1.134765625-.47607421875,1.708984375l-.92431640625,2.7314453125h2.84326171875Z"/>
    <path d="M390.543166893115085,266.215919384057997c.58837890625-.09765625,1.35888671875-.181640625,2.33935546875-.181640625,1.20458984375,0,2.0869140625.279296875,2.6474609375.7841796875.51806640625.4482421875.82666015625,1.134765625.82666015625,1.974609375,0,.8544921875-.25244140625,1.52734375-.728515625,2.017578125-.64453125.6865234375-1.69482421875,1.0361328125-2.8857421875,1.0361328125-.3642578125,0-.7001953125-.013671875-.98046875-.083984375v3.7822265625h-1.21875v-9.3291015625ZM391.761916893115085,270.768653759057997c.26611328125.0693359375.6025390625.09765625,1.0087890625.09765625,1.470703125,0,2.3671875-.7138671875,2.3671875-2.0166015625,0-1.2470703125-.8828125-1.849609375-2.2275390625-1.849609375-.5322265625,0-.9384765625.0419921875-1.1484375.0986328125v3.669921875Z"/>
    <path d="M408.915237205615085,271.398536571557997c-.0703125-1.31640625-.154296875-2.8994140625-.14013671875-4.076171875h-.0419921875c-.322265625,1.1064453125-.71435546875,2.283203125-1.19091796875,3.5859375l-1.66650390625,4.5810546875h-.9248046875l-1.52685546875-4.4970703125c-.4482421875-1.330078125-.826171875-2.548828125-1.09228515625-3.669921875h-.0283203125c-.02783203125,1.1767578125-.09814453125,2.759765625-.18212890625,4.1748046875l-.251953125,4.0478515625h-1.16259765625l.658203125-9.44140625h1.5546875l1.611328125,4.56640625c.39208984375,1.1630859375.71435546875,2.19921875.9521484375,3.1796875h.0419921875c.23828125-.9521484375.57470703125-1.98828125.99462890625-3.1796875l1.68115234375-4.56640625h1.5546875l.58837890625,9.44140625h-1.19091796875l-.23779296875-4.146484375Z"/>
    <path d="M416.977248924365085,267.308692821557997c-.251953125-.013671875-.57421875,0-.92431640625.0556640625-1.93310546875.322265625-2.95556640625,1.7373046875-3.166015625,3.236328125h.0419921875c.4345703125-.57421875,1.19091796875-1.05078125,2.19921875-1.05078125,1.61083984375,0,2.74560546875,1.162109375,2.74560546875,2.94140625,0,1.6669921875-1.134765625,3.2080078125-3.025390625,3.2080078125-1.947265625,0-3.22216796875-1.5126953125-3.22216796875-3.8798828125,0-1.79296875.64453125-3.2080078125,1.541015625-4.1044921875.75634765625-.7421875,1.76513671875-1.205078125,2.91357421875-1.3447265625.3642578125-.056640625.67236328125-.0703125.896484375-.0703125v1.0087890625ZM416.627151268115085,272.561622509057997c0-1.302734375-.74267578125-2.0869140625-1.876953125-2.0869140625-.74267578125,0-1.4287109375.4619140625-1.76513671875,1.1201171875-.083984375.1396484375-.14013671875.322265625-.14013671875.5458984375.0283203125,1.4990234375.71435546875,2.60546875,2.00341796875,2.60546875,1.064453125,0,1.77880859375-.8818359375,1.77880859375-2.1845703125Z"/>
  </g>
  <g>
    <line class="cls-3" x1="421.130935447802585" y1="252.955146678979872" x2="459.17301918803696" y2="230.991554149682997"/>
    <polygon class="cls-5" points="458.73747231303696 234.450019725854872 458.37065102397446 231.454810985620497 455.96012856303696 229.639503368432997 463.050491111865085 228.752876171167372 458.73747231303696 234.450019725854872"/>
  </g>
  <g>
    <line class="cls-3" x1="616.154562245244051" y1="140.245791670205108" x2="578.112509022587801" y2="162.209384199502892"/>
    <polygon class="cls-5" points="578.548055897587801 158.750918623331017 578.914877186650301 161.746127363565392 581.325399647587801 163.561404463174767 574.235006581181551 164.448031660440392 578.548055897587801 158.750918623331017"/>
  </g>
  <g>
    <path d="M188.828811424365085,45.818458446557997h-2.87158203125v-1.03662109375h6.98974609375v1.03662109375h-2.88525390625v8.404296875h-1.23291015625v-8.404296875Z"/>
    <path d="M194.470901268115085,51.253028759057997l-.98046875,2.9697265625h-1.2607421875l3.2080078125-9.44091796875h1.470703125l3.2216796875,9.44091796875h-1.302734375l-1.00830078125-2.9697265625h-3.34814453125ZM197.566604393115085,50.300880321557997l-.92431640625-2.7177734375c-.21044921875-.6162109375-.35009765625-1.1767578125-.490234375-1.72265625h-.0283203125c-.14013671875.56005859375-.2939453125,1.13427734375-.47607421875,1.70849609375l-.92431640625,2.73193359375h2.84326171875Z"/>
    <path d="M201.511916893115085,44.893653759057997c.58837890625-.09814453125,1.35888671875-.18212890625,2.33935546875-.18212890625,1.20458984375,0,2.0869140625.2802734375,2.6474609375.78466796875.51806640625.4482421875.82666015625,1.13427734375.82666015625,1.97509765625,0,.8544921875-.25244140625,1.52685546875-.728515625,2.01708984375-.64453125.68603515625-1.69482421875,1.0361328125-2.8857421875,1.0361328125-.3642578125,0-.7001953125-.013671875-.98046875-.083984375v3.7822265625h-1.21875v-9.3291015625ZM202.730666893115085,49.446388134057997c.26611328125.06982421875.6025390625.09765625,1.0087890625.09765625,1.470703125,0,2.3671875-.71435546875,2.3671875-2.01708984375,0-1.24658203125-.8828125-1.8486328125-2.2275390625-1.8486328125-.5322265625,0-.9384765625.0419921875-1.1484375.09765625v3.67041015625Z"/>
    <path d="M219.883987205615085,50.076270946557997c-.0703125-1.31640625-.154296875-2.8994140625-.14013671875-4.076171875h-.0419921875c-.322265625,1.10693359375-.71435546875,2.283203125-1.19091796875,3.5859375l-1.66650390625,4.58056640625h-.9248046875l-1.52685546875-4.49609375c-.4482421875-1.3310546875-.826171875-2.5498046875-1.09228515625-3.67041015625h-.0283203125c-.02783203125,1.1767578125-.09814453125,2.759765625-.18212890625,4.17431640625l-.251953125,4.04833984375h-1.16259765625l.658203125-9.44091796875h1.5546875l1.611328125,4.56640625c.39208984375,1.16259765625.71435546875,2.19921875.9521484375,3.1796875h.0419921875c.23828125-.95263671875.57470703125-1.9892578125.99462890625-3.1796875l1.68115234375-4.56640625h1.5546875l.58837890625,9.44091796875h-1.19091796875l-.23779296875-4.146484375Z"/>
    <path d="M227.945998924365085,45.986427196557997c-.251953125-.01416015625-.57421875,0-.92431640625.0556640625-1.93310546875.322265625-2.95556640625,1.7373046875-3.166015625,3.23583984375h.0419921875c.4345703125-.57421875,1.19091796875-1.05029296875,2.19921875-1.05029296875,1.61083984375,0,2.74560546875,1.16259765625,2.74560546875,2.94140625,0,1.6669921875-1.134765625,3.2080078125-3.025390625,3.2080078125-1.947265625,0-3.22216796875-1.51318359375-3.22216796875-3.88037109375,0-1.79296875.64453125-3.20751953125,1.541015625-4.10400390625.75634765625-.74267578125,1.76513671875-1.20458984375,2.91357421875-1.3447265625.3642578125-.05615234375.67236328125-.0703125.896484375-.0703125v1.0087890625ZM227.595901268115085,51.239356884057997c0-1.302734375-.74267578125-2.08740234375-1.876953125-2.08740234375-.74267578125,0-1.4287109375.46240234375-1.76513671875,1.12060546875-.083984375.14013671875-.14013671875.322265625-.14013671875.54638671875.0283203125,1.49853515625.71435546875,2.60546875,2.00341796875,2.60546875,1.064453125,0,1.77880859375-.88232421875,1.77880859375-2.18505859375Z"/>
  </g>
  <g>
    <line class="cls-2" x1="153.133086937060398" y1="116.410865673121407" x2="153.133086937060398" y2="156.835639843042372"/>
    <polygon points="150.355727928271335 154.729194530542372 153.133086937060398 155.909126171167372 155.910430687060398 154.729194530542372 153.133086937060398 161.312934764917372 150.355727928271335 154.729194530542372"/>
  </g>
  <g>
    <line class="cls-2" x1="196.134048240771335" y1="140.494697460229872" x2="196.134048240771335" y2="180.919471630151747"/>
    <polygon points="193.356704490771335 178.813026317651747 196.134048240771335 179.992957958276747 198.911391990771335 178.813026317651747 196.134048240771335 185.396766552026747 193.356704490771335 178.813026317651747"/>
  </g>
  <g>
    <line class="cls-2" x1="208.607299583544773" y1="81.184272655542372" x2="208.607299583544773" y2="121.609046825464247"/>
    <polygon points="205.829955833544773 119.502601512964247 208.607299583544773 120.682533153589247 211.384643333544773 119.502601512964247 208.607299583544773 126.086341747339247 205.829955833544773 119.502601512964247"/>
  </g>
  <g>
    <line class="cls-2" x1="252.743438499560398" y1="103.252326854761122" x2="252.743438499560398" y2="143.677101024682997"/>
    <polygon points="249.966094749560398 141.570655712182997 252.743438499560398 142.750587352807997 255.520782249560398 141.570655712182997 252.743438499560398 148.154395946557997 249.966094749560398 141.570655712182997"/>
  </g>
</svg>