<?xml version="1.0" encoding="UTF-8"?>
<svg id="Layer_1" data-name="Layer 1" xmlns="http://www.w3.org/2000/svg" viewBox="0 0 846.626811594202991 381.409420289855916">
  <defs>
    <style>
      .cls-1 {
        fill: #d2155b;
      }

      .cls-2 {
        stroke: #000;
        stroke-width: .25px;
      }

      .cls-2, .cls-3 {
        fill: none;
        stroke-linecap: round;
        stroke-linejoin: round;
      }

      .cls-3 {
        stroke: #d2155b;
        stroke-width: .75px;
      }
    </style>
  </defs>
  <g>
    <polyline class="cls-2" points="254.195890955967116 136.891188323659662 254.072931124997012 136.15340849013046 253.765510699852712 135.292647977899833 253.335151291459624 134.493388228879667 252.781811204375117 133.817067463109197 252.105490438606466 133.386687207008436"/>
    <polyline class="cls-2" points="248.723970000632107 135.354127893392615 249.338790003198483 135.84598806498434 249.892130090279352 136.46080806755981 250.383990261875624 137.260088664297655 250.62990992381674 138.12084917651282 250.752890602502703 138.920108925535715"/>
    <polyline class="cls-2" points="178.879929872441608 97.357997392608013 178.941409787926204 96.681697474555222 179.248830213072324 96.189837302947126 179.679210469182181 95.943896793292879 180.294030471750375 95.943896793292879 180.90885047431766 96.189837302947126"/>
    <polyline class="cls-2" points="206.239618039984634 344.025456494146056 205.624798037417349 343.533601534478294 205.009957187135115 342.918776319993412 204.579576931024349 342.119506147104403 204.272177353600455 341.258750846815019 204.210697438114948 340.459480673927828"/>
    <polyline class="cls-2" points="225.422123036833 352.755964116133327 225.299163205863806 353.432269246126452 225.053222696210469 353.924129417717268 224.561362524611468 354.17005950352177 224.008022437526961 354.17005950352177 223.393202434959676 353.924129417717268"/>
    <polyline class="cls-2" points="207.038877789006619 236.246776204518028 207.346298214149101 236.923096970289407 207.53073796060562 237.660876803834981 207.592217876091127 238.275696806396809"/>
    <polyline class="cls-2" points="188.471192794726448 203.107767504223375 188.532672710211955 203.784067422262524 188.717133304383424 204.460367340330777 189.024532881810046 205.136688106098518"/>
    <polyline class="cls-2" points="190.500113396599772 186.323062602154096 189.885293394032487 186.07712209249803 189.270473391465202 186.07712209249803 188.840093135352618 186.323062602154096 188.532672710211955 186.814922773743092 188.471192794726448 187.491222691796793"/>
    <polyline class="cls-2" points="241.161627680219681 217.925010872180792 241.038667849250487 217.125751123159716 240.792727339593512 216.326470526420962 240.300867167997239 215.527210777399887 239.74752708091728 214.850890011628508 239.132707078345447 214.359050687751733"/>
    <polyline class="cls-2" points="240.546807677654215 234.894176368416083 240.915687170561796 234.586755943266326 241.100147764734174 234.156375687165564 241.161627680219681 233.541555684591003"/>
    <polyline class="cls-2" points="221.979101835657275 246.575829384206372 222.04060259886046 246.022489297127322 222.286522260799757 245.59210904101019 222.59394268593951 245.284699039726547"/>
    <polyline class="cls-2" points="184.351871675495204 94.222396616563856 183.798531588413425 93.976476954627287 183.306671416818062 93.976476954627287 182.876291160702749 94.099436785594662"/>
    <polyline class="cls-2" points="192.467554082988499 203.169247419702515 192.160133657846018 202.492926653931136 191.914213995906721 201.816626735891987 191.852734080418486 201.140326817823734"/>
    <polyline class="cls-2" points="211.035239077267761 236.308256120013539 210.973759161783164 235.69343611743534 210.789319415328464 234.955656283906137 210.420419074701385 234.279335518134758"/>
    <polyline class="cls-2" points="228.250324235445987 352.079653774228063 228.557723812869881 351.77224377294624 228.742184407043169 351.341868728759437 228.865144238012363 350.788523429750057"/>
    <line class="cls-2" x1="179.433269959524296" y1="96.066877471977932" x2="182.876291160702749" y2="94.099436785594662"/>
    <line class="cls-2" x1="228.250324235445987" y1="352.079653774228063" x2="224.807303034266624" y2="354.047094460611333"/>
    <line class="cls-2" x1="248.723970000632107" y1="135.354127893392615" x2="180.90885047431766" y2="96.189837302947126"/>
    <line class="cls-2" x1="178.879929872441608" y1="97.357997392608013" x2="178.879929872441608" y2="217.802051041211598"/>
    <line class="cls-2" x1="180.847370558833063" y1="224.503632849397036" x2="202.181776836237987" y2="261.454573515356969"/>
    <line class="cls-2" x1="204.210697438114948" y1="268.217635239036099" x2="204.210697438114948" y2="340.459480673927828"/>
    <line class="cls-2" x1="206.239618039984634" y1="344.025456494146056" x2="223.393202434959676" y2="353.924129417717268"/>
    <line class="cls-2" x1="225.422123036833" y1="352.755964116133327" x2="225.422123036833" y2="280.452638765749725"/>
    <line class="cls-2" x1="227.451043638709052" y1="276.025907645243933" x2="248.723970000632107" y2="263.729424203036615"/>
    <line class="cls-2" x1="250.752890602502703" y1="259.302682658662889" x2="250.752890602502703" y2="138.920108925535715"/>
    <line class="cls-2" x1="207.038877789006619" y1="236.246776204518028" x2="189.024532881810046" y2="205.136688106098518"/>
    <line class="cls-2" x1="188.471192794726448" y1="203.107767504223375" x2="188.471192794726448" y2="187.491222691796793"/>
    <line class="cls-2" x1="190.500113396599772" y1="186.323062602154096" x2="239.132707078345447" y2="214.359050687751733"/>
    <line class="cls-2" x1="241.161627680219681" y1="217.925010872180792" x2="241.161627680219681" y2="233.541555684591003"/>
    <line class="cls-2" x1="240.546807677654215" y1="234.894176368416083" x2="222.59394268593951" y2="245.284699039726547"/>
    <polyline class="cls-2" points="221.979101835657275 246.575829384206372 221.979101835657275 349.189983083988409 207.592217876091127 340.88985571811827 207.592217876091127 238.275696806396809"/>
    <line class="cls-2" x1="184.351871675495204" y1="94.222396616563856" x2="252.105490438606466" y2="133.386687207008436"/>
    <line class="cls-2" x1="191.852734080418486" y1="187.122322351173352" x2="191.852734080418486" y2="201.140326817823734"/>
    <line class="cls-2" x1="192.467554082988499" y1="203.169247419702515" x2="210.420419074701385" y2="234.279335518134758"/>
    <polyline class="cls-2" points="207.592217876091127 340.88985571811827 211.035239077267761 338.922420243659872 211.035239077267761 236.308256120013539"/>
    <line class="cls-2" x1="228.865144238012363" y1="278.485198079368274" x2="228.865144238012363" y2="350.788523429750057"/>
    <line class="cls-2" x1="211.035239077267761" y1="338.922420243659872" x2="221.979101835657275" y2="345.255106923150379"/>
    <line class="cls-2" x1="254.195890955967116" y1="136.891188323659662" x2="254.195890955967116" y2="257.273772480635671"/>
    <polyline class="cls-2" points="180.847370558833063 224.503632849397036 179.986610046610622 222.843612588147153 179.371790044041518 221.12211241141631 179.002910551129389 219.400591386969609 178.879929872441608 217.802051041211598"/>
    <polyline class="cls-2" points="204.210697438114948 268.217635239036099 204.087737607148483 266.557614977782578 203.657357351027713 264.897584292681131 203.042516500748206 263.114593776610491 202.181776836237987 261.454573515356969"/>
    <polyline class="cls-2" points="227.451043638709052 276.025907645243933 226.590283126483882 276.702207563295815 225.913983208432001 277.747407821971137 225.545082867805831 278.977058250955452 225.422123036833 280.452638765749725"/>
    <polyline class="cls-2" points="250.752890602502703 259.302682658662889 250.62990992381674 260.716783257961652 250.199550515419105 262.007913602441477 249.584709665135961 262.991633945641297 248.723970000632107 263.729424203036615"/>
    <polyline class="cls-2" points="228.865144238012363 278.485198079368274 228.988104068980647 277.009627988441935 229.357004409608635 275.77997755943943 229.97182441217592 274.734777300764108 230.832584924402909 274.058466958858844"/>
    <polyline class="cls-2" points="252.166970354092882 261.761983516653345 253.027730866315324 261.024193259243475 253.642550868884427 260.040472916060025 254.011451209512416 258.7493425715802 254.195890955967116 257.273772480635671"/>
    <line class="cls-2" x1="248.723970000632107" y1="263.729424203036615" x2="252.166970354092882" y2="261.761983516653345"/>
  </g>
  <g>
    <polyline class="cls-2" points="305.975684272137187 125.841761485407915 303.406822893940443 124.373831809458352 303.406822893940443 101.437469509511175 331.251569214818119 85.382015899569524 333.820430593016681 86.849945575520906 305.975684272137187 125.841761485407915 305.975684272137187 102.905399185477108 303.406822893940443 101.437469509511175"/>
    <line class="cls-2" x1="333.820430593016681" y1="86.849945575520906" x2="305.975684272137187" y2="102.905399185477108"/>
  </g>
  <g>
    <polyline class="cls-2" points="236.563769748347113 81.688744985646736 233.994908370152189 80.220815309697173 233.994908370152189 57.284453009769095 261.839654691028045 41.228999399810164 264.408516069227517 42.696929075760636 236.563769748347113 81.688744985646736 236.563769748347113 58.752382685719567 233.994908370152189 57.284453009769095"/>
    <line class="cls-2" x1="264.408516069227517" y1="42.696929075760636" x2="236.563769748347113" y2="58.752382685719567"/>
  </g>
  <g>
    <line class="cls-3" x1="289.157851110464435" y1="109.022784910341215" x2="266.23185623741756" y2="122.259097776552153"/>
    <polygon class="cls-1" points="266.667433629995685 118.800632200380278 267.034254919058185 121.795840940614653 269.444777379995685 123.61113329901309 262.35441483116756 124.497745237489653 266.667433629995685 118.800632200380278"/>
  </g>
  <g>
    <line class="cls-3" x1="222.52818192101131" y1="63.10069628729434" x2="199.60221756554256" y2="76.33702441229434"/>
    <polygon class="cls-1" points="200.03776444054256 72.878543577333403 200.404600988394122 75.87376757635684 202.815123449331622 77.689044675966215 195.724760900503497 78.57567187323184 200.03776444054256 72.878543577333403"/>
  </g>
  <g>
    <polyline class="cls-2" points="530.028448869386011 124.012222306624608 530.148147566879743 123.293745898140514 530.387626168590032 122.814788694730851 530.866583371996057 122.575269489670973 531.465320479620459 122.575269489670973 532.06405758724668 122.814788694730851"/>
    <line class="cls-2" x1="532.06405758724668" y1="122.814788694730851" x2="535.416920424565433" y2="120.89887867437028"/>
    <polyline class="cls-2" points="535.416920424565433 120.89887867437028 534.81818331694285 120.65935946929585 534.339226113527729 120.65935946929585 533.979967607611798 120.779139373518774"/>
    <polyline class="cls-2" points="603.431604337477438 162.450080808079292 603.311824433266338 161.731645002951154 602.952647134064136 160.893429293631925 602.593388628150024 160.174952885147832 601.994651520523803 159.456476476664648 601.395914412899401 158.977519273254075"/>
    <polyline class="cls-2" points="578.165596773517791 372.00239415703436 578.40507537522808 371.762905404493722 578.644553976932912 371.283927899390619 578.7642526744321 370.685211093450562"/>
    <polyline class="cls-2" points="543.320039107736193 226.992203186173356 542.960780601816623 226.393486380220565 542.721302000111791 225.675009971751933 542.721302000111791 225.076293165799143"/>
    <polyline class="cls-2" points="561.401363793641394 259.323134025637046 561.281665096151301 258.604657617173871 561.161885191932924 258.005940811219261 560.802626686016993 257.287484704425879"/>
    <line class="cls-2" x1="601.395914412899401" y1="158.977519273254075" x2="598.043132782298017" y2="160.893429293631925"/>
    <polyline class="cls-2" points="598.043132782298017 160.893429293631925 598.64178868320505 161.37238649703886 599.240525790829452 162.090862905522954 599.719482994242753 162.809339313991586 599.959042802663134 163.647514419956678 600.078741500158685 164.365990828439863"/>
    <line class="cls-2" x1="600.078741500158685" y1="164.365990828439863" x2="603.431604337477438" y2="162.450080808079292"/>
    <polyline class="cls-2" points="590.738670000037928 241.36150803723649 590.618971302540558 240.643031628755125 590.379492700835726 239.804836221110236 589.900535497422425 239.086359812625233 589.301798389798023 238.367903705839126 588.703061282173621 237.888926200750575"/>
    <polyline class="cls-2" points="541.404129087371075 210.587249013880864 540.805391979744854 210.347770412177852 540.206654872120453 210.347770412177852 539.727697668714427 210.587249013880864 539.488219067004138 211.066226518983967 539.368439162793038 211.784682625775531"/>
    <line class="cls-2" x1="539.368439162793038" y1="211.784682625775531" x2="541.404129087371075" y2="210.587249013880864"/>
    <polyline class="cls-2" points="539.368439162793038 226.992203186173356 539.488219067004138 227.590919992113413 539.60791776449787 228.309396400594778 539.96717627041744 228.908113206533017"/>
    <line class="cls-2" x1="539.96717627041744" y1="228.908113206533017" x2="543.320039107736193" y2="226.992203186173356"/>
    <line class="cls-2" x1="542.721302000111791" y1="225.076293165799143" x2="539.368439162793038" y2="226.992203186173356"/>
    <line class="cls-2" x1="560.802626686016993" y1="257.287484704425879" x2="557.449845055415608" y2="259.203374423108471"/>
    <polyline class="cls-2" points="590.140014099127256 257.886201510364117 590.499191398331277 257.646702606982217 590.618971302540558 257.167725101897304 590.738670000037928 256.569008295960884"/>
    <polyline class="cls-2" points="572.058608206510144 269.261902030028068 572.058608206510144 268.782924524943155 572.298086808213156 268.303947019854604 572.657345314129088 267.944708815604827"/>
    <polyline class="cls-2" points="557.449845055415608 259.203374423108471 557.809022354619628 259.921850831591655 557.928802258825272 260.520567637531713 558.048582163036372 261.239044046016716"/>
    <line class="cls-2" x1="558.048582163036372" y1="261.239044046016716" x2="561.401363793641394" y2="259.323134025637046"/>
    <polyline class="cls-2" points="575.41147104382344 372.601121113826594 575.291691139610521 373.319577220616338 575.052212537907508 373.79855472570307 574.573255334494206 374.038043478261898 573.974518226869804 374.038043478261898 573.37578111925086 373.79855472570307"/>
    <line class="cls-2" x1="578.7642526744321" y1="370.685211093450562" x2="575.41147104382344" y2="372.601121113826594"/>
    <polyline class="cls-2" points="556.731328043581925 364.219024925565463 556.132672142674892 363.74004742046418 555.533935035048671 363.021581162834991 555.05497783163537 362.303114905187613 554.815418023214988 361.464909346708737 554.695719325721257 360.746443089063177"/>
    <line class="cls-2" x1="533.979967607611798" y1="120.779139373518774" x2="530.627104770293045" y2="122.695008790524298"/>
    <line class="cls-2" x1="578.165596773517791" y1="372.00239415703436" x2="574.812733936204495" y2="373.91830417739402"/>
    <line class="cls-2" x1="535.416920424565433" y1="120.89887867437028" x2="601.395914412899401" y2="158.977519273254075"/>
    <line class="cls-2" x1="603.431604337477438" y1="162.450080808079292" x2="603.431604337477438" y2="279.679647539518555"/>
    <line class="cls-2" x1="578.7642526744321" y1="300.395378955938213" x2="578.7642526744321" y2="370.685211093450562"/>
    <line class="cls-2" x1="542.721302000111791" y1="211.425464723219193" x2="542.721302000111791" y2="225.076293165799143"/>
    <line class="cls-2" x1="543.320039107736193" y1="226.992203186173356" x2="560.802626686016993" y2="257.287484704425879"/>
    <polyline class="cls-2" points="561.401363793641394 259.323134025637046 561.401363793641394 359.189771272935104 572.058608206510144 365.296719236603167"/>
    <line class="cls-2" x1="598.043132782298017" y1="160.893429293631925" x2="532.06405758724668" y2="122.814788694730851"/>
    <line class="cls-2" x1="590.738670000037928" y1="241.36150803723649" x2="590.738670000037928" y2="256.569008295960884"/>
    <line class="cls-2" x1="541.404129087371075" y1="210.587249013880864" x2="588.703061282173621" y2="237.888926200750575"/>
    <line class="cls-2" x1="557.449845055415608" y1="259.203374423108471" x2="539.96717627041744" y2="228.908113206533017"/>
    <line class="cls-2" x1="590.140014099127256" y1="257.886201510364117" x2="572.657345314129088" y2="267.944708815604827"/>
    <line class="cls-2" x1="572.058608206510144" y1="269.261902030028068" x2="572.058608206510144" y2="369.248278578179452"/>
    <line class="cls-2" x1="575.41147104382344" y1="372.601121113826594" x2="575.41147104382344" y2="302.311288976297874"/>
    <line class="cls-2" x1="554.695719325721257" y1="290.336871650695684" x2="554.695719325721257" y2="360.746443089063177"/>
    <line class="cls-2" x1="577.327381064188558" y1="298.000491430475449" x2="598.043132782298017" y2="285.906334804023572"/>
    <line class="cls-2" x1="600.078741500158685" y1="281.595537258202967" x2="600.078741500158685" y2="164.365990828439863"/>
    <line class="cls-2" x1="531.944277683037399" y1="247.827694205127045" x2="552.77980930535432" y2="283.75094618194089"/>
    <polyline class="cls-2" points="561.401363793641394 359.189771272935104 558.048582163036372 361.105671142473511 558.048582163036372 261.239044046016716"/>
    <line class="cls-2" x1="572.058608206510144" y1="369.248278578179452" x2="558.048582163036372" y2="361.105671142473511"/>
    <line class="cls-2" x1="539.368439162793038" y1="226.992203186173356" x2="539.368439162793038" y2="211.784682625775531"/>
    <line class="cls-2" x1="530.028448869386011" y1="124.012222306624608" x2="530.028448869386011" y2="241.241748434707915"/>
    <line class="cls-2" x1="556.731328043581925" y1="364.219024925565463" x2="573.37578111925086" y2="373.79855472570307"/>
    <polyline class="cls-2" points="601.395914412899401 283.990424783662093 602.234130122226816 283.391707977707483 602.832867229853036 282.433752967537657 603.192125735774425 281.116559753116235 603.431604337477438 279.679647539518555"/>
    <polyline class="cls-2" points="578.7642526744321 300.395378955938213 578.8840325786432 298.958446440661646 579.243291084555494 297.641273527919111 579.841946985462528 296.683318517734733 580.680162694797218 295.964842109264282"/>
    <line class="cls-2" x1="575.41147104382344" y1="302.311288976297874" x2="578.7642526744321" y2="300.395378955938213"/>
    <polyline class="cls-2" points="554.695719325721257 290.336871650695684 554.575939421510157 288.78019983456943 554.216762122307955 287.103768415912782 553.618025014683553 285.42735729893684 552.77980930535432 283.75094618194089"/>
    <polyline class="cls-2" points="577.327381064188558 298.000491430475449 576.489165354861143 298.59920823642824 575.890428247236741 299.557163246603523 575.531169741320809 300.874356461026764 575.41147104382344 302.311288976297874"/>
    <line class="cls-2" x1="598.043132782298017" y1="285.906334804023572" x2="601.395914412899401" y2="283.990424783662093"/>
    <polyline class="cls-2" points="600.078741500158685 281.595537258202967 599.959042802663134 283.032469773472258 599.48000439253974 284.349662987897318 598.881348491625431 285.307617998085334 598.043132782298017 285.906334804023572"/>
    <line class="cls-2" x1="603.431604337477438" y1="279.679647539518555" x2="600.078741500158685" y2="281.595537258202967"/>
    <polyline class="cls-2" points="531.944277683037399 247.827694205127045 531.106143180423715 246.151262786468578 530.507406072801132 244.47485166948718 530.148147566879743 242.798440552513057 530.028448869386011 241.241748434707915"/>
    <polyline class="cls-2" points="603.431604337477438 160.174952885147832 600.078741500158685 158.259042864787261 636.361251982895737 137.303812544969333 639.71403361350076 139.219722565345364 603.431604337477438 190.110996199166038 603.431604337477438 160.174952885147832 639.71403361350076 139.219722565345364"/>
    <polyline class="cls-2" points="533.381230499989215 121.138357276076022 533.381230499989215 119.701404459124205 569.663740982728086 98.746174139307186 573.016603820046839 100.662084159666847 551.821813691815805 130.478388172832638"/>
    <polyline class="cls-2" points="533.381230499989215 119.701404459124205 536.734093337309787 121.737053780334463 573.016603820046839 100.662084159666847"/>
  </g>
  <g>
    <polyline class="cls-2" points="638.470250024204688 44.067784473938445 639.275506401866551 43.722671811601685 640.310824885477814 43.550125232135542 641.288647346004836 43.607640758635171 642.208973783445799 43.8952183910651 642.956656124410983 44.297846579904217 643.416858349936774 44.815505821720762 643.474354373026472 45.390680590006923 643.186718230378574 45.965874861715747 642.611601972274912 46.48353410351865 641.806345594618506 46.828627262449118 640.828523134089664 46.943677818839205 639.793204650469306 46.886142788946927 638.872878213035619 46.656080682984793 638.125195872063159 46.253452494162957 637.722567683235866 45.678277725861335 637.607497623458585 45.103102957560623 637.895133766102845 44.527928189258091 638.470250024204688 44.067784473938445"/>
    <polyline class="cls-2" points="600.048318056958124 21.865874589039777 600.85357443461271 21.520781430095667 601.831396895141552 21.405730873720131 602.866715378758272 21.463246400220669 603.787041816197416 21.693328009578181 604.534724157166238 22.09595619839547 604.937352345997169 22.613615440216563 605.052422405772631 23.246305735000533 604.764786263122915 23.821480503300336 604.189670005028347 24.281624218620891 603.384413627366484 24.626736880958561 602.349095143749764 24.799283460422885 601.371272683220923 24.741767933939627 600.450946245781779 24.454190301491508 599.703263904814776 24.051562112658758 599.243061679296261 23.533902870854035 599.185565656206563 22.958728102553323 599.473201798854461 22.383533830843589 600.048318056958124 21.865874589039777"/>
    <polyline class="cls-2" points="533.270119836387494 49.877086690222313 533.270119836387494 46.195936967663329 600.508520282471181 7.371376811594928 667.746881721760474 46.195936967663329 667.746881721760474 49.877086690222313 600.508520282471181 88.701646846305266"/>
    <polyline class="cls-2" points="533.270119836387494 49.877086690222313 600.508520282471181 88.701646846305266 600.508520282471181 85.020497123749919 667.746881721760474 46.195936967663329"/>
    <line class="cls-2" x1="533.270119836387494" y1="46.195936967663329" x2="600.508520282471181" y2="85.020497123749919"/>
  </g>
  <g>
    <line class="cls-3" x1="534.42442215538631" y1="70.981052122255278" x2="533.79783524132381" y2="97.446262083192778"/>
    <polygon class="cls-1" points="531.07115067101131 95.274677000184965 533.81974686241756 96.52000781073184 536.62425125694881 95.406146726747465 533.69187821007381 101.922305784364653 531.07115067101131 95.274677000184965"/>
  </g>
  <g>
    <line class="cls-3" x1="601.86381424523006" y1="108.985538206239653" x2="601.23728836632381" y2="135.450748167177153"/>
    <polygon class="cls-1" points="598.51054276085506 133.27916308416934 601.25919998741756 134.524493894716215 604.06370438194881 133.41063281073184 601.13127029991756 139.926791868349028 598.51054276085506 133.27916308416934"/>
  </g>
</svg>