<?xml version="1.0" encoding="UTF-8"?>
<svg id="Layer_1" data-name="Layer 1" xmlns="http://www.w3.org/2000/svg" viewBox="0 0 845.74 337.61">
  <defs>
    <style>
      .cls-1 {
        fill: #d2155b;
      }

      .cls-2 {
        stroke: #000;
        stroke-width: .25px;
      }

      .cls-2, .cls-3, .cls-4 {
        fill: none;
        stroke-linecap: round;
        stroke-linejoin: round;
      }

      .cls-3 {
        stroke: #1d1e1c;
      }

      .cls-4 {
        stroke: #d2155b;
      }

      .cls-5 {
        font-family: MyriadPro-Regular, 'Myriad Pro';
        font-size: 10.11px;
      }

      .cls-5, .cls-6 {
        fill: #1d1e1c;
      }
    </style>
  </defs>
  <g>
    <polyline class="cls-2" points="267.06 298.24 265.74 297.25 263.76 296.92 262.11 297.91 262.11 299.56 263.76 300.55 265.74 300.22 267.06 298.9"/>
    <line class="cls-2" x1="267.06" y1="286.69" x2="267.06" y2="298.24"/>
    <polyline class="cls-2" points="268.71 298.9 269.37 300.22 271.02 300.55 272.66 300.22 273.65 298.9"/>
    <line class="cls-2" x1="268.71" y1="298.24" x2="268.71" y2="287.02"/>
    <polyline class="cls-2" points="273.65 298.24 272.66 297.25 271.02 296.92 269.37 297.25 268.71 298.24"/>
    <line class="cls-2" x1="273.65" y1="287.68" x2="273.65" y2="298.24"/>
    <polyline class="cls-2" points="275.3 298.9 275.96 300.22 277.61 300.55 279.26 300.22 280.25 298.9"/>
    <line class="cls-2" x1="275.3" y1="298.24" x2="275.3" y2="287.68"/>
    <polyline class="cls-2" points="280.25 298.24 279.26 297.25 277.61 296.92 275.96 297.25 275.3 298.24"/>
    <line class="cls-2" x1="280.25" y1="288.01" x2="280.25" y2="298.24"/>
    <polyline class="cls-2" points="281.9 298.9 282.56 300.22 284.21 300.55 285.86 300.22 286.85 298.9"/>
    <line class="cls-2" x1="281.9" y1="298.24" x2="281.9" y2="288.01"/>
    <polyline class="cls-2" points="286.85 298.24 285.86 297.25 284.21 296.92 282.56 297.25 281.9 298.24"/>
    <line class="cls-2" x1="286.85" y1="287.68" x2="286.85" y2="298.24"/>
    <polyline class="cls-2" points="288.5 298.9 289.16 300.22 290.81 300.55 292.46 300.22 293.45 298.9"/>
    <line class="cls-2" x1="288.5" y1="298.24" x2="288.5" y2="287.68"/>
    <polyline class="cls-2" points="293.45 298.24 292.46 297.25 290.81 296.92 289.16 297.25 288.5 298.24"/>
    <line class="cls-2" x1="293.45" y1="287.02" x2="293.45" y2="298.24"/>
    <line class="cls-2" x1="295.1" y1="298.24" x2="295.1" y2="286.69"/>
    <polyline class="cls-2" points="295.1 298.9 296.09 300.22 298.4 300.55 299.72 299.56 299.72 297.91 298.4 296.92 296.09 297.25 295.1 298.24"/>
    <polyline class="cls-2" points="316.87 289 325.12 284.71 332.38 279.43 338.65 273.49 343.26 267.23 346.56 260.3 348.21 253.04"/>
    <line class="cls-2" x1="244.95" y1="289" x2="261.78" y2="289"/>
    <line class="cls-2" x1="300.05" y1="289" x2="316.87" y2="289"/>
    <polyline class="cls-2" points="213.61 253.04 215.59 260.3 218.89 267.23 223.51 273.49 229.45 279.43 236.7 284.71 244.95 289"/>
    <polyline class="cls-2" points="348.21 253.04 348.21 245.45 348.54 241.16"/>
    <polyline class="cls-2" points="213.61 253.04 213.61 245.45 213.61 241.16"/>
    <line class="cls-2" x1="244.95" y1="280.42" x2="244.95" y2="289"/>
    <polyline class="cls-2" points="316.87 280.42 326.11 275.8 333.7 269.87 339.97 263.27 344.58 256.01 347.55 248.09 348.54 240.17"/>
    <polyline class="cls-2" points="213.61 240.17 214.27 248.09 217.24 256.01 221.86 263.27 228.13 269.87 236.05 275.8 244.95 280.42"/>
    <line class="cls-2" x1="316.87" y1="289" x2="316.87" y2="280.42"/>
    <polyline class="cls-2" points="213.61 237.54 214.6 245.78 217.57 253.7 222.52 261.29 229.12 268.22 237.69 274.15 247.26 278.77 257.82 282.4 269.37 284.71 280.91 285.37 292.79 284.71 304.01 282.4 314.89 278.77 324.46 274.15 332.71 268.22 339.64 261.29 344.58 253.7 347.55 245.78 348.54 237.54"/>
    <polyline class="cls-2" points="213.61 240.17 214.6 248.42 217.57 256.34 222.52 263.93 229.12 270.86 237.69 276.79 247.26 281.41 257.82 285.04 269.37 287.02 280.91 288.01 292.79 287.02 304.01 285.04 314.89 281.41 324.46 276.79 332.71 270.86 339.64 263.93 344.58 256.34 347.55 248.42 348.54 240.17"/>
    <polyline class="cls-2" points="213.94 213.45 213.61 221.7 214.93 229.62 218.23 237.54 223.51 244.79 230.44 251.06 238.68 256.67 248.25 261.29 258.48 264.59 269.7 266.57 280.91 267.23 292.46 266.57 303.35 264.59 313.9 261.29 323.47 256.67 331.72 251.06 338.32 244.79 343.59 237.54 346.89 229.62 348.54 221.7 347.88 213.45"/>
    <polyline class="cls-2" points="213.61 237.54 214.6 245.78 217.57 253.7 222.52 261.29 229.12 268.22 237.69 274.15 247.26 278.77 257.82 282.4 269.37 284.38 280.91 285.37 292.79 284.38 304.01 282.4 314.89 278.77 324.46 274.15 332.71 268.22 339.64 261.29 344.58 253.7 347.55 245.78 348.54 237.54"/>
    <polyline class="cls-2" points="213.94 212.13 214.93 220.38 217.9 228.3 222.85 235.56 229.78 242.48 238.02 248.42 247.59 253.04 258.15 256.67 269.37 258.65 280.91 259.31 292.79 258.65 304.01 256.67 314.56 253.04 324.13 248.42 332.38 242.48 338.98 235.56 343.92 228.3 346.89 220.38 347.88 212.13"/>
    <polyline class="cls-2" points="213.61 170.56 214.6 162.32 217.57 154.4 222.52 146.81 229.12 139.88 237.69 133.94 247.26 129.33 257.82 125.7 269.37 123.72 280.91 123.06 292.79 123.72 304.01 125.7 314.89 129.33 324.46 133.94 332.71 139.88 339.64 146.81 344.58 154.4 347.55 162.32 348.54 170.56 347.55 178.81 344.58 187.06 339.64 194.65 332.71 201.25 324.46 207.18 314.89 212.13 304.01 215.43 292.79 217.74 280.91 218.4 269.37 217.74 257.82 215.43 247.26 212.13 237.69 207.18 229.12 201.25 222.52 194.65 217.57 187.06 214.6 178.81 213.61 170.56"/>
    <polyline class="cls-2" points="213.61 204.54 214.6 212.79 217.57 220.71 222.52 228.3 229.12 235.23 237.69 241.16 247.26 245.78 257.82 249.41 269.37 251.39 280.91 252.38 292.79 251.39 304.01 249.41 314.89 245.78 324.46 241.16 332.71 235.23 339.64 228.3 344.58 220.71 347.55 212.79 348.54 204.54"/>
    <polyline class="cls-2" points="214.93 169.57 215.92 177.82 218.89 185.41 223.84 193 230.44 199.6 238.68 205.2 247.92 209.82 258.48 213.45 269.7 215.43 280.91 216.09 292.46 215.43 303.68 213.45 313.9 209.82 323.47 205.2 331.39 199.6 337.99 193 342.93 185.41 345.9 177.82 346.89 169.57 345.9 161.33 342.93 153.74 337.99 146.15 331.39 139.55 323.47 133.94 313.9 129 303.68 125.7 292.46 123.72 280.91 123.06 269.7 123.72 258.48 125.7 247.92 129 238.68 133.94 230.44 139.55 223.84 146.15 218.89 153.74 215.92 161.33 214.93 169.57"/>
    <polyline class="cls-2" points="326.77 159.02 325.78 160.67 323.14 161.66 320.5 161.33 318.52 160.01 318.52 158.03 320.5 156.38 323.14 156.05 325.78 157.04 326.77 159.02"/>
    <polyline class="cls-2" points="277.61 200.26 276.62 202.24 273.98 203.22 271.34 202.89 269.37 201.25 269.37 199.27 271.34 197.62 273.98 197.29 276.62 198.28 277.61 200.26"/>
    <polyline class="cls-2" points="251.22 149.45 250.23 151.43 247.92 152.42 244.95 152.09 243.3 150.44 243.3 148.46 244.95 146.81 247.92 146.48 250.23 147.47 251.22 149.45"/>
    <polyline class="cls-2" points="288.83 136.25 291.14 136.58 292.46 137.9 292.46 139.55 291.14 140.87 288.83 141.53"/>
    <polyline class="cls-2" points="318.52 189.7 317.86 191.35 315.55 192.34 312.91 192.01 311.26 190.69 311.26 188.71 312.91 187.39 315.55 187.06 317.86 188.05 318.52 189.7"/>
    <polyline class="cls-2" points="243.3 180.13 242.31 182.11 240 182.77 237.69 182.44 235.72 181.12 235.72 179.47 237.69 177.82 240 177.49 242.31 178.48 243.3 180.13"/>
    <polyline class="cls-2" points="249.9 169.57 250.56 174.85 253.53 179.8 257.82 184.09 263.43 187.72 270.03 190.03 277.28 191.35 284.87 191.35 292.13 190.03 298.73 187.72 304.34 184.09 308.62 179.8 311.26 174.85 312.25 169.57"/>
    <polyline class="cls-2" points="273.32 144.5 266.07 146.48 259.47 149.78 254.52 154.07 251.22 159.02 249.9 164.63 250.23 169.9 252.87 175.18 256.83 179.8 262.77 183.76 269.37 186.4 276.95 187.72 284.87 187.72 292.46 186.4 299.39 183.76 305 179.8 309.28 175.18 311.59 169.9 312.25 164.63 310.6 159.02 307.3 154.07 302.36 149.78 296.09 146.48 288.83 144.5"/>
    <polyline class="cls-2" points="288.83 159.02 291.8 161.66 293.45 164.63 293.12 167.92 291.14 170.89 287.84 173.2 283.22 174.52 278.6 174.52 274.31 173.2 271.02 170.89 269.04 167.92 268.71 164.63 270.03 161.66 273.32 159.02"/>
    <polyline class="cls-2" points="293.45 166.61 292.13 163.31 288.83 160.34"/>
    <polyline class="cls-2" points="273.32 160.34 270.03 163.31 268.71 166.61"/>
    <polyline class="cls-2" points="273.32 167.27 273.98 169.9 276.29 171.55 279.26 172.87 282.56 172.87 285.86 171.55 288.17 169.9 288.83 167.27"/>
    <polyline class="cls-2" points="287.84 127.68 288.83 130.32 287.51 132.95 284.87 134.93 280.91 135.92 277.28 134.93 274.31 132.95 273.32 130.32 273.98 127.68"/>
    <polyline class="cls-2" points="273.65 129.66 274.64 131.97 277.28 133.94 280.91 134.6 284.54 133.94 287.18 131.97 288.17 129.66 287.18 127.02 284.54 125.04 280.91 124.38 277.28 125.04 274.64 127.02 273.65 129.66"/>
    <polyline class="cls-2" points="222.85 235.56 229.78 242.48 238.02 248.42 247.59 253.04 258.15 256.67 269.37 258.65 280.91 259.31 292.79 258.65 304.01 256.67 314.56 253.04 324.13 248.42 332.38 242.48 338.98 235.56"/>
    <polyline class="cls-2" points="213.94 212.13 214.93 220.38 217.9 228.3 222.85 235.56 229.78 242.48 238.02 248.42 247.59 253.04 258.15 256.67 269.37 258.65 280.91 259.31 292.79 258.65 304.01 256.67 314.56 253.04 324.13 248.42 332.38 242.48 338.98 235.56 343.92 228.3 346.89 220.38 347.88 212.13"/>
    <polyline class="cls-2" points="213.94 219.39 214.93 227.64 217.9 235.89 222.85 243.14 229.78 250.07 238.02 255.68 247.59 260.63 258.15 263.93 269.37 266.24 280.91 266.9 292.79 266.24 304.01 263.93 314.56 260.63 324.13 255.68 332.38 250.07 338.98 243.14 343.92 235.89 346.89 227.64 347.88 219.39"/>
    <polyline class="cls-2" points="224.83 263.93 231.76 270.2 240 275.47 249.24 279.76 259.14 282.73 270.03 284.71 280.91 285.37 292.13 284.71 302.69 282.73 312.91 279.76 322.15 275.47 330.4 270.2 337 263.93"/>
    <line class="cls-2" x1="316.87" y1="280.42" x2="316.87" y2="280.42"/>
    <polyline class="cls-2" points="316.87 280.42 324.46 276.46 331.39 271.85 337 266.57"/>
    <polyline class="cls-2" points="224.83 266.57 230.77 271.85 237.36 276.46 244.95 280.42"/>
    <line class="cls-2" x1="244.95" y1="280.42" x2="244.95" y2="280.42"/>
    <line class="cls-2" x1="316.87" y1="280.42" x2="316.87" y2="280.42"/>
    <line class="cls-2" x1="267.06" y1="298.9" x2="268.71" y2="298.9"/>
    <line class="cls-2" x1="273.65" y1="298.9" x2="275.3" y2="298.9"/>
    <line class="cls-2" x1="280.25" y1="298.9" x2="281.9" y2="298.9"/>
    <line class="cls-2" x1="286.85" y1="298.9" x2="288.5" y2="298.9"/>
    <line class="cls-2" x1="293.45" y1="298.9" x2="295.1" y2="298.9"/>
    <line class="cls-2" x1="295.1" y1="298.24" x2="293.45" y2="298.24"/>
    <line class="cls-2" x1="288.5" y1="298.24" x2="286.85" y2="298.24"/>
    <line class="cls-2" x1="281.9" y1="298.24" x2="280.25" y2="298.24"/>
    <line class="cls-2" x1="275.3" y1="298.24" x2="273.65" y2="298.24"/>
    <line class="cls-2" x1="268.71" y1="298.24" x2="267.06" y2="298.24"/>
    <line class="cls-2" x1="261.78" y1="298.57" x2="261.78" y2="286.03"/>
    <line class="cls-2" x1="300.05" y1="298.57" x2="300.05" y2="286.03"/>
    <line class="cls-2" x1="348.54" y1="240.17" x2="348.54" y2="241.16"/>
    <line class="cls-2" x1="213.61" y1="240.17" x2="213.61" y2="241.16"/>
    <line class="cls-2" x1="348.54" y1="237.54" x2="348.54" y2="240.17"/>
    <line class="cls-2" x1="213.61" y1="237.54" x2="213.61" y2="240.17"/>
    <line class="cls-2" x1="348.54" y1="219.39" x2="348.54" y2="237.54"/>
    <line class="cls-2" x1="213.61" y1="219.39" x2="213.61" y2="237.54"/>
    <line class="cls-2" x1="347.88" y1="210.48" x2="347.88" y2="212.13"/>
    <line class="cls-2" x1="213.94" y1="210.48" x2="213.94" y2="212.13"/>
    <line class="cls-2" x1="348.54" y1="170.56" x2="348.54" y2="204.54"/>
    <line class="cls-2" x1="213.61" y1="170.56" x2="213.61" y2="204.54"/>
    <line class="cls-2" x1="249.9" y1="169.57" x2="249.9" y2="165.95"/>
    <line class="cls-2" x1="312.25" y1="169.57" x2="312.25" y2="165.95"/>
    <line class="cls-2" x1="288.83" y1="130.32" x2="288.83" y2="167.27"/>
    <line class="cls-2" x1="273.32" y1="130.32" x2="273.32" y2="167.27"/>
    <line class="cls-2" x1="287.51" y1="127.02" x2="287.84" y2="127.68"/>
    <line class="cls-2" x1="274.64" y1="127.02" x2="273.98" y2="127.68"/>
    <line class="cls-2" x1="347.88" y1="212.13" x2="347.88" y2="219.39"/>
    <line class="cls-2" x1="213.94" y1="212.13" x2="213.94" y2="219.39"/>
  </g>
  <g>
    <g>
      <polyline class="cls-2" points="549.28 298.61 547.96 297.62 545.98 297.29 544.33 298.28 544.33 299.93 545.98 300.92 547.96 300.59 549.28 299.27"/>
      <line class="cls-2" x1="549.28" y1="287.06" x2="549.28" y2="298.61"/>
      <polyline class="cls-2" points="550.93 299.27 551.59 300.59 553.24 300.92 554.89 300.59 555.88 299.27"/>
      <line class="cls-2" x1="550.93" y1="298.61" x2="550.93" y2="287.39"/>
      <polyline class="cls-2" points="555.88 298.61 554.89 297.62 553.24 297.29 551.59 297.62 550.93 298.61"/>
      <line class="cls-2" x1="555.88" y1="288.05" x2="555.88" y2="298.61"/>
      <polyline class="cls-2" points="557.53 299.27 558.19 300.59 559.84 300.92 561.49 300.59 562.48 299.27"/>
      <line class="cls-2" x1="557.53" y1="298.61" x2="557.53" y2="288.05"/>
      <polyline class="cls-2" points="562.48 298.61 561.49 297.62 559.84 297.29 558.19 297.62 557.53 298.61"/>
      <line class="cls-2" x1="562.48" y1="288.38" x2="562.48" y2="298.61"/>
      <polyline class="cls-2" points="564.13 299.27 564.79 300.59 566.44 300.92 568.09 300.59 569.08 299.27"/>
      <line class="cls-2" x1="564.13" y1="298.61" x2="564.13" y2="288.38"/>
      <polyline class="cls-2" points="569.08 298.61 568.09 297.62 566.44 297.29 564.79 297.62 564.13 298.61"/>
      <line class="cls-2" x1="569.08" y1="288.05" x2="569.08" y2="298.61"/>
      <polyline class="cls-2" points="570.73 299.27 571.39 300.59 573.04 300.92 574.68 300.59 575.67 299.27"/>
      <line class="cls-2" x1="570.73" y1="298.61" x2="570.73" y2="288.05"/>
      <polyline class="cls-2" points="575.67 298.61 574.68 297.62 573.04 297.29 571.39 297.62 570.73 298.61"/>
      <line class="cls-2" x1="575.67" y1="287.39" x2="575.67" y2="298.61"/>
      <line class="cls-2" x1="577.32" y1="298.61" x2="577.32" y2="287.06"/>
      <polyline class="cls-2" points="577.32 299.27 578.31 300.59 580.62 300.92 581.94 299.93 581.94 298.28 580.62 297.29 578.31 297.62 577.32 298.61"/>
      <polyline class="cls-2" points="599.1 289.37 607.35 285.08 614.6 279.8 620.87 273.87 625.49 267.6 628.79 260.67 630.44 253.41"/>
      <line class="cls-2" x1="527.18" y1="289.37" x2="544" y2="289.37"/>
      <line class="cls-2" x1="582.27" y1="289.37" x2="599.1" y2="289.37"/>
      <polyline class="cls-2" points="495.84 253.41 497.82 260.67 501.12 267.6 505.73 273.87 511.67 279.8 518.93 285.08 527.18 289.37"/>
      <polyline class="cls-2" points="630.44 253.41 630.44 245.82 630.77 241.53"/>
      <polyline class="cls-2" points="495.84 253.41 495.84 245.82 495.84 241.53"/>
      <line class="cls-2" x1="527.18" y1="280.79" x2="527.18" y2="289.37"/>
      <polyline class="cls-2" points="599.1 280.79 608.34 276.17 615.92 270.24 622.19 263.64 626.81 256.38 629.78 248.46 630.77 240.55"/>
      <polyline class="cls-2" points="495.84 240.55 496.5 248.46 499.47 256.38 504.09 263.64 510.35 270.24 518.27 276.17 527.18 280.79"/>
      <line class="cls-2" x1="599.1" y1="289.37" x2="599.1" y2="280.79"/>
      <polyline class="cls-2" points="495.84 237.91 496.83 246.15 499.8 254.07 504.74 261.66 511.34 268.59 519.92 274.53 529.49 279.14 540.04 282.77 551.59 285.08 563.14 285.74 575.01 285.08 586.23 282.77 597.12 279.14 606.69 274.53 614.93 268.59 621.86 261.66 626.81 254.07 629.78 246.15 630.77 237.91"/>
      <polyline class="cls-2" points="495.84 240.55 496.83 248.79 499.8 256.71 504.74 264.3 511.34 271.23 519.92 277.16 529.49 281.78 540.04 285.41 551.59 287.39 563.14 288.38 575.01 287.39 586.23 285.41 597.12 281.78 606.69 277.16 614.93 271.23 621.86 264.3 626.81 256.71 629.78 248.79 630.77 240.55"/>
      <polyline class="cls-2" points="496.17 213.82 495.84 222.07 497.16 229.99 500.46 237.91 505.73 245.16 512.66 251.43 520.91 257.04 530.48 261.66 540.7 264.96 551.92 266.94 563.14 267.6 574.68 266.94 585.57 264.96 596.13 261.66 605.7 257.04 613.94 251.43 620.54 245.16 625.82 237.91 629.12 229.99 630.77 222.07 630.11 213.82"/>
      <polyline class="cls-2" points="495.84 237.91 496.83 246.15 499.8 254.07 504.74 261.66 511.34 268.59 519.92 274.53 529.49 279.14 540.04 282.77 551.59 284.75 563.14 285.74 575.01 284.75 586.23 282.77 597.12 279.14 606.69 274.53 614.93 268.59 621.86 261.66 626.81 254.07 629.78 246.15 630.77 237.91"/>
      <polyline class="cls-2" points="496.17 212.5 497.16 220.75 500.13 228.67 505.07 235.93 512 242.85 520.25 248.79 529.82 253.41 540.37 257.04 551.59 259.02 563.14 259.68 575.01 259.02 586.23 257.04 596.79 253.41 606.36 248.79 614.6 242.85 621.2 235.93 626.15 228.67 629.12 220.75 630.11 212.5"/>
      <polyline class="cls-2" points="495.84 170.93 496.83 162.69 499.8 154.77 504.74 147.18 511.34 140.25 519.92 134.32 529.49 129.7 540.04 126.07 551.59 124.09 563.14 123.43 575.01 124.09 586.23 126.07 597.12 129.7 606.69 134.32 614.93 140.25 621.86 147.18 626.81 154.77 629.78 162.69 630.77 170.93 629.78 179.18 626.81 187.43 621.86 195.02 614.93 201.62 606.69 207.55 597.12 212.5 586.23 215.8 575.01 218.11 563.14 218.77 551.59 218.11 540.04 215.8 529.49 212.5 519.92 207.55 511.34 201.62 504.74 195.02 499.8 187.43 496.83 179.18 495.84 170.93"/>
      <polyline class="cls-2" points="495.84 204.92 496.83 213.16 499.8 221.08 504.74 228.67 511.34 235.6 519.92 241.53 529.49 246.15 540.04 249.78 551.59 251.76 563.14 252.75 575.01 251.76 586.23 249.78 597.12 246.15 606.69 241.53 614.93 235.6 621.86 228.67 626.81 221.08 629.78 213.16 630.77 204.92"/>
      <polyline class="cls-2" points="497.16 169.95 498.15 178.19 501.12 185.78 506.06 193.37 512.66 199.97 520.91 205.58 530.15 210.19 540.7 213.82 551.92 215.8 563.14 216.46 574.68 215.8 585.9 213.82 596.13 210.19 605.7 205.58 613.61 199.97 620.21 193.37 625.16 185.78 628.13 178.19 629.12 169.95 628.13 161.7 625.16 154.11 620.21 146.52 613.61 139.92 605.7 134.32 596.13 129.37 585.9 126.07 574.68 124.09 563.14 123.43 551.92 124.09 540.7 126.07 530.15 129.37 520.91 134.32 512.66 139.92 506.06 146.52 501.12 154.11 498.15 161.7 497.16 169.95"/>
      <polyline class="cls-2" points="609 159.39 608.01 161.04 605.37 162.03 602.73 161.7 600.75 160.38 600.75 158.4 602.73 156.75 605.37 156.42 608.01 157.41 609 159.39"/>
      <polyline class="cls-2" points="559.84 200.63 558.85 202.61 556.21 203.6 553.57 203.27 551.59 201.62 551.59 199.64 553.57 197.99 556.21 197.66 558.85 198.65 559.84 200.63"/>
      <polyline class="cls-2" points="533.45 149.82 532.46 151.8 530.15 152.79 527.18 152.46 525.53 150.81 525.53 148.83 527.18 147.18 530.15 146.85 532.46 147.84 533.45 149.82"/>
      <polyline class="cls-2" points="571.06 136.62 573.37 136.95 574.68 138.27 574.68 139.92 573.37 141.24 571.06 141.9"/>
      <polyline class="cls-2" points="600.75 190.07 600.09 191.72 597.78 192.71 595.14 192.38 593.49 191.06 593.49 189.08 595.14 187.76 597.78 187.43 600.09 188.42 600.75 190.07"/>
      <polyline class="cls-2" points="525.53 180.5 524.54 182.48 522.23 183.14 519.92 182.81 517.94 181.49 517.94 179.84 519.92 178.19 522.23 177.86 524.54 178.85 525.53 180.5"/>
      <polyline class="cls-2" points="532.13 169.95 532.79 175.22 535.76 180.17 540.04 184.46 545.65 188.09 552.25 190.4 559.51 191.72 567.1 191.72 574.35 190.4 580.95 188.09 586.56 184.46 590.85 180.17 593.49 175.22 594.48 169.95"/>
      <polyline class="cls-2" points="555.55 144.87 548.29 146.85 541.69 150.15 536.75 154.44 533.45 159.39 532.13 165 532.46 170.28 535.1 175.55 539.06 180.17 544.99 184.13 551.59 186.77 559.18 188.09 567.1 188.09 574.68 186.77 581.61 184.13 587.22 180.17 591.51 175.55 593.82 170.28 594.48 165 592.83 159.39 589.53 154.44 584.58 150.15 578.31 146.85 571.06 144.87"/>
      <polyline class="cls-2" points="571.06 159.39 574.03 162.03 575.67 165 575.34 168.3 573.37 171.26 570.07 173.57 565.45 174.89 560.83 174.89 556.54 173.57 553.24 171.26 551.26 168.3 550.93 165 552.25 162.03 555.55 159.39"/>
      <polyline class="cls-2" points="575.67 166.98 574.35 163.68 571.06 160.71"/>
      <polyline class="cls-2" points="555.55 160.71 552.25 163.68 550.93 166.98"/>
      <polyline class="cls-2" points="558.52 171.92 561.49 173.24 564.79 173.24 568.09 171.92 570.4 170.28 571.06 167.64"/>
      <polyline class="cls-2" points="570.07 128.05 571.06 130.69 569.74 133.33 567.1 135.31 563.14 136.29 559.51 135.31"/>
      <polyline class="cls-2" points="559.51 134.32 563.14 134.98 566.77 134.32 569.41 132.34 570.4 130.03 569.85 127.31 567.21 125.33 563.14 124.75 559.02 125.33 556.38 127.31"/>
      <polyline class="cls-2" points="505.07 235.93 512 242.85 520.25 248.79 529.82 253.41 540.37 257.04 551.59 259.02 563.14 259.68 575.01 259.02 586.23 257.04 596.79 253.41 606.36 248.79 614.6 242.85 621.2 235.93"/>
      <polyline class="cls-2" points="496.17 212.5 497.16 220.75 500.13 228.67 505.07 235.93 512 242.85 520.25 248.79 529.82 253.41 540.37 257.04 551.59 259.02 563.14 259.68 575.01 259.02 586.23 257.04 596.79 253.41 606.36 248.79 614.6 242.85 621.2 235.93 626.15 228.67 629.12 220.75 630.11 212.5"/>
      <polyline class="cls-2" points="496.17 219.76 497.16 228.01 500.13 236.26 505.07 243.51 512 250.44 520.25 256.05 529.82 261 540.37 264.3 551.59 266.61 563.14 267.27 575.01 266.61 586.23 264.3 596.79 261 606.36 256.05 614.6 250.44 621.2 243.51 626.15 236.26 629.12 228.01 630.11 219.76"/>
      <polyline class="cls-2" points="507.05 264.3 513.98 270.57 522.23 275.84 531.47 280.13 541.36 283.1 552.25 285.08 563.14 285.74 574.35 285.08 584.91 283.1 595.14 280.13 604.38 275.84 612.62 270.57 619.22 264.3"/>
      <line class="cls-2" x1="599.1" y1="280.79" x2="599.1" y2="280.79"/>
      <polyline class="cls-2" points="599.1 280.79 606.69 276.83 613.61 272.22 619.22 266.94"/>
      <polyline class="cls-2" points="507.05 266.94 512.99 272.22 519.59 276.83 527.18 280.79"/>
      <line class="cls-2" x1="527.18" y1="280.79" x2="527.18" y2="280.79"/>
      <line class="cls-2" x1="599.1" y1="280.79" x2="599.1" y2="280.79"/>
      <line class="cls-2" x1="549.28" y1="299.27" x2="550.93" y2="299.27"/>
      <line class="cls-2" x1="555.88" y1="299.27" x2="557.53" y2="299.27"/>
      <line class="cls-2" x1="562.48" y1="299.27" x2="564.13" y2="299.27"/>
      <line class="cls-2" x1="569.08" y1="299.27" x2="570.73" y2="299.27"/>
      <line class="cls-2" x1="575.67" y1="299.27" x2="577.32" y2="299.27"/>
      <line class="cls-2" x1="577.32" y1="298.61" x2="575.67" y2="298.61"/>
      <line class="cls-2" x1="570.73" y1="298.61" x2="569.08" y2="298.61"/>
      <line class="cls-2" x1="564.13" y1="298.61" x2="562.48" y2="298.61"/>
      <line class="cls-2" x1="557.53" y1="298.61" x2="555.88" y2="298.61"/>
      <line class="cls-2" x1="550.93" y1="298.61" x2="549.28" y2="298.61"/>
      <line class="cls-2" x1="544" y1="298.94" x2="544" y2="286.4"/>
      <line class="cls-2" x1="582.27" y1="298.94" x2="582.27" y2="286.4"/>
      <line class="cls-2" x1="630.77" y1="240.55" x2="630.77" y2="241.53"/>
      <line class="cls-2" x1="495.84" y1="240.55" x2="495.84" y2="241.53"/>
      <line class="cls-2" x1="630.77" y1="237.91" x2="630.77" y2="240.55"/>
      <line class="cls-2" x1="495.84" y1="237.91" x2="495.84" y2="240.55"/>
      <line class="cls-2" x1="630.77" y1="219.76" x2="630.77" y2="237.91"/>
      <line class="cls-2" x1="495.84" y1="219.76" x2="495.84" y2="237.91"/>
      <line class="cls-2" x1="630.11" y1="210.85" x2="630.11" y2="212.5"/>
      <line class="cls-2" x1="496.17" y1="210.85" x2="496.17" y2="212.5"/>
      <line class="cls-2" x1="630.77" y1="170.93" x2="630.77" y2="204.92"/>
      <line class="cls-2" x1="495.84" y1="170.93" x2="495.84" y2="204.92"/>
      <line class="cls-2" x1="532.13" y1="169.95" x2="532.13" y2="166.32"/>
      <line class="cls-2" x1="594.48" y1="169.95" x2="594.48" y2="166.32"/>
      <line class="cls-2" x1="571.06" y1="130.69" x2="571.06" y2="167.64"/>
      <line class="cls-2" x1="569.74" y1="127.39" x2="570.07" y2="128.05"/>
      <line class="cls-2" x1="630.11" y1="212.5" x2="630.11" y2="219.76"/>
      <line class="cls-2" x1="496.17" y1="212.5" x2="496.17" y2="219.76"/>
    </g>
    <line class="cls-2" x1="559.17" y1="135.17" x2="559.17" y2="172.12"/>
    <line class="cls-2" x1="556.87" y1="127.39" x2="559.17" y2="135.17"/>
    <line class="cls-2" x1="555.62" y1="162.13" x2="558.23" y2="171.78"/>
    <line class="cls-2" x1="556.32" y1="127.32" x2="555.49" y2="161.8"/>
  </g>
  <g>
    <line class="cls-3" x1="387.35" y1="206.29" x2="456.69" y2="206.29"/>
    <polygon class="cls-6" points="453.88 210 455.46 206.29 453.88 202.59 462.66 206.29 453.88 210"/>
  </g>
  <g>
    <line class="cls-4" x1="283.13" y1="42.32" x2="283.13" y2="99.29"/>
    <polygon class="cls-1" points="279.43 96.48 283.13 98.05 286.83 96.48 283.13 105.26 279.43 96.48"/>
  </g>
  <text class="cls-5" transform="translate(274.16 30.88)"><tspan x="0" y="0">FILE </tspan></text>
</svg>