<?xml version="1.0" encoding="UTF-8"?><svg id="Layer_1" xmlns="http://www.w3.org/2000/svg" viewBox="0 0 837.93 83.47"><defs><style>.cls-1,.cls-2,.cls-3,.cls-4,.cls-5,.cls-6,.cls-7{fill:none;}.cls-1,.cls-2,.cls-3,.cls-4,.cls-7{stroke-linecap:round;stroke-linejoin:round;}.cls-1,.cls-2,.cls-7{stroke:#d3175b;}.cls-2,.cls-5,.cls-7{stroke-width:.5px;}.cls-8{fill:#1e1e1c;}.cls-3{stroke:#000;stroke-width:.25px;}.cls-4{stroke-width:.75px;}.cls-4,.cls-5{stroke:#1e1e1c;}.cls-5{stroke-miterlimit:10;}.cls-7{stroke-dasharray:0 1;}</style></defs><line class="cls-4" x1="375.21" y1="57.1" x2="412.5" y2="57.1"/><polygon class="cls-8" points="410.39 59.88 411.57 57.1 410.39 54.33 416.98 57.1 410.39 59.88"/><polyline class="cls-3" points="37.74 74.24 38.16 73.64 38.76 73.29 39.36 73.29 39.88 73.55"/><polyline class="cls-3" points="39.88 61.21 39.36 61.3 38.76 61.47 37.91 62.24 37.39 63.36 37.22 64.47"/><polyline class="cls-3" points="37.22 76.38 37.31 75.26 37.74 74.24"/><polyline class="cls-3" points="134.38 72.87 134.98 72.95 135.49 73.21 136.35 74.06 136.86 75.09 137.03 76.38"/><polyline class="cls-3" points="137.03 64.47 136.86 63.36 136.35 62.24 135.49 61.47 134.89 61.3 134.38 61.21"/><line class="cls-3" x1="37.22" y1="80.4" x2="37.22" y2="64.47"/><line class="cls-3" x1="137.03" y1="64.47" x2="137.03" y2="80.4"/><polyline class="cls-3" points="52.21 53.07 53.41 53.16 54.53 53.07"/><line class="cls-3" x1="95.22" y1="61.21" x2="134.38" y2="61.21"/><line class="cls-3" x1="58.3" y1="74.66" x2="64.21" y2="74.66"/><polyline class="cls-3" points="48.44 74.66 49.22 72.87 50.16 71.32 50.84 70.64 51.61 70.04 52.47 69.7 53.41 69.61 54.36 69.7 55.21 70.04 55.9 70.64 56.58 71.32 57.61 72.87 58.3 74.66"/><line class="cls-3" x1="42.62" y1="74.66" x2="48.44" y2="74.66"/><polyline class="cls-3" points="59.07 56.59 59.07 56.59 59.07 61.21 59.07 69.01"/><polyline class="cls-3" points="58.3 74.66 58.55 73.55 58.73 72.44 58.98 70.81 59.07 69.01"/><polyline class="cls-3" points="11.61 61.21 19.66 61.21 37.22 61.21 39.88 61.21"/><polyline class="cls-3" points="59.07 56.59 58.98 55.9 58.64 55.22 58.13 54.53 57.35 54.02 56.5 53.59 55.56 53.25 54.53 53.07 53.41 52.99 52.3 53.07 51.27 53.25 50.24 53.59 49.39 54.02 48.7 54.53 48.19 55.22 47.85 55.9 47.76 56.59"/><line class="cls-3" x1="47.76" y1="56.59" x2="47.76" y2="56.59"/><polyline class="cls-3" points="19.66 54.62 19.66 42.79 19.66 30.2"/><polyline class="cls-3" points="87.08 30.2 87.08 42.79 87.08 54.62"/><polyline class="cls-3" points="32.6 46.73 32.6 43.91 32.6 29.51"/><polyline class="cls-3" points="32.6 46.73 74.15 46.73 74.15 43.91 74.15 29.51"/><line class="cls-3" x1="32.6" y1="33.03" x2="74.15" y2="33.03"/><polyline class="cls-3" points="33.54 45.11 41.76 45.11 41.76 35.17 33.54 35.17 33.54 45.11"/><polyline class="cls-3" points="65.07 35.17 65.07 45.11 73.29 45.11 73.29 35.17 65.07 35.17"/><polyline class="cls-3" points="27.8 35 28.74 35.17 29.51 35.68 29.85 36.37 29.77 37.14 29.17 37.74 28.23 38.08 27.28 38.08 26.34 37.74 25.74 37.14 25.66 36.37 26 35.68 26.77 35.17 27.8 35"/><line class="cls-3" x1="32.6" y1="29.51" x2="21.71" y2="29.51"/><line class="cls-3" x1="21.71" y1="43.91" x2="32.6" y2="43.91"/><polyline class="cls-3" points="79.03 35 79.97 35.17 80.74 35.68 81.09 36.37 81 37.14 80.4 37.74 79.54 38.08 78.52 38.08 77.66 37.74 77.06 37.14 76.89 36.37 77.32 35.68 78.09 35.17 79.03 35"/><line class="cls-3" x1="74.15" y1="43.91" x2="85.11" y2="43.91"/><line class="cls-3" x1="85.11" y1="29.51" x2="74.15" y2="29.51"/><polyline class="cls-3" points="87.08 42.79 85.11 42.79 85.11 28.06 21.71 28.06 21.71 42.79 19.66 42.79"/><line class="cls-3" x1="21.71" y1="43.91" x2="21.71" y2="42.79"/><line class="cls-3" x1="85.11" y1="43.91" x2="85.11" y2="42.79"/><polyline class="cls-3" points="47.76 69.01 47.85 70.81 48.02 72.44 48.27 73.55 48.44 74.66"/><polyline class="cls-3" points="47.76 69.01 47.76 61.21 47.76 56.59"/><line class="cls-3" x1="137.03" y1="80.4" x2="162.65" y2="80.4"/><polyline class="cls-3" points="27.8 25.06 25.91 25.23 24.11 25.66 22.4 26.43 20.86 27.46 19.49 28.66"/><line class="cls-3" x1="79.03" y1="25.06" x2="27.8" y2="25.06"/><path class="cls-3" d="m162.69,80.4c5.51,0,10.23-3.92,11.24-9.34,1.01-5.41-1.98-10.78-7.11-12.77"/><polyline class="cls-3" points="83.14 25.83 81.17 25.32 79.03 25.06"/><line class="cls-3" x1="87.77" y1="27.63" x2="83.14" y2="25.83"/><line class="cls-3" x1="96.51" y1="31.06" x2="134.55" y2="45.79"/><line class="cls-3" x1="166.85" y1="58.21" x2="149.03" y2="51.36"/><line class="cls-3" x1="9.81" y1="46.73" x2="1.32" y2="63.78"/><path class="cls-3" d="m1.33,63.85c-1.77,3.55-1.58,7.76.5,11.13,2.08,3.37,5.77,5.42,9.73,5.42"/><line class="cls-3" x1="11.61" y1="80.4" x2="37.22" y2="80.4"/><line class="cls-3" x1="79.03" y1="24.46" x2="83.4" y2="25.23"/><polyline class="cls-3" points="19.49 28.66 19.06 29.09 18.63 29.69 18.03 30.46 17.52 31.4"/><line class="cls-3" x1="87.77" y1="27.63" x2="96.51" y2="31.06"/><polyline class="cls-3" points="9.81 46.73 11.01 44.51 11.69 43.14 17.52 31.4"/><polyline class="cls-3" points="87.43 56.59 87.77 57.36 88.11 57.96 88.45 58.39 88.8 58.81 89.57 59.5 90.51 60.1 91.54 60.53 92.65 60.87 93.94 61.13 95.22 61.21"/><line class="cls-3" x1="19.66" y1="30.2" x2="19.49" y2="28.66"/><polyline class="cls-3" points="87.77 27.63 87.25 28.91 87.08 30.2"/><polyline class="cls-3" points="11.61 61.21 12.98 61.13 14.35 60.87 15.55 60.44 16.66 59.84 17.6 59.16 18.37 58.39 18.97 57.53 19.32 56.59 19.57 55.56 19.66 54.62"/><polyline class="cls-3" points="87.08 54.62 87.17 55.56 87.43 56.59"/><polyline class="cls-3" points="134.55 45.79 139.09 47.51 149.03 51.36"/><path class="cls-3" d="m162.69,65.67c-1.82,0-3.3,1.48-3.3,3.3,0,1.82,1.48,3.3,3.3,3.3,1.82,0,3.3-1.48,3.3-3.3,0-1.82-1.48-3.3-3.3-3.3"/><path class="cls-3" d="m11.56,65.67c-1.82,0-3.3,1.48-3.3,3.3,0,1.82,1.48,3.3,3.3,3.3,1.82,0,3.3-1.48,3.3-3.3,0-1.82-1.48-3.3-3.3-3.3"/><polyline class="cls-3" points="69.01 72.87 68.41 72.95 67.72 73.12 67.21 73.29 66.78 73.64"/><line class="cls-3" x1="39.88" y1="73.55" x2="40.05" y2="73.64"/><polyline class="cls-3" points="66.52 73.81 65.49 74.41 64.89 74.58 64.21 74.66"/><polyline class="cls-3" points="42.62 74.66 41.93 74.58 41.33 74.41 40.73 74.15 40.31 73.81"/><line class="cls-3" x1="66.52" y1="73.81" x2="66.78" y2="73.64"/><line class="cls-3" x1="40.05" y1="73.64" x2="40.31" y2="73.81"/><line class="cls-3" x1="69.01" y1="72.87" x2="134.38" y2="72.87"/><polyline class="cls-3" points="83.4 25.23 82.03 24.8 80.49 24.55 79.03 24.46"/><path class="cls-8" d="m212.05,50.94v3.72h3.58v.95h-3.58v3.75h-1.01v-3.75h-3.58v-.95h3.58v-3.72h1.01Z"/><polyline class="cls-3" points="317.68 73.08 318.6 73.88 318.82 74.8 318.37 75.71 317.34 76.51 315.97 76.85 314.26 76.96 312.78 76.62 311.64 75.94 310.96 75.02 311.07 74.11 311.87 73.2 313.12 72.63 314.72 72.4 316.32 72.51 317.68 73.08"/><polyline class="cls-3" points="318.25 75.82 317.23 75.14 315.75 74.8 314.03 74.8 312.55 75.14 311.53 75.82"/><polyline class="cls-3" points="269.44 45.26 270.35 45.94 270.58 46.97 270.13 47.88 269.1 48.56 267.62 49.02 266.02 49.02 264.54 48.68 263.28 48.11 262.71 47.2 262.83 46.17 263.63 45.37 264.88 44.8 266.48 44.57 268.07 44.69 269.44 45.26"/><polyline class="cls-3" points="270.01 47.99 268.99 47.31 267.5 46.97 265.79 46.97 264.31 47.31 263.28 47.99"/><polyline class="cls-3" points="279.71 49.14 280.28 49.59 280.28 50.16 279.59 50.73 278.68 50.85 277.65 50.73 276.97 50.16 276.97 49.59 277.54 49.14"/><polyline class="cls-3" points="273.21 52.78 273.89 53.35 273.78 53.93 273.21 54.38 272.18 54.61 271.15 54.38 270.58 53.93 270.47 53.35 271.15 52.78"/><polyline class="cls-3" points="310.73 66.93 311.3 67.5 311.3 68.07 310.61 68.52 309.59 68.75 308.56 68.52 307.99 68.07 307.99 67.5 308.56 66.93"/><polyline class="cls-3" points="304.23 70.69 304.8 71.15 304.8 71.83 304.11 72.29 303.2 72.51 302.17 72.29 301.49 71.83 301.49 71.15 302.06 70.69"/><polyline class="cls-3" points="269.21 40.47 267.5 40.7 266.02 41.27"/><line class="cls-3" x1="266.02" y1="41.27" x2="257.13" y2="46.4"/><polyline class="cls-3" points="257.13 46.4 256.1 47.2 255.64 48.11 255.64 49.14 256.1 50.05 257.13 50.85"/><polyline class="cls-3" points="257.13 53.24 256.21 52.56 255.76 51.76 255.53 50.96"/><line class="cls-3" x1="257.13" y1="50.85" x2="307.88" y2="80.16"/><line class="cls-3" x1="307.88" y1="82.55" x2="257.13" y2="53.24"/><polyline class="cls-3" points="307.88 80.16 309.24 80.73 310.84 81.07 312.55 81.07 314.15 80.73 315.52 80.16"/><polyline class="cls-3" points="315.52 82.55 314.15 83.12 312.55 83.35 310.84 83.35 309.24 83.12 307.88 82.55"/><line class="cls-3" x1="315.52" y1="80.16" x2="324.41" y2="75.02"/><line class="cls-3" x1="324.41" y1="77.42" x2="315.52" y2="82.55"/><polyline class="cls-3" points="324.41 75.02 325.44 74.23 325.9 73.31 325.9 72.4 325.44 71.49 324.41 70.69"/><polyline class="cls-3" points="326.01 75.14 325.78 75.94 325.33 76.73 324.41 77.42"/><line class="cls-3" x1="324.41" y1="70.69" x2="310.73" y2="62.71"/><line class="cls-3" x1="299.55" y1="56.32" x2="279.71" y2="44.8"/><line class="cls-3" x1="255.53" y1="48.68" x2="255.53" y2="50.96"/><line class="cls-3" x1="326.01" y1="72.86" x2="326.01" y2="75.14"/><line class="cls-3" x1="284.38" y1="70.46" x2="282.22" y2="69.21"/><polyline class="cls-3" points="282.1 67.61 282.1 69.09 282.33 69.21"/><path class="cls-3" d="m281.3,68.58c0,.1.05.2.14.25"/><line class="cls-3" x1="281.3" y1="67.15" x2="281.3" y2="68.64"/><line class="cls-3" x1="282.22" y1="69.21" x2="281.53" y2="68.87"/><polyline class="cls-3" points="284.5 70.58 284.38 70.46 284.38 68.98"/><line class="cls-3" x1="286.66" y1="70.23" x2="285.41" y2="70.92"/><path class="cls-3" d="m285.21,70.99c.09.05.2.05.29,0"/><line class="cls-3" x1="285.18" y1="70.92" x2="284.5" y2="70.58"/><polyline class="cls-3" points="296.02 75.71 296.02 76.16 294.42 75.14 294.42 74.68"/><line class="cls-3" x1="296.47" y1="75.94" x2="296.02" y2="76.16"/><polyline class="cls-3" points="292.14 73.43 292.14 73.88 290.43 72.86 290.43 72.4"/><line class="cls-3" x1="292.25" y1="73.77" x2="292.14" y2="73.88"/><polyline class="cls-3" points="294.42 75.02 292.14 73.77 292.14 73.43"/><polyline class="cls-3" points="272.86 62.71 272.86 62.71 272.86 62.25"/><polyline class="cls-3" points="272.86 62.71 271.15 61.79 271.15 61.34"/><polyline class="cls-3" points="277.2 64.76 276.74 64.99 276.74 64.53"/><polyline class="cls-3" points="276.74 64.99 275.03 64.08 275.03 63.5"/><polyline class="cls-3" points="275.03 63.96 272.86 62.59 272.86 62.25"/><line class="cls-3" x1="299.89" y1="78.44" x2="300.23" y2="78.1"/><polyline class="cls-3" points="299.78 78.56 300.01 78.44 300.23 78.1"/><polyline class="cls-3" points="283.47 72.74 283.7 72.97 283.93 72.86"/><line class="cls-3" x1="296.24" y1="77.99" x2="296.24" y2="77.99"/><polyline class="cls-3" points="283.93 72.86 284.61 72.51 286.21 71.6"/><line class="cls-3" x1="296.24" y1="77.87" x2="296.24" y2="77.99"/><line class="cls-3" x1="298.52" y1="80.5" x2="298.52" y2="80.5"/><line class="cls-3" x1="283.01" y1="72.4" x2="283.01" y2="70.35"/><line class="cls-3" x1="281.42" y1="69.32" x2="281.42" y2="68.75"/><path class="cls-3" d="m282.9,72.34c0,.14.08.27.2.35"/><path class="cls-3" d="m281.42,69.26c0,.14.08.27.2.35"/><line class="cls-3" x1="299.89" y1="78.44" x2="298.64" y2="79.24"/><line class="cls-3" x1="303.88" y1="80.16" x2="300.12" y2="82.32"/><path class="cls-3" d="m298.27,79.19c.12.07.28.07.4,0"/><path class="cls-3" d="m299.75,82.27c.12.07.28.07.4,0"/><line class="cls-3" x1="283.58" y1="72.97" x2="283.13" y2="72.63"/><line class="cls-3" x1="286.44" y1="71.37" x2="287.58" y2="70.69"/><line class="cls-3" x1="283.7" y1="70.8" x2="281.65" y2="69.55"/><line class="cls-3" x1="296.24" y1="77.99" x2="298.3" y2="79.24"/><line class="cls-3" x1="299.78" y1="82.32" x2="299.44" y2="82.09"/><path class="cls-3" d="m299.26,81.89c.04.06.09.11.15.15"/><line class="cls-3" x1="286.44" y1="70.35" x2="286.44" y2="71.15"/><polyline class="cls-3" points="283.7 70.8 283.93 70.8 284.38 70.46"/><polyline class="cls-3" points="296.24 77.99 296.24 77.87 296.24 76.05"/><line class="cls-3" x1="298.52" y1="80.5" x2="298.52" y2="79.24"/><polyline class="cls-3" points="299.21 81.87 298.52 80.73 298.52 80.5"/><line class="cls-3" x1="286.21" y1="71.6" x2="286.44" y2="71.15"/><polyline class="cls-3" points="305.37 62.14 305.37 64.08 304.23 64.65 304.23 72.29"/><line class="cls-3" x1="304.11" y1="63.39" x2="304.11" y2="61.91"/><polyline class="cls-3" points="303.09 63.96 304.11 63.39 303.2 62.82 303.2 61.22"/><polyline class="cls-3" points="303.09 72.51 303.09 63.96 302.06 63.39 303.2 62.82"/><line class="cls-3" x1="302.06" y1="72.29" x2="302.06" y2="63.39"/><polyline class="cls-3" points="309.59 59.63 309.59 60.2 310.73 59.63 310.16 59.29"/><line class="cls-3" x1="308.45" y1="62.25" x2="308.45" y2="60.31"/><polyline class="cls-3" points="309.59 68.75 309.59 61.57 308.45 62.25 307.42 61.68 307.42 60.88"/><line class="cls-3" x1="308.56" y1="68.52" x2="308.56" y2="62.25"/><line class="cls-3" x1="310.73" y1="59.63" x2="310.73" y2="68.52"/><polyline class="cls-3" points="299.55 59.17 299.55 49.71 300.69 47.65 305.94 44.69 308.79 45.03"/><polyline class="cls-3" points="300.69 47.65 302.97 48.45 302.06 49.93 299.55 49.71"/><line class="cls-3" x1="302.97" y1="48.45" x2="308.79" y2="45.03"/><polyline class="cls-3" points="311.41 47.77 306.17 50.73 305.02 52.9 305.02 62.36 312.67 57.92 312.67 48.45 311.41 47.77"/><polyline class="cls-3" points="306.17 50.73 304 49.02 309.81 45.6 311.41 47.77"/><polyline class="cls-3" points="305.02 52.9 303.09 50.5 304 49.02"/><polyline class="cls-3" points="308.79 45.03 309.81 45.6 310.73 46.17 312.67 48.45"/><line class="cls-3" x1="304" y1="49.02" x2="302.97" y2="48.45"/><line class="cls-3" x1="302.06" y1="49.93" x2="303.09" y2="50.5"/><line class="cls-3" x1="305.02" y1="62.36" x2="299.55" y2="59.17"/><line class="cls-3" x1="277.54" y1="44.35" x2="277.54" y2="50.62"/><line class="cls-3" x1="278.57" y1="43.77" x2="278.57" y2="49.82"/><line class="cls-3" x1="278.57" y1="50.62" x2="278.57" y2="50.85"/><polyline class="cls-3" points="276.51 43.77 277.54 44.35 278.57 43.77"/><line class="cls-3" x1="277.54" y1="43.2" x2="277.54" y2="44.35"/><line class="cls-3" x1="279.71" y1="50.62" x2="279.71" y2="41.84"/><polyline class="cls-3" points="273.21 45.49 272.18 44.92 271.15 45.49 272.07 46.17 273.21 45.49"/><line class="cls-3" x1="272.18" y1="43.43" x2="272.18" y2="44.92"/><line class="cls-3" x1="273.21" y1="44" x2="273.21" y2="45.49"/><polyline class="cls-3" points="273.21 54.38 273.21 46.74 274.35 46.17 274.35 44.57"/><line class="cls-3" x1="271.15" y1="45.49" x2="271.15" y2="54.38"/><line class="cls-3" x1="272.07" y1="46.17" x2="272.07" y2="54.61"/><polyline class="cls-3" points="276.97 38.99 276.51 38.41 276.4 37.39 276.74 36.25 277.43 35.11 278.22 34.31 279.14 33.85 279.93 33.97"/><path class="cls-3" d="m277.05,39.05c1.39.8,3.17.33,3.97-1.06s.33-3.17-1.06-3.97"/><polyline class="cls-3" points="277.43 43.2 277.43 42.06 276.97 40.7 276.97 42.86 277.43 43.2"/><polyline class="cls-3" points="276.97 40.7 279.93 38.99 280.5 40.24 277.43 42.06"/><polyline class="cls-3" points="277.43 43.2 280.5 41.49 280.5 40.24"/><polyline class="cls-3" points="275.83 33.28 274.69 35.34 274.69 44.8 277.43 43.2"/><polyline class="cls-3" points="280.5 41.49 282.22 40.47 282.22 31 281.08 30.32 275.83 33.28"/><polyline class="cls-3" points="274.69 35.34 272.07 32.6 272.98 31.12 275.83 33.28"/><polyline class="cls-3" points="281.08 30.32 278.79 27.69 279.71 28.26 282.22 31"/><line class="cls-3" x1="278.79" y1="27.69" x2="272.98" y2="31.12"/><line class="cls-3" x1="270.35" y1="30.09" x2="275.6" y2="27.12"/><polyline class="cls-3" points="269.21 41.61 269.21 32.26 270.35 30.09"/><polyline class="cls-3" points="275.6 27.12 277.77 27.12 271.95 30.55 270.35 30.09"/><polyline class="cls-3" points="272.98 31.12 271.95 30.55 271.04 32.03 269.21 32.26"/><line class="cls-3" x1="271.04" y1="32.03" x2="272.07" y2="32.6"/><line class="cls-3" x1="277.77" y1="27.12" x2="278.79" y2="27.69"/><line class="cls-3" x1="269.21" y1="41.61" x2="274.69" y2="44.8"/><polyline class="cls-3" points="278 50.28 278 49.59 278.11 49.48"/><polyline class="cls-3" points="279.14 49.48 279.25 49.59 279.25 50.28"/><polyline class="cls-3" points="279.25 49.59 278.68 49.93 278.68 50.73 279.25 50.28"/><line class="cls-3" x1="278.68" y1="49.93" x2="278" y2="49.59"/><line class="cls-3" x1="278.68" y1="50.73" x2="278" y2="50.28"/><polyline class="cls-3" points="469.12 59.75 470.15 59.23 471.01 58.97"/><polyline class="cls-3" points="473.07 58.54 473.33 58.54 475.13 58.37"/><polyline class="cls-3" points="479.34 48.15 477.54 48.06 475.73 47.63"/><polyline class="cls-3" points="474.1 47.03 474.02 47.03 472.38 46.08 471.01 45.05"/><line class="cls-3" x1="475.13" y1="58.37" x2="476.51" y2="58.29"/><polyline class="cls-3" points="477.97 58.29 479.34 58.37 482.26 58.54"/><polyline class="cls-3" points="483.73 58.71 485.87 58.8 489.65 58.97"/><polyline class="cls-3" points="491.11 59.06 492.32 59.14 496.96 59.23"/><line class="cls-3" x1="498.42" y1="59.32" x2="504.35" y2="59.4"/><line class="cls-3" x1="505.81" y1="59.4" x2="511.65" y2="59.32"/><polyline class="cls-3" points="513.2 59.23 517.84 59.14 519.04 59.06"/><polyline class="cls-3" points="520.5 58.97 524.28 58.8 526.34 58.71"/><line class="cls-3" x1="527.89" y1="58.54" x2="530.81" y2="58.37"/><line class="cls-3" x1="530.81" y1="48.15" x2="527.89" y2="48.15"/><line class="cls-3" x1="526.34" y1="48.15" x2="520.5" y2="48.15"/><line class="cls-3" x1="519.04" y1="48.15" x2="513.2" y2="48.15"/><line class="cls-3" x1="511.65" y1="48.15" x2="505.81" y2="48.15"/><line class="cls-3" x1="504.35" y1="48.15" x2="498.5" y2="48.15"/><line class="cls-3" x1="496.96" y1="48.15" x2="491.11" y2="48.15"/><line class="cls-3" x1="489.65" y1="48.15" x2="483.81" y2="48.15"/><line class="cls-3" x1="482.26" y1="48.15" x2="479.34" y2="48.15"/><line class="cls-3" x1="530.81" y1="58.37" x2="532.19" y2="58.29"/><line class="cls-3" x1="533.56" y1="58.29" x2="534.94" y2="58.37"/><line class="cls-3" x1="534.94" y1="47.46" x2="533.56" y2="47.8"/><line class="cls-3" x1="532.19" y1="48.06" x2="530.81" y2="48.15"/><line class="cls-3" x1="534.94" y1="58.37" x2="534.94" y2="58.37"/><line class="cls-3" x1="535.02" y1="58.37" x2="535.02" y2="58.37"/><line class="cls-3" x1="539.49" y1="45.91" x2="538.03" y2="46.43"/><line class="cls-3" x1="536.48" y1="46.94" x2="534.94" y2="47.46"/><line class="cls-3" x1="583.66" y1="69.8" x2="583.83" y2="69.63"/><polyline class="cls-3" points="583.91 69.37 584.09 69.2 584.69 67.05"/><line class="cls-3" x1="585.29" y1="64.9" x2="585.89" y2="62.75"/><polyline class="cls-3" points="580.99 57.08 582.11 57.08 583.14 57.34 584.17 57.77 584.43 57.94"/><polyline class="cls-3" points="585.63 59.32 585.63 59.4 585.98 60.43 586.06 61.64 585.89 62.75"/><line class="cls-3" x1="535.02" y1="58.37" x2="538.12" y2="58.46"/><polyline class="cls-3" points="539.66 58.46 540.01 58.46 545.16 58.54 545.76 58.54"/><polyline class="cls-3" points="547.31 58.54 550.49 58.46 553.41 58.46"/><polyline class="cls-3" points="554.96 58.37 556.07 58.37 561.06 58.2"/><polyline class="cls-3" points="562.61 58.11 567.93 57.86 568.79 57.86"/><polyline class="cls-3" points="570.25 57.77 574.29 57.51 576.44 57.43"/><line class="cls-3" x1="577.99" y1="57.25" x2="580.99" y2="57.08"/><line class="cls-3" x1="457.52" y1="67.14" x2="459.84" y2="65.67"/><polyline class="cls-3" points="460.95 64.9 463.53 63.27 465.59 61.98"/><line class="cls-3" x1="466.8" y1="61.21" x2="469.12" y2="59.75"/><polyline class="cls-3" points="455.8 71.86 455.97 70.23 455.97 70.14"/><polyline class="cls-3" points="456.49 68.51 456.83 67.82 457.52 67.14"/><line class="cls-3" x1="535.19" y1="58.03" x2="535.19" y2="54.07"/><line class="cls-3" x1="535.19" y1="52.01" x2="535.19" y2="48.06"/><line class="cls-3" x1="530.81" y1="58.03" x2="530.81" y2="54.33"/><polyline class="cls-3" points="530.81 52.44 530.81 48.75 532.27 48.58"/><line class="cls-3" x1="533.73" y1="48.32" x2="535.19" y2="48.06"/><line class="cls-3" x1="530.81" y1="58.03" x2="532.27" y2="58.03"/><line class="cls-3" x1="533.73" y1="58.03" x2="535.19" y2="58.03"/><line class="cls-3" x1="583.74" y1="73.58" x2="585.55" y2="73.58"/><line class="cls-3" x1="587.27" y1="73.58" x2="588.98" y2="73.58"/><polyline class="cls-3" points="583.66 69.8 583.23 70.66 583.14 71"/><polyline class="cls-3" points="583.23 72.38 583.31 72.72 583.74 73.58"/><line class="cls-3" x1="455.46" y1="73.58" x2="455.63" y2="72.98"/><line class="cls-3" x1="455.71" y1="72.46" x2="455.8" y2="71.86"/><polyline class="cls-3" points="581.68 70.83 581.85 70.49 581.94 70.31"/><line class="cls-3" x1="582.37" y1="70.06" x2="582.8" y2="69.8"/><polyline class="cls-3" points="584.34 74.87 584.17 74.78 584 74.53"/><line class="cls-3" x1="583.91" y1="74.1" x2="583.74" y2="73.58"/><polyline class="cls-3" points="583.49 74.87 583.06 74.78 582.63 74.53 582.28 74.1 582.2 74.01"/><polyline class="cls-3" points="581.68 72.46 581.59 72.29 581.59 71.52 581.68 70.83"/><polyline class="cls-3" points="456.83 74.87 456.49 74.78 456.23 74.61"/><line class="cls-3" x1="455.46" y1="73.58" x2="455.8" y2="74.18"/><line class="cls-3" x1="475.13" y1="58.37" x2="478.14" y2="58.97"/><polyline class="cls-3" points="479.6 59.23 481.66 59.57 485.53 60.09"/><polyline class="cls-3" points="487.08 60.35 488.28 60.52 493.01 60.86"/><polyline class="cls-3" points="494.55 61.03 494.98 61.03 500.57 61.29"/><line class="cls-3" x1="502.03" y1="61.38" x2="508.13" y2="61.38"/><polyline class="cls-3" points="509.59 61.29 515.17 61.03 515.6 61.03"/><polyline class="cls-3" points="517.15 60.86 521.88 60.52 523.08 60.35"/><polyline class="cls-3" points="524.63 60.09 528.49 59.57 530.55 59.23"/><line class="cls-3" x1="532.02" y1="58.97" x2="535.02" y2="58.37"/><polyline class="cls-3" points="510.45 67.57 509.93 67.14 509.33 66.88"/><polyline class="cls-3" points="508.13 66.53 508.04 66.53 506.93 66.36"/><polyline class="cls-3" points="503.23 66.36 502.11 66.53 502.03 66.53"/><polyline class="cls-3" points="500.82 66.88 500.22 67.14 499.71 67.57"/><polyline class="cls-3" points="501.6 69.71 502.37 69.97 503.23 70.06 503.92 70.14"/><polyline class="cls-3" points="506.24 70.14 506.93 70.06 507.78 69.97 508.56 69.71"/><line class="cls-3" x1="582.8" y1="69.8" x2="583.23" y2="69.63"/><line class="cls-3" x1="583.66" y1="69.37" x2="584.09" y2="69.2"/><line class="cls-3" x1="499.45" y1="57" x2="499.45" y2="56.74"/><line class="cls-3" x1="499.36" y1="56.48" x2="499.45" y2="56.22"/><polyline class="cls-3" points="499.71 58.54 499.54 59.14 499.54 59.4"/><polyline class="cls-3" points="499.36 60.26 499.36 60.35 499.45 60.52 499.54 60.52 499.71 60.35 499.79 60"/><line class="cls-3" x1="538.89" y1="60.52" x2="538.89" y2="59.06"/><line class="cls-3" x1="538.89" y1="57.51" x2="538.89" y2="56.05"/><line class="cls-3" x1="471.27" y1="60.52" x2="471.27" y2="59.06"/><line class="cls-3" x1="471.27" y1="57.51" x2="471.27" y2="56.05"/><polyline class="cls-3" points="510.36 60 510.45 60.35 510.62 60.52 510.71 60.52 510.79 60.35 510.79 60.26"/><polyline class="cls-3" points="510.62 59.4 510.62 59.14 510.45 58.54"/><line class="cls-3" x1="510.71" y1="56.22" x2="510.79" y2="56.48"/><line class="cls-3" x1="510.71" y1="56.74" x2="510.71" y2="57"/><line class="cls-3" x1="484.24" y1="39.12" x2="484.24" y2="41.62"/><line class="cls-3" x1="484.24" y1="42.82" x2="484.24" y2="47.63"/><line class="cls-3" x1="484.24" y1="48.83" x2="484.24" y2="51.24"/><line class="cls-3" x1="525.91" y1="51.24" x2="525.91" y2="48.83"/><line class="cls-3" x1="525.91" y1="47.63" x2="525.91" y2="42.82"/><line class="cls-3" x1="525.91" y1="41.62" x2="525.91" y2="39.12"/><line class="cls-3" x1="484.24" y1="51.24" x2="487.59" y2="51.24"/><line class="cls-3" x1="489.22" y1="51.24" x2="495.93" y2="51.24"/><line class="cls-3" x1="497.56" y1="51.24" x2="504.26" y2="51.24"/><line class="cls-3" x1="505.89" y1="51.24" x2="512.6" y2="51.24"/><line class="cls-3" x1="514.23" y1="51.24" x2="520.93" y2="51.24"/><line class="cls-3" x1="522.56" y1="51.24" x2="525.91" y2="51.24"/><line class="cls-3" x1="493.35" y1="49.43" x2="490.08" y2="49.43"/><line class="cls-3" x1="488.45" y1="49.43" x2="485.19" y2="49.43"/><line class="cls-3" x1="485.19" y1="40.58" x2="488.45" y2="40.58"/><line class="cls-3" x1="490.08" y1="40.58" x2="493.35" y2="40.58"/><line class="cls-3" x1="516.81" y1="40.58" x2="520.07" y2="40.58"/><line class="cls-3" x1="521.7" y1="40.58" x2="524.97" y2="40.58"/><line class="cls-3" x1="524.97" y1="49.43" x2="521.7" y2="49.43"/><line class="cls-3" x1="520.07" y1="49.43" x2="516.81" y2="49.43"/><polyline class="cls-3" points="479.34 42.3 480.37 42.13 481.15 41.7 481.49 41.1 481.32 40.41 480.8 39.9 480.46 39.73"/><polyline class="cls-3" points="478.31 39.73 477.97 39.9 477.37 40.41 477.28 41.1 477.62 41.7 478.4 42.13 479.34 42.3"/><line class="cls-3" x1="484.24" y1="47.2" x2="479.86" y2="47.2"/><polyline class="cls-3" points="477.62 47.2 473.24 47.2 473.24 44.62"/><line class="cls-3" x1="473.24" y1="43.33" x2="473.24" y2="38.26"/><line class="cls-3" x1="473.24" y1="36.98" x2="473.24" y2="34.48"/><polyline class="cls-3" points="530.81 42.3 531.76 42.13 532.53 41.7 532.87 41.1 532.79 40.41 532.19 39.9 531.84 39.73"/><polyline class="cls-3" points="529.7 39.73 529.35 39.9 528.84 40.41 528.66 41.1 529.01 41.7 529.78 42.13 530.81 42.3"/><line class="cls-3" x1="536.91" y1="34.48" x2="536.91" y2="36.98"/><line class="cls-3" x1="536.91" y1="38.26" x2="536.91" y2="43.33"/><polyline class="cls-3" points="536.91 44.62 536.91 47.2 532.53 47.2"/><line class="cls-3" x1="530.3" y1="47.2" x2="525.91" y2="47.2"/><line class="cls-3" x1="493.35" y1="40.58" x2="493.35" y2="43.76"/><line class="cls-3" x1="493.35" y1="45.31" x2="493.35" y2="51.67"/><polyline class="cls-3" points="493.35 53.3 493.35 56.48 490.08 56.48"/><line class="cls-3" x1="488.45" y1="56.48" x2="485.19" y2="56.48"/><line class="cls-3" x1="485.19" y1="40.58" x2="485.19" y2="43.76"/><line class="cls-3" x1="485.19" y1="45.31" x2="485.19" y2="51.67"/><line class="cls-3" x1="485.19" y1="53.3" x2="485.19" y2="56.48"/><line class="cls-3" x1="493.35" y1="65.25" x2="493.35" y2="61.72"/><line class="cls-3" x1="493.35" y1="60" x2="493.35" y2="56.48"/><line class="cls-3" x1="516.81" y1="40.58" x2="516.81" y2="43.76"/><line class="cls-3" x1="516.81" y1="45.31" x2="516.81" y2="51.67"/><polyline class="cls-3" points="516.81 53.3 516.81 56.48 516.81 60"/><line class="cls-3" x1="516.81" y1="61.72" x2="516.81" y2="65.25"/><line class="cls-3" x1="524.97" y1="40.58" x2="524.97" y2="43.76"/><line class="cls-3" x1="524.97" y1="45.31" x2="524.97" y2="51.67"/><polyline class="cls-3" points="524.97 53.3 524.97 56.48 521.7 56.48"/><line class="cls-3" x1="520.07" y1="56.48" x2="516.81" y2="56.48"/><line class="cls-3" x1="473.24" y1="45.57" x2="476.42" y2="45.57"/><line class="cls-3" x1="478.05" y1="45.57" x2="484.41" y2="45.57"/><line class="cls-3" x1="485.96" y1="45.57" x2="492.32" y2="45.57"/><line class="cls-3" x1="493.95" y1="45.57" x2="500.31" y2="45.57"/><line class="cls-3" x1="501.86" y1="45.57" x2="508.21" y2="45.57"/><line class="cls-3" x1="509.85" y1="45.57" x2="516.21" y2="45.57"/><line class="cls-3" x1="517.84" y1="45.57" x2="524.2" y2="45.57"/><line class="cls-3" x1="525.74" y1="45.57" x2="532.1" y2="45.57"/><line class="cls-3" x1="533.73" y1="45.57" x2="536.91" y2="45.57"/><polyline class="cls-3" points="479.34 55.11 478.4 54.93 477.62 54.5 477.28 53.9 477.37 53.22 477.97 52.7 478.31 52.53"/><polyline class="cls-3" points="480.46 52.53 480.8 52.7 481.32 53.22 481.49 53.9 481.15 54.5 480.37 54.93 479.34 55.11"/><polyline class="cls-3" points="530.81 55.11 529.78 54.93 529.01 54.5 528.66 53.9 528.84 53.22 529.35 52.7 529.7 52.53"/><polyline class="cls-3" points="531.84 52.53 532.19 52.7 532.79 53.22 532.87 53.9 532.53 54.5 531.76 54.93 530.81 55.11"/><line class="cls-3" x1="485.19" y1="65.25" x2="488.45" y2="65.25"/><line class="cls-3" x1="490.08" y1="65.25" x2="493.35" y2="65.25"/><line class="cls-3" x1="485.19" y1="56.48" x2="485.19" y2="60"/><line class="cls-3" x1="485.19" y1="61.72" x2="485.19" y2="65.25"/><line class="cls-3" x1="524.97" y1="65.25" x2="524.97" y2="61.72"/><line class="cls-3" x1="524.97" y1="60" x2="524.97" y2="56.48"/><line class="cls-3" x1="516.81" y1="65.25" x2="520.07" y2="65.25"/><line class="cls-3" x1="521.7" y1="65.25" x2="524.97" y2="65.25"/><line class="cls-3" x1="493.35" y1="56.05" x2="495.41" y2="56.05"/><line class="cls-3" x1="497.47" y1="56.05" x2="499.54" y2="56.05"/><line class="cls-3" x1="493.35" y1="60.52" x2="495.41" y2="60.52"/><line class="cls-3" x1="497.47" y1="60.52" x2="499.54" y2="60.52"/><line class="cls-3" x1="524.97" y1="56.05" x2="527.81" y2="56.05"/><line class="cls-3" x1="529.18" y1="56.05" x2="534.77" y2="56.05"/><line class="cls-3" x1="536.14" y1="56.05" x2="538.89" y2="56.05"/><line class="cls-3" x1="524.97" y1="60.52" x2="527.81" y2="60.52"/><line class="cls-3" x1="529.18" y1="60.52" x2="534.77" y2="60.52"/><line class="cls-3" x1="536.14" y1="60.52" x2="538.89" y2="60.52"/><line class="cls-3" x1="471.27" y1="56.05" x2="474.02" y2="56.05"/><line class="cls-3" x1="475.39" y1="56.05" x2="480.98" y2="56.05"/><line class="cls-3" x1="482.35" y1="56.05" x2="485.19" y2="56.05"/><line class="cls-3" x1="471.27" y1="60.52" x2="474.02" y2="60.52"/><line class="cls-3" x1="475.39" y1="60.52" x2="480.98" y2="60.52"/><line class="cls-3" x1="482.35" y1="60.52" x2="485.19" y2="60.52"/><line class="cls-3" x1="510.62" y1="56.05" x2="512.68" y2="56.05"/><line class="cls-3" x1="514.74" y1="56.05" x2="516.81" y2="56.05"/><line class="cls-3" x1="510.62" y1="60.52" x2="512.68" y2="60.52"/><line class="cls-3" x1="514.74" y1="60.52" x2="516.81" y2="60.52"/><line class="cls-3" x1="477.28" y1="53.73" x2="477.28" y2="51.15"/><line class="cls-3" x1="477.28" y1="49.86" x2="477.28" y2="44.79"/><line class="cls-3" x1="477.28" y1="43.51" x2="477.28" y2="40.93"/><line class="cls-3" x1="481.49" y1="53.73" x2="481.49" y2="51.15"/><line class="cls-3" x1="481.49" y1="49.86" x2="481.49" y2="44.79"/><line class="cls-3" x1="481.49" y1="43.51" x2="481.49" y2="40.93"/><line class="cls-3" x1="528.66" y1="53.73" x2="528.66" y2="51.15"/><line class="cls-3" x1="528.66" y1="49.86" x2="528.66" y2="44.79"/><line class="cls-3" x1="528.66" y1="43.51" x2="528.66" y2="40.93"/><line class="cls-3" x1="532.87" y1="53.73" x2="532.87" y2="51.15"/><line class="cls-3" x1="532.87" y1="49.86" x2="532.87" y2="44.79"/><line class="cls-3" x1="532.87" y1="43.51" x2="532.87" y2="40.93"/><polyline class="cls-3" points="508.56 69.71 509.33 69.54 509.85 69.37"/><polyline class="cls-3" points="510.96 68.6 511.14 68.42 511.05 68.17 510.88 67.82 510.45 67.57"/><polyline class="cls-3" points="499.71 67.57 499.28 67.82 499.11 68.17 499.02 68.42 499.19 68.6"/><polyline class="cls-3" points="500.31 69.37 500.82 69.54 501.6 69.71"/><polyline class="cls-3" points="510.45 67.57 510.71 67.65 510.79 67.82 510.71 68.08 510.53 68.34 510.36 68.42"/><line class="cls-3" x1="509.5" y1="69.11" x2="508.56" y2="69.71"/><line class="cls-3" x1="501.6" y1="69.71" x2="500.65" y2="69.11"/><polyline class="cls-3" points="499.79 68.42 499.62 68.34 499.45 68.08 499.36 67.82 499.45 67.65 499.71 67.57"/><line class="cls-3" x1="510.71" y1="67.65" x2="510.71" y2="67.65"/><line class="cls-3" x1="510.79" y1="67.74" x2="510.79" y2="67.74"/><line class="cls-3" x1="499.45" y1="67.65" x2="499.45" y2="67.65"/><line class="cls-3" x1="499.36" y1="67.74" x2="499.36" y2="67.74"/><polyline class="cls-3" points="518.53 75.73 519.47 75.04 519.9 74.78"/><polyline class="cls-3" points="521.45 74.18 521.7 74.1 522.99 73.75"/><line class="cls-3" x1="518.44" y1="75.81" x2="518.53" y2="75.81"/><line class="cls-3" x1="518.53" y1="75.73" x2="518.53" y2="75.73"/><polyline class="cls-3" points="487.16 73.75 488.45 74.1 488.71 74.18"/><polyline class="cls-3" points="490.26 74.78 490.69 75.04 491.63 75.73"/><line class="cls-3" x1="491.63" y1="75.73" x2="491.63" y2="75.73"/><line class="cls-3" x1="491.63" y1="75.81" x2="491.72" y2="75.81"/><polyline class="cls-3" points="499.79 60 499.79 59.4 499.71 58.97"/><polyline class="cls-3" points="499.62 57.94 499.54 57.77 499.45 57"/><polyline class="cls-3" points="510.71 57 510.62 57.77 510.53 57.94"/><polyline class="cls-3" points="510.45 58.97 510.36 59.4 510.36 60"/><line class="cls-3" x1="535.19" y1="48.06" x2="533.73" y2="48.49"/><line class="cls-3" x1="532.27" y1="48.66" x2="530.81" y2="48.75"/><line class="cls-3" x1="530.81" y1="58.03" x2="532.27" y2="57.94"/><line class="cls-3" x1="533.73" y1="57.94" x2="535.19" y2="58.03"/><line class="cls-3" x1="618.03" y1="58.11" x2="618.03" y2="61.46"/><line class="cls-3" x1="618.03" y1="63.1" x2="618.03" y2="69.8"/><line class="cls-3" x1="618.03" y1="71.52" x2="618.03" y2="74.87"/><line class="cls-3" x1="611.33" y1="58.11" x2="611.33" y2="61.46"/><line class="cls-3" x1="611.33" y1="63.1" x2="611.33" y2="69.8"/><line class="cls-3" x1="611.33" y1="71.52" x2="611.33" y2="74.87"/><line class="cls-3" x1="466.45" y1="58.11" x2="466.45" y2="61.46"/><line class="cls-3" x1="466.45" y1="63.1" x2="466.45" y2="69.8"/><line class="cls-3" x1="466.45" y1="71.52" x2="466.45" y2="74.87"/><line class="cls-3" x1="459.84" y1="58.11" x2="459.84" y2="61.46"/><line class="cls-3" x1="459.84" y1="63.1" x2="459.84" y2="69.8"/><line class="cls-3" x1="459.84" y1="71.52" x2="459.84" y2="74.87"/><line class="cls-3" x1="618.71" y1="74.87" x2="618.71" y2="71.6"/><line class="cls-3" x1="618.71" y1="69.97" x2="618.71" y2="63.53"/><line class="cls-3" x1="618.71" y1="61.89" x2="618.71" y2="58.63"/><line class="cls-3" x1="610.64" y1="58.63" x2="610.64" y2="61.89"/><line class="cls-3" x1="610.64" y1="63.53" x2="610.64" y2="69.97"/><line class="cls-3" x1="610.64" y1="71.6" x2="610.64" y2="74.87"/><line class="cls-3" x1="610.64" y1="58.63" x2="613.9" y2="58.63"/><line class="cls-3" x1="615.54" y1="58.63" x2="618.71" y2="58.63"/><line class="cls-3" x1="467.23" y1="74.87" x2="467.23" y2="71.6"/><line class="cls-3" x1="467.23" y1="69.97" x2="467.23" y2="63.53"/><line class="cls-3" x1="467.23" y1="61.89" x2="467.23" y2="58.63"/><line class="cls-3" x1="459.06" y1="58.63" x2="459.06" y2="61.89"/><line class="cls-3" x1="459.06" y1="63.53" x2="459.06" y2="69.97"/><line class="cls-3" x1="459.06" y1="71.6" x2="459.06" y2="74.87"/><line class="cls-3" x1="459.06" y1="58.63" x2="462.33" y2="58.63"/><line class="cls-3" x1="463.96" y1="58.63" x2="467.23" y2="58.63"/><polyline class="cls-3" points="489.4 74.87 489.83 74.87 490.43 75.04 491.03 75.3 491.54 75.64"/><line class="cls-3" x1="488.88" y1="58.11" x2="491.54" y2="58.11"/><line class="cls-3" x1="488.88" y1="74.87" x2="489.4" y2="74.87"/><line class="cls-3" x1="586.23" y1="74.87" x2="588.98" y2="74.87"/><line class="cls-3" x1="586.23" y1="58.11" x2="588.98" y2="58.11"/><line class="cls-3" x1="488.88" y1="58.11" x2="488.88" y2="73.58"/><polyline class="cls-3" points="588.98 73.58 588.98 58.11 614.68 58.11 626.19 58.11"/><polyline class="cls-3" points="586.49 50.55 581.25 50.98 576.18 51.41 571.28 51.67 566.47 52.01 557.19 52.36 548.26 52.61"/><polyline class="cls-3" points="451.59 58.11 463.1 58.11 488.88 58.11"/><line class="cls-3" x1="626.19" y1="73.58" x2="626.19" y2="58.11"/><line class="cls-3" x1="451.59" y1="73.58" x2="451.59" y2="58.11"/><line class="cls-3" x1="488.88" y1="74.87" x2="488.88" y2="73.58"/><polyline class="cls-3" points="588.98 74.87 588.98 73.58 614.68 73.58 626.19 73.58"/><polyline class="cls-3" points="451.59 73.58 463.1 73.58 488.88 73.58"/><polyline class="cls-3" points="588.98 74.87 614.68 74.87 623.61 74.87"/><polyline class="cls-3" points="454.17 74.87 463.1 74.87 488.88 74.87"/><path class="cls-3" d="m623.66,74.87c1,0,1.94-.46,2.55-1.25"/><path class="cls-3" d="m451.66,73.62c.61.79,1.55,1.25,2.55,1.25"/><polyline class="cls-3" points="471.01 45.05 470.66 46.43 470.15 47.8 469.63 49.01 469.12 50.12"/><polyline class="cls-3" points="548.26 52.61 546.88 52.53 545.51 52.1 544.13 51.5 542.93 50.72 541.9 49.69 540.95 48.58 540.09 47.29 539.49 45.91"/><polyline class="cls-3" points="461.38 58.11 462.5 57.94 463.19 57.51"/><polyline class="cls-3" points="469.12 50.12 467.83 52.27 466.45 54.25 464.82 56.05 463.19 57.51"/><polyline class="cls-3" points="539.23 52.27 539.58 53.13 539.92 53.82 540.26 54.42 540.61 54.93 541.38 55.79 542.33 56.57 543.27 57.17 544.47 57.68 545.68 57.94 547.05 58.11"/><line class="cls-3" x1="471.01" y1="45.05" x2="471.27" y2="43.68"/><polyline class="cls-3" points="539.49 45.91 539.06 44.79 538.89 43.68"/><polyline class="cls-3" points="463.1 58.11 464.56 57.94 465.85 57.6 467.14 57 468.26 56.31 469.2 55.36 469.98 54.42 470.49 53.3 470.92 52.27 471.18 51.07 471.27 49.95"/><polyline class="cls-3" points="538.89 49.95 538.98 51.07 539.23 52.27"/><polyline class="cls-3" points="600.93 58.11 599.47 58.03 597.92 57.68 596.46 57.25 595.09 56.65 593.88 55.88 592.77 54.93 591.82 53.9 591.05 52.7 590.19 51.67 589.07 50.9 587.78 50.64 586.49 50.55"/><polyline class="cls-3" points="506.93 66.36 505.98 66.28 505.03 66.28 504.18 66.28 503.23 66.36"/><line class="cls-3" x1="547.05" y1="58.11" x2="586.23" y2="58.11"/><polyline class="cls-3" points="494.21 77.02 500.14 77.02 510.02 77.02 515.95 77.02"/><polyline class="cls-3" points="510.79 52.27 510.79 52.27 510.79 58.11 510.79 69.46"/><polyline class="cls-3" points="510.02 77.02 510.28 75.73 510.45 74.35 510.71 72.12 510.79 69.46"/><polyline class="cls-3" points="499.45 56.22 499.45 56.05 499.62 56.05 499.71 56.22 499.79 56.48 499.88 56.91 499.88 57.43 499.79 58.03 499.71 58.54"/><polyline class="cls-3" points="510.45 58.54 510.36 58.03 510.28 57.43 510.28 56.91 510.36 56.48 510.45 56.22 510.53 56.05 510.71 56.05 510.71 56.22"/><polyline class="cls-3" points="510.79 52.27 510.62 51.41 510.28 50.64 509.76 49.86 509.07 49.18 508.21 48.66 507.27 48.23 506.15 47.97 505.03 47.89 504 47.97 502.89 48.23 501.94 48.66 501.08 49.18 500.39 49.86 499.88 50.64 499.54 51.41 499.36 52.27"/><line class="cls-3" x1="499.36" y1="52.27" x2="499.36" y2="52.27"/><line class="cls-3" x1="471.27" y1="49.95" x2="471.27" y2="32.51"/><line class="cls-3" x1="538.89" y1="49.95" x2="538.89" y2="32.51"/><line class="cls-3" x1="484.24" y1="39.12" x2="484.24" y2="34.48"/><polyline class="cls-3" points="484.24 39.12 525.91 39.12 525.91 34.48"/><line class="cls-3" x1="473.24" y1="34.48" x2="484.24" y2="34.48"/><line class="cls-3" x1="525.91" y1="34.48" x2="536.91" y2="34.48"/><line class="cls-3" x1="473.24" y1="32.51" x2="471.27" y2="32.51"/><line class="cls-3" x1="538.89" y1="32.51" x2="536.91" y2="32.51"/><line class="cls-3" x1="473.24" y1="34.48" x2="473.24" y2="32.51"/><line class="cls-3" x1="536.91" y1="34.48" x2="536.91" y2="32.51"/><polyline class="cls-3" points="499.36 69.46 499.45 72.12 499.71 74.35 499.88 75.73 500.14 77.02"/><polyline class="cls-3" points="499.36 69.46 499.36 58.11 499.36 52.27"/><polyline class="cls-3" points="520.76 74.87 520.07 74.95 519.47 75.13 518.95 75.38 518.44 75.81"/><line class="cls-3" x1="491.54" y1="75.64" x2="491.72" y2="75.81"/><polyline class="cls-3" points="518.18 76.07 517.24 76.76 516.55 76.93 515.95 77.02"/><polyline class="cls-3" points="494.21 77.02 493.61 76.93 492.92 76.76 492.4 76.5 491.97 76.07"/><line class="cls-3" x1="518.18" y1="76.07" x2="518.44" y2="75.81"/><line class="cls-3" x1="491.72" y1="75.81" x2="491.97" y2="76.07"/><line class="cls-3" x1="520.76" y1="74.87" x2="586.23" y2="74.87"/><polyline class="cls-3" points="499.36 55.36 499.54 57.34 499.88 59.4 500.39 61.38 501.17 63.27 502.03 64.9 503.14 66.19 503.75 66.71 504.26 67.05 504.69 67.22 505.03 67.31 505.46 67.22 505.89 67.05 506.41 66.71 507.01 66.19 508.13 64.9 508.99 63.27 509.76 61.38 510.28 59.4 510.62 57.34 510.79 55.36"/><polyline class="cls-3" points="473.75 31.51 473.75 33.67 477.81 33.67 532.29 33.67 536.45 33.67 536.45 31.51 532.29 31.51 477.81 31.51 473.75 31.51"/><line class="cls-3" x1="506.26" y1="29.18" x2="503.84" y2="29.18"/><line class="cls-3" x1="507.22" y1="31.43" x2="507.22" y2="29.35"/><path class="cls-3" d="m507.3,29.39c0-.12-.1-.22-.22-.22"/><path class="cls-3" d="m507.25,31.53s.05-.09.05-.14"/><polyline class="cls-3" points="506.26 31.51 506.26 31.43 506.26 29.35 506.26 29.18 507.04 29.18"/><line class="cls-3" x1="503.84" y1="31.51" x2="503.84" y2="31.43"/><polyline class="cls-3" points="503.84 31.43 503.84 29.35 503.84 29.18"/><path class="cls-3" d="m503.11,29.18c-.12,0-.22.1-.22.22"/><line class="cls-3" x1="502.89" y1="29.35" x2="502.89" y2="31.43"/><path class="cls-3" d="m502.89,31.38c0,.05.02.1.05.14"/><line class="cls-3" x1="503.84" y1="29.18" x2="503.06" y2="29.18"/><polyline class="cls-3" points="491.74 31.51 491.74 29.96 493.55 29.96 493.55 31.51"/><polyline class="cls-3" points="495.97 31.51 495.97 29.96 497.7 29.96 497.7 31.51"/><line class="cls-3" x1="493.55" y1="29.96" x2="495.97" y2="29.96"/><line class="cls-3" x1="516.64" y1="29.96" x2="516.64" y2="31.51"/><polyline class="cls-3" points="516.64 29.96 518.46 29.96 518.46 31.51"/><line class="cls-3" x1="512.4" y1="29.96" x2="512.4" y2="31.51"/><polyline class="cls-3" points="512.4 29.96 514.22 29.96 514.22 31.51"/><line class="cls-3" x1="514.22" y1="29.96" x2="516.64" y2="29.96"/><polyline class="cls-3" points="510.59 27.79 509.55 27.79 510.07 28.83 510.59 27.79"/><line class="cls-3" x1="507.73" y1="22.61" x2="507.82" y2="22.61"/><polyline class="cls-3" points="507.91 22.43 507.91 18.45 507.91 17.76"/><polyline class="cls-3" points="507.22 22.61 507.73 22.61 507.82 22.43"/><line class="cls-3" x1="507.82" y1="18.54" x2="507.91" y2="18.54"/><line class="cls-3" x1="518.11" y1="29.96" x2="518.37" y2="29.7"/><polyline class="cls-3" points="514.31 29.96 514.31 26.93 514.31 26.41 514.31 21.65 514.31 21.14 514.31 18.02"/><polyline class="cls-3" points="512.4 30.82 511.37 30.82 511.37 29.7 509.03 29.7 509.03 30.82 507.91 30.82 507.91 29.7 507.22 29.7"/><polyline class="cls-3" points="497.7 30.82 498.83 30.82 498.83 29.7 501.16 29.7 501.16 30.82 502.2 30.82 502.2 29.7 502.89 29.7"/><polyline class="cls-3" points="495.89 18.02 495.89 21.65 495.89 26.41 495.89 26.93 495.89 29.96"/><line class="cls-3" x1="491.82" y1="29.7" x2="492.08" y2="29.96"/><path class="cls-3" d="m507.91,17.72s-.02-.04-.04-.04"/><line class="cls-3" x1="507.91" y1="17.68" x2="502.37" y2="17.68"/><path class="cls-3" d="m502.33,17.68c-.07,0-.13.06-.13.13"/><line class="cls-3" x1="512.66" y1="18.54" x2="512.66" y2="18.54"/><line class="cls-3" x1="507.82" y1="18.54" x2="507.82" y2="18.45"/><line class="cls-3" x1="509.72" y1="25.72" x2="507.22" y2="25.72"/><polyline class="cls-3" points="509.2 22.61 509.2 22.61 509.72 22.61"/><polyline class="cls-3" points="509.03 17.85 509.03 18.54 509.03 22.43"/><line class="cls-3" x1="513.18" y1="17.68" x2="513.18" y2="17.68"/><polyline class="cls-3" points="513.96 17.68 513.53 17.68 513.44 17.68"/><line class="cls-3" x1="513.44" y1="17.76" x2="513.53" y2="17.68"/><path class="cls-3" d="m514.31,17.98c0-.17-.14-.3-.3-.3"/><path class="cls-3" d="m514.22,23.6c0,.08.03.16.09.21"/><polyline class="cls-3" points="518.11 24.25 514.91 24.25 514.74 24.16 514.39 23.82"/><path class="cls-3" d="m518.37,24.55c0-.17-.14-.3-.3-.3"/><line class="cls-3" x1="518.37" y1="29.7" x2="518.37" y2="24.51"/><path class="cls-3" d="m514.31,21.7c0-.17-.14-.3-.3-.3"/><path class="cls-3" d="m514.31,26.97c0-.17-.14-.3-.3-.3"/><path class="cls-3" d="m496.19,26.67c-.17,0-.3.14-.3.3"/><path class="cls-3" d="m496.19,21.39c-.17,0-.3.14-.3.3"/><polyline class="cls-3" points="496.15 21.22 495.97 21.39 495.89 21.65"/><path class="cls-3" d="m496.19,17.68c-.17,0-.3.14-.3.3"/><path class="cls-3" d="m495.8,23.81c.06-.06.09-.13.09-.21"/><line class="cls-3" x1="491.82" y1="24.51" x2="491.82" y2="29.7"/><path class="cls-3" d="m492.04,24.25c-.17,0-.3.14-.3.3"/><line class="cls-3" x1="495.2" y1="24.25" x2="492.08" y2="24.25"/><path class="cls-3" d="m495.24,24.25c.08,0,.16-.03.21-.09"/><line class="cls-3" x1="495.8" y1="23.82" x2="495.45" y2="24.16"/><polyline class="cls-3" points="496.15 17.68 496.58 17.68 496.75 17.68"/><line class="cls-3" x1="496.58" y1="17.68" x2="496.75" y2="17.76"/><polyline class="cls-3" points="501.16 22.43 501.16 18.54 501.16 17.85"/><polyline class="cls-3" points="500.38 22.61 500.47 22.61 500.99 22.61"/><path class="cls-3" d="m501.03,22.61c.07,0,.13-.06.13-.13"/><line class="cls-3" x1="500.38" y1="22.61" x2="500.38" y2="22.61"/><line class="cls-3" x1="502.89" y1="25.72" x2="500.38" y2="25.72"/><polyline class="cls-3" points="502.37 22.61 502.37 22.61 502.89 22.61"/><polyline class="cls-3" points="502.2 17.85 502.2 18.54 502.2 22.43"/><line class="cls-3" x1="509.2" y1="22.61" x2="509.2" y2="22.43"/><line class="cls-3" x1="502.37" y1="22.61" x2="502.37" y2="22.43"/><line class="cls-3" x1="500.47" y1="22.61" x2="500.64" y2="22.43"/><polyline class="cls-3" points="497.53 18.54 497.53 18.54 497.44 18.37"/><line class="cls-3" x1="513.96" y1="26.67" x2="496.15" y2="26.67"/><line class="cls-3" x1="512.75" y1="18.37" x2="512.66" y2="18.54"/><polyline class="cls-3" points="513.36 17.76 513.44 17.76 513.53 17.68"/><line class="cls-3" x1="513.53" y1="18.02" x2="513.44" y2="17.76"/><line class="cls-3" x1="513.96" y1="21.39" x2="511.8" y2="21.39"/><polyline class="cls-3" points="498.31 21.39 498.31 21.48 498.22 21.65"/><line class="cls-3" x1="498.31" y1="21.39" x2="496.15" y2="21.39"/><path class="cls-3" d="m496.84,17.76c-.06-.06-.13-.09-.21-.09"/><polyline class="cls-3" points="497.53 21.39 497.53 18.8 497.53 18.54"/><polyline class="cls-3" points="498.48 26.67 498.48 26.41 498.48 21.48"/><polyline class="cls-3" points="511.71 26.67 511.71 26.41 511.71 21.65 511.71 21.48"/><polyline class="cls-3" points="512.66 21.39 512.66 21.14 512.66 18.8 512.66 18.54"/><line class="cls-3" x1="513.36" y1="17.76" x2="512.66" y2="18.45"/><path class="cls-3" d="m512.7,18.49s-.04.06-.04.09"/><path class="cls-3" d="m511.84,21.39c-.07,0-.13.06-.13.13"/><polyline class="cls-3" points="498.22 21.65 498.39 21.57 498.48 21.48"/><line class="cls-3" x1="498.48" y1="21.48" x2="498.31" y2="21.39"/><line class="cls-3" x1="497.53" y1="22.71" x2="497.36" y2="22.54"/><line class="cls-3" x1="497.44" y1="18.45" x2="496.75" y2="17.76"/><path class="cls-3" d="m497.53,18.58s-.01-.07-.04-.09"/><line class="cls-3" x1="507.82" y1="22.61" x2="507.91" y2="22.43"/><line class="cls-3" x1="507.22" y1="22.61" x2="507.22" y2="22.61"/><polyline class="cls-3" points="513.44 17.68 513.18 17.68 509.2 17.68"/><path class="cls-3" d="m509.16,17.76c-.07,0-.13.06-.13.13"/><polyline class="cls-3" points="496.75 17.68 496.92 17.68 500.99 17.68"/><path class="cls-3" d="m501.16,17.89c0-.07-.06-.13-.13-.13"/><line class="cls-3" x1="509.72" y1="22.61" x2="509.72" y2="22.61"/><line class="cls-3" x1="509.72" y1="25.72" x2="509.72" y2="25.72"/><line class="cls-3" x1="507.22" y1="25.72" x2="507.22" y2="25.72"/><line class="cls-3" x1="502.89" y1="22.61" x2="502.98" y2="22.61"/><line class="cls-3" x1="502.89" y1="25.72" x2="502.98" y2="25.72"/><line class="cls-3" x1="500.38" y1="25.72" x2="500.38" y2="25.72"/><line class="cls-3" x1="500.38" y1="22.61" x2="500.38" y2="22.61"/><line class="cls-3" x1="509.2" y1="22.61" x2="509.03" y2="22.43"/><line class="cls-3" x1="502.37" y1="22.61" x2="502.2" y2="22.43"/><polyline class="cls-3" points="491.22 31.51 491.22 30.82 491.65 30.82 491.74 30.82 491.65 30.82"/><polyline class="cls-3" points="518.89 31.51 518.89 30.82 518.46 30.82"/><polyline class="cls-3" points="503.84 21.91 502.98 21.91 503.24 20.53 503.58 20.53 503.84 21.91 503.84 26.67"/><line class="cls-3" x1="502.98" y1="26.67" x2="502.98" y2="21.91"/><line class="cls-3" x1="506.35" y1="26.67" x2="506.35" y2="21.91"/><polyline class="cls-3" points="507.22 26.67 507.22 21.91 506.35 21.91"/><polyline class="cls-3" points="507.22 21.91 506.96 20.53 506.61 20.53 506.35 21.91"/><polyline class="cls-3" points="510.59 21.91 509.72 21.91 509.98 20.53 510.33 20.53 510.59 21.91 510.59 26.67"/><line class="cls-3" x1="509.72" y1="26.67" x2="509.72" y2="21.91"/><line class="cls-3" x1="499.52" y1="26.67" x2="499.52" y2="21.91"/><polyline class="cls-3" points="500.38 26.67 500.38 21.91 499.52 21.91"/><polyline class="cls-3" points="500.38 21.91 500.12 20.53 499.78 20.53 499.52 21.91"/><polyline class="cls-3" points="509.72 31.51 509.72 31.34 510.59 31.34 510.59 31.51"/><polyline class="cls-3" points="509.72 31.34 509.72 30.65 510.59 30.65 510.59 31.34"/><polyline class="cls-3" points="509.72 30.65 509.72 30.39 510.59 30.39 510.59 30.65"/><line class="cls-3" x1="509.72" y1="29.7" x2="509.72" y2="30.39"/><line class="cls-3" x1="510.59" y1="29.7" x2="510.59" y2="30.39"/><polyline class="cls-3" points="500.38 29.7 500.38 30.39 500.38 30.65 500.38 31.34 500.38 31.51"/><line class="cls-3" x1="499.52" y1="29.7" x2="499.52" y2="30.39"/><polyline class="cls-3" points="500.38 30.39 499.52 30.39 499.52 30.65 499.52 31.34 499.52 31.51"/><line class="cls-3" x1="500.38" y1="30.65" x2="499.52" y2="30.65"/><line class="cls-3" x1="500.38" y1="31.34" x2="499.52" y2="31.34"/><line class="cls-3" x1="487.93" y1="30.48" x2="488.97" y2="30.48"/><line class="cls-2" x1="487.93" y1="42.52" x2="487.93" y2="45.11"/><polyline class="cls-2" points="487.93 42.52 488.97 42.52 488.97 45.11"/><line class="cls-3" x1="487.93" y1="30.48" x2="487.93" y2="31.51"/><line class="cls-2" x1="487.93" y1="33.67" x2="487.93" y2="42.52"/><line class="cls-3" x1="488.97" y1="30.48" x2="488.97" y2="31.51"/><line class="cls-2" x1="488.97" y1="33.67" x2="488.97" y2="42.52"/><line class="cls-3" x1="487.93" y1="29.09" x2="487.93" y2="30.48"/><polyline class="cls-3" points="487.93 29.09 488.97 29.09 488.97 30.48"/><path class="cls-2" d="m491.69,52.98c1.22,0,2.21-.99,2.21-2.21s-.99-2.21-2.2-2.21"/><line class="cls-2" x1="491.74" y1="47.71" x2="492.25" y2="46.76"/><polyline class="cls-2" points="492.25 46.76 492.25 45.63 491.74 45.63"/><polyline class="cls-2" points="491.74 45.11 491.74 53.93 491.74 55.23"/><polyline class="cls-2" points="491.74 55.23 488.97 56.01 488.97 55.06 491.74 53.93"/><polyline class="cls-2" points="485.86 53.93 487.93 55.06 487.93 56.01 485.86 55.23 485.86 53.93 485.86 45.11"/><line class="cls-2" x1="487.93" y1="56.01" x2="488.97" y2="56.01"/><line class="cls-2" x1="488.97" y1="55.06" x2="487.93" y2="55.06"/><line class="cls-2" x1="485.86" y1="45.11" x2="491.74" y2="45.11"/><polyline class="cls-3" points="488.97 34.37 489.14 34.37 489.14 33.67"/><polyline class="cls-2" points="522.26 45.11 522.26 42.52 521.14 42.52 521.14 45.11"/><line class="cls-3" x1="522.26" y1="29.09" x2="521.14" y2="29.09"/><line class="cls-2" x1="522.26" y1="42.52" x2="522.26" y2="33.67"/><line class="cls-3" x1="522.26" y1="31.51" x2="522.26" y2="29.09"/><line class="cls-2" x1="521.14" y1="42.52" x2="521.14" y2="33.67"/><line class="cls-3" x1="521.14" y1="31.51" x2="521.14" y2="29.09"/><path class="cls-2" d="m518.41,48.57c-1.22,0-2.21.99-2.21,2.21s.99,2.21,2.21,2.21"/><polyline class="cls-2" points="518.46 45.63 517.85 45.63 517.85 46.76 518.46 47.71"/><polyline class="cls-2" points="518.46 55.23 518.46 53.93 518.46 45.11"/><polyline class="cls-2" points="518.46 53.93 521.14 55.06 521.14 56.01 518.46 55.23"/><polyline class="cls-2" points="524.25 45.11 524.25 53.93 524.25 55.23 522.26 56.01 522.26 55.06 524.25 53.93"/><line class="cls-2" x1="521.14" y1="56.01" x2="522.26" y2="56.01"/><line class="cls-2" x1="522.26" y1="55.06" x2="521.14" y2="55.06"/><line class="cls-2" x1="524.25" y1="45.11" x2="518.46" y2="45.11"/><polyline class="cls-3" points="520.97 33.67 520.97 34.37 521.14 34.37"/><polyline class="cls-3" points="712.5 75.59 712.9 75.28 713.45 75.12 714 75.28 714.47 75.67"/><polyline class="cls-3" points="714.47 56.23 713.92 56.31 713.45 56.47 712.66 56.94 712.11 57.65 711.95 58.44"/><polyline class="cls-3" points="711.95 76.93 712.11 76.22 712.5 75.59"/><polyline class="cls-3" points="801.21 74.73 801.76 74.81 802.31 74.97 803.1 75.44 803.57 76.22 803.73 76.93"/><polyline class="cls-3" points="803.73 58.44 803.57 57.65 803.02 56.94 802.23 56.47 801.76 56.31 801.21 56.23"/><line class="cls-3" x1="711.95" y1="68.75" x2="711.95" y2="58.44"/><line class="cls-3" x1="803.73" y1="58.44" x2="803.73" y2="68.75"/><polyline class="cls-3" points="731.71 52.3 730.92 51.12 729.74 50.17 728.4 49.54 726.83 49.39 725.33 49.54 723.92 50.17 722.81 51.12 722.03 52.3"/><line class="cls-3" x1="765.24" y1="56.23" x2="801.21" y2="56.23"/><line class="cls-3" x1="731.39" y1="77.25" x2="736.75" y2="77.25"/><polyline class="cls-3" points="722.34 77.25 722.97 76.15 723.92 75.12 724.55 74.65 725.25 74.34 726.04 74.1 726.83 74.02 727.69 74.1 728.48 74.34 729.19 74.65 729.82 75.12 730.69 76.15 731.39 77.25"/><line class="cls-3" x1="716.91" y1="77.25" x2="722.34" y2="77.25"/><polyline class="cls-3" points="732.02 49.54 732.02 49.54 732.02 56.23 732.02 68.67"/><polyline class="cls-3" points="731.39 77.25 731.63 75.75 731.79 74.1 731.94 71.58 732.02 68.67"/><polyline class="cls-3" points="688.42 56.23 695.9 56.23 711.95 56.23 714.47 56.23"/><polyline class="cls-3" points="721.63 49.86 721.71 49.15 721.87 48.6 721.95 48.36 722.03 48.28 722.03 48.52 721.95 48.99 721.79 49.62 721.63 50.33"/><polyline class="cls-3" points="732.02 50.33 731.94 49.62 731.79 48.99 731.63 48.52 731.63 48.28 731.71 48.36 731.87 48.6 732.02 49.15 732.02 49.86"/><polyline class="cls-3" points="732.02 49.54 731.94 48.52 731.63 47.5 731.16 46.63 730.53 45.84 729.74 45.21 728.87 44.74 727.85 44.43 726.83 44.35 725.81 44.43 724.86 44.74 724 45.21 723.21 45.84 722.5 46.63 722.03 47.5 721.79 48.52 721.63 49.54"/><line class="cls-3" x1="721.63" y1="49.54" x2="721.63" y2="49.54"/><polyline class="cls-3" points="695.9 46.71 695.9 27.74 695.9 26.8"/><polyline class="cls-3" points="757.84 26.8 757.84 27.74 757.84 46.71"/><polyline class="cls-3" points="707.78 34.59 707.78 29.71 707.78 28.61"/><polyline class="cls-3" points="707.78 34.59 745.95 34.59 745.95 29.71 745.95 28.61"/><line class="cls-3" x1="707.78" y1="33.56" x2="745.95" y2="33.56"/><polyline class="cls-3" points="708.57 34.51 716.12 34.51 716.12 33.72 708.57 33.72 708.57 34.51"/><polyline class="cls-3" points="737.61 33.72 737.61 34.51 745.09 34.51 745.09 33.72 737.61 33.72"/><polyline class="cls-3" points="703.29 29 704.24 29.08 704.87 29.08 705.26 29.16 705.11 29.24 704.55 29.24 703.77 29.31 702.82 29.31 702.04 29.24 701.48 29.24 701.41 29.16 701.72 29.08 702.43 29.08 703.29 29"/><line class="cls-3" x1="707.78" y1="28.61" x2="697.71" y2="28.61"/><line class="cls-3" x1="697.71" y1="29.71" x2="707.78" y2="29.71"/><polyline class="cls-3" points="750.44 29 751.31 29.08 752.01 29.08 752.33 29.16 752.25 29.24 751.7 29.24 750.83 29.31 749.97 29.31 749.1 29.24 748.55 29.24 748.47 29.16 748.79 29.08 749.5 29.08 750.44 29"/><line class="cls-3" x1="745.95" y1="29.71" x2="755.95" y2="29.71"/><line class="cls-3" x1="755.95" y1="28.61" x2="745.95" y2="28.61"/><polyline class="cls-3" points="757.84 27.74 755.95 27.74 755.95 26.64 697.71 26.64 697.71 27.74 695.9 27.74"/><line class="cls-3" x1="697.71" y1="29.71" x2="697.71" y2="27.74"/><line class="cls-3" x1="755.95" y1="29.71" x2="755.95" y2="27.74"/><polyline class="cls-3" points="721.63 68.67 721.71 71.58 721.95 74.1 722.11 75.75 722.34 77.25"/><polyline class="cls-3" points="721.63 68.67 721.63 56.23 721.63 49.54"/><line class="cls-3" x1="711.95" y1="68.75" x2="711.95" y2="78.82"/><polyline class="cls-3" points="803.73 78.82 803.73 68.75 827.26 68.75"/><polyline class="cls-3" points="703.29 26.4 701.56 26.4 699.91 26.48 698.42 26.48 696.92 26.56 695.66 26.72"/><line class="cls-3" x1="750.44" y1="26.4" x2="703.29" y2="26.4"/><polyline class="cls-3" points="827.26 68.75 829.46 68.59 831.59 68.12 833.56 67.25 835.21 66.23 836.47 64.89 837.33 63.47 837.73 61.9 837.73 60.33 837.18 58.75 836.15 57.33 834.82 56.08 833.08 55.05 831.04 54.34"/><polyline class="cls-3" points="754.22 26.48 752.33 26.4 750.44 26.4"/><line class="cls-3" x1="758.39" y1="26.64" x2="754.22" y2="26.48"/><polyline class="cls-3" points="801.44 41.36 796.64 40.33 792 39.31 787.51 38.29 783.03 37.26 774.53 35.22 766.42 33.09"/><line class="cls-3" x1="831.04" y1="54.34" x2="814.67" y2="49.86"/><line class="cls-3" x1="686.85" y1="46.87" x2="678.97" y2="57.96"/><polyline class="cls-3" points="678.97 57.96 678.27 59.38 677.87 60.88 678.03 62.37 678.5 63.87 679.45 65.21 680.78 66.39 682.36 67.41 684.25 68.12 686.29 68.59 688.42 68.75"/><line class="cls-3" x1="688.42" y1="68.75" x2="711.95" y2="68.75"/><line class="cls-3" x1="754.45" y1="26.48" x2="754.45" y2="26.4"/><polyline class="cls-3" points="750.44 26.4 750.44 26.32 754.45 26.4"/><line class="cls-3" x1="837.81" y1="71.34" x2="837.81" y2="61.27"/><line class="cls-3" x1="677.87" y1="71.34" x2="677.87" y2="61.27"/><line class="cls-3" x1="711.95" y1="78.82" x2="711.95" y2="78.82"/><polyline class="cls-3" points="803.73 78.82 803.73 78.82 827.26 78.82"/><polyline class="cls-3" points="837.81 71.34 837.57 72.84 837.02 74.18 836 75.52 834.74 76.62 833.08 77.56 831.27 78.27 829.31 78.66 827.26 78.82"/><polyline class="cls-3" points="688.42 78.82 686.37 78.66 684.41 78.27 682.59 77.56 680.94 76.62 679.68 75.52 678.66 74.18 678.11 72.84 677.87 71.34"/><line class="cls-3" x1="711.95" y1="78.82" x2="688.42" y2="78.82"/><polyline class="cls-3" points="827.26 78.82 828.99 78.74 830.72 78.43 832.38 77.88 833.95 77.09"/><line class="cls-3" x1="803.73" y1="78.82" x2="827.26" y2="78.82"/><polyline class="cls-3" points="681.73 77.09 683.3 77.88 684.96 78.43 686.69 78.74 688.42 78.82"/><line class="cls-3" x1="688.42" y1="78.82" x2="711.95" y2="78.82"/><polyline class="cls-3" points="695.66 26.72 695.35 27.82 694.87 29.08 694.4 30.42 693.85 31.75"/><polyline class="cls-3" points="766.42 33.09 765.16 32.7 763.82 32.15 762.64 31.36 761.54 30.57 760.52 29.63 759.65 28.69 758.94 27.66 758.39 26.64"/><polyline class="cls-3" points="686.85 46.87 687.87 45.29 688.5 44.19"/><polyline class="cls-3" points="693.85 31.75 692.75 34.75 691.41 37.89 689.99 41.12 688.5 44.19"/><polyline class="cls-3" points="758.15 49.54 758.39 50.49 758.71 51.35 759.1 52.06 759.41 52.69 760.12 53.71 760.91 54.58 761.85 55.29 762.96 55.76 764.06 56.15 765.24 56.23"/><line class="cls-3" x1="695.66" y1="26.72" x2="695.9" y2="26.8"/><polyline class="cls-3" points="758.39 26.64 758 26.72 757.84 26.8"/><polyline class="cls-3" points="688.42 56.23 689.68 56.15 690.94 55.76 692.12 55.05 693.14 54.27 693.93 53.24 694.64 52.06 695.19 50.8 695.58 49.54 695.82 48.13 695.9 46.71"/><polyline class="cls-3" points="757.84 46.71 757.92 48.13 758.15 49.54"/><polyline class="cls-3" points="814.67 49.86 813.25 49.46 811.91 48.91 810.57 48.2 809.31 47.5 808.13 46.63 807.19 45.76 806.32 44.9 805.61 43.95 804.83 43.01 803.8 42.3 802.62 41.75 801.44 41.36"/><polyline class="cls-3" points="827.26 59.14 828.44 59.3 829.38 59.77 830.09 60.48 830.33 61.27 830.09 62.14 829.38 62.84 828.44 63.32 827.26 63.47 826.08 63.32 825.13 62.84 824.43 62.14 824.19 61.27 824.43 60.48 825.13 59.77 826.08 59.3 827.26 59.14"/><polyline class="cls-3" points="688.42 59.14 689.6 59.3 690.54 59.77 691.25 60.48 691.49 61.27 691.25 62.14 690.54 62.84 689.6 63.32 688.42 63.47 687.24 63.32 686.29 62.84 685.59 62.14 685.35 61.27 685.59 60.48 686.29 59.77 687.24 59.3 688.42 59.14"/><polyline class="cls-3" points="741.23 74.73 740.6 74.81 740.05 75.04 739.58 75.36 739.11 75.83"/><line class="cls-3" x1="714.55" y1="75.83" x2="714.47" y2="75.67"/><polyline class="cls-3" points="738.87 76.15 737.93 76.93 737.38 77.17 736.75 77.25"/><polyline class="cls-3" points="716.91 77.25 716.36 77.17 715.73 76.93 715.26 76.62 714.79 76.15"/><line class="cls-3" x1="738.87" y1="76.15" x2="739.11" y2="75.83"/><line class="cls-3" x1="714.79" y1="76.15" x2="714.55" y2="75.83"/><line class="cls-3" x1="741.23" y1="74.73" x2="801.21" y2="74.73"/><line class="cls-3" x1="722.03" y1="52.38" x2="722.03" y2="52.38"/><polyline class="cls-3" points="722.03 52.38 721.95 52.14 721.87 51.83 721.79 51.35 721.71 50.8"/><polyline class="cls-3" points="732.02 50.8 731.94 51.35 731.79 51.83 731.71 52.14 731.63 52.38"/><line class="cls-3" x1="721.71" y1="50.8" x2="721.63" y2="49.78"/><polyline class="cls-3" points="722.03 52.38 722.81 54.34 723.37 55.37 724 56.23 724.7 57.1 725.49 57.73 726.28 58.12 726.83 58.28 727.46 58.12 728.17 57.73 728.95 57.1 729.66 56.23 730.37 55.37 730.92 54.34 731.63 52.38"/><line class="cls-3" x1="732.02" y1="50.8" x2="732.02" y2="49.78"/><polyline class="cls-3" points="754.45 26.4 753.12 26.4 751.78 26.4 750.44 26.32"/><polyline class="cls-3" points="698.08 26.72 698.08 28.7 701.81 28.7 751.82 28.7 755.63 28.7 755.63 26.72 751.82 26.72 701.81 26.72 698.08 26.72"/><line class="cls-3" x1="727.93" y1="24.58" x2="725.71" y2="24.58"/><line class="cls-3" x1="728.8" y1="26.64" x2="728.8" y2="24.73"/><path class="cls-3" d="m728.88,24.77c0-.11-.09-.2-.2-.2"/><path class="cls-3" d="m728.83,26.73s.05-.08.05-.13"/><polyline class="cls-3" points="727.93 26.72 727.93 26.64 727.93 24.73 727.93 24.58 728.64 24.58"/><line class="cls-3" x1="725.71" y1="26.72" x2="725.71" y2="26.64"/><polyline class="cls-3" points="725.71 26.64 725.71 24.73 725.71 24.58"/><path class="cls-3" d="m725.03,24.58c-.11,0-.2.09-.2.2"/><line class="cls-3" x1="724.83" y1="24.73" x2="724.83" y2="26.64"/><path class="cls-3" d="m724.83,26.6s.02.1.05.13"/><line class="cls-3" x1="725.71" y1="24.58" x2="724.99" y2="24.58"/><polyline class="cls-3" points="714.59 26.72 714.59 25.29 716.26 25.29 716.26 26.72"/><polyline class="cls-3" points="718.48 26.72 718.48 25.29 720.07 25.29 720.07 26.72"/><line class="cls-3" x1="716.26" y1="25.29" x2="718.48" y2="25.29"/><line class="cls-3" x1="737.45" y1="25.29" x2="737.45" y2="26.72"/><polyline class="cls-3" points="737.45 25.29 739.12 25.29 739.12 26.72"/><line class="cls-3" x1="733.56" y1="25.29" x2="733.56" y2="26.72"/><polyline class="cls-3" points="733.56 25.29 735.23 25.29 735.23 26.72"/><line class="cls-3" x1="735.23" y1="25.29" x2="737.45" y2="25.29"/><polyline class="cls-3" points="731.9 23.31 730.94 23.31 731.42 24.26 731.9 23.31"/><line class="cls-3" x1="729.28" y1="18.54" x2="729.36" y2="18.54"/><polyline class="cls-3" points="729.44 18.38 729.44 14.73 729.44 14.1"/><polyline class="cls-3" points="728.8 18.54 729.28 18.54 729.36 18.38"/><line class="cls-3" x1="729.36" y1="14.81" x2="729.44" y2="14.81"/><line class="cls-3" x1="738.8" y1="25.29" x2="739.04" y2="25.05"/><polyline class="cls-3" points="735.31 25.29 735.31 22.51 735.31 22.04 735.31 17.67 735.31 17.19 735.31 14.33"/><polyline class="cls-3" points="733.56 26.08 732.61 26.08 732.61 25.05 730.47 25.05 730.47 26.08 729.44 26.08 729.44 25.05 728.8 25.05"/><polyline class="cls-3" points="720.07 26.08 721.1 26.08 721.1 25.05 723.24 25.05 723.24 26.08 724.2 26.08 724.2 25.05 724.83 25.05"/><polyline class="cls-3" points="718.4 14.33 718.4 17.67 718.4 22.04 718.4 22.51 718.4 25.29"/><line class="cls-3" x1="714.67" y1="25.05" x2="714.91" y2="25.29"/><path class="cls-3" d="m729.44,14.06s-.02-.04-.04-.04"/><line class="cls-3" x1="729.44" y1="14.02" x2="724.36" y2="14.02"/><path class="cls-3" d="m724.32,14.02c-.07,0-.12.05-.12.12"/><line class="cls-3" x1="733.8" y1="14.81" x2="733.8" y2="14.81"/><line class="cls-3" x1="729.36" y1="14.81" x2="729.36" y2="14.73"/><line class="cls-3" x1="731.1" y1="21.4" x2="728.8" y2="21.4"/><polyline class="cls-3" points="730.63 18.54 730.63 18.54 731.1 18.54"/><polyline class="cls-3" points="730.47 14.18 730.47 14.81 730.47 18.38"/><line class="cls-3" x1="734.28" y1="14.02" x2="734.28" y2="14.02"/><polyline class="cls-3" points="734.99 14.02 734.6 14.02 734.52 14.02"/><line class="cls-3" x1="734.52" y1="14.1" x2="734.6" y2="14.02"/><path class="cls-3" d="m735.31,14.3c0-.15-.12-.28-.28-.28"/><path class="cls-3" d="m735.23,19.46c0,.07.03.14.08.2"/><polyline class="cls-3" points="738.8 20.05 735.87 20.05 735.71 19.97 735.39 19.65"/><path class="cls-3" d="m739.04,20.33c0-.15-.12-.28-.28-.28"/><line class="cls-3" x1="739.04" y1="25.05" x2="739.04" y2="20.29"/><path class="cls-3" d="m735.31,17.71c0-.15-.12-.28-.28-.28"/><path class="cls-3" d="m735.31,22.55c0-.15-.12-.28-.28-.28"/><path class="cls-3" d="m718.68,22.27c-.15,0-.28.12-.28.28"/><path class="cls-3" d="m718.68,17.43c-.15,0-.28.12-.28.28"/><polyline class="cls-3" points="718.64 17.27 718.48 17.43 718.4 17.67"/><path class="cls-3" d="m718.68,14.02c-.15,0-.28.12-.28.28"/><path class="cls-3" d="m718.32,19.65c.05-.05.08-.12.08-.2"/><line class="cls-3" x1="714.67" y1="20.29" x2="714.67" y2="25.05"/><path class="cls-3" d="m714.87,20.05c-.15,0-.28.12-.28.28"/><line class="cls-3" x1="717.77" y1="20.05" x2="714.91" y2="20.05"/><path class="cls-3" d="m717.81,20.05c.07,0,.14-.03.2-.08"/><line class="cls-3" x1="718.32" y1="19.65" x2="718" y2="19.97"/><polyline class="cls-3" points="718.64 14.02 719.04 14.02 719.2 14.02"/><line class="cls-3" x1="719.04" y1="14.02" x2="719.2" y2="14.1"/><polyline class="cls-3" points="723.24 18.38 723.24 14.81 723.24 14.18"/><polyline class="cls-3" points="722.53 18.54 722.61 18.54 723.09 18.54"/><path class="cls-3" d="m723.12,18.54c.07,0,.12-.05.12-.12"/><line class="cls-3" x1="722.53" y1="18.54" x2="722.53" y2="18.54"/><line class="cls-3" x1="724.83" y1="21.4" x2="722.53" y2="21.4"/><polyline class="cls-3" points="724.36 18.54 724.36 18.54 724.83 18.54"/><polyline class="cls-3" points="724.2 14.18 724.2 14.81 724.2 18.38"/><line class="cls-3" x1="730.63" y1="18.54" x2="730.63" y2="18.38"/><line class="cls-3" x1="724.36" y1="18.54" x2="724.36" y2="18.38"/><line class="cls-3" x1="722.61" y1="18.54" x2="722.77" y2="18.38"/><polyline class="cls-3" points="719.91 14.81 719.91 14.81 719.83 14.65"/><line class="cls-3" x1="734.99" y1="22.27" x2="718.64" y2="22.27"/><line class="cls-3" x1="733.88" y1="14.65" x2="733.8" y2="14.81"/><polyline class="cls-3" points="734.44 14.1 734.52 14.1 734.6 14.02"/><line class="cls-3" x1="734.6" y1="14.33" x2="734.52" y2="14.1"/><line class="cls-3" x1="734.99" y1="17.43" x2="733.01" y2="17.43"/><polyline class="cls-3" points="720.62 17.43 720.62 17.51 720.54 17.67"/><line class="cls-3" x1="720.62" y1="17.43" x2="718.64" y2="17.43"/><path class="cls-3" d="m719.27,14.1c-.05-.05-.12-.08-.2-.08"/><polyline class="cls-3" points="719.91 17.43 719.91 15.05 719.91 14.81"/><polyline class="cls-3" points="720.78 22.27 720.78 22.04 720.78 17.51"/><polyline class="cls-3" points="732.93 22.27 732.93 22.04 732.93 17.67 732.93 17.51"/><polyline class="cls-3" points="733.8 17.43 733.8 17.19 733.8 15.05 733.8 14.81"/><line class="cls-3" x1="734.44" y1="14.1" x2="733.8" y2="14.73"/><path class="cls-3" d="m733.84,14.77s-.03.05-.03.08"/><path class="cls-3" d="m733.05,17.43c-.07,0-.12.05-.12.12"/><polyline class="cls-3" points="720.54 17.67 720.7 17.59 720.78 17.51"/><line class="cls-3" x1="720.78" y1="17.51" x2="720.62" y2="17.43"/><line class="cls-3" x1="719.91" y1="17.43" x2="719.75" y2="17.27"/><line class="cls-3" x1="719.83" y1="14.73" x2="719.2" y2="14.1"/><path class="cls-3" d="m719.91,14.85s-.01-.06-.03-.08"/><line class="cls-3" x1="729.36" y1="18.54" x2="729.44" y2="18.38"/><line class="cls-3" x1="728.8" y1="18.54" x2="728.8" y2="18.54"/><polyline class="cls-3" points="734.52 14.02 734.28 14.02 730.63 14.02"/><path class="cls-3" d="m730.59,14.1c-.07,0-.12.05-.12.12"/><polyline class="cls-3" points="719.2 14.02 719.35 14.02 723.09 14.02"/><path class="cls-3" d="m723.24,14.22c0-.07-.05-.12-.12-.12"/><line class="cls-3" x1="731.1" y1="18.54" x2="731.1" y2="18.54"/><line class="cls-3" x1="731.1" y1="21.4" x2="731.1" y2="21.4"/><line class="cls-3" x1="728.8" y1="21.4" x2="728.8" y2="21.4"/><line class="cls-3" x1="724.83" y1="18.54" x2="724.91" y2="18.54"/><line class="cls-3" x1="724.83" y1="21.4" x2="724.91" y2="21.4"/><line class="cls-3" x1="722.53" y1="21.4" x2="722.53" y2="21.4"/><line class="cls-3" x1="722.53" y1="18.54" x2="722.53" y2="18.54"/><line class="cls-3" x1="730.63" y1="18.54" x2="730.47" y2="18.38"/><line class="cls-3" x1="724.36" y1="18.54" x2="724.2" y2="18.38"/><polyline class="cls-3" points="714.11 26.72 714.11 26.08 714.51 26.08 714.59 26.08 714.51 26.08"/><polyline class="cls-3" points="739.52 26.72 739.52 26.08 739.12 26.08"/><polyline class="cls-3" points="725.71 17.91 724.91 17.91 725.15 16.64 725.47 16.64 725.71 17.91 725.71 22.27"/><line class="cls-3" x1="724.91" y1="22.27" x2="724.91" y2="17.91"/><line class="cls-3" x1="728.01" y1="22.27" x2="728.01" y2="17.91"/><polyline class="cls-3" points="728.8 22.27 728.8 17.91 728.01 17.91"/><polyline class="cls-3" points="728.8 17.91 728.56 16.64 728.25 16.64 728.01 17.91"/><polyline class="cls-3" points="731.9 17.91 731.1 17.91 731.34 16.64 731.66 16.64 731.9 17.91 731.9 22.27"/><line class="cls-3" x1="731.1" y1="22.27" x2="731.1" y2="17.91"/><line class="cls-3" x1="721.74" y1="22.27" x2="721.74" y2="17.91"/><polyline class="cls-3" points="722.53 22.27 722.53 17.91 721.74 17.91"/><polyline class="cls-3" points="722.53 17.91 722.29 16.64 721.97 16.64 721.74 17.91"/><polyline class="cls-3" points="731.1 26.72 731.1 26.56 731.9 26.56 731.9 26.72"/><polyline class="cls-3" points="731.1 26.56 731.1 25.93 731.9 25.93 731.9 26.56"/><polyline class="cls-3" points="731.1 25.93 731.1 25.69 731.9 25.69 731.9 25.93"/><line class="cls-3" x1="731.1" y1="25.05" x2="731.1" y2="25.69"/><line class="cls-3" x1="731.9" y1="25.05" x2="731.9" y2="25.69"/><polyline class="cls-3" points="722.53 25.05 722.53 25.69 722.53 25.93 722.53 26.56 722.53 26.72"/><line class="cls-3" x1="721.74" y1="25.05" x2="721.74" y2="25.69"/><polyline class="cls-3" points="722.53 25.69 721.74 25.69 721.74 25.93 721.74 26.56 721.74 26.72"/><line class="cls-3" x1="722.53" y1="25.93" x2="721.74" y2="25.93"/><line class="cls-3" x1="722.53" y1="26.56" x2="721.74" y2="26.56"/><line class="cls-3" x1="711.1" y1="25.77" x2="712.05" y2="25.77"/><line class="cls-7" x1="711.1" y1="36.93" x2="711.1" y2="39.31"/><polyline class="cls-7" points="711.1 36.93 712.05 36.93 712.05 39.31"/><line class="cls-3" x1="711.1" y1="25.77" x2="711.1" y2="26.72"/><line class="cls-7" x1="711.1" y1="28.7" x2="711.1" y2="36.93"/><line class="cls-3" x1="712.05" y1="25.77" x2="712.05" y2="26.72"/><line class="cls-7" x1="712.05" y1="28.7" x2="712.05" y2="36.93"/><line class="cls-3" x1="711.1" y1="24.5" x2="711.1" y2="25.77"/><polyline class="cls-3" points="711.1 24.5 712.05 24.5 712.05 25.77"/><path class="cls-7" d="m714.55,46.54c1.12,0,2.02-.91,2.02-2.02s-.91-2.02-2.02-2.02"/><line class="cls-7" x1="714.59" y1="41.69" x2="715.07" y2="40.82"/><polyline class="cls-7" points="715.07 40.82 715.07 39.79 714.59 39.79"/><polyline class="cls-7" points="714.59 39.31 714.59 47.41 714.59 48.6"/><polyline class="cls-7" points="714.59 48.6 712.05 49.31 712.05 48.44 714.59 47.41"/><polyline class="cls-7" points="709.19 47.41 711.1 48.44 711.1 49.31 709.19 48.6 709.19 47.41 709.19 39.31"/><line class="cls-7" x1="711.1" y1="49.31" x2="712.05" y2="49.31"/><line class="cls-7" x1="712.05" y1="48.44" x2="711.1" y2="48.44"/><line class="cls-7" x1="709.19" y1="39.31" x2="714.59" y2="39.31"/><polyline class="cls-3" points="712.05 29.34 712.21 29.34 712.21 28.7"/><polyline class="cls-7" points="742.61 39.31 742.61 36.93 741.58 36.93 741.58 39.31"/><line class="cls-3" x1="742.61" y1="24.5" x2="741.58" y2="24.5"/><line class="cls-7" x1="742.61" y1="36.93" x2="742.61" y2="28.7"/><line class="cls-3" x1="742.61" y1="26.72" x2="742.61" y2="24.5"/><line class="cls-7" x1="741.58" y1="36.93" x2="741.58" y2="28.7"/><line class="cls-3" x1="741.58" y1="26.72" x2="741.58" y2="24.5"/><path class="cls-7" d="m739.08,42.49c-1.12,0-2.02.91-2.02,2.02s.91,2.02,2.02,2.02"/><polyline class="cls-7" points="739.12 39.79 738.57 39.79 738.57 40.82 739.12 41.69"/><polyline class="cls-7" points="739.12 48.6 739.12 47.41 739.12 39.31"/><polyline class="cls-7" points="739.12 47.41 741.58 48.44 741.58 49.31 739.12 48.6"/><polyline class="cls-7" points="744.44 39.31 744.44 47.41 744.44 48.6 742.61 49.31 742.61 48.44 744.44 47.41"/><line class="cls-7" x1="741.58" y1="49.31" x2="742.61" y2="49.31"/><line class="cls-7" x1="742.61" y1="48.44" x2="741.58" y2="48.44"/><line class="cls-7" x1="744.44" y1="39.31" x2="739.12" y2="39.31"/><polyline class="cls-3" points="741.42 28.7 741.42 29.34 741.58 29.34"/><rect class="cls-1" x="33.99" y="35.01" width="8.22" height="9.94"/><rect class="cls-1" x="64.28" y="35.01" width="8.22" height="9.94"/><rect class="cls-1" x="263.24" y="24.74" width="26.23" height="23.01"/><rect class="cls-1" x="293.51" y="41.49" width="26.23" height="23.01"/><path class="cls-6" d="m648.54,42.23c0,2.83-1.96,4.07-3.82,4.07-2.08,0-3.67-1.52-3.67-3.94,0-2.57,1.68-4.07,3.8-4.07s3.69,1.6,3.69,3.94Zm-6.08.08c0,1.68.97,2.95,2.33,2.95s2.33-1.25,2.33-2.98c0-1.3-.65-2.95-2.3-2.95s-2.36,1.52-2.36,2.98Z"/><path class="cls-5" d="m649.13,46.71l4.05-10.53h.99l-4.07,10.53h-.97Z"/><path class="cls-8" d="m695.65,12.08c0,.12,0,.22-.02.31s-.03.15-.05.2-.05.08-.08.11c-.03.02-.06.03-.1.03h-4.6s-.07-.01-.1-.03-.06-.06-.08-.11c-.02-.05-.04-.12-.06-.2-.01-.08-.02-.19-.02-.31s0-.23.02-.31c.01-.08.03-.15.05-.2.02-.05.05-.09.08-.11.03-.02.06-.04.1-.04h1.55v-5.43l-1.34.74c-.1.05-.18.08-.24.09-.06.01-.11,0-.15-.04-.04-.04-.06-.1-.07-.19-.01-.09-.02-.22-.02-.38,0-.1,0-.19,0-.25,0-.07.02-.12.03-.17.02-.05.04-.09.07-.12.03-.03.07-.06.12-.1l1.79-1.16s.05-.03.08-.04.07-.02.13-.03.12-.01.2-.01c.08,0,.19,0,.33,0,.16,0,.29,0,.4,0,.1,0,.18.02.23.03s.09.04.1.06c.02.03.03.06.03.1v6.89h1.36s.07.01.11.04c.03.02.06.06.08.11.02.05.04.12.05.2.01.08.02.19.02.31Z"/><path class="cls-8" d="m702.42,12.03c0,.12,0,.23-.02.32s-.03.16-.05.22c-.02.06-.05.1-.08.12-.03.02-.07.04-.12.04h-4.8c-.09,0-.18,0-.25-.03-.07-.02-.12-.05-.17-.1s-.07-.12-.09-.22c-.02-.09-.03-.22-.03-.37,0-.14,0-.26.02-.36.01-.1.04-.19.07-.27.03-.08.08-.16.13-.23s.12-.16.21-.25l1.44-1.55c.29-.3.52-.57.7-.82.18-.25.31-.47.41-.68.1-.2.17-.39.2-.56.04-.17.05-.33.05-.49,0-.14-.02-.28-.07-.4-.05-.13-.11-.24-.2-.33-.09-.09-.2-.17-.33-.22s-.29-.08-.47-.08c-.25,0-.48.03-.67.1-.2.06-.37.14-.52.22-.15.08-.27.15-.37.22-.1.07-.18.1-.23.1-.04,0-.07-.01-.1-.04s-.05-.07-.07-.13c-.02-.06-.03-.14-.04-.24s-.02-.22-.02-.37c0-.1,0-.18,0-.25,0-.07.02-.12.03-.17.01-.05.03-.09.05-.13.02-.04.06-.08.11-.13.05-.05.15-.12.3-.2.14-.08.32-.16.53-.23.21-.08.44-.14.7-.19.25-.05.52-.08.79-.08.43,0,.81.05,1.14.16.32.11.59.26.81.46s.38.43.48.7.16.56.16.87c0,.27-.03.54-.08.8s-.16.54-.32.85c-.16.3-.39.64-.69,1.01-.3.37-.69.79-1.18,1.28l-.97,1h3.29s.08.01.12.04c.04.03.07.07.09.12s.04.12.06.21c.01.09.02.19.02.31Z"/><circle class="cls-5" cx="696.25" cy="9.13" r="8.88"/><path class="cls-8" d="m753.9,12.08c0,.12,0,.22-.02.31s-.03.15-.05.2-.05.08-.08.11c-.03.02-.06.03-.1.03h-4.6s-.07-.01-.1-.03-.06-.06-.08-.11c-.02-.05-.04-.12-.06-.2-.01-.08-.02-.19-.02-.31s0-.23.02-.31c.01-.08.03-.15.05-.2.02-.05.05-.09.08-.11.03-.02.06-.04.1-.04h1.55v-5.43l-1.34.74c-.1.05-.18.08-.24.09-.06.01-.11,0-.15-.04-.04-.04-.06-.1-.07-.19-.01-.09-.02-.22-.02-.38,0-.1,0-.19,0-.25,0-.07.02-.12.03-.17.02-.05.04-.09.07-.12.03-.03.07-.06.12-.1l1.79-1.16s.05-.03.08-.04.07-.02.13-.03.12-.01.2-.01c.08,0,.19,0,.33,0,.16,0,.29,0,.4,0,.1,0,.18.02.23.03s.09.04.1.06c.02.03.03.06.03.1v6.89h1.36s.07.01.11.04c.03.02.06.06.08.11.02.05.04.12.05.2.01.08.02.19.02.31Z"/><path class="cls-8" d="m760.66,12.03c0,.12,0,.23-.02.32s-.03.16-.05.22c-.02.06-.05.1-.08.12-.03.02-.07.04-.12.04h-4.8c-.09,0-.18,0-.25-.03-.07-.02-.12-.05-.17-.1s-.07-.12-.09-.22c-.02-.09-.03-.22-.03-.37,0-.14,0-.26.02-.36.01-.1.04-.19.07-.27.03-.08.08-.16.13-.23s.12-.16.21-.25l1.44-1.55c.29-.3.52-.57.7-.82.18-.25.31-.47.41-.68.1-.2.17-.39.2-.56.04-.17.05-.33.05-.49,0-.14-.02-.28-.07-.4-.05-.13-.11-.24-.2-.33-.09-.09-.2-.17-.33-.22s-.29-.08-.47-.08c-.25,0-.48.03-.67.1-.2.06-.37.14-.52.22-.15.08-.27.15-.37.22-.1.07-.18.1-.23.1-.04,0-.07-.01-.1-.04s-.05-.07-.07-.13c-.02-.06-.03-.14-.04-.24s-.02-.22-.02-.37c0-.1,0-.18,0-.25,0-.07.02-.12.03-.17.01-.05.03-.09.05-.13.02-.04.06-.08.11-.13.05-.05.15-.12.3-.2.14-.08.32-.16.53-.23.21-.08.44-.14.7-.19.25-.05.52-.08.79-.08.43,0,.81.05,1.14.16.32.11.59.26.81.46s.38.43.48.7.16.56.16.87c0,.27-.03.54-.08.8s-.16.54-.32.85c-.16.3-.39.64-.69,1.01-.3.37-.69.79-1.18,1.28l-.97,1h3.29s.08.01.12.04c.04.03.07.07.09.12s.04.12.06.21c.01.09.02.19.02.31Z"/><circle class="cls-5" cx="754.5" cy="9.13" r="8.88"/></svg>