<?xml version="1.0" encoding="UTF-8"?><svg id="Layer_1" xmlns="http://www.w3.org/2000/svg" viewBox="0 0 841.88983154296875 595.27557373046875"><defs><style>.cls-1{stroke:#1d1e1c;}.cls-1,.cls-2,.cls-3{fill:none;stroke-linecap:round;stroke-linejoin:round;}.cls-2{stroke:#d2155b;}.cls-4{fill:#d2155b;}.cls-3{stroke:#000;stroke-width:.25px;}.cls-5{fill:#1d1e1c;}</style></defs><polyline class="cls-3" points="206.151126944585485 489.617972135292803 204.324093578714383 488.247542225048164 201.583388644066872 487.790783883594486 199.299442050883954 489.161213793839124 199.299442050883954 491.445005501160267 201.583388644066872 492.815435411406725 204.324093578714383 492.358522184116737 206.151126944585485 490.531488818249272"/><line class="cls-3" x1="206.151126944585485" y1="473.630810640588606" x2="206.151126944585485" y2="489.617972135292803"/><polyline class="cls-3" points="208.435073537762946 490.531488818249272 209.348590220701226 492.358522184116737 211.632536813876868 492.815435411406725 213.916328521214382 492.358522184116737 215.286758431460839 490.531488818249272"/><line class="cls-3" x1="208.435073537762946" y1="489.617972135292803" x2="208.435073537762946" y2="474.087568982047742"/><polyline class="cls-3" points="215.286758431460839 489.617972135292803 213.916328521214382 488.247542225048164 211.632536813876868 487.790783883594486 209.348590220701226 488.247542225048164 208.435073537762946 489.617972135292803"/><line class="cls-3" x1="215.286758431460839" y1="475.001085664998755" x2="215.286758431460839" y2="489.617972135292803"/><polyline class="cls-3" points="217.570550138800172 490.531488818249272 218.484066821736633 492.358522184116737 220.768013414908637 492.815435411406725 223.051960008095193 492.358522184116737 224.422235032496246 490.531488818249272"/><line class="cls-3" x1="217.570550138800172" y1="489.617972135292803" x2="217.570550138800172" y2="475.001085664998755"/><polyline class="cls-3" points="224.422235032496246 489.617972135292803 223.051960008095193 488.247542225048164 220.768013414908637 487.790783883594486 218.484066821736633 488.247542225048164 217.570550138800172 489.617972135292803"/><line class="cls-3" x1="224.422235032496246" y1="475.457844006446976" x2="224.422235032496246" y2="489.617972135292803"/><polyline class="cls-3" points="226.706181625670069 490.531488818249272 227.61969830860653 492.358522184116737 229.903490015945863 492.815435411406725 232.1874366091306 492.358522184116737 233.557711633533472 490.531488818249272"/><line class="cls-3" x1="226.706181625670069" y1="489.617972135292803" x2="226.706181625670069" y2="475.457844006446976"/><polyline class="cls-3" points="233.557711633533472 489.617972135292803 232.1874366091306 488.247542225048164 229.903490015945863 487.790783883594486 227.61969830860653 488.247542225048164 226.706181625670069 489.617972135292803"/><line class="cls-3" x1="233.557711633533472" y1="475.001085664998755" x2="233.557711633533472" y2="489.617972135292803"/><polyline class="cls-3" points="235.841658226701838 490.531488818249272 236.755174909638299 492.358522184116737 239.039121502826674 492.815435411406725 241.322913210166007 492.358522184116737 242.693343120412464 490.531488818249272"/><line class="cls-3" x1="235.841658226701838" y1="489.617972135292803" x2="235.841658226701838" y2="475.001085664998755"/><polyline class="cls-3" points="242.693343120412464 489.617972135292803 241.322913210166007 488.247542225048164 239.039121502826674 487.790783883594486 236.755174909638299 488.247542225048164 235.841658226701838 489.617972135292803"/><line class="cls-3" x1="242.693343120412464" y1="474.087568982047742" x2="242.693343120412464" y2="489.617972135292803"/><line class="cls-3" x1="244.977134827751797" y1="489.617972135292803" x2="244.977134827751797" y2="473.630810640588606"/><polyline class="cls-3" points="244.977134827751797 490.531488818249272 246.347564737987341 492.358522184116737 249.545028014108539 492.815435411406725 251.372061379974184 491.445005501160267 251.372061379974184 489.161213793839124 249.545028014108539 487.790783883594486 246.347564737987341 488.247542225048164 244.977134827751797 489.617972135292803"/><polyline class="cls-3" points="275.124424451341838 476.828119030869857 286.543847645558344 470.890105705930182 296.59299581536834 463.58166247076224 305.271714074937336 455.359702552683302 311.666640627170636 446.680829407261626 316.234378927685611 437.08859446471979 318.51832552086853 427.039446294942536"/><line class="cls-3" x1="175.547078979523576" y1="476.828119030869857" x2="198.842683709419362" y2="476.828119030869857"/><line class="cls-3" x1="251.828819721447871" y1="476.828119030869857" x2="275.124424451341838" y2="476.828119030869857"/><polyline class="cls-3" points="132.153332795835013 427.039446294942536 134.893882844646214 437.08859446471979 139.461776031002955 446.680829407261626 145.856547697392671 455.359702552683302 154.078507615489798 463.58166247076224 164.127655785308889 470.890105705930182 175.547078979523576 476.828119030869857"/><polyline class="cls-3" points="318.51832552086853 427.039446294942536 318.51832552086853 416.533694669491524 318.975083862333122 410.59552645873373"/><polyline class="cls-3" points="132.153332795835013 427.039446294942536 132.153332795835013 416.533694669491524 132.153332795835013 410.59552645873373"/><line class="cls-3" x1="175.547078979523576" y1="464.951937495165112" x2="175.547078979523576" y2="476.828119030869857"/><polyline class="cls-3" points="275.124424451341838 464.951937495165112 287.914277555806621 458.557165828788129 298.420029181243081 450.33505102482377 307.098902326644748 441.199574423786544 313.493673993036282 431.150426253961996 317.604653952086665 420.187761401226453 318.975083862333122 409.225251434325401"/><polyline class="cls-3" points="132.153332795835013 409.225251434325401 133.066849478771474 420.187761401226453 137.177829437820037 431.150426253961996 143.572755990058795 441.199574423786544 152.251474249625971 450.33505102482377 163.214139102370609 458.557165828788129 175.547078979523576 464.951937495165112"/><line class="cls-3" x1="275.124424451341838" y1="476.828119030869857" x2="275.124424451341838" y2="464.951937495165112"/><polyline class="cls-3" points="132.153332795835013 405.571029816759619 133.523607820245161 416.990453010948841 137.634587779293724 427.953117863684383 144.486272672986161 438.458869489131757 153.621749274025206 448.051259317506265 165.497930809709942 456.273219235587021 178.744542255639317 462.668145787796675 193.36142872596065 467.692642429821717 209.348590220701226 470.890105705930182 225.335751715434526 471.803622388846634 241.779826437474185 470.890105705930182 257.310229590733798 467.692642429821717 272.383874402537913 462.668145787796675 285.630330962621883 456.273219235587021 297.049754156842027 448.051259317506265 306.642143985185612 438.458869489131757 313.493673993036282 427.953117863684383 317.604653952086665 416.990453010948841 318.975083862333122 405.571029816759619"/><polyline class="cls-3" points="132.153332795835013 409.225251434325401 133.523607820245161 420.644674628567373 137.634587779293724 431.607184595461149 144.486272672986161 442.113091106744832 153.621749274025206 451.705480935061132 165.497930809709942 459.927440853196458 178.744542255639317 466.322367405411569 193.36142872596065 471.346864047385679 209.348590220701226 474.087568982047742 225.335751715434526 475.457844006446976 241.779826437474185 474.087568982047742 257.310229590733798 471.346864047385679 272.383874402537913 466.322367405411569 285.630330962621883 459.927440853196458 297.049754156842027 451.705480935061132 306.642143985185612 442.113091106744832 313.493673993036282 431.607184595461149 317.604653952086665 420.644674628567373 318.975083862333122 409.225251434325401"/><polyline class="cls-3" points="132.610091137306881 372.226276917057476 132.153332795835013 383.645700111239421 133.980366161709753 394.608364963976783 138.548104462230185 405.571029816759619 145.856547697392671 415.620023100704202 155.448937525738074 424.298896246118602 166.868360719956399 432.064097822751137 180.114817280038551 438.458869489131757 194.274945408897111 443.026607789655827 209.805348562165818 445.767312724301519 225.335751715434526 446.680829407261626 241.322913210166007 445.767312724301519 256.396558021961027 443.026607789655827 271.013444492291455 438.458869489131757 284.26005593822083 432.064097822751137 295.679479132431879 424.298896246118602 304.814955733465467 415.620023100704202 312.123398968637048 405.571029816759619 316.691137269150204 394.608364963976783 318.975083862333122 383.645700111239421 318.061567179394842 372.226276917057476"/><polyline class="cls-3" points="132.153332795835013 405.571029816759619 133.523607820245161 416.990453010948841 137.634587779293724 427.953117863684383 144.486272672986161 438.458869489131757 153.621749274025206 448.051259317506265 165.497930809709942 456.273219235587021 178.744542255639317 462.668145787796675 193.36142872596065 467.692642429821717 209.348590220701226 470.433347364421934 225.335751715434526 471.803622388846634 241.779826437474185 470.433347364421934 257.310229590733798 467.692642429821717 272.383874402537913 462.668145787796675 285.630330962621883 456.273219235587021 297.049754156842027 448.051259317506265 306.642143985185612 438.458869489131757 313.493673993036282 427.953117863684383 317.604653952086665 416.990453010948841 318.975083862333122 405.571029816759619"/><polyline class="cls-3" points="132.610091137306881 370.399088665308227 133.980366161709753 381.818511859546561 138.091346120756498 392.781176712283923 144.943031014454391 402.830324882112109 154.535420842797976 412.422559824601194 165.95484403701812 420.644674628567373 179.20130059710209 427.039446294942536 193.818187067434337 432.064097822751137 209.348590220701226 434.804647871573252 225.335751715434526 435.718319440356936 241.779826437474185 434.804647871573252 257.310229590733798 432.064097822751137 271.926961175227916 427.039446294942536 285.17357262115911 420.644674628567373 296.59299581536834 412.422559824601194 305.728472416403747 402.830324882112109 312.58015731010164 392.781176712283923 316.691137269150204 381.818511859546561 318.061567179394842 370.399088665308227"/><polyline class="cls-3" points="132.153332795835013 312.845214352759285 133.523607820245161 301.425791158566426 137.634587779293724 290.463126305785408 144.486272672986161 279.957374680387147 153.621749274025206 270.364984852014459 165.497930809709942 262.143024933933702 178.744542255639317 255.748098381720411 193.36142872596065 250.723601739697187 209.348590220701226 247.98289680504422 225.335751715434526 247.069380122138682 241.779826437474185 247.98289680504422 257.310229590733798 250.723601739697187 272.383874402537913 255.748098381720411 285.630330962621883 262.143024933933702 297.049754156842027 270.364984852014459 306.642143985185612 279.957374680387147 313.493673993036282 290.463126305785408 317.604653952086665 301.425791158566426 318.975083862333122 312.845214352759285 317.604653952086665 324.264637546997619 313.493673993036282 335.684060741188659 306.642143985185612 346.189967252468705 297.049754156842027 355.325443853505931 285.630330962621883 363.547558657466652 272.383874402537913 370.399088665308227 257.310229590733798 374.966981851657692 241.779826437474185 378.164290241933486 225.335751715434526 379.077961810726265 209.348590220701226 378.164290241933486 193.36142872596065 374.966981851657692 178.744542255639317 370.399088665308227 165.497930809709942 363.547558657466652 153.621749274025206 355.325443853505931 144.486272672986161 346.189967252468705 137.634587779293724 335.684060741188659 133.523607820245161 324.264637546997619 132.153332795835013 312.845214352759285"/><polyline class="cls-3" points="132.153332795835013 359.893337039853577 133.523607820245161 371.312760234101006 137.634587779293724 382.275425086827454 144.486272672986161 392.781176712283923 153.621749274025206 402.373566540598404 165.497930809709942 410.59552645873373 178.744542255639317 416.990453010948841 193.36142872596065 422.014949652926589 209.348590220701226 424.75565458757228 225.335751715434526 426.125929611984247 241.779826437474185 424.75565458757228 257.310229590733798 422.014949652926589 272.383874402537913 416.990453010948841 285.630330962621883 410.59552645873373 297.049754156842027 402.373566540598404 306.642143985185612 392.781176712283923 313.493673993036282 382.275425086827454 317.604653952086665 371.312760234101006 318.975083862333122 359.893337039853577"/><polyline class="cls-3" points="133.980366161709753 311.474939328407345 135.350796071954392 322.894362522585652 139.461776031002955 333.400269033867517 146.313306038855444 343.906020659314891 155.448937525738074 353.041652146182969 166.868360719956399 360.806853722819142 179.658058938566683 367.201780275030615 194.274945408897111 372.226276917057476 209.805348562165818 374.966981851657692 225.335751715434526 375.880498534614162 241.322913210166007 374.966981851657692 256.853316363434715 372.226276917057476 271.013444492291455 367.201780275030615 284.26005593822083 360.806853722819142 295.222720790967287 353.041652146182969 304.358197392002694 343.906020659314891 311.209882285698768 333.400269033867517 315.320862244749151 322.894362522585652 316.691137269150204 311.474939328407345 315.320862244749151 300.055516134169011 311.209882285698768 289.549609622883509 304.358197392002694 279.043703111603463 295.222720790967287 269.908226510558961 284.26005593822083 262.143024933933702 271.013444492291455 255.291340040217619 256.853316363434715 250.723601739697187 241.322913210166007 247.98289680504422 225.335751715434526 247.069380122138682 209.805348562165818 247.98289680504422 194.274945408897111 250.723601739697187 179.658058938566683 255.291340040217619 166.868360719956399 262.143024933933702 155.448937525738074 269.908226510558961 146.313306038855444 279.043703111603463 139.461776031002955 289.549609622883509 135.350796071954392 300.055516134169011 133.980366161709753 311.474939328407345"/><polyline class="cls-3" points="288.827794238733986 296.858052858056908 287.457519214332933 299.141999451201627 283.803297596748962 300.51227447562087 280.149075979172267 300.055516134169011 277.408371044530213 298.228327882465237 277.408371044530213 295.487777833643122 280.149075979172267 293.203831240440195 283.803297596748962 292.747072898988336 287.457519214332933 294.117347923398484 288.827794238733986 296.858052858056908"/><polyline class="cls-3" points="220.768013414908637 353.955168829143076 219.397738390509403 356.695873763750569 215.743516772925432 358.066148788160717 212.089295155339641 357.609390446707039 209.348590220701226 355.325443853505931 209.348590220701226 352.584893804742023 212.089295155339641 350.300947211539096 215.743516772925432 349.844188870083599 219.397738390509403 351.214463894495566 220.768013414908637 353.955168829143076"/><polyline class="cls-3" points="184.225797239088934 283.61159629795111 182.85552221468788 286.352146346775044 179.658058938566683 287.722576257017863 175.547078979523576 287.265817915564185 173.263287272173329 284.981871322363077 173.263287272173329 282.241166387706471 175.547078979523576 279.957374680387147 179.658058938566683 279.500616338882537 182.85552221468788 280.870891363296323 184.225797239088934 283.61159629795111"/><polyline class="cls-3" points="236.298416568179164 265.340488210045805 239.495879844289448 265.797246551501303 241.322913210166007 267.624279917356034 241.322913210166007 269.908226510558961 239.495879844289448 271.735259876433702 236.298416568179164 272.648931445213748"/><polyline class="cls-3" points="277.408371044530213 339.338282358803554 276.494854361591933 341.622228951948273 273.297391085474374 342.992503976358421 269.643169467890402 342.535745634912018 267.359222874707484 340.708712269037278 267.359222874707484 337.968007334393405 269.643169467890402 336.140819082687813 273.297391085474374 335.684060741188659 276.494854361591933 337.054490651433298 277.408371044530213 339.338282358803554"/><polyline class="cls-3" points="173.263287272173329 326.091825798699574 171.892857361943243 328.832375847518051 168.695394085820226 329.74604741631083 165.497930809709942 329.289289074809858 162.757380760896922 327.462100823106084 162.757380760896922 325.178309115788579 165.497930809709942 322.894362522585652 168.695394085820226 322.437604181131974 171.892857361943243 323.807879205551217 173.263287272173329 326.091825798699574"/><polyline class="cls-3" points="182.398763873214193 311.474939328407345 183.312280556152473 318.783382563527994 187.423260515201036 325.635067457242258 193.36142872596065 331.573080782176476 201.126630302595004 336.597732309983257 210.262106903630411 339.795040700255413 220.311255073447683 341.622228951948273 230.817161584731366 341.622228951948273 240.86615486869232 339.795040700255413 250.001786355571312 336.597732309983257 257.766987932207485 331.573080782176476 263.705001257136246 325.635067457242258 267.359222874707484 318.783382563527994 268.729652784952123 311.474939328407345"/><polyline class="cls-3" points="214.829845204152662 276.759911404284139 204.780851920178975 279.500616338882537 195.645220433309078 284.068354639406607 188.793690425447494 290.006367964340825 184.225797239088934 296.858052858056908 182.398763873214193 304.623254434678529 182.85552221468788 311.931697669850109 186.509743832262757 319.240140905028966 191.990998815719649 325.635067457242258 200.213113619667638 331.116322440662771 209.348590220701226 334.770544058279484 219.854496731968538 336.597732309983257 230.817161584731366 336.597732309983257 241.322913210166007 334.770544058279484 250.915303038511411 331.116322440662771 258.680504615145765 325.635067457242258 264.618672825903559 319.240140905028966 267.815981216181171 311.931697669850109 268.729652784952123 304.623254434678529 266.445706191778299 296.858052858056908 261.877967891257867 290.006367964340825 255.026282997559974 284.068354639406607 246.347564737987341 279.500616338882537 236.298416568179164 276.759911404284139"/><polyline class="cls-3" points="236.298416568179164 296.858052858056908 240.409396527229546 300.51227447562087 242.693343120412464 304.623254434678529 242.236584778938777 309.190992735202599 239.495879844289448 313.301972694269352 234.928141543778111 316.499435970374179 228.533214991546629 318.326624222072496 222.138288439318785 318.326624222072496 216.2002751143973 316.499435970374179 211.632536813876868 313.301972694269352 208.891831879227539 309.190992735202599 208.435073537762946 304.623254434678529 210.262106903630411 300.51227447562087 214.829845204152662 296.858052858056908"/><polyline class="cls-3" points="242.693343120412464 307.363959369336953 240.86615486869232 302.796221068816521 236.298416568179164 298.68524110974613"/><polyline class="cls-3" points="214.829845204152662 298.68524110974613 210.262106903630411 302.796221068816521 208.435073537762946 307.363959369336953"/><polyline class="cls-3" points="214.829845204152662 308.277476052247948 215.743516772925432 311.931697669850109 218.94098004904663 314.215644263003924 223.051960008095193 316.042677628916863 227.61969830860653 316.042677628916863 232.1874366091306 314.215644263003924 235.384899885242703 311.931697669850109 236.298416568179164 308.277476052247948"/><polyline class="cls-3" points="234.928141543778111 253.464306674351974 236.298416568179164 257.118528291966868 234.471383202304423 260.772749909523554 230.817161584731366 263.51329995834385 225.335751715434526 264.883729868588489 220.311255073447683 263.51329995834385 216.2002751143973 260.772749909523554 214.829845204152662 257.118528291966868 215.743516772925432 253.464306674351974"/><polyline class="cls-3" points="215.286758431460839 256.204856723175908 216.657033455861892 259.402319999280735 220.311255073447683 262.143024933933702 225.335751715434526 263.056541616841059 230.36040324325586 262.143024933933702 234.014469974996246 259.402319999280735 235.384899885242703 256.204856723175908 234.014469974996246 252.550635105613765 230.36040324325586 249.810085056789831 225.335751715434526 248.896413488002509 220.311255073447683 249.810085056789831 216.657033455861892 252.550635105613765 215.286758431460839 256.204856723175908"/><polyline class="cls-3" points="144.943031014454391 402.830324882112109 154.535420842797976 412.422559824601194 165.95484403701812 420.644674628567373 179.20130059710209 427.039446294942536 193.818187067434337 432.064097822751137 209.348590220701226 434.804647871573252 225.335751715434526 435.718319440356936 241.779826437474185 434.804647871573252 257.310229590733798 432.064097822751137 271.926961175227916 427.039446294942536 285.17357262115911 420.644674628567373 296.59299581536834 412.422559824601194 305.728472416403747 402.830324882112109"/><polyline class="cls-3" points="132.610091137306881 370.399088665308227 133.980366161709753 381.818511859546561 138.091346120756498 392.781176712283923 144.943031014454391 402.830324882112109 154.535420842797976 412.422559824601194 165.95484403701812 420.644674628567373 179.20130059710209 427.039446294942536 193.818187067434337 432.064097822751137 209.348590220701226 434.804647871573252 225.335751715434526 435.718319440356936 241.779826437474185 434.804647871573252 257.310229590733798 432.064097822751137 271.926961175227916 427.039446294942536 285.17357262115911 420.644674628567373 296.59299581536834 412.422559824601194 305.728472416403747 402.830324882112109 312.58015731010164 392.781176712283923 316.691137269150204 381.818511859546561 318.061567179394842 370.399088665308227"/><polyline class="cls-3" points="132.610091137306881 380.448236835136413 133.980366161709753 391.867660029374747 138.091346120756498 403.287083223565787 144.943031014454391 413.336231393393973 154.535420842797976 422.928466335875783 165.95484403701812 430.693667912504679 179.20130059710209 437.545352806220762 193.818187067434337 442.113091106744832 209.348590220701226 445.310554382858754 225.335751715434526 446.224071065755197 241.779826437474185 445.310554382858754 257.310229590733798 442.113091106744832 271.926961175227916 437.545352806220762 285.17357262115911 430.693667912504679 296.59299581536834 422.928466335875783 305.728472416403747 413.336231393393973 312.58015731010164 403.287083223565787 316.691137269150204 391.867660029374747 318.061567179394842 380.448236835136413"/><polyline class="cls-3" points="147.683735949101901 442.113091106744832 157.275970891610996 450.791964252161051 168.695394085820226 458.100252601449029 181.485247190275913 464.038420812215918 195.188462091833571 468.149400771277215 210.262106903630411 470.890105705930182 225.335751715434526 471.803622388846634 240.86615486869232 470.890105705930182 255.483041339024567 468.149400771277215 269.643169467890402 464.038420812215918 282.43286768650978 458.100252601449029 293.85229088072083 450.791964252161051 302.987922367599822 442.113091106744832"/><line class="cls-3" x1="275.124424451341838" y1="464.951937495165112" x2="275.124424451341838" y2="464.951937495165112"/><polyline class="cls-3" points="275.124424451341838 464.951937495165112 285.630330962621883 459.470682511693667 295.222720790967287 453.075755959480375 302.987922367599822 445.767312724301519"/><polyline class="cls-3" points="147.683735949101901 445.767312724301519 155.905695867199029 453.075755959480375 165.041172468236255 459.470682511693667 175.547078979523576 464.951937495165112"/><line class="cls-3" x1="175.547078979523576" y1="464.951937495165112" x2="175.547078979523576" y2="464.951937495165112"/><line class="cls-3" x1="275.124424451341838" y1="464.951937495165112" x2="275.124424451341838" y2="464.951937495165112"/><line class="cls-3" x1="206.151126944585485" y1="490.531488818249272" x2="208.435073537762946" y2="490.531488818249272"/><line class="cls-3" x1="215.286758431460839" y1="490.531488818249272" x2="217.570550138800172" y2="490.531488818249272"/><line class="cls-3" x1="224.422235032496246" y1="490.531488818249272" x2="226.706181625670069" y2="490.531488818249272"/><line class="cls-3" x1="233.557711633533472" y1="490.531488818249272" x2="235.841658226701838" y2="490.531488818249272"/><line class="cls-3" x1="242.693343120412464" y1="490.531488818249272" x2="244.977134827751797" y2="490.531488818249272"/><line class="cls-3" x1="244.977134827751797" y1="489.617972135292803" x2="242.693343120412464" y2="489.617972135292803"/><line class="cls-3" x1="235.841658226701838" y1="489.617972135292803" x2="233.557711633533472" y2="489.617972135292803"/><line class="cls-3" x1="226.706181625670069" y1="489.617972135292803" x2="224.422235032496246" y2="489.617972135292803"/><line class="cls-3" x1="217.570550138800172" y1="489.617972135292803" x2="215.286758431460839" y2="489.617972135292803"/><line class="cls-3" x1="208.435073537762946" y1="489.617972135292803" x2="206.151126944585485" y2="489.617972135292803"/><line class="cls-3" x1="198.842683709419362" y1="490.074730476751938" x2="198.842683709419362" y2="472.717139071795827"/><line class="cls-3" x1="251.828819721447871" y1="490.074730476751938" x2="251.828819721447871" y2="472.717139071795827"/><line class="cls-3" x1="318.975083862333122" y1="409.225251434325401" x2="318.975083862333122" y2="410.59552645873373"/><line class="cls-3" x1="132.153332795835013" y1="409.225251434325401" x2="132.153332795835013" y2="410.59552645873373"/><line class="cls-3" x1="318.975083862333122" y1="405.571029816759619" x2="318.975083862333122" y2="409.225251434325401"/><line class="cls-3" x1="132.153332795835013" y1="405.571029816759619" x2="132.153332795835013" y2="409.225251434325401"/><line class="cls-3" x1="318.975083862333122" y1="380.448236835136413" x2="318.975083862333122" y2="405.571029816759619"/><line class="cls-3" x1="132.153332795835013" y1="380.448236835136413" x2="132.153332795835013" y2="405.571029816759619"/><line class="cls-3" x1="318.061567179394842" y1="368.115296957988903" x2="318.061567179394842" y2="370.399088665308227"/><line class="cls-3" x1="132.610091137306881" y1="368.115296957988903" x2="132.610091137306881" y2="370.399088665308227"/><line class="cls-3" x1="318.975083862333122" y1="312.845214352759285" x2="318.975083862333122" y2="359.893337039853577"/><line class="cls-3" x1="132.153332795835013" y1="312.845214352759285" x2="132.153332795835013" y2="359.893337039853577"/><line class="cls-3" x1="182.398763873214193" y1="311.474939328407345" x2="182.398763873214193" y2="306.450442686382303"/><line class="cls-3" x1="268.729652784952123" y1="311.474939328407345" x2="268.729652784952123" y2="306.450442686382303"/><line class="cls-3" x1="236.298416568179164" y1="257.118528291966868" x2="236.298416568179164" y2="308.277476052247948"/><line class="cls-3" x1="214.829845204152662" y1="257.118528291966868" x2="214.829845204152662" y2="308.277476052247948"/><line class="cls-3" x1="234.471383202304423" y1="252.550635105613765" x2="234.928141543778111" y2="253.464306674351974"/><line class="cls-3" x1="216.657033455861892" y1="252.550635105613765" x2="215.743516772925432" y2="253.464306674351974"/><line class="cls-3" x1="318.061567179394842" y1="370.399088665308227" x2="318.061567179394842" y2="380.448236835136413"/><line class="cls-3" x1="132.610091137306881" y1="370.399088665308227" x2="132.610091137306881" y2="380.448236835136413"/><polyline class="cls-3" points="596.9125418293861 490.131444009635743 595.085508463520455 488.761014099391105 592.344803528869306 488.304255757888313 590.060856935686388 489.674685668122038 590.060856935686388 491.958477375492294 592.344803528869306 493.328907285736932 595.085508463520455 492.871994058401469 596.9125418293861 491.044960692534005"/><line class="cls-3" x1="596.9125418293861" y1="474.144282514873339" x2="596.9125418293861" y2="490.131444009635743"/><polyline class="cls-3" points="599.196488422569018 491.044960692534005 600.110005105505479 492.871994058401469 602.393951698677483 493.328907285736932 604.677743406018635 492.871994058401469 606.048173316261455 491.044960692534005"/><line class="cls-3" x1="599.196488422569018" y1="490.131444009635743" x2="599.196488422569018" y2="474.601040856327018"/><polyline class="cls-3" points="606.048173316261455 490.131444009635743 604.677743406018635 488.761014099391105 602.393951698677483 488.304255757888313 600.110005105505479 488.761014099391105 599.196488422569018 490.131444009635743"/><line class="cls-3" x1="606.048173316261455" y1="475.514557539287125" x2="606.048173316261455" y2="490.131444009635743"/><polyline class="cls-3" points="608.331965023598968 491.044960692534005 609.245481706542705 492.871994058401469 611.529428299714709 493.328907285736932 613.813374892897627 492.871994058401469 615.183649917298681 491.044960692534005"/><line class="cls-3" x1="608.331965023598968" y1="490.131444009635743" x2="608.331965023598968" y2="475.514557539287125"/><polyline class="cls-3" points="615.183649917298681 490.131444009635743 613.813374892897627 488.761014099391105 611.529428299714709 488.304255757888313 609.245481706542705 488.761014099391105 608.331965023598968 490.131444009635743"/><line class="cls-3" x1="615.183649917298681" y1="475.971315880738985" x2="615.183649917298681" y2="490.131444009635743"/><polyline class="cls-3" points="617.467596510470685 491.044960692534005 618.381113193410783 492.871994058401469 620.664904900748297 493.328907285736932 622.948851493931215 492.871994058401469 624.319126518339544 491.044960692534005"/><line class="cls-3" x1="617.467596510470685" y1="490.131444009635743" x2="617.467596510470685" y2="475.971315880738985"/><polyline class="cls-3" points="624.319126518339544 490.131444009635743 622.948851493931215 488.761014099391105 620.664904900748297 488.304255757888313 618.381113193410783 488.761014099391105 617.467596510470685 490.131444009635743"/><line class="cls-3" x1="624.319126518339544" y1="475.514557539287125" x2="624.319126518339544" y2="490.131444009635743"/><polyline class="cls-3" points="626.603073111507911 491.044960692534005 627.516589794455285 492.871994058401469 629.800536387630927 493.328907285736932 632.084328094964803 492.871994058401469 633.454758005211261 491.044960692534005"/><line class="cls-3" x1="626.603073111507911" y1="490.131444009635743" x2="626.603073111507911" y2="475.514557539287125"/><polyline class="cls-3" points="633.454758005211261 490.131444009635743 632.084328094964803 488.761014099391105 629.800536387630927 488.304255757888313 627.516589794455285 488.761014099391105 626.603073111507911 490.131444009635743"/><line class="cls-3" x1="633.454758005211261" y1="474.601040856327018" x2="633.454758005211261" y2="490.131444009635743"/><line class="cls-3" x1="635.738549712556051" y1="490.131444009635743" x2="635.738549712556051" y2="474.144282514873339"/><polyline class="cls-3" points="635.738549712556051 491.044960692534005 637.108979622791594 492.871994058401469 640.306442898910973 493.328907285736932 642.133476264776618 491.958477375492294 642.133476264776618 489.674685668122038 640.306442898910973 488.304255757888313 637.108979622791594 488.761014099391105 635.738549712556051 490.131444009635743"/><polyline class="cls-3" points="665.885839336142453 477.341590905149133 677.305262530358959 471.403577580216734 687.354410700170774 464.095134345046972 696.033128959743408 455.873174426969854 702.42805551197489 447.194301281551816 706.995793812488046 437.602066339060912 709.279740405674602 427.552918169236364"/><line class="cls-3" x1="566.308493864320553" y1="477.341590905149133" x2="589.604098594221796" y2="477.341590905149133"/><line class="cls-3" x1="642.590234606252125" y1="477.341590905149133" x2="665.885839336142453" y2="477.341590905149133"/><polyline class="cls-3" points="522.914747680637447 427.552918169236364 525.655297729446829 437.602066339060912 530.223190915809028 447.194301281551816 536.617962582195105 455.873174426969854 544.839922500292232 464.095134345046972 554.889070670107685 471.403577580216734 566.308493864320553 477.341590905149133"/><polyline class="cls-3" points="709.279740405674602 427.552918169236364 709.279740405674602 417.047166543779895 709.736498747135556 411.108998333018462"/><polyline class="cls-3" points="522.914747680637447 427.552918169236364 522.914747680637447 417.047166543779895 522.914747680637447 411.108998333018462"/><line class="cls-3" x1="566.308493864320553" y1="465.465409369458939" x2="566.308493864320553" y2="477.341590905149133"/><polyline class="cls-3" points="665.885839336142453 465.465409369458939 678.675692440609055 459.070637703081957 689.181444066043696 450.848522899168529 697.860317211461734 441.713046298120389 704.255088877844173 431.66389812829766 708.366068836889099 420.701233275567574 709.736498747135556 409.738723308657427"/><polyline class="cls-3" points="522.914747680637447 409.738723308657427 523.828264363573908 420.701233275567574 527.939244322622471 431.66389812829766 534.334170874853953 441.713046298120389 543.012889134430225 450.848522899168529 553.975553987171224 459.070637703081957 566.308493864320553 465.465409369458939"/><line class="cls-3" x1="665.885839336142453" y1="477.341590905149133" x2="665.885839336142453" y2="465.465409369458939"/><polyline class="cls-3" points="522.914747680637447 406.084501691051628 524.285022705045776 417.503924885289962 528.39600266409434 428.466589738018229 535.247687557790414 438.97234136347106 544.38316415882764 448.564731191796454 556.259345694512376 456.786691109924504 569.505957140439932 463.181617662137796 584.122843610761265 468.206114304113726 600.110005105505479 471.403577580216734 616.097166600238779 472.317094263182298 632.541241322278438 471.403577580216734 648.071644475536232 468.206114304113726 663.145289287340347 463.181617662137796 676.391745847422499 456.786691109924504 687.811169041646281 448.564731191796454 697.403558869989865 438.97234136347106 704.255088877844173 428.466589738018229 708.366068836889099 417.503924885289962 709.736498747135556 406.084501691051628"/><polyline class="cls-3" points="522.914747680637447 409.738723308657427 524.285022705045776 421.158146502846648 528.39600266409434 432.120656469747701 535.247687557790414 442.626562981029565 544.38316415882764 452.218952809402253 556.259345694512376 460.440912727481191 569.505957140439932 466.835839279703578 584.122843610761265 471.860335921730439 600.110005105505479 474.601040856327018 616.097166600238779 475.971315880738985 632.541241322278438 474.601040856327018 648.071644475536232 471.860335921730439 663.145289287340347 466.835839279703578 676.391745847422499 460.440912727481191 687.811169041646281 452.218952809402253 697.403558869989865 442.626562981029565 704.255088877844173 432.120656469747701 708.366068836889099 421.158146502846648 709.736498747135556 409.738723308657427"/><polyline class="cls-3" points="523.371506022109315 372.739748791342208 522.914747680637447 384.159171985576904 524.74178104650673 395.121836838314266 529.309519347034438 406.084501691051628 536.617962582195105 416.133494975045323 546.21035241053869 424.812368120459723 557.629775604758834 432.577569697083163 570.876232164840985 438.97234136347106 585.036360293701364 443.54007966399513 600.566763446966434 446.280784598644459 616.097166600238779 447.194301281551816 632.084328094964803 446.280784598644459 647.157972906765281 443.54007966399513 661.77485937709389 438.97234136347106 675.021470823021446 432.577569697083163 686.440894017234314 424.812368120459723 695.576370618267902 416.133494975045323 702.884813853439482 406.084501691051628 707.452552153949 395.121836838314266 709.736498747135556 384.159171985576904 708.822982064195457 372.739748791342208"/><polyline class="cls-3" points="522.914747680637447 406.084501691051628 524.285022705045776 417.503924885289962 528.39600266409434 428.466589738018229 535.247687557790414 438.97234136347106 544.38316415882764 448.564731191796454 556.259345694512376 456.786691109924504 569.505957140439932 463.181617662137796 584.122843610761265 468.206114304113726 600.110005105505479 470.946819238764874 616.097166600238779 472.317094263182298 632.541241322278438 470.946819238764874 648.071644475536232 468.206114304113726 663.145289287340347 463.181617662137796 676.391745847422499 456.786691109924504 687.811169041646281 448.564731191796454 697.403558869989865 438.97234136347106 704.255088877844173 428.466589738018229 708.366068836889099 417.503924885289962 709.736498747135556 406.084501691051628"/><polyline class="cls-3" points="523.371506022109315 370.912560539640253 524.74178104650673 382.331983733831294 528.85276100556257 393.294648586617768 535.704445899258644 403.343796756395022 545.296835727602229 412.93603169893322 556.716258921818735 421.158146502846648 569.962715481904524 427.552918169236364 584.579601952236771 432.577569697083163 600.110005105505479 435.318119745857985 616.097166600238779 436.231791314654402 632.541241322278438 435.318119745857985 648.071644475536232 432.577569697083163 662.68837606003035 427.552918169236364 675.934987505961544 421.158146502846648 687.354410700170774 412.93603169893322 696.489887301208 403.343796756395022 703.341572194904074 393.294648586617768 707.452552153949 382.331983733831294 708.822982064195457 370.912560539640253"/><polyline class="cls-3" points="522.914747680637447 313.358686227100407 524.285022705045776 301.939263032863892 528.39600266409434 290.97659818012653 535.247687557790414 280.470846554679156 544.38316415882764 270.878456726353761 556.259345694512376 262.656496808223892 569.505957140439932 256.261570256006962 584.122843610761265 251.237073614034671 600.110005105505479 248.496368679378065 616.097166600238779 247.582851996423415 632.541241322278438 248.496368679378065 648.071644475536232 251.237073614034671 663.145289287340347 256.261570256006962 676.391745847422499 262.656496808223892 687.811169041646281 270.878456726353761 697.403558869989865 280.470846554679156 704.255088877844173 290.97659818012653 708.366068836889099 301.939263032863892 709.736498747135556 313.358686227100407 708.366068836889099 324.778109421289628 704.255088877844173 336.197532615529781 697.403558869989865 346.703439126809826 687.811169041646281 355.838915727845233 676.391745847422499 364.061030531758661 663.145289287340347 370.912560539640253 648.071644475536232 375.480453725998814 632.541241322278438 378.677762116276426 616.097166600238779 379.591433685065567 600.110005105505479 378.677762116276426 584.122843610761265 375.480453725998814 569.505957140439932 370.912560539640253 556.259345694512376 364.061030531758661 544.38316415882764 355.838915727845233 535.247687557790414 346.703439126809826 528.39600266409434 336.197532615529781 524.285022705045776 324.778109421289628 522.914747680637447 313.358686227100407"/><polyline class="cls-3" points="522.914747680637447 360.406808914194698 524.285022705045776 371.826232108385739 528.39600266409434 382.788896961170394 535.247687557790414 393.294648586617768 544.38316415882764 402.887038414941344 556.259345694512376 411.108998333018462 569.505957140439932 417.503924885289962 584.122843610761265 422.528421527253158 600.110005105505479 425.269126461915221 616.097166600238779 426.639401486325369 632.541241322278438 425.269126461915221 648.071644475536232 422.528421527253158 663.145289287340347 417.503924885289962 676.391745847422499 411.108998333018462 687.811169041646281 402.887038414941344 697.403558869989865 393.294648586617768 704.255088877844173 382.788896961170394 708.366068836889099 371.826232108385739 709.736498747135556 360.406808914194698"/><polyline class="cls-3" points="524.74178104650673 311.98841120268844 526.112210956760464 323.407834396926773 530.223190915809028 333.913740908154068 537.074720923656059 344.419492533608718 546.21035241053869 353.555124020478615 557.629775604758834 361.320325597152987 570.419473823369117 367.71525214936446 585.036360293701364 372.739748791342208 600.566763446966434 375.480453725998814 616.097166600238779 376.393970408898895 632.084328094964803 375.480453725998814 647.614731248237149 372.739748791342208 661.77485937709389 367.71525214936446 675.021470823021446 361.320325597152987 685.984135675769721 353.555124020478615 695.119612276803309 344.419492533608718 701.971297170503021 333.913740908154068 706.082277129551585 323.407834396926773 707.452552153949 311.98841120268844 706.082277129551585 300.568988008450106 701.971297170503021 290.063081497171879 695.119612276803309 279.557174985888196 685.984135675769721 270.421698384900083 675.021470823021446 262.656496808223892 661.77485937709389 255.804811914555103 647.614731248237149 251.237073614034671 632.084328094964803 248.496368679378065 616.097166600238779 247.582851996423415 600.566763446966434 248.496368679378065 585.036360293701364 251.237073614034671 570.419473823369117 255.804811914555103 557.629775604758834 262.656496808223892 546.21035241053869 270.421698384900083 537.074720923656059 279.557174985888196 530.223190915809028 290.063081497171879 526.112210956760464 300.568988008450106 524.74178104650673 311.98841120268844"/><polyline class="cls-3" points="679.58920912353824 297.371524732341641 678.218934099133548 299.655471325542749 674.564712481549577 301.025746349954716 670.910490863972882 300.568988008450106 668.169785929325371 298.741799756751789 668.169785929325371 296.001249707929674 670.910490863972882 293.717303114781316 674.564712481549577 293.260544773327638 678.218934099133548 294.630819797683216 679.58920912353824 297.371524732341641"/><polyline class="cls-3" points="611.529428299714709 354.468640703436904 610.159153275310018 357.209345638082596 606.504931657726047 358.57962066250002 602.850710040142076 358.122862320991771 600.110005105505479 355.838915727845233 600.110005105505479 353.098365679024937 602.850710040142076 350.814419085880218 606.504931657726047 350.357660744366513 610.159153275310018 351.727935768776661 611.529428299714709 354.468640703436904"/><polyline class="cls-3" points="574.987212123893187 284.125068172292231 573.616937099488496 286.865618221057957 570.419473823369117 288.236048131300777 566.308493864320553 287.779289789850736 564.024702156983039 285.49534319664599 564.024702156983039 282.754638262047592 566.308493864320553 280.470846554679156 570.419473823369117 280.014088213223658 573.616937099488496 281.384363237635625 574.987212123893187 284.125068172292231"/><polyline class="cls-3" points="627.059831452983417 265.853960084388746 630.25729472909552 266.310718425838786 632.084328094964803 268.137751791697156 632.084328094964803 270.421698384900083 630.25729472909552 272.248731750765728 627.059831452983417 273.162403319496661"/><polyline class="cls-3" points="668.169785929325371 339.851754233084648 667.256269246392549 342.135700826287575 664.058805970276808 343.505975850695904 660.404584352692837 343.04921750919857 658.120637759509918 341.222184143331106 658.120637759509918 338.481479208672681 660.404584352692837 336.654290956974364 664.058805970276808 336.197532615529781 667.256269246392549 337.567962525776238 668.169785929325371 339.851754233084648"/><polyline class="cls-3" points="564.024702156983039 326.605297673038876 562.654272246747496 329.345847721804603 559.456808970624479 330.259519290593744 556.259345694512376 329.802760949141884 553.518795645699356 327.975572697452662 553.518795645699356 325.691780990075131 556.259345694512376 323.407834396926773 559.456808970624479 322.951076055425801 562.654272246747496 324.321351079835949 564.024702156983039 326.605297673038876"/><polyline class="cls-3" points="573.160178758016627 311.98841120268844 574.073695440953088 319.296854437861839 578.18467540000529 326.14853933152699 584.122843610761265 332.08655265645757 591.888045187397438 337.111204184318922 601.023521788431026 340.308512574596534 611.072669958253755 342.135700826287575 621.578576469530162 342.135700826287575 631.627569753496573 340.308512574596534 640.763201240375565 337.111204184318922 648.5284028170081 332.08655265645757 654.466416141933223 326.14853933152699 658.120637759509918 319.296854437861839 659.491067669752738 311.98841120268844"/><polyline class="cls-3" points="605.591260088951458 277.273383278570691 595.542266804977771 280.014088213223658 586.406635318109693 284.581826513749547 579.555105310248109 290.519839838669213 574.987212123893187 297.371524732341641 573.160178758016627 305.1367263089669 573.616937099488496 312.445169544143937 577.271158717065191 319.753612779313698 582.752413700525722 326.14853933152699 590.974528504468253 331.629794315009349 600.110005105505479 335.284015932571492 610.615911616785525 337.111204184318922 621.578576469530162 337.111204184318922 632.084328094964803 335.284015932571492 641.676717923312026 331.629794315009349 649.441919499948199 326.14853933152699 655.380087710707812 319.753612779313698 658.577396100981787 312.445169544143937 659.491067669752738 305.1367263089669 657.207121076580734 297.371524732341641 652.639382776060302 290.519839838669213 645.78769788236059 284.581826513749547 637.108979622791594 280.014088213223658 627.059831452983417 277.273383278570691"/><polyline class="cls-3" points="627.059831452983417 297.371524732341641 631.170811412028343 301.025746349954716 633.454758005211261 305.1367263089669 632.99799966374303 309.704464609485512 630.25729472909552 313.815444568554085 625.689556428582364 317.012907844664369 619.294629876347244 318.840096096415436 612.899703324115762 318.840096096415436 606.961689999201553 317.012907844664369 602.393951698677483 313.815444568554085 599.653246764029973 309.704464609485512 599.196488422569018 305.1367263089669 601.023521788431026 301.025746349954716 605.591260088951458 297.371524732341641"/><polyline class="cls-3" points="633.454758005211261 307.877431243623505 631.627569753496573 303.309692943106711 627.059831452983417 299.198712984087251"/><polyline class="cls-3" points="605.591260088951458 299.198712984087251 601.023521788431026 303.309692943106711 599.196488422569018 307.877431243623505"/><polyline class="cls-3" points="609.702394933849064 314.729116137343226 613.813374892897627 316.556149503214328 618.381113193410783 316.556149503214328 622.948851493931215 314.729116137343226 626.146314770043318 312.445169544143937 627.059831452983417 308.790947926587251"/><polyline class="cls-3" points="625.689556428582364 253.977778548694914 627.059831452983417 257.632000166251601 625.232798087110496 261.286221783862857 621.578576469530162 264.026771832637678 616.097166600238779 265.397201742873222 611.072669958253755 264.026771832637678"/><polyline class="cls-3" points="611.072669958253755 262.656496808223892 616.097166600238779 263.570013491184 621.121818128058294 262.656496808223892 624.775884859800499 259.915791873621856 626.146314770043318 256.718328597457003 625.394137137087455 252.951654095420963 621.740070405348888 250.211104046593391 616.097166600238779 249.409885362341811 610.399145959783709 250.211104046593391 606.744924342203376 252.951654095420963"/><polyline class="cls-3" points="535.704445899258644 403.343796756395022 545.296835727602229 412.93603169893322 556.716258921818735 421.158146502846648 569.962715481904524 427.552918169236364 584.579601952236771 432.577569697083163 600.110005105505479 435.318119745857985 616.097166600238779 436.231791314654402 632.541241322278438 435.318119745857985 648.071644475536232 432.577569697083163 662.68837606003035 427.552918169236364 675.934987505961544 421.158146502846648 687.354410700170774 412.93603169893322 696.489887301208 403.343796756395022"/><polyline class="cls-3" points="523.371506022109315 370.912560539640253 524.74178104650673 382.331983733831294 528.85276100556257 393.294648586617768 535.704445899258644 403.343796756395022 545.296835727602229 412.93603169893322 556.716258921818735 421.158146502846648 569.962715481904524 427.552918169236364 584.579601952236771 432.577569697083163 600.110005105505479 435.318119745857985 616.097166600238779 436.231791314654402 632.541241322278438 435.318119745857985 648.071644475536232 432.577569697083163 662.68837606003035 427.552918169236364 675.934987505961544 421.158146502846648 687.354410700170774 412.93603169893322 696.489887301208 403.343796756395022 703.341572194904074 393.294648586617768 707.452552153949 382.331983733831294 708.822982064195457 370.912560539640253"/><polyline class="cls-3" points="523.371506022109315 380.961708709468439 524.74178104650673 392.38113190365948 528.85276100556257 403.800555097895995 535.704445899258644 413.849703267676887 545.296835727602229 423.441938210215085 556.716258921818735 431.207139786836706 569.962715481904524 438.058824680516409 584.579601952236771 442.626562981029565 600.110005105505479 445.824026257141668 616.097166600238779 446.737542940096318 632.541241322278438 445.824026257141668 648.071644475536232 442.626562981029565 662.68837606003035 438.058824680516409 675.934987505961544 431.207139786836706 687.354410700170774 423.441938210215085 696.489887301208 413.849703267676887 703.341572194904074 403.800555097895995 707.452552153949 392.38113190365948 708.822982064195457 380.961708709468439"/><polyline class="cls-3" points="538.445150833902517 442.626562981029565 548.037385776415249 451.305436126443965 559.456808970624479 458.61372447579015 572.246662075080167 464.551892686546125 585.949876976637825 468.662872645558309 601.023521788431026 471.403577580216734 616.097166600238779 472.317094263182298 631.627569753496573 471.403577580216734 646.244456223825182 468.662872645558309 660.404584352692837 464.551892686546125 673.194282571310396 458.61372447579015 684.613705765523264 451.305436126443965 693.749337252402256 442.626562981029565"/><line class="cls-3" x1="665.885839336142453" y1="465.465409369458939" x2="665.885839336142453" y2="465.465409369458939"/><polyline class="cls-3" points="665.885839336142453 465.465409369458939 676.391745847422499 459.984154386027512 685.984135675769721 453.589227833765108 693.749337252402256 446.280784598644459"/><polyline class="cls-3" points="538.445150833902517 446.280784598644459 546.667110752003282 453.589227833765108 555.80258735303687 459.984154386027512 566.308493864320553 465.465409369458939"/><line class="cls-3" x1="566.308493864320553" y1="465.465409369458939" x2="566.308493864320553" y2="465.465409369458939"/><line class="cls-3" x1="665.885839336142453" y1="465.465409369458939" x2="665.885839336142453" y2="465.465409369458939"/><line class="cls-3" x1="596.9125418293861" y1="491.044960692534005" x2="599.196488422569018" y2="491.044960692534005"/><line class="cls-3" x1="606.048173316261455" y1="491.044960692534005" x2="608.331965023598968" y2="491.044960692534005"/><line class="cls-3" x1="615.183649917298681" y1="491.044960692534005" x2="617.467596510470685" y2="491.044960692534005"/><line class="cls-3" x1="624.319126518339544" y1="491.044960692534005" x2="626.603073111507911" y2="491.044960692534005"/><line class="cls-3" x1="633.454758005211261" y1="491.044960692534005" x2="635.738549712556051" y2="491.044960692534005"/><line class="cls-3" x1="635.738549712556051" y1="490.131444009635743" x2="633.454758005211261" y2="490.131444009635743"/><line class="cls-3" x1="626.603073111507911" y1="490.131444009635743" x2="624.319126518339544" y2="490.131444009635743"/><line class="cls-3" x1="617.467596510470685" y1="490.131444009635743" x2="615.183649917298681" y2="490.131444009635743"/><line class="cls-3" x1="608.331965023598968" y1="490.131444009635743" x2="606.048173316261455" y2="490.131444009635743"/><line class="cls-3" x1="599.196488422569018" y1="490.131444009635743" x2="596.9125418293861" y2="490.131444009635743"/><line class="cls-3" x1="589.604098594221796" y1="490.588202351089421" x2="589.604098594221796" y2="473.230610946084198"/><line class="cls-3" x1="642.590234606252125" y1="490.588202351089421" x2="642.590234606252125" y2="473.230610946084198"/><line class="cls-3" x1="709.736498747135556" y1="409.738723308657427" x2="709.736498747135556" y2="411.108998333018462"/><line class="cls-3" x1="522.914747680637447" y1="409.738723308657427" x2="522.914747680637447" y2="411.108998333018462"/><line class="cls-3" x1="709.736498747135556" y1="406.084501691051628" x2="709.736498747135556" y2="409.738723308657427"/><line class="cls-3" x1="522.914747680637447" y1="406.084501691051628" x2="522.914747680637447" y2="409.738723308657427"/><line class="cls-3" x1="709.736498747135556" y1="380.961708709468439" x2="709.736498747135556" y2="406.084501691051628"/><line class="cls-3" x1="522.914747680637447" y1="380.961708709468439" x2="522.914747680637447" y2="406.084501691051628"/><line class="cls-3" x1="708.822982064195457" y1="368.628768832273636" x2="708.822982064195457" y2="370.912560539640253"/><line class="cls-3" x1="523.371506022109315" y1="368.628768832273636" x2="523.371506022109315" y2="370.912560539640253"/><line class="cls-3" x1="709.736498747135556" y1="313.358686227100407" x2="709.736498747135556" y2="360.406808914194698"/><line class="cls-3" x1="522.914747680637447" y1="313.358686227100407" x2="522.914747680637447" y2="360.406808914194698"/><line class="cls-3" x1="573.160178758016627" y1="311.98841120268844" x2="573.160178758016627" y2="306.96391456071251"/><line class="cls-3" x1="659.491067669752738" y1="311.98841120268844" x2="659.491067669752738" y2="306.96391456071251"/><line class="cls-3" x1="627.059831452983417" y1="257.632000166251601" x2="627.059831452983417" y2="308.790947926587251"/><line class="cls-3" x1="625.232798087110496" y1="253.064106979903954" x2="625.689556428582364" y2="253.977778548694914"/><line class="cls-3" x1="708.822982064195457" y1="370.912560539640253" x2="708.822982064195457" y2="380.961708709468439"/><line class="cls-3" x1="523.371506022109315" y1="370.912560539640253" x2="523.371506022109315" y2="380.961708709468439"/><line class="cls-3" x1="610.60223175216197" y1="263.845231908386268" x2="610.60223175216197" y2="315.004179668667348"/><line class="cls-3" x1="607.418448340662508" y1="253.064106979903954" x2="610.60223175216197" y2="263.845231908386268"/><line class="cls-3" x1="605.682123302622131" y1="301.172719841482831" x2="609.300753427762174" y2="314.528295384305238"/><line class="cls-3" x1="606.652756942317865" y1="252.975739111341682" x2="605.507584775192299" y2="300.710100213082114"/><line class="cls-1" x1="372.71075439453125" y1="362.315948486328125" x2="471.009674072265625" y2="362.315948486328125"/><polygon class="cls-5" points="468.201080322265625 366.01910400390625 469.774322509765625 362.315948486328125 468.201080322265625 358.612823486328125 476.979400634765625 362.315948486328125 468.201080322265625 366.01910400390625"/><line class="cls-2" x1="228.404251098632812" y1="135.285018920898438" x2="228.404251098632812" y2="216.453811645507812"/><polygon class="cls-4" points="224.70111083984375 213.645217895507812 228.404251098632812 215.218460083007812 232.107376098632812 213.645217895507812 228.404251098632812 222.423538208007812 224.70111083984375 213.645217895507812"/><path class="cls-5" d="m216.123046875,111.03662109375h-2.87158203125v-1.03662109375h6.98974609375v1.03662109375h-2.88525390625v8.404296875h-1.23291015625v-8.404296875Z"/><path class="cls-5" d="m221.2880859375,110.1259765625c.61669921875-.1259765625,1.4990234375-.1962890625,2.33935546875-.1962890625,1.302734375,0,2.14306640625.23828125,2.7314453125.7705078125.4765625.42041015625.74267578125,1.064453125.74267578125,1.79296875,0,1.24658203125-.78466796875,2.0732421875-1.779296875,2.4091796875v.0419921875c.728515625.25244140625,1.16259765625.9248046875,1.38671875,1.9052734375.30810546875,1.31640625.5322265625,2.22705078125.728515625,2.59130859375h-1.2607421875c-.15380859375-.26611328125-.3642578125-1.07861328125-.63037109375-2.25537109375-.2802734375-1.302734375-.7841796875-1.79296875-1.89111328125-1.8349609375h-1.1484375v4.09033203125h-1.21875v-9.31494140625Zm1.21875,4.30029296875h1.24658203125c1.302734375,0,2.12939453125-.71435546875,2.12939453125-1.79296875,0-1.21875-.8828125-1.7509765625-2.17138671875-1.76513671875-.58837890625,0-1.00830078125.05615234375-1.20458984375.1123046875v3.44580078125Z"/><path class="cls-5" d="m230.03857421875,110v9.44091796875h-1.21875v-9.44091796875h1.21875Z"/><path class="cls-5" d="m240.12255859375,115.29443359375c-.0703125-1.31640625-.154296875-2.8994140625-.14013671875-4.076171875h-.0419921875c-.322265625,1.10693359375-.71435546875,2.283203125-1.19091796875,3.5859375l-1.66650390625,4.58056640625h-.9248046875l-1.52685546875-4.49609375c-.4482421875-1.3310546875-.826171875-2.5498046875-1.09228515625-3.67041015625h-.0283203125c-.02783203125,1.1767578125-.09814453125,2.759765625-.18212890625,4.17431640625l-.251953125,4.04833984375h-1.16259765625l.658203125-9.44091796875h1.55517578125l1.61083984375,4.56640625c.39208984375,1.16259765625.71435546875,2.19921875.9521484375,3.1796875h.0419921875c.23828125-.95263671875.57470703125-1.9892578125.99462890625-3.1796875l1.68115234375-4.56640625h1.5546875l.58837890625,9.44091796875h-1.19091796875l-.23779296875-4.146484375Z"/></svg>