<?xml version="1.0" encoding="UTF-8"?><svg id="Layer_1" xmlns="http://www.w3.org/2000/svg" viewBox="0 0 844.174252184145189 425.124838692801859"><defs><style>.cls-1{fill:#d2155b;}.cls-2{stroke:#d2155b;stroke-miterlimit:10;stroke-width:.75px;}.cls-2,.cls-3{fill:none;}.cls-3{stroke:#000;stroke-linecap:round;stroke-linejoin:round;stroke-width:.5px;}.cls-4{fill:#1d1e1c;}</style></defs><polyline class="cls-3" points="544.60486345164918 333.023336400454355 544.60486345164918 333.496068623398969 507.607882856508695 333.496068623398969 507.607882856508695 333.023336400454355"/><polyline class="cls-3" points="618.598816463906587 333.023336400454355 618.598816463906587 333.496068623398969 544.60486345164918 333.496068623398969"/><polyline class="cls-3" points="655.595792970035291 333.023336400454355 655.595792970035291 333.496068623398969 618.598816463906587 333.496068623398969"/><polyline class="cls-3" points="500.56543381542815 331.652411350953116 500.56543381542815 333.023336400454355 541.08363484208985 333.023336400454355 622.120045073458641 333.023336400454355 662.63823383309591 333.023336400454355"/><line class="cls-3" x1="541.08363484208985" y1="331.652411350953116" x2="541.08363484208985" y2="333.023336400454355"/><line class="cls-3" x1="500.56543381542815" y1="331.652411350953116" x2="510.936163231625869" y2="331.652411350953116"/><line class="cls-3" x1="512.624422459609377" y1="331.652411350953116" x2="514.650335986604659" y2="331.652411350953116"/><line class="cls-3" x1="524.6834151928133" y1="331.652411350953116" x2="541.08363484208985" y2="331.652411350953116"/><polyline class="cls-3" points="541.08363484208985 331.652411350953116 622.120045073458641 331.652411350953116 622.120045073458641 333.023336400454355"/><line class="cls-3" x1="662.63823383309591" y1="331.652411350953116" x2="662.63823383309591" y2="333.023336400454355"/><line class="cls-3" x1="622.120045073458641" y1="331.652411350953116" x2="638.520256544715267" y2="331.652411350953116"/><line class="cls-3" x1="648.553335750923907" y1="331.652411350953116" x2="650.579245188903769" y2="331.652411350953116"/><line class="cls-3" x1="652.219282692077286" y1="331.652411350953116" x2="662.63823383309591" y2="331.652411350953116"/><line class="cls-3" x1="569.976973596295466" y1="359.54379684621199" x2="569.976973596295466" y2="355.856458256756014"/><polyline class="cls-3" points="568.047532142017189 359.54379684621199 568.047532142017189 355.856458256756014 569.976973596295466 355.856458256756014"/><line class="cls-3" x1="569.976973596295466" y1="359.54379684621199" x2="569.976973596295466" y2="361.434741767692685"/><line class="cls-3" x1="568.047532142017189" y1="359.54379684621199" x2="568.047532142017189" y2="361.434741767692685"/><line class="cls-3" x1="569.976973596295466" y1="365.122072342295724" x2="569.976973596295466" y2="361.434741767692685"/><polyline class="cls-3" points="569.976973596295466 365.122072342295724 568.047532142017189 365.122072342295724 568.047532142017189 361.434741767692685"/><line class="cls-3" x1="595.059663433789865" y1="359.54379684621199" x2="595.059663433789865" y2="355.856458256756014"/><polyline class="cls-3" points="593.130238335555077 359.54379684621199 593.130238335555077 355.856458256756014 595.059663433789865 355.856458256756014"/><line class="cls-3" x1="595.059663433789865" y1="359.54379684621199" x2="595.059663433789865" y2="361.434741767692685"/><line class="cls-3" x1="593.130238335555077" y1="359.54379684621199" x2="593.130238335555077" y2="361.434741767692685"/><line class="cls-3" x1="595.059663433789865" y1="365.122072342295724" x2="595.059663433789865" y2="361.434741767692685"/><polyline class="cls-3" points="595.059663433789865 365.122072342295724 593.130238335555077 365.122072342295724 593.130238335555077 361.434741767692685"/><line class="cls-3" x1="514.650335986604659" y1="331.652411350953116" x2="524.6834151928133" y2="331.652411350953116"/><line class="cls-3" x1="543.88132086179121" y1="333.496068623398969" x2="547.402549471339626" y2="361.434741767692685"/><line class="cls-3" x1="638.520256544715267" y1="331.652411350953116" x2="648.553335750923907" y2="331.652411350953116"/><line class="cls-3" x1="615.801130444212504" y1="361.434741767692685" x2="619.37059304561717" y2="333.496068623398969"/><line class="cls-3" x1="514.650335986604659" y1="182.740751252395057" x2="514.650335986604659" y2="331.652411350953116"/><line class="cls-3" x1="547.402549471339626" y1="361.434741767692685" x2="568.047532142017189" y2="361.434741767692685"/><line class="cls-3" x1="569.976973596295466" y1="361.434741767692685" x2="593.130238335555077" y2="361.434741767692685"/><line class="cls-3" x1="595.059663433789865" y1="361.434741767692685" x2="615.801130444212504" y2="361.434741767692685"/><polyline class="cls-3" points="648.553335750923907 331.652411350953116 648.553335750923907 182.740751252395057 514.650335986604659 182.740751252395057"/><line class="cls-3" x1="541.951879407509296" y1="333.496068623398969" x2="545.47310801706135" y2="361.434741767692685"/><line class="cls-3" x1="510.936163231625869" y1="331.652411350953116" x2="512.624422459609377" y2="331.652411350953116"/><line class="cls-3" x1="650.579245188903769" y1="331.652411350953116" x2="652.219282692077286" y2="331.652411350953116"/><line class="cls-3" x1="617.682337906641806" y1="361.434741767692685" x2="621.203550160146733" y2="333.496068623398969"/><line class="cls-3" x1="510.936163231625869" y1="182.740751252395057" x2="510.936163231625869" y2="331.652411350953116"/><line class="cls-3" x1="545.47310801706135" y1="361.434741767692685" x2="547.402549471339626" y2="361.434741767692685"/><line class="cls-3" x1="615.801130444212504" y1="361.434741767692685" x2="617.682337906641806" y2="361.434741767692685"/><polyline class="cls-3" points="652.219282692077286 331.652411350953116 652.219282692077286 182.740751252395057 648.553335750923907 182.740751252395057"/><line class="cls-3" x1="514.650335986604659" y1="182.740751252395057" x2="510.936163231625869" y2="182.740751252395057"/><polyline class="cls-3" points="837.953669073781384 332.98063614311468 837.953669073781384 333.407347788475818 773.659561830584607 333.407347788475818 773.659561830584607 332.98063614311468"/><polyline class="cls-3" points="773.659561830584607 333.407347788475818 709.365487395673881 333.407347788475818 709.365487395673881 332.98063614311468"/><polyline class="cls-3" points="703.269871477013112 332.98063614311468 773.659561830584607 332.98063614311468 844.049252184145189 332.98063614311468"/><polyline class="cls-3" points="703.269871477013112 332.98063614311468 703.269871477013112 331.558253274035451 773.659561830584607 331.558253274035451 773.659561830584607 332.98063614311468"/><line class="cls-3" x1="844.049252184145189" y1="331.558253274035451" x2="844.049252184145189" y2="332.98063614311468"/><line class="cls-3" x1="773.659561830584607" y1="331.558253274035451" x2="792.672030498165441" y2="331.558253274035451"/><line class="cls-3" x1="794.558769539854438" y1="331.558253274035451" x2="813.61963043263404" y2="331.558253274035451"/><line class="cls-3" x1="815.506369474319399" y1="331.558253274035451" x2="844.049252184145189" y2="331.558253274035451"/><path class="cls-3" d="m792.69624301490785,355.833502901623433c-2.097401060651464,0-3.79765779182344,1.666332929611599-3.79765779182344,3.721870222967482"/><line class="cls-3" x1="788.85019299788928" y1="361.428164909961197" x2="788.85019299788928" y2="359.579070395526287"/><line class="cls-3" x1="819.328206974599198" y1="359.579070395526287" x2="819.328206974599198" y2="361.428164909961197"/><line class="cls-3" x1="815.506369474319399" y1="365.173748480714494" x2="792.672030498165441" y2="365.173748480714494"/><path class="cls-3" d="m819.328206974599198,359.555373124590915c0-2.055553370197231-1.700256731171976-3.721886299814287-3.79765779182344-3.721886299814287"/><path class="cls-3" d="m788.89858522308441,361.40445156217902c0,2.055553370200869,1.700256731171976,3.721886299810649,3.79765779182344,3.721886299810649"/><path class="cls-3" d="m815.530155483310409,365.126337861989668c2.097401060651464.00020899899755,3.797854641561571-1.665979238998261,3.798051491288788-3.721516532354144"/><line class="cls-3" x1="813.61963043263404" y1="331.558253274035451" x2="815.506369474319399" y2="331.558253274035451"/><line class="cls-3" x1="815.506369474319399" y1="333.407347788475818" x2="815.506369474319399" y2="361.428164909961197"/><polyline class="cls-3" points="815.506369474319399 361.428164909961197 813.61963043263404 361.428164909961197 813.61963043263404 333.407347788475818"/><polyline class="cls-3" points="813.61963043263404 331.558253274035451 813.61963043263404 182.208727248089417 815.506369474319399 182.208727248089417 815.506369474319399 331.558253274035451"/><line class="cls-3" x1="794.558769539854438" y1="333.407347788475818" x2="794.558769539854438" y2="361.428164909961197"/><polyline class="cls-3" points="794.558769539854438 361.428164909961197 792.672030498165441 361.428164909961197 792.672030498165441 333.407347788475818"/><polyline class="cls-3" points="792.672030498165441 331.558253274035451 794.558769539854438 331.558253274035451 794.558769539854438 182.208727248089417 792.672030498165441 182.208727248089417 792.672030498165441 331.558253274035451"/><polyline class="cls-3" points="44.152047377760027 328.580192967590847 44.152047377760027 329.053310499546569 7.124915811678875 329.053310499546569 7.124915811678875 328.580192967590847"/><polyline class="cls-3" points="118.254583815770275 328.580192967590847 118.254583815770275 329.053310499546569 44.152047377760027 329.053310499546569"/><polyline class="cls-3" points="155.281715381848699 328.580192967590847 155.281715381848699 329.053310499546569 118.254583815770275 329.053310499546569"/><polyline class="cls-3" points=".125 327.160824328944727 .125 328.580192967590847 40.676230217190096 328.580192967590847 121.730409161029456 328.580192967590847 162.281639378220461 328.580192967590847"/><line class="cls-3" x1="40.676230217190096" y1="327.160824328944727" x2="40.676230217190096" y2="328.580192967590847"/><line class="cls-3" x1=".125" y1="327.160824328944727" x2="14.124831623353202" y2="327.160824328944727"/><line class="cls-3" x1="24.214361779461797" y1="327.160824328944727" x2="40.676230217190096" y2="327.160824328944727"/><polyline class="cls-3" points="40.676230217190096 327.160824328944727 121.730409161029456 327.160824328944727 121.730409161029456 328.580192967590847"/><line class="cls-3" x1="162.281639378220461" y1="327.160824328944727" x2="162.281639378220461" y2="328.580192967590847"/><line class="cls-3" x1="121.730409161029456" y1="327.160824328944727" x2="138.192277598760484" y2="327.160824328944727"/><line class="cls-3" x1="148.185261143175921" y1="327.160824328944727" x2="162.281639378220461" y2="327.160824328944727"/><line class="cls-3" x1="70.220696543765371" y1="355.12226137656944" x2="70.220696543765371" y2="351.384599184288163"/><polyline class="cls-3" points="68.289682463065219 355.12226137656944 68.289682463065219 351.384599184288163 70.220696543765371 351.384599184288163"/><line class="cls-3" x1="70.220696543765371" y1="355.12226137656944" x2="70.220696543765371" y2="356.967437398250695"/><line class="cls-3" x1="68.289682463065219" y1="355.12226137656944" x2="68.289682463065219" y2="356.967437398250695"/><line class="cls-3" x1="70.220696543765371" y1="360.705083547760296" x2="70.220696543765371" y2="356.967437398250695"/><polyline class="cls-3" points="70.220696543765371 360.705083547760296 68.289682463065219 360.705083547760296 68.289682463065219 356.967437398250695"/><line class="cls-3" x1="94.5514248524496" y1="355.12226137656944" x2="94.5514248524496" y2="351.384599184288163"/><polyline class="cls-3" points="92.620427141130676 355.12226137656944 92.620427141130676 351.384599184288163 94.5514248524496 351.384599184288163"/><line class="cls-3" x1="94.5514248524496" y1="355.12226137656944" x2="94.5514248524496" y2="356.967437398250695"/><line class="cls-3" x1="92.620427141130676" y1="355.12226137656944" x2="92.620427141130676" y2="356.967437398250695"/><line class="cls-3" x1="94.5514248524496" y1="360.705083547760296" x2="94.5514248524496" y2="356.967437398250695"/><polyline class="cls-3" points="94.5514248524496 360.705083547760296 92.620427141130676 360.705083547760296 92.620427141130676 356.967437398250695"/><line class="cls-3" x1="14.124831623353202" y1="327.160824328944727" x2="24.214361779461797" y2="327.160824328944727"/><line class="cls-3" x1="43.379641745479603" y1="329.053310499546569" x2="46.952013702431032" y2="356.967437398250695"/><line class="cls-3" x1="138.192277598760484" y1="327.160824328944727" x2="148.185261143175921" y2="327.160824328944727"/><line class="cls-3" x1="115.358070879409752" y1="356.967437398250695" x2="118.930442836357543" y2="329.053310499546569"/><line class="cls-3" x1="14.124831623353202" y1="178.175101216902476" x2="14.124831623353202" y2="327.160824328944727"/><line class="cls-3" x1="46.952013702431032" y1="356.967437398250695" x2="68.289682463065219" y2="356.967437398250695"/><line class="cls-3" x1="70.220696543765371" y1="356.967437398250695" x2="92.620427141130676" y2="356.967437398250695"/><line class="cls-3" x1="94.5514248524496" y1="356.967437398250695" x2="115.358070879409752" y2="356.967437398250695"/><polyline class="cls-3" points="148.185261143175921 327.160824328944727 148.185261143175921 178.175101216902476 14.124831623353202 178.175101216902476"/><polyline class="cls-3" points="329.734755149521334 330.309217541196631 329.734755149521334 330.735444494432159 265.513678129934306 330.735444494432159 265.513678129934306 330.309217541196631"/><polyline class="cls-3" points="265.513678129934306 330.735444494432159 201.292633881369511 330.735444494432159 201.292633881369511 330.309217541196631"/><polyline class="cls-3" points="195.203941835093246 330.309217541196631 265.513678129934306 330.309217541196631 335.823414424773546 330.309217541196631"/><polyline class="cls-3" points="195.203941835093246 330.309217541196631 195.203941835093246 328.888450324673613 265.513678129934306 328.888450324673613 265.513678129934306 330.309217541196631"/><line class="cls-3" x1="335.823414424773546" y1="328.888450324673613" x2="335.823414424773546" y2="330.309217541196631"/><line class="cls-3" x1="265.513678129934306" y1="328.888450324673613" x2="305.428356993008492" y2="328.888450324673613"/><line class="cls-3" x1="307.312952930449683" y1="328.888450324673613" x2="335.823414424773546" y2="328.888450324673613"/><path class="cls-3" d="m284.528735978261466,353.136126244744446c-2.095018670182071,0-3.793344118155801,1.664440179685698-3.793344118155801,3.717642634677759"/><line class="cls-3" x1="280.687054602548415" y1="358.724433402921932" x2="280.687054602548415" y2="356.877439233165205"/><line class="cls-3" x1="311.130449291872537" y1="356.877439233165205" x2="311.130449291872537" y2="358.724433402921932"/><line class="cls-3" x1="307.312952930449683" y1="362.46576244993048" x2="284.504550963973088" y2="362.46576244993048"/><path class="cls-3" d="m311.130449291872537,356.853768879422205c0-2.053218513572574-1.69832544797282-3.717658693263729-3.793344118150344-3.717658693263729"/><path class="cls-3" d="m280.735391860105665,358.70074699059478c0,2.053218513578031,1.69832544797373,3.717658693263729,3.793344118155801,3.717658693263729"/><path class="cls-3" d="m307.336711921453571,362.418405683858509c2.095018670181162.000208761601243,3.793540744287384-1.664086890827093,3.793737370418967-3.717289345811878"/><polyline class="cls-3" points="286.38914690141246 330.735444494432159 286.38914690141246 358.724433402921932 284.504550963973088 358.724433402921932 284.504550963973088 353.136110186158476"/><line class="cls-3" x1="305.428356993008492" y1="328.888450324673613" x2="307.312952930449683" y2="328.888450324673613"/><line class="cls-3" x1="307.312952930449683" y1="330.735444494432159" x2="307.312952930449683" y2="358.724433402921932"/><polyline class="cls-3" points="307.312952930449683 358.724433402921932 305.428356993008492 358.724433402921932 305.428356993008492 330.735444494432159"/><polyline class="cls-3" points="305.428356993008492 328.888450324673613 305.428356993008492 179.708567050603961 307.312952930449683 179.708567050603961 307.312952930449683 328.888450324673613"/><polyline class="cls-3" points="643.261691788783537 82.827767081069396 659.364647754199723 82.827767081069396 661.467946532379756 99.370946403269045"/><polyline class="cls-3" points="699.447886316877884 99.370946403269045 701.551185095061555 82.827767081069396 717.654141060474103 82.827767081069396"/><line class="cls-3" x1="643.261691788783537" y1=".125" x2="643.261691788783537" y2="82.827767081069396"/><line class="cls-3" x1="661.467946532379756" y1="99.370946403269045" x2="699.447886316877884" y2="99.370946403269045"/><polyline class="cls-3" points="717.654141060474103 82.827767081069396 717.654141060474103 .125 643.261691788783537 .125"/><path class="cls-4" d="m660.639280633088674,64.097983224051859v8.76220703125h-1.1533203125v-8.76220703125h1.1533203125Z"/><path class="cls-4" d="m662.655882195588674,72.860190255301859v-8.76220703125h1.259765625l2.8642578125,4.43310546875c.6630859375,1.02685546875,1.1796875,1.9501953125,1.6044921875,2.84716796875l.0263671875-.01318359375c-.1064453125-1.169921875-.1328125-2.23583984375-.1328125-3.60107421875v-3.666015625h1.0869140625v8.76220703125h-1.166015625l-2.837890625-4.4462890625c-.623046875-.97509765625-1.2197265625-1.97607421875-1.6708984375-2.9248046875l-.0400390625.0126953125c.06640625,1.10498046875.0927734375,2.158203125.0927734375,3.6142578125v3.744140625h-1.0869140625Z"/><path class="cls-4" d="m676.860960320588674,68.921225411551859v.8447265625h-3.275390625v-.8447265625h3.275390625Z"/><path class="cls-4" d="m681.504515008088674,66.568198067801859l.8486328125,3.19775390625c.1865234375.7021484375.3583984375,1.35205078125.4775390625,2.00244140625h.0400390625c.1455078125-.63720703125.3583984375-1.3134765625.5703125-1.9892578125l1.0478515625-3.2109375h.98046875l.9951171875,3.14599609375c.23828125.75390625.423828125,1.4169921875.5703125,2.05419921875h.0390625c.1064453125-.63720703125.2783203125-1.30029296875.4912109375-2.04150390625l.9150390625-3.15869140625h1.1533203125l-2.068359375,6.2919921875h-1.0615234375l-.98046875-3.0029296875c-.2255859375-.7021484375-.4111328125-1.326171875-.5703125-2.0673828125h-.0263671875c-.1591796875.75390625-.3583984375,1.404296875-.583984375,2.080078125l-1.0341796875,2.990234375h-1.060546875l-1.9365234375-6.2919921875h1.193359375Z"/><path class="cls-4" d="m694.303343133088674,72.860190255301859l-.0927734375-.79296875h-.0400390625c-.357421875.494140625-1.046875.93603515625-1.9619140625.93603515625-1.2998046875,0-1.962890625-.89697265625-1.962890625-1.80712890625,0-1.52099609375,1.37890625-2.35302734375,3.8583984375-2.33984375v-.13037109375c0-.52001953125-.1455078125-1.4560546875-1.4580078125-1.4560546875-.5966796875,0-1.2197265625.18212890625-1.6708984375.46826171875l-.265625-.75390625c.53125-.33837890625,1.2998046875-.55908203125,2.1083984375-.55908203125,1.962890625,0,2.4404296875,1.31298828125,2.4404296875,2.57373046875v2.353515625c0,.5458984375.0263671875,1.07861328125.10546875,1.5078125h-1.060546875Zm-.171875-3.2109375c-1.2734375-.0263671875-2.71875.19482421875-2.71875,1.4169921875,0,.74072265625.50390625,1.091796875,1.1005859375,1.091796875.8359375,0,1.3662109375-.52001953125,1.5517578125-1.052734375.0390625-.1171875.06640625-.2470703125.06640625-.3642578125v-1.091796875Z"/><path class="cls-4" d="m697.143186883088674,63.629721505301859h1.1669921875v9.23046875h-1.1669921875v-9.23046875Z"/><path class="cls-4" d="m700.274046258088674,63.629721505301859h1.1669921875v9.23046875h-1.1669921875v-9.23046875Z"/><polyline class="cls-3" points="152.157553009526964 82.473311404650303 169.068705068279087 82.473311404650303 171.162719441209447 98.839228956187071"/><polyline class="cls-3" points="210.816451893891099 98.839228956187071 212.910470760792123 82.473311404650303 229.8216183255754 82.473311404650303"/><line class="cls-3" x1="152.157553009526964" y1=".656717447085612" x2="152.157553009526964" y2="82.473311404650303"/><line class="cls-3" x1="171.162719441209447" y1="98.839228956187071" x2="210.816451893891099" y2="98.839228956187071"/><polyline class="cls-3" points="229.8216183255754 82.473311404650303 229.8216183255754 .656717447085612 152.157553009526964 .656717447085612"/><path class="cls-4" d="m171.448362664338674,72.172201974051859c0,3.01611328125-1.86962890625,4.615234375-4.150390625,4.615234375-2.3603515625,0-4.017578125-1.7939453125-4.017578125-4.4462890625,0-2.7822265625,1.76318359375-4.60205078125,4.150390625-4.60205078125,2.439453125,0,4.017578125,1.8330078125,4.017578125,4.43310546875Zm-6.93505859375.14306640625c0,1.8720703125,1.0341796875,3.548828125,2.85107421875,3.548828125,1.82958984375,0,2.86376953125-1.65087890625,2.86376953125-3.6396484375,0-1.7421875-.927734375-3.5625-2.8505859375-3.5625-1.90966796875,0-2.8642578125,1.72900390625-2.8642578125,3.6533203125Z"/><path class="cls-4" d="m174.103147820588674,67.882162911551859v5.18701171875c0,1.962890625.888671875,2.794921875,2.08203125,2.794921875,1.326171875,0,2.1748046875-.85791015625,2.1748046875-2.794921875v-5.18701171875h1.16650390625v5.10888671875c0,2.69140625-1.4453125,3.79638671875-3.380859375,3.79638671875-1.830078125,0-3.208984375-1.02685546875-3.208984375-3.744140625v-5.1611328125h1.16650390625Z"/><path class="cls-4" d="m183.229124383088674,68.844076974051859h-2.71826171875v-.9619140625h6.61669921875v.9619140625h-2.7314453125v7.80029296875h-1.1669921875v-7.80029296875Z"/><path class="cls-4" d="m193.601682976838674,72.705405099051859v.8447265625h-3.27490234375v-.8447265625h3.27490234375Z"/><path class="cls-4" d="m198.244749383088674,70.352377755301859l.8486328125,3.19775390625c.185546875.7021484375.35791015625,1.35205078125.4775390625,2.00244140625h.03955078125c.14599609375-.63720703125.35791015625-1.3134765625.5703125-1.9892578125l1.04736328125-3.2109375h.9814453125l.994140625,3.14599609375c.23876953125.75390625.42431640625,1.4169921875.5703125,2.05419921875h.0400390625c.10595703125-.63720703125.2783203125-1.30029296875.490234375-2.04150390625l.9150390625-3.15869140625h1.15380859375l-2.06884765625,6.2919921875h-1.060546875l-.9814453125-3.0029296875c-.22509765625-.7021484375-.4111328125-1.326171875-.5703125-2.0673828125h-.0263671875c-.1591796875.75390625-.35791015625,1.404296875-.58349609375,2.080078125l-1.0341796875,2.990234375h-1.060546875l-1.93603515625-6.2919921875h1.193359375Z"/><path class="cls-4" d="m211.044065789338674,76.644369942801859l-.0927734375-.79296875h-.03955078125c-.3583984375.494140625-1.0478515625.93603515625-1.96240234375.93603515625-1.2998046875,0-1.962890625-.89697265625-1.962890625-1.80712890625,0-1.52099609375,1.37939453125-2.35302734375,3.85888671875-2.33984375v-.13037109375c0-.52001953125-.14599609375-1.4560546875-1.45849609375-1.4560546875-.5966796875,0-1.22021484375.18212890625-1.6708984375.46826171875l-.26513671875-.75390625c.5302734375-.33837890625,1.29931640625-.55908203125,2.1083984375-.55908203125,1.96240234375,0,2.43994140625,1.31298828125,2.43994140625,2.57373046875v2.353515625c0,.5458984375.0263671875,1.07861328125.10595703125,1.5078125h-1.06103515625Zm-.17236328125-3.2109375c-1.27294921875-.0263671875-2.71826171875.19482421875-2.71826171875,1.4169921875,0,.74072265625.50390625,1.091796875,1.1005859375,1.091796875.83544921875,0,1.36572265625-.52001953125,1.55126953125-1.052734375.0400390625-.1171875.06640625-.2470703125.06640625-.3642578125v-1.091796875Z"/><path class="cls-4" d="m213.883909539338674,67.413901192801859h1.1669921875v9.23046875h-1.1669921875v-9.23046875Z"/><path class="cls-4" d="m217.014280633088674,67.413901192801859h1.1669921875v9.23046875h-1.1669921875v-9.23046875Z"/><path class="cls-2" d="m201.881773308869924,251.820853097098734c-1.6153564453125-7.247344970703125-7.949798583984375-12.815399169921875-15.776290893554688-13.179351806640625-9.37353515625-.4359130859375-17.33770751953125,6.758056640625-17.788467407226562,16.068145751953125"/><polygon class="cls-1" points="204.325300530549612 249.447104317801859 201.688703850862112 250.914847237723734 198.801908806916799 250.036002022879984 202.261595086213674 256.288199288504984 204.325300530549612 249.447104317801859"/><path class="cls-2" d="m701.298765496369924,251.820853097098734c-1.6153564453125-7.247344970703125-7.94976806640625-12.815399169921875-15.77630615234375-13.179351806640625-9.37353515625-.4359130859375-17.33770751953125,6.758056640625-17.7884521484375,16.068145751953125"/><polygon class="cls-1" points="703.742307976838674 249.447104317801859 701.105711297151174 250.914847237723734 698.218931511994924 250.036002022879984 701.678587273713674 256.288199288504984 703.742307976838674 249.447104317801859"/><path class="cls-4" d="m54.027464226838674,398.661948067801859h3.70556640625v.7294921875h-2.8173828125v2.2392578125h2.60302734375v.7197265625h-2.60302734375v3.0478515625h-.88818359375v-6.736328125Z"/><path class="cls-4" d="m58.996702508088674,398.751791817801859c.44921875-.08984375,1.09228515625-.1396484375,1.70458984375-.1396484375.94921875,0,1.56201171875.169921875,1.99072265625.5498046875.34716796875.2998046875.541015625.759765625.541015625,1.279296875,0,.8896484375-.57177734375,1.478515625-1.29638671875,1.71875v.0302734375c.53076171875.1796875.84716796875.6591796875,1.0107421875,1.359375.224609375.939453125.3876953125,1.5888671875.53076171875,1.8486328125h-.9189453125c-.1123046875-.189453125-.26513671875-.76953125-.45947265625-1.609375-.2041015625-.9296875-.5712890625-1.279296875-1.3779296875-1.30859375h-.8369140625v2.91796875h-.88818359375v-6.646484375Zm.88818359375,3.068359375h.908203125c.94970703125,0,1.5517578125-.509765625,1.5517578125-1.279296875,0-.869140625-.64306640625-1.2490234375-1.58203125-1.2587890625-.4287109375,0-.7353515625.0390625-.8779296875.0791015625v2.458984375Z"/><path class="cls-4" d="m70.396604851838674,401.959799630301859c0,2.3193359375-1.439453125,3.548828125-3.1953125,3.548828125-1.81689453125,0-3.0927734375-1.3798828125-3.0927734375-3.4189453125,0-2.138671875,1.357421875-3.5380859375,3.19482421875-3.5380859375,1.87841796875,0,3.09326171875,1.41015625,3.09326171875,3.408203125Zm-5.3388671875.1103515625c0,1.439453125.79638671875,2.728515625,2.19482421875,2.728515625,1.40869140625,0,2.20458984375-1.26953125,2.20458984375-2.798828125,0-1.3388671875-.71435546875-2.73828125-2.1943359375-2.73828125-1.47021484375,0-2.205078125,1.3291015625-2.205078125,2.80859375Z"/><path class="cls-4" d="m71.546995476838674,405.398276192801859v-6.736328125h.9697265625l2.205078125,3.408203125c.51025390625.7890625.908203125,1.4990234375,1.23486328125,2.1884765625l.0205078125-.009765625c-.08154296875-.8994140625-.10205078125-1.71875-.10205078125-2.7685546875v-2.818359375h.8369140625v6.736328125h-.89794921875l-2.1845703125-3.41796875c-.47998046875-.75-.939453125-1.51953125-1.2861328125-2.2490234375l-.03076171875.009765625c.05078125.849609375.0712890625,1.6591796875.0712890625,2.779296875v2.8779296875h-.8369140625Z"/><path class="cls-4" d="m79.567503289338674,399.401205880301859h-2.0927734375v-.7392578125h5.09375v.7392578125h-2.1025390625v5.9970703125h-.8984375v-5.9970703125Z"/><path class="cls-4" d="m86.638304070588674,405.398276192801859l-2.24560546875-6.736328125h.95947265625l1.07177734375,3.318359375c.2958984375.9091796875.55126953125,1.728515625.73486328125,2.5185546875h.0205078125c.19384765625-.779296875.47998046875-1.62890625.7861328125-2.5087890625l1.16357421875-3.328125h.94921875l-2.4599609375,6.736328125h-.97998046875Z"/><path class="cls-4" d="m91.709104851838674,398.661948067801859v6.736328125h-.88818359375v-6.736328125h.88818359375Z"/><path class="cls-4" d="m96.822386101838674,402.240073067801859h-2.67431640625v2.4287109375h2.98046875v.7294921875h-3.86865234375v-6.736328125h3.7158203125v.7294921875h-2.82763671875v2.12890625h2.67431640625v.7197265625Z"/><path class="cls-4" d="m99.494749383088674,405.398276192801859l-1.74560546875-6.736328125h.93896484375l.81640625,3.408203125c.20458984375.83984375.38818359375,1.6787109375.5107421875,2.3291015625h.0205078125c.1123046875-.669921875.32666015625-1.4697265625.56103515625-2.3388671875l.9189453125-3.3984375h.9287109375l.83740234375,3.41796875c.19384765625.7998046875.37744140625,1.599609375.4794921875,2.30859375h.0205078125c.14306640625-.7392578125.3369140625-1.4892578125.55126953125-2.328125l.90869140625-3.3984375h.908203125l-1.94970703125,6.736328125h-.9287109375l-.86767578125-3.5078125c-.21435546875-.859375-.357421875-1.51953125-.44921875-2.19921875h-.0205078125c-.12255859375.669921875-.275390625,1.3291015625-.53076171875,2.19921875l-.97998046875,3.5078125h-.9287109375Z"/><path class="cls-4" d="m246.591917351838674,404.338705880301859c.39794921875.240234375.97998046875.439453125,1.59228515625.439453125.90869140625,0,1.439453125-.4697265625,1.439453125-1.1484375,0-.6298828125-.3671875-.990234375-1.29638671875-1.33984375-1.123046875-.3896484375-1.81689453125-.958984375-1.81689453125-1.9091796875,0-1.048828125.88818359375-1.8291015625,2.22509765625-1.8291015625.70458984375,0,1.21484375.16015625,1.52099609375.330078125l-.24462890625.7099609375c-.224609375-.1201171875-.68408203125-.3203125-1.306640625-.3203125-.939453125,0-1.296875.5498046875-1.296875,1.009765625,0,.6298828125.4189453125.939453125,1.3681640625,1.298828125,1.16357421875.4404296875,1.755859375.990234375,1.755859375,1.9794921875,0,1.0390625-.7861328125,1.9384765625-2.4091796875,1.9384765625-.66357421875,0-1.38818359375-.189453125-1.755859375-.4296875l.224609375-.7294921875Z"/><path class="cls-4" d="m252.632932976838674,398.661948067801859v6.736328125h-.88818359375v-6.736328125h.88818359375Z"/><path class="cls-4" d="m254.183225945588674,398.751791817801859c.541015625-.080078125,1.18408203125-.1396484375,1.888671875-.1396484375,1.27587890625,0,2.18408203125.2900390625,2.78662109375.83984375.6123046875.548828125.9697265625,1.3291015625.9697265625,2.41796875,0,1.099609375-.34716796875,1.9990234375-.990234375,2.619140625-.64306640625.62890625-1.70458984375.96875-3.0419921875.96875-.6328125,0-1.16357421875-.029296875-1.61279296875-.0791015625v-6.626953125Zm.88818359375,5.95703125c.224609375.0400390625.55126953125.0498046875.89794921875.0498046875,1.89892578125,0,2.93017578125-1.0390625,2.93017578125-2.8583984375.009765625-1.5888671875-.90869140625-2.5986328125-2.787109375-2.5986328125-.45947265625,0-.80615234375.0400390625-1.041015625.08984375v5.3173828125Z"/><path class="cls-4" d="m264.541624383088674,402.240073067801859h-2.67431640625v2.4287109375h2.98046875v.7294921875h-3.86865234375v-6.736328125h3.7158203125v.7294921875h-2.82763671875v2.12890625h2.67431640625v.7197265625Z"/><path class="cls-4" d="m269.305296258088674,405.398276192801859l-2.24560546875-6.736328125h.95947265625l1.07177734375,3.318359375c.2958984375.9091796875.55126953125,1.728515625.73486328125,2.5185546875h.0205078125c.19384765625-.779296875.47998046875-1.62890625.7861328125-2.5087890625l1.16357421875-3.328125h.94921875l-2.4599609375,6.736328125h-.97998046875Z"/><path class="cls-4" d="m274.376585320588674,398.661948067801859v6.736328125h-.88818359375v-6.736328125h.88818359375Z"/><path class="cls-4" d="m279.489378289338674,402.240073067801859h-2.67431640625v2.4287109375h2.98046875v.7294921875h-3.86865234375v-6.736328125h3.7158203125v.7294921875h-2.82763671875v2.12890625h2.67431640625v.7197265625Z"/><path class="cls-4" d="m282.161741570588674,405.398276192801859l-1.74560546875-6.736328125h.93896484375l.81640625,3.408203125c.20458984375.83984375.38818359375,1.6787109375.5107421875,2.3291015625h.0205078125c.1123046875-.669921875.32666015625-1.4697265625.56103515625-2.3388671875l.9189453125-3.3984375h.9287109375l.83740234375,3.41796875c.19384765625.7998046875.37744140625,1.599609375.4794921875,2.30859375h.0205078125c.14306640625-.7392578125.3369140625-1.4892578125.55126953125-2.328125l.90869140625-3.3984375h.908203125l-1.94970703125,6.736328125h-.9287109375l-.86767578125-3.5078125c-.21435546875-.859375-.357421875-1.51953125-.44921875-2.19921875h-.0205078125c-.12255859375.669921875-.275390625,1.3291015625-.53076171875,2.19921875l-.97998046875,3.5078125h-.9287109375Z"/><path class="cls-4" d="m559.299436883088674,398.661948067801859h3.7060546875v.7294921875h-2.8173828125v2.2392578125h2.6025390625v.7197265625h-2.6025390625v3.0478515625h-.888671875v-6.736328125Z"/><path class="cls-4" d="m564.268186883088674,398.751791817801859c.44921875-.08984375,1.0927734375-.1396484375,1.705078125-.1396484375.94921875,0,1.5615234375.169921875,1.990234375.5498046875.34765625.2998046875.541015625.759765625.541015625,1.279296875,0,.8896484375-.5712890625,1.478515625-1.2958984375,1.71875v.0302734375c.53125.1796875.84765625.6591796875,1.0107421875,1.359375.224609375.939453125.3876953125,1.5888671875.5302734375,1.8486328125h-.91796875c-.1123046875-.189453125-.265625-.76953125-.4599609375-1.609375-.2041015625-.9296875-.5712890625-1.279296875-1.3779296875-1.30859375h-.8369140625v2.91796875h-.888671875v-6.646484375Zm.888671875,3.068359375h.908203125c.94921875,0,1.5517578125-.509765625,1.5517578125-1.279296875,0-.869140625-.642578125-1.2490234375-1.58203125-1.2587890625-.4287109375,0-.7353515625.0390625-.8779296875.0791015625v2.458984375Z"/><path class="cls-4" d="m575.668577508088674,401.959799630301859c0,2.3193359375-1.4384765625,3.548828125-3.1943359375,3.548828125-1.8173828125,0-3.09375-1.3798828125-3.09375-3.4189453125,0-2.138671875,1.3583984375-3.5380859375,3.1953125-3.5380859375,1.87890625,0,3.0927734375,1.41015625,3.0927734375,3.408203125Zm-5.3388671875.1103515625c0,1.439453125.796875,2.728515625,2.1953125,2.728515625,1.408203125,0,2.205078125-1.26953125,2.205078125-2.798828125,0-1.3388671875-.71484375-2.73828125-2.1953125-2.73828125-1.4697265625,0-2.205078125,1.3291015625-2.205078125,2.80859375Z"/><path class="cls-4" d="m576.818968133088674,405.398276192801859v-6.736328125h.9697265625l2.205078125,3.408203125c.5107421875.7890625.9091796875,1.4990234375,1.2353515625,2.1884765625l.0205078125-.009765625c-.08203125-.8994140625-.1015625-1.71875-.1015625-2.7685546875v-2.818359375h.8369140625v6.736328125h-.8984375l-2.1845703125-3.41796875c-.4794921875-.75-.939453125-1.51953125-1.2861328125-2.2490234375l-.03125.009765625c.0517578125.849609375.072265625,1.6591796875.072265625,2.779296875v2.8779296875h-.837890625Z"/><path class="cls-4" d="m584.839475945588674,399.401205880301859h-2.091796875v-.7392578125h5.09375v.7392578125h-2.103515625v5.9970703125h-.8984375v-5.9970703125Z"/><path class="cls-4" d="m591.911741570588674,405.398276192801859l-2.24609375-6.736328125h.958984375l1.072265625,3.318359375c.2958984375.9091796875.55078125,1.728515625.7353515625,2.5185546875h.0205078125c.193359375-.779296875.4794921875-1.62890625.78515625-2.5087890625l1.1640625-3.328125h.94921875l-2.4599609375,6.736328125h-.9794921875Z"/><path class="cls-4" d="m596.982054070588674,398.661948067801859v6.736328125h-.888671875v-6.736328125h.888671875Z"/><path class="cls-4" d="m602.095335320588674,402.240073067801859h-2.6748046875v2.4287109375h2.98046875v.7294921875h-3.869140625v-6.736328125h3.7158203125v.7294921875h-2.8271484375v2.12890625h2.6748046875v.7197265625Z"/><path class="cls-4" d="m604.766233758088674,405.398276192801859l-1.7451171875-6.736328125h.9384765625l.8173828125,3.408203125c.2041015625.83984375.3876953125,1.6787109375.509765625,2.3291015625h.0205078125c.1123046875-.669921875.3271484375-1.4697265625.5615234375-2.3388671875l.9189453125-3.3984375h.9287109375l.8369140625,3.41796875c.1943359375.7998046875.3779296875,1.599609375.48046875,2.30859375h.0205078125c.142578125-.7392578125.3369140625-1.4892578125.55078125-2.328125l.908203125-3.3984375h.9091796875l-1.9501953125,6.736328125h-.9287109375l-.8681640625-3.5078125c-.2138671875-.859375-.3564453125-1.51953125-.44921875-2.19921875h-.01953125c-.123046875.669921875-.2763671875,1.3291015625-.53125,2.19921875l-.9794921875,3.5078125h-.9296875Z"/><path class="cls-4" d="m751.862913445588674,404.338705880301859c.3984375.240234375.98046875.439453125,1.5927734375.439453125.908203125,0,1.439453125-.4697265625,1.439453125-1.1484375,0-.6298828125-.3681640625-.990234375-1.296875-1.33984375-1.123046875-.3896484375-1.8173828125-.958984375-1.8173828125-1.9091796875,0-1.048828125.888671875-1.8291015625,2.2255859375-1.8291015625.7041015625,0,1.21484375.16015625,1.521484375.330078125l-.2451171875.7099609375c-.224609375-.1201171875-.6845703125-.3203125-1.306640625-.3203125-.939453125,0-1.296875.5498046875-1.296875,1.009765625,0,.6298828125.4189453125.939453125,1.3681640625,1.298828125,1.1640625.4404296875,1.755859375.990234375,1.755859375,1.9794921875,0,1.0390625-.7861328125,1.9384765625-2.4091796875,1.9384765625-.6630859375,0-1.388671875-.189453125-1.755859375-.4296875l.224609375-.7294921875Z"/><path class="cls-4" d="m757.903929070588674,398.661948067801859v6.736328125h-.888671875v-6.736328125h.888671875Z"/><path class="cls-4" d="m759.453733758088674,398.751791817801859c.541015625-.080078125,1.1845703125-.1396484375,1.888671875-.1396484375,1.2763671875,0,2.1845703125.2900390625,2.787109375.83984375.6123046875.548828125.9697265625,1.3291015625.9697265625,2.41796875,0,1.099609375-.3466796875,1.9990234375-.990234375,2.619140625-.642578125.62890625-1.705078125.96875-3.0419921875.96875-.6328125,0-1.1640625-.029296875-1.61328125-.0791015625v-6.626953125Zm.888671875,5.95703125c.224609375.0400390625.55078125.0498046875.8984375.0498046875,1.8984375,0,2.9296875-1.0390625,2.9296875-2.8583984375.009765625-1.5888671875-.9091796875-2.5986328125-2.787109375-2.5986328125-.458984375,0-.806640625.0400390625-1.041015625.08984375v5.3173828125Z"/><path class="cls-4" d="m769.813108758088674,402.240073067801859h-2.6748046875v2.4287109375h2.98046875v.7294921875h-3.869140625v-6.736328125h3.7158203125v.7294921875h-2.8271484375v2.12890625h2.6748046875v.7197265625Z"/><path class="cls-4" d="m774.575804070588674,405.398276192801859l-2.2451171875-6.736328125h.958984375l1.072265625,3.318359375c.2958984375.9091796875.55078125,1.728515625.7353515625,2.5185546875h.0205078125c.193359375-.779296875.4794921875-1.62890625.78515625-2.5087890625l1.1640625-3.328125h.94921875l-2.4599609375,6.736328125h-.98046875Z"/><path class="cls-4" d="m779.647093133088674,398.661948067801859v6.736328125h-.888671875v-6.736328125h.888671875Z"/><path class="cls-4" d="m784.761350945588674,402.240073067801859h-2.6748046875v2.4287109375h2.98046875v.7294921875h-3.869140625v-6.736328125h3.7158203125v.7294921875h-2.8271484375v2.12890625h2.6748046875v.7197265625Z"/><path class="cls-4" d="m787.432249383088674,405.398276192801859l-1.7451171875-6.736328125h.9384765625l.8173828125,3.408203125c.2041015625.83984375.3876953125,1.6787109375.509765625,2.3291015625h.0205078125c.1123046875-.669921875.3271484375-1.4697265625.5615234375-2.3388671875l.9189453125-3.3984375h.9287109375l.8369140625,3.41796875c.1943359375.7998046875.3779296875,1.599609375.48046875,2.30859375h.0205078125c.142578125-.7392578125.3369140625-1.4892578125.55078125-2.328125l.908203125-3.3984375h.9091796875l-1.9501953125,6.736328125h-.9287109375l-.8681640625-3.5078125c-.2138671875-.859375-.3564453125-1.51953125-.44921875-2.19921875h-.01953125c-.123046875.669921875-.2763671875,1.3291015625-.53125,2.19921875l-.9794921875,3.5078125h-.9296875Z"/><path class="cls-4" d="m418.987425164338674,254.369955880301859v5.7265625h5.50732421875v1.4619140625h-5.50732421875v5.775390625h-1.5595703125v-5.775390625h-5.5078125v-1.4619140625h5.5078125v-5.7265625h1.5595703125Z"/></svg>