<?xml version="1.0" encoding="UTF-8"?><svg id="Layer_1" xmlns="http://www.w3.org/2000/svg" viewBox="0 0 833.31396985721949 299.944684239432718"><defs><style>.cls-1,.cls-2,.cls-3,.cls-4,.cls-5,.cls-6,.cls-7,.cls-8,.cls-9,.cls-10{fill:none;}.cls-1,.cls-2,.cls-3,.cls-4,.cls-7,.cls-8,.cls-9,.cls-10{stroke-linecap:round;stroke-linejoin:round;}.cls-1,.cls-2,.cls-3,.cls-4,.cls-7,.cls-8,.cls-10{stroke:#e10b17;}.cls-1,.cls-2,.cls-3,.cls-7,.cls-8,.cls-9,.cls-10{stroke-width:.25px;}.cls-2{stroke-dasharray:0 0 1.953648447990417 1.953648447990417;}.cls-3{stroke-dasharray:0 1.892639398574829;}.cls-11{fill:#d2155b;}.cls-4{stroke-dasharray:0 2;stroke-width:.5px;}.cls-5{stroke:#d2155b;}.cls-5,.cls-6{stroke-miterlimit:10;stroke-width:.75px;}.cls-6{stroke:#1d1e1c;}.cls-7{stroke-dasharray:0 0 2.084877252578735 2.084877252578735;}.cls-8{stroke-dasharray:0 0 2.084879875183105 2.084879875183105;}.cls-9{stroke:#000;}.cls-10{stroke-dasharray:0 0 1.966769576072693 1.966769576072693;}.cls-12{fill:#1d1e1c;}</style></defs><polyline class="cls-9" points="178.463209170740811 216.699703126830173 178.463209170740811 216.31742615125313 136.575885711563387 165.036859179791463 52.801238793192169 165.036859179791463 10.91391533400747 216.31742615125313 10.91391533400747 216.699703126830173"/><polyline class="cls-9" points="178.463209170740811 216.699703126830173 136.575885711563387 268.034889031100647 136.575885711563387 267.6526027965092 178.463209170740811 216.31742615125313"/><polyline class="cls-9" points="136.575885711563387 268.034889031100647 52.801238793192169 268.034889031100647 52.801238793192169 267.6526027965092 136.575885711563387 267.6526027965092"/><line class="cls-9" x1="10.91391533400747" y1="216.31742615125313" x2="52.801238793192169" y2="267.6526027965092"/><line class="cls-9" x1="10.91391533400747" y1="216.699703126830173" x2="52.801238793192169" y2="268.034889031100647"/><polyline class="cls-9" points="186.436554869287647 216.699703126830173 140.562558560830439 272.895349067638563 48.814565943916023 272.895349067638563 2.940578894478676 216.699703126830173 48.814565943916023 160.50407107454248 140.562558560830439 160.50407107454248 186.436554869287647 216.699703126830173"/><polyline class="cls-9" points="48.814565943916023 272.895349067638563 48.814565943916023 274.042198512400319 2.940578894478676 217.846552571590109 2.940578894478676 216.699703126830173"/><polyline class="cls-9" points="186.436554869287647 216.699703126830173 186.436554869287647 217.846552571590109 140.562558560830439 274.042198512400319 140.562558560830439 272.895349067638563"/><line class="cls-9" x1="140.562558560830439" y1="274.042198512400319" x2="48.814565943916023" y2="274.042198512400319"/><polyline class="cls-9" points="140.289491673827797 201.244535829951019 49.087632830922303 201.244535829951019 49.087632830922303 199.606180803007192 140.289491673827797 199.606180803007192"/><line class="cls-9" x1="140.289491673827797" y1="201.135316482362214" x2="49.087632830922303" y2="201.135316482362214"/><line class="cls-9" x1="140.289491673827797" y1="199.606180803007192" x2="140.289491673827797" y2="201.244535829951019"/><line class="cls-9" x1="51.272103113838966" y1="182.840335039986712" x2="138.105012131896729" y2="182.840335039986712"/><line class="cls-9" x1="138.105012131896729" y1="184.314851786529289" x2="51.272103113838966" y2="184.314851786529289"/><polyline class="cls-9" points="138.105012131896729 182.840335039986712 138.105012131896729 184.424071134118094 51.272103113838966 184.424071134118094 51.272103113838966 182.840335039986712"/><polyline class="cls-9" points="448.159729958195385 293.449537692621561 525.764314681158794 293.449537692621561 564.541329703743031 226.310199847633157 525.764314681158794 159.12029018186422 448.159729958195385 159.12029018186422 409.382714935609329 226.310199847633157 448.159729958195385 293.449537692621561"/><polyline class="cls-9" points="571.872066557596554 226.310199847633157 529.404405769186269 299.819684239432718 444.469092763867593 299.819684239432718 402.051986653250424 226.310199847633157 444.469092763867593 152.750126492058371 529.404405769186269 152.750126492058371 571.872066557596554 226.310199847633157"/><line class="cls-9" x1="529.151615237233273" y1="206.542515109899796" x2="501.395982834332244" y2="206.542515109899796"/><line class="cls-9" x1="499.424264685436356" y1="206.542515109899796" x2="474.297561242736265" y2="206.542515109899796"/><polyline class="cls-9" points="472.275288416058174 206.542515109899796 444.772429402119087 206.542515109899796 444.772429402119087 204.419132927630017 472.275288416058174 204.419132927630017"/><line class="cls-9" x1="474.297561242736265" y1="204.419132927630017" x2="499.424264685436356" y2="204.419132927630017"/><polyline class="cls-9" points="501.395982834332244 204.419132927630017 529.151615237233273 204.419132927630017 529.151615237233273 206.542515109899796"/><line class="cls-9" x1="446.744147551011338" y1="182.426939509051408" x2="472.275288416058174" y2="182.426939509051408"/><line class="cls-9" x1="474.297561242736265" y1="182.426939509051408" x2="499.424264685436356" y2="182.426939509051408"/><polyline class="cls-9" points="501.395982834332244 182.426939509051408 527.179914231333896 182.426939509051408 527.179914231333896 184.550338834310423 501.395982834332244 184.550338834310423"/><line class="cls-9" x1="499.424264685436356" y1="184.550338834310423" x2="474.297561242736265" y2="184.550338834310423"/><polyline class="cls-9" points="472.275288416058174 184.550338834310423 446.744147551011338 184.550338834310423 446.744147551011338 182.426939509051408"/><line class="cls-9" x1="472.275288416058174" y1="210.38482490910701" x2="474.297561242736265" y2="210.38482490910701"/><line class="cls-9" x1="474.297561242736265" y1="182.52804886463764" x2="474.297561242736265" y2="178.58464685283343"/><line class="cls-9" x1="474.297561242736265" y1="210.38482490910701" x2="474.297561242736265" y2="206.441388611324328"/><line class="cls-9" x1="474.297561242736265" y1="178.58464685283343" x2="472.275288416058174" y2="178.58464685283343"/><line class="cls-9" x1="472.275288416058174" y1="210.38482490910701" x2="472.275288416058174" y2="206.441388611324328"/><line class="cls-9" x1="472.275288416058174" y1="182.52804886463764" x2="472.275288416058174" y2="178.58464685283343"/><line class="cls-9" x1="474.297561242736265" y1="182.52804886463764" x2="474.297561242736265" y2="206.441388611324328"/><line class="cls-9" x1="472.275288416058174" y1="182.52804886463764" x2="472.275288416058174" y2="206.441388611324328"/><line class="cls-9" x1="499.424264685436356" y1="210.38482490910701" x2="501.395982834332244" y2="210.38482490910701"/><line class="cls-9" x1="501.395982834332244" y1="182.52804886463764" x2="501.395982834332244" y2="178.58464685283343"/><line class="cls-9" x1="501.395982834332244" y1="210.38482490910701" x2="501.395982834332244" y2="206.441388611324328"/><line class="cls-9" x1="501.395982834332244" y1="178.58464685283343" x2="499.424264685436356" y2="178.58464685283343"/><line class="cls-9" x1="499.424264685436356" y1="210.38482490910701" x2="499.424264685436356" y2="206.441388611324328"/><line class="cls-9" x1="499.424264685436356" y1="182.52804886463764" x2="499.424264685436356" y2="178.58464685283343"/><line class="cls-9" x1="501.395982834332244" y1="182.52804886463764" x2="501.395982834332244" y2="206.441388611324328"/><line class="cls-9" x1="499.424264685436356" y1="182.52804886463764" x2="499.424264685436356" y2="206.441388611324328"/><line class="cls-9" x1="744.582345020449793" y1="169.365986734178477" x2="681.091220574977342" y2="179.142516326909572"/><line class="cls-9" x1="825.322829032100344" y1="201.448675265789461" x2="786.216786869452335" y2="178.917740051575493"/><line class="cls-9" x1="778.013500683397069" y1="174.198047935678005" x2="764.865784210245693" y2="166.61284887662714"/><polyline class="cls-9" points="825.322829032100344 201.898170660256255 803.016631989094094 249.994101660232445 803.016631989094094 249.544606265765651 825.322829032100344 201.448675265789461 825.322829032100344 201.898170660256255"/><polyline class="cls-9" points="803.016631989094094 249.994101660232445 719.691582800358447 262.860876367315541 719.691582800358447 262.411380972846928 803.016631989094094 249.544606265765651"/><polyline class="cls-9" points="719.691582800358447 262.860876367315541 658.785061636093815 227.687923669284828 658.785061636093815 227.238428274821672 719.691582800358447 262.411380972846928"/><line class="cls-9" x1="681.091220574977342" y1="179.142516326909572" x2="658.785061636093815" y2="227.238428274821672"/><line class="cls-9" x1="769.135999983738657" y1="163.747303829343764" x2="782.620823713694335" y2="171.50107556886087"/><line class="cls-9" x1="790.486964538811662" y1="176.052233108422115" x2="833.18896985721949" y2="200.718238105248929"/><polyline class="cls-9" points="833.18896985721949 200.718238105248929 808.747683979532667 253.365307592722274 717.612659456412075 267.468199397610988 650.862717216112287 228.924040767094084 675.30396498967275 176.276971279622558 752.392320354831099 164.365352852212709"/><line class="cls-9" x1="650.862717216112287" y1="230.272507898435833" x2="650.862717216112287" y2="228.924040767094084"/><line class="cls-9" x1="833.18896985721949" y1="202.066724288658406" x2="833.18896985721949" y2="200.718238105248929"/><polyline class="cls-9" points="808.747683979532667 253.365307592722274 808.747683979532667 254.713793776128114 717.612659456412075 268.816685581018646 717.612659456412075 267.468199397610988"/><line class="cls-9" x1="717.612659456412075" y1="268.816685581018646" x2="650.862717216112287" y2="230.272507898435833"/><line class="cls-9" x1="833.18896985721949" y1="202.066724288658406" x2="808.747683979532667" y2="254.713793776128114"/><polyline class="cls-9" points="790.711740814143923 224.541455908004536 724.411274916252296 186.278219991488186 726.040683813660507 185.323044659752668"/><polyline class="cls-9" points="792.341149711557591 223.586280576263562 726.040683813660507 185.323044659752668 726.040683813660507 187.121026237628939 725.928314728062105 187.177210780427231"/><line class="cls-9" x1="790.824109899749601" y1="224.485271365204426" x2="726.040683813660507" y2="187.121026237628939"/><line class="cls-9" x1="792.341149711557591" y1="223.586280576263562" x2="790.711740814143923" y2="224.541455908004536"/><line class="cls-9" x1="786.216786869452335" y1="200.044004539576235" x2="808.129634956658265" y2="212.686041075460707"/><line class="cls-9" x1="744.919452277255914" y1="178.018749262636447" x2="744.919452277255914" y2="177.794011091434186"/><line class="cls-9" x1="806.556391549982436" y1="213.585031864397934" x2="786.216786869452335" y2="201.841986117457964"/><line class="cls-9" x1="768.967427303274235" y1="191.896902896322899" x2="764.865784210245693" y2="189.537056838374156"/><line class="cls-9" x1="747.672628238931793" y1="179.591992669310457" x2="744.919452277255914" y2="178.018749262636447"/><polyline class="cls-9" points="808.129634956658265 212.686041075460707 806.444022464380396 213.641216407198044 786.216786869452335 201.954355203056366"/><line class="cls-9" x1="768.967427303274235" y1="192.009291033992668" x2="764.865784210245693" y2="189.649444976043924"/><polyline class="cls-9" points="747.672628238931793 179.704361754914316 743.233839784974407 177.175962068563422 743.570985145908708 177.007389388095362"/><line class="cls-9" x1="744.919452277255914" y1="178.018749262636447" x2="744.807083191653874" y2="178.074952857504286"/><polyline class="cls-9" points="747.672628238931793 177.906380177038045 747.054541111932849 178.187321943104507 746.492695683931743 178.355894623570748 745.930812151791542 178.299691028704729 745.481335809392476 178.131156452368486 745.088024957723974 177.794011091434186 744.807083191653874 177.344534749031482 744.638510511182176 176.782651216896738 744.526141425587412 176.108398599156317"/><polyline class="cls-9" points="743.009101613772145 175.209407810217272 743.065305208634527 175.883660427955874 743.233839784974407 176.445543960096074 743.514781551040869 176.895020302495141 743.90809240271301 177.232165663429441"/><line class="cls-9" x1="743.90809240271301" y1="177.232165663429441" x2="745.481335809392476" y2="178.131156452368486"/><line class="cls-9" x1="744.526141425587412" y1="174.310417021276407" x2="744.526141425587412" y2="176.108398599156317"/><line class="cls-9" x1="743.009101613772145" y1="173.411426232341" x2="743.009101613772145" y2="175.209407810217272"/><line class="cls-9" x1="749.24583354148308" y1="198.695518356168577" x2="764.865784210245693" y2="189.649444976043924"/><line class="cls-9" x1="769.585476326141361" y1="161.668380485399211" x2="769.585476326141361" y2="159.870437011652939"/><line class="cls-9" x1="766.43902761692334" y1="158.07245543377303" x2="747.672628238931793" y2="168.860306796911573"/><line class="cls-9" x1="764.865784210245693" y1="157.173464644833984" x2="746.09938483226324" y2="167.961316007972528"/><polyline class="cls-9" points="747.672628238931793 177.906380177038045 747.672628238931793 172.512473547533773 749.24583354148308 171.613482758594728 749.24583354148308 198.695518356168577"/><line class="cls-9" x1="764.865784210245693" y1="189.649444976043924" x2="764.865784210245693" y2="189.256134124373602"/><polyline class="cls-9" points="764.865784210245693 183.244140367868567 764.865784210245693 162.567371274338257 766.43902761692334 161.668380485399211 766.43902761692334 167.062325219031663"/><polyline class="cls-9" points="749.24583354148308 198.695518356168577 747.672628238931793 197.796527567229532 747.672628238931793 177.906380177038045"/><polyline class="cls-9" points="769.585476326141361 161.668380485399211 769.529272731278979 162.398836698003834 769.360738154942737 163.185458401339019 769.023592794008437 163.972042000544207 768.686485537207773 164.758663703884849 768.180805599933592 165.489119916487653 767.61892206779703 166.107168939358417 767.057076639797742 166.669014367363161 766.43902761692334 167.062325219031663"/><line class="cls-9" x1="764.865784210245693" y1="166.163334430092618" x2="766.43902761692334" y2="167.062325219031663"/><polyline class="cls-9" points="766.43902761692334 158.07245543377303 767.057076639797742 157.791513667704749 767.61892206779703 157.622940987236689 768.180805599933592 157.679144582104527 768.686485537207773 157.847679158440769 769.023592794008437 158.12862092450905 769.360738154942737 158.634300861775955 769.529272731278979 159.196184393912517 769.585476326141361 159.870437011652939"/><polyline class="cls-9" points="744.526141425587412 174.310417021276407 744.638510511182176 173.579998912807241 744.807083191653874 172.793377209470236 745.088024957723974 172.006755506127774 745.481335809392476 171.220171906924406 745.930812151791542 170.489715694317965 746.492695683931743 169.87166667144902 747.054541111932849 169.309821243446095 747.672628238931793 168.860306796911573"/><polyline class="cls-9" points="746.09938483226324 167.961316007972528 745.481335809392476 168.410830454508869 744.919452277255914 168.972675882509975 744.357606849251169 169.590724905382558 743.90809240271301 170.321181117985361 743.514781551040869 171.107802821322366 743.233839784974407 171.894386420529372 743.065305208634527 172.681008123868196 743.009101613772145 173.411426232341"/><polyline class="cls-9" points="767.113242130524668 156.948688369499905 766.607562193261401 156.780153793167301 766.101882255992678 156.723950198299462 765.483833233114638 156.836319283899684 764.865784210245693 157.173464644833984"/><line class="cls-9" x1="767.113242130524668" y1="156.948688369499905" x2="768.686485537207773" y2="157.847679158440769"/><polyline class="cls-9" points="768.967427303274235 190.211309456114577 768.405543771137673 190.492232170116949 767.78749474826509 190.66080485058319 767.225611216130346 190.604620307781261 766.776134873729461 190.43604762731502 766.38282402205914 190.098940370514356 766.101882255992678 189.649444976043924 765.933347679656436 189.087561443909181 765.877144084788597 188.413327878238306"/><polyline class="cls-9" points="764.303900678110949 187.514337089295623 764.360104272976969 188.188589707032406 764.528676953441391 188.750454187106698 764.809580615383311 189.199949581575311 765.202891467051813 189.537056838374156"/><line class="cls-9" x1="765.202891467051813" y1="189.537056838374156" x2="766.776134873729461" y2="190.43604762731502"/><line class="cls-9" x1="765.877144084788597" y1="186.615346300356578" x2="765.877144084788597" y2="188.413327878238306"/><line class="cls-9" x1="764.303900678110949" y1="185.716355511417532" x2="764.303900678110949" y2="187.514337089295623"/><line class="cls-9" x1="770.540670709950064" y1="211.000428583182838" x2="786.216786869452335" y2="201.954355203056366"/><line class="cls-9" x1="790.880275390483803" y1="173.973309764475744" x2="790.880275390483803" y2="172.175328186599472"/><line class="cls-9" x1="787.733826681262144" y1="170.377346608719563" x2="768.967427303274235" y2="181.165236075991743"/><line class="cls-9" x1="786.216786869452335" y1="169.422190329046316" x2="767.450387491464426" y2="180.26624528704906"/><polyline class="cls-9" points="768.967427303274235 190.211309456114577 768.967427303274235 184.817364722480306 770.540670709950064 183.918373933541261 770.540670709950064 211.000428583182838"/><polyline class="cls-9" points="786.216786869452335 201.954355203056366 786.216786869452335 174.87230055341297 787.733826681262144 173.973309764475744 787.733826681262144 179.367254498110015"/><polyline class="cls-9" points="770.540670709950064 211.000428583182838 768.967427303274235 210.101437794243793 768.967427303274235 190.211309456114577"/><polyline class="cls-9" points="790.880275390483803 173.973309764475744 790.824109899749601 174.703727872948548 790.655537219279722 175.490349576287372 790.37459545321326 176.276971279622558 789.981284601539301 177.0635929829632 789.475604664272396 177.794011091434186 788.969924727003672 178.41206011430495 788.351875704134727 178.973943646441512 787.733826681262144 179.367254498110015"/><line class="cls-9" x1="786.216786869452335" y1="178.468263709172788" x2="787.733826681262144" y2="179.367254498110015"/><polyline class="cls-9" points="787.733826681262144 170.377346608719563 788.351875704134727 170.09640484265492 788.969924727003672 169.927870266318678 789.475604664272396 169.984035757051061 789.981284601539301 170.152608437517301 790.37459545321326 170.433550203585582 790.655537219279722 170.939230140856125 790.824109899749601 171.50107556886087 790.880275390483803 172.175328186599472"/><polyline class="cls-9" points="765.877144084788597 186.615346300356578 765.933347679656436 185.88492819188923 766.101882255992678 185.098306488548587 766.38282402205914 184.311684785209764 766.776134873729461 183.525082133936849 767.225611216130346 182.794644973401773 767.78749474826509 182.17659595052919 768.405543771137673 181.614712418392628 768.967427303274235 181.165236075991743"/><polyline class="cls-9" points="767.450387491464426 180.26624528704906 766.832338468593662 180.715721629453583 766.214251341592899 181.277605161591964 765.708571404320537 181.89565418445909 765.202891467051813 182.626091345001441 764.809580615383311 183.412693996270718 764.528676953441391 184.199315699611361 764.360104272976969 184.985937402944728 764.303900678110949 185.716355511417532"/><polyline class="cls-9" points="788.408079298998928 169.253617648578256 787.958564852462587 169.028879477377814 787.396719424456023 169.028879477377814 786.778632297458898 169.141248562979854 786.216786869452335 169.422190329046316"/><line class="cls-9" x1="788.408079298998928" y1="169.253617648578256" x2="789.981284601539301" y2="170.152608437517301"/><polyline class="cls-9" points="67.28466479956478 78.556444629543876 67.986004280488487 79.025767108798391 68.687343761410375 79.593889912240229 69.340333099922645 80.236117146696415 69.969114565234122 80.977153081087636 70.57372095934079 81.792285070741855 71.105769337833408 82.656825598239266 71.565276101713607 83.546066206784417 71.952224849979757 84.484706977420501 72.266615582637314 85.398647667008845 72.484273228474194 86.312584168727881 72.629389259700474 87.226524858316225 72.677755803108084 88.066361116893859"/><line class="cls-9" x1="72.677755803108084" y1="88.066361116893859" x2="75.362205568779245" y2="86.485493111802498"/><polyline class="cls-9" points="75.362205568779245 86.485493111802498 75.313839025369816 85.620956772178033 75.192914466349976 84.731716163633791 74.951081749304649 83.817775474042719 74.636674615652737 82.879134703406635 74.249725867382949 81.9651940138192 73.790235504502562 81.075957593146995 73.258170725011951 80.211417065648675 72.677755803108084 79.396280888119691 72.048957936798615 78.655249141605054 71.371809928079529 77.988321826102037 70.67045404615601 77.420194834785434 69.969114565234122 76.950872355530009"/><line class="cls-9" x1="67.28466479956478" y1="78.556444629543876" x2="69.969114565234122" y2="76.950872355530009"/><line class="cls-9" x1="72.677755803108084" y1="91.252801395999086" x2="72.677755803108084" y2="88.066361116893859"/><line class="cls-9" x1="75.362205568779245" y1="89.671933390906815" x2="75.362205568779245" y2="86.485493111802498"/><line class="cls-9" x1="64.600215033888162" y1="38.837101975119367" x2="37.658951488363527" y2="22.954296553810309"/><line class="cls-9" x1="29.581410719143605" y1="62.673647583983438" x2="29.581410719143605" y2="65.83538359416616"/><line class="cls-9" x1="34.974501722694185" y1="75.370004350439558" x2="67.28466479956478" y2="94.414541594058392"/><line class="cls-9" x1="67.28466479956478" y1="37.256229782151422" x2="40.367584525740313" y2="21.373432736591894"/><line class="cls-9" x1="75.362205568779245" y1="89.671933390906815" x2="72.677755803108084" y2="91.252801395999086"/><polyline class="cls-9" points="34.974501722694185 75.370004350439558 34.273154041269663 74.900686059055261 33.571814560345956 74.332559067740476 32.918833422332682 73.665631752238369 32.265860484818404 72.924595817847148 31.685437362415541 72.13416390923976 31.153388983921104 71.269623381742349 30.693882220044543 70.355682692152186 30.306941672271932 69.441742002561114 29.992542739119017 68.50310123192321 29.774885093280318 67.589160542335776 29.629777262553034 66.69992412166448 29.581410719143605 65.83538359416616"/><polyline class="cls-9" points="72.677755803108084 91.252801395999086 72.629389259700474 92.043237492481239 72.484273228474194 92.784269238998604 72.266615582637314 93.451200742373658 71.952224849979757 93.994623464770484 71.565276101713607 94.46394385008989 71.105769337833408 94.809759642299468 70.57372095934079 95.056770922450596 69.969114565234122 95.155575434510865 69.340333099922645 95.155575434510865 68.687343761410375 95.032068747466838 67.986004280488487 94.78505746731571 67.28466479956478 94.414541594058392"/><polyline class="cls-9" points="73.790235504502562 93.228889543269361 74.249725867382949 92.883073751058873 74.636674615652737 92.413755459679123 74.951081749304649 91.84562846836252 75.192914466349976 91.203401233905424 75.313839025369816 90.462369487390788 75.362205568779245 89.671933390906815"/><line class="cls-9" x1="73.790235504502562" y1="93.228889543269361" x2="71.105769337833408" y2="94.809759642299468"/><polyline class="cls-9" points="67.28466479956478 78.556444629543876 67.28466479956478 88.066361116893859 64.600215033888162 86.485493111802498 64.600215033888162 38.837101975119367"/><polyline class="cls-9" points="37.658951488363527 22.954296553810309 37.658951488363527 70.602696066241151 34.974501722694185 69.021823873272297 34.974501722694185 59.487207304877302"/><line class="cls-9" x1="67.28466479956478" y1="37.256229782151422" x2="67.28466479956478" y2="78.556444629543876"/><line class="cls-9" x1="64.600215033888162" y1="86.485493111802498" x2="67.28466479956478" y2="84.90462510670659"/><line class="cls-9" x1="64.600215033888162" y1="38.837101975119367" x2="67.28466479956478" y2="37.256229782151422"/><line class="cls-9" x1="34.974501722694185" y1="69.021823873272297" x2="37.658951488363527" y2="67.440955868181845"/><line class="cls-9" x1="40.367584525740313" y1="21.373432736591894" x2="37.658951488363527" y2="22.954296553810309"/><polyline class="cls-9" points="29.581410719143605 62.673647583983438 29.629777262553034 61.858511406452635 29.774885093280318 61.117479659937999 29.992542739119017 60.475248237608866 30.306941672271932 59.907125434167028 30.693882220044543 59.462507223831381 31.153388983921104 59.091989256635316 31.685437362415541 58.869680151466127 32.265860484818404 58.746175558360846 32.918833422332682 58.746175558360846 33.571814560345956 58.894380232515687 34.273154041269663 59.141389418728977 34.974501722694185 59.487207304877302"/><polyline class="cls-9" points="37.658951488363527 57.906335111911176 36.957612007443458 57.53581714471602 36.280447597719103 57.288807958500001 35.603291388502839 57.165307553267667 34.974501722694185 57.165307553267667 34.394078600289504 57.288807958500001 33.862022021297889 57.51111706366828"/><line class="cls-9" x1="37.658951488363527" y1="57.906335111911176" x2="34.974501722694185" y2="59.487207304877302"/><line class="cls-9" x1="31.153388983921104" y1="59.091989256635316" x2="33.862022021297889" y2="57.51111706366828"/><polyline class="cls-4" points="119.885577809758615 84.939415726543302 119.920488806441426 85.99134141018385 120.02522179648804 87.007610030624164 120.217238197363258 87.95255847905446 120.461627012388817 88.844021332683042 120.775837820774541 89.681998591524462 121.159882460775407 90.430827146749834 121.613737255889646 91.108335529963369 122.119964465156954 91.714529786783714 122.678564088566418 92.213752854017002 123.306985705341503 92.641649703616167"/><polyline class="cls-4" points="134.461504917857383 93.533112557247478 133.553783489373927 94.032335624479856 132.64606206089411 94.442409988098007 131.738340632411564 94.763335648109205 130.865530200611829 94.977284072909242 130.010181186280533 95.11991837131427 129.172281751163609 95.155575434510865 128.369293312729496 95.102089839714608 127.618677288442996 94.941627009709009 126.885510843367229 94.709844007694301 126.222178229911151 94.371089816086169 125.593756613138794 93.943186920868357 125.035156989724783 93.426141367657692 124.528929780459293 92.837775642437009 124.075063147096444 92.160261213600279 123.691030345344188 91.393604126775244 123.376819536955736 90.573461445156681 123.132430721931087 89.681998591524462 122.940414321057688 88.719215565878585 122.835669492760644 87.720775477037023 122.800758496076924 86.651021261799542"/><line class="cls-4" x1="122.800758496076924" y1="86.651021261799542" x2="119.885577809758615" y2="84.939415726543302"/><line class="cls-4" x1="126.222178229911151" y1="94.371089816086169" x2="123.306985705341503" y2="92.641649703616167"/><line class="cls-4" x1="119.885577809758615" y1="84.939415726543302" x2="119.885577809758615" y2="40.241461232455549"/><polyline class="cls-4" points="134.461504917857383 31.629935870152622 119.885577809758615 40.241461232455549 122.800758496076924 41.953072813326798 122.800758496076924 86.651021261799542"/><line class="cls-4" x1="137.376697442425211" y1="33.359369937005795" x2="122.800758496076924" y2="41.953072813326798"/><line class="cls-4" x1="146.139712757103553" y1="79.786758497945812" x2="146.139712757103553" y2="76.34571285022048"/><line class="cls-4" x1="134.461504917857383" y1="93.533112557247478" x2="140.291878128748067" y2="90.092066909524874"/><polyline class="cls-4" points="141.513822203864038 70.765152726405177 141.025044573816558 70.533375770004568 140.483906367872805 70.408570003201021 139.907845326993993 70.372912940002607 139.314334706903537 70.426398534798864 138.685913090126633 70.586861364801734 138.040030055884927 70.836472898418833 137.376697442425211 71.175227090027875"/><polyline class="cls-4" points="140.291878128748067 72.904667202495148 140.955222580454574 72.565906965268368 141.601093776442212 72.316301477270827 142.229527231469547 72.155838647270684 142.823037851561821 72.084518475257028 143.399087054189295 72.120175538450894 143.940225260133957 72.262809836857741 144.429002890183256 72.476764307275516 144.865408106084942 72.797689967286715 145.231991328619188 73.207764330906684 145.54620213700764 73.689152820917116 145.808040531243932 74.259690014544503 145.982607352907507 74.901541334560534 146.087340342952302 75.596884294997835 146.139712757103553 76.34571285022048"/><line class="cls-4" x1="140.291878128748067" y1="72.904667202495148" x2="137.376697442425211" y2="71.175227090027875"/><line class="cls-4" x1="141.513822203864038" y1="70.765152726405177" x2="144.429002890183256" y2="72.476764307275516"/><line class="cls-4" x1="137.376697442425211" y1="33.359369937005795" x2="134.461504917857383" y2="31.629935870152622"/><polyline class="cls-4" points="140.291878128748067 72.904667202495148 140.291878128748067 83.209975614073301 137.376697442425211 84.939415726543302 137.376697442425211 33.359369937005795"/><line class="cls-4" x1="140.291878128748067" y1="83.209975614073301" x2="137.376697442425211" y2="81.498364033198413"/><polyline class="cls-4" points="146.139712757103553 79.786758497945812 146.087340342952302 80.571244116369598 145.982607352907507 81.391392843608628 145.808040531243932 82.247198634045162 145.54620213700764 83.102998378864868 145.231991328619188 83.958804169299583 144.865408106084942 84.814609959738846 144.429002890183256 85.652581172955252 143.940225260133957 86.454901368598257 143.399087054189295 87.20372992382454 142.823037851561821 87.916901415857865 142.229527231469547 88.576581267470829 141.601093776442212 89.164946992693331 140.955222580454574 89.664164014304333 140.291878128748067 90.092066909524874"/><path class="cls-12" d="m95.54654181337537,68.291586504482439c0,2.146484375-1.45703125,3.08203125-2.83154296875,3.08203125-1.5390625,0-2.72607421875-1.1513671875-2.72607421875-2.986328125,0-1.94287109375,1.24560546875-3.08203125,2.81982421875-3.08203125,1.63330078125,0,2.73779296875,1.2109375,2.73779296875,2.986328125Zm-4.51171875.0595703125c0,1.271484375.716796875,2.23095703125,1.72705078125,2.23095703125.98681640625,0,1.72705078125-.947265625,1.72705078125-2.2548828125,0-.9833984375-.4814453125-2.23046875-1.70361328125-2.23046875-1.2216796875,0-1.75048828125,1.1513671875-1.75048828125,2.25439453125Z"/><path class="cls-12" d="m96.85074103212537,67.248129473232439c0-.68359375-.01171875-1.271484375-.04736328125-1.81103515625h.90478515625l.03515625,1.13916015625h.04736328125c.25830078125-.779296875.880859375-1.27099609375,1.57421875-1.27099609375.11767578125,0,.19970703125.01171875.29345703125.03564453125v.99560546875c-.10546875-.02392578125-.21142578125-.0361328125-.35205078125-.0361328125-.728515625,0-1.24560546875.56396484375-1.38671875,1.35546875-.0234375.14404296875-.046875.3115234375-.046875.49169921875v3.09423828125h-1.02197265625v-3.99365234375Z"/><line class="cls-1" x1="134.946779850484745" y1="268.215750322841814" x2="135.946779850484745" y2="268.219381914638689"/><line class="cls-8" x1="138.03164923525037" y1="268.226980791591814" x2="141.158938053609745" y2="268.238363848232439"/><line class="cls-1" x1="142.201372745992558" y1="268.242148027919939" x2="143.201372745992558" y2="268.245779619716814"/><line class="cls-1" x1="46.175760868551151" y1="267.892904863857439" x2="47.175757053853886" y2="267.896536455654314"/><line class="cls-7" x1="49.260618809224979" y1="267.904135332607439" x2="52.387915256978886" y2="267.915487871669939"/><polyline class="cls-1" points="53.430346134664433 267.919302568935564 54.430338505269901 267.922934160732439 54.433973911764042 266.922934160732439"/><line class="cls-2" x1="54.441080692769901" y1="264.969290361904314" x2="54.664896610738651" y2="203.429770098232439"/><line class="cls-1" x1="54.668448093892948" y1="202.452963457607439" x2="54.672087315084354" y2="201.452963457607439"/><line class="cls-3" x1="49.678297642232792" y1="201.434805498623064" x2="49.685183170797245" y2="199.542166338466814"/><line class="cls-3" x1="140.189211491109745" y1="199.871328936123064" x2="140.182329777242558" y2="201.763968096279314"/><line class="cls-1" x1="135.188540104390995" y1="201.745810137294939" x2="135.184893253805058" y2="202.745779619716814"/><line class="cls-2" x1="135.177797916890995" y1="204.699423418544939" x2="134.953981998922245" y2="266.238943682216814"/><line class="cls-1" x1="134.950426701070683" y1="267.215750322841814" x2="134.946779850484745" y2="268.215750322841814"/><line class="cls-1" x1="54.672087315084354" y1="201.452963457607439" x2="53.67209112978162" y2="201.449331865810564"/><line class="cls-1" x1="50.678290012838261" y1="201.438437090419939" x2="49.678297642232792" y2="201.434805498623064"/><line class="cls-1" x1="49.685183170797245" y1="199.542166338466814" x2="50.685175541402714" y2="199.545828447841814"/><line class="cls-10" x1="52.651930454732792" y1="199.552969561123064" x2="138.20584357118787" y2="199.864126787685564"/><line class="cls-1" x1="139.189226749898808" y1="199.867697344326189" x2="140.189211491109745" y2="199.871328936123064"/><line class="cls-1" x1="140.182329777242558" y1="201.763968096279314" x2="139.182329777242558" y2="201.760336504482439"/><line class="cls-1" x1="136.188524845601933" y1="201.749441729091814" x2="135.188540104390995" y2="201.745810137294939"/><path class="cls-12" d="m170.01431525087537,83.369223223232439l.89697265625,1.3525390625c.234375.3505859375.42919921875.67578125.63720703125,1.02685546875h.0390625c.2080078125-.376953125.416015625-.7021484375.6240234375-1.0400390625l.8837890625-1.33935546875h1.2353515625l-2.14501953125,3.04248046875,2.2099609375,3.25h-1.30029296875l-.9228515625-1.4169921875c-.2470703125-.3642578125-.455078125-.71533203125-.67578125-1.09228515625h-.0263671875c-.2080078125.376953125-.4287109375.71533203125-.6630859375,1.09228515625l-.90966796875,1.4169921875h-1.26123046875l2.236328125-3.2109375-2.13232421875-3.08154296875h1.27392578125Z"/><path class="cls-12" d="m177.89224493837537,89.661703691982439v-.7021484375l.89697265625-.87109375c2.158203125-2.0537109375,3.13330078125-3.14599609375,3.14599609375-4.419921875,0-.85791015625-.416015625-1.65087890625-1.6767578125-1.65087890625-.76708984375,0-1.404296875.3896484375-1.7939453125.71484375l-.3642578125-.80615234375c.5849609375-.494140625,1.4169921875-.85791015625,2.39208984375-.85791015625,1.8203125,0,2.58740234375,1.248046875,2.58740234375,2.45703125,0,1.56005859375-1.13134765625,2.8212890625-2.912109375,4.537109375l-.67626953125.6240234375v.02587890625h3.79638671875v.94921875h-5.3955078125Z"/><path class="cls-5" d="m632.06228888368787,194.090719805263689c-1.58392333984375-7.65802001953125-8.1053466796875-13.5650634765625-16.17901611328125-13.94818115234375-9.58856201171875-.4549560546875-17.73541259765625,7.0538330078125-18.196533203125,16.77142333984375"/><polygon class="cls-11" points="634.52926886415662 191.737509356044939 631.88083136415662 193.183737383388689 629.00131476259412 192.281454668544939 632.41000616884412 198.561575518154314 634.52926886415662 191.737509356044939"/><line class="cls-6" x1="269.42856085634412" y1="216.924337969326189" x2="310.98721564150037" y2="216.924337969326189"/><polygon class="cls-12" points="308.88077032900037 219.701681719326189 310.06070196962537 216.924337969326189 308.88077032900037 214.146994219326189 315.46451056337537 216.924337969326189 308.88077032900037 219.701681719326189"/><path class="cls-12" d="m97.40640509462537,124.313070879482439v5.7265625h5.5068359375v1.4619140625h-5.5068359375v5.775390625h-1.5595703125v-5.775390625h-5.5078125v-1.4619140625h5.5078125v-5.7265625h1.5595703125Z"/></svg>