<?xml version="1.0" encoding="UTF-8"?><svg id="Layer_1" xmlns="http://www.w3.org/2000/svg" viewBox="0 0 841.889832 595.275574"><defs><style>.cls-1,.cls-2,.cls-3,.cls-4,.cls-5,.cls-6,.cls-7,.cls-8{stroke-miterlimit:10;}.cls-1,.cls-2,.cls-3,.cls-4,.cls-5,.cls-7{stroke:#1d1e1c;}.cls-1,.cls-4,.cls-5,.cls-6{fill:#fff;}.cls-2,.cls-5{stroke-width:4px;}.cls-2,.cls-7,.cls-8,.cls-9{fill:#1d1e1c;}.cls-3{fill:#e42528;}.cls-3,.cls-6{stroke-width:2px;}.cls-4,.cls-8{stroke-width:.25px;}.cls-6,.cls-8{stroke:#fff;}.cls-10{fill:#676767;}</style></defs><circle class="cls-1" cx="414.897333" cy="185.290825" r="32.675159"/><path class="cls-4" d="M405.947775,180.831243h17.930413c.350019,0,.635709.322363.642708.725209l.029453,1.695252c.008334.479674-.129684.94753-.390039,1.322167l-.88253,1.269914c-.021583.031057-.033341.069644-.033341.109416v2.563704c0,.681244-.479741,1.233502-1.071531,1.233502h-14.56183c-.59179,0-1.071531-.552257-1.071531-1.233502v-2.379784c0-.036172-.009728-.071456-.027849-.101007l-.941656-1.53566c-.226502-.369381-.340618-.814572-.3246-1.266332l.06003-1.693054c.014063-.396624.297471-.709827.642302-.709827Z"/><path class="cls-4" d="M407.578896,182.355992h14.744566c.287828,0,.522757.222798.528512.501222l.02422,1.171658c.006853.331522-.106642.654877-.320737.913804l-.725723.87769c-.017748.021465-.027417.048134-.027417.075622v1.771881c0,.470836-.394501.852523-.881143.852523h-11.974507c-.486642,0-.881143-.381688-.881143-.852523v-1.644766c0-.025-.008-.049386-.022901-.06981l-.774344-1.061357c-.186257-.255294-.280098-.562984-.266926-.875214l.049364-1.170139c.011564-.274123.244617-.490591.528178-.490591Z"/><rect class="cls-2" x="309.242964" y="373.726093" width="54.549803" height="119.179461" rx="5.044586" ry="5.044586"/><rect class="cls-8" x="317.247555" y="383.213016" width="38.540622" height="11.858653"/><rect class="cls-8" x="317.247555" y="397.739866" width="38.540622" height="15.712715"/><circle class="cls-8" cx="336.517866" cy="459.701327" r="8.301057"/><circle class="cls-6" cx="336.517866" cy="459.701327" r="4.368977"/><rect class="cls-5" x="379.768017" y="371.354363" width="150.011959" height="93.090425"/><rect class="cls-9" x="441.433011" y="465.037721" width="26.681969" height="31.42543"/><polygon class="cls-7" points="454.773996 479.997676 431.696059 496.463151 477.851933 496.463151 454.773996 479.997676"/><line class="cls-3" x1="410.529904" y1="241.953964" x2="410.529904" y2="337.567017"/><path class="cls-10" d="M428.868164,241.935059v5.588867c0,2.115234.938477,3.011719,2.199219,3.011719,1.400391,0,2.296875-.923828,2.296875-3.011719v-5.588867h1.233398v5.504883c0,2.900391-1.527344,4.09082-3.572266,4.09082-1.932617,0-3.389648-1.106445-3.389648-4.03418v-5.561523h1.232422Z"/><path class="cls-10" d="M436.539062,249.89209c.545898.335938,1.344727.616211,2.185547.616211,1.246094,0,1.974609-.658203,1.974609-1.611328,0-.882812-.503906-1.386719-1.779297-1.876953-1.540039-.545898-2.493164-1.344727-2.493164-2.675781,0-1.470703,1.21875-2.5625,3.053711-2.5625.966797,0,1.666992.223633,2.086914.461914l-.335938.994141c-.307617-.167969-.938477-.448242-1.792969-.448242-1.288086,0-1.77832.770508-1.77832,1.415039,0,.882812.574219,1.316406,1.876953,1.821289,1.59668.616211,2.40918,1.386719,2.40918,2.773438,0,1.457031-1.079102,2.716797-3.305664,2.716797-.911133,0-1.905273-.265625-2.410156-.601562l.308594-1.022461Z"/><path class="cls-10" d="M443.609375,242.061035c.532227-.111328,1.373047-.195312,2.227539-.195312,1.21875,0,2.00293.209961,2.59082.685547.490234.364258.785156.924805.785156,1.666992,0,.911133-.602539,1.708984-1.597656,2.073242v.02832c.896484.223633,1.947266.966797,1.947266,2.367188,0,.8125-.322266,1.428711-.797852,1.890625-.65918.602539-1.723633.882812-3.263672.882812-.84082,0-1.485352-.055664-1.891602-.112305v-9.287109ZM444.828125,245.927246h1.106445c1.289062,0,2.044922-.671875,2.044922-1.583008,0-1.106445-.839844-1.540039-2.073242-1.540039-.55957,0-.881836.041992-1.078125.083984v3.039062ZM444.828125,250.45166c.238281.041992.587891.056641,1.022461.056641,1.260742,0,2.423828-.462891,2.423828-1.834961,0-1.289062-1.107422-1.821289-2.4375-1.821289h-1.008789v3.599609Z"/><path class="cls-10" d="M462.121094,247.22998c-.069336-1.316406-.15332-2.899414-.139648-4.076172h-.041992c-.322266,1.106445-.714844,2.283203-1.19043,3.585938l-1.666992,4.581055h-.924805l-1.526367-4.49707c-.448242-1.330078-.827148-2.548828-1.092773-3.669922h-.02832c-.02832,1.176758-.097656,2.759766-.181641,4.174805l-.25293,4.047852h-1.162109l.658203-9.441406h1.554688l1.611328,4.566406c.391602,1.163086.713867,2.199219.952148,3.179688h.041992c.238281-.952148.574219-1.988281.995117-3.179688l1.680664-4.566406h1.554688l.587891,9.441406h-1.19043l-.238281-4.146484Z"/><path class="cls-10" d="M466.919922,242.691895c.013672.419922-.293945.755859-.78418.755859-.43457,0-.743164-.335938-.743164-.755859,0-.43457.322266-.770508.770508-.770508.462891,0,.756836.335938.756836.770508ZM465.546875,251.376465v-6.779297h1.232422v6.779297h-1.232422Z"/><path class="cls-10" d="M468.822266,246.432129c0-.701172-.013672-1.275391-.055664-1.834961h1.092773l.069336,1.120117h.02832c.335938-.644531,1.120117-1.274414,2.241211-1.274414.938477,0,2.395508.560547,2.395508,2.885742v4.047852h-1.233398v-3.908203c0-1.092773-.405273-2.00293-1.568359-2.00293-.8125,0-1.442383.574219-1.65332,1.260742-.055664.154297-.083984.364258-.083984.574219v4.076172h-1.232422v-4.944336Z"/><path class="cls-10" d="M477.96582,242.691895c.013672.419922-.293945.755859-.78418.755859-.43457,0-.743164-.335938-.743164-.755859,0-.43457.322266-.770508.770508-.770508.462891,0,.756836.335938.756836.770508ZM476.592773,251.376465v-6.779297h1.232422v6.779297h-1.232422Z"/><path class="cls-10" d="M435.032227,326.832031v5.588867c0,2.115234.938477,3.011719,2.199219,3.011719,1.400391,0,2.296875-.923828,2.296875-3.011719v-5.588867h1.233398v5.504883c0,2.900391-1.527344,4.09082-3.572266,4.09082-1.932617,0-3.389648-1.106445-3.389648-4.03418v-5.561523h1.232422Z"/><path class="cls-10" d="M442.703125,334.789062c.545898.335938,1.344727.616211,2.185547.616211,1.246094,0,1.974609-.658203,1.974609-1.611328,0-.882812-.503906-1.386719-1.779297-1.876953-1.540039-.545898-2.493164-1.344727-2.493164-2.675781,0-1.470703,1.21875-2.5625,3.053711-2.5625.966797,0,1.666992.223633,2.086914.461914l-.335938.994141c-.307617-.167969-.938477-.448242-1.792969-.448242-1.288086,0-1.77832.770508-1.77832,1.415039,0,.882812.574219,1.316406,1.876953,1.821289,1.59668.616211,2.40918,1.386719,2.40918,2.773438,0,1.457031-1.079102,2.716797-3.305664,2.716797-.911133,0-1.905273-.265625-2.410156-.601562l.308594-1.022461Z"/><path class="cls-10" d="M449.773438,326.958008c.532227-.111328,1.373047-.195312,2.227539-.195312,1.21875,0,2.00293.209961,2.59082.685547.490234.364258.785156.924805.785156,1.666992,0,.911133-.602539,1.708984-1.597656,2.073242v.02832c.896484.223633,1.947266.966797,1.947266,2.367188,0,.8125-.322266,1.428711-.797852,1.890625-.65918.602539-1.723633.882812-3.263672.882812-.84082,0-1.485352-.055664-1.891602-.112305v-9.287109ZM450.992188,330.824219h1.106445c1.289062,0,2.044922-.671875,2.044922-1.583008,0-1.106445-.839844-1.540039-2.073242-1.540039-.55957,0-.881836.041992-1.078125.083984v3.039062ZM450.992188,335.348633c.238281.041992.587891.056641,1.022461.056641,1.260742,0,2.423828-.462891,2.423828-1.834961,0-1.289062-1.107422-1.821289-2.4375-1.821289h-1.008789v3.599609Z"/><path class="cls-10" d="M461.772461,327.546875v1.947266h1.764648v.938477h-1.764648v3.655273c0,.84082.237305,1.317383.923828,1.317383.322266,0,.560547-.041992.714844-.083984l.055664.923828c-.238281.098633-.616211.167969-1.092773.167969-.574219,0-1.036133-.181641-1.330078-.517578-.350586-.364258-.476562-.966797-.476562-1.765625v-3.697266h-1.050781v-.938477h1.050781v-1.625l1.205078-.322266Z"/><path class="cls-10" d="M465.495117,329.494141l1.485352,4.005859c.15332.448242.321289.980469.433594,1.386719h.02832c.125977-.40625.265625-.924805.43457-1.415039l1.344727-3.977539h1.301758l-1.848633,4.832031c-.882812,2.325195-1.484375,3.516602-2.325195,4.244141-.602539.532227-1.205078.743164-1.512695.798828l-.308594-1.036133c.308594-.098633.714844-.294922,1.079102-.602539.335938-.266602.755859-.742188,1.036133-1.373047.056641-.125977.098633-.223633.098633-.293945s-.02832-.167969-.083984-.322266l-2.507812-6.24707h1.344727Z"/><path class="cls-10" d="M471.640625,331.707031c0-.868164-.02832-1.569336-.055664-2.212891h1.106445l.055664,1.162109h.02832c.503906-.826172,1.302734-1.316406,2.40918-1.316406,1.638672,0,2.87207,1.386719,2.87207,3.445312,0,2.4375-1.485352,3.642578-3.082031,3.642578-.896484,0-1.680664-.392578-2.086914-1.064453h-.02832v3.683594h-1.21875v-7.339844ZM472.859375,333.513672c0,.182617.02832.350586.055664.504883.224609.854492.966797,1.442383,1.849609,1.442383,1.302734,0,2.058594-1.064453,2.058594-2.619141,0-1.359375-.713867-2.521484-2.016602-2.521484-.84082,0-1.625.602539-1.863281,1.526367-.041992.154297-.083984.336914-.083984.504883v1.162109Z"/><path class="cls-10" d="M480.292969,333.107422c.02832,1.666992,1.092773,2.353516,2.325195,2.353516.882812,0,1.415039-.154297,1.876953-.350586l.209961.882812c-.433594.196289-1.176758.419922-2.254883.419922-2.086914,0-3.333984-1.37207-3.333984-3.416992,0-2.045898,1.205078-3.65625,3.179688-3.65625,2.212891,0,2.801758,1.947266,2.801758,3.193359,0,.251953-.02832.448242-.041992.574219h-4.762695ZM483.907227,332.225586c.013672-.785156-.322266-2.003906-1.708984-2.003906-1.24707,0-1.792969,1.149414-1.891602,2.003906h3.600586Z"/><path class="cls-10" d="M489.870117,332.029297v.910156h-3.459961v-.910156h3.459961Z"/><path class="cls-10" d="M492.823242,333.303711l-.980469,2.969727h-1.260742l3.207031-9.441406h1.470703l3.22168,9.441406h-1.301758l-1.008789-2.969727h-3.347656ZM495.918945,332.351562l-.924805-2.717773c-.209961-.616211-.350586-1.176758-.490234-1.722656h-.02832c-.139648.560547-.293945,1.134766-.476562,1.708984l-.923828,2.731445h2.84375Z"/></svg>