<?xml version="1.0" encoding="UTF-8"?><svg id="Layer_1" xmlns="http://www.w3.org/2000/svg" viewBox="0 0 841.88983154296875 595.27557373046875"><defs><style>.cls-1{fill:#d2155b;}.cls-2{stroke:#d2155b;stroke-dasharray:0 0 3 3;stroke-width:.5px;}.cls-2,.cls-3{fill:none;stroke-linecap:round;stroke-linejoin:round;}.cls-3{stroke:#000;stroke-width:.25px;}</style></defs><line class="cls-2" x1="363.813796997070312" y1="97.064529418945312" x2="459.7464599609375" y2="40.395416259765625"/><polygon class="cls-1" points="459.47906494140625 42.703842163085938 459.214630126953125 40.709564208984375 457.59564208984375 39.51544189453125 462.31640625 38.877288818359375 459.47906494140625 42.703842163085938"/><polyline class="cls-3" points="651.027139205729327 105.224095345973183 647.295633033349077 107.3845251429575 647.295633033349077 401.97326578504908 651.027139205729327 399.812969175274702 651.027139205729327 105.224095345973183"/><polyline class="cls-3" points="647.295633033349077 107.3845251429575 476.434151474084501 8.795486970540878 476.434151474084501 303.384227612634277 647.295633033349077 401.97326578504908"/><polyline class="cls-3" points="476.434151474084501 8.795486970540878 480.16559105286251 6.635057173552923 651.027139205729327 105.224095345973183"/><polyline class="cls-3" points="356.005488269978741 263.412905866085566 352.338478716468671 261.263269226479679 352.338478716468671 586.490879917322673 356.005488269978741 588.640516556915827 356.005488269978741 263.412905866085566"/><polyline class="cls-3" points="352.338478716468671 261.263269226479679 500.284160093890023 175.90993873708976 503.824768354619664 177.933131206948019 503.824768354619664 503.160784774752756"/><line class="cls-3" x1="503.824768354619664" y1="177.933131206948019" x2="356.005488269978741" y2="263.412905866085566"/><line class="cls-3" x1="356.005488269978741" y1="588.640516556915827" x2="503.824768354619664" y2="503.160784774752756"/><line class="cls-3" x1="335.2678297693692" y1="246.595102381519609" x2="335.2678297693692" y2="251.526639386423994"/><polyline class="cls-3" points="273.68698936234432 398.840099915118117 273.560545192594873 400.357515705991318 273.181212683359263 401.874888619906415 272.548948957670291 403.392304410785073 271.663818330964205 404.783233154950722 270.652222096035985 406.047717729370561 269.514181691358317 407.185758134042771 268.376119848204326 408.070910199230639 267.238079443524839 408.576686878212058 266.100039038854447 408.70317392492143 265.088442803926227 408.576686878212058 264.203290738740179 408.070910199230639 263.571048451534807 407.3122023037904 263.191715942295559 406.30060606886218 263.065250334062512 404.909677324696531"/><line class="cls-3" x1="270.019979808826974" y1="396.81690744525622" x2="273.68698936234432" y2="398.840099915118117"/><polyline class="cls-3" points="263.31816011203955 406.55353728531918 264.32975634696777 406.174161899114551 265.467796751645437 405.541941050387322 266.479392986571838 404.656788985204912 267.490989221501877 403.518748580527244 268.376119848204326 402.254221129145662 269.134827743639107 400.863292384976376 269.640625861107765 399.472363640812546 269.893514200599384 398.081392019677878 270.019979808826974 396.81690744525622"/><line class="cls-3" x1="263.065250334062512" y1="404.909677324696531" x2="263.065250334062512" y2="396.81690744525622"/><polyline class="cls-3" points="263.065250334062512 396.81690744525622 263.191715942295559 395.42597870109239 263.571048451534807 393.908605787180932 264.203290738740179 392.391189996300454 265.088442803926227 390.873817082388996 266.100039038854447 389.609289631007414 267.238079443524839 388.471249226329746 268.376119848204326 387.712584207858526 269.514181691358317 387.206764651909907 270.652222096035985 386.953876312418288 271.663818330964205 387.080320482164097 272.548948957670291 387.586140038112717 273.181212683359263 388.344805056587575 273.560545192594873 389.482845461257966 273.68698936234432 390.747372912646824"/><polyline class="cls-3" points="270.019979808826974 388.724180442786746 270.019979808826974 387.839028377604336 269.893514200599384 387.080320482164097"/><line class="cls-3" x1="270.019979808826974" y1="388.724180442786746" x2="273.68698936234432" y2="390.747372912646824"/><line class="cls-3" x1="273.68698936234432" y1="390.747372912646824" x2="273.68698936234432" y2="398.840099915118117"/><line class="cls-3" x1="270.019979808826974" y1="396.81690744525622" x2="270.019979808826974" y2="388.724180442786746"/><polyline class="cls-3" points="194.529723329242188 170.219736713715974 190.862692337239423 168.07014295107183 190.862692337239423 493.297753641907548 194.529723329242188 495.320946111765807 194.529723329242188 170.219736713715974"/><polyline class="cls-3" points="190.862692337239423 168.07014295107183 338.808395153144374 82.716855338647292 342.475447583623463 84.74004780850737"/><line class="cls-3" x1="342.475447583623463" y1="409.967658499343088" x2="342.475447583623463" y2="369.377407809377473"/><line class="cls-3" x1="342.475447583623463" y1="84.74004780850737" x2="194.529723329242188" y2="170.219736713715974"/><line class="cls-3" x1="194.529723329242188" y1="495.320946111765807" x2="342.475447583623463" y2="409.967658499343088"/><line class="cls-3" x1="503.824768354619664" y1="178.059618253657391" x2="503.824768354619664" y2="462.570576961752522"/><line class="cls-3" x1="342.742685552986586" y1="85.114176830471479" x2="342.742685552986586" y2="369.751622585275982"/><line class="cls-2" x1="525.87762451171875" y1="176.786834716796875" x2="621.810272216796875" y2="120.117706298828125"/><polygon class="cls-1" points="621.542877197265625 122.426132202148438 621.2784423828125 120.431854248046875 619.659454345703125 119.237747192382812 624.380218505859375 118.599578857421875 621.542877197265625 122.426132202148438"/></svg>