<?xml version="1.0" encoding="UTF-8"?>
<svg id="Layer_1" data-name="Layer 1" xmlns="http://www.w3.org/2000/svg" viewBox="0 0 838.775331 331.507416">
  <g>
    <g>
      <polyline points="42.98268 60.553214 42.157092 60.222993 41.221431 60.002809 40.230734 60.002809 39.240026 60.222993 38.469485 60.553214 37.864053 60.993507 37.533824 61.543911 37.533824 62.149334 37.864053 62.699738 38.469485 63.140031 39.240026 63.525307 40.230734 63.690436 41.221431 63.690436 42.157092 63.525307 42.98268 63.140031 43.588102 62.699738 43.863295 62.149334 43.863295 61.543911 43.588102 60.993507 42.98268 60.553214" style="fill: none; stroke: #000; stroke-linecap: round; stroke-linejoin: round; stroke-width: .5px;"/>
      <polyline points="43.918341 67.543154 43.753222 68.093558 43.31291 68.588907 42.597405 69.0292 41.71678 69.304402 40.726082 69.359458 39.735375 69.304402 38.85476 69.0292 38.139255 68.588907 37.643897 68.093558 37.533824 67.543154" style="fill: none; stroke: #000; stroke-linecap: round; stroke-linejoin: round; stroke-width: .5px;"/>
      <polyline points="93.233224 24.447688 92.407636 24.11743 91.471975 23.952339 90.481278 23.952339 89.49058 24.11743 88.720029 24.447688 88.114606 24.943036 87.784368 25.493403 87.784368 26.043808 88.114606 26.594175 88.720029 27.089523 89.49058 27.419781 90.481278 27.58491 91.471975 27.58491 92.407636 27.419781 93.233224 27.089523 93.838646 26.594175 94.113849 26.043808 94.113849 25.493403 93.838646 24.943036 93.233224 24.447688" style="fill: none; stroke: #000; stroke-linecap: round; stroke-linejoin: round; stroke-width: .5px;"/>
      <polyline points="94.168885 31.437627 94.003775 31.987994 93.563463 32.538399 92.847949 32.923674 91.967324 33.198876 90.976626 33.253894 89.985929 33.198876 89.105304 32.923674 88.38979 32.538399 87.949478 31.987994 87.784368 31.437627" style="fill: none; stroke: #000; stroke-linecap: round; stroke-linejoin: round; stroke-width: .5px;"/>
      <line x1="37.533824" y1="67.543154" x2="37.533824" y2="61.874132" style="fill: none; stroke: #000; stroke-linecap: round; stroke-linejoin: round; stroke-width: .5px;"/>
      <line x1="43.918341" y1="67.543154" x2="43.918341" y2="61.874132" style="fill: none; stroke: #000; stroke-linecap: round; stroke-linejoin: round; stroke-width: .5px;"/>
      <line x1="87.784368" y1="31.437627" x2="87.784368" y2="25.768605" style="fill: none; stroke: #000; stroke-linecap: round; stroke-linejoin: round; stroke-width: .5px;"/>
      <line x1="94.168885" y1="31.437627" x2="94.168885" y2="25.768605" style="fill: none; stroke: #000; stroke-linecap: round; stroke-linejoin: round; stroke-width: .5px;"/>
      <polyline points="22.948503 67.157878 22.948503 68.588907 35.222189 75.633865 35.222189 74.257891 22.948503 67.157878" style="fill: none; stroke: #000; stroke-linecap: round; stroke-linejoin: round; stroke-width: .5px;"/>
      <line x1="96.48052" y1="24.722852" x2="94.168885" y2="26.043808" style="fill: none; stroke: #000; stroke-linecap: round; stroke-linejoin: round; stroke-width: .5px;"/>
      <line x1="87.784368" y1="29.731397" x2="22.948503" y2="67.157878" style="fill: none; stroke: #000; stroke-linecap: round; stroke-linejoin: round; stroke-width: .5px;"/>
      <polyline points="35.222189 75.633865 108.754206 33.198876 108.754206 31.767848 96.48052 24.722852" style="fill: none; stroke: #000; stroke-linecap: round; stroke-linejoin: round; stroke-width: .5px;"/>
      <line x1="35.222189" y1="74.257891" x2="108.754206" y2="31.767848" style="fill: none; stroke: #000; stroke-linecap: round; stroke-linejoin: round; stroke-width: .5px;"/>
    </g>
    <g>
      <path d="M117.779913,46.564652l1.112793,1.677246c.290039.435547.532227.838867.790039,1.274414h.04834c.258301-.467773.516113-.871094.774414-1.290527l1.09668-1.661133h1.532227l-2.661133,3.773926,2.741699,4.032227h-1.612793l-1.14502-1.757812c-.306641-.45166-.564453-.887207-.838867-1.35498h-.032227c-.257812.467773-.532227.887207-.822754,1.35498l-1.128906,1.757812h-1.564453l2.774414-3.983887-2.645508-3.822266h1.581055Z" style="fill: #1d1d1b;"/>
      <path d="M127.55335,54.370804v-.871094l1.113281-1.080566c2.677246-2.54834,3.886719-3.902832,3.902832-5.483398,0-1.064453-.516113-2.04834-2.080566-2.04834-.95166,0-1.741699.483887-2.225586.886719l-.45166-1c.725586-.612793,1.757812-1.064453,2.967773-1.064453,2.257812,0,3.209473,1.54834,3.209473,3.04834,0,1.935547-1.40332,3.5-3.612793,5.628906l-.838867.774414v.032227h4.709473v1.177246h-6.693359Z" style="fill: #1d1d1b;"/>
    </g>
    <rect x=".375" y=".375" width="160.461649" height="95.226559" rx="12" ry="12" style="fill: none; stroke: #000; stroke-linecap: round; stroke-linejoin: round; stroke-width: .75px;"/>
    <g>
      <g>
        <polyline points="186.423847 175.285273 187.272208 175.164085 188.120527 175.164085 188.968888 175.285273" style="fill: none; stroke: #000; stroke-linecap: round; stroke-linejoin: round; stroke-width: .25px;"/>
        <polyline points="190.180814 174.800519 189.332494 175.164085 188.241716 175.406462 187.150978 175.406462 186.060241 175.164085 185.21188 174.800519 184.605938 174.315724 184.242372 173.709782 184.242372 173.103798 184.605938 172.497815 185.21188 171.891872 186.060241 171.528266 187.150978 171.407077 188.241716 171.407077 189.332494 171.528266 190.180814 171.891872 190.907986 172.497815 191.150363 173.103798 191.150363 173.709782 190.907986 174.315724 190.180814 174.800519" style="fill: none; stroke: #000; stroke-linecap: round; stroke-linejoin: round; stroke-width: .25px;"/>
        <polyline points="255.261703 143.290197 256.110064 143.290197 256.958424 143.290197 257.806744 143.290197" style="fill: none; stroke: #000; stroke-linecap: round; stroke-linejoin: round; stroke-width: .25px;"/>
        <polyline points="259.018711 142.926632 258.17035 143.290197 257.079613 143.411427 255.988875 143.411427 254.898097 143.290197 254.049777 142.926632 253.443794 142.320648 253.080228 141.714706 253.080228 141.108722 253.443794 140.50278 254.049777 140.017985 254.898097 139.65442 255.988875 139.412043 257.079613 139.412043 258.17035 139.65442 259.018711 140.017985 259.745842 140.50278 259.98826 141.108722 259.98826 141.714706 259.745842 142.320648 259.018711 142.926632" style="fill: none; stroke: #000; stroke-linecap: round; stroke-linejoin: round; stroke-width: .25px;"/>
        <polyline points="353.670783 178.799904 354.640291 178.436297 355.367422 178.436297 356.094635 178.557486" style="fill: none; stroke: #000; stroke-linecap: round; stroke-linejoin: round; stroke-width: .25px;"/>
        <polyline points="275.137437 131.898027 274.410265 131.655651 273.561905 131.776839 272.713544 132.140404" style="fill: none; stroke: #000; stroke-linecap: round; stroke-linejoin: round; stroke-width: .25px;"/>
        <line x1="272.713544" y1="132.140404" x2="353.670783" y2="178.799904" style="fill: none; stroke: #000; stroke-linecap: round; stroke-linejoin: round; stroke-width: .25px;"/>
        <polyline points="353.670783 178.799904 355.609881 180.133018 357.30652 181.466133 358.639717 182.920477 359.609225 184.495968 360.336356 186.071501 360.699962 187.768181 360.699962 189.464902 360.336356 191.040434 359.609225 192.737114 358.639717 194.191458 357.30652 195.645761 355.609881 197.100105 353.670783 198.312031 354.640291 198.918015 355.367422 199.766334 356.094635 200.857072 356.579389 201.94785 356.942996 203.038588 357.064143 204.129325 359.245618 202.79617 361.063569 201.220678 362.63906 199.645146 363.851027 197.948466 364.699388 196.130556 365.305289 194.312647 365.426519 192.494737" style="fill: none; stroke: #000; stroke-linecap: round; stroke-linejoin: round; stroke-width: .25px;"/>
        <polyline points="236.597895 131.898027 237.325067 131.655651 238.173428 131.776839 239.021788 132.140404 241.203263 130.928478 243.505927 130.080118 246.051008 129.231799 248.717237 128.625815 251.625884 128.26225 254.413343 128.14102 257.32199 128.14102 260.109448 128.26225 263.018095 128.625815 265.684324 129.231799 268.229406 130.080118 270.532069 130.928478 272.713544 132.140404" style="fill: none; stroke: #000; stroke-linecap: round; stroke-linejoin: round; stroke-width: .25px;"/>
        <polyline points="292.952844 233.336943 293.801204 234.064074 294.649565 234.912434 295.376737 235.881983 295.861491 236.972721 296.225056 238.184647 296.346286 239.275384" style="fill: none; stroke: #000; stroke-linecap: round; stroke-linejoin: round; stroke-width: .25px;"/>
        <line x1="296.346286" y1="239.275384" x2="357.064143" y2="204.129325" style="fill: none; stroke: #000; stroke-linecap: round; stroke-linejoin: round; stroke-width: .25px;"/>
        <line x1="353.670783" y1="198.312031" x2="292.952844" y2="233.336943" style="fill: none; stroke: #000; stroke-linecap: round; stroke-linejoin: round; stroke-width: .25px;"/>
        <polyline points="175.879997 166.922939 176.607169 166.680562 177.334341 166.80175 178.30389 167.165316" style="fill: none; stroke: #000; stroke-linecap: round; stroke-linejoin: round; stroke-width: .25px;"/>
        <line x1="178.30389" y1="167.165316" x2="239.021788" y2="132.140404" style="fill: none; stroke: #000; stroke-linecap: round; stroke-linejoin: round; stroke-width: .25px;"/>
        <polyline points="292.952844 233.336943 290.771369 234.42768 288.468705 235.397229 285.923624 236.245549 283.257395 236.851532 280.469936 237.215098 277.561289 237.336327 274.652642 237.336327 271.865184 237.215098 268.956537 236.851532 266.290308 236.245549 263.745226 235.397229 261.442563 234.42768 259.261088 233.336943 258.412727 234.064074 257.564367 234.912434 256.837195 235.881983 256.352441 236.972721 255.988875 238.184647 255.867646 239.275384 258.291539 240.487351 260.836579 241.578089 263.745226 242.426449 266.653873 243.15358 269.683709 243.638375 272.955921 244.001941 276.106945 244.123129 279.25801 244.001941 282.530223 243.638375 285.560058 243.15358 288.589894 242.426449 291.377352 241.578089 293.922393 240.487351 296.346286 239.275384" style="fill: none; stroke: #000; stroke-linecap: round; stroke-linejoin: round; stroke-width: .25px;"/>
        <polyline points="166.548113 180.739002 166.669302 182.678059 167.275285 184.495968 168.123646 186.192689 169.335572 188.010599 170.911063 189.58609 172.728973 191.040434 174.910448 192.494737 175.031636 191.404 175.395243 190.313262 175.879997 189.101336 176.607169 188.131787 177.334341 187.283427 178.30389 186.677443 176.364792 185.344329 174.668071 184.011214 173.334956 182.55687 172.365407 180.981379 171.638235 179.405846 171.27467 177.709166 171.27467 176.012445 171.638235 174.436913 172.365407 172.740233 173.334956 171.285889 174.668071 169.710397 176.364792 168.377242 178.30389 167.165316" style="fill: none; stroke: #000; stroke-linecap: round; stroke-linejoin: round; stroke-width: .25px;"/>
        <line x1="174.910448" y1="192.494737" x2="255.867646" y2="239.275384" style="fill: none; stroke: #000; stroke-linecap: round; stroke-linejoin: round; stroke-width: .25px;"/>
        <line x1="259.261088" y1="233.336943" x2="178.30389" y2="186.677443" style="fill: none; stroke: #000; stroke-linecap: round; stroke-linejoin: round; stroke-width: .25px;"/>
        <line x1="356.094635" y1="178.557486" x2="275.137437" y2="131.898027" style="fill: none; stroke: #000; stroke-linecap: round; stroke-linejoin: round; stroke-width: .25px;"/>
        <polyline points="356.094635 178.557486 358.033733 179.890641 359.851602 181.223756 361.427093 182.799288 362.76029 184.37478 363.851027 186.313878 364.699388 188.252976 365.305289 190.313262 365.426519 192.494737" style="fill: none; stroke: #000; stroke-linecap: round; stroke-linejoin: round; stroke-width: .25px;"/>
        <polyline points="236.597895 131.898027 238.658182 130.80729 240.839698 129.837741 243.26355 128.98938 245.687402 128.383438 248.111295 127.898643 250.656335 127.535078 253.201417 127.292701 255.867646 127.171471 258.533916 127.292701 261.078997 127.535078 263.624038 127.898643 266.047931 128.383438 268.471783 128.98938 270.895635 129.837741 273.07711 130.80729 275.137437 131.898027" style="fill: none; stroke: #000; stroke-linecap: round; stroke-linejoin: round; stroke-width: .25px;"/>
        <line x1="175.879997" y1="166.922939" x2="236.597895" y2="131.898027" style="fill: none; stroke: #000; stroke-linecap: round; stroke-linejoin: round; stroke-width: .25px;"/>
        <polyline points="166.548113 180.739002 166.669302 178.678674 167.275285 176.497199 168.123646 174.558101 169.214383 172.740233 170.547498 171.043512 172.12303 169.467979 173.940899 168.134865 175.879997 166.922939" style="fill: none; stroke: #000; stroke-linecap: round; stroke-linejoin: round; stroke-width: .25px;"/>
        <polyline points="166.548113 183.162854 166.669302 184.980763 167.275285 186.798673 168.123646 188.616541 169.335572 190.313262 170.911063 191.888795 172.728973 193.464286 174.910448 194.797401" style="fill: none; stroke: #000; stroke-linecap: round; stroke-linejoin: round; stroke-width: .25px;"/>
        <line x1="174.910448" y1="194.797401" x2="174.910448" y2="192.494737" style="fill: none; stroke: #000; stroke-linecap: round; stroke-linejoin: round; stroke-width: .25px;"/>
        <line x1="357.064143" y1="204.129325" x2="357.064143" y2="206.553177" style="fill: none; stroke: #000; stroke-linecap: round; stroke-linejoin: round; stroke-width: .25px;"/>
        <polyline points="357.064143 206.553177 359.245618 205.098874 361.063569 203.64453 362.63906 201.94785 363.851027 200.251129 364.699388 198.43322 365.305289 196.61531 365.426519 194.797401" style="fill: none; stroke: #000; stroke-linecap: round; stroke-linejoin: round; stroke-width: .25px;"/>
        <line x1="296.346286" y1="241.578089" x2="296.346286" y2="239.275384" style="fill: none; stroke: #000; stroke-linecap: round; stroke-linejoin: round; stroke-width: .25px;"/>
        <line x1="255.867646" y1="239.275384" x2="255.867646" y2="241.578089" style="fill: none; stroke: #000; stroke-linecap: round; stroke-linejoin: round; stroke-width: .25px;"/>
        <polyline points="255.867646 241.578089 258.291539 242.790015 260.836579 243.880752 263.745226 244.729113 266.653873 245.456285 269.683709 245.941039 272.955921 246.304604 276.106945 246.425834 279.25801 246.304604 282.530223 245.941039 285.560058 245.456285 288.589894 244.729113 291.377352 243.880752 293.922393 242.790015 296.346286 241.578089" style="fill: none; stroke: #000; stroke-linecap: round; stroke-linejoin: round; stroke-width: .25px;"/>
        <line x1="166.548113" y1="180.739002" x2="166.548113" y2="183.162854" style="fill: none; stroke: #000; stroke-linecap: round; stroke-linejoin: round; stroke-width: .25px;"/>
        <line x1="365.426519" y1="192.494737" x2="365.426519" y2="194.797401" style="fill: none; stroke: #000; stroke-linecap: round; stroke-linejoin: round; stroke-width: .25px;"/>
        <polyline points="346.762752 193.585475 345.914391 193.949081 344.823654 194.07027 343.732875 194.07027 342.642138 193.949081 341.793818 193.585475 341.066646 192.979532 340.824269 192.373549 340.824269 191.767565 341.066646 191.161623 341.793818 190.676828 342.642138 190.313262 343.732875 190.070885 344.823654 190.070885 345.914391 190.313262 346.762752 190.676828 347.368735 191.161623 347.73226 191.767565 347.73226 192.373549 347.368735 192.979532 346.762752 193.585475" style="fill: none; stroke: #000; stroke-linecap: round; stroke-linejoin: round; stroke-width: .25px;"/>
        <polyline points="277.924855 225.459362 277.076494 225.822928 275.985757 226.065305 274.895019 226.065305 273.804282 225.822928 272.955921 225.459362 272.349979 224.974567 271.986372 224.368625 271.986372 223.762641 272.349979 223.156699 272.955921 222.550715 273.804282 222.18715 274.895019 222.06592 275.985757 222.06592 277.076494 222.18715 277.924855 222.550715 278.530838 223.156699 278.894404 223.762641 278.894404 224.368625 278.530838 224.974567 277.924855 225.459362" style="fill: none; stroke: #000; stroke-linecap: round; stroke-linejoin: round; stroke-width: .25px;"/>
        <polyline points="274.167888 225.944116 275.016208 225.822928 275.864568 225.822928 276.712929 225.944116" style="fill: none; stroke: #000; stroke-linecap: round; stroke-linejoin: round; stroke-width: .25px;"/>
        <polyline points="343.005744 193.949081 343.854105 193.827852 344.702424 193.827852 345.550785 193.949081" style="fill: none; stroke: #000; stroke-linecap: round; stroke-linejoin: round; stroke-width: .25px;"/>
        <line x1="357.064143" y1="206.553177" x2="296.346286" y2="241.578089" style="fill: none; stroke: #000; stroke-linecap: round; stroke-linejoin: round; stroke-width: .25px;"/>
        <line x1="255.867646" y1="241.578089" x2="174.910448" y2="194.797401" style="fill: none; stroke: #000; stroke-linecap: round; stroke-linejoin: round; stroke-width: .25px;"/>
        <polyline points="105.34542 248.001325 105.46665 250.061612 106.072592 252.00071 106.920953 253.939808 108.254067 255.878906 109.8296 257.696815 111.768698 259.393495 113.950173 260.969028 111.768698 260.484233 109.708411 259.757102 107.890502 258.908741 106.314969 257.939192 104.981855 256.848455 103.891117 255.636529 103.285134 254.303373 102.921568 252.970259 103.042757 251.637144 103.406322 250.303989 104.254683 248.970874 105.34542 247.758948" style="fill: none; stroke: #000; stroke-linecap: round; stroke-linejoin: round; stroke-width: .25px;"/>
        <polyline points="102.921568 258.666364 103.163945 260.120667 103.64874 261.453782 104.618289 262.665749 105.830215 263.877675 107.284518 264.847224 109.102428 265.816773 111.162714 266.543904 113.344189 267.028699 115.646894 267.392264 117.949557 267.513453 120.373409 267.392264 122.676114 267.149887 124.857589 266.665133 126.917875 265.937961" style="fill: none; stroke: #000; stroke-linecap: round; stroke-linejoin: round; stroke-width: .25px;"/>
        <polyline points="214.177121 318.778279 216.964579 320.111435 219.994415 321.202172 223.145439 322.171721 226.53884 322.898852 229.932282 323.383647 233.446871 323.747213 237.08269 323.868401 234.901215 324.474385 232.71974 324.83795 230.417036 325.080327 228.114372 325.201557 225.69052 324.959139 223.509004 324.595573 221.327529 323.98959 219.388431 323.262459 217.691751 322.29291 216.237407 321.323361 215.025481 320.111435 214.177121 318.778279" style="fill: none; stroke: #000; stroke-linecap: round; stroke-linejoin: round; stroke-width: .25px;"/>
        <polyline points="213.571178 322.656475 213.813555 323.98959 214.298309 325.322745 215.14667 326.534671 216.358596 327.746597 217.934128 328.716146 219.630849 329.685695 221.691136 330.412867 223.751422 330.897621 226.054086 331.261228 228.356749 331.382416 230.780642 331.382416 233.083306 331.01881 235.264781 330.655244 237.325067 329.928072 239.142977 329.079712 240.718468 328.110163 242.051624 327.019425 243.142361 325.807499 243.748304 324.474385 244.11191 323.14127" style="fill: none; stroke: #000; stroke-linecap: round; stroke-linejoin: round; stroke-width: .25px;"/>
        <polyline points="366.15365 237.821081 367.607994 238.79063 368.698731 240.002556 369.425862 241.214482 369.910698 242.547638 370.031846 243.759564 369.789469 245.092678 369.304715 246.425834 368.456354 247.63776 367.244387 248.728497 365.790125 249.698046 364.093404 250.667595 365.062912 248.849686 365.668896 247.152965 366.032502 245.335055 366.15365 243.517187" style="fill: none; stroke: #000; stroke-linecap: round; stroke-linejoin: round; stroke-width: .25px;"/>
        <polyline points="347.368735 257.575627 349.428981 258.181569 351.610456 258.545176 353.791931 258.666364 356.094635 258.666364 358.27611 258.423946 360.457585 258.060381 362.517913 257.454397 364.335781 256.727266 366.032502 255.878906 367.486764 254.788168 368.577584 253.697431 369.425862 252.485505 369.910698 251.152349 370.031846 249.940423" style="fill: none; stroke: #000; stroke-linecap: round; stroke-linejoin: round; stroke-width: .25px;"/>
        <line x1="102.921568" y1="252.485505" x2="102.921568" y2="258.666364" style="fill: none; stroke: #000; stroke-linecap: round; stroke-linejoin: round; stroke-width: .25px;"/>
        <line x1="213.571178" y1="318.535902" x2="213.571178" y2="322.656475" style="fill: none; stroke: #000; stroke-linecap: round; stroke-linejoin: round; stroke-width: .25px;"/>
        <line x1="370.031846" y1="243.638375" x2="370.031846" y2="249.940423" style="fill: none; stroke: #000; stroke-linecap: round; stroke-linejoin: round; stroke-width: .25px;"/>
        <polyline points="237.08269 323.868401 240.354903 323.747213 243.748304 323.383647 256.958424 315.627255 269.926086 307.749675 282.651411 299.750906 295.134319 291.50976 307.374849 283.268614 319.373003 274.906279 331.007591 266.422715 334.158615 264.24124 337.673204 262.180954 341.309023 260.241856 345.187178 258.545176 349.186604 256.848455 353.428406 255.51534 357.791356 254.182185 362.396683 253.091447 363.366191 251.879521 364.093404 250.667595" style="fill: none; stroke: #000; stroke-linecap: round; stroke-linejoin: round; stroke-width: .25px;"/>
        <polyline points="210.177736 316.354427 212.116834 317.566353 214.177121 318.778279" style="fill: none; stroke: #000; stroke-linecap: round; stroke-linejoin: round; stroke-width: .25px;"/>
        <polyline points="123.88804 262.908126 128.372178 267.271076 133.098735 271.512837 138.188857 275.75464 143.521355 279.875213 149.096273 283.753409 155.034755 287.631564 161.094426 291.267383 167.517662 294.781972 174.062087 298.175414 180.84893 301.447627 187.87815 304.598651 195.149747 307.507298 202.542574 310.294756 210.177736 312.839797" style="fill: none; stroke: #000; stroke-linecap: round; stroke-linejoin: round; stroke-width: .25px;"/>
        <line x1="118.313123" y1="263.271691" x2="123.88804" y2="262.908126" style="fill: none; stroke: #000; stroke-linecap: round; stroke-linejoin: round; stroke-width: .25px;"/>
        <polyline points="113.950173 260.969028 116.010459 262.180954 118.313123 263.271691" style="fill: none; stroke: #000; stroke-linecap: round; stroke-linejoin: round; stroke-width: .25px;"/>
        <polyline points="210.904908 289.934268 204.118065 288.116359 197.452452 286.177261 191.029174 283.995786 184.727126 281.571893 178.546267 279.026852 172.607784 276.360582 166.911679 273.451935 161.457991 270.4221 156.004304 267.149887 150.914182 263.756486 145.824019 260.120667 141.097504 256.36366 136.370947 252.485505 132.007997 248.364891 127.766236 244.123129 123.88804 239.638991" style="fill: none; stroke: #000; stroke-linecap: round; stroke-linejoin: round; stroke-width: .25px;"/>
        <line x1="210.177736" y1="294.17603" x2="210.904908" y2="289.934268" style="fill: none; stroke: #000; stroke-linecap: round; stroke-linejoin: round; stroke-width: .25px;"/>
        <polyline points="364.214552 199.645146 365.184142 201.584244 365.911273 203.402153 366.15365 205.341251 366.15365 207.159161 365.668896 208.977029 364.941765 210.794939 363.851027 212.612848 362.396683 214.309569 357.791356 215.15793 353.307177 216.127479 348.944227 217.339405 344.823654 218.793708 341.066646 220.36924 337.430827 222.06592 334.158615 224.005018 331.007591 226.186534 325.917469 229.943501 320.827347 233.700508 315.616036 237.699893 310.283496 241.820466 304.950997 245.941039 299.618498 250.1828 294.16477 254.545791 288.711082 258.908741 283.136165 263.514068 277.682478 268.119436 272.107602 272.845993 266.411496 277.572508 260.836579 282.541442 255.140515 287.510375 249.444409 292.479309 243.748304 297.569431 241.44564 298.296603 239.142977 298.902586 236.840313 299.266152 234.537609 299.629717 232.234945 299.872094 229.932282 299.993324 227.629577 299.993324 225.326914 299.872094 223.145439 299.508529 220.963964 299.144963 218.903677 298.660168 216.843391 297.933037 215.025481 297.205865 213.32876 296.236316 211.753269 295.266767 210.177736 294.17603" style="fill: none; stroke: #000; stroke-linecap: round; stroke-linejoin: round; stroke-width: .25px;"/>
        <polyline points="227.266012 137.230526 227.750807 136.624584 228.720356 136.382207" style="fill: none; stroke: #000; stroke-linecap: round; stroke-linejoin: round; stroke-width: .25px;"/>
        <polyline points="118.313123 241.093294 116.495213 240.366163 114.798533 239.396614 113.223001 238.427065 111.768698 237.215098 110.435542 236.003172 109.223616 234.670057 108.132879 233.215713 107.284518 231.640222 106.557387 230.064689 105.951404 228.368009 105.587838 226.792477 105.34542 225.095756 105.34542 223.399076 105.34542 221.702355 105.709027 219.884445 106.072592 218.187765 113.828984 211.279734 121.706565 204.735268 129.705334 198.312031 137.825291 192.25236 146.066437 186.435066 154.428771 180.739002 162.791106 175.406462 171.27467 170.31634" style="fill: none; stroke: #000; stroke-linecap: round; stroke-linejoin: round; stroke-width: .25px;"/>
        <line x1="118.313123" y1="241.093294" x2="123.88804" y2="239.638991" style="fill: none; stroke: #000; stroke-linecap: round; stroke-linejoin: round; stroke-width: .25px;"/>
        <line x1="362.396683" y1="214.309569" x2="362.396683" y2="253.091447" style="fill: none; stroke: #000; stroke-linecap: round; stroke-linejoin: round; stroke-width: .25px;"/>
        <line x1="331.007591" y1="226.186534" x2="331.007591" y2="266.422715" style="fill: none; stroke: #000; stroke-linecap: round; stroke-linejoin: round; stroke-width: .25px;"/>
        <line x1="118.313123" y1="241.093294" x2="118.313123" y2="263.271691" style="fill: none; stroke: #000; stroke-linecap: round; stroke-linejoin: round; stroke-width: .25px;"/>
        <line x1="123.88804" y1="239.638991" x2="123.88804" y2="262.908126" style="fill: none; stroke: #000; stroke-linecap: round; stroke-linejoin: round; stroke-width: .25px;"/>
        <line x1="210.177736" y1="294.17603" x2="210.177736" y2="316.354427" style="fill: none; stroke: #000; stroke-linecap: round; stroke-linejoin: round; stroke-width: .25px;"/>
        <line x1="243.748304" y1="297.569431" x2="243.748304" y2="323.383647" style="fill: none; stroke: #000; stroke-linecap: round; stroke-linejoin: round; stroke-width: .25px;"/>
        <line x1="366.15365" y1="205.947194" x2="366.15365" y2="243.517187" style="fill: none; stroke: #000; stroke-linecap: round; stroke-linejoin: round; stroke-width: .25px;"/>
        <line x1="105.34542" y1="223.520264" x2="105.34542" y2="248.001325" style="fill: none; stroke: #000; stroke-linecap: round; stroke-linejoin: round; stroke-width: .25px;"/>
      </g>
      <g>
        <polyline points="265.062225 65.905541 264.97878 66.32273 264.728463 66.712117 264.366898 67.073682 263.838442 67.351821 263.226559 67.574317 262.531231 67.713386 261.808092 67.76901 261.112764 67.713386 260.417436 67.574317 259.805544 67.351821 259.277098 67.073682 258.887711 66.712117 258.665206 66.32273 258.58177 65.905541" style="fill: none; stroke: #000; stroke-linecap: round; stroke-linejoin: round; stroke-width: .25px;"/>
        <line x1="265.062225" y1="61.872625" x2="265.062225" y2="65.905541" style="fill: none; stroke: #000; stroke-linecap: round; stroke-linejoin: round; stroke-width: .25px;"/>
        <line x1="258.58177" y1="65.627402" x2="258.58177" y2="65.905541" style="fill: none; stroke: #000; stroke-linecap: round; stroke-linejoin: round; stroke-width: .25px;"/>
        <polyline points="199.256396 99.865346 199.256396 98.446879 186.879561 91.298907 186.879561 92.717375 199.256396 99.865346" style="fill: none; stroke: #000; stroke-linecap: round; stroke-linejoin: round; stroke-width: .25px;"/>
        <line x1="273.600843" y1="55.531248" x2="199.256396" y2="98.446879" style="fill: none; stroke: #000; stroke-linecap: round; stroke-linejoin: round; stroke-width: .25px;"/>
        <polyline points="186.879561 91.298907 261.1962 48.383277 273.600843 55.531248 273.600843 56.949706 199.256396 99.865346" style="fill: none; stroke: #000; stroke-linecap: round; stroke-linejoin: round; stroke-width: .25px;"/>
      </g>
      <g>
        <polyline points="351.097581 94.88243 351.014135 95.299619 350.763818 95.689006 350.402253 96.050571 349.873797 96.328709 349.261914 96.551205 348.566587 96.690275 347.843447 96.745899 347.148119 96.690275 346.452791 96.551205 345.840899 96.328709 345.312453 96.050571 344.923066 95.689006 344.700561 95.299619 344.617125 94.88243" style="fill: none; stroke: #000; stroke-linecap: round; stroke-linejoin: round; stroke-width: .25px;"/>
        <line x1="351.097581" y1="90.849514" x2="351.097581" y2="94.88243" style="fill: none; stroke: #000; stroke-linecap: round; stroke-linejoin: round; stroke-width: .25px;"/>
        <line x1="344.617125" y1="94.604291" x2="344.617125" y2="94.88243" style="fill: none; stroke: #000; stroke-linecap: round; stroke-linejoin: round; stroke-width: .25px;"/>
        <polyline points="285.291752 128.842235 285.291752 127.423767 272.914916 120.275796 272.914916 121.694264 285.291752 128.842235" style="fill: none; stroke: #000; stroke-linecap: round; stroke-linejoin: round; stroke-width: .25px;"/>
        <line x1="359.636198" y1="84.508137" x2="285.291752" y2="127.423767" style="fill: none; stroke: #000; stroke-linecap: round; stroke-linejoin: round; stroke-width: .25px;"/>
        <polyline points="272.914916 120.275796 347.231555 77.360165 359.636198 84.508137 359.636198 85.926595 285.291752 128.842235" style="fill: none; stroke: #000; stroke-linecap: round; stroke-linejoin: round; stroke-width: .25px;"/>
      </g>
      <g>
        <line x1="315.438955" y1="133.864609" x2="315.373083" y2="186.536301" style="fill: none; stroke: #d3125a; stroke-dasharray: 3 3; stroke-linecap: round; stroke-linejoin: round; stroke-width: .75px;"/>
        <polygon points="312.598379 184.426377 315.374243 185.609787 318.153066 184.433335 315.367483 191.013596 312.598379 184.426377" style="fill: #d3125a;"/>
      </g>
      <g>
        <line x1="230.358381" y1="100.413529" x2="230.292516" y2="153.085221" style="fill: none; stroke: #d3125a; stroke-dasharray: 3 3; stroke-linecap: round; stroke-linejoin: round; stroke-width: .75px;"/>
        <polygon points="227.517805 150.975327 230.293676 152.158707 233.072492 150.982254 230.286916 157.562515 227.517805 150.975327" style="fill: #d3125a;"/>
      </g>
    </g>
    <g>
      <polyline points="822.31465 175.994698 823.282692 175.631656 824.008693 175.510615 824.734735 175.752698" style="fill: none; stroke: #000; stroke-linecap: round; stroke-linejoin: round; stroke-width: .25px;"/>
      <polyline points="743.903329 129.044657 743.177287 128.802656 742.330245 128.923698 741.483243 129.286739" style="fill: none; stroke: #000; stroke-linecap: round; stroke-linejoin: round; stroke-width: .25px;"/>
      <line x1="741.483243" y1="129.286739" x2="822.31465" y2="175.994698" style="fill: none; stroke: #000; stroke-linecap: round; stroke-linejoin: round; stroke-width: .25px;"/>
      <polyline points="822.31465 175.994698 824.250735 177.2047 825.944778 178.535743 827.275862 180.108868 828.243905 181.560871 828.969906 183.254955 829.332948 184.828081 829.332948 186.522083 828.969906 188.216168 828.243905 189.789294 827.275862 191.362337 825.944778 192.814421 824.250735 194.145464 822.31465 195.476507 823.282692 196.081549 824.008693 196.928592 824.734735 197.896593 825.218777 199.106677 825.581778 200.19572 825.702778 201.284763 827.880863 199.832678 829.695948 198.380594 831.269033 196.686509 832.479075 194.992507 833.326118 193.298422 833.931119 191.483296 834.052119 189.547211" style="fill: none; stroke: #000; stroke-linecap: round; stroke-linejoin: round; stroke-width: .25px;"/>
      <polyline points="705.423711 129.044657 706.149753 128.802656 706.996755 128.923698 707.843797 129.286739 710.021882 128.197614 712.321009 127.229613 714.862095 126.503612 717.524222 125.89857 720.42835 125.535528 723.211436 125.293528 726.115563 125.293528 729.019691 125.535528 731.802818 125.89857 734.464945 126.503612 737.006031 127.229613 739.305117 128.197614 741.483243 129.286739" style="fill: none; stroke: #000; stroke-linecap: round; stroke-linejoin: round; stroke-width: .25px;"/>
      <polyline points="761.691095 230.446997 762.538096 231.051957 763.385139 231.898999 764.111181 232.988042 764.595223 234.077085 764.958223 235.166209 765.079223 236.255252" style="fill: none; stroke: #000; stroke-linecap: round; stroke-linejoin: round; stroke-width: .25px;"/>
      <line x1="765.079223" y1="236.255252" x2="825.702778" y2="201.284763" style="fill: none; stroke: #000; stroke-linecap: round; stroke-linejoin: round; stroke-width: .25px;"/>
      <line x1="822.31465" y1="195.476507" x2="761.691095" y2="230.446997" style="fill: none; stroke: #000; stroke-linecap: round; stroke-linejoin: round; stroke-width: .25px;"/>
      <polyline points="644.800136 164.015146 645.526178 163.894187 646.373221 163.894187 647.220242 164.257147" style="fill: none; stroke: #000; stroke-linecap: round; stroke-linejoin: round; stroke-width: .25px;"/>
      <line x1="647.220242" y1="164.257147" x2="707.843797" y2="129.286739" style="fill: none; stroke: #000; stroke-linecap: round; stroke-linejoin: round; stroke-width: .25px;"/>
      <polyline points="761.691095 230.446997 759.512969 231.53604 757.213883 232.504041 754.672797 233.230124 752.01067 233.835084 749.227543 234.198126 746.323415 234.440126 743.419328 234.440126 740.636201 234.198126 737.853074 233.835084 735.069946 233.230124 732.52886 232.504041 730.229734 231.53604 728.051648 230.446997 727.204606 231.051957 726.357605 231.898999 725.631563 232.988042 725.147521 234.077085 724.78452 235.166209 724.66352 236.255252 727.083606 237.465254 729.624733 238.554297 732.52886 239.401339 735.432988 240.12734 738.579116 240.732382 741.725244 240.974382 744.871372 241.095424 748.1385 240.974382 751.284628 240.732382 754.309755 240.12734 757.334883 239.401339 760.118011 238.554297 762.659137 237.465254 765.079223 236.255252" style="fill: none; stroke: #000; stroke-linecap: round; stroke-linejoin: round; stroke-width: .25px;"/>
      <polyline points="635.482753 177.930783 635.603753 179.745827 636.208774 181.560871 637.055816 183.375997 638.265859 185.070081 639.838944 186.643125 641.654008 188.216168 643.832114 189.547211 643.953114 188.458168 644.316115 187.369126 644.800136 186.280083 645.526178 185.19104 646.373221 184.343998 647.220242 183.739038 645.284157 182.528954 643.590093 181.197911 642.25903 179.624786 641.290987 178.172783 640.564965 176.478699 640.201944 174.905655 640.201944 173.211571 640.564965 171.517486 641.290987 169.944443 642.25903 168.371317 643.590093 166.919315 645.284157 165.588272 647.220242 164.257147" style="fill: none; stroke: #000; stroke-linecap: round; stroke-linejoin: round; stroke-width: .25px;"/>
      <line x1="643.832114" y1="189.547211" x2="724.66352" y2="236.255252" style="fill: none; stroke: #000; stroke-linecap: round; stroke-linejoin: round; stroke-width: .25px;"/>
      <line x1="728.051648" y1="230.446997" x2="647.220242" y2="183.739038" style="fill: none; stroke: #000; stroke-linecap: round; stroke-linejoin: round; stroke-width: .25px;"/>
      <line x1="824.734735" y1="175.752698" x2="743.903329" y2="129.044657" style="fill: none; stroke: #000; stroke-linecap: round; stroke-linejoin: round; stroke-width: .25px;"/>
      <polyline points="824.734735 175.752698 826.67082 176.9627 828.485905 178.293743 830.058949 179.866868 831.390033 181.560871 832.479075 183.375997 833.326118 185.312082 833.931119 187.490167 834.052119 189.547211" style="fill: none; stroke: #000; stroke-linecap: round; stroke-linejoin: round; stroke-width: .25px;"/>
      <polyline points="705.423711 129.044657 707.480796 127.955614 709.779882 126.987613 712.078968 126.261611 714.499094 125.535528 716.91918 125.051528 719.460307 124.688486 722.122393 124.446486 724.66352 124.446486 727.325647 124.446486 729.866733 124.688486 732.40786 125.051528 734.948946 125.535528 737.248032 126.261611 739.668159 126.987613 741.846244 127.955614 743.903329 129.044657" style="fill: none; stroke: #000; stroke-linecap: round; stroke-linejoin: round; stroke-width: .25px;"/>
      <line x1="644.800136" y1="164.015146" x2="705.423711" y2="129.044657" style="fill: none; stroke: #000; stroke-linecap: round; stroke-linejoin: round; stroke-width: .25px;"/>
      <polyline points="635.482753 177.930783 635.603753 175.752698 636.208774 173.695571 637.055816 171.759486 638.144859 169.823401 639.475923 168.250358 641.169987 166.677315 642.864072 165.346189 644.800136 164.015146" style="fill: none; stroke: #000; stroke-linecap: round; stroke-linejoin: round; stroke-width: .25px;"/>
      <polyline points="635.482753 180.229828 635.603753 182.044953 636.208774 183.859997 637.055816 185.675041 638.265859 187.369126 639.838944 189.06321 641.654008 190.515295 643.832114 191.967379" style="fill: none; stroke: #000; stroke-linecap: round; stroke-linejoin: round; stroke-width: .25px;"/>
      <line x1="643.832114" y1="191.967379" x2="643.832114" y2="189.547211" style="fill: none; stroke: #000; stroke-linecap: round; stroke-linejoin: round; stroke-width: .25px;"/>
      <line x1="825.702778" y1="201.284763" x2="825.702778" y2="203.583807" style="fill: none; stroke: #000; stroke-linecap: round; stroke-linejoin: round; stroke-width: .25px;"/>
      <polyline points="825.702778 203.583807 827.880863 202.252764 829.695948 200.679721 831.269033 199.106677 832.479075 197.412592 833.326118 195.597467 833.931119 193.782423 834.052119 191.967379" style="fill: none; stroke: #000; stroke-linecap: round; stroke-linejoin: round; stroke-width: .25px;"/>
      <line x1="765.079223" y1="238.554297" x2="765.079223" y2="236.255252" style="fill: none; stroke: #000; stroke-linecap: round; stroke-linejoin: round; stroke-width: .25px;"/>
      <line x1="724.66352" y1="236.255252" x2="724.66352" y2="238.554297" style="fill: none; stroke: #000; stroke-linecap: round; stroke-linejoin: round; stroke-width: .25px;"/>
      <polyline points="724.66352 238.554297 727.083606 239.88534 729.624733 240.853423 732.52886 241.821425 735.432988 242.547508 738.579116 243.031509 741.725244 243.273509 744.871372 243.39455 748.1385 243.273509 751.284628 243.031509 754.309755 242.547508 757.334883 241.821425 760.118011 240.853423 762.659137 239.88534 765.079223 238.554297" style="fill: none; stroke: #000; stroke-linecap: round; stroke-linejoin: round; stroke-width: .25px;"/>
      <line x1="635.482753" y1="177.930783" x2="635.482753" y2="180.229828" style="fill: none; stroke: #000; stroke-linecap: round; stroke-linejoin: round; stroke-width: .25px;"/>
      <line x1="834.052119" y1="189.547211" x2="834.052119" y2="191.967379" style="fill: none; stroke: #000; stroke-linecap: round; stroke-linejoin: round; stroke-width: .25px;"/>
      <line x1="825.702778" y1="203.583807" x2="765.079223" y2="238.554297" style="fill: none; stroke: #000; stroke-linecap: round; stroke-linejoin: round; stroke-width: .25px;"/>
      <line x1="724.66352" y1="238.554297" x2="643.832114" y2="191.967379" style="fill: none; stroke: #000; stroke-linecap: round; stroke-linejoin: round; stroke-width: .25px;"/>
      <polyline points="574.375177 244.967594 574.496177 247.024638 575.101198 249.081764 575.948241 251.017849 577.279304 252.832893 578.852368 254.648019 580.788433 256.342103 582.966539 257.915147 580.788433 257.431146 578.731347 256.826104 576.916283 255.979062 575.343219 255.010978 574.012156 253.800976 572.923113 252.590893 572.318091 251.259849 571.95507 249.928806 572.076071 248.597763 572.439092 247.26672 573.286134 245.935595 574.375177 244.725593" style="fill: none; stroke: #000; stroke-linecap: round; stroke-linejoin: round; stroke-width: .25px;"/>
      <polyline points="571.95507 255.737061 572.197071 257.068105 572.681092 258.399148 573.649135 259.730191 574.859198 260.819233 576.311262 261.908276 578.126326 262.755318 580.183411 263.481402 582.361517 264.086361 584.660603 264.328362 586.959709 264.570444 589.379815 264.449403 591.678901 264.086361 593.856986 263.602361 595.914071 262.87636" style="fill: none; stroke: #000; stroke-linecap: round; stroke-linejoin: round; stroke-width: .25px;"/>
      <polyline points="683.037774 315.755574 685.820861 316.965617 688.845988 318.17566 691.992157 319.022702 695.380285 319.748744 698.768414 320.353786 702.277583 320.595787 705.907712 320.716787 703.850627 321.321788 701.551541 321.80583 699.252456 322.04783 696.953329 322.04783 694.533243 321.92683 692.355158 321.563829 690.177072 320.958787 688.240987 320.111745 686.546903 319.264703 685.094859 318.17566 683.884776 316.965617 683.037774 315.755574" style="fill: none; stroke: #000; stroke-linecap: round; stroke-linejoin: round; stroke-width: .25px;"/>
      <polyline points="682.432732 319.506744 682.674733 320.837787 683.158774 322.16883 684.126817 323.378914 685.21586 324.588957 686.788903 325.678 688.482988 326.525042 690.540073 327.251043 692.597158 327.856085 694.896244 328.098085 697.19537 328.340086 699.615456 328.219086 701.914542 327.977085 704.092668 327.493084 706.149753 326.888042 707.964797 326.041 709.537882 325.072958 710.868925 323.862915 711.957967 322.652872 712.563009 321.442829 712.92601 320.111745" style="fill: none; stroke: #000; stroke-linecap: round; stroke-linejoin: round; stroke-width: .25px;"/>
      <polyline points="834.778161 234.803168 836.230245 235.892211 837.319288 236.981253 838.045289 238.191337 838.529331 239.52238 838.650331 240.853423 838.529331 242.184466 837.924289 243.39455 837.077247 244.604552 835.867204 245.814636 834.41516 246.782637 832.842076 247.62968 833.689118 245.935595 834.29416 244.120551 834.657161 242.426467 834.778161 240.611423" style="fill: none; stroke: #000; stroke-linecap: round; stroke-linejoin: round; stroke-width: .25px;"/>
      <polyline points="816.022394 254.648019 818.079479 255.13202 820.257564 255.495061 822.43565 255.737061 824.734735 255.737061 826.912821 255.495061 829.090906 255.13202 831.148032 254.526978 832.963076 253.800976 834.657161 252.832893 836.109204 251.864891 837.198288 250.654808 838.045289 249.444806 838.529331 248.234722 838.650331 246.903679" style="fill: none; stroke: #000; stroke-linecap: round; stroke-linejoin: round; stroke-width: .25px;"/>
      <line x1="571.95507" y1="249.444806" x2="571.95507" y2="255.737061" style="fill: none; stroke: #000; stroke-linecap: round; stroke-linejoin: round; stroke-width: .25px;"/>
      <line x1="682.432732" y1="315.392574" x2="682.432732" y2="319.506744" style="fill: none; stroke: #000; stroke-linecap: round; stroke-linejoin: round; stroke-width: .25px;"/>
      <line x1="838.650331" y1="240.732382" x2="838.650331" y2="246.903679" style="fill: none; stroke: #000; stroke-linecap: round; stroke-linejoin: round; stroke-width: .25px;"/>
      <polyline points="705.907712 320.716787 709.174881 320.595787 712.563009 320.232745 725.752563 312.488446 738.700116 304.623106 751.405628 296.636765 763.86918 288.529425 776.090691 280.301084 788.070202 271.830702 799.686671 263.36036 802.832799 261.182275 806.341969 259.125149 809.972138 257.310105 813.844267 255.495061 817.837438 253.921936 822.072649 252.469933 826.54982 251.259849 831.026991 250.170807 831.995034 248.960723 832.842076 247.62968" style="fill: none; stroke: #000; stroke-linecap: round; stroke-linejoin: round; stroke-width: .25px;"/>
      <polyline points="679.044604 313.214447 680.980689 314.545531 683.037774 315.755574" style="fill: none; stroke: #000; stroke-linecap: round; stroke-linejoin: round; stroke-width: .25px;"/>
      <polyline points="592.888944 259.851232 597.366135 264.207403 602.085347 268.563573 607.16756 272.677744 612.491774 276.791914 618.058008 280.785085 623.987263 284.536254 630.037519 288.166424 636.450795 291.796553 642.985072 295.184722 649.88237 298.45185 656.900647 301.476978 664.039966 304.502106 671.542264 307.164192 679.044604 309.826319" style="fill: none; stroke: #000; stroke-linecap: round; stroke-linejoin: round; stroke-width: .25px;"/>
      <line x1="587.322709" y1="260.214191" x2="592.888944" y2="259.851232" style="fill: none; stroke: #000; stroke-linecap: round; stroke-linejoin: round; stroke-width: .25px;"/>
      <polyline points="582.966539 257.915147 585.023624 259.125149 587.322709 260.214191" style="fill: none; stroke: #000; stroke-linecap: round; stroke-linejoin: round; stroke-width: .25px;"/>
      <polyline points="679.770605 286.83534 672.994349 285.020255 666.339051 283.084211 659.925795 280.906085 653.633519 278.606999 647.462263 276.065913 641.533008 273.282786 635.845774 270.378617 630.40054 267.35349 624.955306 264.207403 619.873093 260.698274 614.79088 257.189064 610.071688 253.437935 605.473476 249.444806 600.996305 245.330635 596.761114 241.095424 592.888944 236.739253" style="fill: none; stroke: #000; stroke-linecap: round; stroke-linejoin: round; stroke-width: .25px;"/>
      <line x1="679.044604" y1="291.191552" x2="679.770605" y2="286.83534" style="fill: none; stroke: #000; stroke-linecap: round; stroke-linejoin: round; stroke-width: .25px;"/>
      <polyline points="832.842076 196.807551 833.810118 198.622594 834.536161 200.558679 834.778161 202.373805 834.778161 204.188849 834.29416 206.003975 833.568118 207.819019 832.479075 209.634063 831.026991 211.328147 826.42882 212.175189 821.951608 213.143273 817.595437 214.474316 813.481267 215.805359 809.730097 217.378403 806.099968 219.193528 802.832799 221.129613 799.686671 223.186658 794.604458 226.937786 789.522245 230.809957 784.319032 234.803168 778.994819 238.796297 773.670606 242.910467 768.346351 247.145679 762.901138 251.50185 757.455883 255.979062 751.88967 260.456274 746.444456 265.054445 740.878201 269.773657 735.190947 274.613829 729.624733 279.454041 723.937478 284.415254 718.250264 289.497467 712.563009 294.57968 710.263924 295.184722 707.964797 295.789723 705.665712 296.273765 703.366626 296.636765 701.06754 296.878766 698.768414 296.878766 696.469328 296.878766 694.170243 296.757765 691.992157 296.515765 689.814031 296.031723 687.756946 295.547723 685.69986 294.942681 683.884776 294.095638 682.190732 293.248637 680.617647 292.280594 679.044604 291.191552" style="fill: none; stroke: #000; stroke-linecap: round; stroke-linejoin: round; stroke-width: .25px;"/>
      <polyline points="696.106328 134.489952 696.590328 133.763869 697.558371 133.64291" style="fill: none; stroke: #000; stroke-linecap: round; stroke-linejoin: round; stroke-width: .25px;"/>
      <polyline points="587.322709 238.191337 585.507645 237.344295 583.81356 236.497252 582.240496 235.40821 580.788433 234.319167 579.45739 233.109083 578.247326 231.656999 577.158284 230.204997 576.311262 228.752912 575.58522 227.058828 574.980198 225.485784 574.617177 223.7917 574.375177 222.097615 574.375177 220.40353 574.496177 218.709446 574.738177 217.015443 575.101198 215.200317 582.845538 208.424061 590.710858 201.768763 598.697199 195.476507 606.804539 189.305211 615.03288 183.496956 623.382242 177.930783 631.731603 172.606529 640.201944 167.524275" style="fill: none; stroke: #000; stroke-linecap: round; stroke-linejoin: round; stroke-width: .25px;"/>
      <line x1="587.322709" y1="238.191337" x2="592.888944" y2="236.739253" style="fill: none; stroke: #000; stroke-linecap: round; stroke-linejoin: round; stroke-width: .25px;"/>
      <line x1="831.026991" y1="211.328147" x2="831.026991" y2="250.170807" style="fill: none; stroke: #000; stroke-linecap: round; stroke-linejoin: round; stroke-width: .25px;"/>
      <line x1="799.686671" y1="223.186658" x2="799.686671" y2="263.36036" style="fill: none; stroke: #000; stroke-linecap: round; stroke-linejoin: round; stroke-width: .25px;"/>
      <line x1="587.322709" y1="238.191337" x2="587.322709" y2="260.214191" style="fill: none; stroke: #000; stroke-linecap: round; stroke-linejoin: round; stroke-width: .25px;"/>
      <line x1="592.888944" y1="236.739253" x2="592.888944" y2="259.851232" style="fill: none; stroke: #000; stroke-linecap: round; stroke-linejoin: round; stroke-width: .25px;"/>
      <line x1="679.044604" y1="291.191552" x2="679.044604" y2="313.214447" style="fill: none; stroke: #000; stroke-linecap: round; stroke-linejoin: round; stroke-width: .25px;"/>
      <line x1="712.563009" y1="294.57968" x2="712.563009" y2="320.232745" style="fill: none; stroke: #000; stroke-linecap: round; stroke-linejoin: round; stroke-width: .25px;"/>
      <line x1="834.778161" y1="202.978847" x2="834.778161" y2="240.611423" style="fill: none; stroke: #000; stroke-linecap: round; stroke-linejoin: round; stroke-width: .25px;"/>
      <line x1="574.375177" y1="220.524572" x2="574.375177" y2="244.967594" style="fill: none; stroke: #000; stroke-linecap: round; stroke-linejoin: round; stroke-width: .25px;"/>
      <polyline points="731.439818 224.638742 731.439818 223.065699 812.271224 176.357658 825.702778 184.101998 825.702778 185.675041" style="fill: none; stroke: #000; stroke-linecap: round; stroke-linejoin: round; stroke-width: .25px;"/>
      <line x1="744.871372" y1="230.809957" x2="731.439818" y2="223.065699" style="fill: none; stroke: #000; stroke-linecap: round; stroke-linejoin: round; stroke-width: .25px;"/>
      <polyline points="825.702778 184.101998 744.871372 230.809957 744.871372 232.383082 731.439818 224.638742" style="fill: none; stroke: #000; stroke-linecap: round; stroke-linejoin: round; stroke-width: .25px;"/>
      <line x1="825.702778" y1="185.675041" x2="744.871372" y2="232.383082" style="fill: none; stroke: #000; stroke-linecap: round; stroke-linejoin: round; stroke-width: .25px;"/>
      <polyline points="657.263668 181.802953 657.263668 180.229828 643.832114 172.485488 643.832114 174.058613 657.263668 181.802953" style="fill: none; stroke: #000; stroke-linecap: round; stroke-linejoin: round; stroke-width: .25px;"/>
      <line x1="738.095074" y1="133.521869" x2="657.263668" y2="180.229828" style="fill: none; stroke: #000; stroke-linecap: round; stroke-linejoin: round; stroke-width: .25px;"/>
      <polyline points="643.832114 172.485488 724.66352 125.777529 738.095074 133.521869 738.095074 135.094912 657.263668 181.802953" style="fill: none; stroke: #000; stroke-linecap: round; stroke-linejoin: round; stroke-width: .25px;"/>
    </g>
    <g>
      <line x1="429.995184" y1="227.809311" x2="498.257238" y2="227.809311" style="fill: none; stroke: #000; stroke-linecap: round; stroke-linejoin: round;"/>
      <polygon points="496.010381 230.771805 497.268957 227.809311 496.010381 224.846817 503.033025 227.809311 496.010381 230.771805"/>
    </g>
  </g>
  <g>
    <path d="M195.636358,54.785355h.90332v6.199219h2.988281v.75293h-3.891602v-6.952148Z" style="fill: #1d1e1c;"/>
    <path d="M204.158819,58.478226h-2.71875v2.506348h3.030273v.75293h-3.932617v-6.952148h3.776367v.75293h-2.874023v2.196777h2.71875v.743164Z" style="fill: #1d1e1c;"/>
    <path d="M205.646124,54.785355h3.766602v.75293h-2.864258v2.310547h2.645508v.742676h-2.645508v3.145996h-.902344v-6.952148Z" style="fill: #1d1e1c;"/>
    <path d="M212.030889,55.548538h-2.126953v-.763184h5.177734v.763184h-2.137695v6.188965h-.913086v-6.188965Z" style="fill: #1d1e1c;"/>
  </g>
  <g>
    <path d="M339.807745,112.63057c.456543-.092773,1.110352-.144531,1.73291-.144531.964844,0,1.587402.175293,2.022949.567383.353027.30957.550293.78418.550293,1.320312,0,.917969-.581055,1.526367-1.317871,1.774414v.030762c.539551.185547.861328.680664,1.027344,1.402832.228027.969727.394043,1.640137.539551,1.908203h-.934082c-.114258-.195801-.269531-.794434-.466797-1.660645-.20752-.959473-.581055-1.320312-1.400879-1.351074h-.850586v3.011719h-.902832v-6.859375ZM340.710577,115.797074h.92334c.964844,0,1.577148-.525879,1.577148-1.320312,0-.897461-.653809-1.289062-1.608398-1.299316-.435547,0-.74707.041016-.89209.082031v2.537598Z" style="fill: #1d1e1c;"/>
    <path d="M346.297003,112.537796v6.952148h-.902832v-6.952148h.902832Z" style="fill: #1d1e1c;"/>
    <path d="M353.19837,119.180374c-.404297.144531-1.203613.381836-2.147461.381836-1.058594,0-1.930176-.268066-2.615234-.917969-.601562-.577637-.975098-1.505859-.975098-2.589355.010254-2.073242,1.442383-3.589355,3.787109-3.589355.80957,0,1.442383.175293,1.743164.319824l-.217773.732422c-.373535-.165039-.840332-.299316-1.545898-.299316-1.70166,0-2.812012,1.052246-2.812012,2.79541,0,1.763672,1.068848,2.805664,2.697754,2.805664.591309,0,.996094-.08252,1.203613-.185547v-2.07373h-1.421387v-.72168h2.303223v3.341797Z" style="fill: #1d1e1c;"/>
    <path d="M355.486456,112.537796v2.908691h3.382324v-2.908691h.913086v6.952148h-.913086v-3.259766h-3.382324v3.259766h-.902832v-6.952148h.902832Z" style="fill: #1d1e1c;"/>
    <path d="M362.68128,113.30098h-2.126953v-.763184h5.177246v.763184h-2.137207v6.188965h-.913086v-6.188965Z" style="fill: #1d1e1c;"/>
  </g>
</svg>