<?xml version="1.0" encoding="UTF-8"?><svg id="Layer_1" xmlns="http://www.w3.org/2000/svg" viewBox="0 0 841.88983154296875 595.27557373046875"><defs><style>.cls-1{stroke:#e10b17;stroke-dasharray:0 1;}.cls-1,.cls-2{stroke-width:.5px;}.cls-1,.cls-2,.cls-3{fill:none;stroke-linecap:round;stroke-linejoin:round;}.cls-4{fill:#d2155b;}.cls-2{stroke:#d2155b;stroke-dasharray:0 0 3 3;}.cls-3{stroke:#000;stroke-width:.25px;}</style></defs><polyline class="cls-3" points="213.635642485887729 129.195106488697093 213.635642485887729 179.15758374618963 425.393796088721501 56.969578294856547 425.393796088721501 7.007101037364919 213.635642485887729 129.195106488697093"/><line class="cls-3" x1="208.717035947693148" y1="176.31000870448861" x2="213.635642485887729" y2="179.15758374618963"/><polyline class="cls-3" points="208.717035947693148 176.31000870448861 208.717035947693148 126.347531446997891 213.635642485887729 129.195106488697093"/><polyline class="cls-3" points="425.393796088721501 7.007101037364919 420.475145660648195 4.159525995669355 208.717035947693148 126.347531446997891"/><polyline class="cls-3" points="420.475145660648195 248.535624678083877 415.556583012337796 245.687961856630864 415.556583012337796 295.650439114120672 420.475145660648195 298.498101935570048 420.475145660648195 248.535624678083877"/><polyline class="cls-3" points="415.556583012337796 245.687961856630864 627.055830246939877 123.499956405301418 631.974392895253914 126.347531446997891 631.974392895253914 176.31000870448861"/><line class="cls-3" x1="631.974392895253914" y1="126.347531446997891" x2="420.475145660648195" y2="248.535624678083877"/><line class="cls-3" x1="420.475145660648195" y1="298.498101935570048" x2="631.974392895253914" y2="176.31000870448861"/><polyline class="cls-3" points="421.075259373519657 585.641351253671019 208.085150589206023 462.592040613093559 208.085150589206023 468.327335899793979 421.075259373519657 591.116047734798485 421.075259373519657 585.641351253671019"/><polyline class="cls-3" points="208.085150589206023 462.592040613093559 421.075259373519657 339.803328778081777 633.804680953762727 462.592040613093559 633.804680953762727 468.327335899793979"/><line class="cls-3" x1="633.804680953762727" y1="462.592040613093559" x2="421.075259373519657" y2="585.641351253671019"/><line class="cls-3" x1="421.075259373519657" y1="591.116047734798485" x2="633.804680953762727" y2="468.327335899793979"/><polyline class="cls-1" points="285.628033821867575 456.662263879989041 405.708102120690455 387.371348893411778 405.708102120690455 385.013252284821647 283.632640875361176 455.573968374297692 304.311116573999243 467.545710988619248 426.568021910083189 396.984994899143203"/><line class="cls-1" x1="405.708102120690455" y1="387.371348893411778" x2="424.391307885767674" y2="398.073351911294594"/><line class="cls-1" x1="405.708102120690455" y1="385.013252284821647" x2="426.568021910083189" y2="396.984994899143203"/><line class="cls-1" x1="537.578591956025775" y1="463.373727030742884" x2="556.261797721106632" y2="474.257112632902135"/><polyline class="cls-1" points="417.317079566457323 532.846086108067539 537.578591956025775 463.373727030742884 537.578591956025775 461.197013006429188 558.25706765466748 472.987373036470672"/><polyline class="cls-1" points="558.25706765466748 472.987373036470672 436.000285331529085 543.548089125950355 415.321809632889199 531.757729095905233 537.578591956025775 461.197013006429188"/><polyline class="cls-1" points="208.900063840945222 464.280639952150523 208.900063840945222 466.638736560751568 420.944854265015238 589.076962974631897 420.944854265015238 586.718866366038128 208.900063840945222 464.280639952150523 420.944854265015238 341.842413538259279 632.989767702023528 464.280639952150523 632.989767702023528 466.638736560751568 420.944854265015238 589.076962974631897"/><line class="cls-1" x1="420.944854265015238" y1="586.718866366038128" x2="632.989767702023528" y2="464.280639952150523"/><line class="cls-2" x1="218.438629150390625" y1="264.19036865234375" x2="218.438629150390625" y2="378.165557861328125"/><polygon class="cls-4" points="216.587066650390625 376.761260986328125 218.438629150390625 377.547882080078125 220.290191650390625 376.761260986328125 218.438629150390625 381.150421142578125 216.587066650390625 376.761260986328125"/><line class="cls-2" x1="625.33880615234375" y1="270.08453369140625" x2="625.33880615234375" y2="384.059722900390625"/><polygon class="cls-4" points="623.48724365234375 382.655426025390625 625.33880615234375 383.442047119140625 627.19036865234375 382.655426025390625 625.33880615234375 387.044586181640625 623.48724365234375 382.655426025390625"/></svg>