<?xml version="1.0" encoding="UTF-8"?><svg id="Layer_1" xmlns="http://www.w3.org/2000/svg" viewBox="0 0 841.89 595.28"><defs><style>.cls-1{fill:#d2155b;}.cls-2{stroke:#d2155b;stroke-dasharray:0 0 3 3;stroke-width:.5px;}.cls-2,.cls-3{fill:none;stroke-linecap:round;stroke-linejoin:round;}.cls-3{stroke:#000;stroke-width:.25px;}</style></defs><line class="cls-2" x1="211.37" y1="242.05" x2="211.37" y2="359.86"/><polygon class="cls-1" points="209.52 358.45 211.37 359.24 213.23 358.45 211.37 362.84 209.52 358.45"/><polyline class="cls-3" points="426.02 255.71 206.04 128.62 206.04 134.54 426.02 261.36 426.02 255.71"/><polyline class="cls-3" points="206.04 128.62 426.02 1.81 645.72 128.62 645.72 134.54"/><line class="cls-3" x1="645.72" y1="128.62" x2="426.02" y2="255.71"/><line class="cls-3" x1="426.02" y1="261.36" x2="645.72" y2="134.54"/><line class="cls-2" x1="640.17" y1="251.19" x2="640.17" y2="369"/><polygon class="cls-1" points="638.32 367.59 640.17 368.38 642.03 367.59 640.17 371.98 638.32 367.59"/><polyline class="cls-3" points="275.41 456.71 399.43 385.15 399.43 382.71 273.35 455.59 294.71 467.95 420.97 395.08"/><line class="cls-3" x1="399.43" y1="385.15" x2="418.73" y2="396.2"/><line class="cls-3" x1="399.43" y1="382.71" x2="420.97" y2="395.08"/><line class="cls-3" x1="535.62" y1="463.64" x2="554.92" y2="474.88"/><polyline class="cls-3" points="411.42 535.39 535.62 463.64 535.62 461.4 556.98 473.57"/><polyline class="cls-3" points="556.98 473.57 430.71 546.45 409.36 534.27 535.62 461.4"/><polyline class="cls-3" points="196.17 464.58 196.17 467.02 415.17 593.47 415.17 591.03 196.17 464.58 415.17 338.13 634.16 464.58 634.16 467.02 415.17 593.47"/><line class="cls-3" x1="415.17" y1="591.03" x2="634.16" y2="464.58"/></svg>