<?xml version="1.0" encoding="UTF-8"?><svg id="Layer_1" xmlns="http://www.w3.org/2000/svg" viewBox="0 0 842.304348 408.246377"><polyline points="278.620497 88.313523 278.620497 122.664305 424.21092 38.656189 424.21092 4.305407 278.620497 88.313523" style="fill:none; stroke:#000; stroke-linecap:round; stroke-linejoin:round; stroke-width:.25px;"/><line x1="275.2388" y1="120.706507" x2="278.620497" y2="122.664305" style="fill:none; stroke:#000; stroke-linecap:round; stroke-linejoin:round; stroke-width:.25px;"/><polyline points="275.2388 120.706507 275.2388 86.355725 278.620497 88.313523" style="fill:none; stroke:#000; stroke-linecap:round; stroke-linejoin:round; stroke-width:.25px;"/><polyline points="424.21092 4.305407 420.829192 2.34761 275.2388 86.355725" style="fill:none; stroke:#000; stroke-linecap:round; stroke-linejoin:round; stroke-width:.25px;"/><polyline points="420.829192 170.3639 417.447525 168.406042 417.447525 202.756824 420.829192 204.714682 420.829192 170.3639" style="fill:none; stroke:#000; stroke-linecap:round; stroke-linejoin:round; stroke-width:.25px;"/><polyline points="417.447525 168.406042 562.859941 84.397927 566.241608 86.355725 566.241608 120.706507" style="fill:none; stroke:#000; stroke-linecap:round; stroke-linejoin:round; stroke-width:.25px;"/><line x1="566.241608" y1="86.355725" x2="420.829192" y2="170.3639" style="fill:none; stroke:#000; stroke-linecap:round; stroke-linejoin:round; stroke-width:.25px;"/><line x1="420.829192" y1="204.714682" x2="566.241608" y2="120.706507" style="fill:none; stroke:#000; stroke-linecap:round; stroke-linejoin:round; stroke-width:.25px;"/><polyline points="421.241789 402.13474 274.804359 317.534451 274.804359 321.477647 421.241789 405.898767 421.241789 402.13474" style="fill:none; stroke:#000; stroke-linecap:round; stroke-linejoin:round; stroke-width:.25px;"/><polyline points="274.804359 317.534451 421.241789 233.113331 567.499989 317.534451 567.499989 321.477647" style="fill:none; stroke:#000; stroke-linecap:round; stroke-linejoin:round; stroke-width:.25px;"/><line x1="567.499989" y1="317.534451" x2="421.241789" y2="402.13474" style="fill:none; stroke:#000; stroke-linecap:round; stroke-linejoin:round; stroke-width:.25px;"/><line x1="421.241789" y1="405.898767" x2="567.499989" y2="321.477647" style="fill:none; stroke:#000; stroke-linecap:round; stroke-linejoin:round; stroke-width:.25px;"/><polyline points="328.117541 313.457542 410.676383 265.817848 410.676383 264.196582 326.745646 312.709304 340.962751 320.940256 425.018237 272.427533" style="fill:none; stroke:#e10b17; stroke-dasharray:1; stroke-linecap:round; stroke-linejoin:round; stroke-width:.5px;"/><line x1="410.676383" y1="265.817848" x2="423.521677" y2="273.175813" style="fill:none; stroke:#e10b17; stroke-dasharray:1; stroke-linecap:round; stroke-linejoin:round; stroke-width:.5px;"/><line x1="410.676383" y1="264.196582" x2="425.018237" y2="272.427533" style="fill:none; stroke:#e10b17; stroke-dasharray:1; stroke-linecap:round; stroke-linejoin:round; stroke-width:.5px;"/><line x1="501.341512" y1="318.071885" x2="514.186807" y2="325.554556" style="fill:none; stroke:#e10b17; stroke-dasharray:1; stroke-linecap:round; stroke-linejoin:round; stroke-width:.5px;"/><polyline points="418.657922 365.836327 501.341512 318.071885 501.341512 316.575325 515.558618 324.68157" style="fill:none; stroke:#e10b17; stroke-dasharray:1; stroke-linecap:round; stroke-linejoin:round; stroke-width:.5px;"/><polyline points="515.558618 324.68157 431.503216 373.194292 417.286111 365.088047 501.341512 316.575325" style="fill:none; stroke:#e10b17; stroke-dasharray:1; stroke-linecap:round; stroke-linejoin:round; stroke-width:.5px;"/><polyline points="275.364637 318.695416 275.364637 320.316682 421.152132 404.496832 421.152132 402.875566 275.364637 318.695416 421.152132 234.515266 566.939711 318.695416 566.939711 320.316682 421.152132 404.496832" style="fill:none; stroke:#e10b17; stroke-dasharray:1; stroke-linecap:round; stroke-linejoin:round; stroke-width:.5px;"/><line x1="421.152132" y1="402.875566" x2="566.939711" y2="318.695416" style="fill:none; stroke:#e10b17; stroke-dasharray:1; stroke-linecap:round; stroke-linejoin:round; stroke-width:.5px;"/><line x1="281.9227" y1="181.127039" x2="281.9227" y2="257.063471" style="fill:none; stroke:#d2155b; stroke-dasharray:3 3; stroke-linecap:round; stroke-linejoin:round; stroke-width:.75px;"/><polygon points="279.145356 254.957026 281.9227 256.136957 284.700044 254.957026 281.9227 261.540766 279.145356 254.957026" style="fill:#d2155b;"/><line x1="561.679444" y1="185.179438" x2="561.679444" y2="261.11587" style="fill:none; stroke:#d2155b; stroke-dasharray:3 3; stroke-linecap:round; stroke-linejoin:round; stroke-width:.75px;"/><polygon points="558.902101 259.009455 561.679444 260.189387 564.456788 259.009455 561.679444 265.593195 558.902101 259.009455" style="fill:#d2155b;"/></svg>