<?xml version="1.0" encoding="utf-8"?>
<!-- Generator: Adobe Adobe Illustrator 29.2.0, SVG Export Plug-In . SVG Version: 6.00 Build 0)  -->
<svg version="1.1" id="Layer_1" xmlns="http://www.w3.org/2000/svg" xmlns:xlink="http://www.w3.org/1999/xlink" x="0px" y="0px" width="96px" height="96px"
	 viewBox="0 0 96 96" style="enable-background:new 0 0 96 96;" xml:space="preserve">
<g>
	<g>
		<path d="M79.8,93.3c-7.8,0-14.2-6.4-14.2-14.2S72,65,79.8,65c0.8,0,1.4,0.6,1.4,1.4c0,0.8-0.6,1.4-1.4,1.4
			c-6.2,0-11.3,5.1-11.3,11.3c0,6.2,5.1,11.3,11.3,11.3s11.3-5.1,11.3-11.3c0-0.8,0.6-1.4,1.4-1.4s1.4,0.6,1.4,1.4
			C94,86.9,87.6,93.3,79.8,93.3z"/>
	</g>
	<g>
		<path d="M78.4,86.2c-0.4,0-0.7-0.1-1-0.4l-5.7-5.7c-0.6-0.6-0.6-1.4,0-2c0.6-0.6,1.4-0.6,2,0l4.6,4.6l13.2-15.8
			c0.5-0.6,1.4-0.7,2-0.2c0.6,0.5,0.7,1.4,0.2,2l-14.2,17C79.3,86,78.9,86.2,78.4,86.2C78.5,86.2,78.5,86.2,78.4,86.2z"/>
	</g>
	<g>
		<path d="M79.8,56.5c-4.7,0-8.5-3.8-8.5-8.5s3.8-8.5,8.5-8.5c4.7,0,8.5,3.8,8.5,8.5S84.5,56.5,79.8,56.5z M79.8,42.3
			c-3.1,0-5.7,2.5-5.7,5.7s2.5,5.7,5.7,5.7s5.7-2.5,5.7-5.7S83,42.3,79.8,42.3z"/>
	</g>
	<g>
		<path d="M48.7,56.5c-4.7,0-8.5-3.8-8.5-8.5s3.8-8.5,8.5-8.5s8.5,3.8,8.5,8.5S53.4,56.5,48.7,56.5z M48.7,42.3
			c-3.1,0-5.7,2.5-5.7,5.7s2.5,5.7,5.7,5.7s5.7-2.5,5.7-5.7S51.8,42.3,48.7,42.3z"/>
	</g>
	<g>
		<path d="M48.7,25.4c-4.7,0-8.5-3.8-8.5-8.5s3.8-8.5,8.5-8.5s8.5,3.8,8.5,8.5S53.4,25.4,48.7,25.4z M48.7,11.2
			c-3.1,0-5.7,2.5-5.7,5.7s2.5,5.7,5.7,5.7s5.7-2.5,5.7-5.7S51.8,11.2,48.7,11.2z"/>
	</g>
	<g>
		<path d="M17.6,25.4c-4.7,0-8.5-3.8-8.5-8.5s3.8-8.5,8.5-8.5s8.5,3.8,8.5,8.5S22.3,25.4,17.6,25.4z M17.6,11.2
			c-3.1,0-5.7,2.5-5.7,5.7s2.5,5.7,5.7,5.7s5.7-2.5,5.7-5.7S20.7,11.2,17.6,11.2z"/>
	</g>
	<g>
		<path d="M10.5,18.3H3.4c-0.8,0-1.4-0.6-1.4-1.4s0.6-1.4,1.4-1.4h7.1c0.8,0,1.4,0.6,1.4,1.4S11.3,18.3,10.5,18.3z"/>
	</g>
	<g>
		<path d="M41.6,18.3h-17c-0.8,0-1.4-0.6-1.4-1.4s0.6-1.4,1.4-1.4h17c0.8,0,1.4,0.6,1.4,1.4S42.4,18.3,41.6,18.3z"/>
	</g>
	<g>
		<path d="M48.7,42.3c-0.8,0-1.4-0.6-1.4-1.4v-17c0-0.8,0.6-1.4,1.4-1.4c0.8,0,1.4,0.6,1.4,1.4v17C50.1,41.7,49.5,42.3,48.7,42.3z"
			/>
	</g>
	<g>
		<path d="M72.8,49.4h-17c-0.8,0-1.4-0.6-1.4-1.4s0.6-1.4,1.4-1.4h17c0.8,0,1.4,0.6,1.4,1.4S73.5,49.4,72.8,49.4z"/>
	</g>
	<g>
		<path d="M79.8,62.2c-0.8,0-1.4-0.6-1.4-1.4v-5.7c0-0.8,0.6-1.4,1.4-1.4s1.4,0.6,1.4,1.4v5.7C81.3,61.5,80.6,62.2,79.8,62.2z"/>
	</g>
	<g>
		<path d="M48.7,94.7c-0.8,0-1.4-0.6-1.4-1.4V60.7c0-0.8,0.6-1.4,1.4-1.4c0.8,0,1.4,0.6,1.4,1.4v32.6C50.1,94.1,49.5,94.7,48.7,94.7
			z"/>
	</g>
	<g>
		<path d="M17.6,94.7c-0.8,0-1.4-0.6-1.4-1.4V29.6c0-0.8,0.6-1.4,1.4-1.4s1.4,0.6,1.4,1.4v63.7C19,94.1,18.3,94.7,17.6,94.7z"/>
	</g>
	<g>
		<path d="M17.6,5.5c-0.8,0-1.4-0.6-1.4-1.4V2.7c0-0.8,0.6-1.4,1.4-1.4S19,1.9,19,2.7v1.4C19,4.9,18.3,5.5,17.6,5.5z"/>
	</g>
	<g>
		<path d="M48.7,5.5c-0.8,0-1.4-0.6-1.4-1.4V2.7c0-0.8,0.6-1.4,1.4-1.4c0.8,0,1.4,0.6,1.4,1.4v1.4C50.1,4.9,49.5,5.5,48.7,5.5z"/>
	</g>
	<g>
		<path d="M79.8,36.7c-0.8,0-1.4-0.6-1.4-1.4V2.7c0-0.8,0.6-1.4,1.4-1.4s1.4,0.6,1.4,1.4v32.6C81.3,36,80.6,36.7,79.8,36.7z"/>
	</g>
</g>
</svg>
