<?xml version="1.0" encoding="utf-8"?>
<!-- Generator: Adobe Adobe Illustrator 29.2.0, SVG Export Plug-In . SVG Version: 6.00 Build 0)  -->
<svg version="1.1" id="Layer_1" xmlns="http://www.w3.org/2000/svg" xmlns:xlink="http://www.w3.org/1999/xlink" x="0px" y="0px"
	 width="96px" height="96px" viewBox="0 0 96 96" style="enable-background:new 0 0 96 96;" xml:space="preserve">
<g>
	<path d="M89,85.3H7c-2.7,0-5-2.2-5-5V15.7c0-2.7,2.2-5,5-5h82c2.7,0,5,2.2,5,5v64.7C94,83.1,91.8,85.3,89,85.3L89,85.3z M7,13.8
		c-1,0-1.8,0.8-1.8,1.8v64.7c0,1,0.8,1.8,1.8,1.8h82c1,0,1.8-0.8,1.8-1.8l0-64.7c0-1-0.8-1.8-1.8-1.8L7,13.8z"/>
	<path d="M92.4,30.8H3.6c-0.9,0-1.6-0.7-1.6-1.6c0-0.9,0.7-1.6,1.6-1.6h88.9c0.9,0,1.6,0.7,1.6,1.6C94,30.1,93.3,30.8,92.4,30.8z"/>
	<path d="M16.1,20.9c0,2.7-4,2.7-4,0S16.1,18.2,16.1,20.9"/>
	<path d="M14.1,24.5c-2,0-3.6-1.6-3.6-3.6s1.6-3.6,3.6-3.6s3.6,1.6,3.6,3.6S16.1,24.5,14.1,24.5z M14.1,20.4c-0.2,0-0.4,0.2-0.4,0.4
		s0.2,0.4,0.4,0.4s0.4-0.2,0.4-0.4S14.4,20.4,14.1,20.4z"/>
	<path d="M27.1,20.9c0,2.7-4,2.7-4,0S27.1,18.2,27.1,20.9"/>
	<path d="M25.1,24.5c-2,0-3.6-1.6-3.6-3.6s1.6-3.6,3.6-3.6s3.6,1.6,3.6,3.6S27,24.5,25.1,24.5z M25.1,20.4c-0.2,0-0.4,0.2-0.4,0.4
		s0.2,0.4,0.4,0.4s0.4-0.2,0.4-0.4S25.3,20.4,25.1,20.4z"/>
	<path d="M38,20.9c0,2.7-4,2.7-4,0S38,18.2,38,20.9"/>
	<path d="M36,24.5c-2,0-3.6-1.6-3.6-3.6s1.6-3.6,3.6-3.6s3.6,1.6,3.6,3.6S38,24.5,36,24.5z M36,20.4c-0.2,0-0.4,0.2-0.4,0.4
		s0.2,0.4,0.4,0.4c0.2,0,0.4-0.2,0.4-0.4S36.2,20.4,36,20.4z"/>
	<path d="M32.6,66.1c-0.4,0-0.8-0.2-1.1-0.5L22,56.1c-0.6-0.6-0.6-1.6,0-2.2l9.2-9.2c0.6-0.6,1.6-0.6,2.2,0c0.6,0.6,0.6,1.6,0,2.2
		L25.3,55l8.4,8.4c0.6,0.6,0.6,1.6,0,2.2C33.5,65.9,33,66.1,32.6,66.1L32.6,66.1z"/>
	<path d="M64.1,66.1c-0.4,0-0.8-0.2-1.1-0.5c-0.6-0.6-0.6-1.6,0-2.2l8.4-8.4l-8.1-8.1c-0.6-0.6-0.6-1.6,0-2.2c0.6-0.6,1.6-0.6,2.2,0
		l9.2,9.2c0.3,0.3,0.5,0.7,0.5,1.1s-0.2,0.8-0.5,1.1l-9.5,9.5C65,65.9,64.5,66.1,64.1,66.1L64.1,66.1z"/>
	<path d="M40.4,70c-0.3,0-0.5-0.1-0.8-0.2c-0.8-0.4-1-1.4-0.6-2.1L54.2,41c0.4-0.8,1.4-1,2.1-0.6c0.8,0.4,1,1.4,0.6,2.1L41.8,69.2
		C41.5,69.7,41,70,40.4,70L40.4,70z"/>
</g>
</svg>
