<?xml version="1.0" standalone="yes"?><!DOCTYPE svg PUBLIC "-//W3C//DTD SVG 1.1//EN" "http://www.w3.org/Graphics/SVG/1.1/DTD/svg11.dtd"[
<!ENTITY E11 'matrix(1.00 0.00 0.00 1.00 84.00 4.00 ) '><!ENTITY E7 'stroke:none;opacity:1;fill:rgb(255,255,255);'><!ENTITY E4 'stroke:rgb(169,169,169);fill:none;stroke-linecap:butt;stroke-miterlimit:9;opacity:1;stroke-width:2;stroke-linejoin:miter;'><!ENTITY E5 'matrix(1.00 0.00 0.00 1.00 164.00 4.00 ) '><!ENTITY E21 'matrix(1.00 0.00 0.00 1.00 4.00 4.00 ) '><!ENTITY E15 'stroke:none;fill-rule:evenodd;opacity:1;fill:rgb(255,255,255);'><!ENTITY E9 'matrix(1.00 0.00 0.00 1.00 0.00 0.00 ) '>
]><svg width="215.3092" height="80.47558" id="SvgGdi_output" xmlns="http://www.w3.org/2000/svg" xmlns:xlink="http://www.w3.org/1999/xlink"><rect id="background" height="100.00%" style="fill:rgb(255,255,255);" width="100.00%" y="0.00" x="0.00" /><g style="shape-rendering:auto;" id="root_group"><line y1="19.00" id="80" x2="160.00" y2="19.00" x1="118.00" style="stroke:rgb(169,169,169);fill:none;stroke-linecap:butt;stroke-miterlimit:9;opacity:1;stroke-width:1;stroke-linejoin:miter;" /><line y1="19.00" id="81" x2="80.00" y2="19.00" x1="38.00" style="stroke-dasharray:4.00 2.00 ;stroke:rgb(169,169,169);fill:none;stroke-linecap:butt;stroke-miterlimit:9;opacity:1;stroke-width:1;stroke-linejoin:miter;" /><path style="&E4;" transform="&E5;" id="82" d="M 10.158 33.2 C 3.4054 31.7591 -1.861 26.4692 -3.271 19.71 " /><ellipse id="83" cy="15.00" cx="15.00" transform="&E5;" rx="15.00" ry="15.00" style="stroke:none;opacity:1;fill:rgb(155,91,179);" /><ellipse id="84" cy="9.06" cx="15.01" transform="&E5;" rx="3.50" ry="3.50" style="&E7;" /><ellipse id="85" cy="18.49" cx="9.12" transform="&E5;" rx="3.50" ry="3.50" style="&E7;" /><ellipse id="86" cy="18.46" cx="20.88" transform="&E5;" rx="3.50" ry="3.50" style="&E7;" /><text id="87" transform="&E9;" x="164.00px" y="39.00px" style="stroke:none;clip-path:url(#89_text_clipper);font-family:Microsoft Sans Serif;fill:rgb(0,0,0);font-size:8.25pt;opacity:1;"><tspan dy="8.25pt" id="91">Workflow</tspan></text><text id="93" transform="&E9;" x="164.00px" y="51.45px" style="stroke:none;clip-path:url(#95_text_clipper);font-family:Microsoft Sans Serif;fill:rgb(0,0,0);font-size:8.25pt;opacity:1;"><tspan dy="8.25pt" id="97">Output</tspan></text><ellipse id="99" cy="15.00" cx="15.00" transform="&E11;" rx="15.00" ry="15.00" style="stroke:none;opacity:1;fill:rgb(238,192,75);" /><path style="&E4;" transform="&E11;" id="100" d="M 1.5363 7.8 C 1.99103 6.9385 2.52798 6.1205 3.1403 5.3587 3.7527 4.5967 4.4403 3.8909 5.1968 3.254 5.95315 2.617 6.7782 2.049 7.665299 1.5627 M 0.4537992 19.4997 C 0.1435492 18.4956 -0.05714077 17.4835 -0.1564507 16.4769 -0.2551987 15.4701 -0.2516447 14.4684 -0.1525816 13.4844 -0.05334165 12.5007 0.1414284 11.5347 0.4251484 10.5993 M 7.892348 28.3993 C 7.030958 27.9447 6.212848 27.4077 5.450948 26.7954 4.689008 26.1831 3.983248 25.4954 3.346348 24.739 2.709558 23.9826 2.141548 23.1575 1.655148 22.2704 M 19.49415 29.4993 C 18.48995 29.8096 17.47785 30.0103 16.47125 30.1096 15.46445 30.2084 14.46285 30.2049 13.47895 30.1018 12.49507 30.0028 11.52915 29.8079 10.59365 29.5242 M 28.46365 22.0993 C 28.00892 22.9606 27.472 23.7788 26.85965 24.5407 26.24738 25.3026 25.55945 26.0084 24.80315 26.6453 24.0468 27.2822 23.22175 27.8502 22.33465 28.3365 M 29.54565 10.4995 C 29.85594 11.5037 30.05659 12.5157 30.15594 13.5224 30.25481 14.5292 30.25114 15.531 30.15199 16.5147 30.05279 17.4986 29.85802 18.4646 29.5743 19.4 M 22.10769 1.499998 C 22.96908 1.954698 23.7872 2.491698 24.5491 3.103898 25.31104 3.716298 26.0168 4.404098 26.65369 5.160398 27.29052 5.916898 27.85859 6.741898 28.34499 7.629098 M 10.50499 0.3999977 C 11.50919 0.08969772 12.52109 -0.1109023 13.52779 -0.2103023 14.53469 -0.3090023 15.53619 -0.3055023 16.52009 -0.2103023 17.50401 -0.1111023 18.46999 0.08369771 19.40549 0.3673977 " /><path style="&E15;" transform="&E11;" id="101" d="M 17.123 5.8594 17.123 10.1836 C 17.123 10.70128 17.50571 11.08204 18.02339 11.08204 L 22.12889 11.08204 z " /><path style="&E15;" transform="&E11;" id="102" d="M 12.084 18.254 C 13.1854 18.254 14.082 19.14872 14.082 20.2501 14.082 21.3515 13.18533 22.2481 12.084 22.2481 10.9826 22.2481 10.086 21.35143 10.086 20.2501 10.086 19.1487 10.98267 18.254 12.084 18.254 z M 17.7832 18.23837 C 18.8846 18.23837 19.7812 19.13504 19.7812 20.23637 19.7812 21.3377 18.88453 22.23437 17.7832 22.23437 16.68187 22.23437 15.7852 21.3377 15.7852 20.23637 15.7852 19.13504 16.68187 18.23837 17.7832 18.23837 z M 14.9414 13.67978 C 16.0428 13.67978 16.9394 14.57645 16.9394 15.67778 16.9394 16.77917 16.04273 17.67578 14.9414 17.67578 13.84007 17.67578 12.9434 16.77911 12.9434 15.67778 12.9434 14.57638 13.84007 13.67978 14.9414 13.67978 z M 10.8828 5.205175 C 9.175499 5.205175 7.765599 6.615075 7.765599 8.322375 L 7.765599 20.56638 C 7.765599 22.27368 9.175499 23.68158 10.8828 23.68158 L 19.6484 23.68158 C 21.3557 23.68158 22.7656 22.27357 22.7656 20.56638 L 22.7656 13.29878 18.0234 13.29878 C 16.3161 13.29878 14.9062 11.89078 14.9062 10.18358 L 14.9062 5.205076 z " /><text id="103" transform="&E9;" x="84.00px" y="39.00px" style="stroke:none;clip-path:url(#105_text_clipper);font-family:Microsoft Sans Serif;fill:rgb(0,0,0);font-size:8.25pt;opacity:1;"><tspan dy="8.25pt" id="107">Position</tspan></text><text id="109" transform="&E9;" x="84.00px" y="51.45px" style="stroke:none;clip-path:url(#111_text_clipper);font-family:Microsoft Sans Serif;fill:rgb(0,0,0);font-size:8.25pt;opacity:1;"><tspan dy="8.25pt" id="113">Tracking</tspan></text><path transform="&E21;" id="115" style="stroke:none;fill-rule:evenodd;opacity:1;fill:rgb(128,128,128);" d="M 15 0 C 15.40124 0 15.79355 0 16.1868 0.032679 L 17.4764 1.671279 C 18.19501 1.803959 18.878 1.976879 19.5521 2.217729 L 21.4286 1.483419 C 22.13968 1.823279 22.8289 2.226899 23.4726 2.670219 L 23.8493 4.621219 C 24.39461 5.086599 24.9133 5.605469 25.3788 6.150719 L 27.3298 6.494379 C 27.77262 7.137679 28.17707 7.860779 28.5166 8.57128 L 27.74584 10.44788 C 27.98674 11.12204 28.19601 11.80508 28.32852 12.52348 L 29.96712 13.81308 C 29.99807 14.2062 30.00009 14.59888 30.00009 14.99988 30.00009 15.39224 29.99671 15.76908 29.96712 16.15388 L 28.32852 17.43998 C 28.19832 18.14633 28.01721 18.85248 27.78226 19.51558 L 28.51657 21.42868 C 28.17593 22.14291 27.77461 22.82648 27.32977 23.47268 L 25.37877 23.81302 C 24.91321 24.35829 24.39455 24.87682 23.84927 25.34242 L 23.47257 27.32992 C 22.82847 27.77371 22.14007 28.17669 21.42857 28.51662 L 19.51567 27.74597 C 18.85121 27.98162 18.18377 28.19809 17.47627 28.32876 L 16.18677 29.93436 C 15.79348 29.965 15.40117 29.99982 14.99997 29.99982 14.59873 29.99982 14.17345 29.96607 13.78017 29.93436 L 12.55997 28.32876 C 11.86172 28.19999 11.14067 27.977 10.48427 27.74597 L 8.571372 28.51662 C 7.856242 28.17558 7.174472 27.7755 6.527372 27.32992 L 6.150662 25.30622 C 5.617232 24.84794 5.114162 24.34789 4.657562 23.81302 L 2.670162 23.47268 C 2.225282 22.82649 1.823962 22.14288 1.483362 21.42868 L 2.254122 19.51558 C 2.022912 18.85918 1.800192 18.13838 1.671442 17.43998 L 0.06584227 16.18678 C 0.03489427 15.79366 -9.272993E-05 15.4013 -9.272993E-05 14.99998 -9.272993E-05 14.59894 0.03489527 14.20625 0.06584227 13.81318 L 1.671442 12.52358 C 1.801892 11.81616 2.018542 11.14888 2.254122 10.48438 L 1.483362 8.571277 C 1.822922 7.860797 2.227392 7.137677 2.670162 6.494377 L 4.657562 6.150717 C 5.114192 5.615747 5.617242 5.115817 6.150662 4.657517 L 6.527372 2.670117 C 7.174102 2.224717 7.856672 1.824207 8.571372 1.483317 L 10.48427 2.217627 C 11.14757 1.982687 11.85387 1.801607 12.55997 1.671177 L 13.84607 0.0325768 C 14.23082 0.003004799 14.60761 -0.0001021996 14.99987 -0.0001021996 z " /><path transform="&E21;" id="116" style="stroke:rgb(255,255,255);fill:none;stroke-linecap:butt;stroke-miterlimit:9;opacity:1;stroke-width:2;stroke-linejoin:miter;" d="M 16.849 10.062 23.4027 10.062 M 16.6038 19.6084 23.3505 19.6084 M 12.3075 17.1615 7.5719 21.8971 M 7.577335 17.152 12.31704 21.8917 M 6.564136 10.0047 13.30904 10.0047 M 9.936636 6.6288 9.936636 13.3806 " /><ellipse id="117" cy="16.33" cx="19.93" transform="&E21;" rx="1.30" ry="1.30" style="&E7;" /><ellipse id="118" cy="22.83" cx="19.93" transform="&E21;" rx="1.30" ry="1.30" style="&E7;" /><text id="119" transform="&E9;" x="4.00px" y="39.00px" style="stroke:none;clip-path:url(#121_text_clipper);font-family:Microsoft Sans Serif;fill:rgb(0,0,0);font-size:8.25pt;opacity:1;"><tspan dy="8.25pt" id="123">Mask,</tspan></text><text id="125" transform="&E9;" x="4.00px" y="51.45px" style="stroke:none;clip-path:url(#127_text_clipper);font-family:Microsoft Sans Serif;fill:rgb(0,0,0);font-size:8.25pt;opacity:1;"><tspan dy="8.25pt" id="129">Threshold</tspan></text><text id="131" transform="&E9;" x="4.00px" y="63.90px" style="stroke:none;clip-path:url(#133_text_clipper);font-family:Microsoft Sans Serif;fill:rgb(0,0,0);font-size:8.25pt;opacity:1;"><tspan dy="8.25pt" id="135">Value,Tracking</tspan></text></g><defs id="clips_hatches_and_gradients"><clipPath id="89_text_clipper"><rect x="164.00" y="39.00" width="50.31" height="27.65" id="90" /></clipPath><clipPath id="95_text_clipper"><rect x="164.00" y="51.45" width="50.31" height="27.65" id="96" /></clipPath><clipPath id="105_text_clipper"><rect x="84.00" y="39.00" width="47.18" height="27.65" id="106" /></clipPath><clipPath id="111_text_clipper"><rect x="84.00" y="51.45" width="47.18" height="27.65" id="112" /></clipPath><clipPath id="121_text_clipper"><rect x="4.00" y="39.00" width="79.36" height="41.48" id="122" /></clipPath><clipPath id="127_text_clipper"><rect x="4.00" y="51.45" width="79.36" height="41.48" id="128" /></clipPath><clipPath id="133_text_clipper"><rect x="4.00" y="63.90" width="79.36" height="41.48" id="134" /></clipPath></defs></svg>