<?xml version="1.0" standalone="yes"?><!DOCTYPE svg PUBLIC "-//W3C//DTD SVG 1.1//EN" "http://www.w3.org/Graphics/SVG/1.1/DTD/svg11.dtd"[
<!ENTITY E16 'stroke:none;opacity:1;fill:rgb(68,154,223);'><!ENTITY E19 'M 11.529 25.444 20.7834 12.908 16.3203 12.908 18.355 4.7687 9.100601 17.3047 13.5637 17.3047 z '><!ENTITY E33 'stroke:none;opacity:1;fill:rgb(91,178,126);'><!ENTITY E25 'matrix(1.00 0.00 0.00 1.00 84.00 4.00 ) '><!ENTITY E10 'matrix(1.00 0.00 0.00 1.00 0.00 0.00 ) '><!ENTITY E7 'stroke:none;fill-rule:evenodd;opacity:1;fill:rgb(255,255,255);'><!ENTITY E5 'stroke:rgb(169,169,169);fill:none;stroke-linecap:butt;stroke-miterlimit:9;opacity:1;stroke-width:2;stroke-linejoin:miter;'><!ENTITY E41 'matrix(1.00 0.00 0.00 1.00 84.00 244.00 ) '><!ENTITY E28 'M 5.5001 19.484 10.6493 19.484 16.2743 10.2485 19.3728 10.2485 M 14.6769 17.1481 16.3089 19.4828 19.2202 19.4828 M 5.500199 10.2437 10.7586 10.2437 12.1652 12.8707 '><!ENTITY E26 'M 19.156 13.888 19.156 10.3647 19.156 6.841399 25.2585 10.3647 22.2072 12.1264 z '><!ENTITY E27 'M 19.156 22.97 19.156 19.4467 19.156 15.9234 25.2585 19.4467 22.2072 21.2084 z '><!ENTITY E29 'stroke:rgb(255,255,255);fill:none;stroke-linecap:butt;stroke-miterlimit:9;opacity:1;stroke-width:2;stroke-linejoin:miter;'><!ENTITY E1 'stroke:rgb(169,169,169);fill:none;stroke-linecap:butt;stroke-miterlimit:9;opacity:1;stroke-width:1;stroke-linejoin:miter;'><!ENTITY E32 'matrix(1.00 0.00 0.00 1.00 84.00 84.00 ) '><!ENTITY E23 'matrix(1.00 0.00 0.00 1.00 164.00 244.00 ) '><!ENTITY E2 'matrix(1.00 0.00 0.00 1.00 324.00 4.00 ) '><!ENTITY E11 'matrix(1.00 0.00 0.00 1.00 244.00 4.00 ) '><!ENTITY E35 'M 11.656 8.2 11.99975 8.7 16.31225 14.7937 11.65605 21.4187 11.28105 21.9187 14.74985 21.9187 14.8436 21.7624 17.9998 17.0124 18.46855 17.7 21.15605 21.7624 21.2498 21.9187 24.7498 21.9187 24.40605 21.4187 19.65605 14.6687 24.06225 8.699997 24.406 8.199997 20.9998 8.199997 20.90605 8.324997 18.68725 11.4187 C 18.46251 11.7285 18.22333 12.1062 17.9685 12.4812 17.77046 12.1547 17.58677 11.8424 17.31225 11.4187 L 15.28105 8.356197 15.1873 8.199997 11.6561 8.199997 z '><!ENTITY E44 'matrix(1.00 0.00 0.00 1.00 4.00 4.00 ) '><!ENTITY E18 'matrix(1.00 0.00 0.00 1.00 164.00 84.00 ) '><!ENTITY E47 'matrix(1.00 0.00 0.00 1.00 4.00 164.00 ) '><!ENTITY E38 'matrix(1.00 0.00 0.00 1.00 84.00 164.00 ) '><!ENTITY E3 'stroke:none;opacity:1;fill:rgb(238,192,75);'><!ENTITY E34 'M 4.4028 13 4.93347 11.3266 C 6.15637 11.7667 7.04467 12.1477 7.598371 12.4698 7.45224 11.0476 7.37533 10.0696 7.36764 9.5352 L 9.040441 9.5352 C 9.017365 10.3131 8.92891 11.2873 8.775101 12.4581 9.567261 12.0495 10.4748 11.6723 11.4977 11.3266 L 12.02837 13 C 11.05162 13.3302 10.09407 13.5502 9.155771 13.6601 9.624911 14.0766 10.28637 14.819 11.14007 15.8877 L 9.755671 16.8894 C 9.30959 16.2687 8.782761 15.4241 8.175171 14.3554 7.606041 15.4633 7.106171 16.308 6.675471 16.8894 L 5.314171 15.8877 C 6.206311 14.7642 6.844671 14.0216 7.229171 13.6601 6.237041 13.4637 5.294871 13.2437 4.402771 13 z '><!ENTITY E31 'M 31.179 5.2 C 34.9985 11.0918 34.9814 18.682 31.13552 24.557 '>
]><svg width="398.5714" height="306.6504" id="SvgGdi_output" xmlns="http://www.w3.org/2000/svg" xmlns:xlink="http://www.w3.org/1999/xlink"><rect id="background" height="100.00%" style="fill:rgb(255,255,255);" width="100.00%" y="0.00" x="0.00" /><g style="shape-rendering:auto;" id="root_group"><line y1="19.00" style="&E1;" id="57" x2="320.00" y2="19.00" x1="278.00" /><line y1="19.00" style="&E1;" id="58" x2="240.00" y2="19.00" x1="198.00" /><line y1="99.00" style="&E1;" id="59" x2="240.00" y2="19.00" x1="198.00" /><line y1="179.00" style="&E1;" id="60" x2="240.00" y2="19.00" x1="198.00" /><line y1="259.00" style="&E1;" id="61" x2="240.00" y2="19.00" x1="198.00" /><line y1="19.00" style="&E1;" id="62" x2="160.00" y2="19.00" x1="118.00" /><line y1="99.00" style="&E1;" id="63" x2="160.00" y2="99.00" x1="118.00" /><line y1="179.00" style="&E1;" id="64" x2="160.00" y2="179.00" x1="118.00" /><line y1="259.00" style="&E1;" id="65" x2="160.00" y2="259.00" x1="118.00" /><line y1="19.00" style="&E1;" id="66" x2="80.00" y2="19.00" x1="38.00" /><line y1="179.00" style="&E1;" id="67" x2="80.00" y2="179.00" x1="38.00" /><ellipse id="68" cy="15.00" cx="15.00" transform="&E2;" rx="15.00" ry="15.00" style="&E3;" /><path style="&E5;" transform="&E2;" id="69" d="M 1.5363 7.8 C 1.99103 6.9385 2.52798 6.1205 3.1403 5.3587 3.7527 4.5967 4.4403 3.8909 5.1968 3.254 5.95315 2.617 6.7782 2.049 7.665299 1.5627 M 0.4537992 19.4997 C 0.1435492 18.4956 -0.05714077 17.4835 -0.1564507 16.4769 -0.2551987 15.4701 -0.2516447 14.4684 -0.1525816 13.4844 -0.05334165 12.5007 0.1414284 11.5347 0.4251484 10.5993 M 7.892348 28.3993 C 7.030958 27.9447 6.212848 27.4077 5.450948 26.7954 4.689008 26.1831 3.983248 25.4954 3.346348 24.739 2.709558 23.9826 2.141548 23.1575 1.655148 22.2704 M 19.49415 29.4993 C 18.48995 29.8096 17.47785 30.0103 16.47125 30.1096 15.46445 30.2084 14.46285 30.2049 13.47895 30.1018 12.49507 30.0028 11.52915 29.8079 10.59365 29.5242 M 28.46365 22.0993 C 28.00892 22.9606 27.472 23.7788 26.85965 24.5407 26.24738 25.3026 25.55945 26.0084 24.80315 26.6453 24.0468 27.2822 23.22175 27.8502 22.33465 28.3365 M 29.54565 10.4995 C 29.85594 11.5037 30.05659 12.5157 30.15594 13.5224 30.25481 14.5292 30.25114 15.531 30.15199 16.5147 30.05279 17.4986 29.85802 18.4646 29.5743 19.4 M 22.10769 1.499998 C 22.96908 1.954698 23.7872 2.491698 24.5491 3.103898 25.31104 3.716298 26.0168 4.404098 26.65369 5.160398 27.29052 5.916898 27.85859 6.741898 28.34499 7.629098 M 10.50499 0.3999977 C 11.50919 0.08969772 12.52109 -0.1109023 13.52779 -0.2103023 14.53469 -0.3090023 15.53619 -0.3055023 16.52009 -0.2103023 17.50401 -0.1111023 18.46999 0.08369771 19.40549 0.3673977 " /><path style="&E7;" transform="&E2;" id="70" d="M 17.123 5.8594 17.123 10.1836 C 17.123 10.70128 17.50571 11.08204 18.02339 11.08204 L 22.12889 11.08204 z " /><path style="&E7;" transform="&E2;" id="71" d="M 12.084 18.254 C 13.1854 18.254 14.082 19.14872 14.082 20.2501 14.082 21.3515 13.18533 22.2481 12.084 22.2481 10.9826 22.2481 10.086 21.35143 10.086 20.2501 10.086 19.1487 10.98267 18.254 12.084 18.254 z M 17.7832 18.23837 C 18.8846 18.23837 19.7812 19.13504 19.7812 20.23637 19.7812 21.3377 18.88453 22.23437 17.7832 22.23437 16.68187 22.23437 15.7852 21.3377 15.7852 20.23637 15.7852 19.13504 16.68187 18.23837 17.7832 18.23837 z M 14.9414 13.67978 C 16.0428 13.67978 16.9394 14.57645 16.9394 15.67778 16.9394 16.77917 16.04273 17.67578 14.9414 17.67578 13.84007 17.67578 12.9434 16.77911 12.9434 15.67778 12.9434 14.57638 13.84007 13.67978 14.9414 13.67978 z M 10.8828 5.205175 C 9.175499 5.205175 7.765599 6.615075 7.765599 8.322375 L 7.765599 20.56638 C 7.765599 22.27368 9.175499 23.68158 10.8828 23.68158 L 19.6484 23.68158 C 21.3557 23.68158 22.7656 22.27357 22.7656 20.56638 L 22.7656 13.29878 18.0234 13.29878 C 16.3161 13.29878 14.9062 11.89078 14.9062 10.18358 L 14.9062 5.205076 z " /><text id="72" transform="&E10;" x="324.00px" y="39.00px" style="stroke:none;clip-path:url(#74_text_clipper);font-family:Microsoft Sans Serif;fill:rgb(0,0,0);font-size:8.25pt;opacity:1;"><tspan dy="8.25pt" id="76">LogHarpState</tspan></text><ellipse id="78" cy="15.00" cx="15.00" transform="&E11;" rx="15.00" ry="15.00" style="&E3;" /><path style="&E7;" transform="&E11;" id="79" d="M 12.246 6.0137 12.246 6.019559 C 12.05806 6.020259 11.89471 6.040434 11.76748 6.066434 10.86869 6.352735 10.89631 6.934374 9.87688 7.685534 8.863379 8.264335 8.35338 7.819914 7.61518 8.419914 6.87845 9.015514 7.39292 10.38251 7.08393 10.64841 6.77722 11.18001 5.82553 11.65471 5.65233 12.32611 5.50916 13.18481 6.04191 13.79701 6.02147 14.53311 6.08287 15.14641 5.41127 15.49489 5.5078 15.99211 5.79702 16.80421 6.35438 17.29221 6.6172 17.51751 6.663351 17.54951 6.700028 17.5985 6.714856 17.6015 6.790713 17.792 6.858586 17.98645 6.955086 18.16595 6.949606 18.13995 6.948576 18.11382 6.943367 18.08782 6.998228 18.30542 7.055077 18.52401 7.132816 18.73821 8.683116 22.09901 12.81412 24.68611 17.34182 24.11711 19.54102 23.84771 22.82442 22.33171 24.16602 18.73821 23.22044 19.58671 21.53152 20.32421 20.77732 20.38081 23.33002 19.10511 24.70712 16.93741 24.32031 13.97461 23.79154 15.23341 23.09341 16.20131 22.22071 16.86521 24.07451 13.97551 23.75691 12.48131 22.38478 10.83981 23.36615 13.53881 22.09719 16.53431 19.33208 18.66401 20.45238 18.78541 21.51657 18.51614 22.50198 17.71284 21.01318 19.37354 19.14968 20.20834 17.01368 20.43554 18.03358 21.30254 19.01818 21.69454 19.95898 21.52734 17.34458 22.24884 15.15478 21.45428 12.49018 18.80074 12.3507 19.51504 13.10514 20.62754 13.88278 21.33784 9.373278 19.38284 8.976177 13.29584 14.46872 11.79294 14.47202 11.79294 14.47518 11.79384 14.47848 11.79294 17.74978 13.70674 21.86528 13.58084 22.05078 12.34372 22.50885 10.86082 19.96508 7.805223 16.16208 7.007823 15.4618 6.871123 14.79228 6.817344 14.15428 6.835943 14.16706 6.835943 14.17858 6.836182 14.19139 6.826178 13.58399 6.177278 12.80989 6.011678 12.24609 6.013678 z M 17.17769 9.046878 C 17.72373 9.046878 18.22259 9.543848 18.22259 10.08988 18.22259 10.63598 17.72371 11.13288 17.17769 11.13288 16.63165 11.13288 16.13469 10.63601 16.13469 10.08988 16.13474 9.543879 16.63162 9.046778 17.17769 9.046878 z " /><ellipse id="80" cy="19.00" cx="244.00" rx="3.00" ry="3.00" style="&E5;" /><ellipse id="81" cy="19.00" cx="244.00" rx="3.00" ry="3.00" style="stroke:none;opacity:1;fill:rgb(255,255,255);" /><text id="82" transform="&E10;" x="244.00px" y="39.00px" style="stroke:none;clip-path:url(#84_text_clipper);font-family:Microsoft Sans Serif;fill:rgb(0,0,0);font-size:8.25pt;opacity:1;"><tspan dy="8.25pt" id="86">Merge</tspan></text><ellipse id="88" cy="15.00" cx="15.00" rx="15.00" ry="15.00" style="&E16;" transform="matrix(1.00 0.00 0.00 1.00 164.00 4.00 ) " /><text id="89" transform="&E10;" x="164.00px" y="39.00px" style="stroke:none;clip-path:url(#91_text_clipper);font-family:Microsoft Sans Serif;fill:rgb(0,0,0);font-size:8.25pt;opacity:1;"><tspan dy="8.25pt" id="93">FormatWeight</tspan></text><ellipse id="95" cy="15.00" cx="15.00" transform="&E18;" rx="15.00" ry="15.00" style="&E16;" /><path d="&E19;" style="&E7;" transform="&E18;" id="96" /><text id="97" transform="&E10;" x="164.00px" y="119.00px" style="stroke:none;clip-path:url(#99_text_clipper);font-family:Microsoft Sans Serif;fill:rgb(0,0,0);font-size:8.25pt;opacity:1;"><tspan dy="8.25pt" id="101">Format</tspan></text><ellipse id="103" cy="15.00" cx="15.00" rx="15.00" ry="15.00" style="&E16;" transform="matrix(1.00 0.00 0.00 1.00 164.00 164.00 ) " /><text id="104" transform="&E10;" x="164.00px" y="199.00px" style="stroke:none;clip-path:url(#106_text_clipper);font-family:Microsoft Sans Serif;fill:rgb(0,0,0);font-size:8.25pt;opacity:1;"><tspan dy="8.25pt" id="108">FormatWeight</tspan></text><ellipse id="110" cy="15.00" cx="15.00" transform="&E23;" rx="15.00" ry="15.00" style="&E16;" /><path d="&E19;" style="&E7;" transform="&E23;" id="111" /><text id="112" transform="&E10;" x="164.00px" y="279.00px" style="stroke:none;clip-path:url(#114_text_clipper);font-family:Microsoft Sans Serif;fill:rgb(0,0,0);font-size:8.25pt;opacity:1;"><tspan dy="8.25pt" id="116">Format</tspan></text><ellipse id="118" cy="15.00" cx="15.00" transform="&E25;" rx="15.00" ry="15.00" style="&E16;" /><path d="&E26;" style="&E7;" transform="&E25;" id="119" /><path d="&E27;" style="&E7;" transform="&E25;" id="120" /><path d="&E28;" style="&E29;" transform="&E25;" id="121" /><text id="122" transform="&E10;" x="84.00px" y="39.00px" style="stroke:none;clip-path:url(#124_text_clipper);font-family:Microsoft Sans Serif;fill:rgb(0,0,0);font-size:8.25pt;opacity:1;"><tspan dy="8.25pt" id="126">RawWeight</tspan></text><path d="&E31;" style="&E5;" transform="&E32;" id="128" /><ellipse id="129" cy="15.00" cx="15.00" transform="&E32;" rx="15.00" ry="15.00" style="&E33;" /><path d="&E34;" style="&E7;" transform="&E32;" id="130" /><path d="&E35;" style="&E7;" transform="&E32;" id="131" /><text id="132" transform="&E10;" x="84.00px" y="119.00px" style="stroke:none;clip-path:url(#134_text_clipper);font-family:Microsoft Sans Serif;fill:rgb(0,0,0);font-size:8.25pt;opacity:1;"><tspan dy="8.25pt" id="136">NestTare</tspan></text><text id="138" transform="&E10;" x="84.00px" y="131.45px" style="stroke:none;clip-path:url(#140_text_clipper);font-family:Microsoft Sans Serif;fill:rgb(0,0,0);font-size:8.25pt;opacity:1;"><tspan dy="8.25pt" id="142">Events</tspan></text><ellipse id="144" cy="15.00" cx="15.00" transform="&E38;" rx="15.00" ry="15.00" style="&E16;" /><path d="&E26;" style="&E7;" transform="&E38;" id="145" /><path d="&E27;" style="&E7;" transform="&E38;" id="146" /><path d="&E28;" style="&E29;" transform="&E38;" id="147" /><text id="148" transform="&E10;" x="84.00px" y="199.00px" style="stroke:none;clip-path:url(#150_text_clipper);font-family:Microsoft Sans Serif;fill:rgb(0,0,0);font-size:8.25pt;opacity:1;"><tspan dy="8.25pt" id="152">Filtered</tspan></text><text id="154" transform="&E10;" x="84.00px" y="211.45px" style="stroke:none;clip-path:url(#156_text_clipper);font-family:Microsoft Sans Serif;fill:rgb(0,0,0);font-size:8.25pt;opacity:1;"><tspan dy="8.25pt" id="158">Weight</tspan></text><path d="&E31;" style="&E5;" transform="&E41;" id="160" /><ellipse id="161" cy="15.00" cx="15.00" transform="&E41;" rx="15.00" ry="15.00" style="&E33;" /><path d="&E34;" style="&E7;" transform="&E41;" id="162" /><path d="&E35;" style="&E7;" transform="&E41;" id="163" /><text id="164" transform="&E10;" x="84.00px" y="279.00px" style="stroke:none;clip-path:url(#166_text_clipper);font-family:Microsoft Sans Serif;fill:rgb(0,0,0);font-size:8.25pt;opacity:1;"><tspan dy="8.25pt" id="168">Baseline</tspan></text><text id="170" transform="&E10;" x="84.00px" y="291.45px" style="stroke:none;clip-path:url(#172_text_clipper);font-family:Microsoft Sans Serif;fill:rgb(0,0,0);font-size:8.25pt;opacity:1;"><tspan dy="8.25pt" id="174">Trigger</tspan></text><path d="&E31;" style="&E5;" transform="&E44;" id="176" /><ellipse id="177" cy="15.00" cx="15.00" transform="&E44;" rx="15.00" ry="15.00" style="&E33;" /><path d="&E34;" style="&E7;" transform="&E44;" id="178" /><path d="&E35;" style="&E7;" transform="&E44;" id="179" /><text id="180" transform="&E10;" x="4.00px" y="39.00px" style="stroke:none;clip-path:url(#182_text_clipper);font-family:Microsoft Sans Serif;fill:rgb(0,0,0);font-size:8.25pt;opacity:1;"><tspan dy="8.25pt" id="184">NestWeight</tspan></text><text id="186" transform="&E10;" x="4.00px" y="51.45px" style="stroke:none;clip-path:url(#188_text_clipper);font-family:Microsoft Sans Serif;fill:rgb(0,0,0);font-size:8.25pt;opacity:1;"><tspan dy="8.25pt" id="190">Data</tspan></text><path d="&E31;" style="&E5;" transform="&E47;" id="192" /><ellipse id="193" cy="15.00" cx="15.00" transform="&E47;" rx="15.00" ry="15.00" style="&E33;" /><path d="&E34;" style="&E7;" transform="&E47;" id="194" /><path d="&E35;" style="&E7;" transform="&E47;" id="195" /><text id="196" transform="&E10;" x="4.00px" y="199.00px" style="stroke:none;clip-path:url(#198_text_clipper);font-family:Microsoft Sans Serif;fill:rgb(0,0,0);font-size:8.25pt;opacity:1;"><tspan dy="8.25pt" id="200">NestWeight</tspan></text><text id="202" transform="&E10;" x="4.00px" y="211.45px" style="stroke:none;clip-path:url(#204_text_clipper);font-family:Microsoft Sans Serif;fill:rgb(0,0,0);font-size:8.25pt;opacity:1;"><tspan dy="8.25pt" id="206">Data</tspan></text></g><defs id="clips_hatches_and_gradients"><clipPath id="74_text_clipper"><rect x="324.00" y="39.00" width="73.57" height="13.83" id="75" /></clipPath><clipPath id="84_text_clipper"><rect x="244.00" y="39.00" width="35.78" height="13.83" id="85" /></clipPath><clipPath id="91_text_clipper"><rect x="164.00" y="39.00" width="74.87" height="13.83" id="92" /></clipPath><clipPath id="99_text_clipper"><rect x="164.00" y="119.00" width="39.55" height="13.83" id="100" /></clipPath><clipPath id="106_text_clipper"><rect x="164.00" y="199.00" width="74.87" height="13.83" id="107" /></clipPath><clipPath id="114_text_clipper"><rect x="164.00" y="279.00" width="39.55" height="13.83" id="115" /></clipPath><clipPath id="124_text_clipper"><rect x="84.00" y="39.00" width="61.65" height="13.83" id="125" /></clipPath><clipPath id="134_text_clipper"><rect x="84.00" y="119.00" width="50.26" height="27.65" id="135" /></clipPath><clipPath id="140_text_clipper"><rect x="84.00" y="131.45" width="50.26" height="27.65" id="141" /></clipPath><clipPath id="150_text_clipper"><rect x="84.00" y="199.00" width="41.58" height="27.65" id="151" /></clipPath><clipPath id="156_text_clipper"><rect x="84.00" y="211.45" width="41.58" height="27.65" id="157" /></clipPath><clipPath id="166_text_clipper"><rect x="84.00" y="279.00" width="47.26" height="27.65" id="167" /></clipPath><clipPath id="172_text_clipper"><rect x="84.00" y="291.45" width="47.26" height="27.65" id="173" /></clipPath><clipPath id="182_text_clipper"><rect x="4.00" y="39.00" width="62.29" height="27.65" id="183" /></clipPath><clipPath id="188_text_clipper"><rect x="4.00" y="51.45" width="62.29" height="27.65" id="189" /></clipPath><clipPath id="198_text_clipper"><rect x="4.00" y="199.00" width="62.29" height="27.65" id="199" /></clipPath><clipPath id="204_text_clipper"><rect x="4.00" y="211.45" width="62.29" height="27.65" id="205" /></clipPath></defs></svg>