<?xml version="1.0" standalone="yes"?><!DOCTYPE svg PUBLIC "-//W3C//DTD SVG 1.1//EN" "http://www.w3.org/Graphics/SVG/1.1/DTD/svg11.dtd"[
<!ENTITY E13 'stroke:none;opacity:1;fill:rgb(255,255,255);'><!ENTITY E2 'matrix(1.00 0.00 0.00 1.00 84.00 4.00 ) '><!ENTITY E5 'stroke:rgb(169,169,169);fill:none;stroke-linecap:butt;stroke-miterlimit:9;opacity:1;stroke-width:2;stroke-linejoin:miter;'><!ENTITY E12 'matrix(1.00 0.00 0.00 1.00 4.00 4.00 ) '><!ENTITY E7 'stroke:none;fill-rule:evenodd;opacity:1;fill:rgb(255,255,255);'><!ENTITY E3 'stroke:none;opacity:1;fill:rgb(238,192,75);'><!ENTITY E4 'M 1.5363 7.8 C 1.99103 6.9385 2.52798 6.1205 3.1403 5.3587 3.7527 4.5967 4.4403 3.8909 5.1968 3.254 5.95315 2.617 6.7782 2.049 7.665299 1.5627 M 0.4537992 19.4997 C 0.1435492 18.4956 -0.05714077 17.4835 -0.1564507 16.4769 -0.2551987 15.4701 -0.2516447 14.4684 -0.1525816 13.4844 -0.05334165 12.5007 0.1414284 11.5347 0.4251484 10.5993 M 7.892348 28.3993 C 7.030958 27.9447 6.212848 27.4077 5.450948 26.7954 4.689008 26.1831 3.983248 25.4954 3.346348 24.739 2.709558 23.9826 2.141548 23.1575 1.655148 22.2704 M 19.49415 29.4993 C 18.48995 29.8096 17.47785 30.0103 16.47125 30.1096 15.46445 30.2084 14.46285 30.2049 13.47895 30.1018 12.49507 30.0028 11.52915 29.8079 10.59365 29.5242 M 28.46365 22.0993 C 28.00892 22.9606 27.472 23.7788 26.85965 24.5407 26.24738 25.3026 25.55945 26.0084 24.80315 26.6453 24.0468 27.2822 23.22175 27.8502 22.33465 28.3365 M 29.54565 10.4995 C 29.85594 11.5037 30.05659 12.5157 30.15594 13.5224 30.25481 14.5292 30.25114 15.531 30.15199 16.5147 30.05279 17.4986 29.85802 18.4646 29.5743 19.4 M 22.10769 1.499998 C 22.96908 1.954698 23.7872 2.491698 24.5491 3.103898 25.31104 3.716298 26.0168 4.404098 26.65369 5.160398 27.29052 5.916898 27.85859 6.741898 28.34499 7.629098 M 10.50499 0.3999977 C 11.50919 0.08969772 12.52109 -0.1109023 13.52779 -0.2103023 14.53469 -0.3090023 15.53619 -0.3055023 16.52009 -0.2103023 17.50401 -0.1111023 18.46999 0.08369771 19.40549 0.3673977 '><!ENTITY E10 'matrix(1.00 0.00 0.00 1.00 0.00 0.00 ) '>
]><svg width="154.8493" height="66.65038" id="SvgGdi_output" xmlns="http://www.w3.org/2000/svg" xmlns:xlink="http://www.w3.org/1999/xlink"><rect id="background" height="100.00%" style="fill:rgb(255,255,255);" width="100.00%" y="0.00" x="0.00" /><g style="shape-rendering:auto;" id="root_group"><line y1="19.00" id="344" x2="80.00" y2="19.00" x1="38.00" style="stroke:rgb(169,169,169);fill:none;stroke-linecap:butt;stroke-miterlimit:9;opacity:1;stroke-width:1;stroke-linejoin:miter;" /><ellipse id="345" cy="15.00" cx="15.00" transform="&E2;" rx="15.00" ry="15.00" style="&E3;" /><path d="&E4;" style="&E5;" transform="&E2;" id="346" /><path style="&E7;" transform="&E2;" id="347" d="M 17.123 5.8594 17.123 10.1836 C 17.123 10.70128 17.50571 11.08204 18.02339 11.08204 L 22.12889 11.08204 z " /><path style="&E7;" transform="&E2;" id="348" d="M 12.084 18.254 C 13.1854 18.254 14.082 19.14872 14.082 20.2501 14.082 21.3515 13.18533 22.2481 12.084 22.2481 10.9826 22.2481 10.086 21.35143 10.086 20.2501 10.086 19.1487 10.98267 18.254 12.084 18.254 z M 17.7832 18.23837 C 18.8846 18.23837 19.7812 19.13504 19.7812 20.23637 19.7812 21.3377 18.88453 22.23437 17.7832 22.23437 16.68187 22.23437 15.7852 21.3377 15.7852 20.23637 15.7852 19.13504 16.68187 18.23837 17.7832 18.23837 z M 14.9414 13.67978 C 16.0428 13.67978 16.9394 14.57645 16.9394 15.67778 16.9394 16.77917 16.04273 17.67578 14.9414 17.67578 13.84007 17.67578 12.9434 16.77911 12.9434 15.67778 12.9434 14.57638 13.84007 13.67978 14.9414 13.67978 z M 10.8828 5.205175 C 9.175499 5.205175 7.765599 6.615075 7.765599 8.322375 L 7.765599 20.56638 C 7.765599 22.27368 9.175499 23.68158 10.8828 23.68158 L 19.6484 23.68158 C 21.3557 23.68158 22.7656 22.27357 22.7656 20.56638 L 22.7656 13.29878 18.0234 13.29878 C 16.3161 13.29878 14.9062 11.89078 14.9062 10.18358 L 14.9062 5.205076 z " /><text id="349" transform="&E10;" x="84.00px" y="39.00px" style="stroke:none;clip-path:url(#351_text_clipper);font-family:Microsoft Sans Serif;fill:rgb(0,0,0);font-size:8.25pt;opacity:1;"><tspan dy="8.25pt" id="353">Synchronizer</tspan></text><text id="355" transform="&E10;" x="84.00px" y="51.45px" style="stroke:none;clip-path:url(#357_text_clipper);font-family:Microsoft Sans Serif;fill:rgb(0,0,0);font-size:8.25pt;opacity:1;"><tspan dy="8.25pt" id="359">Monitor</tspan></text><ellipse id="361" cy="15.00" cx="15.00" transform="&E12;" rx="15.00" ry="15.00" style="&E3;" /><path d="&E4;" style="&E5;" transform="&E12;" id="362" /><ellipse id="363" cy="9.06" cx="15.01" transform="&E12;" rx="3.50" ry="3.50" style="&E13;" /><ellipse id="364" cy="18.49" cx="9.12" transform="&E12;" rx="3.50" ry="3.50" style="&E13;" /><ellipse id="365" cy="18.46" cx="20.88" transform="&E12;" rx="3.50" ry="3.50" style="&E13;" /><text id="366" transform="&E10;" x="4.00px" y="39.00px" style="stroke:none;clip-path:url(#368_text_clipper);font-family:Microsoft Sans Serif;fill:rgb(0,0,0);font-size:8.25pt;opacity:1;"><tspan dy="8.25pt" id="370">Heartbeat</tspan></text><text id="372" transform="&E10;" x="4.00px" y="51.45px" style="stroke:none;clip-path:url(#374_text_clipper);font-family:Microsoft Sans Serif;fill:rgb(0,0,0);font-size:8.25pt;opacity:1;"><tspan dy="8.25pt" id="376">Sources</tspan></text></g><defs id="clips_hatches_and_gradients"><clipPath id="351_text_clipper"><rect x="84.00" y="39.00" width="69.85" height="27.65" id="352" /></clipPath><clipPath id="357_text_clipper"><rect x="84.00" y="51.45" width="69.85" height="27.65" id="358" /></clipPath><clipPath id="368_text_clipper"><rect x="4.00" y="39.00" width="53.41" height="27.65" id="369" /></clipPath><clipPath id="374_text_clipper"><rect x="4.00" y="51.45" width="53.41" height="27.65" id="375" /></clipPath></defs></svg>