<?xml version="1.0" standalone="yes"?><!DOCTYPE svg PUBLIC "-//W3C//DTD SVG 1.1//EN" "http://www.w3.org/Graphics/SVG/1.1/DTD/svg11.dtd"[
<!ENTITY E16 'stroke:none;opacity:1;fill:rgb(68,154,223);'><!ENTITY E13 'matrix(1.00 0.00 0.00 1.00 404.00 84.00 ) '><!ENTITY E36 'matrix(1.00 0.00 0.00 1.00 84.00 4.00 ) '><!ENTITY E10 'matrix(1.00 0.00 0.00 1.00 0.00 0.00 ) '><!ENTITY E5 'stroke:none;opacity:1;fill:rgb(155,91,179);'><!ENTITY E7 'stroke:none;fill-rule:evenodd;opacity:1;fill:rgb(255,255,255);'><!ENTITY E3 'stroke:rgb(169,169,169);fill:none;stroke-linecap:butt;stroke-miterlimit:9;opacity:1;stroke-width:2;stroke-linejoin:miter;'><!ENTITY E26 'M 1.5363 7.8 C 1.99103 6.9385 2.52798 6.1205 3.1403 5.3587 3.7527 4.5967 4.4403 3.8909 5.1968 3.254 5.95315 2.617 6.7782 2.049 7.665299 1.5627 M 0.4537992 19.4997 C 0.1435492 18.4956 -0.05714077 17.4835 -0.1564507 16.4769 -0.2551987 15.4701 -0.2516447 14.4684 -0.1525816 13.4844 -0.05334165 12.5007 0.1414284 11.5347 0.4251484 10.5993 M 7.892348 28.3993 C 7.030958 27.9447 6.212848 27.4077 5.450948 26.7954 4.689008 26.1831 3.983248 25.4954 3.346348 24.739 2.709558 23.9826 2.141548 23.1575 1.655148 22.2704 M 19.49415 29.4993 C 18.48995 29.8096 17.47785 30.0103 16.47125 30.1096 15.46445 30.2084 14.46285 30.2049 13.47895 30.1018 12.49507 30.0028 11.52915 29.8079 10.59365 29.5242 M 28.46365 22.0993 C 28.00892 22.9606 27.472 23.7788 26.85965 24.5407 26.24738 25.3026 25.55945 26.0084 24.80315 26.6453 24.0468 27.2822 23.22175 27.8502 22.33465 28.3365 M 29.54565 10.4995 C 29.85594 11.5037 30.05659 12.5157 30.15594 13.5224 30.25481 14.5292 30.25114 15.531 30.15199 16.5147 30.05279 17.4986 29.85802 18.4646 29.5743 19.4 M 22.10769 1.499998 C 22.96908 1.954698 23.7872 2.491698 24.5491 3.103898 25.31104 3.716298 26.0168 4.404098 26.65369 5.160398 27.29052 5.916898 27.85859 6.741898 28.34499 7.629098 M 10.50499 0.3999977 C 11.50919 0.08969772 12.52109 -0.1109023 13.52779 -0.2103023 14.53469 -0.3090023 15.53619 -0.3055023 16.52009 -0.2103023 17.50401 -0.1111023 18.46999 0.08369771 19.40549 0.3673977 '><!ENTITY E6 'M 4.4028 13 4.93347 11.3266 C 6.15637 11.7667 7.04467 12.1477 7.598371 12.4698 7.45224 11.0476 7.37533 10.0696 7.36764 9.5352 L 9.040441 9.5352 C 9.017365 10.3131 8.92891 11.2873 8.775101 12.4581 9.567261 12.0495 10.4748 11.6723 11.4977 11.3266 L 12.02837 13 C 11.05162 13.3302 10.09407 13.5502 9.155771 13.6601 9.624911 14.0766 10.28637 14.819 11.14007 15.8877 L 9.755671 16.8894 C 9.30959 16.2687 8.782761 15.4241 8.175171 14.3554 7.606041 15.4633 7.106171 16.308 6.675471 16.8894 L 5.314171 15.8877 C 6.206311 14.7642 6.844671 14.0216 7.229171 13.6601 6.237041 13.4637 5.294871 13.2437 4.402771 13 z '><!ENTITY E1 'stroke:rgb(169,169,169);fill:none;stroke-linecap:butt;stroke-miterlimit:9;opacity:1;stroke-width:1;stroke-linejoin:miter;'><!ENTITY E19 'stroke:none;opacity:1;fill:rgb(255,255,255);'><!ENTITY E30 'matrix(1.00 0.00 0.00 1.00 164.00 4.00 ) '><!ENTITY E39 'matrix(1.00 0.00 0.00 1.00 4.00 4.00 ) '><!ENTITY E15 'matrix(1.00 0.00 0.00 1.00 324.00 4.00 ) '><!ENTITY E24 'matrix(1.00 0.00 0.00 1.00 244.00 4.00 ) '><!ENTITY E8 'M 11.656 8.2 11.99975 8.7 16.31225 14.7937 11.65605 21.4187 11.28105 21.9187 14.74985 21.9187 14.8436 21.7624 17.9998 17.0124 18.46855 17.7 21.15605 21.7624 21.2498 21.9187 24.7498 21.9187 24.40605 21.4187 19.65605 14.6687 24.06225 8.699997 24.406 8.199997 20.9998 8.199997 20.90605 8.324997 18.68725 11.4187 C 18.46251 11.7285 18.22333 12.1062 17.9685 12.4812 17.77046 12.1547 17.58677 11.8424 17.31225 11.4187 L 15.28105 8.356197 15.1873 8.199997 11.6561 8.199997 z '><!ENTITY E2 'M 10.158 33.2 C 3.4054 31.7591 -1.861 26.4692 -3.271 19.71 '><!ENTITY E4 'matrix(1.00 0.00 0.00 1.00 404.00 4.00 ) '><!ENTITY E25 'stroke:none;opacity:1;fill:rgb(238,192,75);'>
]><svg width="472.3302" height="146.6504" id="SvgGdi_output" xmlns="http://www.w3.org/2000/svg" xmlns:xlink="http://www.w3.org/1999/xlink"><rect id="background" height="100.00%" style="fill:rgb(255,255,255);" width="100.00%" y="0.00" x="0.00" /><g style="shape-rendering:auto;" id="root_group"><line y1="19.00" style="&E1;" id="63" x2="400.00" y2="19.00" x1="358.00" /><line y1="99.00" style="&E1;" id="64" x2="400.00" y2="99.00" x1="358.00" /><line y1="19.00" style="&E1;" id="65" x2="320.00" y2="19.00" x1="278.00" /><line y1="19.00" style="&E1;" id="66" x2="320.00" y2="99.00" x1="278.00" /><line y1="19.00" style="&E1;" id="67" x2="240.00" y2="19.00" x1="198.00" /><line y1="19.00" style="&E1;" id="68" x2="160.00" y2="19.00" x1="118.00" /><line y1="19.00" style="&E1;" id="69" x2="80.00" y2="19.00" x1="38.00" /><path d="&E2;" style="&E3;" transform="&E4;" id="70" /><ellipse id="71" cy="15.00" cx="15.00" transform="&E4;" rx="15.00" ry="15.00" style="&E5;" /><path d="&E6;" style="&E7;" transform="&E4;" id="72" /><path d="&E8;" style="&E7;" transform="&E4;" id="73" /><text id="74" transform="&E10;" x="404.00px" y="39.00px" style="stroke:none;clip-path:url(#76_text_clipper);font-family:Microsoft Sans Serif;fill:rgb(0,0,0);font-size:8.25pt;opacity:1;"><tspan dy="8.25pt" id="78">Environment</tspan></text><text id="80" transform="&E10;" x="404.00px" y="51.45px" style="stroke:none;clip-path:url(#82_text_clipper);font-family:Microsoft Sans Serif;fill:rgb(0,0,0);font-size:8.25pt;opacity:1;"><tspan dy="8.25pt" id="84">Alert</tspan></text><text id="86" transform="&E10;" x="404.00px" y="63.90px" style="stroke:none;clip-path:url(#88_text_clipper);font-family:Microsoft Sans Serif;fill:rgb(0,0,0);font-size:8.25pt;opacity:1;"><tspan dy="8.25pt" id="90">Messages</tspan></text><path d="&E2;" style="&E3;" transform="&E13;" id="92" /><ellipse id="93" cy="15.00" cx="15.00" transform="&E13;" rx="15.00" ry="15.00" style="&E5;" /><path d="&E6;" style="&E7;" transform="&E13;" id="94" /><path d="&E8;" style="&E7;" transform="&E13;" id="95" /><text id="96" transform="&E10;" x="404.00px" y="119.00px" style="stroke:none;clip-path:url(#98_text_clipper);font-family:Microsoft Sans Serif;fill:rgb(0,0,0);font-size:8.25pt;opacity:1;"><tspan dy="8.25pt" id="100">AlertLogs</tspan></text><ellipse id="102" cy="15.00" cx="15.00" transform="&E15;" rx="15.00" ry="15.00" style="&E16;" /><path transform="&E15;" id="103" style="stroke:rgb(255,255,255);fill:none;stroke-linecap:butt;stroke-miterlimit:9;opacity:1;stroke-width:2;stroke-linejoin:miter;" d="M 16.849 10.062 23.4027 10.062 M 16.6038 19.6084 23.3505 19.6084 M 12.3075 17.1615 7.5719 21.8971 M 7.577335 17.152 12.31704 21.8917 M 6.564136 10.0047 13.30904 10.0047 M 9.936636 6.6288 9.936636 13.3806 " /><ellipse id="104" cy="16.33" cx="19.93" transform="&E15;" rx="1.30" ry="1.30" style="&E19;" /><ellipse id="105" cy="22.83" cx="19.93" transform="&E15;" rx="1.30" ry="1.30" style="&E19;" /><text id="106" transform="&E10;" x="324.00px" y="39.00px" style="stroke:none;clip-path:url(#108_text_clipper);font-family:Microsoft Sans Serif;fill:rgb(0,0,0);font-size:8.25pt;opacity:1;"><tspan dy="8.25pt" id="110">Format</tspan></text><ellipse id="112" cy="15.00" cx="15.00" rx="15.00" ry="15.00" style="&E16;" transform="matrix(1.00 0.00 0.00 1.00 324.00 84.00 ) " /><text id="113" transform="&E10;" x="324.00px" y="119.00px" style="stroke:none;clip-path:url(#115_text_clipper);font-family:Microsoft Sans Serif;fill:rgb(0,0,0);font-size:8.25pt;opacity:1;"><tspan dy="8.25pt" id="117">FormatLog</tspan></text><text id="119" transform="&E10;" x="324.00px" y="131.45px" style="stroke:none;clip-path:url(#121_text_clipper);font-family:Microsoft Sans Serif;fill:rgb(0,0,0);font-size:8.25pt;opacity:1;"><tspan dy="8.25pt" id="123">Message</tspan></text><ellipse id="125" cy="15.00" cx="15.00" transform="&E24;" rx="15.00" ry="15.00" style="&E25;" /><path d="&E26;" style="&E3;" transform="&E24;" id="126" /><path style="&E7;" transform="&E24;" id="127" d="M 17.123 5.8594 17.123 10.1836 C 17.123 10.70128 17.50571 11.08204 18.02339 11.08204 L 22.12889 11.08204 z " /><path style="&E7;" transform="&E24;" id="128" d="M 12.084 18.254 C 13.1854 18.254 14.082 19.14872 14.082 20.2501 14.082 21.3515 13.18533 22.2481 12.084 22.2481 10.9826 22.2481 10.086 21.35143 10.086 20.2501 10.086 19.1487 10.98267 18.254 12.084 18.254 z M 17.7832 18.23837 C 18.8846 18.23837 19.7812 19.13504 19.7812 20.23637 19.7812 21.3377 18.88453 22.23437 17.7832 22.23437 16.68187 22.23437 15.7852 21.3377 15.7852 20.23637 15.7852 19.13504 16.68187 18.23837 17.7832 18.23837 z M 14.9414 13.67978 C 16.0428 13.67978 16.9394 14.57645 16.9394 15.67778 16.9394 16.77917 16.04273 17.67578 14.9414 17.67578 13.84007 17.67578 12.9434 16.77911 12.9434 15.67778 12.9434 14.57638 13.84007 13.67978 14.9414 13.67978 z M 10.8828 5.205175 C 9.175499 5.205175 7.765599 6.615075 7.765599 8.322375 L 7.765599 20.56638 C 7.765599 22.27368 9.175499 23.68158 10.8828 23.68158 L 19.6484 23.68158 C 21.3557 23.68158 22.7656 22.27357 22.7656 20.56638 L 22.7656 13.29878 18.0234 13.29878 C 16.3161 13.29878 14.9062 11.89078 14.9062 10.18358 L 14.9062 5.205076 z " /><text id="129" transform="&E10;" x="244.00px" y="39.00px" style="stroke:none;clip-path:url(#131_text_clipper);font-family:Microsoft Sans Serif;fill:rgb(0,0,0);font-size:8.25pt;opacity:1;"><tspan dy="8.25pt" id="133">AlertGate</tspan></text><ellipse id="135" cy="15.00" cx="15.00" transform="&E30;" rx="15.00" ry="15.00" style="&E25;" /><path style="&E7;" transform="&E30;" id="136" d="M 10.824 9.4752 3.5613 15.0588 10.824 20.6107 10.81521 18.3247 6.519011 15.0267 10.82391 11.7422 z " /><path style="&E7;" transform="&E30;" id="137" d="M 15.365 7.2336 C 15.34647 7.33547 15.32125 7.4371 15.31422 7.5375 14.41077 12.6441 13.49692 17.7495 12.59942 22.8575 12.59508 22.88635 12.6018 22.91223 12.59942 22.94062 L 14.62872 22.94062 C 14.70348 22.53324 14.73679 22.1026 14.8377 21.71462 15.68204 16.94102 16.5365 12.17012 17.3748 7.394619 17.38163 7.340435 17.37866 7.287239 17.3787 7.233579 z " /><path style="&E7;" transform="&E30;" id="138" d="M 19.044 9.4746 26.3067 15.0582 19.044 20.6101 19.05279 18.3241 23.34899 15.0261 19.04409 11.7416 z " /><text id="139" transform="&E10;" x="164.00px" y="39.00px" style="stroke:none;clip-path:url(#141_text_clipper);font-family:Microsoft Sans Serif;fill:rgb(0,0,0);font-size:8.25pt;opacity:1;"><tspan dy="8.25pt" id="143">Expression</tspan></text><text id="145" transform="&E10;" x="164.00px" y="51.45px" style="stroke:none;clip-path:url(#147_text_clipper);font-family:Microsoft Sans Serif;fill:rgb(0,0,0);font-size:8.25pt;opacity:1;"><tspan dy="8.25pt" id="149">Condition</tspan></text><ellipse id="151" cy="15.00" cx="15.00" transform="&E36;" rx="15.00" ry="15.00" style="&E25;" /><path d="&E26;" style="&E3;" transform="&E36;" id="152" /><text id="153" transform="&E10;" x="84.00px" y="39.00px" style="stroke:none;clip-path:url(#155_text_clipper);font-family:Microsoft Sans Serif;fill:rgb(0,0,0);font-size:8.25pt;opacity:1;"><tspan dy="8.25pt" id="157">Synchronizer</tspan></text><text id="159" transform="&E10;" x="84.00px" y="51.45px" style="stroke:none;clip-path:url(#161_text_clipper);font-family:Microsoft Sans Serif;fill:rgb(0,0,0);font-size:8.25pt;opacity:1;"><tspan dy="8.25pt" id="163">Monitor</tspan></text><ellipse id="165" cy="15.00" cx="15.00" transform="&E39;" rx="15.00" ry="15.00" style="&E25;" /><path d="&E26;" style="&E3;" transform="&E39;" id="166" /><ellipse id="167" cy="9.06" cx="15.01" transform="&E39;" rx="3.50" ry="3.50" style="&E19;" /><ellipse id="168" cy="18.49" cx="9.12" transform="&E39;" rx="3.50" ry="3.50" style="&E19;" /><ellipse id="169" cy="18.46" cx="20.88" transform="&E39;" rx="3.50" ry="3.50" style="&E19;" /><text id="170" transform="&E10;" x="4.00px" y="39.00px" style="stroke:none;clip-path:url(#172_text_clipper);font-family:Microsoft Sans Serif;fill:rgb(0,0,0);font-size:8.25pt;opacity:1;"><tspan dy="8.25pt" id="174">Heartbeat</tspan></text><text id="176" transform="&E10;" x="4.00px" y="51.45px" style="stroke:none;clip-path:url(#178_text_clipper);font-family:Microsoft Sans Serif;fill:rgb(0,0,0);font-size:8.25pt;opacity:1;"><tspan dy="8.25pt" id="180">Sources</tspan></text></g><defs id="clips_hatches_and_gradients"><clipPath id="76_text_clipper"><rect x="404.00" y="39.00" width="67.33" height="41.48" id="77" /></clipPath><clipPath id="82_text_clipper"><rect x="404.00" y="51.45" width="67.33" height="41.48" id="83" /></clipPath><clipPath id="88_text_clipper"><rect x="404.00" y="63.90" width="67.33" height="41.48" id="89" /></clipPath><clipPath id="98_text_clipper"><rect x="404.00" y="119.00" width="51.59" height="13.83" id="99" /></clipPath><clipPath id="108_text_clipper"><rect x="324.00" y="39.00" width="39.55" height="13.83" id="109" /></clipPath><clipPath id="115_text_clipper"><rect x="324.00" y="119.00" width="58.45" height="27.65" id="116" /></clipPath><clipPath id="121_text_clipper"><rect x="324.00" y="131.45" width="58.45" height="27.65" id="122" /></clipPath><clipPath id="131_text_clipper"><rect x="244.00" y="39.00" width="51.59" height="13.83" id="132" /></clipPath><clipPath id="141_text_clipper"><rect x="164.00" y="39.00" width="59.78" height="27.65" id="142" /></clipPath><clipPath id="147_text_clipper"><rect x="164.00" y="51.45" width="59.78" height="27.65" id="148" /></clipPath><clipPath id="155_text_clipper"><rect x="84.00" y="39.00" width="69.85" height="27.65" id="156" /></clipPath><clipPath id="161_text_clipper"><rect x="84.00" y="51.45" width="69.85" height="27.65" id="162" /></clipPath><clipPath id="172_text_clipper"><rect x="4.00" y="39.00" width="53.41" height="27.65" id="173" /></clipPath><clipPath id="178_text_clipper"><rect x="4.00" y="51.45" width="53.41" height="27.65" id="179" /></clipPath></defs></svg>