<?xml version="1.0" encoding="UTF-8"?>
<svg width="1200pt" height="1200pt" version="1.1" viewBox="0 0 1200 1200" xmlns="http://www.w3.org/2000/svg">
 <path d="m940.13 474.28c0.28125-0.51562 0.60938-1.0312 0.9375-1.4531 12.609-19.547 22.031-40.922 27.984-63.188 14.672-54.703 8.5781-114.98-21.656-167.9-0.1875-0.28125-0.375-0.5625-0.51562-0.84375-1.8281-3.1406-3.7031-6.2344-5.6719-9.2812-0.46875-0.60938-0.89062-1.2656-1.2656-1.9219-30.938-47.016-77.109-78.75-128.16-92.438-54.703-14.672-114.98-8.5781-167.9 21.656-0.28125 0.1875-0.5625 0.375-0.84375 0.51562-53.203 30.703-88.922 80.109-103.64 135.1-14.672 54.656-8.5781 114.84 21.609 167.76 0.42188 0.65625 0.84375 1.3125 1.1719 2.0625 30.75 52.594 79.828 87.938 134.44 102.61 92.953 24.844 191.21-12.984 243.52-92.672zm-774.42-405.94h60.234v370.6h0.09375c0 5.7656 2.7188 11.438 7.7812 14.953 8.25 5.7656 19.641 3.75 25.406-4.5l96.281-137.76 95.344 136.36c3.1406 5.5312 9.0938 9.2812 15.938 9.2812 10.125 0 18.328-8.2031 18.328-18.328l0.046875-370.6h452.53v100.69c-32.625-32.766-72.984-55.594-116.34-67.172-63.422-17.016-133.36-9.9844-194.9 25.031-0.98437 0.42188-1.9219 0.9375-2.8125 1.5938-61.312 35.812-102.47 92.953-119.53 156.61-17.156 63.984-9.8906 134.53 25.875 196.5l0.046876 0.046875c35.766 61.922 93.234 103.55 157.26 120.71 58.5 15.656 122.48 10.922 180.37-17.297l45.094 78.141-2.3906 1.3594c-0.98438 0.46875-1.9688 1.0781-2.8594 1.7344-12.422 7.7812-20.766 19.734-24.281 32.906-3.5625 13.312-2.25 28.031 4.7812 41.062 0.46875 0.98438 1.0312 1.9219 1.6406 2.8594l48.047 83.203v112.78l-771.98-0.14062zm-36.656 871.92v-869.72c-14.391 3.4219-27.281 10.875-37.453 21.047-14.344 14.344-23.25 34.078-23.25 55.781v822.37c16.5-15.375 37.5-25.922 60.703-29.484zm410.72 74.391c10.125 0 18.328 8.2031 18.328 18.328s-8.2031 18.328-18.328 18.328h-305.9c-10.125 0-18.328-8.2031-18.328-18.328s8.2031-18.328 18.328-18.328zm264.24 55.641c10.125 0 18.328 8.2031 18.328 18.328s-8.2031 18.328-18.328 18.328h-305.9c-10.125 0-18.328-8.2031-18.328-18.328s8.2031-18.328 18.328-18.328zm95.297-503.63c13.969-9.4219 26.766-20.016 38.344-31.594v98.016zm-282.24-103.92c-10.125 0-18.328-8.2031-18.328-18.328s8.2031-18.328 18.328-18.328h274.36c10.125 0 18.328 8.2031 18.328 18.328s-8.2031 18.328-18.328 18.328zm0-184.74c-10.125 0-18.328-8.2031-18.328-18.328s8.2031-18.328 18.328-18.328h274.36c10.125 0 18.328 8.2031 18.328 18.328s-8.2031 18.328-18.328 18.328zm0 92.344c-10.125 0-18.328-8.2031-18.328-18.328s8.2031-18.328 18.328-18.328h274.36c10.125 0 18.328 8.2031 18.328 18.328s-8.2031 18.328-18.328 18.328zm-354.47-302.02v312.52l77.719-111.19c1.2188-1.8281 2.8125-3.4688 4.7344-4.8281 8.25-5.7656 19.641-3.75 25.406 4.5l77.953 111.52 0.046876-312.52zm711.71 420.47v146.48c5.4375-0.14062 10.828 0.46875 16.031 1.875 13.781 3.7031 26.203 12.656 33.938 26.062l0.046875-0.046875 136.45 236.39c7.7344 13.359 9.2812 28.641 5.5781 42.469s-12.703 26.297-26.016 33.984l-38.672 22.359c-0.42188 0.23438-0.84375 0.46875-1.2656 0.65625-13.078 7.125-27.844 8.4844-41.203 4.9219-13.828-3.7031-26.297-12.703-33.984-26.016-0.1875-0.32812-0.375-0.65625-0.5625-1.0312l-50.391-87.234v71.578c0 10.125-8.2031 18.328-18.328 18.328-20.438 0-38.953 8.2969-52.359 21.703s-21.703 31.922-21.703 52.359 8.2969 38.953 21.703 52.359 31.922 21.703 52.359 21.703c10.125 0 18.328 8.2031 18.328 18.328v3.9844c0 10.125-8.2031 18.328-18.328 18.328l-809.53-0.046875c-31.547 0-60.234-12.891-81-33.656s-33.656-49.453-33.656-81l-0.046875-906.28c0-31.828 13.031-60.75 33.984-81.703s49.875-33.984 81.703-33.984h808.6c10.125 0 18.328 8.2031 18.328 18.328v165.37c1.2188 1.9688 2.3906 3.9375 3.6094 5.9531 0.60938 0.89062 1.125 1.8281 1.5938 2.8125 35.016 61.594 42.047 131.48 25.031 194.9-6.6094 24.516-16.781 48.047-30.234 69.75zm-55.781 219.74c-1.3125 4.8281-0.79688 10.125 1.875 14.672h-0.046875l0.046875 0.046875 50.531 87.516c0.65625 0.9375 1.2656 1.9219 1.7344 3l83.672 144.89c0.1875 0.28125 0.375 0.60938 0.60938 0.9375 2.6719 4.5938 6.9844 7.6875 11.766 9 4.5938 1.2188 9.6094 0.84375 14.016-1.4531 0.23438-0.14063 0.42188-0.28125 0.65625-0.375l38.719-22.359c4.5938-2.6719 7.6875-6.9375 9-11.766 1.3125-4.8281 0.79688-10.125-1.875-14.672l-136.5-236.39h0.046875l-0.046875-0.046875c-2.625-4.5469-6.9375-7.6406-11.766-8.9062-16.172-4.4062-59.859 26.297-62.438 35.906zm-772.13 423.1h731.02c-19.875-20.016-32.156-47.578-32.156-78.047 0-30.422 12.281-58.031 32.156-78.047l-731.02 0.046875c-21.422 0-40.922 8.7656-55.078 22.922-30.562 30.562-30.562 79.594 0 110.16 14.156 14.156 33.656 22.969 55.078 22.969z" fill-rule="evenodd"/>
</svg>
