<?xml version="1.0" encoding="UTF-8"?>
<svg id="Layer_1" data-name="Layer 1" xmlns="http://www.w3.org/2000/svg" viewBox="0 0 841.89 595.28">
  <defs>
    <style>
      .cls-1, .cls-2, .cls-3, .cls-4, .cls-5, .cls-6, .cls-7, .cls-8, .cls-9, .cls-10, .cls-11, .cls-12, .cls-13, .cls-14, .cls-15 {
        stroke-miterlimit: 10;
      }

      .cls-1, .cls-2, .cls-3, .cls-4, .cls-5, .cls-7, .cls-8, .cls-11, .cls-13, .cls-15 {
        stroke: #1d1c1a;
      }

      .cls-1, .cls-16, .cls-8, .cls-17, .cls-18, .cls-12, .cls-13 {
        fill: #1d1c1a;
      }

      .cls-19 {
        letter-spacing: 0em;
      }

      .cls-2, .cls-3, .cls-5, .cls-7, .cls-8, .cls-11, .cls-12 {
        stroke-width: .25px;
      }

      .cls-2, .cls-4, .cls-20, .cls-9, .cls-14 {
        fill: #fff;
      }

      .cls-16 {
        font-size: 14.8px;
      }

      .cls-16, .cls-18, .cls-21, .cls-22 {
        font-family: MyriadPro-Regular, 'Myriad Pro';
      }

      .cls-3 {
        fill: #006635;
      }

      .cls-4, .cls-13 {
        stroke-width: 4px;
      }

      .cls-5, .cls-6, .cls-10 {
        fill: none;
      }

      .cls-6 {
        stroke: #9a9a9a;
        stroke-width: .5px;
      }

      .cls-7 {
        fill: #009448;
      }

      .cls-23 {
        letter-spacing: 0em;
      }

      .cls-9 {
        stroke: #d8d8d7;
      }

      .cls-24 {
        letter-spacing: 0em;
      }

      .cls-10 {
        stroke: #000;
      }

      .cls-10, .cls-14, .cls-15 {
        stroke-width: 2px;
      }

      .cls-11 {
        fill: #39a849;
      }

      .cls-18 {
        font-size: 11.73px;
      }

      .cls-12, .cls-14 {
        stroke: #fff;
      }

      .cls-15 {
        fill: #eb2027;
      }

      .cls-25 {
        letter-spacing: -.03em;
      }

      .cls-21 {
        font-size: 16.42px;
      }

      .cls-21, .cls-26 {
        fill: #676767;
      }

      .cls-27 {
        letter-spacing: 0em;
      }

      .cls-22 {
        fill: #575756;
        font-size: 4.3px;
      }

      .cls-28 {
        letter-spacing: 0em;
      }

      .cls-29 {
        letter-spacing: 0em;
      }

      .cls-30 {
        letter-spacing: 0em;
      }
    </style>
  </defs>
  <g>
    <rect class="cls-1" x="40.55" y="306.64" width="131.58" height="35.82"/>
    <path class="cls-2" d="M109.71,329.77h12.55c.25,0,.45.23.45.51l.02,1.19c0,.34-.09.66-.27.93l-.62.89s-.02.05-.02.08v1.79c0,.48-.34.86-.75.86h-10.19c-.41,0-.75-.39-.75-.86v-1.67s0-.05-.02-.07l-.66-1.08c-.16-.26-.24-.57-.23-.89l.04-1.19c0-.28.21-.5.45-.5Z"/>
    <path class="cls-2" d="M110.83,330.84h10.32c.2,0,.37.16.37.35l.02.82c0,.23-.07.46-.22.64l-.51.61s-.02.03-.02.05v1.24c0,.33-.28.6-.62.6h-8.38c-.34,0-.62-.27-.62-.6v-1.15s0-.03-.02-.05l-.54-.74c-.13-.18-.2-.39-.19-.61l.03-.82c0-.19.17-.34.37-.34Z"/>
    <circle class="cls-2" cx="115.98" cy="317.65" r="3.28"/>
    <circle class="cls-2" cx="115.98" cy="317.65" r="2.49"/>
    <circle class="cls-8" cx="115.98" cy="317.65" r=".81"/>
    <g>
      <rect class="cls-2" x="60.25" y="313.7" width="19.39" height="16.02" transform="translate(139.89 643.42) rotate(180)"/>
      <path class="cls-8" d="M78.2,315.05h-16.63v9.09h3.31v2.42h2.54v1.81h5.01v-1.88h2.39v-2.42h3.47s.15-9.02-.08-9.02Z"/>
    </g>
  </g>
  <g>
    <rect class="cls-12" x="460.76" y="112.37" width="88.8" height="59.95" rx="4.13" ry="4.13"/>
    <g>
      <rect class="cls-11" x="461.42" y="77.63" width="87.48" height="23.72"/>
      <line class="cls-5" x1="462.51" y1="81.64" x2="547.43" y2="81.64"/>
      <rect class="cls-7" x="474.36" y="85.28" width="9.17" height="12.79"/>
      <rect class="cls-3" x="476.35" y="88.05" width="5.19" height="7.23"/>
      <line class="cls-2" x1="474.36" y1="85.28" x2="476.35" y2="88.05"/>
      <line class="cls-2" x1="483.53" y1="85.28" x2="481.54" y2="88.05"/>
      <line class="cls-2" x1="481.54" y1="95.29" x2="483.53" y2="98.06"/>
      <line class="cls-2" x1="476.35" y1="95.29" x2="474.36" y2="98.06"/>
      <rect class="cls-7" x="484.83" y="85.28" width="9.17" height="12.79"/>
      <rect class="cls-3" x="486.82" y="88.05" width="5.19" height="7.23"/>
      <line class="cls-2" x1="484.83" y1="85.28" x2="486.82" y2="88.05"/>
      <line class="cls-2" x1="494" y1="85.28" x2="492.01" y2="88.05"/>
      <line class="cls-2" x1="492.01" y1="95.29" x2="494" y2="98.06"/>
      <line class="cls-2" x1="486.82" y1="95.29" x2="484.83" y2="98.06"/>
      <rect class="cls-7" x="463.9" y="85.28" width="9.17" height="12.79"/>
      <rect class="cls-3" x="465.89" y="88.05" width="5.19" height="7.23"/>
      <line class="cls-2" x1="463.9" y1="85.28" x2="465.89" y2="88.05"/>
      <line class="cls-2" x1="473.06" y1="85.28" x2="471.07" y2="88.05"/>
      <line class="cls-2" x1="471.07" y1="95.29" x2="473.06" y2="98.06"/>
      <line class="cls-2" x1="465.89" y1="95.29" x2="463.9" y2="98.06"/>
      <rect class="cls-7" x="537.17" y="85.28" width="9.17" height="12.79"/>
      <rect class="cls-3" x="539.16" y="88.05" width="5.19" height="7.23"/>
      <line class="cls-2" x1="537.17" y1="85.28" x2="539.16" y2="88.05"/>
      <line class="cls-2" x1="546.34" y1="85.28" x2="544.35" y2="88.05"/>
      <line class="cls-2" x1="544.35" y1="95.29" x2="546.34" y2="98.06"/>
      <line class="cls-2" x1="539.16" y1="95.29" x2="537.17" y2="98.06"/>
      <rect class="cls-7" x="526.7" y="85.28" width="9.17" height="12.79"/>
      <rect class="cls-3" x="528.69" y="88.05" width="5.19" height="7.23"/>
      <line class="cls-2" x1="526.7" y1="85.28" x2="528.69" y2="88.05"/>
      <line class="cls-2" x1="535.87" y1="85.28" x2="533.88" y2="88.05"/>
      <line class="cls-2" x1="533.88" y1="95.29" x2="535.87" y2="98.06"/>
      <line class="cls-2" x1="528.69" y1="95.29" x2="526.7" y2="98.06"/>
      <rect class="cls-7" x="516.24" y="85.28" width="9.17" height="12.79"/>
      <rect class="cls-3" x="518.23" y="88.05" width="5.19" height="7.23"/>
      <line class="cls-2" x1="516.24" y1="85.28" x2="518.23" y2="88.05"/>
      <line class="cls-2" x1="525.4" y1="85.28" x2="523.41" y2="88.05"/>
      <line class="cls-2" x1="523.41" y1="95.29" x2="525.4" y2="98.06"/>
      <line class="cls-2" x1="518.23" y1="95.29" x2="516.24" y2="98.06"/>
      <rect class="cls-7" x="505.77" y="85.28" width="9.17" height="12.79"/>
      <rect class="cls-3" x="507.76" y="88.05" width="5.19" height="7.23"/>
      <line class="cls-2" x1="505.77" y1="85.28" x2="507.76" y2="88.05"/>
      <line class="cls-2" x1="514.94" y1="85.28" x2="512.95" y2="88.05"/>
      <line class="cls-2" x1="512.95" y1="95.29" x2="514.94" y2="98.06"/>
      <line class="cls-2" x1="507.76" y1="95.29" x2="505.77" y2="98.06"/>
      <rect class="cls-7" x="495.3" y="85.28" width="9.17" height="12.79"/>
      <rect class="cls-3" x="497.29" y="88.05" width="5.19" height="7.23"/>
      <line class="cls-2" x1="495.3" y1="85.28" x2="497.29" y2="88.05"/>
      <line class="cls-2" x1="504.47" y1="85.28" x2="502.48" y2="88.05"/>
      <line class="cls-2" x1="502.48" y1="95.29" x2="504.47" y2="98.06"/>
      <line class="cls-2" x1="497.29" y1="95.29" x2="495.3" y2="98.06"/>
    </g>
    <g>
      <rect class="cls-11" x="461.42" y="47.16" width="87.48" height="23.72"/>
      <line class="cls-5" x1="462.51" y1="51.17" x2="547.43" y2="51.17"/>
      <rect class="cls-7" x="474.36" y="54.81" width="9.17" height="12.79"/>
      <rect class="cls-3" x="476.35" y="57.59" width="5.19" height="7.23"/>
      <line class="cls-2" x1="474.36" y1="54.81" x2="476.35" y2="57.59"/>
      <line class="cls-2" x1="483.53" y1="54.81" x2="481.54" y2="57.59"/>
      <line class="cls-2" x1="481.54" y1="64.82" x2="483.53" y2="67.6"/>
      <line class="cls-2" x1="476.35" y1="64.82" x2="474.36" y2="67.6"/>
      <rect class="cls-7" x="484.83" y="54.81" width="9.17" height="12.79"/>
      <rect class="cls-3" x="486.82" y="57.59" width="5.19" height="7.23"/>
      <line class="cls-2" x1="484.83" y1="54.81" x2="486.82" y2="57.59"/>
      <line class="cls-2" x1="494" y1="54.81" x2="492.01" y2="57.59"/>
      <line class="cls-2" x1="492.01" y1="64.82" x2="494" y2="67.6"/>
      <line class="cls-2" x1="486.82" y1="64.82" x2="484.83" y2="67.6"/>
      <rect class="cls-7" x="463.9" y="54.81" width="9.17" height="12.79"/>
      <rect class="cls-3" x="465.89" y="57.59" width="5.19" height="7.23"/>
      <line class="cls-2" x1="463.9" y1="54.81" x2="465.89" y2="57.59"/>
      <line class="cls-2" x1="473.06" y1="54.81" x2="471.07" y2="57.59"/>
      <line class="cls-2" x1="471.07" y1="64.82" x2="473.06" y2="67.6"/>
      <line class="cls-2" x1="465.89" y1="64.82" x2="463.9" y2="67.6"/>
      <rect class="cls-7" x="537.17" y="54.81" width="9.17" height="12.79"/>
      <rect class="cls-3" x="539.16" y="57.59" width="5.19" height="7.23"/>
      <line class="cls-2" x1="537.17" y1="54.81" x2="539.16" y2="57.59"/>
      <line class="cls-2" x1="546.34" y1="54.81" x2="544.35" y2="57.59"/>
      <line class="cls-2" x1="544.35" y1="64.82" x2="546.34" y2="67.6"/>
      <line class="cls-2" x1="539.16" y1="64.82" x2="537.17" y2="67.6"/>
      <rect class="cls-7" x="526.7" y="54.81" width="9.17" height="12.79"/>
      <rect class="cls-3" x="528.69" y="57.59" width="5.19" height="7.23"/>
      <line class="cls-2" x1="526.7" y1="54.81" x2="528.69" y2="57.59"/>
      <line class="cls-2" x1="535.87" y1="54.81" x2="533.88" y2="57.59"/>
      <line class="cls-2" x1="533.88" y1="64.82" x2="535.87" y2="67.6"/>
      <line class="cls-2" x1="528.69" y1="64.82" x2="526.7" y2="67.6"/>
      <rect class="cls-7" x="516.24" y="54.81" width="9.17" height="12.79"/>
      <rect class="cls-3" x="518.23" y="57.59" width="5.19" height="7.23"/>
      <line class="cls-2" x1="516.24" y1="54.81" x2="518.23" y2="57.59"/>
      <line class="cls-2" x1="525.4" y1="54.81" x2="523.41" y2="57.59"/>
      <line class="cls-2" x1="523.41" y1="64.82" x2="525.4" y2="67.6"/>
      <line class="cls-2" x1="518.23" y1="64.82" x2="516.24" y2="67.6"/>
      <rect class="cls-7" x="505.77" y="54.81" width="9.17" height="12.79"/>
      <rect class="cls-3" x="507.76" y="57.59" width="5.19" height="7.23"/>
      <line class="cls-2" x1="505.77" y1="54.81" x2="507.76" y2="57.59"/>
      <line class="cls-2" x1="514.94" y1="54.81" x2="512.95" y2="57.59"/>
      <line class="cls-2" x1="512.95" y1="64.82" x2="514.94" y2="67.6"/>
      <line class="cls-2" x1="507.76" y1="64.82" x2="505.77" y2="67.6"/>
      <rect class="cls-7" x="495.3" y="54.81" width="9.17" height="12.79"/>
      <rect class="cls-3" x="497.29" y="57.59" width="5.19" height="7.23"/>
      <line class="cls-2" x1="495.3" y1="54.81" x2="497.29" y2="57.59"/>
      <line class="cls-2" x1="504.47" y1="54.81" x2="502.48" y2="57.59"/>
      <line class="cls-2" x1="502.48" y1="64.82" x2="504.47" y2="67.6"/>
      <line class="cls-2" x1="497.29" y1="64.82" x2="495.3" y2="67.6"/>
    </g>
    <g>
      <g>
        <polyline class="cls-2" points="498.58 135.13 482.37 135.16 482.37 151.16 527.98 151.16 527.98 134.91 511.3 135.03"/>
        <text class="cls-16" transform="translate(491.25 140.98)"><tspan x="0" y="0">. . . . .</tspan></text>
        <text class="cls-16" transform="translate(491.25 146.98)"><tspan x="0" y="0">. . . . .</tspan></text>
      </g>
      <circle class="cls-2" cx="535.21" cy="142.28" r="2.28"/>
      <circle class="cls-2" cx="475.1" cy="142.28" r="2.28"/>
    </g>
  </g>
  <g>
    <path class="cls-17" d="M716.28,77.55h120.82c1.65,0,2.99,1.34,2.99,2.99v60.88c0,2.32-1.89,4.21-4.21,4.21h-119.6c-2.32,0-4.21-1.89-4.21-4.21v-59.65c0-2.32,1.89-4.21,4.21-4.21Z"/>
    <g>
      <polygon class="cls-20" points="786.5 97.99 786.5 96.23 783.64 96.23 783.64 97.99 777.21 97.99 777.21 106.95 792.94 106.95 792.94 97.99 786.5 97.99"/>
      <g>
        <rect class="cls-17" x="778.45" y="99.01" width="13.25" height="7.09"/>
        <g>
          <rect class="cls-20" x="779.6" y="100.11" width="2.18" height="2.18"/>
          <rect class="cls-20" x="782.52" y="100.11" width="2.18" height="2.18"/>
          <rect class="cls-20" x="785.45" y="100.11" width="2.18" height="2.18"/>
          <rect class="cls-20" x="788.37" y="100.11" width="2.18" height="2.18"/>
        </g>
        <g>
          <rect class="cls-20" x="779.6" y="102.84" width="2.18" height="2.18"/>
          <rect class="cls-20" x="782.52" y="102.84" width="2.18" height="2.18"/>
          <rect class="cls-20" x="785.45" y="102.84" width="2.18" height="2.18"/>
          <rect class="cls-20" x="788.37" y="102.84" width="2.18" height="2.18"/>
        </g>
      </g>
    </g>
    <g>
      <polygon class="cls-20" points="770.54 97.99 770.54 96.23 767.69 96.23 767.69 97.99 761.25 97.99 761.25 106.95 776.98 106.95 776.98 97.99 770.54 97.99"/>
      <g>
        <rect class="cls-17" x="762.49" y="99.01" width="13.25" height="7.09"/>
        <g>
          <rect class="cls-20" x="763.64" y="100.11" width="2.18" height="2.18"/>
          <rect class="cls-20" x="766.56" y="100.11" width="2.18" height="2.18"/>
          <rect class="cls-20" x="769.49" y="100.11" width="2.18" height="2.18"/>
          <rect class="cls-20" x="772.42" y="100.11" width="2.18" height="2.18"/>
        </g>
        <g>
          <rect class="cls-20" x="763.64" y="102.84" width="2.18" height="2.18"/>
          <rect class="cls-20" x="766.56" y="102.84" width="2.18" height="2.18"/>
          <rect class="cls-20" x="769.49" y="102.84" width="2.18" height="2.18"/>
          <rect class="cls-20" x="772.42" y="102.84" width="2.18" height="2.18"/>
        </g>
      </g>
    </g>
    <g>
      <polygon class="cls-20" points="745.56 97.99 745.56 96.23 742.7 96.23 742.7 97.99 736.27 97.99 736.27 106.95 751.99 106.95 751.99 97.99 745.56 97.99"/>
      <g>
        <rect class="cls-17" x="737.5" y="99.01" width="13.25" height="7.09"/>
        <g>
          <rect class="cls-20" x="738.65" y="100.11" width="2.18" height="2.18"/>
          <rect class="cls-20" x="741.58" y="100.11" width="2.18" height="2.18"/>
          <rect class="cls-20" x="744.5" y="100.11" width="2.18" height="2.18"/>
          <rect class="cls-20" x="747.43" y="100.11" width="2.18" height="2.18"/>
        </g>
        <g>
          <rect class="cls-20" x="738.65" y="102.84" width="2.18" height="2.18"/>
          <rect class="cls-20" x="741.58" y="102.84" width="2.18" height="2.18"/>
          <rect class="cls-20" x="744.5" y="102.84" width="2.18" height="2.18"/>
          <rect class="cls-20" x="747.43" y="102.84" width="2.18" height="2.18"/>
        </g>
      </g>
    </g>
    <g>
      <polygon class="cls-20" points="730.11 97.99 730.11 96.23 727.25 96.23 727.25 97.99 720.82 97.99 720.82 106.95 736.54 106.95 736.54 97.99 730.11 97.99"/>
      <g>
        <rect class="cls-17" x="722.06" y="99.01" width="13.25" height="7.09"/>
        <g>
          <rect class="cls-20" x="723.21" y="100.11" width="2.18" height="2.18"/>
          <rect class="cls-20" x="726.13" y="100.11" width="2.18" height="2.18"/>
          <rect class="cls-20" x="729.06" y="100.11" width="2.18" height="2.18"/>
          <rect class="cls-20" x="731.98" y="100.11" width="2.18" height="2.18"/>
        </g>
        <g>
          <rect class="cls-20" x="723.21" y="102.84" width="2.18" height="2.18"/>
          <rect class="cls-20" x="726.13" y="102.84" width="2.18" height="2.18"/>
          <rect class="cls-20" x="729.06" y="102.84" width="2.18" height="2.18"/>
          <rect class="cls-20" x="731.98" y="102.84" width="2.18" height="2.18"/>
        </g>
      </g>
    </g>
    <g>
      <polygon class="cls-20" points="826.42 97.98 826.42 96.22 824.11 96.22 824.11 97.98 818.9 97.98 818.9 106.96 831.63 106.96 831.63 97.98 826.42 97.98"/>
      <g>
        <rect class="cls-17" x="820.15" y="99.02" width="10.24" height="7.09"/>
        <g>
          <rect class="cls-20" x="821.22" y="100.12" width="2.18" height="2.18"/>
          <rect class="cls-20" x="824.14" y="100.12" width="2.18" height="2.18"/>
          <rect class="cls-20" x="827.07" y="100.12" width="2.18" height="2.18"/>
        </g>
        <g>
          <rect class="cls-20" x="821.22" y="102.85" width="2.18" height="2.18"/>
          <rect class="cls-20" x="824.14" y="102.85" width="2.18" height="2.18"/>
          <rect class="cls-20" x="827.07" y="102.85" width="2.18" height="2.18"/>
        </g>
      </g>
    </g>
    <g>
      <polygon class="cls-20" points="800.6 97.98 800.6 96.22 798.29 96.22 798.29 97.98 793.09 97.98 793.09 106.96 805.81 106.96 805.81 97.98 800.6 97.98"/>
      <g>
        <rect class="cls-17" x="794.34" y="99.02" width="10.24" height="7.09"/>
        <g>
          <rect class="cls-20" x="795.4" y="100.12" width="2.18" height="2.18"/>
          <rect class="cls-20" x="798.32" y="100.12" width="2.18" height="2.18"/>
          <rect class="cls-20" x="801.25" y="100.12" width="2.18" height="2.18"/>
        </g>
        <g>
          <rect class="cls-20" x="795.4" y="102.85" width="2.18" height="2.18"/>
          <rect class="cls-20" x="798.32" y="102.85" width="2.18" height="2.18"/>
          <rect class="cls-20" x="801.25" y="102.85" width="2.18" height="2.18"/>
        </g>
      </g>
    </g>
    <g>
      <polygon class="cls-20" points="813.62 97.98 813.62 96.22 811.3 96.22 811.3 97.98 806.1 97.98 806.1 106.96 818.82 106.96 818.82 97.98 813.62 97.98"/>
      <g>
        <rect class="cls-17" x="807.35" y="99.02" width="10.24" height="7.09"/>
        <g>
          <rect class="cls-20" x="808.41" y="100.12" width="2.18" height="2.18"/>
          <rect class="cls-20" x="811.34" y="100.12" width="2.18" height="2.18"/>
          <rect class="cls-20" x="814.26" y="100.12" width="2.18" height="2.18"/>
        </g>
        <g>
          <rect class="cls-20" x="808.41" y="102.85" width="2.18" height="2.18"/>
          <rect class="cls-20" x="811.34" y="102.85" width="2.18" height="2.18"/>
          <rect class="cls-20" x="814.26" y="102.85" width="2.18" height="2.18"/>
        </g>
      </g>
    </g>
    <g>
      <polygon class="cls-20" points="796.97 125.51 796.97 127.27 799.83 127.27 799.83 125.51 806.26 125.51 806.26 116.55 790.54 116.55 790.54 125.51 796.97 125.51"/>
      <g>
        <rect class="cls-17" x="791.78" y="117.39" width="13.25" height="7.09" transform="translate(1596.8 241.88) rotate(180)"/>
        <g>
          <rect class="cls-20" x="801.7" y="121.21" width="2.18" height="2.18" transform="translate(1605.58 244.6) rotate(180)"/>
          <rect class="cls-20" x="798.78" y="121.21" width="2.18" height="2.18" transform="translate(1599.73 244.6) rotate(180)"/>
          <rect class="cls-20" x="795.85" y="121.21" width="2.18" height="2.18" transform="translate(1593.88 244.6) rotate(180)"/>
          <rect class="cls-20" x="792.93" y="121.21" width="2.18" height="2.18" transform="translate(1588.03 244.6) rotate(180)"/>
        </g>
        <g>
          <rect class="cls-20" x="801.7" y="118.48" width="2.18" height="2.18" transform="translate(1605.58 239.13) rotate(180)"/>
          <rect class="cls-20" x="798.78" y="118.48" width="2.18" height="2.18" transform="translate(1599.73 239.13) rotate(180)"/>
          <rect class="cls-20" x="795.85" y="118.48" width="2.18" height="2.18" transform="translate(1593.88 239.13) rotate(180)"/>
          <rect class="cls-20" x="792.93" y="118.48" width="2.18" height="2.18" transform="translate(1588.03 239.13) rotate(180)"/>
        </g>
      </g>
    </g>
    <g>
      <polygon class="cls-20" points="811.76 125.51 811.76 127.28 814.07 127.28 814.07 125.51 819.28 125.51 819.28 116.54 806.55 116.54 806.55 125.51 811.76 125.51"/>
      <g>
        <rect class="cls-17" x="807.79" y="117.38" width="10.24" height="7.09" transform="translate(1625.82 241.85) rotate(180)"/>
        <g>
          <rect class="cls-20" x="814.79" y="121.2" width="2.18" height="2.18" transform="translate(1631.76 244.58) rotate(180)"/>
          <rect class="cls-20" x="811.87" y="121.2" width="2.18" height="2.18" transform="translate(1625.91 244.58) rotate(180)"/>
          <rect class="cls-20" x="808.94" y="121.2" width="2.18" height="2.18" transform="translate(1620.06 244.58) rotate(180)"/>
        </g>
        <g>
          <rect class="cls-20" x="814.79" y="118.47" width="2.18" height="2.18" transform="translate(1631.76 239.11) rotate(180)"/>
          <rect class="cls-20" x="811.87" y="118.47" width="2.18" height="2.18" transform="translate(1625.91 239.11) rotate(180)"/>
          <rect class="cls-20" x="808.94" y="118.47" width="2.18" height="2.18" transform="translate(1620.06 239.11) rotate(180)"/>
        </g>
      </g>
    </g>
    <g>
      <polygon class="cls-20" points="824.11 125.51 824.11 127.28 826.42 127.28 826.42 125.51 831.63 125.51 831.63 116.54 818.9 116.54 818.9 125.51 824.11 125.51"/>
      <g>
        <rect class="cls-17" x="820.14" y="117.38" width="10.24" height="7.09" transform="translate(1650.52 241.85) rotate(180)"/>
        <g>
          <rect class="cls-20" x="827.14" y="121.2" width="2.18" height="2.18" transform="translate(1656.46 244.58) rotate(180)"/>
          <rect class="cls-20" x="824.22" y="121.2" width="2.18" height="2.18" transform="translate(1650.61 244.58) rotate(180)"/>
          <rect class="cls-20" x="821.29" y="121.2" width="2.18" height="2.18" transform="translate(1644.76 244.58) rotate(180)"/>
        </g>
        <g>
          <rect class="cls-20" x="827.14" y="118.47" width="2.18" height="2.18" transform="translate(1656.46 239.11) rotate(180)"/>
          <rect class="cls-20" x="824.22" y="118.47" width="2.18" height="2.18" transform="translate(1650.61 239.11) rotate(180)"/>
          <rect class="cls-20" x="821.29" y="118.47" width="2.18" height="2.18" transform="translate(1644.76 239.11) rotate(180)"/>
        </g>
      </g>
    </g>
    <g>
      <polygon class="cls-20" points="733.32 125.51 733.32 127.27 738.87 127.27 738.87 125.51 751.37 125.51 751.37 116.55 720.82 116.55 720.82 125.51 733.32 125.51"/>
      <rect class="cls-17" x="722.06" y="117.39" width="27.83" height="7.09" transform="translate(1471.95 241.88) rotate(180)"/>
      <g>
        <rect class="cls-20" x="731.98" y="121.21" width="2.18" height="2.18" transform="translate(1466.14 244.6) rotate(180)"/>
        <rect class="cls-20" x="729.06" y="121.21" width="2.18" height="2.18" transform="translate(1460.29 244.6) rotate(180)"/>
        <rect class="cls-20" x="726.13" y="121.21" width="2.18" height="2.18" transform="translate(1454.44 244.6) rotate(180)"/>
        <rect class="cls-20" x="723.21" y="121.21" width="2.18" height="2.18" transform="translate(1448.59 244.6) rotate(180)"/>
      </g>
      <g>
        <rect class="cls-20" x="731.98" y="118.48" width="2.18" height="2.18" transform="translate(1466.14 239.14) rotate(180)"/>
        <rect class="cls-20" x="729.06" y="118.48" width="2.18" height="2.18" transform="translate(1460.29 239.14) rotate(180)"/>
        <rect class="cls-20" x="726.13" y="118.48" width="2.18" height="2.18" transform="translate(1454.44 239.14) rotate(180)"/>
        <rect class="cls-20" x="723.21" y="118.48" width="2.18" height="2.18" transform="translate(1448.59 239.14) rotate(180)"/>
      </g>
      <g>
        <rect class="cls-20" x="743.78" y="121.21" width="2.18" height="2.18" transform="translate(1489.74 244.6) rotate(180)"/>
        <rect class="cls-20" x="740.86" y="121.21" width="2.18" height="2.18" transform="translate(1483.89 244.6) rotate(180)"/>
        <rect class="cls-20" x="737.93" y="121.21" width="2.18" height="2.18" transform="translate(1478.04 244.6) rotate(180)"/>
        <rect class="cls-20" x="735.01" y="121.21" width="2.18" height="2.18" transform="translate(1472.19 244.6) rotate(180)"/>
      </g>
      <g>
        <rect class="cls-20" x="743.78" y="118.48" width="2.18" height="2.18" transform="translate(1489.74 239.14) rotate(180)"/>
        <rect class="cls-20" x="740.86" y="118.48" width="2.18" height="2.18" transform="translate(1483.89 239.14) rotate(180)"/>
        <rect class="cls-20" x="737.93" y="118.48" width="2.18" height="2.18" transform="translate(1478.04 239.14) rotate(180)"/>
        <rect class="cls-20" x="735.01" y="118.48" width="2.18" height="2.18" transform="translate(1472.19 239.14) rotate(180)"/>
      </g>
      <rect class="cls-20" x="746.58" y="121.28" width="2.18" height="2.18" transform="translate(1495.34 244.73) rotate(180)"/>
      <rect class="cls-20" x="746.58" y="118.54" width="2.18" height="2.18" transform="translate(1495.34 239.26) rotate(180)"/>
    </g>
    <g>
      <polygon class="cls-20" points="769.19 125.51 769.19 127.27 772.58 127.27 772.58 125.51 780.2 125.51 780.2 116.55 761.57 116.55 761.57 125.51 769.19 125.51"/>
      <rect class="cls-17" x="762.81" y="117.39" width="16.37" height="7.09" transform="translate(1541.99 241.88) rotate(180)"/>
      <g>
        <rect class="cls-20" x="772.74" y="121.21" width="2.18" height="2.18" transform="translate(1547.65 244.6) rotate(180)"/>
        <rect class="cls-20" x="769.81" y="121.21" width="2.18" height="2.18" transform="translate(1541.8 244.6) rotate(180)"/>
        <rect class="cls-20" x="766.88" y="121.21" width="2.18" height="2.18" transform="translate(1535.95 244.6) rotate(180)"/>
        <rect class="cls-20" x="763.96" y="121.21" width="2.18" height="2.18" transform="translate(1530.09 244.6) rotate(180)"/>
      </g>
      <g>
        <rect class="cls-20" x="772.74" y="118.48" width="2.18" height="2.18" transform="translate(1547.65 239.14) rotate(180)"/>
        <rect class="cls-20" x="769.81" y="118.48" width="2.18" height="2.18" transform="translate(1541.8 239.14) rotate(180)"/>
        <rect class="cls-20" x="766.88" y="118.48" width="2.18" height="2.18" transform="translate(1535.95 239.14) rotate(180)"/>
        <rect class="cls-20" x="763.96" y="118.48" width="2.18" height="2.18" transform="translate(1530.09 239.14) rotate(180)"/>
      </g>
      <rect class="cls-20" x="775.76" y="121.21" width="2.18" height="2.18" transform="translate(1553.7 244.6) rotate(180)"/>
      <rect class="cls-20" x="775.76" y="118.48" width="2.18" height="2.18" transform="translate(1553.7 239.14) rotate(180)"/>
    </g>
  </g>
  <g>
    <g>
      <rect class="cls-13" x="420.89" y="264.11" width="63.97" height="139.76" rx="5.04" ry="5.04"/>
      <rect class="cls-12" x="430.28" y="275.24" width="45.2" height="13.91"/>
      <rect class="cls-12" x="430.28" y="292.27" width="45.2" height="18.43"/>
      <g>
        <circle class="cls-12" cx="452.88" cy="364.93" r="9.73"/>
        <circle class="cls-14" cx="452.88" cy="364.93" r="5.12"/>
      </g>
    </g>
    <g>
      <rect class="cls-4" x="503.6" y="261.33" width="175.92" height="109.17"/>
      <rect class="cls-17" x="575.91" y="371.19" width="31.29" height="36.85"/>
      <polygon class="cls-1" points="591.56 388.74 564.5 408.04 618.62 408.04 591.56 388.74"/>
    </g>
  </g>
  <g>
    <g>
      <rect class="cls-9" x="154.58" y="522.04" width="132.97" height="26.86"/>
      <g>
        <path class="cls-2" d="M215.98,532.94h10.18c.2,0,.36.18.36.41l.02.96c0,.27-.07.54-.22.75l-.5.72s-.02.04-.02.06v1.46c0,.39-.27.7-.61.7h-8.27c-.34,0-.61-.31-.61-.7v-1.35s0-.04-.02-.06l-.53-.87c-.13-.21-.19-.46-.18-.72l.03-.96c0-.23.17-.4.36-.4Z"/>
        <path class="cls-2" d="M216.91,533.81h8.37c.16,0,.3.13.3.28v.67c.02.19-.05.37-.17.52l-.41.5s-.02.03-.02.04v1.01c0,.27-.22.48-.5.48h-6.8c-.28,0-.5-.22-.5-.48v-.93s0-.03-.01-.04l-.44-.6c-.11-.14-.16-.32-.15-.5l.03-.66c0-.16.14-.28.3-.28Z"/>
      </g>
    </g>
    <g>
      <rect class="cls-9" x="4.52" y="522.04" width="132.97" height="26.86"/>
      <g>
        <circle class="cls-2" cx="27.85" cy="538.06" r="3.82"/>
        <circle class="cls-2" cx="27.85" cy="538.06" r="2.27"/>
      </g>
      <text class="cls-22" transform="translate(61.86 529.66)"><tspan x="0" y="0">Clock </tspan><tspan class="cls-23" x="10.72" y="0">O</tspan><tspan x="13.69" y="0">ut</tspan></text>
      <g>
        <circle class="cls-2" cx="113.89" cy="538.06" r="3.82"/>
        <circle class="cls-2" cx="113.89" cy="538.06" r="2.27"/>
      </g>
      <g>
        <circle class="cls-2" cx="96.68" cy="538.06" r="3.82"/>
        <circle class="cls-2" cx="96.68" cy="538.06" r="2.27"/>
      </g>
      <g>
        <circle class="cls-2" cx="79.47" cy="538.06" r="3.82"/>
        <circle class="cls-2" cx="79.47" cy="538.06" r="2.27"/>
      </g>
      <g>
        <circle class="cls-2" cx="62.26" cy="538.06" r="3.82"/>
        <circle class="cls-2" cx="62.26" cy="538.06" r="2.27"/>
      </g>
      <g>
        <circle class="cls-2" cx="45.05" cy="538.06" r="3.82"/>
        <circle class="cls-2" cx="45.05" cy="538.06" r="2.27"/>
      </g>
      <line class="cls-6" x1="7.56" y1="528.54" x2="58.31" y2="528.54"/>
      <line class="cls-6" x1="82.87" y1="528.54" x2="133.63" y2="528.54"/>
    </g>
    <text class="cls-18" transform="translate(5.61 515.57)"><tspan class="cls-25" x="0" y="0">F</tspan><tspan class="cls-29" x="5.41" y="0">r</tspan><tspan x="9.12" y="0">o</tspan><tspan class="cls-28" x="15.56" y="0">n</tspan><tspan class="cls-27" x="22.02" y="0">t</tspan></text>
    <text class="cls-18" transform="translate(155.94 516.16)"><tspan x="0" y="0">Back</tspan></text>
  </g>
  <line class="cls-15" x1="114.07" y1="370.22" x2="114.07" y2="482.34"/>
  <g>
    <path class="cls-26" d="M143.65,457.87c-.08-1.54-.18-3.4-.16-4.78h-.05c-.38,1.3-.84,2.68-1.4,4.2l-1.95,5.37h-1.08l-1.79-5.27c-.53-1.56-.97-2.99-1.28-4.3h-.03c-.03,1.38-.12,3.23-.21,4.89l-.3,4.75h-1.36l.77-11.07h1.82l1.89,5.35c.46,1.36.84,2.58,1.12,3.73h.05c.28-1.12.67-2.33,1.17-3.73l1.97-5.35h1.82l.69,11.07h-1.4l-.28-4.86Z"/>
    <path class="cls-26" d="M149.28,452.55c.02.49-.34.89-.92.89-.51,0-.87-.39-.87-.89s.38-.9.9-.9.89.39.89.9ZM147.67,462.73v-7.95h1.44v7.95h-1.44Z"/>
    <path class="cls-26" d="M151.52,456.93c0-.82-.02-1.49-.07-2.15h1.28l.08,1.31h.03c.39-.76,1.31-1.49,2.63-1.49,1.1,0,2.81.66,2.81,3.38v4.75h-1.44v-4.58c0-1.28-.48-2.35-1.84-2.35-.95,0-1.69.67-1.94,1.48-.07.18-.1.43-.1.67v4.78h-1.44v-5.8Z"/>
    <path class="cls-26" d="M162.24,452.55c.02.49-.34.89-.92.89-.51,0-.87-.39-.87-.89s.38-.9.9-.9.89.39.89.9ZM160.63,462.73v-7.95h1.44v7.95h-1.44Z"/>
    <path class="cls-26" d="M170.26,451.66h1.43v7.41c0,2.94-1.44,3.84-3.35,3.84-.53,0-1.17-.12-1.53-.26l.21-1.17c.3.12.72.21,1.2.21,1.28,0,2.04-.58,2.04-2.74v-7.29Z"/>
    <path class="cls-26" d="M175.86,459.25l-1.15,3.48h-1.48l3.76-11.07h1.72l3.78,11.07h-1.53l-1.18-3.48h-3.92ZM179.49,458.13l-1.08-3.18c-.25-.72-.41-1.38-.57-2.02h-.03c-.16.66-.34,1.33-.56,2l-1.08,3.2h3.33Z"/>
    <path class="cls-26" d="M191.61,462.37c-.53.26-1.58.53-2.92.53-3.12,0-5.47-1.97-5.47-5.6s2.35-5.81,5.78-5.81c1.38,0,2.25.3,2.63.49l-.35,1.17c-.54-.26-1.31-.46-2.23-.46-2.59,0-4.32,1.66-4.32,4.56,0,2.71,1.56,4.45,4.25,4.45.87,0,1.76-.18,2.33-.46l.3,1.13Z"/>
    <path class="cls-26" d="M193.4,451.66h1.43v5.34h.05c.3-.43.59-.82.87-1.18l3.38-4.15h1.77l-4.01,4.7,4.32,6.37h-1.69l-3.65-5.43-1.05,1.21v4.22h-1.43v-11.07Z"/>
    <path class="cls-26" d="M134.13,480.69c.64.39,1.58.72,2.56.72,1.46,0,2.31-.77,2.31-1.89,0-1.03-.59-1.62-2.09-2.2-1.81-.64-2.92-1.58-2.92-3.14,0-1.72,1.43-3,3.58-3,1.13,0,1.95.26,2.45.54l-.39,1.17c-.36-.2-1.1-.53-2.1-.53-1.51,0-2.08.9-2.08,1.66,0,1.03.67,1.54,2.2,2.13,1.87.72,2.82,1.62,2.82,3.25,0,1.71-1.26,3.19-3.87,3.19-1.07,0-2.23-.31-2.82-.71l.36-1.2Z"/>
    <path class="cls-26" d="M144.52,472.58h-3.37v-1.21h8.19v1.21h-3.38v9.85h-1.44v-9.85Z"/>
    <path class="cls-26" d="M156.31,477.24h-4.3v3.99h4.79v1.2h-6.22v-11.07h5.98v1.2h-4.55v3.5h4.3v1.18Z"/>
    <path class="cls-26" d="M158.66,471.51c.72-.15,1.76-.23,2.74-.23,1.53,0,2.51.28,3.2.9.56.49.87,1.25.87,2.1,0,1.46-.92,2.43-2.08,2.82v.05c.85.3,1.36,1.08,1.62,2.23.36,1.54.62,2.61.85,3.04h-1.48c-.18-.31-.43-1.26-.74-2.64-.33-1.53-.92-2.1-2.22-2.15h-1.35v4.79h-1.43v-10.92ZM160.09,476.55h1.46c1.53,0,2.5-.84,2.5-2.1,0-1.43-1.03-2.05-2.54-2.07-.69,0-1.18.07-1.41.13v4.04Z"/>
    <path class="cls-26" d="M177,476.78c0,3.81-2.32,5.83-5.14,5.83s-4.98-2.27-4.98-5.62c0-3.51,2.18-5.81,5.14-5.81s4.98,2.32,4.98,5.6ZM168.41,476.96c0,2.36,1.28,4.48,3.53,4.48s3.55-2.08,3.55-4.6c0-2.2-1.15-4.5-3.53-4.5s-3.55,2.18-3.55,4.61Z"/>
    <path class="cls-26" d="M182.17,480.77c.41.26,1.36.67,2.36.67,1.86,0,2.43-1.18,2.41-2.07-.02-1.49-1.36-2.13-2.76-2.13h-.8v-1.08h.8c1.05,0,2.38-.54,2.38-1.81,0-.85-.54-1.61-1.87-1.61-.85,0-1.67.38-2.13.71l-.38-1.05c.56-.41,1.64-.82,2.79-.82,2.1,0,3.05,1.25,3.05,2.54,0,1.1-.66,2.04-1.97,2.51v.03c1.31.26,2.38,1.25,2.38,2.74,0,1.71-1.33,3.2-3.89,3.2-1.2,0-2.25-.38-2.77-.72l.39-1.12Z"/>
    <path class="cls-26" d="M190.36,481.58c0-.61.41-1.03.98-1.03s.97.43.97,1.03-.38,1.03-.99,1.03c-.57,0-.97-.44-.97-1.03Z"/>
    <path class="cls-26" d="M200.01,472.97h-4.07l-.41,2.74c.25-.03.48-.07.87-.07.82,0,1.64.18,2.3.58.84.48,1.53,1.4,1.53,2.74,0,2.08-1.66,3.64-3.97,3.64-1.17,0-2.15-.33-2.66-.66l.36-1.1c.44.26,1.31.59,2.28.59,1.36,0,2.53-.89,2.53-2.31-.02-1.38-.94-2.36-3.07-2.36-.61,0-1.08.07-1.48.11l.69-5.12h5.11v1.21Z"/>
    <path class="cls-26" d="M202.52,476.64c0-.82-.02-1.49-.07-2.15h1.26l.07,1.28h.05c.44-.75,1.18-1.46,2.5-1.46,1.08,0,1.9.66,2.25,1.59h.03c.25-.44.56-.79.89-1.04.48-.36,1-.56,1.76-.56,1.05,0,2.61.69,2.61,3.45v4.68h-1.41v-4.5c0-1.53-.56-2.45-1.72-2.45-.82,0-1.46.61-1.71,1.31-.07.2-.11.46-.11.72v4.91h-1.41v-4.76c0-1.26-.56-2.18-1.66-2.18-.9,0-1.56.72-1.79,1.45-.08.21-.12.46-.12.71v4.79h-1.41v-5.8Z"/>
    <path class="cls-26" d="M216.22,476.64c0-.82-.02-1.49-.07-2.15h1.26l.07,1.28h.05c.44-.75,1.18-1.46,2.5-1.46,1.08,0,1.9.66,2.25,1.59h.03c.25-.44.56-.79.89-1.04.48-.36,1-.56,1.76-.56,1.05,0,2.61.69,2.61,3.45v4.68h-1.41v-4.5c0-1.53-.56-2.45-1.72-2.45-.82,0-1.46.61-1.71,1.31-.07.2-.11.46-.11.72v4.91h-1.41v-4.76c0-1.26-.56-2.18-1.66-2.18-.9,0-1.56.72-1.79,1.45-.08.21-.12.46-.12.71v4.79h-1.41v-5.8Z"/>
  </g>
  <text class="cls-21" transform="translate(272.49 302.99)"><tspan x="0" y="0">USB </tspan></text>
  <line class="cls-15" x1="202.32" y1="325.58" x2="373.75" y2="325.58"/>
  <polyline class="cls-10" points="429.49 111.99 112.75 113.22 113.69 267.45"/>
  <text class="cls-21" transform="translate(132.62 267.13)"><tspan x="0" y="0">RJ45</tspan></text>
  <text class="cls-21" transform="translate(349.88 144.74)"><tspan class="cls-30" x="0" y="0">S</tspan><tspan x="8.19" y="0">e</tspan><tspan class="cls-24" x="16.42" y="0">r</tspan><tspan class="cls-19" x="21.85" y="0">ial 9 pins</tspan></text>
  <line class="cls-15" x1="572.82" y1="110.29" x2="684.95" y2="110.29"/>
  <text class="cls-21" transform="translate(602.18 140.93)"><tspan x="0" y="0" xml:space="preserve">24V  DC</tspan></text>
</svg>